<?xml version="1.0" encoding="utf-8"?>
<svg xmlns="http://www.w3.org/2000/svg" xmlns:xlink="http://www.w3.org/1999/xlink" width="600" height="400" viewBox="0 0 2400 1600">
<defs>
  <clipPath id="clip290">
    <rect x="0" y="0" width="2400" height="1600"/>
  </clipPath>
</defs>
<path clip-path="url(#clip290)" d="M0 1600 L2400 1600 L2400 0 L0 0  Z" fill="#ffffff" fill-rule="evenodd" fill-opacity="1"/>
<defs>
  <clipPath id="clip291">
    <rect x="480" y="0" width="1681" height="1600"/>
  </clipPath>
</defs>
<path clip-path="url(#clip290)" d="M283.843 1339.91 L2352.76 1339.91 L2352.76 62.9921 L283.843 62.9921  Z" fill="#ffffff" fill-rule="evenodd" fill-opacity="1"/>
<defs>
  <clipPath id="clip292">
    <rect x="283" y="62" width="2070" height="1278"/>
  </clipPath>
</defs>
<polyline clip-path="url(#clip292)" style="stroke:#000000; stroke-linecap:round; stroke-linejoin:round; stroke-width:2; stroke-opacity:0.1; fill:none" points="342.397,1339.91 342.397,62.9921 "/>
<polyline clip-path="url(#clip292)" style="stroke:#000000; stroke-linecap:round; stroke-linejoin:round; stroke-width:2; stroke-opacity:0.1; fill:none" points="830.348,1339.91 830.348,62.9921 "/>
<polyline clip-path="url(#clip292)" style="stroke:#000000; stroke-linecap:round; stroke-linejoin:round; stroke-width:2; stroke-opacity:0.1; fill:none" points="1318.3,1339.91 1318.3,62.9921 "/>
<polyline clip-path="url(#clip292)" style="stroke:#000000; stroke-linecap:round; stroke-linejoin:round; stroke-width:2; stroke-opacity:0.1; fill:none" points="1806.25,1339.91 1806.25,62.9921 "/>
<polyline clip-path="url(#clip292)" style="stroke:#000000; stroke-linecap:round; stroke-linejoin:round; stroke-width:2; stroke-opacity:0.1; fill:none" points="2294.2,1339.91 2294.2,62.9921 "/>
<polyline clip-path="url(#clip290)" style="stroke:#000000; stroke-linecap:round; stroke-linejoin:round; stroke-width:4; stroke-opacity:1; fill:none" points="283.843,1339.91 2352.76,1339.91 "/>
<polyline clip-path="url(#clip290)" style="stroke:#000000; stroke-linecap:round; stroke-linejoin:round; stroke-width:4; stroke-opacity:1; fill:none" points="342.397,1339.91 342.397,1321.01 "/>
<polyline clip-path="url(#clip290)" style="stroke:#000000; stroke-linecap:round; stroke-linejoin:round; stroke-width:4; stroke-opacity:1; fill:none" points="830.348,1339.91 830.348,1321.01 "/>
<polyline clip-path="url(#clip290)" style="stroke:#000000; stroke-linecap:round; stroke-linejoin:round; stroke-width:4; stroke-opacity:1; fill:none" points="1318.3,1339.91 1318.3,1321.01 "/>
<polyline clip-path="url(#clip290)" style="stroke:#000000; stroke-linecap:round; stroke-linejoin:round; stroke-width:4; stroke-opacity:1; fill:none" points="1806.25,1339.91 1806.25,1321.01 "/>
<polyline clip-path="url(#clip290)" style="stroke:#000000; stroke-linecap:round; stroke-linejoin:round; stroke-width:4; stroke-opacity:1; fill:none" points="2294.2,1339.91 2294.2,1321.01 "/>
<path clip-path="url(#clip290)" d="M319.781 1370.82 Q316.17 1370.82 314.341 1374.39 Q312.536 1377.93 312.536 1385.06 Q312.536 1392.17 314.341 1395.73 Q316.17 1399.27 319.781 1399.27 Q323.415 1399.27 325.221 1395.73 Q327.05 1392.17 327.05 1385.06 Q327.05 1377.93 325.221 1374.39 Q323.415 1370.82 319.781 1370.82 M319.781 1367.12 Q325.591 1367.12 328.647 1371.73 Q331.725 1376.31 331.725 1385.06 Q331.725 1393.79 328.647 1398.39 Q325.591 1402.98 319.781 1402.98 Q313.971 1402.98 310.892 1398.39 Q307.837 1393.79 307.837 1385.06 Q307.837 1376.31 310.892 1371.73 Q313.971 1367.12 319.781 1367.12 Z" fill="#000000" fill-rule="nonzero" fill-opacity="1" /><path clip-path="url(#clip290)" d="M339.943 1396.43 L344.827 1396.43 L344.827 1402.31 L339.943 1402.31 L339.943 1396.43 Z" fill="#000000" fill-rule="nonzero" fill-opacity="1" /><path clip-path="url(#clip290)" d="M365.012 1370.82 Q361.401 1370.82 359.573 1374.39 Q357.767 1377.93 357.767 1385.06 Q357.767 1392.17 359.573 1395.73 Q361.401 1399.27 365.012 1399.27 Q368.647 1399.27 370.452 1395.73 Q372.281 1392.17 372.281 1385.06 Q372.281 1377.93 370.452 1374.39 Q368.647 1370.82 365.012 1370.82 M365.012 1367.12 Q370.822 1367.12 373.878 1371.73 Q376.957 1376.31 376.957 1385.06 Q376.957 1393.79 373.878 1398.39 Q370.822 1402.98 365.012 1402.98 Q359.202 1402.98 356.123 1398.39 Q353.068 1393.79 353.068 1385.06 Q353.068 1376.31 356.123 1371.73 Q359.202 1367.12 365.012 1367.12 Z" fill="#000000" fill-rule="nonzero" fill-opacity="1" /><path clip-path="url(#clip290)" d="M802.084 1398.37 L818.404 1398.37 L818.404 1402.31 L796.459 1402.31 L796.459 1398.37 Q799.121 1395.62 803.705 1390.99 Q808.311 1386.33 809.492 1384.99 Q811.737 1382.47 812.617 1380.73 Q813.519 1378.97 813.519 1377.28 Q813.519 1374.53 811.575 1372.79 Q809.654 1371.06 806.552 1371.06 Q804.353 1371.06 801.899 1371.82 Q799.468 1372.58 796.691 1374.13 L796.691 1369.41 Q799.515 1368.28 801.968 1367.7 Q804.422 1367.12 806.459 1367.12 Q811.83 1367.12 815.024 1369.81 Q818.218 1372.49 818.218 1376.98 Q818.218 1379.11 817.408 1381.03 Q816.621 1382.93 814.515 1385.52 Q813.936 1386.19 810.834 1389.41 Q807.732 1392.61 802.084 1398.37 Z" fill="#000000" fill-rule="nonzero" fill-opacity="1" /><path clip-path="url(#clip290)" d="M828.218 1396.43 L833.103 1396.43 L833.103 1402.31 L828.218 1402.31 L828.218 1396.43 Z" fill="#000000" fill-rule="nonzero" fill-opacity="1" /><path clip-path="url(#clip290)" d="M843.334 1367.75 L861.69 1367.75 L861.69 1371.68 L847.616 1371.68 L847.616 1380.15 Q848.635 1379.81 849.653 1379.64 Q850.672 1379.46 851.69 1379.46 Q857.477 1379.46 860.857 1382.63 Q864.237 1385.8 864.237 1391.22 Q864.237 1396.8 860.764 1399.9 Q857.292 1402.98 850.973 1402.98 Q848.797 1402.98 846.528 1402.61 Q844.283 1402.24 841.876 1401.5 L841.876 1396.8 Q843.959 1397.93 846.181 1398.49 Q848.403 1399.04 850.88 1399.04 Q854.885 1399.04 857.223 1396.94 Q859.561 1394.83 859.561 1391.22 Q859.561 1387.61 857.223 1385.5 Q854.885 1383.39 850.88 1383.39 Q849.005 1383.39 847.13 1383.81 Q845.278 1384.23 843.334 1385.11 L843.334 1367.75 Z" fill="#000000" fill-rule="nonzero" fill-opacity="1" /><path clip-path="url(#clip290)" d="M1285.46 1367.75 L1303.82 1367.75 L1303.82 1371.68 L1289.75 1371.68 L1289.75 1380.15 Q1290.76 1379.81 1291.78 1379.64 Q1292.8 1379.46 1293.82 1379.46 Q1299.61 1379.46 1302.99 1382.63 Q1306.37 1385.8 1306.37 1391.22 Q1306.37 1396.8 1302.89 1399.9 Q1299.42 1402.98 1293.1 1402.98 Q1290.93 1402.98 1288.66 1402.61 Q1286.41 1402.24 1284.01 1401.5 L1284.01 1396.8 Q1286.09 1397.93 1288.31 1398.49 Q1290.53 1399.04 1293.01 1399.04 Q1297.01 1399.04 1299.35 1396.94 Q1301.69 1394.83 1301.69 1391.22 Q1301.69 1387.61 1299.35 1385.5 Q1297.01 1383.39 1293.01 1383.39 Q1291.14 1383.39 1289.26 1383.81 Q1287.41 1384.23 1285.46 1385.11 L1285.46 1367.75 Z" fill="#000000" fill-rule="nonzero" fill-opacity="1" /><path clip-path="url(#clip290)" d="M1315.58 1396.43 L1320.46 1396.43 L1320.46 1402.31 L1315.58 1402.31 L1315.58 1396.43 Z" fill="#000000" fill-rule="nonzero" fill-opacity="1" /><path clip-path="url(#clip290)" d="M1340.65 1370.82 Q1337.04 1370.82 1335.21 1374.39 Q1333.4 1377.93 1333.4 1385.06 Q1333.4 1392.17 1335.21 1395.73 Q1337.04 1399.27 1340.65 1399.27 Q1344.28 1399.27 1346.09 1395.73 Q1347.92 1392.17 1347.92 1385.06 Q1347.92 1377.93 1346.09 1374.39 Q1344.28 1370.82 1340.65 1370.82 M1340.65 1367.12 Q1346.46 1367.12 1349.51 1371.73 Q1352.59 1376.31 1352.59 1385.06 Q1352.59 1393.79 1349.51 1398.39 Q1346.46 1402.98 1340.65 1402.98 Q1334.84 1402.98 1331.76 1398.39 Q1328.7 1393.79 1328.7 1385.06 Q1328.7 1376.31 1331.76 1371.73 Q1334.84 1367.12 1340.65 1367.12 Z" fill="#000000" fill-rule="nonzero" fill-opacity="1" /><path clip-path="url(#clip290)" d="M1772.57 1367.75 L1794.79 1367.75 L1794.79 1369.74 L1782.25 1402.31 L1777.36 1402.31 L1789.17 1371.68 L1772.57 1371.68 L1772.57 1367.75 Z" fill="#000000" fill-rule="nonzero" fill-opacity="1" /><path clip-path="url(#clip290)" d="M1803.91 1396.43 L1808.8 1396.43 L1808.8 1402.31 L1803.91 1402.31 L1803.91 1396.43 Z" fill="#000000" fill-rule="nonzero" fill-opacity="1" /><path clip-path="url(#clip290)" d="M1819.03 1367.75 L1837.38 1367.75 L1837.38 1371.68 L1823.31 1371.68 L1823.31 1380.15 Q1824.33 1379.81 1825.35 1379.64 Q1826.37 1379.46 1827.38 1379.46 Q1833.17 1379.46 1836.55 1382.63 Q1839.93 1385.8 1839.93 1391.22 Q1839.93 1396.8 1836.46 1399.9 Q1832.99 1402.98 1826.67 1402.98 Q1824.49 1402.98 1822.22 1402.61 Q1819.98 1402.24 1817.57 1401.5 L1817.57 1396.8 Q1819.65 1397.93 1821.88 1398.49 Q1824.1 1399.04 1826.57 1399.04 Q1830.58 1399.04 1832.92 1396.94 Q1835.25 1394.83 1835.25 1391.22 Q1835.25 1387.61 1832.92 1385.5 Q1830.58 1383.39 1826.57 1383.39 Q1824.7 1383.39 1822.82 1383.81 Q1820.97 1384.23 1819.03 1385.11 L1819.03 1367.75 Z" fill="#000000" fill-rule="nonzero" fill-opacity="1" /><path clip-path="url(#clip290)" d="M2246.27 1398.37 L2253.91 1398.37 L2253.91 1372 L2245.6 1373.67 L2245.6 1369.41 L2253.87 1367.75 L2258.54 1367.75 L2258.54 1398.37 L2266.18 1398.37 L2266.18 1402.31 L2246.27 1402.31 L2246.27 1398.37 Z" fill="#000000" fill-rule="nonzero" fill-opacity="1" /><path clip-path="url(#clip290)" d="M2285.63 1370.82 Q2282.01 1370.82 2280.19 1374.39 Q2278.38 1377.93 2278.38 1385.06 Q2278.38 1392.17 2280.19 1395.73 Q2282.01 1399.27 2285.63 1399.27 Q2289.26 1399.27 2291.07 1395.73 Q2292.89 1392.17 2292.89 1385.06 Q2292.89 1377.93 2291.07 1374.39 Q2289.26 1370.82 2285.63 1370.82 M2285.63 1367.12 Q2291.44 1367.12 2294.49 1371.73 Q2297.57 1376.31 2297.57 1385.06 Q2297.57 1393.79 2294.49 1398.39 Q2291.44 1402.98 2285.63 1402.98 Q2279.82 1402.98 2276.74 1398.39 Q2273.68 1393.79 2273.68 1385.06 Q2273.68 1376.31 2276.74 1371.73 Q2279.82 1367.12 2285.63 1367.12 Z" fill="#000000" fill-rule="nonzero" fill-opacity="1" /><path clip-path="url(#clip290)" d="M2305.79 1396.43 L2310.67 1396.43 L2310.67 1402.31 L2305.79 1402.31 L2305.79 1396.43 Z" fill="#000000" fill-rule="nonzero" fill-opacity="1" /><path clip-path="url(#clip290)" d="M2330.86 1370.82 Q2327.25 1370.82 2325.42 1374.39 Q2323.61 1377.93 2323.61 1385.06 Q2323.61 1392.17 2325.42 1395.73 Q2327.25 1399.27 2330.86 1399.27 Q2334.49 1399.27 2336.3 1395.73 Q2338.13 1392.17 2338.13 1385.06 Q2338.13 1377.93 2336.3 1374.39 Q2334.49 1370.82 2330.86 1370.82 M2330.86 1367.12 Q2336.67 1367.12 2339.72 1371.73 Q2342.8 1376.31 2342.8 1385.06 Q2342.8 1393.79 2339.72 1398.39 Q2336.67 1402.98 2330.86 1402.98 Q2325.05 1402.98 2321.97 1398.39 Q2318.91 1393.79 2318.91 1385.06 Q2318.91 1376.31 2321.97 1371.73 Q2325.05 1367.12 2330.86 1367.12 Z" fill="#000000" fill-rule="nonzero" fill-opacity="1" /><polyline clip-path="url(#clip292)" style="stroke:#000000; stroke-linecap:round; stroke-linejoin:round; stroke-width:2; stroke-opacity:0.1; fill:none" points="283.843,1303.77 2352.76,1303.77 "/>
<polyline clip-path="url(#clip292)" style="stroke:#000000; stroke-linecap:round; stroke-linejoin:round; stroke-width:2; stroke-opacity:0.1; fill:none" points="283.843,1021.16 2352.76,1021.16 "/>
<polyline clip-path="url(#clip292)" style="stroke:#000000; stroke-linecap:round; stroke-linejoin:round; stroke-width:2; stroke-opacity:0.1; fill:none" points="283.843,738.551 2352.76,738.551 "/>
<polyline clip-path="url(#clip292)" style="stroke:#000000; stroke-linecap:round; stroke-linejoin:round; stroke-width:2; stroke-opacity:0.1; fill:none" points="283.843,455.943 2352.76,455.943 "/>
<polyline clip-path="url(#clip292)" style="stroke:#000000; stroke-linecap:round; stroke-linejoin:round; stroke-width:2; stroke-opacity:0.1; fill:none" points="283.843,173.335 2352.76,173.335 "/>
<polyline clip-path="url(#clip290)" style="stroke:#000000; stroke-linecap:round; stroke-linejoin:round; stroke-width:4; stroke-opacity:1; fill:none" points="283.843,1339.91 283.843,62.9921 "/>
<polyline clip-path="url(#clip290)" style="stroke:#000000; stroke-linecap:round; stroke-linejoin:round; stroke-width:4; stroke-opacity:1; fill:none" points="283.843,1303.77 302.74,1303.77 "/>
<polyline clip-path="url(#clip290)" style="stroke:#000000; stroke-linecap:round; stroke-linejoin:round; stroke-width:4; stroke-opacity:1; fill:none" points="283.843,1021.16 302.74,1021.16 "/>
<polyline clip-path="url(#clip290)" style="stroke:#000000; stroke-linecap:round; stroke-linejoin:round; stroke-width:4; stroke-opacity:1; fill:none" points="283.843,738.551 302.74,738.551 "/>
<polyline clip-path="url(#clip290)" style="stroke:#000000; stroke-linecap:round; stroke-linejoin:round; stroke-width:4; stroke-opacity:1; fill:none" points="283.843,455.943 302.74,455.943 "/>
<polyline clip-path="url(#clip290)" style="stroke:#000000; stroke-linecap:round; stroke-linejoin:round; stroke-width:4; stroke-opacity:1; fill:none" points="283.843,173.335 302.74,173.335 "/>
<path clip-path="url(#clip290)" d="M160.505 1289.57 Q156.894 1289.57 155.065 1293.13 Q153.26 1296.67 153.26 1303.8 Q153.26 1310.91 155.065 1314.47 Q156.894 1318.01 160.505 1318.01 Q164.139 1318.01 165.945 1314.47 Q167.774 1310.91 167.774 1303.8 Q167.774 1296.67 165.945 1293.13 Q164.139 1289.57 160.505 1289.57 M160.505 1285.86 Q166.315 1285.86 169.371 1290.47 Q172.449 1295.05 172.449 1303.8 Q172.449 1312.53 169.371 1317.13 Q166.315 1321.72 160.505 1321.72 Q154.695 1321.72 151.616 1317.13 Q148.561 1312.53 148.561 1303.8 Q148.561 1295.05 151.616 1290.47 Q154.695 1285.86 160.505 1285.86 Z" fill="#000000" fill-rule="nonzero" fill-opacity="1" /><path clip-path="url(#clip290)" d="M180.667 1315.17 L185.551 1315.17 L185.551 1321.05 L180.667 1321.05 L180.667 1315.17 Z" fill="#000000" fill-rule="nonzero" fill-opacity="1" /><path clip-path="url(#clip290)" d="M205.736 1289.57 Q202.125 1289.57 200.296 1293.13 Q198.491 1296.67 198.491 1303.8 Q198.491 1310.91 200.296 1314.47 Q202.125 1318.01 205.736 1318.01 Q209.371 1318.01 211.176 1314.47 Q213.005 1310.91 213.005 1303.8 Q213.005 1296.67 211.176 1293.13 Q209.371 1289.57 205.736 1289.57 M205.736 1285.86 Q211.546 1285.86 214.602 1290.47 Q217.681 1295.05 217.681 1303.8 Q217.681 1312.53 214.602 1317.13 Q211.546 1321.72 205.736 1321.72 Q199.926 1321.72 196.847 1317.13 Q193.792 1312.53 193.792 1303.8 Q193.792 1295.05 196.847 1290.47 Q199.926 1285.86 205.736 1285.86 Z" fill="#000000" fill-rule="nonzero" fill-opacity="1" /><path clip-path="url(#clip290)" d="M235.898 1289.57 Q232.287 1289.57 230.458 1293.13 Q228.653 1296.67 228.653 1303.8 Q228.653 1310.91 230.458 1314.47 Q232.287 1318.01 235.898 1318.01 Q239.532 1318.01 241.338 1314.47 Q243.167 1310.91 243.167 1303.8 Q243.167 1296.67 241.338 1293.13 Q239.532 1289.57 235.898 1289.57 M235.898 1285.86 Q241.708 1285.86 244.764 1290.47 Q247.843 1295.05 247.843 1303.8 Q247.843 1312.53 244.764 1317.13 Q241.708 1321.72 235.898 1321.72 Q230.088 1321.72 227.009 1317.13 Q223.954 1312.53 223.954 1303.8 Q223.954 1295.05 227.009 1290.47 Q230.088 1285.86 235.898 1285.86 Z" fill="#000000" fill-rule="nonzero" fill-opacity="1" /><path clip-path="url(#clip290)" d="M161.5 1006.96 Q157.889 1006.96 156.061 1010.52 Q154.255 1014.06 154.255 1021.19 Q154.255 1028.3 156.061 1031.86 Q157.889 1035.41 161.5 1035.41 Q165.135 1035.41 166.94 1031.86 Q168.769 1028.3 168.769 1021.19 Q168.769 1014.06 166.94 1010.52 Q165.135 1006.96 161.5 1006.96 M161.5 1003.25 Q167.311 1003.25 170.366 1007.86 Q173.445 1012.44 173.445 1021.19 Q173.445 1029.92 170.366 1034.53 Q167.311 1039.11 161.5 1039.11 Q155.69 1039.11 152.612 1034.53 Q149.556 1029.92 149.556 1021.19 Q149.556 1012.44 152.612 1007.86 Q155.69 1003.25 161.5 1003.25 Z" fill="#000000" fill-rule="nonzero" fill-opacity="1" /><path clip-path="url(#clip290)" d="M181.662 1032.56 L186.547 1032.56 L186.547 1038.44 L181.662 1038.44 L181.662 1032.56 Z" fill="#000000" fill-rule="nonzero" fill-opacity="1" /><path clip-path="url(#clip290)" d="M200.759 1034.5 L217.079 1034.5 L217.079 1038.44 L195.134 1038.44 L195.134 1034.5 Q197.796 1031.75 202.38 1027.12 Q206.986 1022.47 208.167 1021.12 Q210.412 1018.6 211.292 1016.86 Q212.195 1015.11 212.195 1013.42 Q212.195 1010.66 210.25 1008.92 Q208.329 1007.19 205.227 1007.19 Q203.028 1007.19 200.574 1007.95 Q198.144 1008.72 195.366 1010.27 L195.366 1005.55 Q198.19 1004.41 200.644 1003.83 Q203.097 1003.25 205.134 1003.25 Q210.505 1003.25 213.699 1005.94 Q216.894 1008.62 216.894 1013.11 Q216.894 1015.24 216.083 1017.17 Q215.296 1019.06 213.19 1021.66 Q212.611 1022.33 209.509 1025.55 Q206.408 1028.74 200.759 1034.5 Z" fill="#000000" fill-rule="nonzero" fill-opacity="1" /><path clip-path="url(#clip290)" d="M226.94 1003.88 L245.296 1003.88 L245.296 1007.81 L231.222 1007.81 L231.222 1016.29 Q232.241 1015.94 233.259 1015.78 Q234.278 1015.59 235.296 1015.59 Q241.083 1015.59 244.463 1018.76 Q247.843 1021.93 247.843 1027.35 Q247.843 1032.93 244.37 1036.03 Q240.898 1039.11 234.579 1039.11 Q232.403 1039.11 230.134 1038.74 Q227.889 1038.37 225.482 1037.63 L225.482 1032.93 Q227.565 1034.06 229.787 1034.62 Q232.009 1035.17 234.486 1035.17 Q238.491 1035.17 240.829 1033.07 Q243.167 1030.96 243.167 1027.35 Q243.167 1023.74 240.829 1021.63 Q238.491 1019.53 234.486 1019.53 Q232.611 1019.53 230.736 1019.94 Q228.884 1020.36 226.94 1021.24 L226.94 1003.88 Z" fill="#000000" fill-rule="nonzero" fill-opacity="1" /><path clip-path="url(#clip290)" d="M160.505 724.35 Q156.894 724.35 155.065 727.914 Q153.26 731.456 153.26 738.586 Q153.26 745.692 155.065 749.257 Q156.894 752.799 160.505 752.799 Q164.139 752.799 165.945 749.257 Q167.774 745.692 167.774 738.586 Q167.774 731.456 165.945 727.914 Q164.139 724.35 160.505 724.35 M160.505 720.646 Q166.315 720.646 169.371 725.252 Q172.449 729.836 172.449 738.586 Q172.449 747.312 169.371 751.919 Q166.315 756.502 160.505 756.502 Q154.695 756.502 151.616 751.919 Q148.561 747.312 148.561 738.586 Q148.561 729.836 151.616 725.252 Q154.695 720.646 160.505 720.646 Z" fill="#000000" fill-rule="nonzero" fill-opacity="1" /><path clip-path="url(#clip290)" d="M180.667 749.951 L185.551 749.951 L185.551 755.831 L180.667 755.831 L180.667 749.951 Z" fill="#000000" fill-rule="nonzero" fill-opacity="1" /><path clip-path="url(#clip290)" d="M195.783 721.271 L214.139 721.271 L214.139 725.206 L200.065 725.206 L200.065 733.678 Q201.084 733.331 202.102 733.169 Q203.121 732.984 204.139 732.984 Q209.926 732.984 213.306 736.155 Q216.685 739.326 216.685 744.743 Q216.685 750.322 213.213 753.424 Q209.741 756.502 203.421 756.502 Q201.246 756.502 198.977 756.132 Q196.732 755.761 194.324 755.021 L194.324 750.322 Q196.408 751.456 198.63 752.012 Q200.852 752.567 203.329 752.567 Q207.333 752.567 209.671 750.461 Q212.009 748.354 212.009 744.743 Q212.009 741.132 209.671 739.025 Q207.333 736.919 203.329 736.919 Q201.454 736.919 199.579 737.336 Q197.727 737.752 195.783 738.632 L195.783 721.271 Z" fill="#000000" fill-rule="nonzero" fill-opacity="1" /><path clip-path="url(#clip290)" d="M235.898 724.35 Q232.287 724.35 230.458 727.914 Q228.653 731.456 228.653 738.586 Q228.653 745.692 230.458 749.257 Q232.287 752.799 235.898 752.799 Q239.532 752.799 241.338 749.257 Q243.167 745.692 243.167 738.586 Q243.167 731.456 241.338 727.914 Q239.532 724.35 235.898 724.35 M235.898 720.646 Q241.708 720.646 244.764 725.252 Q247.843 729.836 247.843 738.586 Q247.843 747.312 244.764 751.919 Q241.708 756.502 235.898 756.502 Q230.088 756.502 227.009 751.919 Q223.954 747.312 223.954 738.586 Q223.954 729.836 227.009 725.252 Q230.088 720.646 235.898 720.646 Z" fill="#000000" fill-rule="nonzero" fill-opacity="1" /><path clip-path="url(#clip290)" d="M161.5 441.742 Q157.889 441.742 156.061 445.307 Q154.255 448.848 154.255 455.978 Q154.255 463.084 156.061 466.649 Q157.889 470.191 161.5 470.191 Q165.135 470.191 166.94 466.649 Q168.769 463.084 168.769 455.978 Q168.769 448.848 166.94 445.307 Q165.135 441.742 161.5 441.742 M161.5 438.038 Q167.311 438.038 170.366 442.645 Q173.445 447.228 173.445 455.978 Q173.445 464.705 170.366 469.311 Q167.311 473.894 161.5 473.894 Q155.69 473.894 152.612 469.311 Q149.556 464.705 149.556 455.978 Q149.556 447.228 152.612 442.645 Q155.69 438.038 161.5 438.038 Z" fill="#000000" fill-rule="nonzero" fill-opacity="1" /><path clip-path="url(#clip290)" d="M181.662 467.344 L186.547 467.344 L186.547 473.223 L181.662 473.223 L181.662 467.344 Z" fill="#000000" fill-rule="nonzero" fill-opacity="1" /><path clip-path="url(#clip290)" d="M195.551 438.663 L217.773 438.663 L217.773 440.654 L205.227 473.223 L200.343 473.223 L212.148 442.598 L195.551 442.598 L195.551 438.663 Z" fill="#000000" fill-rule="nonzero" fill-opacity="1" /><path clip-path="url(#clip290)" d="M226.94 438.663 L245.296 438.663 L245.296 442.598 L231.222 442.598 L231.222 451.071 Q232.241 450.723 233.259 450.561 Q234.278 450.376 235.296 450.376 Q241.083 450.376 244.463 453.547 Q247.843 456.719 247.843 462.135 Q247.843 467.714 244.37 470.816 Q240.898 473.894 234.579 473.894 Q232.403 473.894 230.134 473.524 Q227.889 473.154 225.482 472.413 L225.482 467.714 Q227.565 468.848 229.787 469.404 Q232.009 469.959 234.486 469.959 Q238.491 469.959 240.829 467.853 Q243.167 465.746 243.167 462.135 Q243.167 458.524 240.829 456.418 Q238.491 454.311 234.486 454.311 Q232.611 454.311 230.736 454.728 Q228.884 455.145 226.94 456.024 L226.94 438.663 Z" fill="#000000" fill-rule="nonzero" fill-opacity="1" /><path clip-path="url(#clip290)" d="M151.315 186.68 L158.954 186.68 L158.954 160.315 L150.644 161.981 L150.644 157.722 L158.908 156.055 L163.584 156.055 L163.584 186.68 L171.223 186.68 L171.223 190.615 L151.315 190.615 L151.315 186.68 Z" fill="#000000" fill-rule="nonzero" fill-opacity="1" /><path clip-path="url(#clip290)" d="M180.667 184.736 L185.551 184.736 L185.551 190.615 L180.667 190.615 L180.667 184.736 Z" fill="#000000" fill-rule="nonzero" fill-opacity="1" /><path clip-path="url(#clip290)" d="M205.736 159.134 Q202.125 159.134 200.296 162.699 Q198.491 166.241 198.491 173.37 Q198.491 180.477 200.296 184.041 Q202.125 187.583 205.736 187.583 Q209.371 187.583 211.176 184.041 Q213.005 180.477 213.005 173.37 Q213.005 166.241 211.176 162.699 Q209.371 159.134 205.736 159.134 M205.736 155.43 Q211.546 155.43 214.602 160.037 Q217.681 164.62 217.681 173.37 Q217.681 182.097 214.602 186.703 Q211.546 191.287 205.736 191.287 Q199.926 191.287 196.847 186.703 Q193.792 182.097 193.792 173.37 Q193.792 164.62 196.847 160.037 Q199.926 155.43 205.736 155.43 Z" fill="#000000" fill-rule="nonzero" fill-opacity="1" /><path clip-path="url(#clip290)" d="M235.898 159.134 Q232.287 159.134 230.458 162.699 Q228.653 166.241 228.653 173.37 Q228.653 180.477 230.458 184.041 Q232.287 187.583 235.898 187.583 Q239.532 187.583 241.338 184.041 Q243.167 180.477 243.167 173.37 Q243.167 166.241 241.338 162.699 Q239.532 159.134 235.898 159.134 M235.898 155.43 Q241.708 155.43 244.764 160.037 Q247.843 164.62 247.843 173.37 Q247.843 182.097 244.764 186.703 Q241.708 191.287 235.898 191.287 Q230.088 191.287 227.009 186.703 Q223.954 182.097 223.954 173.37 Q223.954 164.62 227.009 160.037 Q230.088 155.43 235.898 155.43 Z" fill="#000000" fill-rule="nonzero" fill-opacity="1" /><path clip-path="url(#clip290)" d="M54.4449 889.094 L61.2244 889.094 Q58.2007 892.34 56.7048 896.033 Q55.2088 899.693 55.2088 903.831 Q55.2088 911.979 60.2059 916.307 Q65.1711 920.636 74.5924 920.636 Q83.9818 920.636 88.9789 916.307 Q93.9441 911.979 93.9441 903.831 Q93.9441 899.693 92.4482 896.033 Q90.9523 892.34 87.9285 889.094 L94.6444 889.094 Q96.936 892.468 98.0818 896.255 Q99.2277 900.011 99.2277 904.212 Q99.2277 915.002 92.6392 921.209 Q86.0188 927.415 74.5924 927.415 Q63.1341 927.415 56.5456 921.209 Q49.9253 915.002 49.9253 904.212 Q49.9253 899.947 51.0711 896.192 Q52.1851 892.404 54.4449 889.094 Z" fill="#000000" fill-rule="nonzero" fill-opacity="1" /><path clip-path="url(#clip290)" d="M66.7626 865.604 Q66.7626 870.315 70.4547 873.052 Q74.115 875.79 80.5125 875.79 Q86.91 875.79 90.6021 873.084 Q94.2624 870.347 94.2624 865.604 Q94.2624 860.926 90.5703 858.188 Q86.8782 855.451 80.5125 855.451 Q74.1786 855.451 70.4865 858.188 Q66.7626 860.926 66.7626 865.604 M61.7973 865.604 Q61.7973 857.966 66.7626 853.605 Q71.7278 849.245 80.5125 849.245 Q89.2653 849.245 94.2624 853.605 Q99.2277 857.966 99.2277 865.604 Q99.2277 873.275 94.2624 877.636 Q89.2653 881.964 80.5125 881.964 Q71.7278 881.964 66.7626 877.636 Q61.7973 873.275 61.7973 865.604 Z" fill="#000000" fill-rule="nonzero" fill-opacity="1" /><path clip-path="url(#clip290)" d="M76.7886 809.905 L98.3046 809.905 L98.3046 815.761 L76.9795 815.761 Q71.9188 815.761 69.4043 817.734 Q66.8899 819.708 66.8899 823.654 Q66.8899 828.397 69.9136 831.134 Q72.9373 833.871 78.1572 833.871 L98.3046 833.871 L98.3046 839.76 L62.6567 839.76 L62.6567 833.871 L68.1949 833.871 Q64.9802 831.771 63.3887 828.938 Q61.7973 826.073 61.7973 822.35 Q61.7973 816.207 65.6167 813.056 Q69.4043 809.905 76.7886 809.905 Z" fill="#000000" fill-rule="nonzero" fill-opacity="1" /><path clip-path="url(#clip290)" d="M64.0253 772.57 L69.4998 772.57 Q68.1312 775.052 67.4628 777.567 Q66.7626 780.049 66.7626 782.596 Q66.7626 788.293 70.391 791.444 Q73.9876 794.595 80.5125 794.595 Q87.0373 794.595 90.6658 791.444 Q94.2624 788.293 94.2624 782.596 Q94.2624 780.049 93.594 777.567 Q92.8938 775.052 91.5252 772.57 L96.936 772.57 Q98.0818 775.02 98.6548 777.662 Q99.2277 780.272 99.2277 783.232 Q99.2277 791.285 94.1669 796.027 Q89.1062 800.77 80.5125 800.77 Q71.7915 800.77 66.7944 795.995 Q61.7973 791.189 61.7973 782.85 Q61.7973 780.145 62.3702 777.567 Q62.9113 774.989 64.0253 772.57 Z" fill="#000000" fill-rule="nonzero" fill-opacity="1" /><path clip-path="url(#clip290)" d="M79.0166 731.893 L81.8811 731.893 L81.8811 758.82 Q87.9285 758.438 91.1114 755.191 Q94.2624 751.913 94.2624 746.088 Q94.2624 742.715 93.4349 739.563 Q92.6073 736.381 90.9523 733.261 L96.4904 733.261 Q97.8272 736.412 98.5274 739.723 Q99.2277 743.033 99.2277 746.438 Q99.2277 754.968 94.2624 759.966 Q89.2972 764.931 80.8308 764.931 Q72.0779 764.931 66.9535 760.22 Q61.7973 755.478 61.7973 747.457 Q61.7973 740.264 66.4443 736.094 Q71.0594 731.893 79.0166 731.893 M77.2978 737.749 Q72.4917 737.813 69.6271 740.455 Q66.7626 743.065 66.7626 747.393 Q66.7626 752.295 69.5317 755.255 Q72.3007 758.183 77.3296 758.629 L77.2978 737.749 Z" fill="#000000" fill-rule="nonzero" fill-opacity="1" /><path clip-path="url(#clip290)" d="M76.7886 692.648 L98.3046 692.648 L98.3046 698.505 L76.9795 698.505 Q71.9188 698.505 69.4043 700.478 Q66.8899 702.451 66.8899 706.398 Q66.8899 711.141 69.9136 713.878 Q72.9373 716.615 78.1572 716.615 L98.3046 716.615 L98.3046 722.503 L62.6567 722.503 L62.6567 716.615 L68.1949 716.615 Q64.9802 714.514 63.3887 711.682 Q61.7973 708.817 61.7973 705.093 Q61.7973 698.95 65.6167 695.799 Q69.4043 692.648 76.7886 692.648 Z" fill="#000000" fill-rule="nonzero" fill-opacity="1" /><path clip-path="url(#clip290)" d="M52.5352 675.174 L62.6567 675.174 L62.6567 663.111 L67.2082 663.111 L67.2082 675.174 L86.5599 675.174 Q90.9204 675.174 92.1617 673.997 Q93.4031 672.787 93.4031 669.127 L93.4031 663.111 L98.3046 663.111 L98.3046 669.127 Q98.3046 675.906 95.7902 678.485 Q93.2439 681.063 86.5599 681.063 L67.2082 681.063 L67.2082 685.359 L62.6567 685.359 L62.6567 681.063 L52.5352 681.063 L52.5352 675.174 Z" fill="#000000" fill-rule="nonzero" fill-opacity="1" /><path clip-path="url(#clip290)" d="M68.1312 634.752 Q67.5583 635.739 67.3037 636.916 Q67.0172 638.062 67.0172 639.463 Q67.0172 644.428 70.2637 647.102 Q73.4784 649.743 79.5258 649.743 L98.3046 649.743 L98.3046 655.632 L62.6567 655.632 L62.6567 649.743 L68.1949 649.743 Q64.9483 647.897 63.3887 644.937 Q61.7973 641.977 61.7973 637.744 Q61.7973 637.139 61.8928 636.407 Q61.9565 635.675 62.1156 634.784 L68.1312 634.752 Z" fill="#000000" fill-rule="nonzero" fill-opacity="1" /><path clip-path="url(#clip290)" d="M80.3852 612.408 Q80.3852 619.506 82.0084 622.244 Q83.6317 624.981 87.5466 624.981 Q90.6658 624.981 92.5119 622.944 Q94.3261 620.875 94.3261 617.342 Q94.3261 612.472 90.8886 609.544 Q87.4193 606.584 81.6901 606.584 L80.3852 606.584 L80.3852 612.408 M77.9662 600.727 L98.3046 600.727 L98.3046 606.584 L92.8938 606.584 Q96.1403 608.589 97.6999 611.581 Q99.2277 614.573 99.2277 618.902 Q99.2277 624.376 96.1721 627.623 Q93.0848 630.837 87.9285 630.837 Q81.9129 630.837 78.8574 626.827 Q75.8019 622.785 75.8019 614.796 L75.8019 606.584 L75.229 606.584 Q71.1867 606.584 68.9906 609.257 Q66.7626 611.899 66.7626 616.705 Q66.7626 619.761 67.4946 622.657 Q68.2267 625.554 69.6908 628.227 L64.2799 628.227 Q63.0386 625.013 62.4339 621.989 Q61.7973 618.965 61.7973 616.101 Q61.7973 608.366 65.8077 604.547 Q69.8181 600.727 77.9662 600.727 Z" fill="#000000" fill-rule="nonzero" fill-opacity="1" /><path clip-path="url(#clip290)" d="M52.5352 582.872 L62.6567 582.872 L62.6567 570.809 L67.2082 570.809 L67.2082 582.872 L86.5599 582.872 Q90.9204 582.872 92.1617 581.694 Q93.4031 580.484 93.4031 576.824 L93.4031 570.809 L98.3046 570.809 L98.3046 576.824 Q98.3046 583.604 95.7902 586.182 Q93.2439 588.76 86.5599 588.76 L67.2082 588.76 L67.2082 593.057 L62.6567 593.057 L62.6567 588.76 L52.5352 588.76 L52.5352 582.872 Z" fill="#000000" fill-rule="nonzero" fill-opacity="1" /><path clip-path="url(#clip290)" d="M62.6567 563.106 L62.6567 557.25 L98.3046 557.25 L98.3046 563.106 L62.6567 563.106 M48.7794 563.106 L48.7794 557.25 L56.1955 557.25 L56.1955 563.106 L48.7794 563.106 Z" fill="#000000" fill-rule="nonzero" fill-opacity="1" /><path clip-path="url(#clip290)" d="M66.7626 531.182 Q66.7626 535.893 70.4547 538.63 Q74.115 541.367 80.5125 541.367 Q86.91 541.367 90.6021 538.662 Q94.2624 535.925 94.2624 531.182 Q94.2624 526.503 90.5703 523.766 Q86.8782 521.029 80.5125 521.029 Q74.1786 521.029 70.4865 523.766 Q66.7626 526.503 66.7626 531.182 M61.7973 531.182 Q61.7973 523.543 66.7626 519.183 Q71.7278 514.822 80.5125 514.822 Q89.2653 514.822 94.2624 519.183 Q99.2277 523.543 99.2277 531.182 Q99.2277 538.853 94.2624 543.213 Q89.2653 547.542 80.5125 547.542 Q71.7278 547.542 66.7626 543.213 Q61.7973 538.853 61.7973 531.182 Z" fill="#000000" fill-rule="nonzero" fill-opacity="1" /><path clip-path="url(#clip290)" d="M76.7886 475.482 L98.3046 475.482 L98.3046 481.339 L76.9795 481.339 Q71.9188 481.339 69.4043 483.312 Q66.8899 485.285 66.8899 489.232 Q66.8899 493.975 69.9136 496.712 Q72.9373 499.449 78.1572 499.449 L98.3046 499.449 L98.3046 505.337 L62.6567 505.337 L62.6567 499.449 L68.1949 499.449 Q64.9802 497.348 63.3887 494.516 Q61.7973 491.651 61.7973 487.927 Q61.7973 481.784 65.6167 478.633 Q69.4043 475.482 76.7886 475.482 Z" fill="#000000" fill-rule="nonzero" fill-opacity="1" /><path clip-path="url(#clip290)" d="M1311.11 28.9478 L1311.11 35.9153 Q1307.95 34.1734 1304.75 33.3227 Q1301.59 32.4315 1298.35 32.4315 Q1291.1 32.4315 1287.09 37.0496 Q1283.08 41.6271 1283.08 49.9314 Q1283.08 58.2358 1287.09 62.8538 Q1291.1 67.4314 1298.35 67.4314 Q1301.59 67.4314 1304.75 66.5807 Q1307.95 65.6895 1311.11 63.9476 L1311.11 70.8341 Q1307.99 72.2924 1304.63 73.0216 Q1301.31 73.7508 1297.54 73.7508 Q1287.29 73.7508 1281.25 67.3098 Q1275.22 60.8689 1275.22 49.9314 Q1275.22 38.832 1281.29 32.472 Q1287.41 26.1121 1298.02 26.1121 Q1301.47 26.1121 1304.75 26.8413 Q1308.03 27.5299 1311.11 28.9478 Z" fill="#000000" fill-rule="nonzero" fill-opacity="1" /><path clip-path="url(#clip290)" d="M1326.54 65.6895 L1339.91 65.6895 L1339.91 19.5497 L1325.37 22.4663 L1325.37 15.0127 L1339.83 12.096 L1348.01 12.096 L1348.01 65.6895 L1361.38 65.6895 L1361.38 72.576 L1326.54 72.576 L1326.54 65.6895 Z" fill="#000000" fill-rule="nonzero" fill-opacity="1" /><circle clip-path="url(#clip292)" cx="537.577" cy="1148.98" r="14.4" fill="#009af9" fill-rule="evenodd" fill-opacity="1" stroke="#000000" stroke-opacity="1" stroke-width="3.2"/>
<circle clip-path="url(#clip292)" cx="732.758" cy="1009.11" r="14.4" fill="#009af9" fill-rule="evenodd" fill-opacity="1" stroke="#000000" stroke-opacity="1" stroke-width="3.2"/>
<circle clip-path="url(#clip292)" cx="927.938" cy="809.584" r="14.4" fill="#009af9" fill-rule="evenodd" fill-opacity="1" stroke="#000000" stroke-opacity="1" stroke-width="3.2"/>
<circle clip-path="url(#clip292)" cx="1123.12" cy="641.689" r="14.4" fill="#009af9" fill-rule="evenodd" fill-opacity="1" stroke="#000000" stroke-opacity="1" stroke-width="3.2"/>
<circle clip-path="url(#clip292)" cx="1318.3" cy="370.483" r="14.4" fill="#009af9" fill-rule="evenodd" fill-opacity="1" stroke="#000000" stroke-opacity="1" stroke-width="3.2"/>
<circle clip-path="url(#clip292)" cx="1513.48" cy="506.52" r="14.4" fill="#009af9" fill-rule="evenodd" fill-opacity="1" stroke="#000000" stroke-opacity="1" stroke-width="3.2"/>
<circle clip-path="url(#clip292)" cx="1708.66" cy="209.8" r="14.4" fill="#009af9" fill-rule="evenodd" fill-opacity="1" stroke="#000000" stroke-opacity="1" stroke-width="3.2"/>
<circle clip-path="url(#clip292)" cx="1903.84" cy="99.1312" r="14.4" fill="#009af9" fill-rule="evenodd" fill-opacity="1" stroke="#000000" stroke-opacity="1" stroke-width="3.2"/>
<circle clip-path="url(#clip292)" cx="2099.02" cy="369.09" r="14.4" fill="#009af9" fill-rule="evenodd" fill-opacity="1" stroke="#000000" stroke-opacity="1" stroke-width="3.2"/>
<circle clip-path="url(#clip292)" cx="2294.2" cy="307.334" r="14.4" fill="#009af9" fill-rule="evenodd" fill-opacity="1" stroke="#000000" stroke-opacity="1" stroke-width="3.2"/>
<polyline clip-path="url(#clip292)" style="stroke:#009af9; stroke-linecap:round; stroke-linejoin:round; stroke-width:4; stroke-opacity:1; fill:none" points="342.397,1303.77 344.346,1303.75 346.87,1303.66 349.935,1303.46 353.557,1303.09 357.7,1302.52 362.345,1301.68 367.457,1300.53 373.008,1299.03 378.971,1297.14 385.324,1294.82 392.047,1292.04 399.126,1288.79 406.55,1285.05 414.311,1280.78 422.405,1275.99 430.831,1270.64 439.589,1264.74 448.683,1258.27 458.117,1251.21 467.899,1243.55 478.035,1235.29 488.537,1226.41 499.414,1216.91 510.679,1206.78 522.344,1196 534.424,1184.56 546.935,1172.47 559.894,1159.71 573.318,1146.28 587.228,1132.16 601.644,1117.36 616.59,1101.86 632.092,1085.66 648.178,1068.76 664.879,1051.14 682.232,1032.8 700.277,1013.73 719.064,993.912 738.647,973.333 759.098,951.968 780.502,929.781 802.972,906.722 826.658,882.711 851.784,857.614 878.702,831.196 908.086,802.956 941.817,771.364 983.275,733.815 1016.21,705.039 1051.71,675.096 1087.21,646.293 1122.71,618.644 1158.21,592.155 1193.71,566.826 1229.21,542.651 1264.72,519.616 1300.22,497.705 1335.72,476.897 1371.22,457.168 1406.72,438.49 1442.33,420.777 1478.21,403.942 1514.45,387.922 1551.19,372.663 1588.51,358.122 1626.55,344.263 1665.4,331.056 1705.18,318.476 1746.03,306.501 1788.07,295.112 1831.44,284.294 1876.32,274.033 1922.88,264.316 1971.34,255.134 2021.92,246.476 2074.91,238.335 2130.61,230.704 2189.4,223.576 2251.71,216.948 2294.2,212.918 "/>
<path clip-path="url(#clip290)" d="M352.806 261.076 L868.469 261.076 L868.469 105.556 L352.806 105.556  Z" fill="#ffffff" fill-rule="evenodd" fill-opacity="1"/>
<polyline clip-path="url(#clip290)" style="stroke:#000000; stroke-linecap:round; stroke-linejoin:round; stroke-width:4; stroke-opacity:1; fill:none" points="352.806,261.076 868.469,261.076 868.469,105.556 352.806,105.556 352.806,261.076 "/>
<circle clip-path="url(#clip290)" cx="444.758" cy="157.396" r="20.48" fill="#009af9" fill-rule="evenodd" fill-opacity="1" stroke="#000000" stroke-opacity="1" stroke-width="4.55111"/>
<path clip-path="url(#clip290)" d="M541.386 143.958 L541.386 156.945 L547.265 156.945 Q550.529 156.945 552.311 155.255 Q554.094 153.565 554.094 150.44 Q554.094 147.338 552.311 145.648 Q550.529 143.958 547.265 143.958 L541.386 143.958 M536.71 140.116 L547.265 140.116 Q553.075 140.116 556.038 142.755 Q559.024 145.371 559.024 150.44 Q559.024 155.556 556.038 158.171 Q553.075 160.787 547.265 160.787 L541.386 160.787 L541.386 174.676 L536.71 174.676 L536.71 140.116 Z" fill="#000000" fill-rule="nonzero" fill-opacity="1" /><path clip-path="url(#clip290)" d="M590.413 138.704 Q587.311 144.028 585.807 149.236 Q584.302 154.445 584.302 159.792 Q584.302 165.139 585.807 170.394 Q587.334 175.625 590.413 180.926 L586.709 180.926 Q583.237 175.486 581.501 170.231 Q579.788 164.977 579.788 159.792 Q579.788 154.63 581.501 149.398 Q583.214 144.167 586.709 138.704 L590.413 138.704 Z" fill="#000000" fill-rule="nonzero" fill-opacity="1" /><path clip-path="url(#clip290)" d="M618.862 153.727 Q620.459 150.857 622.681 149.491 Q624.904 148.125 627.913 148.125 Q631.964 148.125 634.163 150.972 Q636.362 153.796 636.362 159.028 L636.362 174.676 L632.08 174.676 L632.08 159.167 Q632.08 155.44 630.76 153.634 Q629.441 151.829 626.732 151.829 Q623.422 151.829 621.501 154.028 Q619.58 156.227 619.58 160.023 L619.58 174.676 L615.297 174.676 L615.297 159.167 Q615.297 155.417 613.978 153.634 Q612.658 151.829 609.904 151.829 Q606.64 151.829 604.719 154.051 Q602.797 156.25 602.797 160.023 L602.797 174.676 L598.515 174.676 L598.515 148.75 L602.797 148.75 L602.797 152.778 Q604.256 150.394 606.293 149.259 Q608.33 148.125 611.131 148.125 Q613.955 148.125 615.922 149.56 Q617.913 150.995 618.862 153.727 Z" fill="#000000" fill-rule="nonzero" fill-opacity="1" /><path clip-path="url(#clip290)" d="M667.033 160.648 L667.033 162.732 L647.45 162.732 Q647.728 167.13 650.089 169.444 Q652.473 171.736 656.709 171.736 Q659.163 171.736 661.454 171.134 Q663.769 170.532 666.038 169.329 L666.038 173.356 Q663.746 174.329 661.339 174.838 Q658.931 175.347 656.454 175.347 Q650.251 175.347 646.617 171.736 Q643.005 168.125 643.005 161.968 Q643.005 155.602 646.431 151.875 Q649.88 148.125 655.714 148.125 Q660.945 148.125 663.978 151.505 Q667.033 154.861 667.033 160.648 M662.774 159.398 Q662.728 155.903 660.806 153.82 Q658.908 151.736 655.76 151.736 Q652.195 151.736 650.042 153.75 Q647.913 155.764 647.589 159.421 L662.774 159.398 Z" fill="#000000" fill-rule="nonzero" fill-opacity="1" /><path clip-path="url(#clip290)" d="M685.806 161.644 Q680.644 161.644 678.653 162.824 Q676.663 164.005 676.663 166.852 Q676.663 169.12 678.144 170.463 Q679.649 171.782 682.218 171.782 Q685.76 171.782 687.889 169.282 Q690.042 166.759 690.042 162.593 L690.042 161.644 L685.806 161.644 M694.301 159.884 L694.301 174.676 L690.042 174.676 L690.042 170.741 Q688.584 173.102 686.408 174.236 Q684.232 175.347 681.084 175.347 Q677.102 175.347 674.741 173.125 Q672.403 170.88 672.403 167.13 Q672.403 162.755 675.32 160.532 Q678.26 158.31 684.07 158.31 L690.042 158.31 L690.042 157.894 Q690.042 154.954 688.098 153.357 Q686.177 151.736 682.681 151.736 Q680.459 151.736 678.352 152.269 Q676.246 152.801 674.302 153.866 L674.302 149.931 Q676.64 149.028 678.839 148.588 Q681.038 148.125 683.121 148.125 Q688.746 148.125 691.524 151.042 Q694.301 153.958 694.301 159.884 Z" fill="#000000" fill-rule="nonzero" fill-opacity="1" /><path clip-path="url(#clip290)" d="M719.602 149.514 L719.602 153.542 Q717.797 152.616 715.852 152.153 Q713.908 151.69 711.825 151.69 Q708.653 151.69 707.056 152.662 Q705.482 153.634 705.482 155.579 Q705.482 157.06 706.616 157.917 Q707.75 158.75 711.176 159.514 L712.635 159.838 Q717.172 160.81 719.07 162.593 Q720.991 164.352 720.991 167.523 Q720.991 171.134 718.121 173.241 Q715.274 175.347 710.274 175.347 Q708.19 175.347 705.922 174.931 Q703.676 174.537 701.176 173.727 L701.176 169.329 Q703.538 170.556 705.829 171.181 Q708.121 171.782 710.366 171.782 Q713.375 171.782 714.996 170.764 Q716.616 169.722 716.616 167.847 Q716.616 166.111 715.436 165.185 Q714.278 164.259 710.32 163.403 L708.838 163.056 Q704.88 162.222 703.121 160.509 Q701.362 158.773 701.362 155.764 Q701.362 152.107 703.954 150.116 Q706.547 148.125 711.315 148.125 Q713.676 148.125 715.76 148.472 Q717.843 148.82 719.602 149.514 Z" fill="#000000" fill-rule="nonzero" fill-opacity="1" /><path clip-path="url(#clip290)" d="M727.334 164.444 L727.334 148.75 L731.593 148.75 L731.593 164.282 Q731.593 167.963 733.028 169.815 Q734.463 171.644 737.334 171.644 Q740.783 171.644 742.773 169.444 Q744.787 167.245 744.787 163.449 L744.787 148.75 L749.047 148.75 L749.047 174.676 L744.787 174.676 L744.787 170.694 Q743.236 173.056 741.176 174.213 Q739.139 175.347 736.431 175.347 Q731.963 175.347 729.648 172.569 Q727.334 169.792 727.334 164.444 M738.051 148.125 L738.051 148.125 Z" fill="#000000" fill-rule="nonzero" fill-opacity="1" /><path clip-path="url(#clip290)" d="M772.843 152.732 Q772.125 152.315 771.269 152.13 Q770.435 151.921 769.417 151.921 Q765.806 151.921 763.861 154.282 Q761.94 156.62 761.94 161.019 L761.94 174.676 L757.658 174.676 L757.658 148.75 L761.94 148.75 L761.94 152.778 Q763.283 150.417 765.435 149.283 Q767.588 148.125 770.667 148.125 Q771.107 148.125 771.639 148.195 Q772.171 148.241 772.82 148.357 L772.843 152.732 Z" fill="#000000" fill-rule="nonzero" fill-opacity="1" /><path clip-path="url(#clip290)" d="M798.444 160.648 L798.444 162.732 L778.861 162.732 Q779.139 167.13 781.5 169.444 Q783.884 171.736 788.12 171.736 Q790.574 171.736 792.866 171.134 Q795.181 170.532 797.449 169.329 L797.449 173.356 Q795.157 174.329 792.75 174.838 Q790.343 175.347 787.866 175.347 Q781.662 175.347 778.028 171.736 Q774.417 168.125 774.417 161.968 Q774.417 155.602 777.843 151.875 Q781.292 148.125 787.125 148.125 Q792.356 148.125 795.389 151.505 Q798.444 154.861 798.444 160.648 M794.185 159.398 Q794.139 155.903 792.218 153.82 Q790.319 151.736 787.171 151.736 Q783.607 151.736 781.454 153.75 Q779.324 155.764 779 159.421 L794.185 159.398 Z" fill="#000000" fill-rule="nonzero" fill-opacity="1" /><path clip-path="url(#clip290)" d="M822.495 152.685 L822.495 138.658 L826.754 138.658 L826.754 174.676 L822.495 174.676 L822.495 170.787 Q821.153 173.102 819.092 174.236 Q817.055 175.347 814.185 175.347 Q809.486 175.347 806.523 171.597 Q803.583 167.847 803.583 161.736 Q803.583 155.625 806.523 151.875 Q809.486 148.125 814.185 148.125 Q817.055 148.125 819.092 149.259 Q821.153 150.37 822.495 152.685 M807.981 161.736 Q807.981 166.435 809.903 169.12 Q811.847 171.782 815.227 171.782 Q818.606 171.782 820.551 169.12 Q822.495 166.435 822.495 161.736 Q822.495 157.037 820.551 154.375 Q818.606 151.69 815.227 151.69 Q811.847 151.69 809.903 154.375 Q807.981 157.037 807.981 161.736 Z" fill="#000000" fill-rule="nonzero" fill-opacity="1" /><path clip-path="url(#clip290)" d="M834.856 138.704 L838.56 138.704 Q842.032 144.167 843.745 149.398 Q845.481 154.63 845.481 159.792 Q845.481 164.977 843.745 170.231 Q842.032 175.486 838.56 180.926 L834.856 180.926 Q837.935 175.625 839.44 170.394 Q840.967 165.139 840.967 159.792 Q840.967 154.445 839.44 149.236 Q837.935 144.028 834.856 138.704 Z" fill="#000000" fill-rule="nonzero" fill-opacity="1" /><polyline clip-path="url(#clip290)" style="stroke:#009af9; stroke-linecap:round; stroke-linejoin:round; stroke-width:4; stroke-opacity:1; fill:none" points="375.794,209.236 513.722,209.236 "/>
<path clip-path="url(#clip290)" d="M541.386 195.798 L541.386 208.785 L547.265 208.785 Q550.529 208.785 552.311 207.095 Q554.094 205.405 554.094 202.28 Q554.094 199.178 552.311 197.488 Q550.529 195.798 547.265 195.798 L541.386 195.798 M536.71 191.956 L547.265 191.956 Q553.075 191.956 556.038 194.595 Q559.024 197.211 559.024 202.28 Q559.024 207.396 556.038 210.011 Q553.075 212.627 547.265 212.627 L541.386 212.627 L541.386 226.516 L536.71 226.516 L536.71 191.956 Z" fill="#000000" fill-rule="nonzero" fill-opacity="1" /><path clip-path="url(#clip290)" d="M590.413 190.544 Q587.311 195.868 585.807 201.076 Q584.302 206.285 584.302 211.632 Q584.302 216.979 585.807 222.234 Q587.334 227.465 590.413 232.766 L586.709 232.766 Q583.237 227.326 581.501 222.071 Q579.788 216.817 579.788 211.632 Q579.788 206.47 581.501 201.238 Q583.214 196.007 586.709 190.544 L590.413 190.544 Z" fill="#000000" fill-rule="nonzero" fill-opacity="1" /><path clip-path="url(#clip290)" d="M611.802 190.498 L611.802 194.039 L607.728 194.039 Q605.436 194.039 604.533 194.965 Q603.654 195.891 603.654 198.298 L603.654 200.59 L610.668 200.59 L610.668 203.9 L603.654 203.9 L603.654 226.516 L599.371 226.516 L599.371 203.9 L595.297 203.9 L595.297 200.59 L599.371 200.59 L599.371 198.785 Q599.371 194.456 601.385 192.488 Q603.399 190.498 607.774 190.498 L611.802 190.498 Z" fill="#000000" fill-rule="nonzero" fill-opacity="1" /><path clip-path="url(#clip290)" d="M615.367 200.59 L619.626 200.59 L619.626 226.516 L615.367 226.516 L615.367 200.59 M615.367 190.498 L619.626 190.498 L619.626 195.891 L615.367 195.891 L615.367 190.498 Z" fill="#000000" fill-rule="nonzero" fill-opacity="1" /><path clip-path="url(#clip290)" d="M632.751 193.229 L632.751 200.59 L641.524 200.59 L641.524 203.9 L632.751 203.9 L632.751 217.974 Q632.751 221.146 633.607 222.048 Q634.487 222.951 637.149 222.951 L641.524 222.951 L641.524 226.516 L637.149 226.516 Q632.218 226.516 630.343 224.687 Q628.468 222.835 628.468 217.974 L628.468 203.9 L625.343 203.9 L625.343 200.59 L628.468 200.59 L628.468 193.229 L632.751 193.229 Z" fill="#000000" fill-rule="nonzero" fill-opacity="1" /><path clip-path="url(#clip290)" d="M651.339 193.229 L651.339 200.59 L660.112 200.59 L660.112 203.9 L651.339 203.9 L651.339 217.974 Q651.339 221.146 652.195 222.048 Q653.075 222.951 655.737 222.951 L660.112 222.951 L660.112 226.516 L655.737 226.516 Q650.806 226.516 648.931 224.687 Q647.056 222.835 647.056 217.974 L647.056 203.9 L643.931 203.9 L643.931 200.59 L647.056 200.59 L647.056 193.229 L651.339 193.229 Z" fill="#000000" fill-rule="nonzero" fill-opacity="1" /><path clip-path="url(#clip290)" d="M687.889 212.488 L687.889 214.572 L668.306 214.572 Q668.584 218.97 670.945 221.284 Q673.329 223.576 677.565 223.576 Q680.019 223.576 682.311 222.974 Q684.626 222.372 686.894 221.169 L686.894 225.196 Q684.602 226.169 682.195 226.678 Q679.788 227.187 677.311 227.187 Q671.107 227.187 667.473 223.576 Q663.862 219.965 663.862 213.808 Q663.862 207.442 667.288 203.715 Q670.737 199.965 676.57 199.965 Q681.802 199.965 684.834 203.345 Q687.889 206.701 687.889 212.488 M683.63 211.238 Q683.584 207.743 681.663 205.66 Q679.765 203.576 676.616 203.576 Q673.052 203.576 670.899 205.59 Q668.769 207.604 668.445 211.261 L683.63 211.238 Z" fill="#000000" fill-rule="nonzero" fill-opacity="1" /><path clip-path="url(#clip290)" d="M711.94 204.525 L711.94 190.498 L716.199 190.498 L716.199 226.516 L711.94 226.516 L711.94 222.627 Q710.598 224.942 708.537 226.076 Q706.5 227.187 703.63 227.187 Q698.931 227.187 695.968 223.437 Q693.028 219.687 693.028 213.576 Q693.028 207.465 695.968 203.715 Q698.931 199.965 703.63 199.965 Q706.5 199.965 708.537 201.099 Q710.598 202.21 711.94 204.525 M697.426 213.576 Q697.426 218.275 699.348 220.96 Q701.292 223.622 704.672 223.622 Q708.051 223.622 709.996 220.96 Q711.94 218.275 711.94 213.576 Q711.94 208.877 709.996 206.215 Q708.051 203.53 704.672 203.53 Q701.292 203.53 699.348 206.215 Q697.426 208.877 697.426 213.576 Z" fill="#000000" fill-rule="nonzero" fill-opacity="1" /><path clip-path="url(#clip290)" d="M724.301 190.544 L728.005 190.544 Q731.477 196.007 733.19 201.238 Q734.926 206.47 734.926 211.632 Q734.926 216.817 733.19 222.071 Q731.477 227.326 728.005 232.766 L724.301 232.766 Q727.38 227.465 728.885 222.234 Q730.412 216.979 730.412 211.632 Q730.412 206.285 728.885 201.076 Q727.38 195.868 724.301 190.544 Z" fill="#000000" fill-rule="nonzero" fill-opacity="1" /></svg>
