<?xml version="1.0" encoding="utf-8"?>
<svg xmlns="http://www.w3.org/2000/svg" xmlns:xlink="http://www.w3.org/1999/xlink" width="600" height="400" viewBox="0 0 2400 1600">
<defs>
  <clipPath id="clip920">
    <rect x="0" y="0" width="2400" height="1600"/>
  </clipPath>
</defs>
<path clip-path="url(#clip920)" d="M0 1600 L2400 1600 L2400 0 L0 0  Z" fill="#ffffff" fill-rule="evenodd" fill-opacity="1"/>
<defs>
  <clipPath id="clip921">
    <rect x="480" y="0" width="1681" height="1600"/>
  </clipPath>
</defs>
<path clip-path="url(#clip920)" d="M283.843 1339.91 L2352.76 1339.91 L2352.76 62.9921 L283.843 62.9921  Z" fill="#ffffff" fill-rule="evenodd" fill-opacity="1"/>
<defs>
  <clipPath id="clip922">
    <rect x="283" y="62" width="2070" height="1278"/>
  </clipPath>
</defs>
<polyline clip-path="url(#clip922)" style="stroke:#000000; stroke-linecap:round; stroke-linejoin:round; stroke-width:2; stroke-opacity:0.1; fill:none" points="342.397,1339.91 342.397,62.9921 "/>
<polyline clip-path="url(#clip922)" style="stroke:#000000; stroke-linecap:round; stroke-linejoin:round; stroke-width:2; stroke-opacity:0.1; fill:none" points="830.348,1339.91 830.348,62.9921 "/>
<polyline clip-path="url(#clip922)" style="stroke:#000000; stroke-linecap:round; stroke-linejoin:round; stroke-width:2; stroke-opacity:0.1; fill:none" points="1318.3,1339.91 1318.3,62.9921 "/>
<polyline clip-path="url(#clip922)" style="stroke:#000000; stroke-linecap:round; stroke-linejoin:round; stroke-width:2; stroke-opacity:0.1; fill:none" points="1806.25,1339.91 1806.25,62.9921 "/>
<polyline clip-path="url(#clip922)" style="stroke:#000000; stroke-linecap:round; stroke-linejoin:round; stroke-width:2; stroke-opacity:0.1; fill:none" points="2294.2,1339.91 2294.2,62.9921 "/>
<polyline clip-path="url(#clip920)" style="stroke:#000000; stroke-linecap:round; stroke-linejoin:round; stroke-width:4; stroke-opacity:1; fill:none" points="283.843,1339.91 2352.76,1339.91 "/>
<polyline clip-path="url(#clip920)" style="stroke:#000000; stroke-linecap:round; stroke-linejoin:round; stroke-width:4; stroke-opacity:1; fill:none" points="342.397,1339.91 342.397,1321.01 "/>
<polyline clip-path="url(#clip920)" style="stroke:#000000; stroke-linecap:round; stroke-linejoin:round; stroke-width:4; stroke-opacity:1; fill:none" points="830.348,1339.91 830.348,1321.01 "/>
<polyline clip-path="url(#clip920)" style="stroke:#000000; stroke-linecap:round; stroke-linejoin:round; stroke-width:4; stroke-opacity:1; fill:none" points="1318.3,1339.91 1318.3,1321.01 "/>
<polyline clip-path="url(#clip920)" style="stroke:#000000; stroke-linecap:round; stroke-linejoin:round; stroke-width:4; stroke-opacity:1; fill:none" points="1806.25,1339.91 1806.25,1321.01 "/>
<polyline clip-path="url(#clip920)" style="stroke:#000000; stroke-linecap:round; stroke-linejoin:round; stroke-width:4; stroke-opacity:1; fill:none" points="2294.2,1339.91 2294.2,1321.01 "/>
<path clip-path="url(#clip920)" d="M319.781 1370.82 Q316.17 1370.82 314.341 1374.39 Q312.536 1377.93 312.536 1385.06 Q312.536 1392.17 314.341 1395.73 Q316.17 1399.27 319.781 1399.27 Q323.415 1399.27 325.221 1395.73 Q327.05 1392.17 327.05 1385.06 Q327.05 1377.93 325.221 1374.39 Q323.415 1370.82 319.781 1370.82 M319.781 1367.12 Q325.591 1367.12 328.647 1371.73 Q331.725 1376.31 331.725 1385.06 Q331.725 1393.79 328.647 1398.39 Q325.591 1402.98 319.781 1402.98 Q313.971 1402.98 310.892 1398.39 Q307.837 1393.79 307.837 1385.06 Q307.837 1376.31 310.892 1371.73 Q313.971 1367.12 319.781 1367.12 Z" fill="#000000" fill-rule="nonzero" fill-opacity="1" /><path clip-path="url(#clip920)" d="M339.943 1396.43 L344.827 1396.43 L344.827 1402.31 L339.943 1402.31 L339.943 1396.43 Z" fill="#000000" fill-rule="nonzero" fill-opacity="1" /><path clip-path="url(#clip920)" d="M365.012 1370.82 Q361.401 1370.82 359.573 1374.39 Q357.767 1377.93 357.767 1385.06 Q357.767 1392.17 359.573 1395.73 Q361.401 1399.27 365.012 1399.27 Q368.647 1399.27 370.452 1395.73 Q372.281 1392.17 372.281 1385.06 Q372.281 1377.93 370.452 1374.39 Q368.647 1370.82 365.012 1370.82 M365.012 1367.12 Q370.822 1367.12 373.878 1371.73 Q376.957 1376.31 376.957 1385.06 Q376.957 1393.79 373.878 1398.39 Q370.822 1402.98 365.012 1402.98 Q359.202 1402.98 356.123 1398.39 Q353.068 1393.79 353.068 1385.06 Q353.068 1376.31 356.123 1371.73 Q359.202 1367.12 365.012 1367.12 Z" fill="#000000" fill-rule="nonzero" fill-opacity="1" /><path clip-path="url(#clip920)" d="M802.084 1398.37 L818.404 1398.37 L818.404 1402.31 L796.459 1402.31 L796.459 1398.37 Q799.121 1395.62 803.705 1390.99 Q808.311 1386.33 809.492 1384.99 Q811.737 1382.47 812.617 1380.73 Q813.519 1378.97 813.519 1377.28 Q813.519 1374.53 811.575 1372.79 Q809.654 1371.06 806.552 1371.06 Q804.353 1371.06 801.899 1371.82 Q799.468 1372.58 796.691 1374.13 L796.691 1369.41 Q799.515 1368.28 801.968 1367.7 Q804.422 1367.12 806.459 1367.12 Q811.83 1367.12 815.024 1369.81 Q818.218 1372.49 818.218 1376.98 Q818.218 1379.11 817.408 1381.03 Q816.621 1382.93 814.515 1385.52 Q813.936 1386.19 810.834 1389.41 Q807.732 1392.61 802.084 1398.37 Z" fill="#000000" fill-rule="nonzero" fill-opacity="1" /><path clip-path="url(#clip920)" d="M828.218 1396.43 L833.103 1396.43 L833.103 1402.31 L828.218 1402.31 L828.218 1396.43 Z" fill="#000000" fill-rule="nonzero" fill-opacity="1" /><path clip-path="url(#clip920)" d="M843.334 1367.75 L861.69 1367.75 L861.69 1371.68 L847.616 1371.68 L847.616 1380.15 Q848.635 1379.81 849.653 1379.64 Q850.672 1379.46 851.69 1379.46 Q857.477 1379.46 860.857 1382.63 Q864.237 1385.8 864.237 1391.22 Q864.237 1396.8 860.764 1399.9 Q857.292 1402.98 850.973 1402.98 Q848.797 1402.98 846.528 1402.61 Q844.283 1402.24 841.876 1401.5 L841.876 1396.8 Q843.959 1397.93 846.181 1398.49 Q848.403 1399.04 850.88 1399.04 Q854.885 1399.04 857.223 1396.94 Q859.561 1394.83 859.561 1391.22 Q859.561 1387.61 857.223 1385.5 Q854.885 1383.39 850.88 1383.39 Q849.005 1383.39 847.13 1383.81 Q845.278 1384.23 843.334 1385.11 L843.334 1367.75 Z" fill="#000000" fill-rule="nonzero" fill-opacity="1" /><path clip-path="url(#clip920)" d="M1285.46 1367.75 L1303.82 1367.75 L1303.82 1371.68 L1289.75 1371.68 L1289.75 1380.15 Q1290.76 1379.81 1291.78 1379.64 Q1292.8 1379.46 1293.82 1379.46 Q1299.61 1379.46 1302.99 1382.63 Q1306.37 1385.8 1306.37 1391.22 Q1306.37 1396.8 1302.89 1399.9 Q1299.42 1402.98 1293.1 1402.98 Q1290.93 1402.98 1288.66 1402.61 Q1286.41 1402.24 1284.01 1401.5 L1284.01 1396.8 Q1286.09 1397.93 1288.31 1398.49 Q1290.53 1399.04 1293.01 1399.04 Q1297.01 1399.04 1299.35 1396.94 Q1301.69 1394.83 1301.69 1391.22 Q1301.69 1387.61 1299.35 1385.5 Q1297.01 1383.39 1293.01 1383.39 Q1291.14 1383.39 1289.26 1383.81 Q1287.41 1384.23 1285.46 1385.11 L1285.46 1367.75 Z" fill="#000000" fill-rule="nonzero" fill-opacity="1" /><path clip-path="url(#clip920)" d="M1315.58 1396.43 L1320.46 1396.43 L1320.46 1402.31 L1315.58 1402.31 L1315.58 1396.43 Z" fill="#000000" fill-rule="nonzero" fill-opacity="1" /><path clip-path="url(#clip920)" d="M1340.65 1370.82 Q1337.04 1370.82 1335.21 1374.39 Q1333.4 1377.93 1333.4 1385.06 Q1333.4 1392.17 1335.21 1395.73 Q1337.04 1399.27 1340.65 1399.27 Q1344.28 1399.27 1346.09 1395.73 Q1347.92 1392.17 1347.92 1385.06 Q1347.92 1377.93 1346.09 1374.39 Q1344.28 1370.82 1340.65 1370.82 M1340.65 1367.12 Q1346.46 1367.12 1349.51 1371.73 Q1352.59 1376.31 1352.59 1385.06 Q1352.59 1393.79 1349.51 1398.39 Q1346.46 1402.98 1340.65 1402.98 Q1334.84 1402.98 1331.76 1398.39 Q1328.7 1393.79 1328.7 1385.06 Q1328.7 1376.31 1331.76 1371.73 Q1334.84 1367.12 1340.65 1367.12 Z" fill="#000000" fill-rule="nonzero" fill-opacity="1" /><path clip-path="url(#clip920)" d="M1772.57 1367.75 L1794.79 1367.75 L1794.79 1369.74 L1782.25 1402.31 L1777.36 1402.31 L1789.17 1371.68 L1772.57 1371.68 L1772.57 1367.75 Z" fill="#000000" fill-rule="nonzero" fill-opacity="1" /><path clip-path="url(#clip920)" d="M1803.91 1396.43 L1808.8 1396.43 L1808.8 1402.31 L1803.91 1402.31 L1803.91 1396.43 Z" fill="#000000" fill-rule="nonzero" fill-opacity="1" /><path clip-path="url(#clip920)" d="M1819.03 1367.75 L1837.38 1367.75 L1837.38 1371.68 L1823.31 1371.68 L1823.31 1380.15 Q1824.33 1379.81 1825.35 1379.64 Q1826.37 1379.46 1827.38 1379.46 Q1833.17 1379.46 1836.55 1382.63 Q1839.93 1385.8 1839.93 1391.22 Q1839.93 1396.8 1836.46 1399.9 Q1832.99 1402.98 1826.67 1402.98 Q1824.49 1402.98 1822.22 1402.61 Q1819.98 1402.24 1817.57 1401.5 L1817.57 1396.8 Q1819.65 1397.93 1821.88 1398.49 Q1824.1 1399.04 1826.57 1399.04 Q1830.58 1399.04 1832.92 1396.94 Q1835.25 1394.83 1835.25 1391.22 Q1835.25 1387.61 1832.92 1385.5 Q1830.58 1383.39 1826.57 1383.39 Q1824.7 1383.39 1822.82 1383.81 Q1820.97 1384.23 1819.03 1385.11 L1819.03 1367.75 Z" fill="#000000" fill-rule="nonzero" fill-opacity="1" /><path clip-path="url(#clip920)" d="M2246.27 1398.37 L2253.91 1398.37 L2253.91 1372 L2245.6 1373.67 L2245.6 1369.41 L2253.87 1367.75 L2258.54 1367.75 L2258.54 1398.37 L2266.18 1398.37 L2266.18 1402.31 L2246.27 1402.31 L2246.27 1398.37 Z" fill="#000000" fill-rule="nonzero" fill-opacity="1" /><path clip-path="url(#clip920)" d="M2285.63 1370.82 Q2282.01 1370.82 2280.19 1374.39 Q2278.38 1377.93 2278.38 1385.06 Q2278.38 1392.17 2280.19 1395.73 Q2282.01 1399.27 2285.63 1399.27 Q2289.26 1399.27 2291.07 1395.73 Q2292.89 1392.17 2292.89 1385.06 Q2292.89 1377.93 2291.07 1374.39 Q2289.26 1370.82 2285.63 1370.82 M2285.63 1367.12 Q2291.44 1367.12 2294.49 1371.73 Q2297.57 1376.31 2297.57 1385.06 Q2297.57 1393.79 2294.49 1398.39 Q2291.44 1402.98 2285.63 1402.98 Q2279.82 1402.98 2276.74 1398.39 Q2273.68 1393.79 2273.68 1385.06 Q2273.68 1376.31 2276.74 1371.73 Q2279.82 1367.12 2285.63 1367.12 Z" fill="#000000" fill-rule="nonzero" fill-opacity="1" /><path clip-path="url(#clip920)" d="M2305.79 1396.43 L2310.67 1396.43 L2310.67 1402.31 L2305.79 1402.31 L2305.79 1396.43 Z" fill="#000000" fill-rule="nonzero" fill-opacity="1" /><path clip-path="url(#clip920)" d="M2330.86 1370.82 Q2327.25 1370.82 2325.42 1374.39 Q2323.61 1377.93 2323.61 1385.06 Q2323.61 1392.17 2325.42 1395.73 Q2327.25 1399.27 2330.86 1399.27 Q2334.49 1399.27 2336.3 1395.73 Q2338.13 1392.17 2338.13 1385.06 Q2338.13 1377.93 2336.3 1374.39 Q2334.49 1370.82 2330.86 1370.82 M2330.86 1367.12 Q2336.67 1367.12 2339.72 1371.73 Q2342.8 1376.31 2342.8 1385.06 Q2342.8 1393.79 2339.72 1398.39 Q2336.67 1402.98 2330.86 1402.98 Q2325.05 1402.98 2321.97 1398.39 Q2318.91 1393.79 2318.91 1385.06 Q2318.91 1376.31 2321.97 1371.73 Q2325.05 1367.12 2330.86 1367.12 Z" fill="#000000" fill-rule="nonzero" fill-opacity="1" /><polyline clip-path="url(#clip922)" style="stroke:#000000; stroke-linecap:round; stroke-linejoin:round; stroke-width:2; stroke-opacity:0.1; fill:none" points="283.843,1323.21 2352.76,1323.21 "/>
<polyline clip-path="url(#clip922)" style="stroke:#000000; stroke-linecap:round; stroke-linejoin:round; stroke-width:2; stroke-opacity:0.1; fill:none" points="283.843,1109.85 2352.76,1109.85 "/>
<polyline clip-path="url(#clip922)" style="stroke:#000000; stroke-linecap:round; stroke-linejoin:round; stroke-width:2; stroke-opacity:0.1; fill:none" points="283.843,896.484 2352.76,896.484 "/>
<polyline clip-path="url(#clip922)" style="stroke:#000000; stroke-linecap:round; stroke-linejoin:round; stroke-width:2; stroke-opacity:0.1; fill:none" points="283.843,683.119 2352.76,683.119 "/>
<polyline clip-path="url(#clip922)" style="stroke:#000000; stroke-linecap:round; stroke-linejoin:round; stroke-width:2; stroke-opacity:0.1; fill:none" points="283.843,469.755 2352.76,469.755 "/>
<polyline clip-path="url(#clip922)" style="stroke:#000000; stroke-linecap:round; stroke-linejoin:round; stroke-width:2; stroke-opacity:0.1; fill:none" points="283.843,256.39 2352.76,256.39 "/>
<polyline clip-path="url(#clip920)" style="stroke:#000000; stroke-linecap:round; stroke-linejoin:round; stroke-width:4; stroke-opacity:1; fill:none" points="283.843,1339.91 283.843,62.9921 "/>
<polyline clip-path="url(#clip920)" style="stroke:#000000; stroke-linecap:round; stroke-linejoin:round; stroke-width:4; stroke-opacity:1; fill:none" points="283.843,1323.21 302.74,1323.21 "/>
<polyline clip-path="url(#clip920)" style="stroke:#000000; stroke-linecap:round; stroke-linejoin:round; stroke-width:4; stroke-opacity:1; fill:none" points="283.843,1109.85 302.74,1109.85 "/>
<polyline clip-path="url(#clip920)" style="stroke:#000000; stroke-linecap:round; stroke-linejoin:round; stroke-width:4; stroke-opacity:1; fill:none" points="283.843,896.484 302.74,896.484 "/>
<polyline clip-path="url(#clip920)" style="stroke:#000000; stroke-linecap:round; stroke-linejoin:round; stroke-width:4; stroke-opacity:1; fill:none" points="283.843,683.119 302.74,683.119 "/>
<polyline clip-path="url(#clip920)" style="stroke:#000000; stroke-linecap:round; stroke-linejoin:round; stroke-width:4; stroke-opacity:1; fill:none" points="283.843,469.755 302.74,469.755 "/>
<polyline clip-path="url(#clip920)" style="stroke:#000000; stroke-linecap:round; stroke-linejoin:round; stroke-width:4; stroke-opacity:1; fill:none" points="283.843,256.39 302.74,256.39 "/>
<path clip-path="url(#clip920)" d="M191.662 1309.01 Q188.051 1309.01 186.222 1312.58 Q184.417 1316.12 184.417 1323.25 Q184.417 1330.35 186.222 1333.92 Q188.051 1337.46 191.662 1337.46 Q195.297 1337.46 197.102 1333.92 Q198.931 1330.35 198.931 1323.25 Q198.931 1316.12 197.102 1312.58 Q195.297 1309.01 191.662 1309.01 M191.662 1305.31 Q197.472 1305.31 200.528 1309.91 Q203.607 1314.5 203.607 1323.25 Q203.607 1331.97 200.528 1336.58 Q197.472 1341.16 191.662 1341.16 Q185.852 1341.16 182.773 1336.58 Q179.718 1331.97 179.718 1323.25 Q179.718 1314.5 182.773 1309.91 Q185.852 1305.31 191.662 1305.31 Z" fill="#000000" fill-rule="nonzero" fill-opacity="1" /><path clip-path="url(#clip920)" d="M211.824 1334.61 L216.708 1334.61 L216.708 1340.49 L211.824 1340.49 L211.824 1334.61 Z" fill="#000000" fill-rule="nonzero" fill-opacity="1" /><path clip-path="url(#clip920)" d="M226.94 1305.93 L245.296 1305.93 L245.296 1309.87 L231.222 1309.87 L231.222 1318.34 Q232.241 1317.99 233.259 1317.83 Q234.278 1317.65 235.296 1317.65 Q241.083 1317.65 244.463 1320.82 Q247.843 1323.99 247.843 1329.41 Q247.843 1334.98 244.37 1338.09 Q240.898 1341.16 234.579 1341.16 Q232.403 1341.16 230.134 1340.79 Q227.889 1340.42 225.482 1339.68 L225.482 1334.98 Q227.565 1336.12 229.787 1336.67 Q232.009 1337.23 234.486 1337.23 Q238.491 1337.23 240.829 1335.12 Q243.167 1333.02 243.167 1329.41 Q243.167 1325.79 240.829 1323.69 Q238.491 1321.58 234.486 1321.58 Q232.611 1321.58 230.736 1322 Q228.884 1322.41 226.94 1323.29 L226.94 1305.93 Z" fill="#000000" fill-rule="nonzero" fill-opacity="1" /><path clip-path="url(#clip920)" d="M190.505 1095.65 Q186.894 1095.65 185.065 1099.21 Q183.26 1102.75 183.26 1109.88 Q183.26 1116.99 185.065 1120.55 Q186.894 1124.1 190.505 1124.1 Q194.139 1124.1 195.945 1120.55 Q197.773 1116.99 197.773 1109.88 Q197.773 1102.75 195.945 1099.21 Q194.139 1095.65 190.505 1095.65 M190.505 1091.94 Q196.315 1091.94 199.371 1096.55 Q202.449 1101.13 202.449 1109.88 Q202.449 1118.61 199.371 1123.22 Q196.315 1127.8 190.505 1127.8 Q184.695 1127.8 181.616 1123.22 Q178.56 1118.61 178.56 1109.88 Q178.56 1101.13 181.616 1096.55 Q184.695 1091.94 190.505 1091.94 Z" fill="#000000" fill-rule="nonzero" fill-opacity="1" /><path clip-path="url(#clip920)" d="M210.667 1121.25 L215.551 1121.25 L215.551 1127.13 L210.667 1127.13 L210.667 1121.25 Z" fill="#000000" fill-rule="nonzero" fill-opacity="1" /><path clip-path="url(#clip920)" d="M236.315 1107.99 Q233.167 1107.99 231.315 1110.14 Q229.486 1112.29 229.486 1116.04 Q229.486 1119.77 231.315 1121.94 Q233.167 1124.1 236.315 1124.1 Q239.463 1124.1 241.292 1121.94 Q243.143 1119.77 243.143 1116.04 Q243.143 1112.29 241.292 1110.14 Q239.463 1107.99 236.315 1107.99 M245.597 1093.33 L245.597 1097.59 Q243.838 1096.76 242.032 1096.32 Q240.25 1095.88 238.491 1095.88 Q233.861 1095.88 231.407 1099 Q228.977 1102.13 228.63 1108.45 Q229.995 1106.43 232.056 1105.37 Q234.116 1104.28 236.593 1104.28 Q241.801 1104.28 244.81 1107.45 Q247.843 1110.6 247.843 1116.04 Q247.843 1121.36 244.694 1124.58 Q241.546 1127.8 236.315 1127.8 Q230.319 1127.8 227.148 1123.22 Q223.977 1118.61 223.977 1109.88 Q223.977 1101.69 227.866 1096.83 Q231.755 1091.94 238.306 1091.94 Q240.065 1091.94 241.847 1092.29 Q243.653 1092.64 245.597 1093.33 Z" fill="#000000" fill-rule="nonzero" fill-opacity="1" /><path clip-path="url(#clip920)" d="M191.57 882.283 Q187.959 882.283 186.13 885.847 Q184.324 889.389 184.324 896.519 Q184.324 903.625 186.13 907.19 Q187.959 910.732 191.57 910.732 Q195.204 910.732 197.009 907.19 Q198.838 903.625 198.838 896.519 Q198.838 889.389 197.009 885.847 Q195.204 882.283 191.57 882.283 M191.57 878.579 Q197.38 878.579 200.435 883.185 Q203.514 887.769 203.514 896.519 Q203.514 905.246 200.435 909.852 Q197.38 914.435 191.57 914.435 Q185.76 914.435 182.681 909.852 Q179.625 905.246 179.625 896.519 Q179.625 887.769 182.681 883.185 Q185.76 878.579 191.57 878.579 Z" fill="#000000" fill-rule="nonzero" fill-opacity="1" /><path clip-path="url(#clip920)" d="M211.732 907.884 L216.616 907.884 L216.616 913.764 L211.732 913.764 L211.732 907.884 Z" fill="#000000" fill-rule="nonzero" fill-opacity="1" /><path clip-path="url(#clip920)" d="M225.62 879.204 L247.843 879.204 L247.843 881.195 L235.296 913.764 L230.412 913.764 L242.218 883.139 L225.62 883.139 L225.62 879.204 Z" fill="#000000" fill-rule="nonzero" fill-opacity="1" /><path clip-path="url(#clip920)" d="M190.759 668.918 Q187.148 668.918 185.32 672.483 Q183.514 676.025 183.514 683.154 Q183.514 690.261 185.32 693.825 Q187.148 697.367 190.759 697.367 Q194.394 697.367 196.199 693.825 Q198.028 690.261 198.028 683.154 Q198.028 676.025 196.199 672.483 Q194.394 668.918 190.759 668.918 M190.759 665.214 Q196.57 665.214 199.625 669.821 Q202.704 674.404 202.704 683.154 Q202.704 691.881 199.625 696.487 Q196.57 701.071 190.759 701.071 Q184.949 701.071 181.871 696.487 Q178.815 691.881 178.815 683.154 Q178.815 674.404 181.871 669.821 Q184.949 665.214 190.759 665.214 Z" fill="#000000" fill-rule="nonzero" fill-opacity="1" /><path clip-path="url(#clip920)" d="M210.921 694.52 L215.806 694.52 L215.806 700.399 L210.921 700.399 L210.921 694.52 Z" fill="#000000" fill-rule="nonzero" fill-opacity="1" /><path clip-path="url(#clip920)" d="M235.991 683.987 Q232.657 683.987 230.736 685.77 Q228.838 687.552 228.838 690.677 Q228.838 693.802 230.736 695.585 Q232.657 697.367 235.991 697.367 Q239.324 697.367 241.245 695.585 Q243.167 693.779 243.167 690.677 Q243.167 687.552 241.245 685.77 Q239.347 683.987 235.991 683.987 M231.315 681.997 Q228.306 681.256 226.616 679.196 Q224.949 677.136 224.949 674.173 Q224.949 670.029 227.889 667.622 Q230.852 665.214 235.991 665.214 Q241.153 665.214 244.093 667.622 Q247.032 670.029 247.032 674.173 Q247.032 677.136 245.343 679.196 Q243.676 681.256 240.69 681.997 Q244.069 682.784 245.944 685.075 Q247.843 687.367 247.843 690.677 Q247.843 695.7 244.764 698.385 Q241.708 701.071 235.991 701.071 Q230.273 701.071 227.194 698.385 Q224.139 695.7 224.139 690.677 Q224.139 687.367 226.037 685.075 Q227.935 682.784 231.315 681.997 M229.602 674.612 Q229.602 677.298 231.269 678.802 Q232.958 680.307 235.991 680.307 Q239 680.307 240.69 678.802 Q242.403 677.298 242.403 674.612 Q242.403 671.927 240.69 670.423 Q239 668.918 235.991 668.918 Q232.958 668.918 231.269 670.423 Q229.602 671.927 229.602 674.612 Z" fill="#000000" fill-rule="nonzero" fill-opacity="1" /><path clip-path="url(#clip920)" d="M190.852 455.553 Q187.241 455.553 185.412 459.118 Q183.607 462.66 183.607 469.789 Q183.607 476.896 185.412 480.461 Q187.241 484.002 190.852 484.002 Q194.486 484.002 196.292 480.461 Q198.121 476.896 198.121 469.789 Q198.121 462.66 196.292 459.118 Q194.486 455.553 190.852 455.553 M190.852 451.85 Q196.662 451.85 199.718 456.456 Q202.796 461.04 202.796 469.789 Q202.796 478.516 199.718 483.123 Q196.662 487.706 190.852 487.706 Q185.042 487.706 181.963 483.123 Q178.908 478.516 178.908 469.789 Q178.908 461.04 181.963 456.456 Q185.042 451.85 190.852 451.85 Z" fill="#000000" fill-rule="nonzero" fill-opacity="1" /><path clip-path="url(#clip920)" d="M211.014 481.155 L215.898 481.155 L215.898 487.035 L211.014 487.035 L211.014 481.155 Z" fill="#000000" fill-rule="nonzero" fill-opacity="1" /><path clip-path="url(#clip920)" d="M226.222 486.317 L226.222 482.058 Q227.982 482.891 229.787 483.331 Q231.593 483.771 233.329 483.771 Q237.958 483.771 240.389 480.669 Q242.843 477.544 243.19 471.201 Q241.847 473.192 239.787 474.257 Q237.727 475.322 235.227 475.322 Q230.042 475.322 227.009 472.197 Q224 469.049 224 463.609 Q224 458.285 227.148 455.067 Q230.296 451.85 235.528 451.85 Q241.523 451.85 244.671 456.456 Q247.843 461.04 247.843 469.789 Q247.843 477.961 243.954 482.845 Q240.088 487.706 233.537 487.706 Q231.778 487.706 229.972 487.359 Q228.167 487.012 226.222 486.317 M235.528 471.664 Q238.676 471.664 240.505 469.512 Q242.356 467.359 242.356 463.609 Q242.356 459.882 240.505 457.729 Q238.676 455.553 235.528 455.553 Q232.38 455.553 230.528 457.729 Q228.699 459.882 228.699 463.609 Q228.699 467.359 230.528 469.512 Q232.38 471.664 235.528 471.664 Z" fill="#000000" fill-rule="nonzero" fill-opacity="1" /><path clip-path="url(#clip920)" d="M181.477 269.735 L189.116 269.735 L189.116 243.369 L180.806 245.036 L180.806 240.777 L189.07 239.11 L193.746 239.11 L193.746 269.735 L201.384 269.735 L201.384 273.67 L181.477 273.67 L181.477 269.735 Z" fill="#000000" fill-rule="nonzero" fill-opacity="1" /><path clip-path="url(#clip920)" d="M210.829 267.79 L215.713 267.79 L215.713 273.67 L210.829 273.67 L210.829 267.79 Z" fill="#000000" fill-rule="nonzero" fill-opacity="1" /><path clip-path="url(#clip920)" d="M235.898 242.189 Q232.287 242.189 230.458 245.754 Q228.653 249.295 228.653 256.425 Q228.653 263.531 230.458 267.096 Q232.287 270.638 235.898 270.638 Q239.532 270.638 241.338 267.096 Q243.167 263.531 243.167 256.425 Q243.167 249.295 241.338 245.754 Q239.532 242.189 235.898 242.189 M235.898 238.485 Q241.708 238.485 244.764 243.092 Q247.843 247.675 247.843 256.425 Q247.843 265.152 244.764 269.758 Q241.708 274.341 235.898 274.341 Q230.088 274.341 227.009 269.758 Q223.954 265.152 223.954 256.425 Q223.954 247.675 227.009 243.092 Q230.088 238.485 235.898 238.485 Z" fill="#000000" fill-rule="nonzero" fill-opacity="1" /><path clip-path="url(#clip920)" d="M84.4448 889.094 L91.2242 889.094 Q88.2005 892.34 86.7046 896.033 Q85.2086 899.693 85.2086 903.831 Q85.2086 911.979 90.2057 916.307 Q95.171 920.636 104.592 920.636 Q113.982 920.636 118.979 916.307 Q123.944 911.979 123.944 903.831 Q123.944 899.693 122.448 896.033 Q120.952 892.34 117.928 889.094 L124.644 889.094 Q126.936 892.468 128.082 896.255 Q129.228 900.011 129.228 904.212 Q129.228 915.002 122.639 921.209 Q116.019 927.415 104.592 927.415 Q93.134 927.415 86.5454 921.209 Q79.9251 915.002 79.9251 904.212 Q79.9251 899.947 81.0709 896.192 Q82.1849 892.404 84.4448 889.094 Z" fill="#000000" fill-rule="nonzero" fill-opacity="1" /><path clip-path="url(#clip920)" d="M96.7624 865.604 Q96.7624 870.315 100.455 873.052 Q104.115 875.79 110.512 875.79 Q116.91 875.79 120.602 873.084 Q124.262 870.347 124.262 865.604 Q124.262 860.926 120.57 858.188 Q116.878 855.451 110.512 855.451 Q104.178 855.451 100.486 858.188 Q96.7624 860.926 96.7624 865.604 M91.7972 865.604 Q91.7972 857.966 96.7624 853.605 Q101.728 849.245 110.512 849.245 Q119.265 849.245 124.262 853.605 Q129.228 857.966 129.228 865.604 Q129.228 873.275 124.262 877.636 Q119.265 881.964 110.512 881.964 Q101.728 881.964 96.7624 877.636 Q91.7972 873.275 91.7972 865.604 Z" fill="#000000" fill-rule="nonzero" fill-opacity="1" /><path clip-path="url(#clip920)" d="M106.788 809.905 L128.304 809.905 L128.304 815.761 L106.979 815.761 Q101.919 815.761 99.4042 817.734 Q96.8897 819.708 96.8897 823.654 Q96.8897 828.397 99.9134 831.134 Q102.937 833.871 108.157 833.871 L128.304 833.871 L128.304 839.76 L92.6565 839.76 L92.6565 833.871 L98.1947 833.871 Q94.98 831.771 93.3886 828.938 Q91.7972 826.073 91.7972 822.35 Q91.7972 816.207 95.6166 813.056 Q99.4042 809.905 106.788 809.905 Z" fill="#000000" fill-rule="nonzero" fill-opacity="1" /><path clip-path="url(#clip920)" d="M94.0252 772.57 L99.4997 772.57 Q98.131 775.052 97.4626 777.567 Q96.7624 780.049 96.7624 782.596 Q96.7624 788.293 100.391 791.444 Q103.987 794.595 110.512 794.595 Q117.037 794.595 120.666 791.444 Q124.262 788.293 124.262 782.596 Q124.262 780.049 123.594 777.567 Q122.894 775.052 121.525 772.57 L126.936 772.57 Q128.082 775.02 128.655 777.662 Q129.228 780.272 129.228 783.232 Q129.228 791.285 124.167 796.027 Q119.106 800.77 110.512 800.77 Q101.791 800.77 96.7942 795.995 Q91.7972 791.189 91.7972 782.85 Q91.7972 780.145 92.3701 777.567 Q92.9112 774.989 94.0252 772.57 Z" fill="#000000" fill-rule="nonzero" fill-opacity="1" /><path clip-path="url(#clip920)" d="M109.016 731.893 L111.881 731.893 L111.881 758.82 Q117.928 758.438 121.111 755.191 Q124.262 751.913 124.262 746.088 Q124.262 742.715 123.435 739.563 Q122.607 736.381 120.952 733.261 L126.49 733.261 Q127.827 736.412 128.527 739.723 Q129.228 743.033 129.228 746.438 Q129.228 754.968 124.262 759.966 Q119.297 764.931 110.831 764.931 Q102.078 764.931 96.9534 760.22 Q91.7972 755.478 91.7972 747.457 Q91.7972 740.264 96.4441 736.094 Q101.059 731.893 109.016 731.893 M107.298 737.749 Q102.492 737.813 99.627 740.455 Q96.7624 743.065 96.7624 747.393 Q96.7624 752.295 99.5315 755.255 Q102.301 758.183 107.329 758.629 L107.298 737.749 Z" fill="#000000" fill-rule="nonzero" fill-opacity="1" /><path clip-path="url(#clip920)" d="M106.788 692.648 L128.304 692.648 L128.304 698.505 L106.979 698.505 Q101.919 698.505 99.4042 700.478 Q96.8897 702.451 96.8897 706.398 Q96.8897 711.141 99.9134 713.878 Q102.937 716.615 108.157 716.615 L128.304 716.615 L128.304 722.503 L92.6565 722.503 L92.6565 716.615 L98.1947 716.615 Q94.98 714.514 93.3886 711.682 Q91.7972 708.817 91.7972 705.093 Q91.7972 698.95 95.6166 695.799 Q99.4042 692.648 106.788 692.648 Z" fill="#000000" fill-rule="nonzero" fill-opacity="1" /><path clip-path="url(#clip920)" d="M82.5351 675.174 L92.6565 675.174 L92.6565 663.111 L97.208 663.111 L97.208 675.174 L116.56 675.174 Q120.92 675.174 122.162 673.997 Q123.403 672.787 123.403 669.127 L123.403 663.111 L128.304 663.111 L128.304 669.127 Q128.304 675.906 125.79 678.485 Q123.244 681.063 116.56 681.063 L97.208 681.063 L97.208 685.359 L92.6565 685.359 L92.6565 681.063 L82.5351 681.063 L82.5351 675.174 Z" fill="#000000" fill-rule="nonzero" fill-opacity="1" /><path clip-path="url(#clip920)" d="M98.131 634.752 Q97.5581 635.739 97.3035 636.916 Q97.017 638.062 97.017 639.463 Q97.017 644.428 100.264 647.102 Q103.478 649.743 109.526 649.743 L128.304 649.743 L128.304 655.632 L92.6565 655.632 L92.6565 649.743 L98.1947 649.743 Q94.9482 647.897 93.3886 644.937 Q91.7972 641.977 91.7972 637.744 Q91.7972 637.139 91.8926 636.407 Q91.9563 635.675 92.1154 634.784 L98.131 634.752 Z" fill="#000000" fill-rule="nonzero" fill-opacity="1" /><path clip-path="url(#clip920)" d="M110.385 612.408 Q110.385 619.506 112.008 622.244 Q113.632 624.981 117.546 624.981 Q120.666 624.981 122.512 622.944 Q124.326 620.875 124.326 617.342 Q124.326 612.472 120.888 609.544 Q117.419 606.584 111.69 606.584 L110.385 606.584 L110.385 612.408 M107.966 600.727 L128.304 600.727 L128.304 606.584 L122.894 606.584 Q126.14 608.589 127.7 611.581 Q129.228 614.573 129.228 618.902 Q129.228 624.376 126.172 627.623 Q123.085 630.837 117.928 630.837 Q111.913 630.837 108.857 626.827 Q105.802 622.785 105.802 614.796 L105.802 606.584 L105.229 606.584 Q101.187 606.584 98.9904 609.257 Q96.7624 611.899 96.7624 616.705 Q96.7624 619.761 97.4945 622.657 Q98.2265 625.554 99.6906 628.227 L94.2798 628.227 Q93.0385 625.013 92.4337 621.989 Q91.7972 618.965 91.7972 616.101 Q91.7972 608.366 95.8076 604.547 Q99.8179 600.727 107.966 600.727 Z" fill="#000000" fill-rule="nonzero" fill-opacity="1" /><path clip-path="url(#clip920)" d="M82.5351 582.872 L92.6565 582.872 L92.6565 570.809 L97.208 570.809 L97.208 582.872 L116.56 582.872 Q120.92 582.872 122.162 581.694 Q123.403 580.484 123.403 576.824 L123.403 570.809 L128.304 570.809 L128.304 576.824 Q128.304 583.604 125.79 586.182 Q123.244 588.76 116.56 588.76 L97.208 588.76 L97.208 593.057 L92.6565 593.057 L92.6565 588.76 L82.5351 588.76 L82.5351 582.872 Z" fill="#000000" fill-rule="nonzero" fill-opacity="1" /><path clip-path="url(#clip920)" d="M92.6565 563.106 L92.6565 557.25 L128.304 557.25 L128.304 563.106 L92.6565 563.106 M78.7793 563.106 L78.7793 557.25 L86.1953 557.25 L86.1953 563.106 L78.7793 563.106 Z" fill="#000000" fill-rule="nonzero" fill-opacity="1" /><path clip-path="url(#clip920)" d="M96.7624 531.182 Q96.7624 535.893 100.455 538.63 Q104.115 541.367 110.512 541.367 Q116.91 541.367 120.602 538.662 Q124.262 535.925 124.262 531.182 Q124.262 526.503 120.57 523.766 Q116.878 521.029 110.512 521.029 Q104.178 521.029 100.486 523.766 Q96.7624 526.503 96.7624 531.182 M91.7972 531.182 Q91.7972 523.543 96.7624 519.183 Q101.728 514.822 110.512 514.822 Q119.265 514.822 124.262 519.183 Q129.228 523.543 129.228 531.182 Q129.228 538.853 124.262 543.213 Q119.265 547.542 110.512 547.542 Q101.728 547.542 96.7624 543.213 Q91.7972 538.853 91.7972 531.182 Z" fill="#000000" fill-rule="nonzero" fill-opacity="1" /><path clip-path="url(#clip920)" d="M106.788 475.482 L128.304 475.482 L128.304 481.339 L106.979 481.339 Q101.919 481.339 99.4042 483.312 Q96.8897 485.285 96.8897 489.232 Q96.8897 493.975 99.9134 496.712 Q102.937 499.449 108.157 499.449 L128.304 499.449 L128.304 505.337 L92.6565 505.337 L92.6565 499.449 L98.1947 499.449 Q94.98 497.348 93.3886 494.516 Q91.7972 491.651 91.7972 487.927 Q91.7972 481.784 95.6166 478.633 Q99.4042 475.482 106.788 475.482 Z" fill="#000000" fill-rule="nonzero" fill-opacity="1" /><path clip-path="url(#clip920)" d="M1311.11 28.9478 L1311.11 35.9153 Q1307.95 34.1734 1304.75 33.3227 Q1301.59 32.4315 1298.35 32.4315 Q1291.1 32.4315 1287.09 37.0496 Q1283.08 41.6271 1283.08 49.9314 Q1283.08 58.2358 1287.09 62.8538 Q1291.1 67.4314 1298.35 67.4314 Q1301.59 67.4314 1304.75 66.5807 Q1307.95 65.6895 1311.11 63.9476 L1311.11 70.8341 Q1307.99 72.2924 1304.63 73.0216 Q1301.31 73.7508 1297.54 73.7508 Q1287.29 73.7508 1281.25 67.3098 Q1275.22 60.8689 1275.22 49.9314 Q1275.22 38.832 1281.29 32.472 Q1287.41 26.1121 1298.02 26.1121 Q1301.47 26.1121 1304.75 26.8413 Q1308.03 27.5299 1311.11 28.9478 Z" fill="#000000" fill-rule="nonzero" fill-opacity="1" /><path clip-path="url(#clip920)" d="M1326.54 65.6895 L1339.91 65.6895 L1339.91 19.5497 L1325.37 22.4663 L1325.37 15.0127 L1339.83 12.096 L1348.01 12.096 L1348.01 65.6895 L1361.38 65.6895 L1361.38 72.576 L1326.54 72.576 L1326.54 65.6895 Z" fill="#000000" fill-rule="nonzero" fill-opacity="1" /><circle clip-path="url(#clip922)" cx="537.577" cy="1266.27" r="14.4" fill="#009af9" fill-rule="evenodd" fill-opacity="1" stroke="#000000" stroke-opacity="1" stroke-width="3.2"/>
<circle clip-path="url(#clip922)" cx="732.758" cy="1303.77" r="14.4" fill="#009af9" fill-rule="evenodd" fill-opacity="1" stroke="#000000" stroke-opacity="1" stroke-width="3.2"/>
<circle clip-path="url(#clip922)" cx="927.938" cy="955.006" r="14.4" fill="#009af9" fill-rule="evenodd" fill-opacity="1" stroke="#000000" stroke-opacity="1" stroke-width="3.2"/>
<circle clip-path="url(#clip922)" cx="1123.12" cy="954.036" r="14.4" fill="#009af9" fill-rule="evenodd" fill-opacity="1" stroke="#000000" stroke-opacity="1" stroke-width="3.2"/>
<circle clip-path="url(#clip922)" cx="1318.3" cy="882.713" r="14.4" fill="#009af9" fill-rule="evenodd" fill-opacity="1" stroke="#000000" stroke-opacity="1" stroke-width="3.2"/>
<circle clip-path="url(#clip922)" cx="1513.48" cy="752.433" r="14.4" fill="#009af9" fill-rule="evenodd" fill-opacity="1" stroke="#000000" stroke-opacity="1" stroke-width="3.2"/>
<circle clip-path="url(#clip922)" cx="1708.66" cy="491.184" r="14.4" fill="#009af9" fill-rule="evenodd" fill-opacity="1" stroke="#000000" stroke-opacity="1" stroke-width="3.2"/>
<circle clip-path="url(#clip922)" cx="1903.84" cy="99.1312" r="14.4" fill="#009af9" fill-rule="evenodd" fill-opacity="1" stroke="#000000" stroke-opacity="1" stroke-width="3.2"/>
<circle clip-path="url(#clip922)" cx="2099.02" cy="479.242" r="14.4" fill="#009af9" fill-rule="evenodd" fill-opacity="1" stroke="#000000" stroke-opacity="1" stroke-width="3.2"/>
<circle clip-path="url(#clip922)" cx="2294.2" cy="196.483" r="14.4" fill="#009af9" fill-rule="evenodd" fill-opacity="1" stroke="#000000" stroke-opacity="1" stroke-width="3.2"/>
<polyline clip-path="url(#clip922)" style="stroke:#009af9; stroke-linecap:round; stroke-linejoin:round; stroke-width:4; stroke-opacity:1; fill:none" points="342.397,256.39 344.085,278.405 345.941,301.998 348.3,331.094 350.949,362.621 353.989,397.384 357.332,433.954 360.996,472.15 364.942,511.206 369.163,550.768 373.64,590.382 378.364,629.754 383.327,668.604 388.522,706.73 393.946,743.963 399.596,780.174 405.474,815.259 411.581,849.142 417.918,881.762 424.491,913.073 431.305,943.041 438.365,971.637 445.678,998.845 453.252,1024.65 461.096,1049.04 469.219,1072 477.629,1093.54 486.339,1113.64 495.358,1132.31 504.7,1149.55 514.376,1165.34 524.4,1179.69 534.786,1192.61 545.55,1204.08 556.708,1214.1 568.277,1222.67 580.277,1229.8 592.728,1235.46 605.652,1239.67 619.075,1242.4 633.024,1243.65 647.53,1243.4 662.631,1241.64 678.369,1238.35 694.794,1233.48 711.971,1227.01 729.978,1218.87 748.921,1208.98 768.951,1197.22 790.293,1183.41 813.343,1167.21 838.98,1147.86 871.488,1121.64 903.995,1093.92 936.503,1065.07 969.011,1035.39 1001.52,1005.14 1034.03,974.565 1066.53,943.872 1099.04,913.249 1131.55,882.864 1164.06,852.862 1196.57,823.374 1229.07,794.51 1261.58,766.368 1294.09,739.028 1326.6,712.556 1359.1,687.005 1391.61,662.416 1424.39,638.621 1457.6,615.567 1491.4,593.183 1525.97,571.432 1561.46,550.282 1598.04,529.717 1635.9,509.725 1675.23,490.301 1716.24,471.447 1759.2,453.167 1804.38,435.47 1852.12,418.37 1902.82,401.883 1956.97,386.03 2015.12,370.842 2077.95,356.358 2146.18,342.641 2220.48,329.79 2294.2,318.903 "/>
<path clip-path="url(#clip920)" d="M1766.76 1297.34 L2283.79 1297.34 L2283.79 1141.82 L1766.76 1141.82  Z" fill="#ffffff" fill-rule="evenodd" fill-opacity="1"/>
<polyline clip-path="url(#clip920)" style="stroke:#000000; stroke-linecap:round; stroke-linejoin:round; stroke-width:4; stroke-opacity:1; fill:none" points="1766.76,1297.34 2283.79,1297.34 2283.79,1141.82 1766.76,1141.82 1766.76,1297.34 "/>
<circle clip-path="url(#clip920)" cx="1858.72" cy="1193.66" r="20.48" fill="#009af9" fill-rule="evenodd" fill-opacity="1" stroke="#000000" stroke-opacity="1" stroke-width="4.55111"/>
<path clip-path="url(#clip920)" d="M1950.67 1176.38 L1972.52 1176.38 L1972.52 1180.32 L1955.34 1180.32 L1955.34 1190.55 L1971.8 1190.55 L1971.8 1194.48 L1955.34 1194.48 L1955.34 1207.01 L1972.94 1207.01 L1972.94 1210.94 L1950.67 1210.94 L1950.67 1176.38 Z" fill="#000000" fill-rule="nonzero" fill-opacity="1" /><path clip-path="url(#clip920)" d="M2005.74 1174.97 Q2002.63 1180.29 2001.13 1185.5 Q1999.63 1190.71 1999.63 1196.06 Q1999.63 1201.4 2001.13 1206.66 Q2002.66 1211.89 2005.74 1217.19 L2002.03 1217.19 Q1998.56 1211.75 1996.82 1206.5 Q1995.11 1201.24 1995.11 1196.06 Q1995.11 1190.9 1996.82 1185.66 Q1998.54 1180.43 2002.03 1174.97 L2005.74 1174.97 Z" fill="#000000" fill-rule="nonzero" fill-opacity="1" /><path clip-path="url(#clip920)" d="M2034.19 1189.99 Q2035.78 1187.12 2038 1185.76 Q2040.23 1184.39 2043.24 1184.39 Q2047.29 1184.39 2049.49 1187.24 Q2051.68 1190.06 2051.68 1195.29 L2051.68 1210.94 L2047.4 1210.94 L2047.4 1195.43 Q2047.4 1191.71 2046.08 1189.9 Q2044.76 1188.09 2042.06 1188.09 Q2038.75 1188.09 2036.82 1190.29 Q2034.9 1192.49 2034.9 1196.29 L2034.9 1210.94 L2030.62 1210.94 L2030.62 1195.43 Q2030.62 1191.68 2029.3 1189.9 Q2027.98 1188.09 2025.23 1188.09 Q2021.96 1188.09 2020.04 1190.32 Q2018.12 1192.52 2018.12 1196.29 L2018.12 1210.94 L2013.84 1210.94 L2013.84 1185.02 L2018.12 1185.02 L2018.12 1189.04 Q2019.58 1186.66 2021.62 1185.53 Q2023.65 1184.39 2026.45 1184.39 Q2029.28 1184.39 2031.25 1185.83 Q2033.24 1187.26 2034.19 1189.99 Z" fill="#000000" fill-rule="nonzero" fill-opacity="1" /><path clip-path="url(#clip920)" d="M2082.36 1196.91 L2082.36 1199 L2062.77 1199 Q2063.05 1203.4 2065.41 1205.71 Q2067.8 1208 2072.03 1208 Q2074.49 1208 2076.78 1207.4 Q2079.09 1206.8 2081.36 1205.59 L2081.36 1209.62 Q2079.07 1210.59 2076.66 1211.1 Q2074.25 1211.61 2071.78 1211.61 Q2065.57 1211.61 2061.94 1208 Q2058.33 1204.39 2058.33 1198.23 Q2058.33 1191.87 2061.75 1188.14 Q2065.2 1184.39 2071.04 1184.39 Q2076.27 1184.39 2079.3 1187.77 Q2082.36 1191.13 2082.36 1196.91 M2078.1 1195.66 Q2078.05 1192.17 2076.13 1190.09 Q2074.23 1188 2071.08 1188 Q2067.52 1188 2065.37 1190.02 Q2063.24 1192.03 2062.91 1195.69 L2078.1 1195.66 Z" fill="#000000" fill-rule="nonzero" fill-opacity="1" /><path clip-path="url(#clip920)" d="M2101.13 1197.91 Q2095.97 1197.91 2093.98 1199.09 Q2091.99 1200.27 2091.99 1203.12 Q2091.99 1205.39 2093.47 1206.73 Q2094.97 1208.05 2097.54 1208.05 Q2101.08 1208.05 2103.21 1205.55 Q2105.37 1203.03 2105.37 1198.86 L2105.37 1197.91 L2101.13 1197.91 M2109.62 1196.15 L2109.62 1210.94 L2105.37 1210.94 L2105.37 1207.01 Q2103.91 1209.37 2101.73 1210.5 Q2099.56 1211.61 2096.41 1211.61 Q2092.43 1211.61 2090.06 1209.39 Q2087.73 1207.15 2087.73 1203.4 Q2087.73 1199.02 2090.64 1196.8 Q2093.58 1194.58 2099.39 1194.58 L2105.37 1194.58 L2105.37 1194.16 Q2105.37 1191.22 2103.42 1189.62 Q2101.5 1188 2098 1188 Q2095.78 1188 2093.68 1188.53 Q2091.57 1189.07 2089.62 1190.13 L2089.62 1186.2 Q2091.96 1185.29 2094.16 1184.85 Q2096.36 1184.39 2098.44 1184.39 Q2104.07 1184.39 2106.85 1187.31 Q2109.62 1190.22 2109.62 1196.15 Z" fill="#000000" fill-rule="nonzero" fill-opacity="1" /><path clip-path="url(#clip920)" d="M2134.93 1185.78 L2134.93 1189.81 Q2133.12 1188.88 2131.18 1188.42 Q2129.23 1187.96 2127.15 1187.96 Q2123.98 1187.96 2122.38 1188.93 Q2120.8 1189.9 2120.8 1191.84 Q2120.8 1193.33 2121.94 1194.18 Q2123.07 1195.02 2126.5 1195.78 L2127.96 1196.1 Q2132.49 1197.08 2134.39 1198.86 Q2136.31 1200.62 2136.31 1203.79 Q2136.31 1207.4 2133.44 1209.51 Q2130.6 1211.61 2125.6 1211.61 Q2123.51 1211.61 2121.24 1211.2 Q2119 1210.8 2116.5 1209.99 L2116.5 1205.59 Q2118.86 1206.82 2121.15 1207.45 Q2123.44 1208.05 2125.69 1208.05 Q2128.7 1208.05 2130.32 1207.03 Q2131.94 1205.99 2131.94 1204.11 Q2131.94 1202.38 2130.76 1201.45 Q2129.6 1200.53 2125.64 1199.67 L2124.16 1199.32 Q2120.2 1198.49 2118.44 1196.78 Q2116.68 1195.04 2116.68 1192.03 Q2116.68 1188.37 2119.28 1186.38 Q2121.87 1184.39 2126.64 1184.39 Q2129 1184.39 2131.08 1184.74 Q2133.17 1185.09 2134.93 1185.78 Z" fill="#000000" fill-rule="nonzero" fill-opacity="1" /><path clip-path="url(#clip920)" d="M2142.66 1200.71 L2142.66 1185.02 L2146.92 1185.02 L2146.92 1200.55 Q2146.92 1204.23 2148.35 1206.08 Q2149.79 1207.91 2152.66 1207.91 Q2156.11 1207.91 2158.1 1205.71 Q2160.11 1203.51 2160.11 1199.71 L2160.11 1185.02 L2164.37 1185.02 L2164.37 1210.94 L2160.11 1210.94 L2160.11 1206.96 Q2158.56 1209.32 2156.5 1210.48 Q2154.46 1211.61 2151.75 1211.61 Q2147.29 1211.61 2144.97 1208.84 Q2142.66 1206.06 2142.66 1200.71 M2153.37 1184.39 L2153.37 1184.39 Z" fill="#000000" fill-rule="nonzero" fill-opacity="1" /><path clip-path="url(#clip920)" d="M2188.17 1189 Q2187.45 1188.58 2186.59 1188.4 Q2185.76 1188.19 2184.74 1188.19 Q2181.13 1188.19 2179.18 1190.55 Q2177.26 1192.89 2177.26 1197.28 L2177.26 1210.94 L2172.98 1210.94 L2172.98 1185.02 L2177.26 1185.02 L2177.26 1189.04 Q2178.61 1186.68 2180.76 1185.55 Q2182.91 1184.39 2185.99 1184.39 Q2186.43 1184.39 2186.96 1184.46 Q2187.49 1184.51 2188.14 1184.62 L2188.17 1189 Z" fill="#000000" fill-rule="nonzero" fill-opacity="1" /><path clip-path="url(#clip920)" d="M2213.77 1196.91 L2213.77 1199 L2194.18 1199 Q2194.46 1203.4 2196.82 1205.71 Q2199.21 1208 2203.44 1208 Q2205.9 1208 2208.19 1207.4 Q2210.5 1206.8 2212.77 1205.59 L2212.77 1209.62 Q2210.48 1210.59 2208.07 1211.1 Q2205.67 1211.61 2203.19 1211.61 Q2196.99 1211.61 2193.35 1208 Q2189.74 1204.39 2189.74 1198.23 Q2189.74 1191.87 2193.17 1188.14 Q2196.61 1184.39 2202.45 1184.39 Q2207.68 1184.39 2210.71 1187.77 Q2213.77 1191.13 2213.77 1196.91 M2209.51 1195.66 Q2209.46 1192.17 2207.54 1190.09 Q2205.64 1188 2202.49 1188 Q2198.93 1188 2196.78 1190.02 Q2194.65 1192.03 2194.32 1195.69 L2209.51 1195.66 Z" fill="#000000" fill-rule="nonzero" fill-opacity="1" /><path clip-path="url(#clip920)" d="M2237.82 1188.95 L2237.82 1174.92 L2242.08 1174.92 L2242.08 1210.94 L2237.82 1210.94 L2237.82 1207.05 Q2236.48 1209.37 2234.42 1210.5 Q2232.38 1211.61 2229.51 1211.61 Q2224.81 1211.61 2221.85 1207.86 Q2218.91 1204.11 2218.91 1198 Q2218.91 1191.89 2221.85 1188.14 Q2224.81 1184.39 2229.51 1184.39 Q2232.38 1184.39 2234.42 1185.53 Q2236.48 1186.64 2237.82 1188.95 M2223.3 1198 Q2223.3 1202.7 2225.23 1205.39 Q2227.17 1208.05 2230.55 1208.05 Q2233.93 1208.05 2235.87 1205.39 Q2237.82 1202.7 2237.82 1198 Q2237.82 1193.3 2235.87 1190.64 Q2233.93 1187.96 2230.55 1187.96 Q2227.17 1187.96 2225.23 1190.64 Q2223.3 1193.3 2223.3 1198 Z" fill="#000000" fill-rule="nonzero" fill-opacity="1" /><path clip-path="url(#clip920)" d="M2250.18 1174.97 L2253.88 1174.97 Q2257.36 1180.43 2259.07 1185.66 Q2260.8 1190.9 2260.8 1196.06 Q2260.8 1201.24 2259.07 1206.5 Q2257.36 1211.75 2253.88 1217.19 L2250.18 1217.19 Q2253.26 1211.89 2254.76 1206.66 Q2256.29 1201.4 2256.29 1196.06 Q2256.29 1190.71 2254.76 1185.5 Q2253.26 1180.29 2250.18 1174.97 Z" fill="#000000" fill-rule="nonzero" fill-opacity="1" /><polyline clip-path="url(#clip920)" style="stroke:#009af9; stroke-linecap:round; stroke-linejoin:round; stroke-width:4; stroke-opacity:1; fill:none" points="1789.75,1245.5 1927.68,1245.5 "/>
<path clip-path="url(#clip920)" d="M1950.67 1228.22 L1972.52 1228.22 L1972.52 1232.16 L1955.34 1232.16 L1955.34 1242.39 L1971.8 1242.39 L1971.8 1246.32 L1955.34 1246.32 L1955.34 1258.85 L1972.94 1258.85 L1972.94 1262.78 L1950.67 1262.78 L1950.67 1228.22 Z" fill="#000000" fill-rule="nonzero" fill-opacity="1" /><path clip-path="url(#clip920)" d="M2005.74 1226.81 Q2002.63 1232.13 2001.13 1237.34 Q1999.63 1242.55 1999.63 1247.9 Q1999.63 1253.24 2001.13 1258.5 Q2002.66 1263.73 2005.74 1269.03 L2002.03 1269.03 Q1998.56 1263.59 1996.82 1258.34 Q1995.11 1253.08 1995.11 1247.9 Q1995.11 1242.74 1996.82 1237.5 Q1998.54 1232.27 2002.03 1226.81 L2005.74 1226.81 Z" fill="#000000" fill-rule="nonzero" fill-opacity="1" /><path clip-path="url(#clip920)" d="M2027.12 1226.76 L2027.12 1230.31 L2023.05 1230.31 Q2020.76 1230.31 2019.86 1231.23 Q2018.98 1232.16 2018.98 1234.56 L2018.98 1236.86 L2025.99 1236.86 L2025.99 1240.17 L2018.98 1240.17 L2018.98 1262.78 L2014.69 1262.78 L2014.69 1240.17 L2010.62 1240.17 L2010.62 1236.86 L2014.69 1236.86 L2014.69 1235.05 Q2014.69 1230.72 2016.71 1228.75 Q2018.72 1226.76 2023.1 1226.76 L2027.12 1226.76 Z" fill="#000000" fill-rule="nonzero" fill-opacity="1" /><path clip-path="url(#clip920)" d="M2030.69 1236.86 L2034.95 1236.86 L2034.95 1262.78 L2030.69 1262.78 L2030.69 1236.86 M2030.69 1226.76 L2034.95 1226.76 L2034.95 1232.16 L2030.69 1232.16 L2030.69 1226.76 Z" fill="#000000" fill-rule="nonzero" fill-opacity="1" /><path clip-path="url(#clip920)" d="M2048.07 1229.49 L2048.07 1236.86 L2056.85 1236.86 L2056.85 1240.17 L2048.07 1240.17 L2048.07 1254.24 Q2048.07 1257.41 2048.93 1258.31 Q2049.81 1259.22 2052.47 1259.22 L2056.85 1259.22 L2056.85 1262.78 L2052.47 1262.78 Q2047.54 1262.78 2045.67 1260.95 Q2043.79 1259.1 2043.79 1254.24 L2043.79 1240.17 L2040.67 1240.17 L2040.67 1236.86 L2043.79 1236.86 L2043.79 1229.49 L2048.07 1229.49 Z" fill="#000000" fill-rule="nonzero" fill-opacity="1" /><path clip-path="url(#clip920)" d="M2066.66 1229.49 L2066.66 1236.86 L2075.43 1236.86 L2075.43 1240.17 L2066.66 1240.17 L2066.66 1254.24 Q2066.66 1257.41 2067.52 1258.31 Q2068.4 1259.22 2071.06 1259.22 L2075.43 1259.22 L2075.43 1262.78 L2071.06 1262.78 Q2066.13 1262.78 2064.25 1260.95 Q2062.38 1259.1 2062.38 1254.24 L2062.38 1240.17 L2059.25 1240.17 L2059.25 1236.86 L2062.38 1236.86 L2062.38 1229.49 L2066.66 1229.49 Z" fill="#000000" fill-rule="nonzero" fill-opacity="1" /><path clip-path="url(#clip920)" d="M2103.21 1248.75 L2103.21 1250.84 L2083.63 1250.84 Q2083.91 1255.24 2086.27 1257.55 Q2088.65 1259.84 2092.89 1259.84 Q2095.34 1259.84 2097.63 1259.24 Q2099.95 1258.64 2102.22 1257.43 L2102.22 1261.46 Q2099.93 1262.43 2097.52 1262.94 Q2095.11 1263.45 2092.63 1263.45 Q2086.43 1263.45 2082.8 1259.84 Q2079.18 1256.23 2079.18 1250.07 Q2079.18 1243.71 2082.61 1239.98 Q2086.06 1236.23 2091.89 1236.23 Q2097.12 1236.23 2100.16 1239.61 Q2103.21 1242.97 2103.21 1248.75 M2098.95 1247.5 Q2098.91 1244.01 2096.99 1241.93 Q2095.09 1239.84 2091.94 1239.84 Q2088.37 1239.84 2086.22 1241.86 Q2084.09 1243.87 2083.77 1247.53 L2098.95 1247.5 Z" fill="#000000" fill-rule="nonzero" fill-opacity="1" /><path clip-path="url(#clip920)" d="M2127.26 1240.79 L2127.26 1226.76 L2131.52 1226.76 L2131.52 1262.78 L2127.26 1262.78 L2127.26 1258.89 Q2125.92 1261.21 2123.86 1262.34 Q2121.82 1263.45 2118.95 1263.45 Q2114.25 1263.45 2111.29 1259.7 Q2108.35 1255.95 2108.35 1249.84 Q2108.35 1243.73 2111.29 1239.98 Q2114.25 1236.23 2118.95 1236.23 Q2121.82 1236.23 2123.86 1237.37 Q2125.92 1238.48 2127.26 1240.79 M2112.75 1249.84 Q2112.75 1254.54 2114.67 1257.23 Q2116.62 1259.89 2119.99 1259.89 Q2123.37 1259.89 2125.32 1257.23 Q2127.26 1254.54 2127.26 1249.84 Q2127.26 1245.14 2125.32 1242.48 Q2123.37 1239.8 2119.99 1239.8 Q2116.62 1239.8 2114.67 1242.48 Q2112.75 1245.14 2112.75 1249.84 Z" fill="#000000" fill-rule="nonzero" fill-opacity="1" /><path clip-path="url(#clip920)" d="M2139.62 1226.81 L2143.33 1226.81 Q2146.8 1232.27 2148.51 1237.5 Q2150.25 1242.74 2150.25 1247.9 Q2150.25 1253.08 2148.51 1258.34 Q2146.8 1263.59 2143.33 1269.03 L2139.62 1269.03 Q2142.7 1263.73 2144.21 1258.5 Q2145.74 1253.24 2145.74 1247.9 Q2145.74 1242.55 2144.21 1237.34 Q2142.7 1232.13 2139.62 1226.81 Z" fill="#000000" fill-rule="nonzero" fill-opacity="1" /></svg>
