<?xml version="1.0" encoding="utf-8"?>
<svg xmlns="http://www.w3.org/2000/svg" xmlns:xlink="http://www.w3.org/1999/xlink" width="750" height="500" viewBox="0 0 3000 2000">
<defs>
  <clipPath id="clip820">
    <rect x="0" y="0" width="3000" height="2000"/>
  </clipPath>
</defs>
<path clip-path="url(#clip820)" d="M0 2000 L3000 2000 L3000 0 L0 0  Z" fill="#ffffff" fill-rule="evenodd" fill-opacity="1"/>
<defs>
  <clipPath id="clip821">
    <rect x="600" y="0" width="2101" height="2000"/>
  </clipPath>
</defs>
<path clip-path="url(#clip820)" d="M713.294 1638.08 L2952.76 1638.08 L2952.76 47.2441 L713.294 47.2441  Z" fill="#ffffff" fill-rule="evenodd" fill-opacity="1"/>
<defs>
  <clipPath id="clip822">
    <rect x="713" y="47" width="2240" height="1592"/>
  </clipPath>
</defs>
<polyline clip-path="url(#clip822)" style="stroke:#000000; stroke-linecap:round; stroke-linejoin:round; stroke-width:2; stroke-opacity:0.1; fill:none" points="733.558,1638.08 733.558,47.2403 "/>
<polyline clip-path="url(#clip822)" style="stroke:#000000; stroke-linecap:round; stroke-linejoin:round; stroke-width:2; stroke-opacity:0.1; fill:none" points="1164.72,1638.08 1164.72,47.2403 "/>
<polyline clip-path="url(#clip822)" style="stroke:#000000; stroke-linecap:round; stroke-linejoin:round; stroke-width:2; stroke-opacity:0.1; fill:none" points="1595.88,1638.08 1595.88,47.2403 "/>
<polyline clip-path="url(#clip822)" style="stroke:#000000; stroke-linecap:round; stroke-linejoin:round; stroke-width:2; stroke-opacity:0.1; fill:none" points="2027.05,1638.08 2027.05,47.2403 "/>
<polyline clip-path="url(#clip822)" style="stroke:#000000; stroke-linecap:round; stroke-linejoin:round; stroke-width:2; stroke-opacity:0.1; fill:none" points="2458.21,1638.08 2458.21,47.2403 "/>
<polyline clip-path="url(#clip822)" style="stroke:#000000; stroke-linecap:round; stroke-linejoin:round; stroke-width:2; stroke-opacity:0.1; fill:none" points="2889.37,1638.08 2889.37,47.2403 "/>
<polyline clip-path="url(#clip822)" style="stroke:#000000; stroke-linecap:round; stroke-linejoin:round; stroke-width:2; stroke-opacity:0.1; fill:none" points="713.294,1605.97 2952.76,1605.97 "/>
<polyline clip-path="url(#clip822)" style="stroke:#000000; stroke-linecap:round; stroke-linejoin:round; stroke-width:2; stroke-opacity:0.1; fill:none" points="713.294,681.257 2952.76,681.257 "/>
<polyline clip-path="url(#clip820)" style="stroke:#000000; stroke-linecap:round; stroke-linejoin:round; stroke-width:4; stroke-opacity:1; fill:none" points="713.294,1638.08 2952.76,1638.08 "/>
<polyline clip-path="url(#clip820)" style="stroke:#000000; stroke-linecap:round; stroke-linejoin:round; stroke-width:4; stroke-opacity:1; fill:none" points="733.558,1638.08 733.558,1619.18 "/>
<polyline clip-path="url(#clip820)" style="stroke:#000000; stroke-linecap:round; stroke-linejoin:round; stroke-width:4; stroke-opacity:1; fill:none" points="1164.72,1638.08 1164.72,1619.18 "/>
<polyline clip-path="url(#clip820)" style="stroke:#000000; stroke-linecap:round; stroke-linejoin:round; stroke-width:4; stroke-opacity:1; fill:none" points="1595.88,1638.08 1595.88,1619.18 "/>
<polyline clip-path="url(#clip820)" style="stroke:#000000; stroke-linecap:round; stroke-linejoin:round; stroke-width:4; stroke-opacity:1; fill:none" points="2027.05,1638.08 2027.05,1619.18 "/>
<polyline clip-path="url(#clip820)" style="stroke:#000000; stroke-linecap:round; stroke-linejoin:round; stroke-width:4; stroke-opacity:1; fill:none" points="2458.21,1638.08 2458.21,1619.18 "/>
<polyline clip-path="url(#clip820)" style="stroke:#000000; stroke-linecap:round; stroke-linejoin:round; stroke-width:4; stroke-opacity:1; fill:none" points="2889.37,1638.08 2889.37,1619.18 "/>
<path clip-path="url(#clip820)" d="M733.558 1673.8 Q729.947 1673.8 728.119 1677.36 Q726.313 1680.9 726.313 1688.03 Q726.313 1695.14 728.119 1698.7 Q729.947 1702.25 733.558 1702.25 Q737.193 1702.25 738.998 1698.7 Q740.827 1695.14 740.827 1688.03 Q740.827 1680.9 738.998 1677.36 Q737.193 1673.8 733.558 1673.8 M733.558 1670.09 Q739.368 1670.09 742.424 1674.7 Q745.503 1679.28 745.503 1688.03 Q745.503 1696.76 742.424 1701.37 Q739.368 1705.95 733.558 1705.95 Q727.748 1705.95 724.669 1701.37 Q721.614 1696.76 721.614 1688.03 Q721.614 1679.28 724.669 1674.7 Q727.748 1670.09 733.558 1670.09 Z" fill="#000000" fill-rule="nonzero" fill-opacity="1" /><path clip-path="url(#clip820)" d="M1139.41 1701.34 L1147.05 1701.34 L1147.05 1674.98 L1138.74 1676.64 L1138.74 1672.38 L1147 1670.72 L1151.68 1670.72 L1151.68 1701.34 L1159.32 1701.34 L1159.32 1705.28 L1139.41 1705.28 L1139.41 1701.34 Z" fill="#000000" fill-rule="nonzero" fill-opacity="1" /><path clip-path="url(#clip820)" d="M1178.76 1673.8 Q1175.15 1673.8 1173.32 1677.36 Q1171.52 1680.9 1171.52 1688.03 Q1171.52 1695.14 1173.32 1698.7 Q1175.15 1702.25 1178.76 1702.25 Q1182.4 1702.25 1184.2 1698.7 Q1186.03 1695.14 1186.03 1688.03 Q1186.03 1680.9 1184.2 1677.36 Q1182.4 1673.8 1178.76 1673.8 M1178.76 1670.09 Q1184.57 1670.09 1187.63 1674.7 Q1190.71 1679.28 1190.71 1688.03 Q1190.71 1696.76 1187.63 1701.37 Q1184.57 1705.95 1178.76 1705.95 Q1172.95 1705.95 1169.87 1701.37 Q1166.82 1696.76 1166.82 1688.03 Q1166.82 1679.28 1169.87 1674.7 Q1172.95 1670.09 1178.76 1670.09 Z" fill="#000000" fill-rule="nonzero" fill-opacity="1" /><path clip-path="url(#clip820)" d="M1574.66 1701.34 L1590.98 1701.34 L1590.98 1705.28 L1569.03 1705.28 L1569.03 1701.34 Q1571.7 1698.59 1576.28 1693.96 Q1580.89 1689.31 1582.07 1687.96 Q1584.31 1685.44 1585.19 1683.7 Q1586.09 1681.94 1586.09 1680.25 Q1586.09 1677.5 1584.15 1675.76 Q1582.23 1674.03 1579.13 1674.03 Q1576.93 1674.03 1574.47 1674.79 Q1572.04 1675.56 1569.26 1677.11 L1569.26 1672.38 Q1572.09 1671.25 1574.54 1670.67 Q1577 1670.09 1579.03 1670.09 Q1584.4 1670.09 1587.6 1672.78 Q1590.79 1675.46 1590.79 1679.95 Q1590.79 1682.08 1589.98 1684 Q1589.2 1685.9 1587.09 1688.5 Q1586.51 1689.17 1583.41 1692.38 Q1580.31 1695.58 1574.66 1701.34 Z" fill="#000000" fill-rule="nonzero" fill-opacity="1" /><path clip-path="url(#clip820)" d="M1610.79 1673.8 Q1607.18 1673.8 1605.35 1677.36 Q1603.55 1680.9 1603.55 1688.03 Q1603.55 1695.14 1605.35 1698.7 Q1607.18 1702.25 1610.79 1702.25 Q1614.43 1702.25 1616.23 1698.7 Q1618.06 1695.14 1618.06 1688.03 Q1618.06 1680.9 1616.23 1677.36 Q1614.43 1673.8 1610.79 1673.8 M1610.79 1670.09 Q1616.6 1670.09 1619.66 1674.7 Q1622.74 1679.28 1622.74 1688.03 Q1622.74 1696.76 1619.66 1701.37 Q1616.6 1705.95 1610.79 1705.95 Q1604.98 1705.95 1601.9 1701.37 Q1598.85 1696.76 1598.85 1688.03 Q1598.85 1679.28 1601.9 1674.7 Q1604.98 1670.09 1610.79 1670.09 Z" fill="#000000" fill-rule="nonzero" fill-opacity="1" /><path clip-path="url(#clip820)" d="M2015.89 1686.64 Q2019.25 1687.36 2021.12 1689.63 Q2023.02 1691.9 2023.02 1695.23 Q2023.02 1700.35 2019.5 1703.15 Q2015.98 1705.95 2009.5 1705.95 Q2007.33 1705.95 2005.01 1705.51 Q2002.72 1705.09 2000.27 1704.24 L2000.27 1699.72 Q2002.21 1700.86 2004.53 1701.44 Q2006.84 1702.01 2009.36 1702.01 Q2013.76 1702.01 2016.05 1700.28 Q2018.37 1698.54 2018.37 1695.23 Q2018.37 1692.18 2016.22 1690.46 Q2014.09 1688.73 2010.27 1688.73 L2006.24 1688.73 L2006.24 1684.88 L2010.45 1684.88 Q2013.9 1684.88 2015.73 1683.52 Q2017.56 1682.13 2017.56 1679.54 Q2017.56 1676.88 2015.66 1675.46 Q2013.78 1674.03 2010.27 1674.03 Q2008.34 1674.03 2006.15 1674.44 Q2003.95 1674.86 2001.31 1675.74 L2001.31 1671.57 Q2003.97 1670.83 2006.28 1670.46 Q2008.62 1670.09 2010.68 1670.09 Q2016.01 1670.09 2019.11 1672.52 Q2022.21 1674.93 2022.21 1679.05 Q2022.21 1681.92 2020.57 1683.91 Q2018.92 1685.88 2015.89 1686.64 Z" fill="#000000" fill-rule="nonzero" fill-opacity="1" /><path clip-path="url(#clip820)" d="M2041.89 1673.8 Q2038.28 1673.8 2036.45 1677.36 Q2034.64 1680.9 2034.64 1688.03 Q2034.64 1695.14 2036.45 1698.7 Q2038.28 1702.25 2041.89 1702.25 Q2045.52 1702.25 2047.33 1698.7 Q2049.15 1695.14 2049.15 1688.03 Q2049.15 1680.9 2047.33 1677.36 Q2045.52 1673.8 2041.89 1673.8 M2041.89 1670.09 Q2047.7 1670.09 2050.75 1674.7 Q2053.83 1679.28 2053.83 1688.03 Q2053.83 1696.76 2050.75 1701.37 Q2047.7 1705.95 2041.89 1705.95 Q2036.08 1705.95 2033 1701.37 Q2029.94 1696.76 2029.94 1688.03 Q2029.94 1679.28 2033 1674.7 Q2036.08 1670.09 2041.89 1670.09 Z" fill="#000000" fill-rule="nonzero" fill-opacity="1" /><path clip-path="url(#clip820)" d="M2446.38 1674.79 L2434.58 1693.24 L2446.38 1693.24 L2446.38 1674.79 M2445.16 1670.72 L2451.04 1670.72 L2451.04 1693.24 L2455.97 1693.24 L2455.97 1697.13 L2451.04 1697.13 L2451.04 1705.28 L2446.38 1705.28 L2446.38 1697.13 L2430.78 1697.13 L2430.78 1692.62 L2445.16 1670.72 Z" fill="#000000" fill-rule="nonzero" fill-opacity="1" /><path clip-path="url(#clip820)" d="M2473.7 1673.8 Q2470.09 1673.8 2468.26 1677.36 Q2466.45 1680.9 2466.45 1688.03 Q2466.45 1695.14 2468.26 1698.7 Q2470.09 1702.25 2473.7 1702.25 Q2477.33 1702.25 2479.14 1698.7 Q2480.97 1695.14 2480.97 1688.03 Q2480.97 1680.9 2479.14 1677.36 Q2477.33 1673.8 2473.7 1673.8 M2473.7 1670.09 Q2479.51 1670.09 2482.56 1674.7 Q2485.64 1679.28 2485.64 1688.03 Q2485.64 1696.76 2482.56 1701.37 Q2479.51 1705.95 2473.7 1705.95 Q2467.89 1705.95 2464.81 1701.37 Q2461.75 1696.76 2461.75 1688.03 Q2461.75 1679.28 2464.81 1674.7 Q2467.89 1670.09 2473.7 1670.09 Z" fill="#000000" fill-rule="nonzero" fill-opacity="1" /><path clip-path="url(#clip820)" d="M2864.07 1670.72 L2882.43 1670.72 L2882.43 1674.65 L2868.36 1674.65 L2868.36 1683.13 Q2869.38 1682.78 2870.39 1682.62 Q2871.41 1682.43 2872.43 1682.43 Q2878.22 1682.43 2881.6 1685.6 Q2884.98 1688.77 2884.98 1694.19 Q2884.98 1699.77 2881.5 1702.87 Q2878.03 1705.95 2871.71 1705.95 Q2869.54 1705.95 2867.27 1705.58 Q2865.02 1705.21 2862.62 1704.47 L2862.62 1699.77 Q2864.7 1700.9 2866.92 1701.46 Q2869.14 1702.01 2871.62 1702.01 Q2875.62 1702.01 2877.96 1699.91 Q2880.3 1697.8 2880.3 1694.19 Q2880.3 1690.58 2877.96 1688.47 Q2875.62 1686.37 2871.62 1686.37 Q2869.75 1686.37 2867.87 1686.78 Q2866.02 1687.2 2864.07 1688.08 L2864.07 1670.72 Z" fill="#000000" fill-rule="nonzero" fill-opacity="1" /><path clip-path="url(#clip820)" d="M2904.19 1673.8 Q2900.58 1673.8 2898.75 1677.36 Q2896.94 1680.9 2896.94 1688.03 Q2896.94 1695.14 2898.75 1698.7 Q2900.58 1702.25 2904.19 1702.25 Q2907.82 1702.25 2909.63 1698.7 Q2911.46 1695.14 2911.46 1688.03 Q2911.46 1680.9 2909.63 1677.36 Q2907.82 1673.8 2904.19 1673.8 M2904.19 1670.09 Q2910 1670.09 2913.06 1674.7 Q2916.13 1679.28 2916.13 1688.03 Q2916.13 1696.76 2913.06 1701.37 Q2910 1705.95 2904.19 1705.95 Q2898.38 1705.95 2895.3 1701.37 Q2892.25 1696.76 2892.25 1688.03 Q2892.25 1679.28 2895.3 1674.7 Q2898.38 1670.09 2904.19 1670.09 Z" fill="#000000" fill-rule="nonzero" fill-opacity="1" /><path clip-path="url(#clip820)" d="M1484.98 1748.78 Q1477.98 1748.78 1473.84 1754 Q1469.73 1759.22 1469.73 1768.23 Q1469.73 1777.2 1473.84 1782.42 Q1477.98 1787.64 1484.98 1787.64 Q1491.98 1787.64 1496.06 1782.42 Q1500.16 1777.2 1500.16 1768.23 Q1500.16 1759.22 1496.06 1754 Q1491.98 1748.78 1484.98 1748.78 M1484.98 1743.56 Q1494.97 1743.56 1500.96 1750.28 Q1506.94 1756.96 1506.94 1768.23 Q1506.94 1779.46 1500.96 1786.18 Q1494.97 1792.86 1484.98 1792.86 Q1474.95 1792.86 1468.94 1786.18 Q1462.95 1779.5 1462.95 1768.23 Q1462.95 1756.96 1468.94 1750.28 Q1474.95 1743.56 1484.98 1743.56 Z" fill="#000000" fill-rule="nonzero" fill-opacity="1" /><path clip-path="url(#clip820)" d="M1522.41 1786.59 L1522.41 1805.5 L1516.52 1805.5 L1516.52 1756.29 L1522.41 1756.29 L1522.41 1761.7 Q1524.26 1758.52 1527.06 1756.99 Q1529.89 1755.43 1533.8 1755.43 Q1540.3 1755.43 1544.34 1760.59 Q1548.41 1765.75 1548.41 1774.15 Q1548.41 1782.55 1544.34 1787.71 Q1540.3 1792.86 1533.8 1792.86 Q1529.89 1792.86 1527.06 1791.34 Q1524.26 1789.78 1522.41 1786.59 M1542.33 1774.15 Q1542.33 1767.69 1539.66 1764.03 Q1537.02 1760.34 1532.37 1760.34 Q1527.73 1760.34 1525.05 1764.03 Q1522.41 1767.69 1522.41 1774.15 Q1522.41 1780.61 1525.05 1784.3 Q1527.73 1787.96 1532.37 1787.96 Q1537.02 1787.96 1539.66 1784.3 Q1542.33 1780.61 1542.33 1774.15 Z" fill="#000000" fill-rule="nonzero" fill-opacity="1" /><path clip-path="url(#clip820)" d="M1563.91 1746.17 L1563.91 1756.29 L1575.98 1756.29 L1575.98 1760.85 L1563.91 1760.85 L1563.91 1780.2 Q1563.91 1784.56 1565.09 1785.8 Q1566.3 1787.04 1569.96 1787.04 L1575.98 1787.04 L1575.98 1791.94 L1569.96 1791.94 Q1563.18 1791.94 1560.6 1789.43 Q1558.03 1786.88 1558.03 1780.2 L1558.03 1760.85 L1553.73 1760.85 L1553.73 1756.29 L1558.03 1756.29 L1558.03 1746.17 L1563.91 1746.17 Z" fill="#000000" fill-rule="nonzero" fill-opacity="1" /><path clip-path="url(#clip820)" d="M1583.68 1756.29 L1589.54 1756.29 L1589.54 1791.94 L1583.68 1791.94 L1583.68 1756.29 M1583.68 1742.42 L1589.54 1742.42 L1589.54 1749.83 L1583.68 1749.83 L1583.68 1742.42 Z" fill="#000000" fill-rule="nonzero" fill-opacity="1" /><path clip-path="url(#clip820)" d="M1629.54 1763.14 Q1631.74 1759.19 1634.8 1757.31 Q1637.85 1755.43 1641.99 1755.43 Q1647.56 1755.43 1650.58 1759.35 Q1653.61 1763.23 1653.61 1770.43 L1653.61 1791.94 L1647.72 1791.94 L1647.72 1770.62 Q1647.72 1765.49 1645.9 1763.01 Q1644.09 1760.53 1640.37 1760.53 Q1635.82 1760.53 1633.17 1763.55 Q1630.53 1766.57 1630.53 1771.79 L1630.53 1791.94 L1624.64 1791.94 L1624.64 1770.62 Q1624.64 1765.46 1622.83 1763.01 Q1621.01 1760.53 1617.23 1760.53 Q1612.74 1760.53 1610.1 1763.58 Q1607.46 1766.61 1607.46 1771.79 L1607.46 1791.94 L1601.57 1791.94 L1601.57 1756.29 L1607.46 1756.29 L1607.46 1761.83 Q1609.46 1758.55 1612.26 1756.99 Q1615.06 1755.43 1618.91 1755.43 Q1622.8 1755.43 1625.5 1757.41 Q1628.24 1759.38 1629.54 1763.14 Z" fill="#000000" fill-rule="nonzero" fill-opacity="1" /><path clip-path="url(#clip820)" d="M1665.29 1756.29 L1671.14 1756.29 L1671.14 1791.94 L1665.29 1791.94 L1665.29 1756.29 M1665.29 1742.42 L1671.14 1742.42 L1671.14 1749.83 L1665.29 1749.83 L1665.29 1742.42 Z" fill="#000000" fill-rule="nonzero" fill-opacity="1" /><path clip-path="url(#clip820)" d="M1706.12 1757.34 L1706.12 1762.88 Q1703.64 1761.61 1700.97 1760.97 Q1698.29 1760.34 1695.43 1760.34 Q1691.07 1760.34 1688.87 1761.67 Q1686.71 1763.01 1686.71 1765.68 Q1686.71 1767.72 1688.27 1768.9 Q1689.83 1770.04 1694.54 1771.09 L1696.54 1771.54 Q1702.78 1772.88 1705.39 1775.33 Q1708.03 1777.75 1708.03 1782.11 Q1708.03 1787.07 1704.09 1789.97 Q1700.17 1792.86 1693.3 1792.86 Q1690.43 1792.86 1687.31 1792.29 Q1684.23 1791.75 1680.79 1790.64 L1680.79 1784.59 Q1684.04 1786.28 1687.19 1787.14 Q1690.34 1787.96 1693.42 1787.96 Q1697.56 1787.96 1699.79 1786.56 Q1702.02 1785.13 1702.02 1782.55 Q1702.02 1780.16 1700.4 1778.89 Q1698.8 1777.62 1693.36 1776.44 L1691.32 1775.96 Q1685.88 1774.82 1683.46 1772.46 Q1681.04 1770.08 1681.04 1765.94 Q1681.04 1760.91 1684.61 1758.17 Q1688.17 1755.43 1694.73 1755.43 Q1697.98 1755.43 1700.84 1755.91 Q1703.71 1756.39 1706.12 1757.34 Z" fill="#000000" fill-rule="nonzero" fill-opacity="1" /><path clip-path="url(#clip820)" d="M1733.56 1774.02 Q1726.46 1774.02 1723.73 1775.65 Q1720.99 1777.27 1720.99 1781.18 Q1720.99 1784.3 1723.03 1786.15 Q1725.09 1787.96 1728.63 1787.96 Q1733.5 1787.96 1736.43 1784.53 Q1739.39 1781.06 1739.39 1775.33 L1739.39 1774.02 L1733.56 1774.02 M1745.24 1771.6 L1745.24 1791.94 L1739.39 1791.94 L1739.39 1786.53 Q1737.38 1789.78 1734.39 1791.34 Q1731.4 1792.86 1727.07 1792.86 Q1721.59 1792.86 1718.35 1789.81 Q1715.13 1786.72 1715.13 1781.57 Q1715.13 1775.55 1719.14 1772.49 Q1723.18 1769.44 1731.17 1769.44 L1739.39 1769.44 L1739.39 1768.87 Q1739.39 1764.82 1736.71 1762.63 Q1734.07 1760.4 1729.26 1760.4 Q1726.21 1760.4 1723.31 1761.13 Q1720.42 1761.86 1717.74 1763.33 L1717.74 1757.92 Q1720.96 1756.68 1723.98 1756.07 Q1727 1755.43 1729.87 1755.43 Q1737.6 1755.43 1741.42 1759.44 Q1745.24 1763.45 1745.24 1771.6 Z" fill="#000000" fill-rule="nonzero" fill-opacity="1" /><path clip-path="url(#clip820)" d="M1763.1 1746.17 L1763.1 1756.29 L1775.16 1756.29 L1775.16 1760.85 L1763.1 1760.85 L1763.1 1780.2 Q1763.1 1784.56 1764.28 1785.8 Q1765.48 1787.04 1769.14 1787.04 L1775.16 1787.04 L1775.16 1791.94 L1769.14 1791.94 Q1762.37 1791.94 1759.79 1789.43 Q1757.21 1786.88 1757.21 1780.2 L1757.21 1760.85 L1752.91 1760.85 L1752.91 1756.29 L1757.21 1756.29 L1757.21 1746.17 L1763.1 1746.17 Z" fill="#000000" fill-rule="nonzero" fill-opacity="1" /><path clip-path="url(#clip820)" d="M1782.86 1756.29 L1788.72 1756.29 L1788.72 1791.94 L1782.86 1791.94 L1782.86 1756.29 M1782.86 1742.42 L1788.72 1742.42 L1788.72 1749.83 L1782.86 1749.83 L1782.86 1742.42 Z" fill="#000000" fill-rule="nonzero" fill-opacity="1" /><path clip-path="url(#clip820)" d="M1814.79 1760.4 Q1810.08 1760.4 1807.34 1764.09 Q1804.6 1767.75 1804.6 1774.15 Q1804.6 1780.55 1807.31 1784.24 Q1810.04 1787.9 1814.79 1787.9 Q1819.47 1787.9 1822.2 1784.21 Q1824.94 1780.52 1824.94 1774.15 Q1824.94 1767.82 1822.2 1764.12 Q1819.47 1760.4 1814.79 1760.4 M1814.79 1755.43 Q1822.43 1755.43 1826.79 1760.4 Q1831.15 1765.36 1831.15 1774.15 Q1831.15 1782.9 1826.79 1787.9 Q1822.43 1792.86 1814.79 1792.86 Q1807.12 1792.86 1802.76 1787.9 Q1798.43 1782.9 1798.43 1774.15 Q1798.43 1765.36 1802.76 1760.4 Q1807.12 1755.43 1814.79 1755.43 Z" fill="#000000" fill-rule="nonzero" fill-opacity="1" /><path clip-path="url(#clip820)" d="M1870.49 1770.43 L1870.49 1791.94 L1864.63 1791.94 L1864.63 1770.62 Q1864.63 1765.56 1862.66 1763.04 Q1860.68 1760.53 1856.74 1760.53 Q1851.99 1760.53 1849.26 1763.55 Q1846.52 1766.57 1846.52 1771.79 L1846.52 1791.94 L1840.63 1791.94 L1840.63 1756.29 L1846.52 1756.29 L1846.52 1761.83 Q1848.62 1758.62 1851.45 1757.03 Q1854.32 1755.43 1858.04 1755.43 Q1864.18 1755.43 1867.34 1759.25 Q1870.49 1763.04 1870.49 1770.43 Z" fill="#000000" fill-rule="nonzero" fill-opacity="1" /><path clip-path="url(#clip820)" d="M1923.55 1761.77 Q1922.56 1761.2 1921.38 1760.94 Q1920.23 1760.65 1918.83 1760.65 Q1913.87 1760.65 1911.2 1763.9 Q1908.55 1767.12 1908.55 1773.16 L1908.55 1791.94 L1902.67 1791.94 L1902.67 1756.29 L1908.55 1756.29 L1908.55 1761.83 Q1910.4 1758.59 1913.36 1757.03 Q1916.32 1755.43 1920.55 1755.43 Q1921.16 1755.43 1921.89 1755.53 Q1922.62 1755.59 1923.51 1755.75 L1923.55 1761.77 Z" fill="#000000" fill-rule="nonzero" fill-opacity="1" /><path clip-path="url(#clip820)" d="M1929.08 1777.87 L1929.08 1756.29 L1934.94 1756.29 L1934.94 1777.65 Q1934.94 1782.71 1936.91 1785.26 Q1938.89 1787.77 1942.83 1787.77 Q1947.58 1787.77 1950.31 1784.75 Q1953.08 1781.72 1953.08 1776.5 L1953.08 1756.29 L1958.94 1756.29 L1958.94 1791.94 L1953.08 1791.94 L1953.08 1786.47 Q1950.95 1789.71 1948.12 1791.3 Q1945.32 1792.86 1941.59 1792.86 Q1935.45 1792.86 1932.27 1789.05 Q1929.08 1785.23 1929.08 1777.87 M1943.82 1755.43 L1943.82 1755.43 Z" fill="#000000" fill-rule="nonzero" fill-opacity="1" /><path clip-path="url(#clip820)" d="M2000.63 1770.43 L2000.63 1791.94 L1994.78 1791.94 L1994.78 1770.62 Q1994.78 1765.56 1992.8 1763.04 Q1990.83 1760.53 1986.88 1760.53 Q1982.14 1760.53 1979.4 1763.55 Q1976.67 1766.57 1976.67 1771.79 L1976.67 1791.94 L1970.78 1791.94 L1970.78 1756.29 L1976.67 1756.29 L1976.67 1761.83 Q1978.77 1758.62 1981.6 1757.03 Q1984.46 1755.43 1988.19 1755.43 Q1994.33 1755.43 1997.48 1759.25 Q2000.63 1763.04 2000.63 1770.43 Z" fill="#000000" fill-rule="nonzero" fill-opacity="1" /><path clip-path="url(#clip820)" d="M2033.04 1756.29 L2038.89 1756.29 L2038.89 1791.94 L2033.04 1791.94 L2033.04 1756.29 M2033.04 1742.42 L2038.89 1742.42 L2038.89 1749.83 L2033.04 1749.83 L2033.04 1742.42 Z" fill="#000000" fill-rule="nonzero" fill-opacity="1" /><path clip-path="url(#clip820)" d="M2080.78 1770.43 L2080.78 1791.94 L2074.92 1791.94 L2074.92 1770.62 Q2074.92 1765.56 2072.95 1763.04 Q2070.97 1760.53 2067.03 1760.53 Q2062.29 1760.53 2059.55 1763.55 Q2056.81 1766.57 2056.81 1771.79 L2056.81 1791.94 L2050.92 1791.94 L2050.92 1756.29 L2056.81 1756.29 L2056.81 1761.83 Q2058.91 1758.62 2061.74 1757.03 Q2064.61 1755.43 2068.33 1755.43 Q2074.48 1755.43 2077.63 1759.25 Q2080.78 1763.04 2080.78 1770.43 Z" fill="#000000" fill-rule="nonzero" fill-opacity="1" /><path clip-path="url(#clip820)" d="M2115.92 1761.7 L2115.92 1742.42 L2121.77 1742.42 L2121.77 1791.94 L2115.92 1791.94 L2115.92 1786.59 Q2114.07 1789.78 2111.24 1791.34 Q2108.44 1792.86 2104.49 1792.86 Q2098.03 1792.86 2093.96 1787.71 Q2089.91 1782.55 2089.91 1774.15 Q2089.91 1765.75 2093.96 1760.59 Q2098.03 1755.43 2104.49 1755.43 Q2108.44 1755.43 2111.24 1756.99 Q2114.07 1758.52 2115.92 1761.7 M2095.96 1774.15 Q2095.96 1780.61 2098.6 1784.3 Q2101.28 1787.96 2105.92 1787.96 Q2110.57 1787.96 2113.24 1784.3 Q2115.92 1780.61 2115.92 1774.15 Q2115.92 1767.69 2113.24 1764.03 Q2110.57 1760.34 2105.92 1760.34 Q2101.28 1760.34 2098.6 1764.03 Q2095.96 1767.69 2095.96 1774.15 Z" fill="#000000" fill-rule="nonzero" fill-opacity="1" /><path clip-path="url(#clip820)" d="M2164.33 1772.65 L2164.33 1775.52 L2137.4 1775.52 Q2137.78 1781.57 2141.03 1784.75 Q2144.31 1787.9 2150.13 1787.9 Q2153.51 1787.9 2156.66 1787.07 Q2159.84 1786.24 2162.96 1784.59 L2162.96 1790.13 Q2159.81 1791.46 2156.5 1792.16 Q2153.19 1792.86 2149.78 1792.86 Q2141.25 1792.86 2136.26 1787.9 Q2131.29 1782.93 2131.29 1774.47 Q2131.29 1765.71 2136 1760.59 Q2140.74 1755.43 2148.76 1755.43 Q2155.96 1755.43 2160.13 1760.08 Q2164.33 1764.7 2164.33 1772.65 M2158.47 1770.93 Q2158.41 1766.13 2155.77 1763.26 Q2153.16 1760.4 2148.83 1760.4 Q2143.93 1760.4 2140.97 1763.17 Q2138.04 1765.94 2137.59 1770.97 L2158.47 1770.93 Z" fill="#000000" fill-rule="nonzero" fill-opacity="1" /><path clip-path="url(#clip820)" d="M2202.43 1756.29 L2189.54 1773.64 L2203.1 1791.94 L2196.19 1791.94 L2185.81 1777.94 L2175.44 1791.94 L2168.53 1791.94 L2182.37 1773.29 L2169.71 1756.29 L2176.61 1756.29 L2186.07 1768.99 L2195.52 1756.29 L2202.43 1756.29 Z" fill="#000000" fill-rule="nonzero" fill-opacity="1" /><polyline clip-path="url(#clip820)" style="stroke:#000000; stroke-linecap:round; stroke-linejoin:round; stroke-width:4; stroke-opacity:1; fill:none" points="713.294,1638.08 713.294,47.2403 "/>
<polyline clip-path="url(#clip820)" style="stroke:#000000; stroke-linecap:round; stroke-linejoin:round; stroke-width:4; stroke-opacity:1; fill:none" points="713.294,1605.97 732.191,1605.97 "/>
<polyline clip-path="url(#clip820)" style="stroke:#000000; stroke-linecap:round; stroke-linejoin:round; stroke-width:4; stroke-opacity:1; fill:none" points="713.294,681.257 732.191,681.257 "/>
<path clip-path="url(#clip820)" d="M293.034 1625.77 L300.673 1625.77 L300.673 1599.4 L292.363 1601.07 L292.363 1596.81 L300.626 1595.14 L305.302 1595.14 L305.302 1625.77 L312.941 1625.77 L312.941 1629.7 L293.034 1629.7 L293.034 1625.77 Z" fill="#000000" fill-rule="nonzero" fill-opacity="1" /><path clip-path="url(#clip820)" d="M332.385 1598.22 Q328.774 1598.22 326.946 1601.79 Q325.14 1605.33 325.14 1612.46 Q325.14 1619.56 326.946 1623.13 Q328.774 1626.67 332.385 1626.67 Q336.02 1626.67 337.825 1623.13 Q339.654 1619.56 339.654 1612.46 Q339.654 1605.33 337.825 1601.79 Q336.02 1598.22 332.385 1598.22 M332.385 1594.52 Q338.196 1594.52 341.251 1599.12 Q344.33 1603.71 344.33 1612.46 Q344.33 1621.18 341.251 1625.79 Q338.196 1630.37 332.385 1630.37 Q326.575 1630.37 323.497 1625.79 Q320.441 1621.18 320.441 1612.46 Q320.441 1603.71 323.497 1599.12 Q326.575 1594.52 332.385 1594.52 Z" fill="#000000" fill-rule="nonzero" fill-opacity="1" /><path clip-path="url(#clip820)" d="M344.875 1599.09 L351.082 1599.09 L351.082 1577.67 L344.33 1579.03 L344.33 1575.57 L351.044 1574.21 L354.843 1574.21 L354.843 1599.09 L361.05 1599.09 L361.05 1602.29 L344.875 1602.29 L344.875 1599.09 Z" fill="#000000" fill-rule="nonzero" fill-opacity="1" /><path clip-path="url(#clip820)" d="M368.724 1597.51 L372.692 1597.51 L372.692 1602.29 L368.724 1602.29 L368.724 1597.51 Z" fill="#000000" fill-rule="nonzero" fill-opacity="1" /><path clip-path="url(#clip820)" d="M389.092 1588.96 Q386.384 1588.96 384.823 1590.4 Q383.281 1591.85 383.281 1594.39 Q383.281 1596.93 384.823 1598.38 Q386.384 1599.83 389.092 1599.83 Q391.801 1599.83 393.362 1598.38 Q394.923 1596.91 394.923 1594.39 Q394.923 1591.85 393.362 1590.4 Q391.819 1588.96 389.092 1588.96 M385.293 1587.34 Q382.848 1586.74 381.475 1585.06 Q380.121 1583.39 380.121 1580.98 Q380.121 1577.62 382.51 1575.66 Q384.917 1573.7 389.092 1573.7 Q393.286 1573.7 395.675 1575.66 Q398.064 1577.62 398.064 1580.98 Q398.064 1583.39 396.691 1585.06 Q395.337 1586.74 392.91 1587.34 Q395.656 1587.98 397.18 1589.84 Q398.722 1591.7 398.722 1594.39 Q398.722 1598.47 396.22 1600.66 Q393.738 1602.84 389.092 1602.84 Q384.447 1602.84 381.945 1600.66 Q379.463 1598.47 379.463 1594.39 Q379.463 1591.7 381.005 1589.84 Q382.547 1587.98 385.293 1587.34 M383.901 1581.34 Q383.901 1583.52 385.256 1584.74 Q386.629 1585.97 389.092 1585.97 Q391.537 1585.97 392.91 1584.74 Q394.302 1583.52 394.302 1581.34 Q394.302 1579.16 392.91 1577.94 Q391.537 1576.71 389.092 1576.71 Q386.629 1576.71 385.256 1577.94 Q383.901 1579.16 383.901 1581.34 Z" fill="#000000" fill-rule="nonzero" fill-opacity="1" /><path clip-path="url(#clip820)" d="M414.069 1586.74 Q411.511 1586.74 410.007 1588.49 Q408.521 1590.24 408.521 1593.28 Q408.521 1596.31 410.007 1598.08 Q411.511 1599.83 414.069 1599.83 Q416.627 1599.83 418.113 1598.08 Q419.617 1596.31 419.617 1593.28 Q419.617 1590.24 418.113 1588.49 Q416.627 1586.74 414.069 1586.74 M421.611 1574.83 L421.611 1578.29 Q420.182 1577.62 418.715 1577.26 Q417.266 1576.9 415.837 1576.9 Q412.075 1576.9 410.082 1579.44 Q408.107 1581.98 407.825 1587.11 Q408.935 1585.48 410.608 1584.61 Q412.282 1583.73 414.295 1583.73 Q418.526 1583.73 420.971 1586.3 Q423.435 1588.86 423.435 1593.28 Q423.435 1597.61 420.877 1600.22 Q418.32 1602.84 414.069 1602.84 Q409.198 1602.84 406.621 1599.11 Q404.045 1595.37 404.045 1588.28 Q404.045 1581.62 407.204 1577.67 Q410.364 1573.7 415.687 1573.7 Q417.116 1573.7 418.564 1573.99 Q420.031 1574.27 421.611 1574.83 Z" fill="#000000" fill-rule="nonzero" fill-opacity="1" /><path clip-path="url(#clip820)" d="M438.105 1588.96 Q435.397 1588.96 433.836 1590.4 Q432.294 1591.85 432.294 1594.39 Q432.294 1596.93 433.836 1598.38 Q435.397 1599.83 438.105 1599.83 Q440.814 1599.83 442.375 1598.38 Q443.936 1596.91 443.936 1594.39 Q443.936 1591.85 442.375 1590.4 Q440.832 1588.96 438.105 1588.96 M434.306 1587.34 Q431.861 1586.74 430.488 1585.06 Q429.134 1583.39 429.134 1580.98 Q429.134 1577.62 431.523 1575.66 Q433.93 1573.7 438.105 1573.7 Q442.3 1573.7 444.688 1575.66 Q447.077 1577.62 447.077 1580.98 Q447.077 1583.39 445.704 1585.06 Q444.35 1586.74 441.923 1587.34 Q444.669 1587.98 446.193 1589.84 Q447.735 1591.7 447.735 1594.39 Q447.735 1598.47 445.234 1600.66 Q442.751 1602.84 438.105 1602.84 Q433.46 1602.84 430.958 1600.66 Q428.476 1598.47 428.476 1594.39 Q428.476 1591.7 430.018 1589.84 Q431.56 1587.98 434.306 1587.34 M432.914 1581.34 Q432.914 1583.52 434.269 1584.74 Q435.642 1585.97 438.105 1585.97 Q440.55 1585.97 441.923 1584.74 Q443.315 1583.52 443.315 1581.34 Q443.315 1579.16 441.923 1577.94 Q440.55 1576.71 438.105 1576.71 Q435.642 1576.71 434.269 1577.94 Q432.914 1579.16 432.914 1581.34 Z" fill="#000000" fill-rule="nonzero" fill-opacity="1" /><path clip-path="url(#clip820)" d="M453.528 1574.21 L471.583 1574.21 L471.583 1575.83 L461.389 1602.29 L457.421 1602.29 L467.013 1577.41 L453.528 1577.41 L453.528 1574.21 Z" fill="#000000" fill-rule="nonzero" fill-opacity="1" /><path clip-path="url(#clip820)" d="M482.266 1599.09 L495.525 1599.09 L495.525 1602.29 L477.696 1602.29 L477.696 1599.09 Q479.859 1596.86 483.583 1593.09 Q487.325 1589.31 488.285 1588.22 Q490.109 1586.17 490.824 1584.76 Q491.557 1583.33 491.557 1581.96 Q491.557 1579.72 489.977 1578.31 Q488.416 1576.9 485.896 1576.9 Q484.109 1576.9 482.116 1577.52 Q480.141 1578.14 477.884 1579.4 L477.884 1575.57 Q480.178 1574.64 482.172 1574.17 Q484.166 1573.7 485.821 1573.7 Q490.184 1573.7 492.78 1575.89 Q495.375 1578.07 495.375 1581.72 Q495.375 1583.45 494.717 1585.01 Q494.077 1586.55 492.366 1588.66 Q491.896 1589.2 489.375 1591.82 Q486.855 1594.41 482.266 1599.09 Z" fill="#000000" fill-rule="nonzero" fill-opacity="1" /><path clip-path="url(#clip820)" d="M506.773 1599.09 L520.032 1599.09 L520.032 1602.29 L502.202 1602.29 L502.202 1599.09 Q504.365 1596.86 508.089 1593.09 Q511.832 1589.31 512.791 1588.22 Q514.615 1586.17 515.33 1584.76 Q516.064 1583.33 516.064 1581.96 Q516.064 1579.72 514.484 1578.31 Q512.923 1576.9 510.402 1576.9 Q508.616 1576.9 506.622 1577.52 Q504.647 1578.14 502.39 1579.4 L502.39 1575.57 Q504.685 1574.64 506.679 1574.17 Q508.672 1573.7 510.327 1573.7 Q514.691 1573.7 517.286 1575.89 Q519.882 1578.07 519.882 1581.72 Q519.882 1583.45 519.223 1585.01 Q518.584 1586.55 516.872 1588.66 Q516.402 1589.2 513.882 1591.82 Q511.362 1594.41 506.773 1599.09 Z" fill="#000000" fill-rule="nonzero" fill-opacity="1" /><path clip-path="url(#clip820)" d="M538.445 1577.52 L528.853 1592.51 L538.445 1592.51 L538.445 1577.52 M537.448 1574.21 L542.225 1574.21 L542.225 1592.51 L546.231 1592.51 L546.231 1595.67 L542.225 1595.67 L542.225 1602.29 L538.445 1602.29 L538.445 1595.67 L525.768 1595.67 L525.768 1592 L537.448 1574.21 Z" fill="#000000" fill-rule="nonzero" fill-opacity="1" /><path clip-path="url(#clip820)" d="M552.626 1601.71 L552.626 1598.25 Q554.055 1598.92 555.522 1599.28 Q556.989 1599.64 558.4 1599.64 Q562.161 1599.64 564.136 1597.12 Q566.13 1594.58 566.412 1589.43 Q565.321 1591.04 563.647 1591.91 Q561.973 1592.77 559.942 1592.77 Q555.729 1592.77 553.265 1590.24 Q550.82 1587.68 550.82 1583.26 Q550.82 1578.93 553.378 1576.32 Q555.936 1573.7 560.187 1573.7 Q565.058 1573.7 567.616 1577.45 Q570.192 1581.17 570.192 1588.28 Q570.192 1594.92 567.033 1598.89 Q563.892 1602.84 558.569 1602.84 Q557.14 1602.84 555.673 1602.55 Q554.206 1602.27 552.626 1601.71 M560.187 1589.8 Q562.744 1589.8 564.23 1588.05 Q565.735 1586.3 565.735 1583.26 Q565.735 1580.23 564.23 1578.48 Q562.744 1576.71 560.187 1576.71 Q557.629 1576.71 556.124 1578.48 Q554.638 1580.23 554.638 1583.26 Q554.638 1586.3 556.124 1588.05 Q557.629 1589.8 560.187 1589.8 Z" fill="#000000" fill-rule="nonzero" fill-opacity="1" /><path clip-path="url(#clip820)" d="M599.909 1581.6 L591.313 1590.24 L599.909 1598.83 L597.67 1601.11 L589.038 1592.47 L580.405 1601.11 L578.186 1598.83 L586.762 1590.24 L578.186 1581.6 L580.405 1579.33 L589.038 1587.96 L597.67 1579.33 L599.909 1581.6 Z" fill="#000000" fill-rule="nonzero" fill-opacity="1" /><path clip-path="url(#clip820)" d="M609.952 1599.09 L616.159 1599.09 L616.159 1577.67 L609.407 1579.03 L609.407 1575.57 L616.121 1574.21 L619.92 1574.21 L619.92 1599.09 L626.127 1599.09 L626.127 1602.29 L609.952 1602.29 L609.952 1599.09 Z" fill="#000000" fill-rule="nonzero" fill-opacity="1" /><path clip-path="url(#clip820)" d="M641.925 1576.71 Q638.991 1576.71 637.505 1579.61 Q636.038 1582.49 636.038 1588.28 Q636.038 1594.05 637.505 1596.95 Q638.991 1599.83 641.925 1599.83 Q644.878 1599.83 646.345 1596.95 Q647.831 1594.05 647.831 1588.28 Q647.831 1582.49 646.345 1579.61 Q644.878 1576.71 641.925 1576.71 M641.925 1573.7 Q646.646 1573.7 649.129 1577.45 Q651.63 1581.17 651.63 1588.28 Q651.63 1595.37 649.129 1599.11 Q646.646 1602.84 641.925 1602.84 Q637.204 1602.84 634.703 1599.11 Q632.22 1595.37 632.22 1588.28 Q632.22 1581.17 634.703 1577.45 Q637.204 1573.7 641.925 1573.7 Z" fill="#000000" fill-rule="nonzero" fill-opacity="1" /><path clip-path="url(#clip820)" d="M664.908 1576.99 Q663.968 1575.38 662.068 1575.38 Q660.169 1575.38 659.228 1576.99 Q658.269 1578.61 658.269 1581.85 Q658.269 1585.1 659.228 1586.72 Q660.169 1588.34 662.068 1588.34 Q663.968 1588.34 664.908 1586.72 Q665.867 1585.1 665.867 1581.85 Q665.867 1578.61 664.908 1576.99 M662.068 1573.7 Q665.096 1573.7 666.695 1575.79 Q668.294 1577.88 668.294 1581.85 Q668.294 1585.83 666.695 1587.92 Q665.096 1590.01 662.068 1590.01 Q659.021 1590.01 657.423 1587.92 Q655.824 1585.83 655.824 1581.85 Q655.824 1577.88 657.423 1575.79 Q659.021 1573.7 662.068 1573.7 Z" fill="#000000" fill-rule="nonzero" fill-opacity="1" /><path clip-path="url(#clip820)" d="M293.034 701.05 L300.673 701.05 L300.673 674.684 L292.363 676.351 L292.363 672.092 L300.626 670.425 L305.302 670.425 L305.302 701.05 L312.941 701.05 L312.941 704.985 L293.034 704.985 L293.034 701.05 Z" fill="#000000" fill-rule="nonzero" fill-opacity="1" /><path clip-path="url(#clip820)" d="M332.385 673.504 Q328.774 673.504 326.946 677.068 Q325.14 680.61 325.14 687.74 Q325.14 694.846 326.946 698.411 Q328.774 701.952 332.385 701.952 Q336.02 701.952 337.825 698.411 Q339.654 694.846 339.654 687.74 Q339.654 680.61 337.825 677.068 Q336.02 673.504 332.385 673.504 M332.385 669.8 Q338.196 669.8 341.251 674.406 Q344.33 678.99 344.33 687.74 Q344.33 696.466 341.251 701.073 Q338.196 705.656 332.385 705.656 Q326.575 705.656 323.497 701.073 Q320.441 696.466 320.441 687.74 Q320.441 678.99 323.497 674.406 Q326.575 669.8 332.385 669.8 Z" fill="#000000" fill-rule="nonzero" fill-opacity="1" /><path clip-path="url(#clip820)" d="M344.875 674.377 L351.082 674.377 L351.082 652.955 L344.33 654.309 L344.33 650.849 L351.044 649.494 L354.843 649.494 L354.843 674.377 L361.05 674.377 L361.05 677.574 L344.875 677.574 L344.875 674.377 Z" fill="#000000" fill-rule="nonzero" fill-opacity="1" /><path clip-path="url(#clip820)" d="M368.724 672.797 L372.692 672.797 L372.692 677.574 L368.724 677.574 L368.724 672.797 Z" fill="#000000" fill-rule="nonzero" fill-opacity="1" /><path clip-path="url(#clip820)" d="M389.092 664.24 Q386.384 664.24 384.823 665.688 Q383.281 667.136 383.281 669.675 Q383.281 672.214 384.823 673.662 Q386.384 675.111 389.092 675.111 Q391.801 675.111 393.362 673.662 Q394.923 672.195 394.923 669.675 Q394.923 667.136 393.362 665.688 Q391.819 664.24 389.092 664.24 M385.293 662.622 Q382.848 662.02 381.475 660.347 Q380.121 658.673 380.121 656.265 Q380.121 652.899 382.51 650.943 Q384.917 648.987 389.092 648.987 Q393.286 648.987 395.675 650.943 Q398.064 652.899 398.064 656.265 Q398.064 658.673 396.691 660.347 Q395.337 662.02 392.91 662.622 Q395.656 663.262 397.18 665.124 Q398.722 666.986 398.722 669.675 Q398.722 673.756 396.22 675.938 Q393.738 678.12 389.092 678.12 Q384.447 678.12 381.945 675.938 Q379.463 673.756 379.463 669.675 Q379.463 666.986 381.005 665.124 Q382.547 663.262 385.293 662.622 M383.901 656.623 Q383.901 658.804 385.256 660.027 Q386.629 661.249 389.092 661.249 Q391.537 661.249 392.91 660.027 Q394.302 658.804 394.302 656.623 Q394.302 654.441 392.91 653.218 Q391.537 651.996 389.092 651.996 Q386.629 651.996 385.256 653.218 Q383.901 654.441 383.901 656.623 Z" fill="#000000" fill-rule="nonzero" fill-opacity="1" /><path clip-path="url(#clip820)" d="M414.069 662.02 Q411.511 662.02 410.007 663.77 Q408.521 665.519 408.521 668.566 Q408.521 671.594 410.007 673.362 Q411.511 675.111 414.069 675.111 Q416.627 675.111 418.113 673.362 Q419.617 671.594 419.617 668.566 Q419.617 665.519 418.113 663.77 Q416.627 662.02 414.069 662.02 M421.611 650.115 L421.611 653.576 Q420.182 652.899 418.715 652.541 Q417.266 652.184 415.837 652.184 Q412.075 652.184 410.082 654.723 Q408.107 657.262 407.825 662.397 Q408.935 660.76 410.608 659.895 Q412.282 659.011 414.295 659.011 Q418.526 659.011 420.971 661.588 Q423.435 664.146 423.435 668.566 Q423.435 672.891 420.877 675.506 Q418.32 678.12 414.069 678.12 Q409.198 678.12 406.621 674.396 Q404.045 670.653 404.045 663.563 Q404.045 656.905 407.204 652.955 Q410.364 648.987 415.687 648.987 Q417.116 648.987 418.564 649.269 Q420.031 649.551 421.611 650.115 Z" fill="#000000" fill-rule="nonzero" fill-opacity="1" /><path clip-path="url(#clip820)" d="M438.105 664.24 Q435.397 664.24 433.836 665.688 Q432.294 667.136 432.294 669.675 Q432.294 672.214 433.836 673.662 Q435.397 675.111 438.105 675.111 Q440.814 675.111 442.375 673.662 Q443.936 672.195 443.936 669.675 Q443.936 667.136 442.375 665.688 Q440.832 664.24 438.105 664.24 M434.306 662.622 Q431.861 662.02 430.488 660.347 Q429.134 658.673 429.134 656.265 Q429.134 652.899 431.523 650.943 Q433.93 648.987 438.105 648.987 Q442.3 648.987 444.688 650.943 Q447.077 652.899 447.077 656.265 Q447.077 658.673 445.704 660.347 Q444.35 662.02 441.923 662.622 Q444.669 663.262 446.193 665.124 Q447.735 666.986 447.735 669.675 Q447.735 673.756 445.234 675.938 Q442.751 678.12 438.105 678.12 Q433.46 678.12 430.958 675.938 Q428.476 673.756 428.476 669.675 Q428.476 666.986 430.018 665.124 Q431.56 663.262 434.306 662.622 M432.914 656.623 Q432.914 658.804 434.269 660.027 Q435.642 661.249 438.105 661.249 Q440.55 661.249 441.923 660.027 Q443.315 658.804 443.315 656.623 Q443.315 654.441 441.923 653.218 Q440.55 651.996 438.105 651.996 Q435.642 651.996 434.269 653.218 Q432.914 654.441 432.914 656.623 Z" fill="#000000" fill-rule="nonzero" fill-opacity="1" /><path clip-path="url(#clip820)" d="M453.528 649.494 L471.583 649.494 L471.583 651.112 L461.389 677.574 L457.421 677.574 L467.013 652.692 L453.528 652.692 L453.528 649.494 Z" fill="#000000" fill-rule="nonzero" fill-opacity="1" /><path clip-path="url(#clip820)" d="M482.266 674.377 L495.525 674.377 L495.525 677.574 L477.696 677.574 L477.696 674.377 Q479.859 672.139 483.583 668.377 Q487.325 664.597 488.285 663.506 Q490.109 661.456 490.824 660.046 Q491.557 658.616 491.557 657.243 Q491.557 655.005 489.977 653.595 Q488.416 652.184 485.896 652.184 Q484.109 652.184 482.116 652.805 Q480.141 653.425 477.884 654.685 L477.884 650.849 Q480.178 649.927 482.172 649.457 Q484.166 648.987 485.821 648.987 Q490.184 648.987 492.78 651.168 Q495.375 653.35 495.375 656.999 Q495.375 658.729 494.717 660.29 Q494.077 661.832 492.366 663.939 Q491.896 664.484 489.375 667.099 Q486.855 669.694 482.266 674.377 Z" fill="#000000" fill-rule="nonzero" fill-opacity="1" /><path clip-path="url(#clip820)" d="M506.773 674.377 L520.032 674.377 L520.032 677.574 L502.202 677.574 L502.202 674.377 Q504.365 672.139 508.089 668.377 Q511.832 664.597 512.791 663.506 Q514.615 661.456 515.33 660.046 Q516.064 658.616 516.064 657.243 Q516.064 655.005 514.484 653.595 Q512.923 652.184 510.402 652.184 Q508.616 652.184 506.622 652.805 Q504.647 653.425 502.39 654.685 L502.39 650.849 Q504.685 649.927 506.679 649.457 Q508.672 648.987 510.327 648.987 Q514.691 648.987 517.286 651.168 Q519.882 653.35 519.882 656.999 Q519.882 658.729 519.223 660.29 Q518.584 661.832 516.872 663.939 Q516.402 664.484 513.882 667.099 Q511.362 669.694 506.773 674.377 Z" fill="#000000" fill-rule="nonzero" fill-opacity="1" /><path clip-path="url(#clip820)" d="M538.445 652.805 L528.853 667.794 L538.445 667.794 L538.445 652.805 M537.448 649.494 L542.225 649.494 L542.225 667.794 L546.231 667.794 L546.231 670.954 L542.225 670.954 L542.225 677.574 L538.445 677.574 L538.445 670.954 L525.768 670.954 L525.768 667.287 L537.448 649.494 Z" fill="#000000" fill-rule="nonzero" fill-opacity="1" /><path clip-path="url(#clip820)" d="M552.626 676.991 L552.626 673.531 Q554.055 674.208 555.522 674.565 Q556.989 674.923 558.4 674.923 Q562.161 674.923 564.136 672.402 Q566.13 669.863 566.412 664.71 Q565.321 666.327 563.647 667.193 Q561.973 668.058 559.942 668.058 Q555.729 668.058 553.265 665.519 Q550.82 662.961 550.82 658.541 Q550.82 654.215 553.378 651.601 Q555.936 648.987 560.187 648.987 Q565.058 648.987 567.616 652.729 Q570.192 656.453 570.192 663.563 Q570.192 670.202 567.033 674.17 Q563.892 678.12 558.569 678.12 Q557.14 678.12 555.673 677.838 Q554.206 677.556 552.626 676.991 M560.187 665.086 Q562.744 665.086 564.23 663.337 Q565.735 661.588 565.735 658.541 Q565.735 655.513 564.23 653.764 Q562.744 651.996 560.187 651.996 Q557.629 651.996 556.124 653.764 Q554.638 655.513 554.638 658.541 Q554.638 661.588 556.124 663.337 Q557.629 665.086 560.187 665.086 Z" fill="#000000" fill-rule="nonzero" fill-opacity="1" /><path clip-path="url(#clip820)" d="M599.909 656.886 L591.313 665.519 L599.909 674.114 L597.67 676.39 L589.038 667.757 L580.405 676.39 L578.186 674.114 L586.762 665.519 L578.186 656.886 L580.405 654.61 L589.038 663.243 L597.67 654.61 L599.909 656.886 Z" fill="#000000" fill-rule="nonzero" fill-opacity="1" /><path clip-path="url(#clip820)" d="M609.952 674.377 L616.159 674.377 L616.159 652.955 L609.407 654.309 L609.407 650.849 L616.121 649.494 L619.92 649.494 L619.92 674.377 L626.127 674.377 L626.127 677.574 L609.952 677.574 L609.952 674.377 Z" fill="#000000" fill-rule="nonzero" fill-opacity="1" /><path clip-path="url(#clip820)" d="M641.925 651.996 Q638.991 651.996 637.505 654.892 Q636.038 657.77 636.038 663.563 Q636.038 669.337 637.505 672.233 Q638.991 675.111 641.925 675.111 Q644.878 675.111 646.345 672.233 Q647.831 669.337 647.831 663.563 Q647.831 657.77 646.345 654.892 Q644.878 651.996 641.925 651.996 M641.925 648.987 Q646.646 648.987 649.129 652.729 Q651.63 656.453 651.63 663.563 Q651.63 670.653 649.129 674.396 Q646.646 678.12 641.925 678.12 Q637.204 678.12 634.703 674.396 Q632.22 670.653 632.22 663.563 Q632.22 656.453 634.703 652.729 Q637.204 648.987 641.925 648.987 Z" fill="#000000" fill-rule="nonzero" fill-opacity="1" /><path clip-path="url(#clip820)" d="M664.908 652.278 Q663.968 650.661 662.068 650.661 Q660.169 650.661 659.228 652.278 Q658.269 653.895 658.269 657.13 Q658.269 660.384 659.228 662.002 Q660.169 663.619 662.068 663.619 Q663.968 663.619 664.908 662.002 Q665.867 660.384 665.867 657.13 Q665.867 653.895 664.908 652.278 M662.068 648.987 Q665.096 648.987 666.695 651.074 Q668.294 653.162 668.294 657.13 Q668.294 661.118 666.695 663.205 Q665.096 665.293 662.068 665.293 Q659.021 665.293 657.423 663.205 Q655.824 661.118 655.824 657.13 Q655.824 653.162 657.423 651.074 Q659.021 648.987 662.068 648.987 Z" fill="#000000" fill-rule="nonzero" fill-opacity="1" /><path clip-path="url(#clip820)" d="M185.587 1082.01 L185.587 1054.7 L190.997 1054.7 L190.997 1075.58 L205.002 1075.58 L205.002 1056.74 L210.413 1056.74 L210.413 1075.58 L233.107 1075.58 L233.107 1082.01 L185.587 1082.01 Z" fill="#000000" fill-rule="nonzero" fill-opacity="1" /><path clip-path="url(#clip820)" d="M197.459 1049.51 L197.459 1043.66 L233.107 1043.66 L233.107 1049.51 L197.459 1049.51 M183.581 1049.51 L183.581 1043.66 L190.997 1043.66 L190.997 1049.51 L183.581 1049.51 Z" fill="#000000" fill-rule="nonzero" fill-opacity="1" /><path clip-path="url(#clip820)" d="M211.59 1001.77 L233.107 1001.77 L233.107 1007.63 L211.781 1007.63 Q206.721 1007.63 204.206 1009.6 Q201.692 1011.57 201.692 1015.52 Q201.692 1020.26 204.715 1023 Q207.739 1025.74 212.959 1025.74 L233.107 1025.74 L233.107 1031.63 L197.459 1031.63 L197.459 1025.74 L202.997 1025.74 Q199.782 1023.64 198.191 1020.81 Q196.599 1017.94 196.599 1014.22 Q196.599 1008.07 200.419 1004.92 Q204.206 1001.77 211.59 1001.77 Z" fill="#000000" fill-rule="nonzero" fill-opacity="1" /><path clip-path="url(#clip820)" d="M215.187 973.89 Q215.187 980.988 216.81 983.725 Q218.434 986.462 222.348 986.462 Q225.468 986.462 227.314 984.425 Q229.128 982.356 229.128 978.823 Q229.128 973.953 225.69 971.025 Q222.221 968.065 216.492 968.065 L215.187 968.065 L215.187 973.89 M212.768 962.209 L233.107 962.209 L233.107 968.065 L227.696 968.065 Q230.942 970.07 232.502 973.062 Q234.03 976.054 234.03 980.383 Q234.03 985.857 230.974 989.104 Q227.887 992.319 222.73 992.319 Q216.715 992.319 213.659 988.308 Q210.604 984.266 210.604 976.277 L210.604 968.065 L210.031 968.065 Q205.989 968.065 203.792 970.739 Q201.564 973.381 201.564 978.187 Q201.564 981.242 202.296 984.139 Q203.029 987.035 204.493 989.709 L199.082 989.709 Q197.841 986.494 197.236 983.47 Q196.599 980.447 196.599 977.582 Q196.599 969.848 200.61 966.028 Q204.62 962.209 212.768 962.209 Z" fill="#000000" fill-rule="nonzero" fill-opacity="1" /><path clip-path="url(#clip820)" d="M183.581 950.146 L183.581 944.289 L233.107 944.289 L233.107 950.146 L183.581 950.146 Z" fill="#000000" fill-rule="nonzero" fill-opacity="1" /><path clip-path="url(#clip820)" d="M211.59 881.683 L233.107 881.683 L233.107 887.539 L211.781 887.539 Q206.721 887.539 204.206 889.512 Q201.692 891.486 201.692 895.432 Q201.692 900.175 204.715 902.912 Q207.739 905.649 212.959 905.649 L233.107 905.649 L233.107 911.538 L197.459 911.538 L197.459 905.649 L202.997 905.649 Q199.782 903.549 198.191 900.716 Q196.599 897.851 196.599 894.128 Q196.599 887.985 200.419 884.834 Q204.206 881.683 211.59 881.683 Z" fill="#000000" fill-rule="nonzero" fill-opacity="1" /><path clip-path="url(#clip820)" d="M183.581 870.001 L183.581 864.145 L233.107 864.145 L233.107 870.001 L183.581 870.001 Z" fill="#000000" fill-rule="nonzero" fill-opacity="1" /><path clip-path="url(#clip820)" d="M183.581 851.891 L183.581 846.035 L233.107 846.035 L233.107 851.891 L183.581 851.891 Z" fill="#000000" fill-rule="nonzero" fill-opacity="1" /><path clip-path="url(#clip820)" d="M211.59 804.148 L233.107 804.148 L233.107 810.005 L211.781 810.005 Q206.721 810.005 204.206 811.978 Q201.692 813.951 201.692 817.898 Q201.692 822.641 204.715 825.378 Q207.739 828.115 212.959 828.115 L233.107 828.115 L233.107 834.003 L183.581 834.003 L183.581 828.115 L202.997 828.115 Q199.782 826.014 198.191 823.182 Q196.599 820.317 196.599 816.593 Q196.599 810.45 200.419 807.299 Q204.206 804.148 211.59 804.148 Z" fill="#000000" fill-rule="nonzero" fill-opacity="1" /><path clip-path="url(#clip820)" d="M197.459 775.948 L197.459 769.742 L227.377 758.602 L197.459 747.462 L197.459 741.255 L233.107 754.623 L233.107 762.58 L197.459 775.948 Z" fill="#000000" fill-rule="nonzero" fill-opacity="1" /><path clip-path="url(#clip820)" d="M215.187 716.97 Q215.187 724.068 216.81 726.805 Q218.434 729.542 222.348 729.542 Q225.468 729.542 227.314 727.505 Q229.128 725.436 229.128 721.903 Q229.128 717.034 225.69 714.105 Q222.221 711.145 216.492 711.145 L215.187 711.145 L215.187 716.97 M212.768 705.289 L233.107 705.289 L233.107 711.145 L227.696 711.145 Q230.942 713.15 232.502 716.142 Q234.03 719.134 234.03 723.463 Q234.03 728.937 230.974 732.184 Q227.887 735.399 222.73 735.399 Q216.715 735.399 213.659 731.388 Q210.604 727.346 210.604 719.357 L210.604 711.145 L210.031 711.145 Q205.989 711.145 203.792 713.819 Q201.564 716.461 201.564 721.267 Q201.564 724.322 202.296 727.219 Q203.029 730.115 204.493 732.789 L199.082 732.789 Q197.841 729.574 197.236 726.55 Q196.599 723.527 196.599 720.662 Q196.599 712.928 200.61 709.108 Q204.62 705.289 212.768 705.289 Z" fill="#000000" fill-rule="nonzero" fill-opacity="1" /><path clip-path="url(#clip820)" d="M183.581 693.226 L183.581 687.369 L233.107 687.369 L233.107 693.226 L183.581 693.226 Z" fill="#000000" fill-rule="nonzero" fill-opacity="1" /><path clip-path="url(#clip820)" d="M219.038 675.72 L197.459 675.72 L197.459 669.864 L218.816 669.864 Q223.876 669.864 226.423 667.89 Q228.937 665.917 228.937 661.97 Q228.937 657.228 225.913 654.49 Q222.89 651.721 217.67 651.721 L197.459 651.721 L197.459 645.865 L233.107 645.865 L233.107 651.721 L227.632 651.721 Q230.879 653.854 232.47 656.687 Q234.03 659.488 234.03 663.212 Q234.03 669.354 230.21 672.537 Q226.391 675.72 219.038 675.72 M196.599 660.984 L196.599 660.984 Z" fill="#000000" fill-rule="nonzero" fill-opacity="1" /><path clip-path="url(#clip820)" d="M213.818 603.31 L216.683 603.31 L216.683 630.237 Q222.73 629.855 225.913 626.609 Q229.064 623.33 229.064 617.506 Q229.064 614.132 228.237 610.981 Q227.409 607.798 225.754 604.679 L231.292 604.679 Q232.629 607.83 233.329 611.14 Q234.03 614.45 234.03 617.856 Q234.03 626.386 229.064 631.383 Q224.099 636.348 215.633 636.348 Q206.88 636.348 201.755 631.638 Q196.599 626.895 196.599 618.874 Q196.599 611.681 201.246 607.512 Q205.861 603.31 213.818 603.31 M212.1 609.167 Q207.294 609.23 204.429 611.872 Q201.564 614.482 201.564 618.811 Q201.564 623.712 204.334 626.672 Q207.103 629.601 212.132 630.046 L212.1 609.167 Z" fill="#000000" fill-rule="nonzero" fill-opacity="1" /><circle clip-path="url(#clip822)" cx="776.675" cy="1593.05" r="28.8" fill="#cc79a7" fill-rule="evenodd" fill-opacity="1" stroke="#000000" stroke-opacity="1" stroke-width="4"/>
<circle clip-path="url(#clip822)" cx="819.791" cy="1593.05" r="28.8" fill="#cc79a7" fill-rule="evenodd" fill-opacity="1" stroke="#000000" stroke-opacity="1" stroke-width="4"/>
<circle clip-path="url(#clip822)" cx="862.907" cy="1593.02" r="28.8" fill="#cc79a7" fill-rule="evenodd" fill-opacity="1" stroke="#000000" stroke-opacity="1" stroke-width="4"/>
<circle clip-path="url(#clip822)" cx="906.024" cy="1593.02" r="28.8" fill="#cc79a7" fill-rule="evenodd" fill-opacity="1" stroke="#000000" stroke-opacity="1" stroke-width="4"/>
<circle clip-path="url(#clip822)" cx="949.14" cy="1593.02" r="28.8" fill="#cc79a7" fill-rule="evenodd" fill-opacity="1" stroke="#000000" stroke-opacity="1" stroke-width="4"/>
<circle clip-path="url(#clip822)" cx="992.256" cy="1593" r="28.8" fill="#cc79a7" fill-rule="evenodd" fill-opacity="1" stroke="#000000" stroke-opacity="1" stroke-width="4"/>
<circle clip-path="url(#clip822)" cx="1035.37" cy="1593" r="28.8" fill="#cc79a7" fill-rule="evenodd" fill-opacity="1" stroke="#000000" stroke-opacity="1" stroke-width="4"/>
<circle clip-path="url(#clip822)" cx="1078.49" cy="1592.99" r="28.8" fill="#cc79a7" fill-rule="evenodd" fill-opacity="1" stroke="#000000" stroke-opacity="1" stroke-width="4"/>
<circle clip-path="url(#clip822)" cx="1121.61" cy="1592.99" r="28.8" fill="#cc79a7" fill-rule="evenodd" fill-opacity="1" stroke="#000000" stroke-opacity="1" stroke-width="4"/>
<circle clip-path="url(#clip822)" cx="1164.72" cy="1592.99" r="28.8" fill="#cc79a7" fill-rule="evenodd" fill-opacity="1" stroke="#000000" stroke-opacity="1" stroke-width="4"/>
<circle clip-path="url(#clip822)" cx="1207.84" cy="1592.99" r="28.8" fill="#cc79a7" fill-rule="evenodd" fill-opacity="1" stroke="#000000" stroke-opacity="1" stroke-width="4"/>
<circle clip-path="url(#clip822)" cx="1250.95" cy="1592.99" r="28.8" fill="#cc79a7" fill-rule="evenodd" fill-opacity="1" stroke="#000000" stroke-opacity="1" stroke-width="4"/>
<circle clip-path="url(#clip822)" cx="1294.07" cy="1592.99" r="28.8" fill="#cc79a7" fill-rule="evenodd" fill-opacity="1" stroke="#000000" stroke-opacity="1" stroke-width="4"/>
<circle clip-path="url(#clip822)" cx="1337.19" cy="1592.97" r="28.8" fill="#cc79a7" fill-rule="evenodd" fill-opacity="1" stroke="#000000" stroke-opacity="1" stroke-width="4"/>
<circle clip-path="url(#clip822)" cx="1380.3" cy="1592.96" r="28.8" fill="#cc79a7" fill-rule="evenodd" fill-opacity="1" stroke="#000000" stroke-opacity="1" stroke-width="4"/>
<circle clip-path="url(#clip822)" cx="1423.42" cy="1592.93" r="28.8" fill="#cc79a7" fill-rule="evenodd" fill-opacity="1" stroke="#000000" stroke-opacity="1" stroke-width="4"/>
<circle clip-path="url(#clip822)" cx="1466.54" cy="1592.93" r="28.8" fill="#cc79a7" fill-rule="evenodd" fill-opacity="1" stroke="#000000" stroke-opacity="1" stroke-width="4"/>
<circle clip-path="url(#clip822)" cx="1509.65" cy="1592.93" r="28.8" fill="#cc79a7" fill-rule="evenodd" fill-opacity="1" stroke="#000000" stroke-opacity="1" stroke-width="4"/>
<circle clip-path="url(#clip822)" cx="1552.77" cy="1592.93" r="28.8" fill="#cc79a7" fill-rule="evenodd" fill-opacity="1" stroke="#000000" stroke-opacity="1" stroke-width="4"/>
<circle clip-path="url(#clip822)" cx="1595.88" cy="1592.93" r="28.8" fill="#cc79a7" fill-rule="evenodd" fill-opacity="1" stroke="#000000" stroke-opacity="1" stroke-width="4"/>
<circle clip-path="url(#clip822)" cx="1639" cy="1592.91" r="28.8" fill="#cc79a7" fill-rule="evenodd" fill-opacity="1" stroke="#000000" stroke-opacity="1" stroke-width="4"/>
<circle clip-path="url(#clip822)" cx="1682.12" cy="1592.91" r="28.8" fill="#cc79a7" fill-rule="evenodd" fill-opacity="1" stroke="#000000" stroke-opacity="1" stroke-width="4"/>
<circle clip-path="url(#clip822)" cx="1725.23" cy="1592.91" r="28.8" fill="#cc79a7" fill-rule="evenodd" fill-opacity="1" stroke="#000000" stroke-opacity="1" stroke-width="4"/>
<circle clip-path="url(#clip822)" cx="1768.35" cy="1592.91" r="28.8" fill="#cc79a7" fill-rule="evenodd" fill-opacity="1" stroke="#000000" stroke-opacity="1" stroke-width="4"/>
<circle clip-path="url(#clip822)" cx="1811.47" cy="1592.89" r="28.8" fill="#cc79a7" fill-rule="evenodd" fill-opacity="1" stroke="#000000" stroke-opacity="1" stroke-width="4"/>
<circle clip-path="url(#clip822)" cx="1854.58" cy="1592.89" r="28.8" fill="#cc79a7" fill-rule="evenodd" fill-opacity="1" stroke="#000000" stroke-opacity="1" stroke-width="4"/>
<circle clip-path="url(#clip822)" cx="1897.7" cy="1592.88" r="28.8" fill="#cc79a7" fill-rule="evenodd" fill-opacity="1" stroke="#000000" stroke-opacity="1" stroke-width="4"/>
<circle clip-path="url(#clip822)" cx="1940.82" cy="1592.86" r="28.8" fill="#cc79a7" fill-rule="evenodd" fill-opacity="1" stroke="#000000" stroke-opacity="1" stroke-width="4"/>
<circle clip-path="url(#clip822)" cx="1983.93" cy="1592.86" r="28.8" fill="#cc79a7" fill-rule="evenodd" fill-opacity="1" stroke="#000000" stroke-opacity="1" stroke-width="4"/>
<circle clip-path="url(#clip822)" cx="2027.05" cy="1592.83" r="28.8" fill="#cc79a7" fill-rule="evenodd" fill-opacity="1" stroke="#000000" stroke-opacity="1" stroke-width="4"/>
<circle clip-path="url(#clip822)" cx="2070.16" cy="1592.83" r="28.8" fill="#cc79a7" fill-rule="evenodd" fill-opacity="1" stroke="#000000" stroke-opacity="1" stroke-width="4"/>
<circle clip-path="url(#clip822)" cx="2113.28" cy="1592.8" r="28.8" fill="#cc79a7" fill-rule="evenodd" fill-opacity="1" stroke="#000000" stroke-opacity="1" stroke-width="4"/>
<circle clip-path="url(#clip822)" cx="2156.4" cy="1592.8" r="28.8" fill="#cc79a7" fill-rule="evenodd" fill-opacity="1" stroke="#000000" stroke-opacity="1" stroke-width="4"/>
<circle clip-path="url(#clip822)" cx="2199.51" cy="1592.77" r="28.8" fill="#cc79a7" fill-rule="evenodd" fill-opacity="1" stroke="#000000" stroke-opacity="1" stroke-width="4"/>
<circle clip-path="url(#clip822)" cx="2242.63" cy="1592.71" r="28.8" fill="#cc79a7" fill-rule="evenodd" fill-opacity="1" stroke="#000000" stroke-opacity="1" stroke-width="4"/>
<circle clip-path="url(#clip822)" cx="2285.75" cy="1592.35" r="28.8" fill="#cc79a7" fill-rule="evenodd" fill-opacity="1" stroke="#000000" stroke-opacity="1" stroke-width="4"/>
<circle clip-path="url(#clip822)" cx="2328.86" cy="1591.33" r="28.8" fill="#cc79a7" fill-rule="evenodd" fill-opacity="1" stroke="#000000" stroke-opacity="1" stroke-width="4"/>
<circle clip-path="url(#clip822)" cx="2371.98" cy="1585.73" r="28.8" fill="#cc79a7" fill-rule="evenodd" fill-opacity="1" stroke="#000000" stroke-opacity="1" stroke-width="4"/>
<circle clip-path="url(#clip822)" cx="2415.1" cy="1580.91" r="28.8" fill="#cc79a7" fill-rule="evenodd" fill-opacity="1" stroke="#000000" stroke-opacity="1" stroke-width="4"/>
<circle clip-path="url(#clip822)" cx="2458.21" cy="1567.48" r="28.8" fill="#cc79a7" fill-rule="evenodd" fill-opacity="1" stroke="#000000" stroke-opacity="1" stroke-width="4"/>
<circle clip-path="url(#clip822)" cx="2501.33" cy="1286.49" r="28.8" fill="#cc79a7" fill-rule="evenodd" fill-opacity="1" stroke="#000000" stroke-opacity="1" stroke-width="4"/>
<circle clip-path="url(#clip822)" cx="2544.44" cy="1150.69" r="28.8" fill="#cc79a7" fill-rule="evenodd" fill-opacity="1" stroke="#000000" stroke-opacity="1" stroke-width="4"/>
<circle clip-path="url(#clip822)" cx="2587.56" cy="1048.24" r="28.8" fill="#cc79a7" fill-rule="evenodd" fill-opacity="1" stroke="#000000" stroke-opacity="1" stroke-width="4"/>
<circle clip-path="url(#clip822)" cx="2630.68" cy="1023.09" r="28.8" fill="#cc79a7" fill-rule="evenodd" fill-opacity="1" stroke="#000000" stroke-opacity="1" stroke-width="4"/>
<circle clip-path="url(#clip822)" cx="2673.79" cy="1019.95" r="28.8" fill="#cc79a7" fill-rule="evenodd" fill-opacity="1" stroke="#000000" stroke-opacity="1" stroke-width="4"/>
<circle clip-path="url(#clip822)" cx="2716.91" cy="987.661" r="28.8" fill="#cc79a7" fill-rule="evenodd" fill-opacity="1" stroke="#000000" stroke-opacity="1" stroke-width="4"/>
<circle clip-path="url(#clip822)" cx="2760.03" cy="972.157" r="28.8" fill="#cc79a7" fill-rule="evenodd" fill-opacity="1" stroke="#000000" stroke-opacity="1" stroke-width="4"/>
<circle clip-path="url(#clip822)" cx="2803.14" cy="837.732" r="28.8" fill="#cc79a7" fill-rule="evenodd" fill-opacity="1" stroke="#000000" stroke-opacity="1" stroke-width="4"/>
<circle clip-path="url(#clip822)" cx="2846.26" cy="820.56" r="28.8" fill="#cc79a7" fill-rule="evenodd" fill-opacity="1" stroke="#000000" stroke-opacity="1" stroke-width="4"/>
<circle clip-path="url(#clip822)" cx="2889.37" cy="92.2556" r="28.8" fill="#cc79a7" fill-rule="evenodd" fill-opacity="1" stroke="#000000" stroke-opacity="1" stroke-width="4"/>
</svg>
