<?xml version="1.0" encoding="utf-8"?>
<svg xmlns="http://www.w3.org/2000/svg" xmlns:xlink="http://www.w3.org/1999/xlink" width="750" height="500" viewBox="0 0 3000 2000">
<defs>
  <clipPath id="clip610">
    <rect x="0" y="0" width="3000" height="2000"/>
  </clipPath>
</defs>
<path clip-path="url(#clip610)" d="M0 2000 L3000 2000 L3000 0 L0 0  Z" fill="#ffffff" fill-rule="evenodd" fill-opacity="1"/>
<defs>
  <clipPath id="clip611">
    <rect x="600" y="0" width="2101" height="2000"/>
  </clipPath>
</defs>
<path clip-path="url(#clip610)" d="M419.492 1638.08 L2952.76 1638.08 L2952.76 123.472 L419.492 123.472  Z" fill="#ffffff" fill-rule="evenodd" fill-opacity="1"/>
<defs>
  <clipPath id="clip612">
    <rect x="419" y="123" width="2534" height="1516"/>
  </clipPath>
</defs>
<polyline clip-path="url(#clip612)" style="stroke:#000000; stroke-linecap:round; stroke-linejoin:round; stroke-width:2; stroke-opacity:0.1; fill:none" points="491.188,1638.08 491.188,123.472 "/>
<polyline clip-path="url(#clip612)" style="stroke:#000000; stroke-linecap:round; stroke-linejoin:round; stroke-width:2; stroke-opacity:0.1; fill:none" points="1088.66,1638.08 1088.66,123.472 "/>
<polyline clip-path="url(#clip612)" style="stroke:#000000; stroke-linecap:round; stroke-linejoin:round; stroke-width:2; stroke-opacity:0.1; fill:none" points="1686.12,1638.08 1686.12,123.472 "/>
<polyline clip-path="url(#clip612)" style="stroke:#000000; stroke-linecap:round; stroke-linejoin:round; stroke-width:2; stroke-opacity:0.1; fill:none" points="2283.59,1638.08 2283.59,123.472 "/>
<polyline clip-path="url(#clip612)" style="stroke:#000000; stroke-linecap:round; stroke-linejoin:round; stroke-width:2; stroke-opacity:0.1; fill:none" points="2881.06,1638.08 2881.06,123.472 "/>
<polyline clip-path="url(#clip612)" style="stroke:#000000; stroke-linecap:round; stroke-linejoin:round; stroke-width:2; stroke-opacity:0.1; fill:none" points="419.492,1588.28 2952.76,1588.28 "/>
<polyline clip-path="url(#clip612)" style="stroke:#000000; stroke-linecap:round; stroke-linejoin:round; stroke-width:2; stroke-opacity:0.1; fill:none" points="419.492,1114.23 2952.76,1114.23 "/>
<polyline clip-path="url(#clip612)" style="stroke:#000000; stroke-linecap:round; stroke-linejoin:round; stroke-width:2; stroke-opacity:0.1; fill:none" points="419.492,640.187 2952.76,640.187 "/>
<polyline clip-path="url(#clip612)" style="stroke:#000000; stroke-linecap:round; stroke-linejoin:round; stroke-width:2; stroke-opacity:0.1; fill:none" points="419.492,166.142 2952.76,166.142 "/>
<polyline clip-path="url(#clip610)" style="stroke:#000000; stroke-linecap:round; stroke-linejoin:round; stroke-width:4; stroke-opacity:1; fill:none" points="419.492,1638.08 2952.76,1638.08 "/>
<polyline clip-path="url(#clip610)" style="stroke:#000000; stroke-linecap:round; stroke-linejoin:round; stroke-width:4; stroke-opacity:1; fill:none" points="491.188,1638.08 491.188,1619.18 "/>
<polyline clip-path="url(#clip610)" style="stroke:#000000; stroke-linecap:round; stroke-linejoin:round; stroke-width:4; stroke-opacity:1; fill:none" points="1088.66,1638.08 1088.66,1619.18 "/>
<polyline clip-path="url(#clip610)" style="stroke:#000000; stroke-linecap:round; stroke-linejoin:round; stroke-width:4; stroke-opacity:1; fill:none" points="1686.12,1638.08 1686.12,1619.18 "/>
<polyline clip-path="url(#clip610)" style="stroke:#000000; stroke-linecap:round; stroke-linejoin:round; stroke-width:4; stroke-opacity:1; fill:none" points="2283.59,1638.08 2283.59,1619.18 "/>
<polyline clip-path="url(#clip610)" style="stroke:#000000; stroke-linecap:round; stroke-linejoin:round; stroke-width:4; stroke-opacity:1; fill:none" points="2881.06,1638.08 2881.06,1619.18 "/>
<path clip-path="url(#clip610)" d="M468.572 1673.8 Q464.961 1673.8 463.132 1677.36 Q461.327 1680.9 461.327 1688.03 Q461.327 1695.14 463.132 1698.7 Q464.961 1702.25 468.572 1702.25 Q472.206 1702.25 474.012 1698.7 Q475.841 1695.14 475.841 1688.03 Q475.841 1680.9 474.012 1677.36 Q472.206 1673.8 468.572 1673.8 M468.572 1670.09 Q474.382 1670.09 477.438 1674.7 Q480.517 1679.28 480.517 1688.03 Q480.517 1696.76 477.438 1701.37 Q474.382 1705.95 468.572 1705.95 Q462.762 1705.95 459.683 1701.37 Q456.628 1696.76 456.628 1688.03 Q456.628 1679.28 459.683 1674.7 Q462.762 1670.09 468.572 1670.09 Z" fill="#000000" fill-rule="nonzero" fill-opacity="1" /><path clip-path="url(#clip610)" d="M488.734 1699.4 L493.618 1699.4 L493.618 1705.28 L488.734 1705.28 L488.734 1699.4 Z" fill="#000000" fill-rule="nonzero" fill-opacity="1" /><path clip-path="url(#clip610)" d="M513.803 1673.8 Q510.192 1673.8 508.364 1677.36 Q506.558 1680.9 506.558 1688.03 Q506.558 1695.14 508.364 1698.7 Q510.192 1702.25 513.803 1702.25 Q517.438 1702.25 519.243 1698.7 Q521.072 1695.14 521.072 1688.03 Q521.072 1680.9 519.243 1677.36 Q517.438 1673.8 513.803 1673.8 M513.803 1670.09 Q519.614 1670.09 522.669 1674.7 Q525.748 1679.28 525.748 1688.03 Q525.748 1696.76 522.669 1701.37 Q519.614 1705.95 513.803 1705.95 Q507.993 1705.95 504.915 1701.37 Q501.859 1696.76 501.859 1688.03 Q501.859 1679.28 504.915 1674.7 Q507.993 1670.09 513.803 1670.09 Z" fill="#000000" fill-rule="nonzero" fill-opacity="1" /><path clip-path="url(#clip610)" d="M1060.39 1701.34 L1076.71 1701.34 L1076.71 1705.28 L1054.77 1705.28 L1054.77 1701.34 Q1057.43 1698.59 1062.01 1693.96 Q1066.62 1689.31 1067.8 1687.96 Q1070.04 1685.44 1070.92 1683.7 Q1071.83 1681.94 1071.83 1680.25 Q1071.83 1677.5 1069.88 1675.76 Q1067.96 1674.03 1064.86 1674.03 Q1062.66 1674.03 1060.21 1674.79 Q1057.78 1675.56 1055 1677.11 L1055 1672.38 Q1057.82 1671.25 1060.28 1670.67 Q1062.73 1670.09 1064.77 1670.09 Q1070.14 1670.09 1073.33 1672.78 Q1076.53 1675.46 1076.53 1679.95 Q1076.53 1682.08 1075.72 1684 Q1074.93 1685.9 1072.82 1688.5 Q1072.24 1689.17 1069.14 1692.38 Q1066.04 1695.58 1060.39 1701.34 Z" fill="#000000" fill-rule="nonzero" fill-opacity="1" /><path clip-path="url(#clip610)" d="M1086.53 1699.4 L1091.41 1699.4 L1091.41 1705.28 L1086.53 1705.28 L1086.53 1699.4 Z" fill="#000000" fill-rule="nonzero" fill-opacity="1" /><path clip-path="url(#clip610)" d="M1101.64 1670.72 L1120 1670.72 L1120 1674.65 L1105.92 1674.65 L1105.92 1683.12 Q1106.94 1682.78 1107.96 1682.62 Q1108.98 1682.43 1110 1682.43 Q1115.79 1682.43 1119.16 1685.6 Q1122.54 1688.77 1122.54 1694.19 Q1122.54 1699.77 1119.07 1702.87 Q1115.6 1705.95 1109.28 1705.95 Q1107.1 1705.95 1104.84 1705.58 Q1102.59 1705.21 1100.18 1704.47 L1100.18 1699.77 Q1102.27 1700.9 1104.49 1701.46 Q1106.71 1702.01 1109.19 1702.01 Q1113.19 1702.01 1115.53 1699.91 Q1117.87 1697.8 1117.87 1694.19 Q1117.87 1690.58 1115.53 1688.47 Q1113.19 1686.37 1109.19 1686.37 Q1107.31 1686.37 1105.44 1686.78 Q1103.59 1687.2 1101.64 1688.08 L1101.64 1670.72 Z" fill="#000000" fill-rule="nonzero" fill-opacity="1" /><path clip-path="url(#clip610)" d="M1653.29 1670.72 L1671.64 1670.72 L1671.64 1674.65 L1657.57 1674.65 L1657.57 1683.12 Q1658.59 1682.78 1659.61 1682.62 Q1660.63 1682.43 1661.64 1682.43 Q1667.43 1682.43 1670.81 1685.6 Q1674.19 1688.77 1674.19 1694.19 Q1674.19 1699.77 1670.72 1702.87 Q1667.25 1705.95 1660.93 1705.95 Q1658.75 1705.95 1656.48 1705.58 Q1654.24 1705.21 1651.83 1704.47 L1651.83 1699.77 Q1653.91 1700.9 1656.14 1701.46 Q1658.36 1702.01 1660.83 1702.01 Q1664.84 1702.01 1667.18 1699.91 Q1669.52 1697.8 1669.52 1694.19 Q1669.52 1690.58 1667.18 1688.47 Q1664.84 1686.37 1660.83 1686.37 Q1658.96 1686.37 1657.08 1686.78 Q1655.23 1687.2 1653.29 1688.08 L1653.29 1670.72 Z" fill="#000000" fill-rule="nonzero" fill-opacity="1" /><path clip-path="url(#clip610)" d="M1683.4 1699.4 L1688.29 1699.4 L1688.29 1705.28 L1683.4 1705.28 L1683.4 1699.4 Z" fill="#000000" fill-rule="nonzero" fill-opacity="1" /><path clip-path="url(#clip610)" d="M1708.47 1673.8 Q1704.86 1673.8 1703.03 1677.36 Q1701.23 1680.9 1701.23 1688.03 Q1701.23 1695.14 1703.03 1698.7 Q1704.86 1702.25 1708.47 1702.25 Q1712.11 1702.25 1713.91 1698.7 Q1715.74 1695.14 1715.74 1688.03 Q1715.74 1680.9 1713.91 1677.36 Q1712.11 1673.8 1708.47 1673.8 M1708.47 1670.09 Q1714.28 1670.09 1717.34 1674.7 Q1720.42 1679.28 1720.42 1688.03 Q1720.42 1696.76 1717.34 1701.37 Q1714.28 1705.95 1708.47 1705.95 Q1702.66 1705.95 1699.58 1701.37 Q1696.53 1696.76 1696.53 1688.03 Q1696.53 1679.28 1699.58 1674.7 Q1702.66 1670.09 1708.47 1670.09 Z" fill="#000000" fill-rule="nonzero" fill-opacity="1" /><path clip-path="url(#clip610)" d="M2249.91 1670.72 L2272.13 1670.72 L2272.13 1672.71 L2259.59 1705.28 L2254.7 1705.28 L2266.51 1674.65 L2249.91 1674.65 L2249.91 1670.72 Z" fill="#000000" fill-rule="nonzero" fill-opacity="1" /><path clip-path="url(#clip610)" d="M2281.25 1699.4 L2286.14 1699.4 L2286.14 1705.28 L2281.25 1705.28 L2281.25 1699.4 Z" fill="#000000" fill-rule="nonzero" fill-opacity="1" /><path clip-path="url(#clip610)" d="M2296.37 1670.72 L2314.73 1670.72 L2314.73 1674.65 L2300.65 1674.65 L2300.65 1683.12 Q2301.67 1682.78 2302.69 1682.62 Q2303.71 1682.43 2304.73 1682.43 Q2310.51 1682.43 2313.89 1685.6 Q2317.27 1688.77 2317.27 1694.19 Q2317.27 1699.77 2313.8 1702.87 Q2310.33 1705.95 2304.01 1705.95 Q2301.83 1705.95 2299.56 1705.58 Q2297.32 1705.21 2294.91 1704.47 L2294.91 1699.77 Q2296.99 1700.9 2299.22 1701.46 Q2301.44 1702.01 2303.92 1702.01 Q2307.92 1702.01 2310.26 1699.91 Q2312.6 1697.8 2312.6 1694.19 Q2312.6 1690.58 2310.26 1688.47 Q2307.92 1686.37 2303.92 1686.37 Q2302.04 1686.37 2300.17 1686.78 Q2298.31 1687.2 2296.37 1688.08 L2296.37 1670.72 Z" fill="#000000" fill-rule="nonzero" fill-opacity="1" /><path clip-path="url(#clip610)" d="M2833.13 1701.34 L2840.77 1701.34 L2840.77 1674.98 L2832.46 1676.64 L2832.46 1672.38 L2840.72 1670.72 L2845.4 1670.72 L2845.4 1701.34 L2853.04 1701.34 L2853.04 1705.28 L2833.13 1705.28 L2833.13 1701.34 Z" fill="#000000" fill-rule="nonzero" fill-opacity="1" /><path clip-path="url(#clip610)" d="M2872.48 1673.8 Q2868.87 1673.8 2867.04 1677.36 Q2865.24 1680.9 2865.24 1688.03 Q2865.24 1695.14 2867.04 1698.7 Q2868.87 1702.25 2872.48 1702.25 Q2876.12 1702.25 2877.92 1698.7 Q2879.75 1695.14 2879.75 1688.03 Q2879.75 1680.9 2877.92 1677.36 Q2876.12 1673.8 2872.48 1673.8 M2872.48 1670.09 Q2878.29 1670.09 2881.35 1674.7 Q2884.43 1679.28 2884.43 1688.03 Q2884.43 1696.76 2881.35 1701.37 Q2878.29 1705.95 2872.48 1705.95 Q2866.67 1705.95 2863.59 1701.37 Q2860.54 1696.76 2860.54 1688.03 Q2860.54 1679.28 2863.59 1674.7 Q2866.67 1670.09 2872.48 1670.09 Z" fill="#000000" fill-rule="nonzero" fill-opacity="1" /><path clip-path="url(#clip610)" d="M2892.65 1699.4 L2897.53 1699.4 L2897.53 1705.28 L2892.65 1705.28 L2892.65 1699.4 Z" fill="#000000" fill-rule="nonzero" fill-opacity="1" /><path clip-path="url(#clip610)" d="M2917.71 1673.8 Q2914.1 1673.8 2912.27 1677.36 Q2910.47 1680.9 2910.47 1688.03 Q2910.47 1695.14 2912.27 1698.7 Q2914.1 1702.25 2917.71 1702.25 Q2921.35 1702.25 2923.15 1698.7 Q2924.98 1695.14 2924.98 1688.03 Q2924.98 1680.9 2923.15 1677.36 Q2921.35 1673.8 2917.71 1673.8 M2917.71 1670.09 Q2923.52 1670.09 2926.58 1674.7 Q2929.66 1679.28 2929.66 1688.03 Q2929.66 1696.76 2926.58 1701.37 Q2923.52 1705.95 2917.71 1705.95 Q2911.9 1705.95 2908.83 1701.37 Q2905.77 1696.76 2905.77 1688.03 Q2905.77 1679.28 2908.83 1674.7 Q2911.9 1670.09 2917.71 1670.09 Z" fill="#000000" fill-rule="nonzero" fill-opacity="1" /><path clip-path="url(#clip610)" d="M1608 1744.42 L1648.2 1744.42 L1648.2 1749.83 L1631.33 1749.83 L1631.33 1791.94 L1624.87 1791.94 L1624.87 1749.83 L1608 1749.83 L1608 1744.42 Z" fill="#000000" fill-rule="nonzero" fill-opacity="1" /><path clip-path="url(#clip610)" d="M1652.15 1756.29 L1658 1756.29 L1658 1791.94 L1652.15 1791.94 L1652.15 1756.29 M1652.15 1742.42 L1658 1742.42 L1658 1749.83 L1652.15 1749.83 L1652.15 1742.42 Z" fill="#000000" fill-rule="nonzero" fill-opacity="1" /><path clip-path="url(#clip610)" d="M1698.01 1763.14 Q1700.21 1759.19 1703.26 1757.31 Q1706.32 1755.43 1710.46 1755.43 Q1716.03 1755.43 1719.05 1759.35 Q1722.07 1763.23 1722.07 1770.43 L1722.07 1791.94 L1716.19 1791.94 L1716.19 1770.62 Q1716.19 1765.49 1714.37 1763.01 Q1712.56 1760.53 1708.83 1760.53 Q1704.28 1760.53 1701.64 1763.55 Q1699 1766.57 1699 1771.79 L1699 1791.94 L1693.11 1791.94 L1693.11 1770.62 Q1693.11 1765.46 1691.3 1763.01 Q1689.48 1760.53 1685.69 1760.53 Q1681.21 1760.53 1678.56 1763.58 Q1675.92 1766.61 1675.92 1771.79 L1675.92 1791.94 L1670.03 1791.94 L1670.03 1756.29 L1675.92 1756.29 L1675.92 1761.83 Q1677.93 1758.55 1680.73 1756.99 Q1683.53 1755.43 1687.38 1755.43 Q1691.26 1755.43 1693.97 1757.41 Q1696.71 1759.38 1698.01 1763.14 Z" fill="#000000" fill-rule="nonzero" fill-opacity="1" /><path clip-path="url(#clip610)" d="M1764.25 1772.65 L1764.25 1775.52 L1737.32 1775.52 Q1737.7 1781.57 1740.95 1784.75 Q1744.23 1787.9 1750.05 1787.9 Q1753.43 1787.9 1756.58 1787.07 Q1759.76 1786.24 1762.88 1784.59 L1762.88 1790.13 Q1759.73 1791.46 1756.42 1792.16 Q1753.11 1792.86 1749.7 1792.86 Q1741.17 1792.86 1736.17 1787.9 Q1731.21 1782.93 1731.21 1774.47 Q1731.21 1765.71 1735.92 1760.59 Q1740.66 1755.43 1748.68 1755.43 Q1755.88 1755.43 1760.05 1760.08 Q1764.25 1764.7 1764.25 1772.65 M1758.39 1770.93 Q1758.33 1766.13 1755.69 1763.26 Q1753.08 1760.4 1748.75 1760.4 Q1743.84 1760.4 1740.88 1763.17 Q1737.96 1765.94 1737.51 1770.97 L1758.39 1770.93 Z" fill="#000000" fill-rule="nonzero" fill-opacity="1" /><polyline clip-path="url(#clip610)" style="stroke:#000000; stroke-linecap:round; stroke-linejoin:round; stroke-width:4; stroke-opacity:1; fill:none" points="419.492,1638.08 419.492,123.472 "/>
<polyline clip-path="url(#clip610)" style="stroke:#000000; stroke-linecap:round; stroke-linejoin:round; stroke-width:4; stroke-opacity:1; fill:none" points="419.492,1588.28 438.389,1588.28 "/>
<polyline clip-path="url(#clip610)" style="stroke:#000000; stroke-linecap:round; stroke-linejoin:round; stroke-width:4; stroke-opacity:1; fill:none" points="419.492,1114.23 438.389,1114.23 "/>
<polyline clip-path="url(#clip610)" style="stroke:#000000; stroke-linecap:round; stroke-linejoin:round; stroke-width:4; stroke-opacity:1; fill:none" points="419.492,640.187 438.389,640.187 "/>
<polyline clip-path="url(#clip610)" style="stroke:#000000; stroke-linecap:round; stroke-linejoin:round; stroke-width:4; stroke-opacity:1; fill:none" points="419.492,166.142 438.389,166.142 "/>
<path clip-path="url(#clip610)" d="M362.547 1574.08 Q358.936 1574.08 357.108 1577.64 Q355.302 1581.18 355.302 1588.31 Q355.302 1595.42 357.108 1598.98 Q358.936 1602.52 362.547 1602.52 Q366.182 1602.52 367.987 1598.98 Q369.816 1595.42 369.816 1588.31 Q369.816 1581.18 367.987 1577.64 Q366.182 1574.08 362.547 1574.08 M362.547 1570.37 Q368.357 1570.37 371.413 1574.98 Q374.492 1579.56 374.492 1588.31 Q374.492 1597.04 371.413 1601.64 Q368.357 1606.23 362.547 1606.23 Q356.737 1606.23 353.658 1601.64 Q350.603 1597.04 350.603 1588.31 Q350.603 1579.56 353.658 1574.98 Q356.737 1570.37 362.547 1570.37 Z" fill="#000000" fill-rule="nonzero" fill-opacity="1" /><path clip-path="url(#clip610)" d="M322.432 1096.95 L340.788 1096.95 L340.788 1100.89 L326.714 1100.89 L326.714 1109.36 Q327.733 1109.01 328.751 1108.85 Q329.77 1108.66 330.788 1108.66 Q336.575 1108.66 339.955 1111.84 Q343.334 1115.01 343.334 1120.42 Q343.334 1126 339.862 1129.1 Q336.39 1132.18 330.071 1132.18 Q327.895 1132.18 325.626 1131.81 Q323.381 1131.44 320.973 1130.7 L320.973 1126 Q323.057 1127.14 325.279 1127.69 Q327.501 1128.25 329.978 1128.25 Q333.983 1128.25 336.321 1126.14 Q338.659 1124.03 338.659 1120.42 Q338.659 1116.81 336.321 1114.71 Q333.983 1112.6 329.978 1112.6 Q328.103 1112.6 326.228 1113.02 Q324.376 1113.43 322.432 1114.31 L322.432 1096.95 Z" fill="#000000" fill-rule="nonzero" fill-opacity="1" /><path clip-path="url(#clip610)" d="M362.547 1100.03 Q358.936 1100.03 357.108 1103.6 Q355.302 1107.14 355.302 1114.27 Q355.302 1121.37 357.108 1124.94 Q358.936 1128.48 362.547 1128.48 Q366.182 1128.48 367.987 1124.94 Q369.816 1121.37 369.816 1114.27 Q369.816 1107.14 367.987 1103.6 Q366.182 1100.03 362.547 1100.03 M362.547 1096.33 Q368.357 1096.33 371.413 1100.93 Q374.492 1105.52 374.492 1114.27 Q374.492 1122.99 371.413 1127.6 Q368.357 1132.18 362.547 1132.18 Q356.737 1132.18 353.658 1127.6 Q350.603 1122.99 350.603 1114.27 Q350.603 1105.52 353.658 1100.93 Q356.737 1096.33 362.547 1096.33 Z" fill="#000000" fill-rule="nonzero" fill-opacity="1" /><path clip-path="url(#clip610)" d="M293.034 653.531 L300.673 653.531 L300.673 627.166 L292.363 628.832 L292.363 624.573 L300.626 622.907 L305.302 622.907 L305.302 653.531 L312.941 653.531 L312.941 657.467 L293.034 657.467 L293.034 653.531 Z" fill="#000000" fill-rule="nonzero" fill-opacity="1" /><path clip-path="url(#clip610)" d="M332.385 625.985 Q328.774 625.985 326.946 629.55 Q325.14 633.092 325.14 640.221 Q325.14 647.328 326.946 650.893 Q328.774 654.434 332.385 654.434 Q336.02 654.434 337.825 650.893 Q339.654 647.328 339.654 640.221 Q339.654 633.092 337.825 629.55 Q336.02 625.985 332.385 625.985 M332.385 622.282 Q338.196 622.282 341.251 626.888 Q344.33 631.471 344.33 640.221 Q344.33 648.948 341.251 653.555 Q338.196 658.138 332.385 658.138 Q326.575 658.138 323.497 653.555 Q320.441 648.948 320.441 640.221 Q320.441 631.471 323.497 626.888 Q326.575 622.282 332.385 622.282 Z" fill="#000000" fill-rule="nonzero" fill-opacity="1" /><path clip-path="url(#clip610)" d="M362.547 625.985 Q358.936 625.985 357.108 629.55 Q355.302 633.092 355.302 640.221 Q355.302 647.328 357.108 650.893 Q358.936 654.434 362.547 654.434 Q366.182 654.434 367.987 650.893 Q369.816 647.328 369.816 640.221 Q369.816 633.092 367.987 629.55 Q366.182 625.985 362.547 625.985 M362.547 622.282 Q368.357 622.282 371.413 626.888 Q374.492 631.471 374.492 640.221 Q374.492 648.948 371.413 653.555 Q368.357 658.138 362.547 658.138 Q356.737 658.138 353.658 653.555 Q350.603 648.948 350.603 640.221 Q350.603 631.471 353.658 626.888 Q356.737 622.282 362.547 622.282 Z" fill="#000000" fill-rule="nonzero" fill-opacity="1" /><path clip-path="url(#clip610)" d="M293.034 179.486 L300.673 179.486 L300.673 153.121 L292.363 154.787 L292.363 150.528 L300.626 148.862 L305.302 148.862 L305.302 179.486 L312.941 179.486 L312.941 183.422 L293.034 183.422 L293.034 179.486 Z" fill="#000000" fill-rule="nonzero" fill-opacity="1" /><path clip-path="url(#clip610)" d="M322.432 148.862 L340.788 148.862 L340.788 152.797 L326.714 152.797 L326.714 161.269 Q327.733 160.922 328.751 160.76 Q329.77 160.574 330.788 160.574 Q336.575 160.574 339.955 163.746 Q343.334 166.917 343.334 172.334 Q343.334 177.912 339.862 181.014 Q336.39 184.093 330.071 184.093 Q327.895 184.093 325.626 183.722 Q323.381 183.352 320.973 182.611 L320.973 177.912 Q323.057 179.047 325.279 179.602 Q327.501 180.158 329.978 180.158 Q333.983 180.158 336.321 178.051 Q338.659 175.945 338.659 172.334 Q338.659 168.723 336.321 166.616 Q333.983 164.51 329.978 164.51 Q328.103 164.51 326.228 164.926 Q324.376 165.343 322.432 166.223 L322.432 148.862 Z" fill="#000000" fill-rule="nonzero" fill-opacity="1" /><path clip-path="url(#clip610)" d="M362.547 151.94 Q358.936 151.94 357.108 155.505 Q355.302 159.047 355.302 166.176 Q355.302 173.283 357.108 176.848 Q358.936 180.389 362.547 180.389 Q366.182 180.389 367.987 176.848 Q369.816 173.283 369.816 166.176 Q369.816 159.047 367.987 155.505 Q366.182 151.94 362.547 151.94 M362.547 148.237 Q368.357 148.237 371.413 152.843 Q374.492 157.426 374.492 166.176 Q374.492 174.903 371.413 179.51 Q368.357 184.093 362.547 184.093 Q356.737 184.093 353.658 179.51 Q350.603 174.903 350.603 166.176 Q350.603 157.426 353.658 152.843 Q356.737 148.237 362.547 148.237 Z" fill="#000000" fill-rule="nonzero" fill-opacity="1" /><path clip-path="url(#clip610)" d="M185.587 1323.33 L185.587 1313.75 L217.924 1301.63 L185.587 1289.44 L185.587 1279.86 L233.107 1279.86 L233.107 1286.13 L191.379 1286.13 L223.972 1298.38 L223.972 1304.84 L191.379 1317.1 L233.107 1317.1 L233.107 1323.33 L185.587 1323.33 Z" fill="#000000" fill-rule="nonzero" fill-opacity="1" /><path clip-path="url(#clip610)" d="M201.564 1253.53 Q201.564 1258.25 205.257 1260.98 Q208.917 1263.72 215.314 1263.72 Q221.712 1263.72 225.404 1261.01 Q229.064 1258.28 229.064 1253.53 Q229.064 1248.86 225.372 1246.12 Q221.68 1243.38 215.314 1243.38 Q208.98 1243.38 205.288 1246.12 Q201.564 1248.86 201.564 1253.53 M196.599 1253.53 Q196.599 1245.9 201.564 1241.54 Q206.53 1237.17 215.314 1237.17 Q224.067 1237.17 229.064 1241.54 Q234.03 1245.9 234.03 1253.53 Q234.03 1261.21 229.064 1265.57 Q224.067 1269.89 215.314 1269.89 Q206.53 1269.89 201.564 1265.57 Q196.599 1261.21 196.599 1253.53 Z" fill="#000000" fill-rule="nonzero" fill-opacity="1" /><path clip-path="url(#clip610)" d="M202.869 1204.01 L183.581 1204.01 L183.581 1198.15 L233.107 1198.15 L233.107 1204.01 L227.759 1204.01 Q230.942 1205.86 232.502 1208.69 Q234.03 1211.49 234.03 1215.44 Q234.03 1221.9 228.873 1225.97 Q223.717 1230.01 215.314 1230.01 Q206.912 1230.01 201.755 1225.97 Q196.599 1221.9 196.599 1215.44 Q196.599 1211.49 198.159 1208.69 Q199.687 1205.86 202.869 1204.01 M215.314 1223.97 Q221.776 1223.97 225.468 1221.32 Q229.128 1218.65 229.128 1214 Q229.128 1209.36 225.468 1206.68 Q221.776 1204.01 215.314 1204.01 Q208.853 1204.01 205.193 1206.68 Q201.501 1209.36 201.501 1214 Q201.501 1218.65 205.193 1221.32 Q208.853 1223.97 215.314 1223.97 Z" fill="#000000" fill-rule="nonzero" fill-opacity="1" /><path clip-path="url(#clip610)" d="M213.818 1155.6 L216.683 1155.6 L216.683 1182.53 Q222.73 1182.14 225.913 1178.9 Q229.064 1175.62 229.064 1169.79 Q229.064 1166.42 228.237 1163.27 Q227.409 1160.09 225.754 1156.97 L231.292 1156.97 Q232.629 1160.12 233.329 1163.43 Q234.03 1166.74 234.03 1170.14 Q234.03 1178.67 229.064 1183.67 Q224.099 1188.64 215.633 1188.64 Q206.88 1188.64 201.755 1183.93 Q196.599 1179.18 196.599 1171.16 Q196.599 1163.97 201.246 1159.8 Q205.861 1155.6 213.818 1155.6 M212.1 1161.45 Q207.294 1161.52 204.429 1164.16 Q201.564 1166.77 201.564 1171.1 Q201.564 1176 204.334 1178.96 Q207.103 1181.89 212.132 1182.33 L212.1 1161.45 Z" fill="#000000" fill-rule="nonzero" fill-opacity="1" /><path clip-path="url(#clip610)" d="M183.581 1145.99 L183.581 1140.13 L233.107 1140.13 L233.107 1145.99 L183.581 1145.99 Z" fill="#000000" fill-rule="nonzero" fill-opacity="1" /><path clip-path="url(#clip610)" d="M215.187 1090.95 Q215.187 1098.05 216.81 1100.79 Q218.434 1103.53 222.348 1103.53 Q225.468 1103.53 227.314 1101.49 Q229.128 1099.42 229.128 1095.89 Q229.128 1091.02 225.69 1088.09 Q222.221 1085.13 216.492 1085.13 L215.187 1085.13 L215.187 1090.95 M212.768 1079.27 L233.107 1079.27 L233.107 1085.13 L227.696 1085.13 Q230.942 1087.14 232.502 1090.13 Q234.03 1093.12 234.03 1097.45 Q234.03 1102.92 230.974 1106.17 Q227.887 1109.38 222.73 1109.38 Q216.715 1109.38 213.659 1105.37 Q210.604 1101.33 210.604 1093.34 L210.604 1085.13 L210.031 1085.13 Q205.989 1085.13 203.792 1087.8 Q201.564 1090.45 201.564 1095.25 Q201.564 1098.31 202.296 1101.2 Q203.029 1104.1 204.493 1106.77 L199.082 1106.77 Q197.841 1103.56 197.236 1100.53 Q196.599 1097.51 196.599 1094.65 Q196.599 1086.91 200.61 1083.09 Q204.62 1079.27 212.768 1079.27 Z" fill="#000000" fill-rule="nonzero" fill-opacity="1" /><path clip-path="url(#clip610)" d="M211.59 1037.58 L233.107 1037.58 L233.107 1043.43 L211.781 1043.43 Q206.721 1043.43 204.206 1045.41 Q201.692 1047.38 201.692 1051.33 Q201.692 1056.07 204.715 1058.81 Q207.739 1061.54 212.959 1061.54 L233.107 1061.54 L233.107 1067.43 L197.459 1067.43 L197.459 1061.54 L202.997 1061.54 Q199.782 1059.44 198.191 1056.61 Q196.599 1053.75 196.599 1050.02 Q196.599 1043.88 200.419 1040.73 Q204.206 1037.58 211.59 1037.58 Z" fill="#000000" fill-rule="nonzero" fill-opacity="1" /><path clip-path="url(#clip610)" d="M202.869 1002.44 L183.581 1002.44 L183.581 996.583 L233.107 996.583 L233.107 1002.44 L227.759 1002.44 Q230.942 1004.29 232.502 1007.12 Q234.03 1009.92 234.03 1013.87 Q234.03 1020.33 228.873 1024.4 Q223.717 1028.44 215.314 1028.44 Q206.912 1028.44 201.755 1024.4 Q196.599 1020.33 196.599 1013.87 Q196.599 1009.92 198.159 1007.12 Q199.687 1004.29 202.869 1002.44 M215.314 1022.4 Q221.776 1022.4 225.468 1019.75 Q229.128 1017.08 229.128 1012.43 Q229.128 1007.79 225.468 1005.11 Q221.776 1002.44 215.314 1002.44 Q208.853 1002.44 205.193 1005.11 Q201.501 1007.79 201.501 1012.43 Q201.501 1017.08 205.193 1019.75 Q208.853 1022.4 215.314 1022.4 Z" fill="#000000" fill-rule="nonzero" fill-opacity="1" /><path clip-path="url(#clip610)" d="M201.564 949.986 Q201.564 954.697 205.257 957.434 Q208.917 960.171 215.314 960.171 Q221.712 960.171 225.404 957.466 Q229.064 954.728 229.064 949.986 Q229.064 945.307 225.372 942.57 Q221.68 939.833 215.314 939.833 Q208.98 939.833 205.288 942.57 Q201.564 945.307 201.564 949.986 M196.599 949.986 Q196.599 942.347 201.564 937.987 Q206.53 933.626 215.314 933.626 Q224.067 933.626 229.064 937.987 Q234.03 942.347 234.03 949.986 Q234.03 957.657 229.064 962.017 Q224.067 966.346 215.314 966.346 Q206.53 966.346 201.564 962.017 Q196.599 957.657 196.599 949.986 Z" fill="#000000" fill-rule="nonzero" fill-opacity="1" /><path clip-path="url(#clip610)" d="M215.314 898.328 Q208.853 898.328 205.193 901.002 Q201.501 903.644 201.501 908.291 Q201.501 912.938 205.193 915.611 Q208.853 918.253 215.314 918.253 Q221.776 918.253 225.468 915.611 Q229.128 912.938 229.128 908.291 Q229.128 903.644 225.468 901.002 Q221.776 898.328 215.314 898.328 M202.869 918.253 Q199.687 916.407 198.159 913.606 Q196.599 910.773 196.599 906.858 Q196.599 900.365 201.755 896.323 Q206.912 892.249 215.314 892.249 Q223.717 892.249 228.873 896.323 Q234.03 900.365 234.03 906.858 Q234.03 910.773 232.502 913.606 Q230.942 916.407 227.759 918.253 L233.107 918.253 L233.107 924.141 L183.581 924.141 L183.581 918.253 L202.869 918.253 Z" fill="#000000" fill-rule="nonzero" fill-opacity="1" /><path clip-path="url(#clip610)" d="M198.509 859.816 L204.047 859.816 Q202.774 862.298 202.137 864.972 Q201.501 867.646 201.501 870.51 Q201.501 874.871 202.838 877.067 Q204.174 879.231 206.848 879.231 Q208.885 879.231 210.063 877.672 Q211.208 876.112 212.259 871.401 L212.704 869.396 Q214.041 863.158 216.492 860.548 Q218.911 857.906 223.272 857.906 Q228.237 857.906 231.133 861.853 Q234.03 865.768 234.03 872.643 Q234.03 875.507 233.457 878.626 Q232.916 881.714 231.802 885.151 L225.754 885.151 Q227.441 881.905 228.3 878.754 Q229.128 875.603 229.128 872.515 Q229.128 868.378 227.727 866.15 Q226.295 863.922 223.717 863.922 Q221.33 863.922 220.057 865.545 Q218.784 867.136 217.606 872.579 L217.129 874.616 Q215.983 880.059 213.627 882.478 Q211.24 884.897 207.103 884.897 Q202.074 884.897 199.336 881.332 Q196.599 877.767 196.599 871.21 Q196.599 867.964 197.077 865.099 Q197.554 862.235 198.509 859.816 Z" fill="#000000" fill-rule="nonzero" fill-opacity="1" /><path clip-path="url(#clip610)" d="M213.818 818.089 L216.683 818.089 L216.683 845.015 Q222.73 844.634 225.913 841.387 Q229.064 838.109 229.064 832.284 Q229.064 828.91 228.237 825.759 Q227.409 822.576 225.754 819.457 L231.292 819.457 Q232.629 822.608 233.329 825.918 Q234.03 829.228 234.03 832.634 Q234.03 841.164 229.064 846.161 Q224.099 851.127 215.633 851.127 Q206.88 851.127 201.755 846.416 Q196.599 841.673 196.599 833.653 Q196.599 826.459 201.246 822.29 Q205.861 818.089 213.818 818.089 M212.1 823.945 Q207.294 824.009 204.429 826.65 Q201.564 829.26 201.564 833.589 Q201.564 838.491 204.334 841.451 Q207.103 844.379 212.132 844.824 L212.1 823.945 Z" fill="#000000" fill-rule="nonzero" fill-opacity="1" /><path clip-path="url(#clip610)" d="M202.933 787.82 Q202.36 788.806 202.106 789.984 Q201.819 791.13 201.819 792.53 Q201.819 797.495 205.066 800.169 Q208.28 802.811 214.328 802.811 L233.107 802.811 L233.107 808.699 L197.459 808.699 L197.459 802.811 L202.997 802.811 Q199.75 800.965 198.191 798.005 Q196.599 795.045 196.599 790.811 Q196.599 790.207 196.695 789.475 Q196.758 788.743 196.917 787.851 L202.933 787.82 Z" fill="#000000" fill-rule="nonzero" fill-opacity="1" /><path clip-path="url(#clip610)" d="M197.459 785.878 L197.459 779.671 L227.377 768.531 L197.459 757.391 L197.459 751.185 L233.107 764.553 L233.107 772.51 L197.459 785.878 Z" fill="#000000" fill-rule="nonzero" fill-opacity="1" /><path clip-path="url(#clip610)" d="M213.818 712.609 L216.683 712.609 L216.683 739.536 Q222.73 739.154 225.913 735.907 Q229.064 732.629 229.064 726.804 Q229.064 723.43 228.237 720.279 Q227.409 717.097 225.754 713.977 L231.292 713.977 Q232.629 717.128 233.329 720.439 Q234.03 723.749 234.03 727.154 Q234.03 735.684 229.064 740.682 Q224.099 745.647 215.633 745.647 Q206.88 745.647 201.755 740.936 Q196.599 736.194 196.599 728.173 Q196.599 720.98 201.246 716.81 Q205.861 712.609 213.818 712.609 M212.1 718.465 Q207.294 718.529 204.429 721.171 Q201.564 723.781 201.564 728.109 Q201.564 733.011 204.334 735.971 Q207.103 738.899 212.132 739.345 L212.1 718.465 Z" fill="#000000" fill-rule="nonzero" fill-opacity="1" /><path clip-path="url(#clip610)" d="M202.869 679.539 L183.581 679.539 L183.581 673.682 L233.107 673.682 L233.107 679.539 L227.759 679.539 Q230.942 681.385 232.502 684.218 Q234.03 687.019 234.03 690.965 Q234.03 697.427 228.873 701.501 Q223.717 705.543 215.314 705.543 Q206.912 705.543 201.755 701.501 Q196.599 697.427 196.599 690.965 Q196.599 687.019 198.159 684.218 Q199.687 681.385 202.869 679.539 M215.314 699.495 Q221.776 699.495 225.468 696.854 Q229.128 694.18 229.128 689.533 Q229.128 684.886 225.468 682.212 Q221.776 679.539 215.314 679.539 Q208.853 679.539 205.193 682.212 Q201.501 684.886 201.501 689.533 Q201.501 694.18 205.193 696.854 Q208.853 699.495 215.314 699.495 Z" fill="#000000" fill-rule="nonzero" fill-opacity="1" /><path clip-path="url(#clip610)" d="M197.459 645.1 L197.459 638.894 L227.377 627.754 L197.459 616.614 L197.459 610.407 L233.107 623.775 L233.107 631.732 L197.459 645.1 Z" fill="#000000" fill-rule="nonzero" fill-opacity="1" /><path clip-path="url(#clip610)" d="M215.187 586.122 Q215.187 593.22 216.81 595.957 Q218.434 598.694 222.348 598.694 Q225.468 598.694 227.314 596.657 Q229.128 594.589 229.128 591.056 Q229.128 586.186 225.69 583.258 Q222.221 580.298 216.492 580.298 L215.187 580.298 L215.187 586.122 M212.768 574.441 L233.107 574.441 L233.107 580.298 L227.696 580.298 Q230.942 582.303 232.502 585.295 Q234.03 588.286 234.03 592.615 Q234.03 598.09 230.974 601.336 Q227.887 604.551 222.73 604.551 Q216.715 604.551 213.659 600.54 Q210.604 596.498 210.604 588.509 L210.604 580.298 L210.031 580.298 Q205.989 580.298 203.792 582.971 Q201.564 585.613 201.564 590.419 Q201.564 593.475 202.296 596.371 Q203.029 599.267 204.493 601.941 L199.082 601.941 Q197.841 598.726 197.236 595.703 Q196.599 592.679 196.599 589.814 Q196.599 582.08 200.61 578.261 Q204.62 574.441 212.768 574.441 Z" fill="#000000" fill-rule="nonzero" fill-opacity="1" /><path clip-path="url(#clip610)" d="M183.581 562.378 L183.581 556.522 L233.107 556.522 L233.107 562.378 L183.581 562.378 Z" fill="#000000" fill-rule="nonzero" fill-opacity="1" /><path clip-path="url(#clip610)" d="M219.038 544.872 L197.459 544.872 L197.459 539.016 L218.816 539.016 Q223.876 539.016 226.423 537.043 Q228.937 535.069 228.937 531.122 Q228.937 526.38 225.913 523.643 Q222.89 520.874 217.67 520.874 L197.459 520.874 L197.459 515.017 L233.107 515.017 L233.107 520.874 L227.632 520.874 Q230.879 523.006 232.47 525.839 Q234.03 528.64 234.03 532.364 Q234.03 538.507 230.21 541.69 Q226.391 544.872 219.038 544.872 M196.599 530.136 L196.599 530.136 Z" fill="#000000" fill-rule="nonzero" fill-opacity="1" /><path clip-path="url(#clip610)" d="M213.818 472.462 L216.683 472.462 L216.683 499.389 Q222.73 499.007 225.913 495.761 Q229.064 492.483 229.064 486.658 Q229.064 483.284 228.237 480.133 Q227.409 476.95 225.754 473.831 L231.292 473.831 Q232.629 476.982 233.329 480.292 Q234.03 483.602 234.03 487.008 Q234.03 495.538 229.064 500.535 Q224.099 505.5 215.633 505.5 Q206.88 505.5 201.755 500.79 Q196.599 496.047 196.599 488.027 Q196.599 480.833 201.246 476.664 Q205.861 472.462 213.818 472.462 M212.1 478.319 Q207.294 478.383 204.429 481.024 Q201.564 483.634 201.564 487.963 Q201.564 492.865 204.334 495.825 Q207.103 498.753 212.132 499.198 L212.1 478.319 Z" fill="#000000" fill-rule="nonzero" fill-opacity="1" /><path clip-path="url(#clip610)" d="M198.509 440.125 L204.047 440.125 Q202.774 442.607 202.137 445.281 Q201.501 447.954 201.501 450.819 Q201.501 455.18 202.838 457.376 Q204.174 459.54 206.848 459.54 Q208.885 459.54 210.063 457.98 Q211.208 456.421 212.259 451.71 L212.704 449.705 Q214.041 443.467 216.492 440.857 Q218.911 438.215 223.272 438.215 Q228.237 438.215 231.133 442.162 Q234.03 446.077 234.03 452.952 Q234.03 455.816 233.457 458.935 Q232.916 462.023 231.802 465.46 L225.754 465.46 Q227.441 462.214 228.3 459.063 Q229.128 455.912 229.128 452.824 Q229.128 448.687 227.727 446.459 Q226.295 444.231 223.717 444.231 Q221.33 444.231 220.057 445.854 Q218.784 447.445 217.606 452.888 L217.129 454.925 Q215.983 460.368 213.627 462.787 Q211.24 465.206 207.103 465.206 Q202.074 465.206 199.336 461.641 Q196.599 458.076 196.599 451.519 Q196.599 448.273 197.077 445.408 Q197.554 442.544 198.509 440.125 Z" fill="#000000" fill-rule="nonzero" fill-opacity="1" /><path clip-path="url(#clip610)" d="M1596.25 86.3491 L1596.25 92.1419 L1553.15 92.1419 L1553.15 86.3491 L1596.25 86.3491 Z" fill="#000000" fill-rule="nonzero" fill-opacity="1" /><path clip-path="url(#clip610)" d="M1637.74 86.3491 L1637.74 92.1419 L1594.63 92.1419 L1594.63 86.3491 L1637.74 86.3491 Z" fill="#000000" fill-rule="nonzero" fill-opacity="1" /><path clip-path="url(#clip610)" d="M1677.39 28.9478 L1677.39 35.9153 Q1674.23 34.1734 1671.03 33.3227 Q1667.87 32.4315 1664.63 32.4315 Q1657.38 32.4315 1653.37 37.0496 Q1649.36 41.6271 1649.36 49.9314 Q1649.36 58.2358 1653.37 62.8538 Q1657.38 67.4314 1664.63 67.4314 Q1667.87 67.4314 1671.03 66.5807 Q1674.23 65.6895 1677.39 63.9476 L1677.39 70.8341 Q1674.27 72.2924 1670.91 73.0216 Q1667.59 73.7508 1663.82 73.7508 Q1653.57 73.7508 1647.54 67.3098 Q1641.5 60.8689 1641.5 49.9314 Q1641.5 38.832 1647.58 32.472 Q1653.7 26.1121 1664.31 26.1121 Q1667.75 26.1121 1671.03 26.8413 Q1674.32 27.5299 1677.39 28.9478 Z" fill="#000000" fill-rule="nonzero" fill-opacity="1" /><path clip-path="url(#clip610)" d="M1708.91 17.4837 Q1702.59 17.4837 1699.39 23.7221 Q1696.23 29.92 1696.23 42.3968 Q1696.23 54.833 1699.39 61.0714 Q1702.59 67.2693 1708.91 67.2693 Q1715.27 67.2693 1718.43 61.0714 Q1721.63 54.833 1721.63 42.3968 Q1721.63 29.92 1718.43 23.7221 Q1715.27 17.4837 1708.91 17.4837 M1708.91 11.0023 Q1719.08 11.0023 1724.43 19.0636 Q1729.81 27.0843 1729.81 42.3968 Q1729.81 57.6687 1724.43 65.73 Q1719.08 73.7508 1708.91 73.7508 Q1698.74 73.7508 1693.35 65.73 Q1688.01 57.6687 1688.01 42.3968 Q1688.01 27.0843 1693.35 19.0636 Q1698.74 11.0023 1708.91 11.0023 Z" fill="#000000" fill-rule="nonzero" fill-opacity="1" /><path clip-path="url(#clip610)" d="M1777.61 86.3491 L1777.61 92.1419 L1734.51 92.1419 L1734.51 86.3491 L1777.61 86.3491 Z" fill="#000000" fill-rule="nonzero" fill-opacity="1" /><path clip-path="url(#clip610)" d="M1819.09 86.3491 L1819.09 92.1419 L1775.99 92.1419 L1775.99 86.3491 L1819.09 86.3491 Z" fill="#000000" fill-rule="nonzero" fill-opacity="1" /><circle clip-path="url(#clip612)" cx="491.188" cy="1595.21" r="14.4" fill="#cc79a7" fill-rule="evenodd" fill-opacity="1" stroke="#000000" stroke-opacity="1" stroke-width="4"/>
<circle clip-path="url(#clip612)" cx="610.681" cy="1387.14" r="14.4" fill="#cc79a7" fill-rule="evenodd" fill-opacity="1" stroke="#000000" stroke-opacity="1" stroke-width="4"/>
<circle clip-path="url(#clip612)" cx="730.175" cy="1227.48" r="14.4" fill="#cc79a7" fill-rule="evenodd" fill-opacity="1" stroke="#000000" stroke-opacity="1" stroke-width="4"/>
<circle clip-path="url(#clip612)" cx="849.669" cy="1071.81" r="14.4" fill="#cc79a7" fill-rule="evenodd" fill-opacity="1" stroke="#000000" stroke-opacity="1" stroke-width="4"/>
<circle clip-path="url(#clip612)" cx="969.162" cy="928.812" r="14.4" fill="#cc79a7" fill-rule="evenodd" fill-opacity="1" stroke="#000000" stroke-opacity="1" stroke-width="4"/>
<circle clip-path="url(#clip612)" cx="1088.66" cy="849.809" r="14.4" fill="#cc79a7" fill-rule="evenodd" fill-opacity="1" stroke="#000000" stroke-opacity="1" stroke-width="4"/>
<circle clip-path="url(#clip612)" cx="1208.15" cy="770.559" r="14.4" fill="#cc79a7" fill-rule="evenodd" fill-opacity="1" stroke="#000000" stroke-opacity="1" stroke-width="4"/>
<circle clip-path="url(#clip612)" cx="1327.64" cy="728.333" r="14.4" fill="#cc79a7" fill-rule="evenodd" fill-opacity="1" stroke="#000000" stroke-opacity="1" stroke-width="4"/>
<circle clip-path="url(#clip612)" cx="1447.14" cy="709.718" r="14.4" fill="#cc79a7" fill-rule="evenodd" fill-opacity="1" stroke="#000000" stroke-opacity="1" stroke-width="4"/>
<circle clip-path="url(#clip612)" cx="1566.63" cy="678.935" r="14.4" fill="#cc79a7" fill-rule="evenodd" fill-opacity="1" stroke="#000000" stroke-opacity="1" stroke-width="4"/>
<circle clip-path="url(#clip612)" cx="1686.12" cy="691.506" r="14.4" fill="#cc79a7" fill-rule="evenodd" fill-opacity="1" stroke="#000000" stroke-opacity="1" stroke-width="4"/>
<circle clip-path="url(#clip612)" cx="1805.62" cy="646.408" r="14.4" fill="#cc79a7" fill-rule="evenodd" fill-opacity="1" stroke="#000000" stroke-opacity="1" stroke-width="4"/>
<circle clip-path="url(#clip612)" cx="1925.11" cy="649.319" r="14.4" fill="#cc79a7" fill-rule="evenodd" fill-opacity="1" stroke="#000000" stroke-opacity="1" stroke-width="4"/>
<circle clip-path="url(#clip612)" cx="2044.6" cy="630.355" r="14.4" fill="#cc79a7" fill-rule="evenodd" fill-opacity="1" stroke="#000000" stroke-opacity="1" stroke-width="4"/>
<circle clip-path="url(#clip612)" cx="2164.1" cy="654.616" r="14.4" fill="#cc79a7" fill-rule="evenodd" fill-opacity="1" stroke="#000000" stroke-opacity="1" stroke-width="4"/>
<circle clip-path="url(#clip612)" cx="2283.59" cy="649.264" r="14.4" fill="#cc79a7" fill-rule="evenodd" fill-opacity="1" stroke="#000000" stroke-opacity="1" stroke-width="4"/>
<circle clip-path="url(#clip612)" cx="2403.09" cy="643.944" r="14.4" fill="#cc79a7" fill-rule="evenodd" fill-opacity="1" stroke="#000000" stroke-opacity="1" stroke-width="4"/>
<circle clip-path="url(#clip612)" cx="2522.58" cy="639.069" r="14.4" fill="#cc79a7" fill-rule="evenodd" fill-opacity="1" stroke="#000000" stroke-opacity="1" stroke-width="4"/>
<circle clip-path="url(#clip612)" cx="2642.07" cy="655.494" r="14.4" fill="#cc79a7" fill-rule="evenodd" fill-opacity="1" stroke="#000000" stroke-opacity="1" stroke-width="4"/>
<circle clip-path="url(#clip612)" cx="2761.57" cy="632.893" r="14.4" fill="#cc79a7" fill-rule="evenodd" fill-opacity="1" stroke="#000000" stroke-opacity="1" stroke-width="4"/>
<circle clip-path="url(#clip612)" cx="2881.06" cy="639.905" r="14.4" fill="#cc79a7" fill-rule="evenodd" fill-opacity="1" stroke="#000000" stroke-opacity="1" stroke-width="4"/>
<polyline clip-path="url(#clip612)" style="stroke:#cc79a7; stroke-linecap:round; stroke-linejoin:round; stroke-width:8; stroke-opacity:1; fill:none" points="491.188,1588.28 491.253,1588.27 491.283,1588.27 491.332,1588.27 491.382,1588.26 491.435,1588.25 491.491,1588.24 491.55,1588.23 491.612,1588.21 491.676,1588.19 491.744,1588.16 491.814,1588.13 491.888,1588.1 491.964,1588.06 492.044,1588.02 492.127,1587.97 492.213,1587.92 492.302,1587.86 492.394,1587.79 492.49,1587.72 492.588,1587.65 492.691,1587.57 492.796,1587.48 492.905,1587.38 493.017,1587.28 493.133,1587.17 493.253,1587.05 493.376,1586.93 493.502,1586.79 493.633,1586.65 493.767,1586.5 493.905,1586.35 494.047,1586.18 494.194,1586.01 494.344,1585.83 494.499,1585.63 494.657,1585.43 494.821,1585.22 494.989,1585 495.162,1584.77 495.339,1584.53 495.522,1584.28 495.709,1584.02 495.903,1583.75 496.101,1583.47 496.305,1583.17 496.516,1582.86 496.732,1582.55 496.955,1582.21 497.184,1581.87 497.421,1581.51 497.665,1581.14 497.916,1580.75 498.176,1580.35 498.443,1579.93 498.72,1579.5 499.006,1579.05 499.301,1578.58 499.607,1578.09 499.924,1577.59 500.252,1577.06 500.592,1576.51 500.945,1575.94 501.312,1575.35 501.693,1574.73 502.089,1574.08 502.502,1573.4 502.931,1572.7 503.379,1571.96 503.846,1571.19 504.334,1570.39 504.844,1569.55 505.377,1568.67 505.934,1567.75 506.518,1566.78 507.129,1565.77 507.771,1564.7 508.443,1563.59 509.15,1562.42 509.893,1561.19 510.674,1559.89 511.498,1558.52 512.367,1557.08 513.285,1555.56 514.257,1553.95 515.288,1552.24 516.385,1550.42 517.555,1548.49 518.805,1546.42 520.146,1544.2 521.59,1541.81 523.148,1539.24 524.835,1536.46 526.665,1533.44 528.649,1530.17 530.792,1526.64 533.092,1522.86 535.534,1518.85 538.1,1514.65 540.77,1510.27 543.526,1505.77 546.353,1501.15 549.24,1496.44 552.176,1491.66 555.154,1486.82 558.166,1481.93 561.208,1477.01 564.274,1472.05 567.361,1467.06 570.466,1462.06 573.587,1457.04 576.721,1452.01 579.868,1446.96 583.027,1441.91 586.196,1436.85 589.374,1431.79 592.562,1426.72 595.76,1421.65 598.966,1416.57 602.181,1411.49 605.405,1406.41 608.637,1401.32 611.879,1396.23 615.131,1391.14 618.392,1386.05 621.663,1380.95 624.944,1375.85 628.236,1370.74 631.54,1365.63 634.855,1360.51 638.182,1355.39 641.523,1350.26 644.876,1345.13 648.244,1339.98 651.627,1334.83 655.025,1329.67 658.439,1324.5 661.871,1319.32 665.321,1314.13 668.79,1308.93 672.279,1303.71 675.79,1298.47 679.324,1293.22 682.881,1287.95 686.465,1282.66 690.075,1277.35 693.715,1272.02 697.387,1266.66 701.091,1261.27 704.832,1255.85 708.612,1250.39 712.435,1244.9 716.303,1239.36 720.223,1233.78 724.198,1228.14 728.234,1222.44 732.341,1216.66 736.525,1210.81 740.8,1204.86 745.179,1198.8 749.682,1192.6 754.338,1186.23 759.189,1179.63 764.303,1172.73 769.817,1165.33 776.125,1156.93 784.056,1146.49 790.417,1138.2 796.778,1129.98 803.14,1121.85 809.501,1113.8 815.185,1106.67 820.869,1099.61 826.554,1092.61 832.238,1085.69 837.345,1079.52 842.451,1073.41 847.557,1067.35 852.664,1061.36 857.77,1055.41 862.877,1049.53 867.983,1043.7 873.09,1037.92 878.196,1032.21 882.788,1027.12 887.379,1022.08 891.971,1017.08 896.562,1012.13 901.154,1007.23 905.745,1002.38 910.337,997.57 914.928,992.811 919.52,988.098 924.111,983.434 928.702,978.817 933.294,974.247 937.885,969.725 942.477,965.25 947.068,960.823 951.66,956.442 956.251,952.109 960.843,947.824 965.434,943.585 970.026,939.393 974.617,935.248 979.209,931.149 983.8,927.097 988.392,923.091 992.983,919.132 997.575,915.218 1002.17,911.35 1006.76,907.527 1011.35,903.75 1015.94,900.017 1020.53,896.33 1025.12,892.686 1029.72,889.087 1034.31,885.533 1038.9,882.021 1043.49,878.553 1048.08,875.129 1052.67,871.747 1057.26,868.407 1061.86,865.11 1066.45,861.854 1071.04,858.64 1075.63,855.467 1080.22,852.336 1084.81,849.244 1089.4,846.193 1094,843.181 1098.59,840.209 1103.18,837.276 1107.77,834.382 1112.36,831.526 1116.95,828.709 1121.54,825.928 1126.14,823.186 1130.73,820.48 1135.32,817.81 1139.91,815.177 1144.5,812.58 1149.09,810.018 1153.69,807.491 1158.28,804.999 1162.87,802.541 1167.46,800.117 1172.05,797.726 1176.64,795.369 1181.23,793.045 1185.83,790.753 1190.42,788.493 1195.01,786.265 1199.6,784.068 1204.19,781.903 1208.78,779.767 1213.37,777.663 1217.97,775.588 1222.56,773.542 1227.15,771.526 1231.74,769.538 1236.33,767.579 1240.92,765.649 1245.51,763.745 1250.11,761.87 1254.7,760.021 1259.29,758.199 1263.88,756.404 1268.47,754.634 1273.06,752.891 1277.66,751.173 1282.25,749.479 1286.84,747.811 1291.43,746.167 1296.02,744.547 1300.61,742.951 1305.2,741.378 1309.8,739.829 1314.39,738.302 1318.98,736.798 1323.57,735.316 1328.16,733.856 1332.75,732.418 1337.34,731.001 1341.94,729.605 1346.53,728.23 1351.12,726.875 1355.71,725.541 1360.3,724.227 1364.89,722.932 1369.48,721.656 1374.08,720.4 1378.67,719.163 1383.26,717.944 1387.85,716.743 1392.44,715.561 1397.03,714.396 1401.63,713.249 1406.22,712.119 1410.81,711.006 1415.4,709.91 1419.99,708.831 1424.58,707.768 1429.17,706.721 1433.77,705.69 1438.36,704.675 1442.95,703.675 1447.54,702.69 1452.14,701.718 1456.75,700.76 1461.37,699.813 1466.01,698.878 1470.66,697.954 1475.33,697.041 1480.03,696.138 1484.74,695.245 1489.48,694.362 1494.24,693.488 1499.03,692.624 1503.84,691.769 1508.68,690.923 1513.55,690.086 1518.44,689.258 1523.37,688.439 1528.32,687.629 1533.3,686.828 1538.31,686.035 1543.36,685.251 1548.43,684.475 1553.54,683.707 1558.68,682.948 1563.85,682.198 1569.06,681.455 1574.3,680.721 1579.57,679.995 1584.89,679.277 1590.23,678.567 1595.62,677.865 1601.04,677.172 1606.5,676.486 1612,675.808 1617.54,675.138 1623.12,674.475 1628.74,673.82 1634.4,673.174 1640.11,672.534 1645.86,671.903 1651.65,671.278 1657.49,670.662 1663.37,670.053 1669.3,669.451 1675.28,668.857 1681.31,668.27 1687.39,667.69 1693.51,667.118 1699.69,666.553 1705.92,665.995 1712.21,665.444 1718.55,664.9 1724.94,664.364 1731.4,663.834 1737.91,663.311 1744.48,662.796 1751.11,662.287 1757.81,661.785 1764.57,661.29 1771.39,660.801 1778.28,660.319 1785.24,659.844 1792.27,659.376 1799.37,658.914 1806.54,658.459 1813.79,658.011 1821.12,657.568 1828.52,657.133 1836,656.704 1843.57,656.281 1851.22,655.864 1858.96,655.454 1866.79,655.05 1874.71,654.652 1882.72,654.261 1890.83,653.876 1899.04,653.496 1907.35,653.123 1915.77,652.756 1924.3,652.395 1932.93,652.04 1941.69,651.691 1950.56,651.348 1959.55,651.01 1968.67,650.679 1977.92,650.353 1987.3,650.033 1996.82,649.719 2006.48,649.411 2016.29,649.108 2026.26,648.811 2036.38,648.519 2046.67,648.233 2057.13,647.953 2067.76,647.678 2078.58,647.409 2089.59,647.145 2100.79,646.886 2112.21,646.633 2123.83,646.385 2135.68,646.142 2147.77,645.905 2160.1,645.673 2172.68,645.447 2185.53,645.225 2198.66,645.009 2212.08,644.798 2225.81,644.592 2239.86,644.391 2254.25,644.195 2268.99,644.004 2284.12,643.818 2299.64,643.637 2315.58,643.462 2331.98,643.291 2348.84,643.125 2366.21,642.964 2384.12,642.808 2402.6,642.657 2421.69,642.51 2441.44,642.369 2461.9,642.232 2483.11,642.101 2505.15,641.974 2528.07,641.851 2551.96,641.734 2576.9,641.622 2602.98,641.514 2630.31,641.411 2659.02,641.314 2689.25,641.22 2721.16,641.132 2754.93,641.049 2790.76,640.971 2828.88,640.898 2869.55,640.83 2881.06,640.812 "/>
<circle clip-path="url(#clip612)" cx="491.188" cy="182.977" r="14.4" fill="#009e73" fill-rule="evenodd" fill-opacity="1" stroke="#000000" stroke-opacity="1" stroke-width="4"/>
<circle clip-path="url(#clip612)" cx="610.681" cy="1094.23" r="14.4" fill="#009e73" fill-rule="evenodd" fill-opacity="1" stroke="#000000" stroke-opacity="1" stroke-width="4"/>
<circle clip-path="url(#clip612)" cx="730.175" cy="1198.3" r="14.4" fill="#009e73" fill-rule="evenodd" fill-opacity="1" stroke="#000000" stroke-opacity="1" stroke-width="4"/>
<circle clip-path="url(#clip612)" cx="849.669" cy="1252.06" r="14.4" fill="#009e73" fill-rule="evenodd" fill-opacity="1" stroke="#000000" stroke-opacity="1" stroke-width="4"/>
<circle clip-path="url(#clip612)" cx="969.162" cy="1227.87" r="14.4" fill="#009e73" fill-rule="evenodd" fill-opacity="1" stroke="#000000" stroke-opacity="1" stroke-width="4"/>
<circle clip-path="url(#clip612)" cx="1088.66" cy="1217.95" r="14.4" fill="#009e73" fill-rule="evenodd" fill-opacity="1" stroke="#000000" stroke-opacity="1" stroke-width="4"/>
<circle clip-path="url(#clip612)" cx="1208.15" cy="1216.8" r="14.4" fill="#009e73" fill-rule="evenodd" fill-opacity="1" stroke="#000000" stroke-opacity="1" stroke-width="4"/>
<circle clip-path="url(#clip612)" cx="1327.64" cy="1173.2" r="14.4" fill="#009e73" fill-rule="evenodd" fill-opacity="1" stroke="#000000" stroke-opacity="1" stroke-width="4"/>
<circle clip-path="url(#clip612)" cx="1447.14" cy="1152.33" r="14.4" fill="#009e73" fill-rule="evenodd" fill-opacity="1" stroke="#000000" stroke-opacity="1" stroke-width="4"/>
<circle clip-path="url(#clip612)" cx="1566.63" cy="1144.5" r="14.4" fill="#009e73" fill-rule="evenodd" fill-opacity="1" stroke="#000000" stroke-opacity="1" stroke-width="4"/>
<circle clip-path="url(#clip612)" cx="1686.12" cy="1108.82" r="14.4" fill="#009e73" fill-rule="evenodd" fill-opacity="1" stroke="#000000" stroke-opacity="1" stroke-width="4"/>
<circle clip-path="url(#clip612)" cx="1805.62" cy="1114.07" r="14.4" fill="#009e73" fill-rule="evenodd" fill-opacity="1" stroke="#000000" stroke-opacity="1" stroke-width="4"/>
<circle clip-path="url(#clip612)" cx="1925.11" cy="1120.75" r="14.4" fill="#009e73" fill-rule="evenodd" fill-opacity="1" stroke="#000000" stroke-opacity="1" stroke-width="4"/>
<circle clip-path="url(#clip612)" cx="2044.6" cy="1120.21" r="14.4" fill="#009e73" fill-rule="evenodd" fill-opacity="1" stroke="#000000" stroke-opacity="1" stroke-width="4"/>
<circle clip-path="url(#clip612)" cx="2164.1" cy="1125.02" r="14.4" fill="#009e73" fill-rule="evenodd" fill-opacity="1" stroke="#000000" stroke-opacity="1" stroke-width="4"/>
<circle clip-path="url(#clip612)" cx="2283.59" cy="1113.15" r="14.4" fill="#009e73" fill-rule="evenodd" fill-opacity="1" stroke="#000000" stroke-opacity="1" stroke-width="4"/>
<circle clip-path="url(#clip612)" cx="2403.09" cy="1146.62" r="14.4" fill="#009e73" fill-rule="evenodd" fill-opacity="1" stroke="#000000" stroke-opacity="1" stroke-width="4"/>
<circle clip-path="url(#clip612)" cx="2522.58" cy="1108.35" r="14.4" fill="#009e73" fill-rule="evenodd" fill-opacity="1" stroke="#000000" stroke-opacity="1" stroke-width="4"/>
<circle clip-path="url(#clip612)" cx="2642.07" cy="1118.29" r="14.4" fill="#009e73" fill-rule="evenodd" fill-opacity="1" stroke="#000000" stroke-opacity="1" stroke-width="4"/>
<circle clip-path="url(#clip612)" cx="2761.57" cy="1116.2" r="14.4" fill="#009e73" fill-rule="evenodd" fill-opacity="1" stroke="#000000" stroke-opacity="1" stroke-width="4"/>
<circle clip-path="url(#clip612)" cx="2881.06" cy="1114.96" r="14.4" fill="#009e73" fill-rule="evenodd" fill-opacity="1" stroke="#000000" stroke-opacity="1" stroke-width="4"/>
<polyline clip-path="url(#clip612)" style="stroke:#009e73; stroke-linecap:round; stroke-linejoin:round; stroke-width:8; stroke-opacity:1; fill:none" points="491.188,166.338 491.253,192.175 491.283,203.433 491.332,221.828 491.382,239.635 491.435,258.296 491.491,277.015 491.55,296.116 491.612,315.355 491.676,334.773 491.744,354.267 491.814,373.81 491.888,393.338 491.964,412.811 492.044,432.182 492.127,451.41 492.213,470.457 492.302,489.288 492.394,507.871 492.49,526.178 492.588,544.181 492.691,561.859 492.796,579.191 492.905,596.159 493.017,612.746 493.133,628.941 493.253,644.732 493.376,660.109 493.502,675.067 493.633,689.598 493.767,703.701 493.905,717.372 494.047,730.611 494.194,743.418 494.344,755.794 494.499,767.743 494.657,779.268 494.821,790.373 494.989,801.063 495.162,811.344 495.339,821.223 495.522,830.705 495.709,839.799 495.903,848.513 496.101,856.853 496.305,864.829 496.516,872.449 496.732,879.721 496.955,886.656 497.184,893.261 497.421,899.545 497.665,905.519 497.916,911.192 498.176,916.572 498.443,921.669 498.72,926.494 499.006,931.055 499.301,935.362 499.607,939.424 499.924,943.252 500.252,946.854 500.592,950.242 500.945,953.423 501.312,956.41 501.693,959.211 502.089,961.836 502.502,964.297 502.931,966.602 503.379,968.764 503.846,970.791 504.334,972.696 504.844,974.489 505.377,976.181 505.934,977.784 506.518,979.308 507.129,980.765 507.771,982.168 508.443,983.526 509.15,984.853 509.893,986.158 510.674,987.454 511.498,988.752 512.367,990.064 513.285,991.401 514.257,992.774 515.288,994.195 516.385,995.677 517.555,997.233 518.805,998.876 520.146,1000.62 521.59,1002.49 523.148,1004.48 524.835,1006.64 526.665,1008.96 528.649,1011.47 530.792,1014.17 533.092,1017.06 535.534,1020.1 538.1,1023.29 540.77,1026.59 543.526,1029.98 546.353,1033.44 549.24,1036.95 552.176,1040.5 555.154,1044.08 558.166,1047.68 561.208,1051.29 564.274,1054.91 567.361,1058.52 570.466,1062.13 573.587,1065.74 576.721,1069.33 579.868,1072.91 583.027,1076.48 586.196,1080.03 589.374,1083.56 592.562,1087.08 595.76,1090.58 598.966,1094.05 602.181,1097.51 605.405,1100.94 608.637,1104.36 611.879,1107.75 615.131,1111.12 618.392,1114.46 621.663,1117.78 624.944,1121.08 628.236,1124.36 631.54,1127.61 634.855,1130.84 638.182,1134.04 641.523,1137.22 644.876,1140.37 648.244,1143.5 651.627,1146.6 655.025,1149.68 658.439,1152.73 661.871,1155.76 665.321,1158.76 668.79,1161.73 672.279,1164.67 675.79,1167.59 679.324,1170.49 682.881,1173.35 686.465,1176.19 690.075,1179 693.715,1181.79 697.387,1184.54 701.091,1187.27 704.832,1189.98 708.612,1192.65 712.435,1195.3 716.303,1197.92 720.223,1200.52 724.198,1203.09 728.234,1205.63 732.341,1208.15 736.525,1210.66 740.8,1213.14 745.179,1215.6 749.682,1218.06 754.338,1220.51 759.189,1222.96 764.303,1225.45 769.817,1228.02 776.125,1230.8 784.056,1234.07 790.417,1236.51 796.778,1238.79 803.14,1240.91 809.501,1242.87 815.185,1244.49 820.869,1245.99 826.554,1247.37 832.238,1248.62 837.345,1249.65 842.451,1250.58 847.557,1251.42 852.664,1252.18 857.77,1252.84 862.877,1253.42 867.983,1253.91 873.09,1254.31 878.196,1254.64 882.788,1254.87 887.379,1255.03 891.971,1255.14 896.562,1255.18 901.154,1255.17 905.745,1255.1 910.337,1254.98 914.928,1254.8 919.52,1254.57 924.111,1254.3 928.702,1253.97 933.294,1253.6 937.885,1253.19 942.477,1252.73 947.068,1252.23 951.66,1251.69 956.251,1251.11 960.843,1250.5 965.434,1249.85 970.026,1249.16 974.617,1248.45 979.209,1247.7 983.8,1246.93 988.392,1246.13 992.983,1245.3 997.575,1244.44 1002.17,1243.57 1006.76,1242.67 1011.35,1241.75 1015.94,1240.81 1020.53,1239.85 1025.12,1238.87 1029.72,1237.88 1034.31,1236.87 1038.9,1235.85 1043.49,1234.82 1048.08,1233.77 1052.67,1232.72 1057.26,1231.65 1061.86,1230.58 1066.45,1229.49 1071.04,1228.4 1075.63,1227.3 1080.22,1226.2 1084.81,1225.1 1089.4,1223.98 1094,1222.87 1098.59,1221.75 1103.18,1220.63 1107.77,1219.51 1112.36,1218.39 1116.95,1217.27 1121.54,1216.15 1126.14,1215.03 1130.73,1213.91 1135.32,1212.8 1139.91,1211.68 1144.5,1210.57 1149.09,1209.47 1153.69,1208.36 1158.28,1207.26 1162.87,1206.17 1167.46,1205.08 1172.05,1203.99 1176.64,1202.91 1181.23,1201.84 1185.83,1200.77 1190.42,1199.71 1195.01,1198.66 1199.6,1197.61 1204.19,1196.57 1208.78,1195.54 1213.37,1194.51 1217.97,1193.49 1222.56,1192.48 1227.15,1191.48 1231.74,1190.48 1236.33,1189.5 1240.92,1188.52 1245.51,1187.55 1250.11,1186.59 1254.7,1185.63 1259.29,1184.69 1263.88,1183.75 1268.47,1182.83 1273.06,1181.91 1277.66,1181 1282.25,1180.1 1286.84,1179.21 1291.43,1178.33 1296.02,1177.46 1300.61,1176.59 1305.2,1175.74 1309.8,1174.89 1314.39,1174.06 1318.98,1173.23 1323.57,1172.41 1328.16,1171.61 1332.75,1170.81 1337.34,1170.01 1341.94,1169.23 1346.53,1168.46 1351.12,1167.7 1355.71,1166.94 1360.3,1166.2 1364.89,1165.46 1369.48,1164.73 1374.08,1164.01 1378.67,1163.3 1383.26,1162.6 1387.85,1161.91 1392.44,1161.22 1397.03,1160.55 1401.63,1159.88 1406.22,1159.22 1410.81,1158.57 1415.4,1157.93 1419.99,1157.29 1424.58,1156.66 1429.17,1156.05 1433.77,1155.44 1438.36,1154.83 1442.95,1154.24 1447.54,1153.65 1452.14,1153.07 1456.75,1152.5 1461.37,1151.93 1466.01,1151.37 1470.66,1150.81 1475.33,1150.26 1480.03,1149.72 1484.74,1149.18 1489.48,1148.64 1494.24,1148.11 1499.03,1147.59 1503.84,1147.07 1508.68,1146.55 1513.55,1146.04 1518.44,1145.53 1523.37,1145.03 1528.32,1144.53 1533.3,1144.04 1538.31,1143.55 1543.36,1143.07 1548.43,1142.59 1553.54,1142.11 1558.68,1141.64 1563.85,1141.18 1569.06,1140.71 1574.3,1140.26 1579.57,1139.8 1584.89,1139.36 1590.23,1138.91 1595.62,1138.47 1601.04,1138.04 1606.5,1137.61 1612,1137.18 1617.54,1136.76 1623.12,1136.34 1628.74,1135.93 1634.4,1135.52 1640.11,1135.12 1645.86,1134.72 1651.65,1134.32 1657.49,1133.93 1663.37,1133.55 1669.3,1133.16 1675.28,1132.79 1681.31,1132.41 1687.39,1132.04 1693.51,1131.68 1699.69,1131.32 1705.92,1130.96 1712.21,1130.61 1718.55,1130.26 1724.94,1129.92 1731.4,1129.58 1737.91,1129.24 1744.48,1128.91 1751.11,1128.58 1757.81,1128.26 1764.57,1127.94 1771.39,1127.62 1778.28,1127.31 1785.24,1127.01 1792.27,1126.7 1799.37,1126.41 1806.54,1126.11 1813.79,1125.82 1821.12,1125.53 1828.52,1125.25 1836,1124.97 1843.57,1124.7 1851.22,1124.43 1858.96,1124.16 1866.79,1123.9 1874.71,1123.64 1882.72,1123.38 1890.83,1123.13 1899.04,1122.88 1907.35,1122.64 1915.77,1122.4 1924.3,1122.16 1932.93,1121.93 1941.69,1121.7 1950.56,1121.48 1959.55,1121.26 1968.67,1121.04 1977.92,1120.83 1987.3,1120.62 1996.82,1120.41 2006.48,1120.21 2016.29,1120.01 2026.26,1119.81 2036.38,1119.62 2046.67,1119.43 2057.13,1119.25 2067.76,1119.07 2078.58,1118.89 2089.59,1118.71 2100.79,1118.54 2112.21,1118.38 2123.83,1118.21 2135.68,1118.05 2147.77,1117.9 2160.1,1117.74 2172.68,1117.59 2185.53,1117.45 2198.66,1117.3 2212.08,1117.16 2225.81,1117.03 2239.86,1116.89 2254.25,1116.76 2268.99,1116.64 2284.12,1116.51 2299.64,1116.4 2315.58,1116.28 2331.98,1116.17 2348.84,1116.05 2366.21,1115.95 2384.12,1115.84 2402.6,1115.74 2421.69,1115.65 2441.44,1115.55 2461.9,1115.46 2483.11,1115.37 2505.15,1115.29 2528.07,1115.21 2551.96,1115.13 2576.9,1115.06 2602.98,1114.98 2630.31,1114.92 2659.02,1114.85 2689.25,1114.79 2721.16,1114.73 2754.93,1114.68 2790.76,1114.62 2828.88,1114.57 2869.55,1114.53 2881.06,1114.52 "/>
<path clip-path="url(#clip610)" d="M2204.9 433.159 L2868.31 433.159 L2868.31 173.959 L2204.9 173.959  Z" fill="#ffffff" fill-rule="evenodd" fill-opacity="1"/>
<polyline clip-path="url(#clip610)" style="stroke:#000000; stroke-linecap:round; stroke-linejoin:round; stroke-width:4; stroke-opacity:1; fill:none" points="2204.9,433.159 2868.31,433.159 2868.31,173.959 2204.9,173.959 2204.9,433.159 "/>
<circle clip-path="url(#clip610)" cx="2317.49" cy="225.799" r="20.48" fill="#cc79a7" fill-rule="evenodd" fill-opacity="1" stroke="#000000" stroke-opacity="1" stroke-width="5.68889"/>
<path clip-path="url(#clip610)" d="M2434.75 212.362 L2434.75 225.348 L2440.63 225.348 Q2443.9 225.348 2445.68 223.658 Q2447.46 221.968 2447.46 218.843 Q2447.46 215.741 2445.68 214.051 Q2443.9 212.362 2440.63 212.362 L2434.75 212.362 M2430.08 208.519 L2440.63 208.519 Q2446.44 208.519 2449.4 211.158 Q2452.39 213.774 2452.39 218.843 Q2452.39 223.959 2449.4 226.574 Q2446.44 229.19 2440.63 229.19 L2434.75 229.19 L2434.75 243.079 L2430.08 243.079 L2430.08 208.519 Z" fill="#000000" fill-rule="nonzero" fill-opacity="1" /><path clip-path="url(#clip610)" d="M2483.78 207.107 Q2480.68 212.431 2479.17 217.639 Q2477.67 222.848 2477.67 228.195 Q2477.67 233.542 2479.17 238.797 Q2480.7 244.028 2483.78 249.329 L2480.08 249.329 Q2476.6 243.889 2474.87 238.635 Q2473.15 233.38 2473.15 228.195 Q2473.15 223.033 2474.87 217.801 Q2476.58 212.57 2480.08 207.107 L2483.78 207.107 Z" fill="#000000" fill-rule="nonzero" fill-opacity="1" /><path clip-path="url(#clip610)" d="M2512.23 222.13 Q2513.83 219.26 2516.05 217.894 Q2518.27 216.528 2521.28 216.528 Q2525.33 216.528 2527.53 219.375 Q2529.73 222.199 2529.73 227.431 L2529.73 243.079 L2525.45 243.079 L2525.45 227.57 Q2525.45 223.843 2524.13 222.037 Q2522.81 220.232 2520.1 220.232 Q2516.79 220.232 2514.87 222.431 Q2512.95 224.63 2512.95 228.426 L2512.95 243.079 L2508.66 243.079 L2508.66 227.57 Q2508.66 223.82 2507.34 222.037 Q2506.02 220.232 2503.27 220.232 Q2500.01 220.232 2498.08 222.454 Q2496.16 224.653 2496.16 228.426 L2496.16 243.079 L2491.88 243.079 L2491.88 217.153 L2496.16 217.153 L2496.16 221.181 Q2497.62 218.797 2499.66 217.662 Q2501.7 216.528 2504.5 216.528 Q2507.32 216.528 2509.29 217.963 Q2511.28 219.399 2512.23 222.13 Z" fill="#000000" fill-rule="nonzero" fill-opacity="1" /><path clip-path="url(#clip610)" d="M2560.4 229.051 L2560.4 231.135 L2540.82 231.135 Q2541.09 235.533 2543.46 237.848 Q2545.84 240.139 2550.08 240.139 Q2552.53 240.139 2554.82 239.537 Q2557.14 238.935 2559.4 237.732 L2559.4 241.76 Q2557.11 242.732 2554.7 243.241 Q2552.3 243.75 2549.82 243.75 Q2543.62 243.75 2539.98 240.139 Q2536.37 236.528 2536.37 230.371 Q2536.37 224.005 2539.8 220.278 Q2543.25 216.528 2549.08 216.528 Q2554.31 216.528 2557.34 219.908 Q2560.4 223.264 2560.4 229.051 M2556.14 227.801 Q2556.09 224.306 2554.17 222.223 Q2552.27 220.139 2549.13 220.139 Q2545.56 220.139 2543.41 222.153 Q2541.28 224.167 2540.96 227.824 L2556.14 227.801 Z" fill="#000000" fill-rule="nonzero" fill-opacity="1" /><path clip-path="url(#clip610)" d="M2579.17 230.047 Q2574.01 230.047 2572.02 231.227 Q2570.03 232.408 2570.03 235.255 Q2570.03 237.523 2571.51 238.866 Q2573.02 240.185 2575.58 240.185 Q2579.13 240.185 2581.26 237.685 Q2583.41 235.162 2583.41 230.996 L2583.41 230.047 L2579.17 230.047 M2587.67 228.287 L2587.67 243.079 L2583.41 243.079 L2583.41 239.144 Q2581.95 241.505 2579.77 242.639 Q2577.6 243.75 2574.45 243.75 Q2570.47 243.75 2568.11 241.528 Q2565.77 239.283 2565.77 235.533 Q2565.77 231.158 2568.69 228.936 Q2571.63 226.713 2577.44 226.713 L2583.41 226.713 L2583.41 226.297 Q2583.41 223.357 2581.46 221.76 Q2579.54 220.139 2576.05 220.139 Q2573.83 220.139 2571.72 220.672 Q2569.61 221.204 2567.67 222.269 L2567.67 218.334 Q2570.01 217.431 2572.2 216.991 Q2574.4 216.528 2576.49 216.528 Q2582.11 216.528 2584.89 219.445 Q2587.67 222.361 2587.67 228.287 Z" fill="#000000" fill-rule="nonzero" fill-opacity="1" /><path clip-path="url(#clip610)" d="M2612.97 217.917 L2612.97 221.945 Q2611.16 221.019 2609.22 220.556 Q2607.27 220.093 2605.19 220.093 Q2602.02 220.093 2600.42 221.065 Q2598.85 222.037 2598.85 223.982 Q2598.85 225.463 2599.98 226.32 Q2601.12 227.153 2604.54 227.917 L2606 228.241 Q2610.54 229.213 2612.44 230.996 Q2614.36 232.755 2614.36 235.926 Q2614.36 239.537 2611.49 241.644 Q2608.64 243.75 2603.64 243.75 Q2601.56 243.75 2599.29 243.334 Q2597.04 242.94 2594.54 242.13 L2594.54 237.732 Q2596.9 238.959 2599.2 239.584 Q2601.49 240.185 2603.73 240.185 Q2606.74 240.185 2608.36 239.167 Q2609.98 238.125 2609.98 236.25 Q2609.98 234.514 2608.8 233.588 Q2607.64 232.662 2603.69 231.806 L2602.2 231.459 Q2598.25 230.625 2596.49 228.912 Q2594.73 227.176 2594.73 224.167 Q2594.73 220.51 2597.32 218.519 Q2599.91 216.528 2604.68 216.528 Q2607.04 216.528 2609.13 216.875 Q2611.21 217.223 2612.97 217.917 Z" fill="#000000" fill-rule="nonzero" fill-opacity="1" /><path clip-path="url(#clip610)" d="M2620.7 232.848 L2620.7 217.153 L2624.96 217.153 L2624.96 232.686 Q2624.96 236.366 2626.39 238.218 Q2627.83 240.047 2630.7 240.047 Q2634.15 240.047 2636.14 237.848 Q2638.15 235.648 2638.15 231.852 L2638.15 217.153 L2642.41 217.153 L2642.41 243.079 L2638.15 243.079 L2638.15 239.098 Q2636.6 241.459 2634.54 242.616 Q2632.51 243.75 2629.8 243.75 Q2625.33 243.75 2623.01 240.973 Q2620.7 238.195 2620.7 232.848 M2631.42 216.528 L2631.42 216.528 Z" fill="#000000" fill-rule="nonzero" fill-opacity="1" /><path clip-path="url(#clip610)" d="M2666.21 221.135 Q2665.49 220.718 2664.63 220.533 Q2663.8 220.324 2662.78 220.324 Q2659.17 220.324 2657.23 222.686 Q2655.31 225.024 2655.31 229.422 L2655.31 243.079 L2651.02 243.079 L2651.02 217.153 L2655.31 217.153 L2655.31 221.181 Q2656.65 218.82 2658.8 217.686 Q2660.95 216.528 2664.03 216.528 Q2664.47 216.528 2665.01 216.598 Q2665.54 216.644 2666.19 216.76 L2666.21 221.135 Z" fill="#000000" fill-rule="nonzero" fill-opacity="1" /><path clip-path="url(#clip610)" d="M2691.81 229.051 L2691.81 231.135 L2672.23 231.135 Q2672.51 235.533 2674.87 237.848 Q2677.25 240.139 2681.49 240.139 Q2683.94 240.139 2686.23 239.537 Q2688.55 238.935 2690.82 237.732 L2690.82 241.76 Q2688.52 242.732 2686.12 243.241 Q2683.71 243.75 2681.23 243.75 Q2675.03 243.75 2671.39 240.139 Q2667.78 236.528 2667.78 230.371 Q2667.78 224.005 2671.21 220.278 Q2674.66 216.528 2680.49 216.528 Q2685.72 216.528 2688.76 219.908 Q2691.81 223.264 2691.81 229.051 M2687.55 227.801 Q2687.51 224.306 2685.58 222.223 Q2683.69 220.139 2680.54 220.139 Q2676.97 220.139 2674.82 222.153 Q2672.69 224.167 2672.37 227.824 L2687.55 227.801 Z" fill="#000000" fill-rule="nonzero" fill-opacity="1" /><path clip-path="url(#clip610)" d="M2715.86 221.088 L2715.86 207.061 L2720.12 207.061 L2720.12 243.079 L2715.86 243.079 L2715.86 239.19 Q2714.52 241.505 2712.46 242.639 Q2710.42 243.75 2707.55 243.75 Q2702.85 243.75 2699.89 240 Q2696.95 236.25 2696.95 230.139 Q2696.95 224.028 2699.89 220.278 Q2702.85 216.528 2707.55 216.528 Q2710.42 216.528 2712.46 217.662 Q2714.52 218.774 2715.86 221.088 M2701.35 230.139 Q2701.35 234.838 2703.27 237.523 Q2705.21 240.185 2708.59 240.185 Q2711.97 240.185 2713.92 237.523 Q2715.86 234.838 2715.86 230.139 Q2715.86 225.44 2713.92 222.778 Q2711.97 220.093 2708.59 220.093 Q2705.21 220.093 2703.27 222.778 Q2701.35 225.44 2701.35 230.139 Z" fill="#000000" fill-rule="nonzero" fill-opacity="1" /><path clip-path="url(#clip610)" d="M2728.22 207.107 L2731.93 207.107 Q2735.4 212.57 2737.11 217.801 Q2738.85 223.033 2738.85 228.195 Q2738.85 233.38 2737.11 238.635 Q2735.4 243.889 2731.93 249.329 L2728.22 249.329 Q2731.3 244.028 2732.81 238.797 Q2734.33 233.542 2734.33 228.195 Q2734.33 222.848 2732.81 217.639 Q2731.3 212.431 2728.22 207.107 Z" fill="#000000" fill-rule="nonzero" fill-opacity="1" /><polyline clip-path="url(#clip610)" style="stroke:#cc79a7; stroke-linecap:round; stroke-linejoin:round; stroke-width:8; stroke-opacity:1; fill:none" points="2233.04,277.639 2401.93,277.639 "/>
<path clip-path="url(#clip610)" d="M2434.75 264.202 L2434.75 277.188 L2440.63 277.188 Q2443.9 277.188 2445.68 275.498 Q2447.46 273.808 2447.46 270.683 Q2447.46 267.581 2445.68 265.891 Q2443.9 264.202 2440.63 264.202 L2434.75 264.202 M2430.08 260.359 L2440.63 260.359 Q2446.44 260.359 2449.4 262.998 Q2452.39 265.614 2452.39 270.683 Q2452.39 275.799 2449.4 278.414 Q2446.44 281.03 2440.63 281.03 L2434.75 281.03 L2434.75 294.919 L2430.08 294.919 L2430.08 260.359 Z" fill="#000000" fill-rule="nonzero" fill-opacity="1" /><path clip-path="url(#clip610)" d="M2483.78 258.947 Q2480.68 264.271 2479.17 269.479 Q2477.67 274.688 2477.67 280.035 Q2477.67 285.382 2479.17 290.637 Q2480.7 295.868 2483.78 301.169 L2480.08 301.169 Q2476.6 295.729 2474.87 290.475 Q2473.15 285.22 2473.15 280.035 Q2473.15 274.873 2474.87 269.641 Q2476.58 264.41 2480.08 258.947 L2483.78 258.947 Z" fill="#000000" fill-rule="nonzero" fill-opacity="1" /><path clip-path="url(#clip610)" d="M2505.17 258.901 L2505.17 262.442 L2501.09 262.442 Q2498.8 262.442 2497.9 263.368 Q2497.02 264.294 2497.02 266.702 L2497.02 268.993 L2504.03 268.993 L2504.03 272.303 L2497.02 272.303 L2497.02 294.919 L2492.74 294.919 L2492.74 272.303 L2488.66 272.303 L2488.66 268.993 L2492.74 268.993 L2492.74 267.188 Q2492.74 262.859 2494.75 260.891 Q2496.77 258.901 2501.14 258.901 L2505.17 258.901 Z" fill="#000000" fill-rule="nonzero" fill-opacity="1" /><path clip-path="url(#clip610)" d="M2508.73 268.993 L2512.99 268.993 L2512.99 294.919 L2508.73 294.919 L2508.73 268.993 M2508.73 258.901 L2512.99 258.901 L2512.99 264.294 L2508.73 264.294 L2508.73 258.901 Z" fill="#000000" fill-rule="nonzero" fill-opacity="1" /><path clip-path="url(#clip610)" d="M2526.12 261.632 L2526.12 268.993 L2534.89 268.993 L2534.89 272.303 L2526.12 272.303 L2526.12 286.377 Q2526.12 289.549 2526.97 290.451 Q2527.85 291.354 2530.52 291.354 L2534.89 291.354 L2534.89 294.919 L2530.52 294.919 Q2525.58 294.919 2523.71 293.09 Q2521.83 291.238 2521.83 286.377 L2521.83 272.303 L2518.71 272.303 L2518.71 268.993 L2521.83 268.993 L2521.83 261.632 L2526.12 261.632 Z" fill="#000000" fill-rule="nonzero" fill-opacity="1" /><path clip-path="url(#clip610)" d="M2544.71 261.632 L2544.71 268.993 L2553.48 268.993 L2553.48 272.303 L2544.71 272.303 L2544.71 286.377 Q2544.71 289.549 2545.56 290.451 Q2546.44 291.354 2549.1 291.354 L2553.48 291.354 L2553.48 294.919 L2549.1 294.919 Q2544.17 294.919 2542.3 293.09 Q2540.42 291.238 2540.42 286.377 L2540.42 272.303 L2537.3 272.303 L2537.3 268.993 L2540.42 268.993 L2540.42 261.632 L2544.71 261.632 Z" fill="#000000" fill-rule="nonzero" fill-opacity="1" /><path clip-path="url(#clip610)" d="M2581.26 280.891 L2581.26 282.975 L2561.67 282.975 Q2561.95 287.373 2564.31 289.688 Q2566.7 291.979 2570.93 291.979 Q2573.39 291.979 2575.68 291.377 Q2577.99 290.775 2580.26 289.572 L2580.26 293.6 Q2577.97 294.572 2575.56 295.081 Q2573.15 295.59 2570.68 295.59 Q2564.47 295.59 2560.84 291.979 Q2557.23 288.368 2557.23 282.211 Q2557.23 275.845 2560.65 272.118 Q2564.1 268.368 2569.94 268.368 Q2575.17 268.368 2578.2 271.748 Q2581.26 275.104 2581.26 280.891 M2577 279.641 Q2576.95 276.146 2575.03 274.063 Q2573.13 271.979 2569.98 271.979 Q2566.42 271.979 2564.27 273.993 Q2562.14 276.007 2561.81 279.664 L2577 279.641 Z" fill="#000000" fill-rule="nonzero" fill-opacity="1" /><path clip-path="url(#clip610)" d="M2605.31 272.928 L2605.31 258.901 L2609.57 258.901 L2609.57 294.919 L2605.31 294.919 L2605.31 291.03 Q2603.96 293.345 2601.9 294.479 Q2599.87 295.59 2597 295.59 Q2592.3 295.59 2589.33 291.84 Q2586.39 288.09 2586.39 281.979 Q2586.39 275.868 2589.33 272.118 Q2592.3 268.368 2597 268.368 Q2599.87 268.368 2601.9 269.502 Q2603.96 270.614 2605.31 272.928 M2590.79 281.979 Q2590.79 286.678 2592.71 289.363 Q2594.66 292.025 2598.04 292.025 Q2601.42 292.025 2603.36 289.363 Q2605.31 286.678 2605.31 281.979 Q2605.31 277.28 2603.36 274.618 Q2601.42 271.933 2598.04 271.933 Q2594.66 271.933 2592.71 274.618 Q2590.79 277.28 2590.79 281.979 Z" fill="#000000" fill-rule="nonzero" fill-opacity="1" /><path clip-path="url(#clip610)" d="M2617.67 258.947 L2621.37 258.947 Q2624.84 264.41 2626.56 269.641 Q2628.29 274.873 2628.29 280.035 Q2628.29 285.22 2626.56 290.475 Q2624.84 295.729 2621.37 301.169 L2617.67 301.169 Q2620.75 295.868 2622.25 290.637 Q2623.78 285.382 2623.78 280.035 Q2623.78 274.688 2622.25 269.479 Q2620.75 264.271 2617.67 258.947 Z" fill="#000000" fill-rule="nonzero" fill-opacity="1" /><circle clip-path="url(#clip610)" cx="2317.49" cy="329.479" r="20.48" fill="#009e73" fill-rule="evenodd" fill-opacity="1" stroke="#000000" stroke-opacity="1" stroke-width="5.68889"/>
<path clip-path="url(#clip610)" d="M2430.08 312.199 L2451.93 312.199 L2451.93 316.134 L2434.75 316.134 L2434.75 326.366 L2451.21 326.366 L2451.21 330.301 L2434.75 330.301 L2434.75 342.824 L2452.34 342.824 L2452.34 346.759 L2430.08 346.759 L2430.08 312.199 Z" fill="#000000" fill-rule="nonzero" fill-opacity="1" /><path clip-path="url(#clip610)" d="M2492.25 317.037 L2492.25 329.93 L2505.15 329.93 L2505.15 333.866 L2492.25 333.866 L2492.25 346.759 L2488.36 346.759 L2488.36 333.866 L2475.47 333.866 L2475.47 329.93 L2488.36 329.93 L2488.36 317.037 L2492.25 317.037 Z" fill="#000000" fill-rule="nonzero" fill-opacity="1" /><path clip-path="url(#clip610)" d="M2550.61 313.333 L2550.61 317.893 Q2547.95 316.62 2545.58 315.995 Q2543.22 315.37 2541.02 315.37 Q2537.21 315.37 2535.12 316.852 Q2533.06 318.333 2533.06 321.065 Q2533.06 323.356 2534.43 324.537 Q2535.82 325.694 2539.66 326.412 L2542.48 326.991 Q2547.71 327.986 2550.19 330.509 Q2552.69 333.009 2552.69 337.222 Q2552.69 342.245 2549.31 344.838 Q2545.95 347.43 2539.45 347.43 Q2537 347.43 2534.22 346.875 Q2531.46 346.319 2528.5 345.231 L2528.5 340.416 Q2531.35 342.014 2534.08 342.824 Q2536.81 343.634 2539.45 343.634 Q2543.46 343.634 2545.63 342.06 Q2547.81 340.486 2547.81 337.569 Q2547.81 335.023 2546.23 333.588 Q2544.68 332.153 2541.12 331.435 L2538.27 330.879 Q2533.04 329.838 2530.7 327.616 Q2528.36 325.393 2528.36 321.435 Q2528.36 316.852 2531.58 314.213 Q2534.82 311.574 2540.49 311.574 Q2542.92 311.574 2545.45 312.014 Q2547.97 312.454 2550.61 313.333 Z" fill="#000000" fill-rule="nonzero" fill-opacity="1" /><path clip-path="url(#clip610)" d="M2585.1 310.787 Q2582 316.111 2580.49 321.319 Q2578.99 326.528 2578.99 331.875 Q2578.99 337.222 2580.49 342.477 Q2582.02 347.708 2585.1 353.009 L2581.39 353.009 Q2577.92 347.569 2576.19 342.315 Q2574.47 337.06 2574.47 331.875 Q2574.47 326.713 2576.19 321.481 Q2577.9 316.25 2581.39 310.787 L2585.1 310.787 Z" fill="#000000" fill-rule="nonzero" fill-opacity="1" /><path clip-path="url(#clip610)" d="M2613.55 325.81 Q2615.14 322.94 2617.37 321.574 Q2619.59 320.208 2622.6 320.208 Q2626.65 320.208 2628.85 323.055 Q2631.05 325.879 2631.05 331.111 L2631.05 346.759 L2626.76 346.759 L2626.76 331.25 Q2626.76 327.523 2625.45 325.717 Q2624.13 323.912 2621.42 323.912 Q2618.11 323.912 2616.19 326.111 Q2614.26 328.31 2614.26 332.106 L2614.26 346.759 L2609.98 346.759 L2609.98 331.25 Q2609.98 327.5 2608.66 325.717 Q2607.34 323.912 2604.59 323.912 Q2601.33 323.912 2599.4 326.134 Q2597.48 328.333 2597.48 332.106 L2597.48 346.759 L2593.2 346.759 L2593.2 320.833 L2597.48 320.833 L2597.48 324.861 Q2598.94 322.477 2600.98 321.342 Q2603.01 320.208 2605.82 320.208 Q2608.64 320.208 2610.61 321.643 Q2612.6 323.079 2613.55 325.81 Z" fill="#000000" fill-rule="nonzero" fill-opacity="1" /><path clip-path="url(#clip610)" d="M2661.72 332.731 L2661.72 334.815 L2642.14 334.815 Q2642.41 339.213 2644.77 341.528 Q2647.16 343.819 2651.39 343.819 Q2653.85 343.819 2656.14 343.217 Q2658.45 342.615 2660.72 341.412 L2660.72 345.44 Q2658.43 346.412 2656.02 346.921 Q2653.62 347.43 2651.14 347.43 Q2644.94 347.43 2641.3 343.819 Q2637.69 340.208 2637.69 334.051 Q2637.69 327.685 2641.12 323.958 Q2644.57 320.208 2650.4 320.208 Q2655.63 320.208 2658.66 323.588 Q2661.72 326.944 2661.72 332.731 M2657.46 331.481 Q2657.41 327.986 2655.49 325.903 Q2653.59 323.819 2650.45 323.819 Q2646.88 323.819 2644.73 325.833 Q2642.6 327.847 2642.27 331.504 L2657.46 331.481 Z" fill="#000000" fill-rule="nonzero" fill-opacity="1" /><path clip-path="url(#clip610)" d="M2680.49 333.727 Q2675.33 333.727 2673.34 334.907 Q2671.35 336.088 2671.35 338.935 Q2671.35 341.203 2672.83 342.546 Q2674.33 343.865 2676.9 343.865 Q2680.45 343.865 2682.57 341.365 Q2684.73 338.842 2684.73 334.676 L2684.73 333.727 L2680.49 333.727 M2688.99 331.967 L2688.99 346.759 L2684.73 346.759 L2684.73 342.824 Q2683.27 345.185 2681.09 346.319 Q2678.92 347.43 2675.77 347.43 Q2671.79 347.43 2669.43 345.208 Q2667.09 342.963 2667.09 339.213 Q2667.09 334.838 2670.01 332.616 Q2672.95 330.393 2678.76 330.393 L2684.73 330.393 L2684.73 329.977 Q2684.73 327.037 2682.78 325.44 Q2680.86 323.819 2677.37 323.819 Q2675.14 323.819 2673.04 324.352 Q2670.93 324.884 2668.99 325.949 L2668.99 322.014 Q2671.32 321.111 2673.52 320.671 Q2675.72 320.208 2677.81 320.208 Q2683.43 320.208 2686.21 323.125 Q2688.99 326.041 2688.99 331.967 Z" fill="#000000" fill-rule="nonzero" fill-opacity="1" /><path clip-path="url(#clip610)" d="M2714.29 321.597 L2714.29 325.625 Q2712.48 324.699 2710.54 324.236 Q2708.59 323.773 2706.51 323.773 Q2703.34 323.773 2701.74 324.745 Q2700.17 325.717 2700.17 327.662 Q2700.17 329.143 2701.3 330 Q2702.44 330.833 2705.86 331.597 L2707.32 331.921 Q2711.86 332.893 2713.76 334.676 Q2715.68 336.435 2715.68 339.606 Q2715.68 343.217 2712.81 345.324 Q2709.96 347.43 2704.96 347.43 Q2702.88 347.43 2700.61 347.014 Q2698.36 346.62 2695.86 345.81 L2695.86 341.412 Q2698.22 342.639 2700.51 343.264 Q2702.81 343.865 2705.05 343.865 Q2708.06 343.865 2709.68 342.847 Q2711.3 341.805 2711.3 339.93 Q2711.3 338.194 2710.12 337.268 Q2708.96 336.342 2705.01 335.486 L2703.52 335.139 Q2699.57 334.305 2697.81 332.592 Q2696.05 330.856 2696.05 327.847 Q2696.05 324.19 2698.64 322.199 Q2701.23 320.208 2706 320.208 Q2708.36 320.208 2710.44 320.555 Q2712.53 320.903 2714.29 321.597 Z" fill="#000000" fill-rule="nonzero" fill-opacity="1" /><path clip-path="url(#clip610)" d="M2722.02 336.528 L2722.02 320.833 L2726.28 320.833 L2726.28 336.366 Q2726.28 340.046 2727.71 341.898 Q2729.15 343.727 2732.02 343.727 Q2735.47 343.727 2737.46 341.528 Q2739.47 339.328 2739.47 335.532 L2739.47 320.833 L2743.73 320.833 L2743.73 346.759 L2739.47 346.759 L2739.47 342.778 Q2737.92 345.139 2735.86 346.296 Q2733.82 347.43 2731.12 347.43 Q2726.65 347.43 2724.33 344.653 Q2722.02 341.875 2722.02 336.528 M2732.74 320.208 L2732.74 320.208 Z" fill="#000000" fill-rule="nonzero" fill-opacity="1" /><path clip-path="url(#clip610)" d="M2767.53 324.815 Q2766.81 324.398 2765.95 324.213 Q2765.12 324.004 2764.1 324.004 Q2760.49 324.004 2758.55 326.366 Q2756.63 328.704 2756.63 333.102 L2756.63 346.759 L2752.34 346.759 L2752.34 320.833 L2756.63 320.833 L2756.63 324.861 Q2757.97 322.5 2760.12 321.366 Q2762.27 320.208 2765.35 320.208 Q2765.79 320.208 2766.32 320.278 Q2766.86 320.324 2767.5 320.44 L2767.53 324.815 Z" fill="#000000" fill-rule="nonzero" fill-opacity="1" /><path clip-path="url(#clip610)" d="M2793.13 332.731 L2793.13 334.815 L2773.55 334.815 Q2773.82 339.213 2776.19 341.528 Q2778.57 343.819 2782.81 343.819 Q2785.26 343.819 2787.55 343.217 Q2789.87 342.615 2792.13 341.412 L2792.13 345.44 Q2789.84 346.412 2787.44 346.921 Q2785.03 347.43 2782.55 347.43 Q2776.35 347.43 2772.71 343.819 Q2769.1 340.208 2769.1 334.051 Q2769.1 327.685 2772.53 323.958 Q2775.98 320.208 2781.81 320.208 Q2787.04 320.208 2790.07 323.588 Q2793.13 326.944 2793.13 332.731 M2788.87 331.481 Q2788.82 327.986 2786.9 325.903 Q2785 323.819 2781.86 323.819 Q2778.29 323.819 2776.14 325.833 Q2774.01 327.847 2773.69 331.504 L2788.87 331.481 Z" fill="#000000" fill-rule="nonzero" fill-opacity="1" /><path clip-path="url(#clip610)" d="M2817.18 324.768 L2817.18 310.741 L2821.44 310.741 L2821.44 346.759 L2817.18 346.759 L2817.18 342.87 Q2815.84 345.185 2813.78 346.319 Q2811.74 347.43 2808.87 347.43 Q2804.17 347.43 2801.21 343.68 Q2798.27 339.93 2798.27 333.819 Q2798.27 327.708 2801.21 323.958 Q2804.17 320.208 2808.87 320.208 Q2811.74 320.208 2813.78 321.342 Q2815.84 322.454 2817.18 324.768 M2802.67 333.819 Q2802.67 338.518 2804.59 341.203 Q2806.53 343.865 2809.91 343.865 Q2813.29 343.865 2815.24 341.203 Q2817.18 338.518 2817.18 333.819 Q2817.18 329.12 2815.24 326.458 Q2813.29 323.773 2809.91 323.773 Q2806.53 323.773 2804.59 326.458 Q2802.67 329.12 2802.67 333.819 Z" fill="#000000" fill-rule="nonzero" fill-opacity="1" /><path clip-path="url(#clip610)" d="M2829.54 310.787 L2833.25 310.787 Q2836.72 316.25 2838.43 321.481 Q2840.17 326.713 2840.17 331.875 Q2840.17 337.06 2838.43 342.315 Q2836.72 347.569 2833.25 353.009 L2829.54 353.009 Q2832.62 347.708 2834.12 342.477 Q2835.65 337.222 2835.65 331.875 Q2835.65 326.528 2834.12 321.319 Q2832.62 316.111 2829.54 310.787 Z" fill="#000000" fill-rule="nonzero" fill-opacity="1" /><polyline clip-path="url(#clip610)" style="stroke:#009e73; stroke-linecap:round; stroke-linejoin:round; stroke-width:8; stroke-opacity:1; fill:none" points="2233.04,381.319 2401.93,381.319 "/>
<path clip-path="url(#clip610)" d="M2430.08 364.039 L2451.93 364.039 L2451.93 367.974 L2434.75 367.974 L2434.75 378.206 L2451.21 378.206 L2451.21 382.141 L2434.75 382.141 L2434.75 394.664 L2452.34 394.664 L2452.34 398.599 L2430.08 398.599 L2430.08 364.039 Z" fill="#000000" fill-rule="nonzero" fill-opacity="1" /><path clip-path="url(#clip610)" d="M2492.25 368.877 L2492.25 381.77 L2505.15 381.77 L2505.15 385.706 L2492.25 385.706 L2492.25 398.599 L2488.36 398.599 L2488.36 385.706 L2475.47 385.706 L2475.47 381.77 L2488.36 381.77 L2488.36 368.877 L2492.25 368.877 Z" fill="#000000" fill-rule="nonzero" fill-opacity="1" /><path clip-path="url(#clip610)" d="M2550.61 365.173 L2550.61 369.733 Q2547.95 368.46 2545.58 367.835 Q2543.22 367.21 2541.02 367.21 Q2537.21 367.21 2535.12 368.692 Q2533.06 370.173 2533.06 372.905 Q2533.06 375.196 2534.43 376.377 Q2535.82 377.534 2539.66 378.252 L2542.48 378.831 Q2547.71 379.826 2550.19 382.349 Q2552.69 384.849 2552.69 389.062 Q2552.69 394.085 2549.31 396.678 Q2545.95 399.27 2539.45 399.27 Q2537 399.27 2534.22 398.715 Q2531.46 398.159 2528.5 397.071 L2528.5 392.256 Q2531.35 393.854 2534.08 394.664 Q2536.81 395.474 2539.45 395.474 Q2543.46 395.474 2545.63 393.9 Q2547.81 392.326 2547.81 389.409 Q2547.81 386.863 2546.23 385.428 Q2544.68 383.993 2541.12 383.275 L2538.27 382.719 Q2533.04 381.678 2530.7 379.456 Q2528.36 377.233 2528.36 373.275 Q2528.36 368.692 2531.58 366.053 Q2534.82 363.414 2540.49 363.414 Q2542.92 363.414 2545.45 363.854 Q2547.97 364.294 2550.61 365.173 Z" fill="#000000" fill-rule="nonzero" fill-opacity="1" /><path clip-path="url(#clip610)" d="M2585.1 362.627 Q2582 367.951 2580.49 373.159 Q2578.99 378.368 2578.99 383.715 Q2578.99 389.062 2580.49 394.317 Q2582.02 399.548 2585.1 404.849 L2581.39 404.849 Q2577.92 399.409 2576.19 394.155 Q2574.47 388.9 2574.47 383.715 Q2574.47 378.553 2576.19 373.321 Q2577.9 368.09 2581.39 362.627 L2585.1 362.627 Z" fill="#000000" fill-rule="nonzero" fill-opacity="1" /><path clip-path="url(#clip610)" d="M2606.49 362.581 L2606.49 366.122 L2602.41 366.122 Q2600.12 366.122 2599.22 367.048 Q2598.34 367.974 2598.34 370.382 L2598.34 372.673 L2605.35 372.673 L2605.35 375.983 L2598.34 375.983 L2598.34 398.599 L2594.06 398.599 L2594.06 375.983 L2589.98 375.983 L2589.98 372.673 L2594.06 372.673 L2594.06 370.868 Q2594.06 366.539 2596.07 364.571 Q2598.08 362.581 2602.46 362.581 L2606.49 362.581 Z" fill="#000000" fill-rule="nonzero" fill-opacity="1" /><path clip-path="url(#clip610)" d="M2610.05 372.673 L2614.31 372.673 L2614.31 398.599 L2610.05 398.599 L2610.05 372.673 M2610.05 362.581 L2614.31 362.581 L2614.31 367.974 L2610.05 367.974 L2610.05 362.581 Z" fill="#000000" fill-rule="nonzero" fill-opacity="1" /><path clip-path="url(#clip610)" d="M2627.44 365.312 L2627.44 372.673 L2636.21 372.673 L2636.21 375.983 L2627.44 375.983 L2627.44 390.057 Q2627.44 393.229 2628.29 394.131 Q2629.17 395.034 2631.83 395.034 L2636.21 395.034 L2636.21 398.599 L2631.83 398.599 Q2626.9 398.599 2625.03 396.77 Q2623.15 394.918 2623.15 390.057 L2623.15 375.983 L2620.03 375.983 L2620.03 372.673 L2623.15 372.673 L2623.15 365.312 L2627.44 365.312 Z" fill="#000000" fill-rule="nonzero" fill-opacity="1" /><path clip-path="url(#clip610)" d="M2646.02 365.312 L2646.02 372.673 L2654.8 372.673 L2654.8 375.983 L2646.02 375.983 L2646.02 390.057 Q2646.02 393.229 2646.88 394.131 Q2647.76 395.034 2650.42 395.034 L2654.8 395.034 L2654.8 398.599 L2650.42 398.599 Q2645.49 398.599 2643.62 396.77 Q2641.74 394.918 2641.74 390.057 L2641.74 375.983 L2638.62 375.983 L2638.62 372.673 L2641.74 372.673 L2641.74 365.312 L2646.02 365.312 Z" fill="#000000" fill-rule="nonzero" fill-opacity="1" /><path clip-path="url(#clip610)" d="M2682.57 384.571 L2682.57 386.655 L2662.99 386.655 Q2663.27 391.053 2665.63 393.368 Q2668.01 395.659 2672.25 395.659 Q2674.7 395.659 2677 395.057 Q2679.31 394.455 2681.58 393.252 L2681.58 397.28 Q2679.29 398.252 2676.88 398.761 Q2674.47 399.27 2672 399.27 Q2665.79 399.27 2662.16 395.659 Q2658.55 392.048 2658.55 385.891 Q2658.55 379.525 2661.97 375.798 Q2665.42 372.048 2671.26 372.048 Q2676.49 372.048 2679.52 375.428 Q2682.57 378.784 2682.57 384.571 M2678.32 383.321 Q2678.27 379.826 2676.35 377.743 Q2674.45 375.659 2671.3 375.659 Q2667.74 375.659 2665.58 377.673 Q2663.45 379.687 2663.13 383.344 L2678.32 383.321 Z" fill="#000000" fill-rule="nonzero" fill-opacity="1" /><path clip-path="url(#clip610)" d="M2706.63 376.608 L2706.63 362.581 L2710.88 362.581 L2710.88 398.599 L2706.63 398.599 L2706.63 394.71 Q2705.28 397.025 2703.22 398.159 Q2701.19 399.27 2698.32 399.27 Q2693.62 399.27 2690.65 395.52 Q2687.71 391.77 2687.71 385.659 Q2687.71 379.548 2690.65 375.798 Q2693.62 372.048 2698.32 372.048 Q2701.19 372.048 2703.22 373.182 Q2705.28 374.294 2706.63 376.608 M2692.11 385.659 Q2692.11 390.358 2694.03 393.043 Q2695.98 395.705 2699.36 395.705 Q2702.74 395.705 2704.68 393.043 Q2706.63 390.358 2706.63 385.659 Q2706.63 380.96 2704.68 378.298 Q2702.74 375.613 2699.36 375.613 Q2695.98 375.613 2694.03 378.298 Q2692.11 380.96 2692.11 385.659 Z" fill="#000000" fill-rule="nonzero" fill-opacity="1" /><path clip-path="url(#clip610)" d="M2718.99 362.627 L2722.69 362.627 Q2726.16 368.09 2727.88 373.321 Q2729.61 378.553 2729.61 383.715 Q2729.61 388.9 2727.88 394.155 Q2726.16 399.409 2722.69 404.849 L2718.99 404.849 Q2722.07 399.548 2723.57 394.317 Q2725.1 389.062 2725.1 383.715 Q2725.1 378.368 2723.57 373.159 Q2722.07 367.951 2718.99 362.627 Z" fill="#000000" fill-rule="nonzero" fill-opacity="1" /></svg>
