<?xml version="1.0" encoding="utf-8"?>
<svg xmlns="http://www.w3.org/2000/svg" xmlns:xlink="http://www.w3.org/1999/xlink" width="600" height="400" viewBox="0 0 2400 1600">
<defs>
  <clipPath id="clip530">
    <rect x="0" y="0" width="2400" height="1600"/>
  </clipPath>
</defs>
<path clip-path="url(#clip530)" d="M0 1600 L2400 1600 L2400 0 L0 0  Z" fill="#ffffff" fill-rule="evenodd" fill-opacity="1"/>
<defs>
  <clipPath id="clip531">
    <rect x="480" y="0" width="1681" height="1600"/>
  </clipPath>
</defs>
<path clip-path="url(#clip530)" d="M400.39 1305.35 L2352.76 1305.35 L2352.76 123.472 L400.39 123.472  Z" fill="#ffffff" fill-rule="evenodd" fill-opacity="1"/>
<defs>
  <clipPath id="clip532">
    <rect x="400" y="123" width="1953" height="1183"/>
  </clipPath>
</defs>
<polyline clip-path="url(#clip532)" style="stroke:#000000; stroke-linecap:round; stroke-linejoin:round; stroke-width:2; stroke-opacity:0.1; fill:none" points="455.646,1305.35 455.646,123.472 "/>
<polyline clip-path="url(#clip532)" style="stroke:#000000; stroke-linecap:round; stroke-linejoin:round; stroke-width:2; stroke-opacity:0.1; fill:none" points="916.109,1305.35 916.109,123.472 "/>
<polyline clip-path="url(#clip532)" style="stroke:#000000; stroke-linecap:round; stroke-linejoin:round; stroke-width:2; stroke-opacity:0.1; fill:none" points="1376.57,1305.35 1376.57,123.472 "/>
<polyline clip-path="url(#clip532)" style="stroke:#000000; stroke-linecap:round; stroke-linejoin:round; stroke-width:2; stroke-opacity:0.1; fill:none" points="1837.04,1305.35 1837.04,123.472 "/>
<polyline clip-path="url(#clip532)" style="stroke:#000000; stroke-linecap:round; stroke-linejoin:round; stroke-width:2; stroke-opacity:0.1; fill:none" points="2297.5,1305.35 2297.5,123.472 "/>
<polyline clip-path="url(#clip530)" style="stroke:#000000; stroke-linecap:round; stroke-linejoin:round; stroke-width:4; stroke-opacity:1; fill:none" points="400.39,1305.35 2352.76,1305.35 "/>
<polyline clip-path="url(#clip530)" style="stroke:#000000; stroke-linecap:round; stroke-linejoin:round; stroke-width:4; stroke-opacity:1; fill:none" points="455.646,1305.35 455.646,1286.45 "/>
<polyline clip-path="url(#clip530)" style="stroke:#000000; stroke-linecap:round; stroke-linejoin:round; stroke-width:4; stroke-opacity:1; fill:none" points="916.109,1305.35 916.109,1286.45 "/>
<polyline clip-path="url(#clip530)" style="stroke:#000000; stroke-linecap:round; stroke-linejoin:round; stroke-width:4; stroke-opacity:1; fill:none" points="1376.57,1305.35 1376.57,1286.45 "/>
<polyline clip-path="url(#clip530)" style="stroke:#000000; stroke-linecap:round; stroke-linejoin:round; stroke-width:4; stroke-opacity:1; fill:none" points="1837.04,1305.35 1837.04,1286.45 "/>
<polyline clip-path="url(#clip530)" style="stroke:#000000; stroke-linecap:round; stroke-linejoin:round; stroke-width:4; stroke-opacity:1; fill:none" points="2297.5,1305.35 2297.5,1286.45 "/>
<path clip-path="url(#clip530)" d="M433.03 1336.26 Q429.419 1336.26 427.59 1339.83 Q425.785 1343.37 425.785 1350.5 Q425.785 1357.61 427.59 1361.17 Q429.419 1364.71 433.03 1364.71 Q436.664 1364.71 438.47 1361.17 Q440.298 1357.61 440.298 1350.5 Q440.298 1343.37 438.47 1339.83 Q436.664 1336.26 433.03 1336.26 M433.03 1332.56 Q438.84 1332.56 441.896 1337.17 Q444.974 1341.75 444.974 1350.5 Q444.974 1359.23 441.896 1363.83 Q438.84 1368.42 433.03 1368.42 Q427.22 1368.42 424.141 1363.83 Q421.086 1359.23 421.086 1350.5 Q421.086 1341.75 424.141 1337.17 Q427.22 1332.56 433.03 1332.56 Z" fill="#000000" fill-rule="nonzero" fill-opacity="1" /><path clip-path="url(#clip530)" d="M453.192 1361.87 L458.076 1361.87 L458.076 1367.75 L453.192 1367.75 L453.192 1361.87 Z" fill="#000000" fill-rule="nonzero" fill-opacity="1" /><path clip-path="url(#clip530)" d="M478.261 1336.26 Q474.65 1336.26 472.821 1339.83 Q471.016 1343.37 471.016 1350.5 Q471.016 1357.61 472.821 1361.17 Q474.65 1364.71 478.261 1364.71 Q481.895 1364.71 483.701 1361.17 Q485.53 1357.61 485.53 1350.5 Q485.53 1343.37 483.701 1339.83 Q481.895 1336.26 478.261 1336.26 M478.261 1332.56 Q484.071 1332.56 487.127 1337.17 Q490.206 1341.75 490.206 1350.5 Q490.206 1359.23 487.127 1363.83 Q484.071 1368.42 478.261 1368.42 Q472.451 1368.42 469.372 1363.83 Q466.317 1359.23 466.317 1350.5 Q466.317 1341.75 469.372 1337.17 Q472.451 1332.56 478.261 1332.56 Z" fill="#000000" fill-rule="nonzero" fill-opacity="1" /><path clip-path="url(#clip530)" d="M887.846 1363.81 L904.165 1363.81 L904.165 1367.75 L882.221 1367.75 L882.221 1363.81 Q884.883 1361.06 889.466 1356.43 Q894.072 1351.77 895.253 1350.43 Q897.498 1347.91 898.378 1346.17 Q899.281 1344.41 899.281 1342.72 Q899.281 1339.97 897.336 1338.23 Q895.415 1336.5 892.313 1336.5 Q890.114 1336.5 887.66 1337.26 Q885.23 1338.02 882.452 1339.57 L882.452 1334.85 Q885.276 1333.72 887.73 1333.14 Q890.183 1332.56 892.22 1332.56 Q897.591 1332.56 900.785 1335.25 Q903.98 1337.93 903.98 1342.42 Q903.98 1344.55 903.169 1346.47 Q902.382 1348.37 900.276 1350.96 Q899.697 1351.63 896.595 1354.85 Q893.494 1358.05 887.846 1363.81 Z" fill="#000000" fill-rule="nonzero" fill-opacity="1" /><path clip-path="url(#clip530)" d="M913.98 1361.87 L918.864 1361.87 L918.864 1367.75 L913.98 1367.75 L913.98 1361.87 Z" fill="#000000" fill-rule="nonzero" fill-opacity="1" /><path clip-path="url(#clip530)" d="M929.095 1333.19 L947.452 1333.19 L947.452 1337.12 L933.378 1337.12 L933.378 1345.59 Q934.396 1345.25 935.415 1345.08 Q936.433 1344.9 937.452 1344.9 Q943.239 1344.9 946.618 1348.07 Q949.998 1351.24 949.998 1356.66 Q949.998 1362.24 946.526 1365.34 Q943.054 1368.42 936.734 1368.42 Q934.558 1368.42 932.29 1368.05 Q930.044 1367.68 927.637 1366.94 L927.637 1362.24 Q929.72 1363.37 931.942 1363.93 Q934.165 1364.48 936.642 1364.48 Q940.646 1364.48 942.984 1362.38 Q945.322 1360.27 945.322 1356.66 Q945.322 1353.05 942.984 1350.94 Q940.646 1348.83 936.642 1348.83 Q934.767 1348.83 932.892 1349.25 Q931.04 1349.67 929.095 1350.55 L929.095 1333.19 Z" fill="#000000" fill-rule="nonzero" fill-opacity="1" /><path clip-path="url(#clip530)" d="M1343.74 1333.19 L1362.09 1333.19 L1362.09 1337.12 L1348.02 1337.12 L1348.02 1345.59 Q1349.04 1345.25 1350.06 1345.08 Q1351.08 1344.9 1352.09 1344.9 Q1357.88 1344.9 1361.26 1348.07 Q1364.64 1351.24 1364.64 1356.66 Q1364.64 1362.24 1361.17 1365.34 Q1357.7 1368.42 1351.38 1368.42 Q1349.2 1368.42 1346.93 1368.05 Q1344.69 1367.68 1342.28 1366.94 L1342.28 1362.24 Q1344.36 1363.37 1346.58 1363.93 Q1348.81 1364.48 1351.28 1364.48 Q1355.29 1364.48 1357.63 1362.38 Q1359.96 1360.27 1359.96 1356.66 Q1359.96 1353.05 1357.63 1350.94 Q1355.29 1348.83 1351.28 1348.83 Q1349.41 1348.83 1347.53 1349.25 Q1345.68 1349.67 1343.74 1350.55 L1343.74 1333.19 Z" fill="#000000" fill-rule="nonzero" fill-opacity="1" /><path clip-path="url(#clip530)" d="M1373.85 1361.87 L1378.74 1361.87 L1378.74 1367.75 L1373.85 1367.75 L1373.85 1361.87 Z" fill="#000000" fill-rule="nonzero" fill-opacity="1" /><path clip-path="url(#clip530)" d="M1398.92 1336.26 Q1395.31 1336.26 1393.48 1339.83 Q1391.68 1343.37 1391.68 1350.5 Q1391.68 1357.61 1393.48 1361.17 Q1395.31 1364.71 1398.92 1364.71 Q1402.56 1364.71 1404.36 1361.17 Q1406.19 1357.61 1406.19 1350.5 Q1406.19 1343.37 1404.36 1339.83 Q1402.56 1336.26 1398.92 1336.26 M1398.92 1332.56 Q1404.73 1332.56 1407.79 1337.17 Q1410.87 1341.75 1410.87 1350.5 Q1410.87 1359.23 1407.79 1363.83 Q1404.73 1368.42 1398.92 1368.42 Q1393.11 1368.42 1390.03 1363.83 Q1386.98 1359.23 1386.98 1350.5 Q1386.98 1341.75 1390.03 1337.17 Q1393.11 1332.56 1398.92 1332.56 Z" fill="#000000" fill-rule="nonzero" fill-opacity="1" /><path clip-path="url(#clip530)" d="M1803.36 1333.19 L1825.58 1333.19 L1825.58 1335.18 L1813.03 1367.75 L1808.15 1367.75 L1819.95 1337.12 L1803.36 1337.12 L1803.36 1333.19 Z" fill="#000000" fill-rule="nonzero" fill-opacity="1" /><path clip-path="url(#clip530)" d="M1834.7 1361.87 L1839.58 1361.87 L1839.58 1367.75 L1834.7 1367.75 L1834.7 1361.87 Z" fill="#000000" fill-rule="nonzero" fill-opacity="1" /><path clip-path="url(#clip530)" d="M1849.81 1333.19 L1868.17 1333.19 L1868.17 1337.12 L1854.1 1337.12 L1854.1 1345.59 Q1855.12 1345.25 1856.13 1345.08 Q1857.15 1344.9 1858.17 1344.9 Q1863.96 1344.9 1867.34 1348.07 Q1870.72 1351.24 1870.72 1356.66 Q1870.72 1362.24 1867.24 1365.34 Q1863.77 1368.42 1857.45 1368.42 Q1855.28 1368.42 1853.01 1368.05 Q1850.76 1367.68 1848.36 1366.94 L1848.36 1362.24 Q1850.44 1363.37 1852.66 1363.93 Q1854.88 1364.48 1857.36 1364.48 Q1861.37 1364.48 1863.7 1362.38 Q1866.04 1360.27 1866.04 1356.66 Q1866.04 1353.05 1863.7 1350.94 Q1861.37 1348.83 1857.36 1348.83 Q1855.49 1348.83 1853.61 1349.25 Q1851.76 1349.67 1849.81 1350.55 L1849.81 1333.19 Z" fill="#000000" fill-rule="nonzero" fill-opacity="1" /><path clip-path="url(#clip530)" d="M2249.57 1363.81 L2257.21 1363.81 L2257.21 1337.44 L2248.9 1339.11 L2248.9 1334.85 L2257.16 1333.19 L2261.84 1333.19 L2261.84 1363.81 L2269.48 1363.81 L2269.48 1367.75 L2249.57 1367.75 L2249.57 1363.81 Z" fill="#000000" fill-rule="nonzero" fill-opacity="1" /><path clip-path="url(#clip530)" d="M2288.92 1336.26 Q2285.31 1336.26 2283.48 1339.83 Q2281.68 1343.37 2281.68 1350.5 Q2281.68 1357.61 2283.48 1361.17 Q2285.31 1364.71 2288.92 1364.71 Q2292.56 1364.71 2294.36 1361.17 Q2296.19 1357.61 2296.19 1350.5 Q2296.19 1343.37 2294.36 1339.83 Q2292.56 1336.26 2288.92 1336.26 M2288.92 1332.56 Q2294.73 1332.56 2297.79 1337.17 Q2300.87 1341.75 2300.87 1350.5 Q2300.87 1359.23 2297.79 1363.83 Q2294.73 1368.42 2288.92 1368.42 Q2283.11 1368.42 2280.04 1363.83 Q2276.98 1359.23 2276.98 1350.5 Q2276.98 1341.75 2280.04 1337.17 Q2283.11 1332.56 2288.92 1332.56 Z" fill="#000000" fill-rule="nonzero" fill-opacity="1" /><path clip-path="url(#clip530)" d="M2309.09 1361.87 L2313.97 1361.87 L2313.97 1367.75 L2309.09 1367.75 L2309.09 1361.87 Z" fill="#000000" fill-rule="nonzero" fill-opacity="1" /><path clip-path="url(#clip530)" d="M2334.16 1336.26 Q2330.54 1336.26 2328.72 1339.83 Q2326.91 1343.37 2326.91 1350.5 Q2326.91 1357.61 2328.72 1361.17 Q2330.54 1364.71 2334.16 1364.71 Q2337.79 1364.71 2339.59 1361.17 Q2341.42 1357.61 2341.42 1350.5 Q2341.42 1343.37 2339.59 1339.83 Q2337.79 1336.26 2334.16 1336.26 M2334.16 1332.56 Q2339.97 1332.56 2343.02 1337.17 Q2346.1 1341.75 2346.1 1350.5 Q2346.1 1359.23 2343.02 1363.83 Q2339.97 1368.42 2334.16 1368.42 Q2328.35 1368.42 2325.27 1363.83 Q2322.21 1359.23 2322.21 1350.5 Q2322.21 1341.75 2325.27 1337.17 Q2328.35 1332.56 2334.16 1332.56 Z" fill="#000000" fill-rule="nonzero" fill-opacity="1" /><polyline clip-path="url(#clip532)" style="stroke:#000000; stroke-linecap:round; stroke-linejoin:round; stroke-width:2; stroke-opacity:0.1; fill:none" points="400.39,1097.21 2352.76,1097.21 "/>
<polyline clip-path="url(#clip532)" style="stroke:#000000; stroke-linecap:round; stroke-linejoin:round; stroke-width:2; stroke-opacity:0.1; fill:none" points="400.39,848.358 2352.76,848.358 "/>
<polyline clip-path="url(#clip532)" style="stroke:#000000; stroke-linecap:round; stroke-linejoin:round; stroke-width:2; stroke-opacity:0.1; fill:none" points="400.39,599.51 2352.76,599.51 "/>
<polyline clip-path="url(#clip532)" style="stroke:#000000; stroke-linecap:round; stroke-linejoin:round; stroke-width:2; stroke-opacity:0.1; fill:none" points="400.39,350.663 2352.76,350.663 "/>
<polyline clip-path="url(#clip530)" style="stroke:#000000; stroke-linecap:round; stroke-linejoin:round; stroke-width:4; stroke-opacity:1; fill:none" points="400.39,1305.35 400.39,123.472 "/>
<polyline clip-path="url(#clip530)" style="stroke:#000000; stroke-linecap:round; stroke-linejoin:round; stroke-width:4; stroke-opacity:1; fill:none" points="400.39,1097.21 419.288,1097.21 "/>
<polyline clip-path="url(#clip530)" style="stroke:#000000; stroke-linecap:round; stroke-linejoin:round; stroke-width:4; stroke-opacity:1; fill:none" points="400.39,848.358 419.288,848.358 "/>
<polyline clip-path="url(#clip530)" style="stroke:#000000; stroke-linecap:round; stroke-linejoin:round; stroke-width:4; stroke-opacity:1; fill:none" points="400.39,599.51 419.288,599.51 "/>
<polyline clip-path="url(#clip530)" style="stroke:#000000; stroke-linecap:round; stroke-linejoin:round; stroke-width:4; stroke-opacity:1; fill:none" points="400.39,350.663 419.288,350.663 "/>
<path clip-path="url(#clip530)" d="M308.117 1083 Q304.506 1083 302.677 1086.57 Q300.872 1090.11 300.872 1097.24 Q300.872 1104.35 302.677 1107.91 Q304.506 1111.45 308.117 1111.45 Q311.751 1111.45 313.557 1107.91 Q315.386 1104.35 315.386 1097.24 Q315.386 1090.11 313.557 1086.57 Q311.751 1083 308.117 1083 M308.117 1079.3 Q313.927 1079.3 316.983 1083.91 Q320.061 1088.49 320.061 1097.24 Q320.061 1105.97 316.983 1110.57 Q313.927 1115.16 308.117 1115.16 Q302.307 1115.16 299.228 1110.57 Q296.173 1105.97 296.173 1097.24 Q296.173 1088.49 299.228 1083.91 Q302.307 1079.3 308.117 1079.3 Z" fill="#000000" fill-rule="nonzero" fill-opacity="1" /><path clip-path="url(#clip530)" d="M328.279 1108.61 L333.163 1108.61 L333.163 1114.49 L328.279 1114.49 L328.279 1108.61 Z" fill="#000000" fill-rule="nonzero" fill-opacity="1" /><path clip-path="url(#clip530)" d="M342.168 1079.93 L364.39 1079.93 L364.39 1081.92 L351.844 1114.49 L346.959 1114.49 L358.765 1083.86 L342.168 1083.86 L342.168 1079.93 Z" fill="#000000" fill-rule="nonzero" fill-opacity="1" /><path clip-path="url(#clip530)" d="M307.307 834.156 Q303.696 834.156 301.867 837.721 Q300.062 841.263 300.062 848.392 Q300.062 855.499 301.867 859.064 Q303.696 862.605 307.307 862.605 Q310.941 862.605 312.747 859.064 Q314.575 855.499 314.575 848.392 Q314.575 841.263 312.747 837.721 Q310.941 834.156 307.307 834.156 M307.307 830.453 Q313.117 830.453 316.173 835.059 Q319.251 839.643 319.251 848.392 Q319.251 857.119 316.173 861.726 Q313.117 866.309 307.307 866.309 Q301.497 866.309 298.418 861.726 Q295.363 857.119 295.363 848.392 Q295.363 839.643 298.418 835.059 Q301.497 830.453 307.307 830.453 Z" fill="#000000" fill-rule="nonzero" fill-opacity="1" /><path clip-path="url(#clip530)" d="M327.469 859.758 L332.353 859.758 L332.353 865.638 L327.469 865.638 L327.469 859.758 Z" fill="#000000" fill-rule="nonzero" fill-opacity="1" /><path clip-path="url(#clip530)" d="M352.538 849.226 Q349.205 849.226 347.284 851.008 Q345.385 852.791 345.385 855.916 Q345.385 859.041 347.284 860.823 Q349.205 862.605 352.538 862.605 Q355.871 862.605 357.793 860.823 Q359.714 859.017 359.714 855.916 Q359.714 852.791 357.793 851.008 Q355.895 849.226 352.538 849.226 M347.862 847.235 Q344.853 846.494 343.163 844.434 Q341.497 842.374 341.497 839.411 Q341.497 835.268 344.436 832.86 Q347.399 830.453 352.538 830.453 Q357.7 830.453 360.64 832.86 Q363.58 835.268 363.58 839.411 Q363.58 842.374 361.89 844.434 Q360.223 846.494 357.237 847.235 Q360.617 848.022 362.492 850.314 Q364.39 852.605 364.39 855.916 Q364.39 860.939 361.311 863.624 Q358.256 866.309 352.538 866.309 Q346.821 866.309 343.742 863.624 Q340.686 860.939 340.686 855.916 Q340.686 852.605 342.584 850.314 Q344.483 848.022 347.862 847.235 M346.149 839.851 Q346.149 842.536 347.816 844.041 Q349.506 845.545 352.538 845.545 Q355.547 845.545 357.237 844.041 Q358.95 842.536 358.95 839.851 Q358.95 837.166 357.237 835.661 Q355.547 834.156 352.538 834.156 Q349.506 834.156 347.816 835.661 Q346.149 837.166 346.149 839.851 Z" fill="#000000" fill-rule="nonzero" fill-opacity="1" /><path clip-path="url(#clip530)" d="M307.399 585.309 Q303.788 585.309 301.96 588.874 Q300.154 592.415 300.154 599.545 Q300.154 606.651 301.96 610.216 Q303.788 613.758 307.399 613.758 Q311.034 613.758 312.839 610.216 Q314.668 606.651 314.668 599.545 Q314.668 592.415 312.839 588.874 Q311.034 585.309 307.399 585.309 M307.399 581.605 Q313.21 581.605 316.265 586.212 Q319.344 590.795 319.344 599.545 Q319.344 608.272 316.265 612.878 Q313.21 617.462 307.399 617.462 Q301.589 617.462 298.511 612.878 Q295.455 608.272 295.455 599.545 Q295.455 590.795 298.511 586.212 Q301.589 581.605 307.399 581.605 Z" fill="#000000" fill-rule="nonzero" fill-opacity="1" /><path clip-path="url(#clip530)" d="M327.561 610.911 L332.446 610.911 L332.446 616.79 L327.561 616.79 L327.561 610.911 Z" fill="#000000" fill-rule="nonzero" fill-opacity="1" /><path clip-path="url(#clip530)" d="M342.77 616.073 L342.77 611.813 Q344.529 612.647 346.334 613.087 Q348.14 613.526 349.876 613.526 Q354.506 613.526 356.936 610.425 Q359.39 607.3 359.737 600.957 Q358.395 602.948 356.334 604.013 Q354.274 605.077 351.774 605.077 Q346.589 605.077 343.557 601.952 Q340.547 598.804 340.547 593.365 Q340.547 588.04 343.696 584.823 Q346.844 581.605 352.075 581.605 Q358.071 581.605 361.219 586.212 Q364.39 590.795 364.39 599.545 Q364.39 607.716 360.501 612.601 Q356.635 617.462 350.084 617.462 Q348.325 617.462 346.52 617.114 Q344.714 616.767 342.77 616.073 M352.075 601.42 Q355.223 601.42 357.052 599.267 Q358.904 597.114 358.904 593.365 Q358.904 589.638 357.052 587.485 Q355.223 585.309 352.075 585.309 Q348.927 585.309 347.075 587.485 Q345.247 589.638 345.247 593.365 Q345.247 597.114 347.075 599.267 Q348.927 601.42 352.075 601.42 Z" fill="#000000" fill-rule="nonzero" fill-opacity="1" /><path clip-path="url(#clip530)" d="M298.025 364.008 L305.663 364.008 L305.663 337.642 L297.353 339.309 L297.353 335.05 L305.617 333.383 L310.293 333.383 L310.293 364.008 L317.932 364.008 L317.932 367.943 L298.025 367.943 L298.025 364.008 Z" fill="#000000" fill-rule="nonzero" fill-opacity="1" /><path clip-path="url(#clip530)" d="M327.376 362.063 L332.26 362.063 L332.26 367.943 L327.376 367.943 L327.376 362.063 Z" fill="#000000" fill-rule="nonzero" fill-opacity="1" /><path clip-path="url(#clip530)" d="M352.446 336.462 Q348.834 336.462 347.006 340.026 Q345.2 343.568 345.2 350.698 Q345.2 357.804 347.006 361.369 Q348.834 364.91 352.446 364.91 Q356.08 364.91 357.885 361.369 Q359.714 357.804 359.714 350.698 Q359.714 343.568 357.885 340.026 Q356.08 336.462 352.446 336.462 M352.446 332.758 Q358.256 332.758 361.311 337.364 Q364.39 341.948 364.39 350.698 Q364.39 359.424 361.311 364.031 Q358.256 368.614 352.446 368.614 Q346.635 368.614 343.557 364.031 Q340.501 359.424 340.501 350.698 Q340.501 341.948 343.557 337.364 Q346.635 332.758 352.446 332.758 Z" fill="#000000" fill-rule="nonzero" fill-opacity="1" /><path clip-path="url(#clip530)" d="M201.247 902.054 L208.026 902.054 Q205.003 905.3 203.507 908.993 Q202.011 912.653 202.011 916.791 Q202.011 924.939 207.008 929.267 Q211.973 933.596 221.394 933.596 Q230.784 933.596 235.781 929.267 Q240.746 924.939 240.746 916.791 Q240.746 912.653 239.25 908.993 Q237.754 905.3 234.73 902.054 L241.446 902.054 Q243.738 905.428 244.884 909.215 Q246.03 912.971 246.03 917.172 Q246.03 927.962 239.441 934.169 Q232.821 940.375 221.394 940.375 Q209.936 940.375 203.347 934.169 Q196.727 927.962 196.727 917.172 Q196.727 912.907 197.873 909.152 Q198.987 905.364 201.247 902.054 Z" fill="#000000" fill-rule="nonzero" fill-opacity="1" /><path clip-path="url(#clip530)" d="M213.564 878.564 Q213.564 883.275 217.257 886.012 Q220.917 888.75 227.314 888.75 Q233.712 888.75 237.404 886.044 Q241.064 883.307 241.064 878.564 Q241.064 873.886 237.372 871.148 Q233.68 868.411 227.314 868.411 Q220.98 868.411 217.288 871.148 Q213.564 873.886 213.564 878.564 M208.599 878.564 Q208.599 870.926 213.564 866.565 Q218.53 862.205 227.314 862.205 Q236.067 862.205 241.064 866.565 Q246.03 870.926 246.03 878.564 Q246.03 886.235 241.064 890.596 Q236.067 894.924 227.314 894.924 Q218.53 894.924 213.564 890.596 Q208.599 886.235 208.599 878.564 Z" fill="#000000" fill-rule="nonzero" fill-opacity="1" /><path clip-path="url(#clip530)" d="M223.59 822.865 L245.107 822.865 L245.107 828.721 L223.781 828.721 Q218.721 828.721 216.206 830.694 Q213.692 832.668 213.692 836.614 Q213.692 841.357 216.715 844.094 Q219.739 846.831 224.959 846.831 L245.107 846.831 L245.107 852.72 L209.459 852.72 L209.459 846.831 L214.997 846.831 Q211.782 844.731 210.191 841.898 Q208.599 839.033 208.599 835.31 Q208.599 829.167 212.419 826.016 Q216.206 822.865 223.59 822.865 Z" fill="#000000" fill-rule="nonzero" fill-opacity="1" /><path clip-path="url(#clip530)" d="M210.827 785.53 L216.302 785.53 Q214.933 788.012 214.265 790.527 Q213.564 793.009 213.564 795.556 Q213.564 801.253 217.193 804.404 Q220.79 807.555 227.314 807.555 Q233.839 807.555 237.468 804.404 Q241.064 801.253 241.064 795.556 Q241.064 793.009 240.396 790.527 Q239.696 788.012 238.327 785.53 L243.738 785.53 Q244.884 787.98 245.457 790.622 Q246.03 793.232 246.03 796.192 Q246.03 804.245 240.969 808.987 Q235.908 813.73 227.314 813.73 Q218.593 813.73 213.596 808.955 Q208.599 804.149 208.599 795.81 Q208.599 793.105 209.172 790.527 Q209.713 787.949 210.827 785.53 Z" fill="#000000" fill-rule="nonzero" fill-opacity="1" /><path clip-path="url(#clip530)" d="M225.818 744.853 L228.683 744.853 L228.683 771.78 Q234.73 771.398 237.913 768.151 Q241.064 764.873 241.064 759.048 Q241.064 755.675 240.237 752.523 Q239.409 749.341 237.754 746.221 L243.292 746.221 Q244.629 749.372 245.329 752.683 Q246.03 755.993 246.03 759.398 Q246.03 767.928 241.064 772.926 Q236.099 777.891 227.633 777.891 Q218.88 777.891 213.755 773.18 Q208.599 768.438 208.599 760.417 Q208.599 753.224 213.246 749.054 Q217.861 744.853 225.818 744.853 M224.1 750.709 Q219.294 750.773 216.429 753.415 Q213.564 756.025 213.564 760.353 Q213.564 765.255 216.334 768.215 Q219.103 771.143 224.132 771.589 L224.1 750.709 Z" fill="#000000" fill-rule="nonzero" fill-opacity="1" /><path clip-path="url(#clip530)" d="M223.59 705.608 L245.107 705.608 L245.107 711.465 L223.781 711.465 Q218.721 711.465 216.206 713.438 Q213.692 715.411 213.692 719.358 Q213.692 724.101 216.715 726.838 Q219.739 729.575 224.959 729.575 L245.107 729.575 L245.107 735.463 L209.459 735.463 L209.459 729.575 L214.997 729.575 Q211.782 727.474 210.191 724.642 Q208.599 721.777 208.599 718.053 Q208.599 711.91 212.419 708.759 Q216.206 705.608 223.59 705.608 Z" fill="#000000" fill-rule="nonzero" fill-opacity="1" /><path clip-path="url(#clip530)" d="M199.337 688.134 L209.459 688.134 L209.459 676.071 L214.01 676.071 L214.01 688.134 L233.362 688.134 Q237.722 688.134 238.964 686.957 Q240.205 685.747 240.205 682.087 L240.205 676.071 L245.107 676.071 L245.107 682.087 Q245.107 688.866 242.592 691.445 Q240.046 694.023 233.362 694.023 L214.01 694.023 L214.01 698.319 L209.459 698.319 L209.459 694.023 L199.337 694.023 L199.337 688.134 Z" fill="#000000" fill-rule="nonzero" fill-opacity="1" /><path clip-path="url(#clip530)" d="M214.933 647.712 Q214.36 648.699 214.106 649.876 Q213.819 651.022 213.819 652.423 Q213.819 657.388 217.066 660.062 Q220.28 662.703 226.328 662.703 L245.107 662.703 L245.107 668.592 L209.459 668.592 L209.459 662.703 L214.997 662.703 Q211.75 660.857 210.191 657.897 Q208.599 654.937 208.599 650.704 Q208.599 650.099 208.695 649.367 Q208.758 648.635 208.917 647.744 L214.933 647.712 Z" fill="#000000" fill-rule="nonzero" fill-opacity="1" /><path clip-path="url(#clip530)" d="M227.187 625.368 Q227.187 632.466 228.81 635.204 Q230.434 637.941 234.348 637.941 Q237.468 637.941 239.314 635.904 Q241.128 633.835 241.128 630.302 Q241.128 625.432 237.69 622.504 Q234.221 619.544 228.492 619.544 L227.187 619.544 L227.187 625.368 M224.768 613.687 L245.107 613.687 L245.107 619.544 L239.696 619.544 Q242.942 621.549 244.502 624.541 Q246.03 627.533 246.03 631.862 Q246.03 637.336 242.974 640.583 Q239.887 643.797 234.73 643.797 Q228.715 643.797 225.659 639.787 Q222.604 635.745 222.604 627.756 L222.604 619.544 L222.031 619.544 Q217.989 619.544 215.792 622.217 Q213.564 624.859 213.564 629.665 Q213.564 632.721 214.296 635.617 Q215.029 638.514 216.493 641.187 L211.082 641.187 Q209.841 637.973 209.236 634.949 Q208.599 631.925 208.599 629.061 Q208.599 621.326 212.61 617.507 Q216.62 613.687 224.768 613.687 Z" fill="#000000" fill-rule="nonzero" fill-opacity="1" /><path clip-path="url(#clip530)" d="M199.337 595.832 L209.459 595.832 L209.459 583.769 L214.01 583.769 L214.01 595.832 L233.362 595.832 Q237.722 595.832 238.964 594.654 Q240.205 593.444 240.205 589.784 L240.205 583.769 L245.107 583.769 L245.107 589.784 Q245.107 596.564 242.592 599.142 Q240.046 601.72 233.362 601.72 L214.01 601.72 L214.01 606.017 L209.459 606.017 L209.459 601.72 L199.337 601.72 L199.337 595.832 Z" fill="#000000" fill-rule="nonzero" fill-opacity="1" /><path clip-path="url(#clip530)" d="M209.459 576.066 L209.459 570.21 L245.107 570.21 L245.107 576.066 L209.459 576.066 M195.581 576.066 L195.581 570.21 L202.997 570.21 L202.997 576.066 L195.581 576.066 Z" fill="#000000" fill-rule="nonzero" fill-opacity="1" /><path clip-path="url(#clip530)" d="M213.564 544.142 Q213.564 548.853 217.257 551.59 Q220.917 554.327 227.314 554.327 Q233.712 554.327 237.404 551.622 Q241.064 548.885 241.064 544.142 Q241.064 539.463 237.372 536.726 Q233.68 533.989 227.314 533.989 Q220.98 533.989 217.288 536.726 Q213.564 539.463 213.564 544.142 M208.599 544.142 Q208.599 536.503 213.564 532.143 Q218.53 527.782 227.314 527.782 Q236.067 527.782 241.064 532.143 Q246.03 536.503 246.03 544.142 Q246.03 551.813 241.064 556.173 Q236.067 560.502 227.314 560.502 Q218.53 560.502 213.564 556.173 Q208.599 551.813 208.599 544.142 Z" fill="#000000" fill-rule="nonzero" fill-opacity="1" /><path clip-path="url(#clip530)" d="M223.59 488.442 L245.107 488.442 L245.107 494.299 L223.781 494.299 Q218.721 494.299 216.206 496.272 Q213.692 498.245 213.692 502.192 Q213.692 506.935 216.715 509.672 Q219.739 512.409 224.959 512.409 L245.107 512.409 L245.107 518.297 L209.459 518.297 L209.459 512.409 L214.997 512.409 Q211.782 510.308 210.191 507.476 Q208.599 504.611 208.599 500.887 Q208.599 494.744 212.419 491.593 Q216.206 488.442 223.59 488.442 Z" fill="#000000" fill-rule="nonzero" fill-opacity="1" /><path clip-path="url(#clip530)" d="M1369.38 28.9478 L1369.38 35.9153 Q1366.22 34.1734 1363.02 33.3227 Q1359.86 32.4315 1356.62 32.4315 Q1349.37 32.4315 1345.36 37.0496 Q1341.35 41.6271 1341.35 49.9314 Q1341.35 58.2358 1345.36 62.8538 Q1349.37 67.4314 1356.62 67.4314 Q1359.86 67.4314 1363.02 66.5807 Q1366.22 65.6895 1369.38 63.9476 L1369.38 70.8341 Q1366.26 72.2924 1362.9 73.0216 Q1359.58 73.7508 1355.81 73.7508 Q1345.56 73.7508 1339.53 67.3098 Q1333.49 60.8689 1333.49 49.9314 Q1333.49 38.832 1339.57 32.472 Q1345.68 26.1121 1356.3 26.1121 Q1359.74 26.1121 1363.02 26.8413 Q1366.3 27.5299 1369.38 28.9478 Z" fill="#000000" fill-rule="nonzero" fill-opacity="1" /><path clip-path="url(#clip530)" d="M1384.82 65.6895 L1398.18 65.6895 L1398.18 19.5497 L1383.64 22.4663 L1383.64 15.0127 L1398.1 12.096 L1406.29 12.096 L1406.29 65.6895 L1419.65 65.6895 L1419.65 72.576 L1384.82 72.576 L1384.82 65.6895 Z" fill="#000000" fill-rule="nonzero" fill-opacity="1" /><circle clip-path="url(#clip532)" cx="639.831" cy="1010.39" r="14.4" fill="#009af9" fill-rule="evenodd" fill-opacity="1" stroke="#000000" stroke-opacity="1" stroke-width="3.2"/>
<circle clip-path="url(#clip532)" cx="824.017" cy="1150.1" r="14.4" fill="#009af9" fill-rule="evenodd" fill-opacity="1" stroke="#000000" stroke-opacity="1" stroke-width="3.2"/>
<circle clip-path="url(#clip532)" cx="1008.2" cy="1233.69" r="14.4" fill="#009af9" fill-rule="evenodd" fill-opacity="1" stroke="#000000" stroke-opacity="1" stroke-width="3.2"/>
<circle clip-path="url(#clip532)" cx="1192.39" cy="632.439" r="14.4" fill="#009af9" fill-rule="evenodd" fill-opacity="1" stroke="#000000" stroke-opacity="1" stroke-width="3.2"/>
<circle clip-path="url(#clip532)" cx="1376.57" cy="963.797" r="14.4" fill="#009af9" fill-rule="evenodd" fill-opacity="1" stroke="#000000" stroke-opacity="1" stroke-width="3.2"/>
<circle clip-path="url(#clip532)" cx="1560.76" cy="837.251" r="14.4" fill="#009af9" fill-rule="evenodd" fill-opacity="1" stroke="#000000" stroke-opacity="1" stroke-width="3.2"/>
<circle clip-path="url(#clip532)" cx="1744.94" cy="544.976" r="14.4" fill="#009af9" fill-rule="evenodd" fill-opacity="1" stroke="#000000" stroke-opacity="1" stroke-width="3.2"/>
<circle clip-path="url(#clip532)" cx="1929.13" cy="589.323" r="14.4" fill="#009af9" fill-rule="evenodd" fill-opacity="1" stroke="#000000" stroke-opacity="1" stroke-width="3.2"/>
<circle clip-path="url(#clip532)" cx="2113.31" cy="441.185" r="14.4" fill="#009af9" fill-rule="evenodd" fill-opacity="1" stroke="#000000" stroke-opacity="1" stroke-width="3.2"/>
<circle clip-path="url(#clip532)" cx="2297.5" cy="156.921" r="14.4" fill="#009af9" fill-rule="evenodd" fill-opacity="1" stroke="#000000" stroke-opacity="1" stroke-width="3.2"/>
<polyline clip-path="url(#clip532)" style="stroke:#009af9; stroke-linecap:round; stroke-linejoin:round; stroke-width:4; stroke-opacity:1; fill:none" points="455.646,350.663 457.443,370.769 459.719,395.613 462.499,425.055 465.764,458.388 469.5,494.972 473.679,534.012 478.275,574.795 483.261,616.638 488.615,658.956 494.316,701.245 500.349,743.094 506.7,784.163 513.36,824.184 520.323,862.946 527.586,900.283 535.149,936.067 543.012,970.201 551.179,1002.61 559.655,1033.25 568.447,1062.07 577.563,1089.06 587.011,1114.18 596.804,1137.43 606.953,1158.82 617.47,1178.32 628.369,1195.96 639.667,1211.73 651.38,1225.65 663.526,1237.72 676.125,1247.95 689.198,1256.35 702.769,1262.94 716.864,1267.72 731.512,1270.7 746.746,1271.9 762.603,1271.31 779.127,1268.93 796.369,1264.77 814.391,1258.8 833.267,1251.01 853.095,1241.36 874.005,1229.77 896.18,1216.14 919.907,1200.27 945.699,1181.76 974.811,1159.61 1021.6,1121.95 1049.81,1098.36 1083.83,1069.37 1117.85,1040.03 1151.87,1010.56 1185.89,981.164 1219.91,952.002 1253.93,923.215 1287.95,894.923 1321.97,867.228 1355.99,840.214 1390.01,813.953 1424.03,788.502 1458.05,763.907 1492.07,740.205 1526.15,717.376 1560.5,695.327 1595.19,674.029 1630.36,653.443 1666.11,633.552 1702.54,614.34 1739.75,595.8 1777.84,577.928 1816.93,560.726 1857.1,544.195 1898.5,528.339 1941.22,513.165 1985.42,498.679 2031.24,484.887 2078.84,471.795 2128.39,459.41 2180.1,447.736 2234.18,436.778 2290.89,426.54 2297.5,425.424 "/>
<path clip-path="url(#clip530)" d="M1782.3 1265.95 L2287.68 1265.95 L2287.68 1110.43 L1782.3 1110.43  Z" fill="#ffffff" fill-rule="evenodd" fill-opacity="1"/>
<polyline clip-path="url(#clip530)" style="stroke:#000000; stroke-linecap:round; stroke-linejoin:round; stroke-width:4; stroke-opacity:1; fill:none" points="1782.3,1265.95 2287.68,1265.95 2287.68,1110.43 1782.3,1110.43 1782.3,1265.95 "/>
<circle clip-path="url(#clip530)" cx="1869.08" cy="1162.27" r="20.48" fill="#009af9" fill-rule="evenodd" fill-opacity="1" stroke="#000000" stroke-opacity="1" stroke-width="4.55111"/>
<path clip-path="url(#clip530)" d="M1955.85 1144.99 L1977.7 1144.99 L1977.7 1148.92 L1960.52 1148.92 L1960.52 1159.16 L1976.98 1159.16 L1976.98 1163.09 L1960.52 1163.09 L1960.52 1175.61 L1978.12 1175.61 L1978.12 1179.55 L1955.85 1179.55 L1955.85 1144.99 Z" fill="#000000" fill-rule="nonzero" fill-opacity="1" /><path clip-path="url(#clip530)" d="M2010.92 1143.58 Q2007.81 1148.9 2006.31 1154.11 Q2004.8 1159.32 2004.8 1164.67 Q2004.8 1170.01 2006.31 1175.27 Q2007.84 1180.5 2010.92 1185.8 L2007.21 1185.8 Q2003.74 1180.36 2002 1175.11 Q2000.29 1169.85 2000.29 1164.67 Q2000.29 1159.5 2002 1154.27 Q2003.72 1149.04 2007.21 1143.58 L2010.92 1143.58 Z" fill="#000000" fill-rule="nonzero" fill-opacity="1" /><path clip-path="url(#clip530)" d="M2039.36 1158.6 Q2040.96 1155.73 2043.18 1154.36 Q2045.41 1153 2048.42 1153 Q2052.47 1153 2054.67 1155.85 Q2056.86 1158.67 2056.86 1163.9 L2056.86 1179.55 L2052.58 1179.55 L2052.58 1164.04 Q2052.58 1160.31 2051.26 1158.51 Q2049.94 1156.7 2047.24 1156.7 Q2043.93 1156.7 2042 1158.9 Q2040.08 1161.1 2040.08 1164.9 L2040.08 1179.55 L2035.8 1179.55 L2035.8 1164.04 Q2035.8 1160.29 2034.48 1158.51 Q2033.16 1156.7 2030.41 1156.7 Q2027.14 1156.7 2025.22 1158.92 Q2023.3 1161.12 2023.3 1164.9 L2023.3 1179.55 L2019.02 1179.55 L2019.02 1153.62 L2023.3 1153.62 L2023.3 1157.65 Q2024.76 1155.27 2026.8 1154.13 Q2028.83 1153 2031.63 1153 Q2034.46 1153 2036.43 1154.43 Q2038.42 1155.87 2039.36 1158.6 Z" fill="#000000" fill-rule="nonzero" fill-opacity="1" /><path clip-path="url(#clip530)" d="M2087.54 1165.52 L2087.54 1167.61 L2067.95 1167.61 Q2068.23 1172 2070.59 1174.32 Q2072.98 1176.61 2077.21 1176.61 Q2079.67 1176.61 2081.96 1176.01 Q2084.27 1175.41 2086.54 1174.2 L2086.54 1178.23 Q2084.25 1179.2 2081.84 1179.71 Q2079.43 1180.22 2076.96 1180.22 Q2070.75 1180.22 2067.12 1176.61 Q2063.51 1173 2063.51 1166.84 Q2063.51 1160.48 2066.93 1156.75 Q2070.38 1153 2076.22 1153 Q2081.45 1153 2084.48 1156.38 Q2087.54 1159.74 2087.54 1165.52 M2083.28 1164.27 Q2083.23 1160.78 2081.31 1158.69 Q2079.41 1156.61 2076.26 1156.61 Q2072.7 1156.61 2070.55 1158.62 Q2068.42 1160.64 2068.09 1164.3 L2083.28 1164.27 Z" fill="#000000" fill-rule="nonzero" fill-opacity="1" /><path clip-path="url(#clip530)" d="M2106.31 1166.52 Q2101.15 1166.52 2099.16 1167.7 Q2097.17 1168.88 2097.17 1171.73 Q2097.17 1173.99 2098.65 1175.34 Q2100.15 1176.66 2102.72 1176.66 Q2106.26 1176.66 2108.39 1174.16 Q2110.55 1171.63 2110.55 1167.47 L2110.55 1166.52 L2106.31 1166.52 M2114.8 1164.76 L2114.8 1179.55 L2110.55 1179.55 L2110.55 1175.61 Q2109.09 1177.98 2106.91 1179.11 Q2104.73 1180.22 2101.59 1180.22 Q2097.61 1180.22 2095.24 1178 Q2092.91 1175.75 2092.91 1172 Q2092.91 1167.63 2095.82 1165.41 Q2098.76 1163.18 2104.57 1163.18 L2110.55 1163.18 L2110.55 1162.77 Q2110.55 1159.83 2108.6 1158.23 Q2106.68 1156.61 2103.18 1156.61 Q2100.96 1156.61 2098.86 1157.14 Q2096.75 1157.67 2094.8 1158.74 L2094.8 1154.8 Q2097.14 1153.9 2099.34 1153.46 Q2101.54 1153 2103.62 1153 Q2109.25 1153 2112.03 1155.92 Q2114.8 1158.83 2114.8 1164.76 Z" fill="#000000" fill-rule="nonzero" fill-opacity="1" /><path clip-path="url(#clip530)" d="M2140.11 1154.39 L2140.11 1158.42 Q2138.3 1157.49 2136.36 1157.03 Q2134.41 1156.56 2132.33 1156.56 Q2129.16 1156.56 2127.56 1157.54 Q2125.98 1158.51 2125.98 1160.45 Q2125.98 1161.93 2127.12 1162.79 Q2128.25 1163.62 2131.68 1164.39 L2133.14 1164.71 Q2137.67 1165.68 2139.57 1167.47 Q2141.49 1169.23 2141.49 1172.4 Q2141.49 1176.01 2138.62 1178.11 Q2135.78 1180.22 2130.78 1180.22 Q2128.69 1180.22 2126.42 1179.8 Q2124.18 1179.41 2121.68 1178.6 L2121.68 1174.2 Q2124.04 1175.43 2126.33 1176.05 Q2128.62 1176.66 2130.87 1176.66 Q2133.88 1176.66 2135.5 1175.64 Q2137.12 1174.6 2137.12 1172.72 Q2137.12 1170.98 2135.94 1170.06 Q2134.78 1169.13 2130.82 1168.28 L2129.34 1167.93 Q2125.38 1167.1 2123.62 1165.38 Q2121.86 1163.65 2121.86 1160.64 Q2121.86 1156.98 2124.46 1154.99 Q2127.05 1153 2131.82 1153 Q2134.18 1153 2136.26 1153.35 Q2138.35 1153.69 2140.11 1154.39 Z" fill="#000000" fill-rule="nonzero" fill-opacity="1" /><path clip-path="url(#clip530)" d="M2147.84 1169.32 L2147.84 1153.62 L2152.1 1153.62 L2152.1 1169.16 Q2152.1 1172.84 2153.53 1174.69 Q2154.97 1176.52 2157.84 1176.52 Q2161.29 1176.52 2163.28 1174.32 Q2165.29 1172.12 2165.29 1168.32 L2165.29 1153.62 L2169.55 1153.62 L2169.55 1179.55 L2165.29 1179.55 L2165.29 1175.57 Q2163.74 1177.93 2161.68 1179.09 Q2159.64 1180.22 2156.93 1180.22 Q2152.47 1180.22 2150.15 1177.44 Q2147.84 1174.67 2147.84 1169.32 M2158.55 1153 L2158.55 1153 Z" fill="#000000" fill-rule="nonzero" fill-opacity="1" /><path clip-path="url(#clip530)" d="M2193.35 1157.61 Q2192.63 1157.19 2191.77 1157 Q2190.94 1156.8 2189.92 1156.8 Q2186.31 1156.8 2184.36 1159.16 Q2182.44 1161.49 2182.44 1165.89 L2182.44 1179.55 L2178.16 1179.55 L2178.16 1153.62 L2182.44 1153.62 L2182.44 1157.65 Q2183.79 1155.29 2185.94 1154.16 Q2188.09 1153 2191.17 1153 Q2191.61 1153 2192.14 1153.07 Q2192.67 1153.11 2193.32 1153.23 L2193.35 1157.61 Z" fill="#000000" fill-rule="nonzero" fill-opacity="1" /><path clip-path="url(#clip530)" d="M2218.95 1165.52 L2218.95 1167.61 L2199.36 1167.61 Q2199.64 1172 2202 1174.32 Q2204.39 1176.61 2208.62 1176.61 Q2211.08 1176.61 2213.37 1176.01 Q2215.68 1175.41 2217.95 1174.2 L2217.95 1178.23 Q2215.66 1179.2 2213.25 1179.71 Q2210.85 1180.22 2208.37 1180.22 Q2202.16 1180.22 2198.53 1176.61 Q2194.92 1173 2194.92 1166.84 Q2194.92 1160.48 2198.35 1156.75 Q2201.79 1153 2207.63 1153 Q2212.86 1153 2215.89 1156.38 Q2218.95 1159.74 2218.95 1165.52 M2214.69 1164.27 Q2214.64 1160.78 2212.72 1158.69 Q2210.82 1156.61 2207.67 1156.61 Q2204.11 1156.61 2201.96 1158.62 Q2199.83 1160.64 2199.5 1164.3 L2214.69 1164.27 Z" fill="#000000" fill-rule="nonzero" fill-opacity="1" /><path clip-path="url(#clip530)" d="M2243 1157.56 L2243 1143.53 L2247.26 1143.53 L2247.26 1179.55 L2243 1179.55 L2243 1175.66 Q2241.66 1177.98 2239.6 1179.11 Q2237.56 1180.22 2234.69 1180.22 Q2229.99 1180.22 2227.03 1176.47 Q2224.09 1172.72 2224.09 1166.61 Q2224.09 1160.5 2227.03 1156.75 Q2229.99 1153 2234.69 1153 Q2237.56 1153 2239.6 1154.13 Q2241.66 1155.24 2243 1157.56 M2228.48 1166.61 Q2228.48 1171.31 2230.41 1173.99 Q2232.35 1176.66 2235.73 1176.66 Q2239.11 1176.66 2241.05 1173.99 Q2243 1171.31 2243 1166.61 Q2243 1161.91 2241.05 1159.25 Q2239.11 1156.56 2235.73 1156.56 Q2232.35 1156.56 2230.41 1159.25 Q2228.48 1161.91 2228.48 1166.61 Z" fill="#000000" fill-rule="nonzero" fill-opacity="1" /><path clip-path="url(#clip530)" d="M2255.36 1143.58 L2259.06 1143.58 Q2262.54 1149.04 2264.25 1154.27 Q2265.98 1159.5 2265.98 1164.67 Q2265.98 1169.85 2264.25 1175.11 Q2262.54 1180.36 2259.06 1185.8 L2255.36 1185.8 Q2258.44 1180.5 2259.94 1175.27 Q2261.47 1170.01 2261.47 1164.67 Q2261.47 1159.32 2259.94 1154.11 Q2258.44 1148.9 2255.36 1143.58 Z" fill="#000000" fill-rule="nonzero" fill-opacity="1" /><polyline clip-path="url(#clip530)" style="stroke:#009af9; stroke-linecap:round; stroke-linejoin:round; stroke-width:4; stroke-opacity:1; fill:none" points="1804,1214.11 1934.15,1214.11 "/>
<path clip-path="url(#clip530)" d="M1955.85 1196.83 L1977.7 1196.83 L1977.7 1200.76 L1960.52 1200.76 L1960.52 1211 L1976.98 1211 L1976.98 1214.93 L1960.52 1214.93 L1960.52 1227.45 L1978.12 1227.45 L1978.12 1231.39 L1955.85 1231.39 L1955.85 1196.83 Z" fill="#000000" fill-rule="nonzero" fill-opacity="1" /><path clip-path="url(#clip530)" d="M2010.92 1195.42 Q2007.81 1200.74 2006.31 1205.95 Q2004.8 1211.16 2004.8 1216.51 Q2004.8 1221.85 2006.31 1227.11 Q2007.84 1232.34 2010.92 1237.64 L2007.21 1237.64 Q2003.74 1232.2 2002 1226.95 Q2000.29 1221.69 2000.29 1216.51 Q2000.29 1211.34 2002 1206.11 Q2003.72 1200.88 2007.21 1195.42 L2010.92 1195.42 Z" fill="#000000" fill-rule="nonzero" fill-opacity="1" /><path clip-path="url(#clip530)" d="M2032.3 1195.37 L2032.3 1198.91 L2028.23 1198.91 Q2025.94 1198.91 2025.04 1199.84 Q2024.16 1200.76 2024.16 1203.17 L2024.16 1205.46 L2031.17 1205.46 L2031.17 1208.77 L2024.16 1208.77 L2024.16 1231.39 L2019.87 1231.39 L2019.87 1208.77 L2015.8 1208.77 L2015.8 1205.46 L2019.87 1205.46 L2019.87 1203.66 Q2019.87 1199.33 2021.89 1197.36 Q2023.9 1195.37 2028.28 1195.37 L2032.3 1195.37 Z" fill="#000000" fill-rule="nonzero" fill-opacity="1" /><path clip-path="url(#clip530)" d="M2035.87 1205.46 L2040.13 1205.46 L2040.13 1231.39 L2035.87 1231.39 L2035.87 1205.46 M2035.87 1195.37 L2040.13 1195.37 L2040.13 1200.76 L2035.87 1200.76 L2035.87 1195.37 Z" fill="#000000" fill-rule="nonzero" fill-opacity="1" /><path clip-path="url(#clip530)" d="M2053.25 1198.1 L2053.25 1205.46 L2062.03 1205.46 L2062.03 1208.77 L2053.25 1208.77 L2053.25 1222.85 Q2053.25 1226.02 2054.11 1226.92 Q2054.99 1227.82 2057.65 1227.82 L2062.03 1227.82 L2062.03 1231.39 L2057.65 1231.39 Q2052.72 1231.39 2050.85 1229.56 Q2048.97 1227.71 2048.97 1222.85 L2048.97 1208.77 L2045.85 1208.77 L2045.85 1205.46 L2048.97 1205.46 L2048.97 1198.1 L2053.25 1198.1 Z" fill="#000000" fill-rule="nonzero" fill-opacity="1" /><path clip-path="url(#clip530)" d="M2071.84 1198.1 L2071.84 1205.46 L2080.61 1205.46 L2080.61 1208.77 L2071.84 1208.77 L2071.84 1222.85 Q2071.84 1226.02 2072.7 1226.92 Q2073.58 1227.82 2076.24 1227.82 L2080.61 1227.82 L2080.61 1231.39 L2076.24 1231.39 Q2071.31 1231.39 2069.43 1229.56 Q2067.56 1227.71 2067.56 1222.85 L2067.56 1208.77 L2064.43 1208.77 L2064.43 1205.46 L2067.56 1205.46 L2067.56 1198.1 L2071.84 1198.1 Z" fill="#000000" fill-rule="nonzero" fill-opacity="1" /><path clip-path="url(#clip530)" d="M2108.39 1217.36 L2108.39 1219.45 L2088.81 1219.45 Q2089.09 1223.84 2091.45 1226.16 Q2093.83 1228.45 2098.07 1228.45 Q2100.52 1228.45 2102.81 1227.85 Q2105.13 1227.25 2107.4 1226.04 L2107.4 1230.07 Q2105.11 1231.04 2102.7 1231.55 Q2100.29 1232.06 2097.81 1232.06 Q2091.61 1232.06 2087.98 1228.45 Q2084.36 1224.84 2084.36 1218.68 Q2084.36 1212.32 2087.79 1208.59 Q2091.24 1204.84 2097.07 1204.84 Q2102.3 1204.84 2105.34 1208.22 Q2108.39 1211.58 2108.39 1217.36 M2104.13 1216.11 Q2104.09 1212.62 2102.17 1210.53 Q2100.27 1208.45 2097.12 1208.45 Q2093.55 1208.45 2091.4 1210.46 Q2089.27 1212.48 2088.95 1216.14 L2104.13 1216.11 Z" fill="#000000" fill-rule="nonzero" fill-opacity="1" /><path clip-path="url(#clip530)" d="M2132.44 1209.4 L2132.44 1195.37 L2136.7 1195.37 L2136.7 1231.39 L2132.44 1231.39 L2132.44 1227.5 Q2131.1 1229.82 2129.04 1230.95 Q2127 1232.06 2124.13 1232.06 Q2119.43 1232.06 2116.47 1228.31 Q2113.53 1224.56 2113.53 1218.45 Q2113.53 1212.34 2116.47 1208.59 Q2119.43 1204.84 2124.13 1204.84 Q2127 1204.84 2129.04 1205.97 Q2131.1 1207.08 2132.44 1209.4 M2117.93 1218.45 Q2117.93 1223.15 2119.85 1225.83 Q2121.8 1228.5 2125.17 1228.5 Q2128.55 1228.5 2130.5 1225.83 Q2132.44 1223.15 2132.44 1218.45 Q2132.44 1213.75 2130.5 1211.09 Q2128.55 1208.4 2125.17 1208.4 Q2121.8 1208.4 2119.85 1211.09 Q2117.93 1213.75 2117.93 1218.45 Z" fill="#000000" fill-rule="nonzero" fill-opacity="1" /><path clip-path="url(#clip530)" d="M2144.8 1195.42 L2148.51 1195.42 Q2151.98 1200.88 2153.69 1206.11 Q2155.43 1211.34 2155.43 1216.51 Q2155.43 1221.69 2153.69 1226.95 Q2151.98 1232.2 2148.51 1237.64 L2144.8 1237.64 Q2147.88 1232.34 2149.39 1227.11 Q2150.92 1221.85 2150.92 1216.51 Q2150.92 1211.16 2149.39 1205.95 Q2147.88 1200.74 2144.8 1195.42 Z" fill="#000000" fill-rule="nonzero" fill-opacity="1" /></svg>
