<?xml version="1.0" encoding="utf-8"?>
<svg xmlns="http://www.w3.org/2000/svg" xmlns:xlink="http://www.w3.org/1999/xlink" width="600" height="400" viewBox="0 0 2400 1600">
<defs>
  <clipPath id="clip910">
    <rect x="0" y="0" width="2400" height="1600"/>
  </clipPath>
</defs>
<path clip-path="url(#clip910)" d="M0 1600 L2400 1600 L2400 0 L0 0  Z" fill="#ffffff" fill-rule="evenodd" fill-opacity="1"/>
<defs>
  <clipPath id="clip911">
    <rect x="480" y="0" width="1681" height="1600"/>
  </clipPath>
</defs>
<path clip-path="url(#clip910)" d="M400.969 1305.35 L2352.76 1305.35 L2352.76 123.472 L400.969 123.472  Z" fill="#ffffff" fill-rule="evenodd" fill-opacity="1"/>
<defs>
  <clipPath id="clip912">
    <rect x="400" y="123" width="1953" height="1183"/>
  </clipPath>
</defs>
<polyline clip-path="url(#clip912)" style="stroke:#000000; stroke-linecap:round; stroke-linejoin:round; stroke-width:2; stroke-opacity:0.1; fill:none" points="456.208,1305.35 456.208,123.472 "/>
<polyline clip-path="url(#clip912)" style="stroke:#000000; stroke-linecap:round; stroke-linejoin:round; stroke-width:2; stroke-opacity:0.1; fill:none" points="916.535,1305.35 916.535,123.472 "/>
<polyline clip-path="url(#clip912)" style="stroke:#000000; stroke-linecap:round; stroke-linejoin:round; stroke-width:2; stroke-opacity:0.1; fill:none" points="1376.86,1305.35 1376.86,123.472 "/>
<polyline clip-path="url(#clip912)" style="stroke:#000000; stroke-linecap:round; stroke-linejoin:round; stroke-width:2; stroke-opacity:0.1; fill:none" points="1837.19,1305.35 1837.19,123.472 "/>
<polyline clip-path="url(#clip912)" style="stroke:#000000; stroke-linecap:round; stroke-linejoin:round; stroke-width:2; stroke-opacity:0.1; fill:none" points="2297.52,1305.35 2297.52,123.472 "/>
<polyline clip-path="url(#clip910)" style="stroke:#000000; stroke-linecap:round; stroke-linejoin:round; stroke-width:4; stroke-opacity:1; fill:none" points="400.969,1305.35 2352.76,1305.35 "/>
<polyline clip-path="url(#clip910)" style="stroke:#000000; stroke-linecap:round; stroke-linejoin:round; stroke-width:4; stroke-opacity:1; fill:none" points="456.208,1305.35 456.208,1286.45 "/>
<polyline clip-path="url(#clip910)" style="stroke:#000000; stroke-linecap:round; stroke-linejoin:round; stroke-width:4; stroke-opacity:1; fill:none" points="916.535,1305.35 916.535,1286.45 "/>
<polyline clip-path="url(#clip910)" style="stroke:#000000; stroke-linecap:round; stroke-linejoin:round; stroke-width:4; stroke-opacity:1; fill:none" points="1376.86,1305.35 1376.86,1286.45 "/>
<polyline clip-path="url(#clip910)" style="stroke:#000000; stroke-linecap:round; stroke-linejoin:round; stroke-width:4; stroke-opacity:1; fill:none" points="1837.19,1305.35 1837.19,1286.45 "/>
<polyline clip-path="url(#clip910)" style="stroke:#000000; stroke-linecap:round; stroke-linejoin:round; stroke-width:4; stroke-opacity:1; fill:none" points="2297.52,1305.35 2297.52,1286.45 "/>
<path clip-path="url(#clip910)" d="M433.592 1336.26 Q429.981 1336.26 428.152 1339.83 Q426.347 1343.37 426.347 1350.5 Q426.347 1357.61 428.152 1361.17 Q429.981 1364.71 433.592 1364.71 Q437.227 1364.71 439.032 1361.17 Q440.861 1357.61 440.861 1350.5 Q440.861 1343.37 439.032 1339.83 Q437.227 1336.26 433.592 1336.26 M433.592 1332.56 Q439.402 1332.56 442.458 1337.17 Q445.537 1341.75 445.537 1350.5 Q445.537 1359.23 442.458 1363.83 Q439.402 1368.42 433.592 1368.42 Q427.782 1368.42 424.703 1363.83 Q421.648 1359.23 421.648 1350.5 Q421.648 1341.75 424.703 1337.17 Q427.782 1332.56 433.592 1332.56 Z" fill="#000000" fill-rule="nonzero" fill-opacity="1" /><path clip-path="url(#clip910)" d="M453.754 1361.87 L458.638 1361.87 L458.638 1367.75 L453.754 1367.75 L453.754 1361.87 Z" fill="#000000" fill-rule="nonzero" fill-opacity="1" /><path clip-path="url(#clip910)" d="M478.824 1336.26 Q475.212 1336.26 473.384 1339.83 Q471.578 1343.37 471.578 1350.5 Q471.578 1357.61 473.384 1361.17 Q475.212 1364.71 478.824 1364.71 Q482.458 1364.71 484.263 1361.17 Q486.092 1357.61 486.092 1350.5 Q486.092 1343.37 484.263 1339.83 Q482.458 1336.26 478.824 1336.26 M478.824 1332.56 Q484.634 1332.56 487.689 1337.17 Q490.768 1341.75 490.768 1350.5 Q490.768 1359.23 487.689 1363.83 Q484.634 1368.42 478.824 1368.42 Q473.013 1368.42 469.935 1363.83 Q466.879 1359.23 466.879 1350.5 Q466.879 1341.75 469.935 1337.17 Q473.013 1332.56 478.824 1332.56 Z" fill="#000000" fill-rule="nonzero" fill-opacity="1" /><path clip-path="url(#clip910)" d="M888.271 1363.81 L904.591 1363.81 L904.591 1367.75 L882.646 1367.75 L882.646 1363.81 Q885.308 1361.06 889.892 1356.43 Q894.498 1351.77 895.679 1350.43 Q897.924 1347.91 898.804 1346.17 Q899.706 1344.41 899.706 1342.72 Q899.706 1339.97 897.762 1338.23 Q895.841 1336.5 892.739 1336.5 Q890.54 1336.5 888.086 1337.26 Q885.656 1338.02 882.878 1339.57 L882.878 1334.85 Q885.702 1333.72 888.156 1333.14 Q890.609 1332.56 892.646 1332.56 Q898.017 1332.56 901.211 1335.25 Q904.406 1337.93 904.406 1342.42 Q904.406 1344.55 903.595 1346.47 Q902.808 1348.37 900.702 1350.96 Q900.123 1351.63 897.021 1354.85 Q893.919 1358.05 888.271 1363.81 Z" fill="#000000" fill-rule="nonzero" fill-opacity="1" /><path clip-path="url(#clip910)" d="M914.405 1361.87 L919.29 1361.87 L919.29 1367.75 L914.405 1367.75 L914.405 1361.87 Z" fill="#000000" fill-rule="nonzero" fill-opacity="1" /><path clip-path="url(#clip910)" d="M929.521 1333.19 L947.878 1333.19 L947.878 1337.12 L933.804 1337.12 L933.804 1345.59 Q934.822 1345.25 935.841 1345.08 Q936.859 1344.9 937.878 1344.9 Q943.665 1344.9 947.044 1348.07 Q950.424 1351.24 950.424 1356.66 Q950.424 1362.24 946.952 1365.34 Q943.479 1368.42 937.16 1368.42 Q934.984 1368.42 932.716 1368.05 Q930.47 1367.68 928.063 1366.94 L928.063 1362.24 Q930.146 1363.37 932.368 1363.93 Q934.591 1364.48 937.067 1364.48 Q941.072 1364.48 943.41 1362.38 Q945.748 1360.27 945.748 1356.66 Q945.748 1353.05 943.41 1350.94 Q941.072 1348.83 937.067 1348.83 Q935.192 1348.83 933.317 1349.25 Q931.466 1349.67 929.521 1350.55 L929.521 1333.19 Z" fill="#000000" fill-rule="nonzero" fill-opacity="1" /><path clip-path="url(#clip910)" d="M1344.03 1333.19 L1362.38 1333.19 L1362.38 1337.12 L1348.31 1337.12 L1348.31 1345.59 Q1349.33 1345.25 1350.35 1345.08 Q1351.36 1344.9 1352.38 1344.9 Q1358.17 1344.9 1361.55 1348.07 Q1364.93 1351.24 1364.93 1356.66 Q1364.93 1362.24 1361.46 1365.34 Q1357.99 1368.42 1351.67 1368.42 Q1349.49 1368.42 1347.22 1368.05 Q1344.98 1367.68 1342.57 1366.94 L1342.57 1362.24 Q1344.65 1363.37 1346.87 1363.93 Q1349.1 1364.48 1351.57 1364.48 Q1355.58 1364.48 1357.92 1362.38 Q1360.25 1360.27 1360.25 1356.66 Q1360.25 1353.05 1357.92 1350.94 Q1355.58 1348.83 1351.57 1348.83 Q1349.7 1348.83 1347.82 1349.25 Q1345.97 1349.67 1344.03 1350.55 L1344.03 1333.19 Z" fill="#000000" fill-rule="nonzero" fill-opacity="1" /><path clip-path="url(#clip910)" d="M1374.14 1361.87 L1379.03 1361.87 L1379.03 1367.75 L1374.14 1367.75 L1374.14 1361.87 Z" fill="#000000" fill-rule="nonzero" fill-opacity="1" /><path clip-path="url(#clip910)" d="M1399.21 1336.26 Q1395.6 1336.26 1393.77 1339.83 Q1391.97 1343.37 1391.97 1350.5 Q1391.97 1357.61 1393.77 1361.17 Q1395.6 1364.71 1399.21 1364.71 Q1402.85 1364.71 1404.65 1361.17 Q1406.48 1357.61 1406.48 1350.5 Q1406.48 1343.37 1404.65 1339.83 Q1402.85 1336.26 1399.21 1336.26 M1399.21 1332.56 Q1405.02 1332.56 1408.08 1337.17 Q1411.16 1341.75 1411.16 1350.5 Q1411.16 1359.23 1408.08 1363.83 Q1405.02 1368.42 1399.21 1368.42 Q1393.4 1368.42 1390.32 1363.83 Q1387.27 1359.23 1387.27 1350.5 Q1387.27 1341.75 1390.32 1337.17 Q1393.4 1332.56 1399.21 1332.56 Z" fill="#000000" fill-rule="nonzero" fill-opacity="1" /><path clip-path="url(#clip910)" d="M1803.51 1333.19 L1825.73 1333.19 L1825.73 1335.18 L1813.18 1367.75 L1808.3 1367.75 L1820.11 1337.12 L1803.51 1337.12 L1803.51 1333.19 Z" fill="#000000" fill-rule="nonzero" fill-opacity="1" /><path clip-path="url(#clip910)" d="M1834.85 1361.87 L1839.74 1361.87 L1839.74 1367.75 L1834.85 1367.75 L1834.85 1361.87 Z" fill="#000000" fill-rule="nonzero" fill-opacity="1" /><path clip-path="url(#clip910)" d="M1849.97 1333.19 L1868.32 1333.19 L1868.32 1337.12 L1854.25 1337.12 L1854.25 1345.59 Q1855.27 1345.25 1856.29 1345.08 Q1857.31 1344.9 1858.32 1344.9 Q1864.11 1344.9 1867.49 1348.07 Q1870.87 1351.24 1870.87 1356.66 Q1870.87 1362.24 1867.4 1365.34 Q1863.93 1368.42 1857.61 1368.42 Q1855.43 1368.42 1853.16 1368.05 Q1850.92 1367.68 1848.51 1366.94 L1848.51 1362.24 Q1850.59 1363.37 1852.81 1363.93 Q1855.04 1364.48 1857.51 1364.48 Q1861.52 1364.48 1863.86 1362.38 Q1866.19 1360.27 1866.19 1356.66 Q1866.19 1353.05 1863.86 1350.94 Q1861.52 1348.83 1857.51 1348.83 Q1855.64 1348.83 1853.76 1349.25 Q1851.91 1349.67 1849.97 1350.55 L1849.97 1333.19 Z" fill="#000000" fill-rule="nonzero" fill-opacity="1" /><path clip-path="url(#clip910)" d="M2249.59 1363.81 L2257.23 1363.81 L2257.23 1337.44 L2248.92 1339.11 L2248.92 1334.85 L2257.18 1333.19 L2261.86 1333.19 L2261.86 1363.81 L2269.5 1363.81 L2269.5 1367.75 L2249.59 1367.75 L2249.59 1363.81 Z" fill="#000000" fill-rule="nonzero" fill-opacity="1" /><path clip-path="url(#clip910)" d="M2288.94 1336.26 Q2285.33 1336.26 2283.5 1339.83 Q2281.69 1343.37 2281.69 1350.5 Q2281.69 1357.61 2283.5 1361.17 Q2285.33 1364.71 2288.94 1364.71 Q2292.57 1364.71 2294.38 1361.17 Q2296.21 1357.61 2296.21 1350.5 Q2296.21 1343.37 2294.38 1339.83 Q2292.57 1336.26 2288.94 1336.26 M2288.94 1332.56 Q2294.75 1332.56 2297.81 1337.17 Q2300.88 1341.75 2300.88 1350.5 Q2300.88 1359.23 2297.81 1363.83 Q2294.75 1368.42 2288.94 1368.42 Q2283.13 1368.42 2280.05 1363.83 Q2277 1359.23 2277 1350.5 Q2277 1341.75 2280.05 1337.17 Q2283.13 1332.56 2288.94 1332.56 Z" fill="#000000" fill-rule="nonzero" fill-opacity="1" /><path clip-path="url(#clip910)" d="M2309.1 1361.87 L2313.99 1361.87 L2313.99 1367.75 L2309.1 1367.75 L2309.1 1361.87 Z" fill="#000000" fill-rule="nonzero" fill-opacity="1" /><path clip-path="url(#clip910)" d="M2334.17 1336.26 Q2330.56 1336.26 2328.73 1339.83 Q2326.93 1343.37 2326.93 1350.5 Q2326.93 1357.61 2328.73 1361.17 Q2330.56 1364.71 2334.17 1364.71 Q2337.81 1364.71 2339.61 1361.17 Q2341.44 1357.61 2341.44 1350.5 Q2341.44 1343.37 2339.61 1339.83 Q2337.81 1336.26 2334.17 1336.26 M2334.17 1332.56 Q2339.98 1332.56 2343.04 1337.17 Q2346.12 1341.75 2346.12 1350.5 Q2346.12 1359.23 2343.04 1363.83 Q2339.98 1368.42 2334.17 1368.42 Q2328.36 1368.42 2325.28 1363.83 Q2322.23 1359.23 2322.23 1350.5 Q2322.23 1341.75 2325.28 1337.17 Q2328.36 1332.56 2334.17 1332.56 Z" fill="#000000" fill-rule="nonzero" fill-opacity="1" /><polyline clip-path="url(#clip912)" style="stroke:#000000; stroke-linecap:round; stroke-linejoin:round; stroke-width:2; stroke-opacity:0.1; fill:none" points="400.969,1271.9 2352.76,1271.9 "/>
<polyline clip-path="url(#clip912)" style="stroke:#000000; stroke-linecap:round; stroke-linejoin:round; stroke-width:2; stroke-opacity:0.1; fill:none" points="400.969,1035.52 2352.76,1035.52 "/>
<polyline clip-path="url(#clip912)" style="stroke:#000000; stroke-linecap:round; stroke-linejoin:round; stroke-width:2; stroke-opacity:0.1; fill:none" points="400.969,799.138 2352.76,799.138 "/>
<polyline clip-path="url(#clip912)" style="stroke:#000000; stroke-linecap:round; stroke-linejoin:round; stroke-width:2; stroke-opacity:0.1; fill:none" points="400.969,562.759 2352.76,562.759 "/>
<polyline clip-path="url(#clip912)" style="stroke:#000000; stroke-linecap:round; stroke-linejoin:round; stroke-width:2; stroke-opacity:0.1; fill:none" points="400.969,326.38 2352.76,326.38 "/>
<polyline clip-path="url(#clip910)" style="stroke:#000000; stroke-linecap:round; stroke-linejoin:round; stroke-width:4; stroke-opacity:1; fill:none" points="400.969,1305.35 400.969,123.472 "/>
<polyline clip-path="url(#clip910)" style="stroke:#000000; stroke-linecap:round; stroke-linejoin:round; stroke-width:4; stroke-opacity:1; fill:none" points="400.969,1271.9 419.866,1271.9 "/>
<polyline clip-path="url(#clip910)" style="stroke:#000000; stroke-linecap:round; stroke-linejoin:round; stroke-width:4; stroke-opacity:1; fill:none" points="400.969,1035.52 419.866,1035.52 "/>
<polyline clip-path="url(#clip910)" style="stroke:#000000; stroke-linecap:round; stroke-linejoin:round; stroke-width:4; stroke-opacity:1; fill:none" points="400.969,799.138 419.866,799.138 "/>
<polyline clip-path="url(#clip910)" style="stroke:#000000; stroke-linecap:round; stroke-linejoin:round; stroke-width:4; stroke-opacity:1; fill:none" points="400.969,562.759 419.866,562.759 "/>
<polyline clip-path="url(#clip910)" style="stroke:#000000; stroke-linecap:round; stroke-linejoin:round; stroke-width:4; stroke-opacity:1; fill:none" points="400.969,326.38 419.866,326.38 "/>
<path clip-path="url(#clip910)" d="M307.793 1257.69 Q304.182 1257.69 302.353 1261.26 Q300.548 1264.8 300.548 1271.93 Q300.548 1279.04 302.353 1282.6 Q304.182 1286.14 307.793 1286.14 Q311.427 1286.14 313.233 1282.6 Q315.061 1279.04 315.061 1271.93 Q315.061 1264.8 313.233 1261.26 Q311.427 1257.69 307.793 1257.69 M307.793 1253.99 Q313.603 1253.99 316.659 1258.6 Q319.737 1263.18 319.737 1271.93 Q319.737 1280.66 316.659 1285.26 Q313.603 1289.85 307.793 1289.85 Q301.983 1289.85 298.904 1285.26 Q295.849 1280.66 295.849 1271.93 Q295.849 1263.18 298.904 1258.6 Q301.983 1253.99 307.793 1253.99 Z" fill="#000000" fill-rule="nonzero" fill-opacity="1" /><path clip-path="url(#clip910)" d="M327.955 1283.3 L332.839 1283.3 L332.839 1289.18 L327.955 1289.18 L327.955 1283.3 Z" fill="#000000" fill-rule="nonzero" fill-opacity="1" /><path clip-path="url(#clip910)" d="M353.024 1257.69 Q349.413 1257.69 347.584 1261.26 Q345.779 1264.8 345.779 1271.93 Q345.779 1279.04 347.584 1282.6 Q349.413 1286.14 353.024 1286.14 Q356.658 1286.14 358.464 1282.6 Q360.293 1279.04 360.293 1271.93 Q360.293 1264.8 358.464 1261.26 Q356.658 1257.69 353.024 1257.69 M353.024 1253.99 Q358.834 1253.99 361.89 1258.6 Q364.969 1263.18 364.969 1271.93 Q364.969 1280.66 361.89 1285.26 Q358.834 1289.85 353.024 1289.85 Q347.214 1289.85 344.135 1285.26 Q341.08 1280.66 341.08 1271.93 Q341.08 1263.18 344.135 1258.6 Q347.214 1253.99 353.024 1253.99 Z" fill="#000000" fill-rule="nonzero" fill-opacity="1" /><path clip-path="url(#clip910)" d="M309.39 1021.32 Q305.779 1021.32 303.95 1024.88 Q302.145 1028.42 302.145 1035.55 Q302.145 1042.66 303.95 1046.22 Q305.779 1049.76 309.39 1049.76 Q313.024 1049.76 314.83 1046.22 Q316.659 1042.66 316.659 1035.55 Q316.659 1028.42 314.83 1024.88 Q313.024 1021.32 309.39 1021.32 M309.39 1017.61 Q315.2 1017.61 318.256 1022.22 Q321.335 1026.8 321.335 1035.55 Q321.335 1044.28 318.256 1048.89 Q315.2 1053.47 309.39 1053.47 Q303.58 1053.47 300.501 1048.89 Q297.446 1044.28 297.446 1035.55 Q297.446 1026.8 300.501 1022.22 Q303.58 1017.61 309.39 1017.61 Z" fill="#000000" fill-rule="nonzero" fill-opacity="1" /><path clip-path="url(#clip910)" d="M329.552 1046.92 L334.436 1046.92 L334.436 1052.8 L329.552 1052.8 L329.552 1046.92 Z" fill="#000000" fill-rule="nonzero" fill-opacity="1" /><path clip-path="url(#clip910)" d="M348.649 1048.86 L364.969 1048.86 L364.969 1052.8 L343.024 1052.8 L343.024 1048.86 Q345.686 1046.11 350.27 1041.48 Q354.876 1036.83 356.057 1035.48 Q358.302 1032.96 359.182 1031.22 Q360.084 1029.46 360.084 1027.77 Q360.084 1025.02 358.14 1023.28 Q356.219 1021.55 353.117 1021.55 Q350.918 1021.55 348.464 1022.31 Q346.034 1023.08 343.256 1024.63 L343.256 1019.9 Q346.08 1018.77 348.534 1018.19 Q350.987 1017.61 353.024 1017.61 Q358.395 1017.61 361.589 1020.3 Q364.783 1022.98 364.783 1027.47 Q364.783 1029.6 363.973 1031.52 Q363.186 1033.42 361.08 1036.01 Q360.501 1036.69 357.399 1039.9 Q354.297 1043.1 348.649 1048.86 Z" fill="#000000" fill-rule="nonzero" fill-opacity="1" /><path clip-path="url(#clip910)" d="M307.307 784.937 Q303.696 784.937 301.867 788.502 Q300.062 792.043 300.062 799.173 Q300.062 806.279 301.867 809.844 Q303.696 813.386 307.307 813.386 Q310.941 813.386 312.747 809.844 Q314.575 806.279 314.575 799.173 Q314.575 792.043 312.747 788.502 Q310.941 784.937 307.307 784.937 M307.307 781.233 Q313.117 781.233 316.173 785.84 Q319.251 790.423 319.251 799.173 Q319.251 807.9 316.173 812.506 Q313.117 817.089 307.307 817.089 Q301.497 817.089 298.418 812.506 Q295.363 807.9 295.363 799.173 Q295.363 790.423 298.418 785.84 Q301.497 781.233 307.307 781.233 Z" fill="#000000" fill-rule="nonzero" fill-opacity="1" /><path clip-path="url(#clip910)" d="M327.469 810.539 L332.353 810.539 L332.353 816.418 L327.469 816.418 L327.469 810.539 Z" fill="#000000" fill-rule="nonzero" fill-opacity="1" /><path clip-path="url(#clip910)" d="M355.385 785.932 L343.58 804.381 L355.385 804.381 L355.385 785.932 M354.159 781.858 L360.038 781.858 L360.038 804.381 L364.969 804.381 L364.969 808.27 L360.038 808.27 L360.038 816.418 L355.385 816.418 L355.385 808.27 L339.784 808.27 L339.784 803.756 L354.159 781.858 Z" fill="#000000" fill-rule="nonzero" fill-opacity="1" /><path clip-path="url(#clip910)" d="M307.631 548.558 Q304.02 548.558 302.191 552.123 Q300.386 555.664 300.386 562.794 Q300.386 569.9 302.191 573.465 Q304.02 577.007 307.631 577.007 Q311.265 577.007 313.071 573.465 Q314.899 569.9 314.899 562.794 Q314.899 555.664 313.071 552.123 Q311.265 548.558 307.631 548.558 M307.631 544.854 Q313.441 544.854 316.497 549.46 Q319.575 554.044 319.575 562.794 Q319.575 571.521 316.497 576.127 Q313.441 580.71 307.631 580.71 Q301.821 580.71 298.742 576.127 Q295.687 571.521 295.687 562.794 Q295.687 554.044 298.742 549.46 Q301.821 544.854 307.631 544.854 Z" fill="#000000" fill-rule="nonzero" fill-opacity="1" /><path clip-path="url(#clip910)" d="M327.793 574.159 L332.677 574.159 L332.677 580.039 L327.793 580.039 L327.793 574.159 Z" fill="#000000" fill-rule="nonzero" fill-opacity="1" /><path clip-path="url(#clip910)" d="M353.441 560.896 Q350.293 560.896 348.441 563.048 Q346.612 565.201 346.612 568.951 Q346.612 572.678 348.441 574.854 Q350.293 577.007 353.441 577.007 Q356.589 577.007 358.418 574.854 Q360.27 572.678 360.27 568.951 Q360.27 565.201 358.418 563.048 Q356.589 560.896 353.441 560.896 M362.723 546.243 L362.723 550.502 Q360.964 549.669 359.158 549.229 Q357.376 548.789 355.617 548.789 Q350.987 548.789 348.534 551.914 Q346.103 555.039 345.756 561.359 Q347.122 559.345 349.182 558.28 Q351.242 557.192 353.719 557.192 Q358.927 557.192 361.936 560.363 Q364.969 563.511 364.969 568.951 Q364.969 574.275 361.82 577.493 Q358.672 580.71 353.441 580.71 Q347.446 580.71 344.274 576.127 Q341.103 571.521 341.103 562.794 Q341.103 554.599 344.992 549.738 Q348.881 544.854 355.432 544.854 Q357.191 544.854 358.973 545.201 Q360.779 545.548 362.723 546.243 Z" fill="#000000" fill-rule="nonzero" fill-opacity="1" /><path clip-path="url(#clip910)" d="M307.886 312.179 Q304.275 312.179 302.446 315.743 Q300.64 319.285 300.64 326.415 Q300.64 333.521 302.446 337.086 Q304.275 340.628 307.886 340.628 Q311.52 340.628 313.325 337.086 Q315.154 333.521 315.154 326.415 Q315.154 319.285 313.325 315.743 Q311.52 312.179 307.886 312.179 M307.886 308.475 Q313.696 308.475 316.751 313.081 Q319.83 317.665 319.83 326.415 Q319.83 335.141 316.751 339.748 Q313.696 344.331 307.886 344.331 Q302.075 344.331 298.997 339.748 Q295.941 335.141 295.941 326.415 Q295.941 317.665 298.997 313.081 Q302.075 308.475 307.886 308.475 Z" fill="#000000" fill-rule="nonzero" fill-opacity="1" /><path clip-path="url(#clip910)" d="M328.048 337.78 L332.932 337.78 L332.932 343.66 L328.048 343.66 L328.048 337.78 Z" fill="#000000" fill-rule="nonzero" fill-opacity="1" /><path clip-path="url(#clip910)" d="M353.117 327.248 Q349.784 327.248 347.862 329.03 Q345.964 330.813 345.964 333.938 Q345.964 337.063 347.862 338.845 Q349.784 340.628 353.117 340.628 Q356.45 340.628 358.371 338.845 Q360.293 337.04 360.293 333.938 Q360.293 330.813 358.371 329.03 Q356.473 327.248 353.117 327.248 M348.441 325.257 Q345.432 324.517 343.742 322.456 Q342.075 320.396 342.075 317.433 Q342.075 313.29 345.015 310.882 Q347.978 308.475 353.117 308.475 Q358.279 308.475 361.219 310.882 Q364.158 313.29 364.158 317.433 Q364.158 320.396 362.469 322.456 Q360.802 324.517 357.816 325.257 Q361.196 326.044 363.07 328.336 Q364.969 330.628 364.969 333.938 Q364.969 338.961 361.89 341.646 Q358.834 344.331 353.117 344.331 Q347.399 344.331 344.321 341.646 Q341.265 338.961 341.265 333.938 Q341.265 330.628 343.163 328.336 Q345.061 326.044 348.441 325.257 M346.728 317.873 Q346.728 320.558 348.395 322.063 Q350.084 323.567 353.117 323.567 Q356.126 323.567 357.816 322.063 Q359.529 320.558 359.529 317.873 Q359.529 315.188 357.816 313.683 Q356.126 312.179 353.117 312.179 Q350.084 312.179 348.395 313.683 Q346.728 315.188 346.728 317.873 Z" fill="#000000" fill-rule="nonzero" fill-opacity="1" /><path clip-path="url(#clip910)" d="M201.247 902.054 L208.026 902.054 Q205.003 905.3 203.507 908.993 Q202.011 912.653 202.011 916.791 Q202.011 924.939 207.008 929.267 Q211.973 933.596 221.394 933.596 Q230.784 933.596 235.781 929.267 Q240.746 924.939 240.746 916.791 Q240.746 912.653 239.25 908.993 Q237.754 905.3 234.73 902.054 L241.446 902.054 Q243.738 905.428 244.884 909.215 Q246.03 912.971 246.03 917.172 Q246.03 927.962 239.441 934.169 Q232.821 940.375 221.394 940.375 Q209.936 940.375 203.347 934.169 Q196.727 927.962 196.727 917.172 Q196.727 912.907 197.873 909.152 Q198.987 905.364 201.247 902.054 Z" fill="#000000" fill-rule="nonzero" fill-opacity="1" /><path clip-path="url(#clip910)" d="M213.564 878.564 Q213.564 883.275 217.257 886.012 Q220.917 888.75 227.314 888.75 Q233.712 888.75 237.404 886.044 Q241.064 883.307 241.064 878.564 Q241.064 873.886 237.372 871.148 Q233.68 868.411 227.314 868.411 Q220.98 868.411 217.288 871.148 Q213.564 873.886 213.564 878.564 M208.599 878.564 Q208.599 870.926 213.564 866.565 Q218.53 862.205 227.314 862.205 Q236.067 862.205 241.064 866.565 Q246.03 870.926 246.03 878.564 Q246.03 886.235 241.064 890.596 Q236.067 894.924 227.314 894.924 Q218.53 894.924 213.564 890.596 Q208.599 886.235 208.599 878.564 Z" fill="#000000" fill-rule="nonzero" fill-opacity="1" /><path clip-path="url(#clip910)" d="M223.59 822.865 L245.107 822.865 L245.107 828.721 L223.781 828.721 Q218.721 828.721 216.206 830.694 Q213.692 832.668 213.692 836.614 Q213.692 841.357 216.715 844.094 Q219.739 846.831 224.959 846.831 L245.107 846.831 L245.107 852.72 L209.459 852.72 L209.459 846.831 L214.997 846.831 Q211.782 844.731 210.191 841.898 Q208.599 839.033 208.599 835.31 Q208.599 829.167 212.419 826.016 Q216.206 822.865 223.59 822.865 Z" fill="#000000" fill-rule="nonzero" fill-opacity="1" /><path clip-path="url(#clip910)" d="M210.827 785.53 L216.302 785.53 Q214.933 788.012 214.265 790.527 Q213.564 793.009 213.564 795.556 Q213.564 801.253 217.193 804.404 Q220.79 807.555 227.314 807.555 Q233.839 807.555 237.468 804.404 Q241.064 801.253 241.064 795.556 Q241.064 793.009 240.396 790.527 Q239.696 788.012 238.327 785.53 L243.738 785.53 Q244.884 787.98 245.457 790.622 Q246.03 793.232 246.03 796.192 Q246.03 804.245 240.969 808.987 Q235.908 813.73 227.314 813.73 Q218.593 813.73 213.596 808.955 Q208.599 804.149 208.599 795.81 Q208.599 793.105 209.172 790.527 Q209.713 787.949 210.827 785.53 Z" fill="#000000" fill-rule="nonzero" fill-opacity="1" /><path clip-path="url(#clip910)" d="M225.818 744.853 L228.683 744.853 L228.683 771.78 Q234.73 771.398 237.913 768.151 Q241.064 764.873 241.064 759.048 Q241.064 755.675 240.237 752.523 Q239.409 749.341 237.754 746.221 L243.292 746.221 Q244.629 749.372 245.329 752.683 Q246.03 755.993 246.03 759.398 Q246.03 767.928 241.064 772.926 Q236.099 777.891 227.633 777.891 Q218.88 777.891 213.755 773.18 Q208.599 768.438 208.599 760.417 Q208.599 753.224 213.246 749.054 Q217.861 744.853 225.818 744.853 M224.1 750.709 Q219.294 750.773 216.429 753.415 Q213.564 756.025 213.564 760.353 Q213.564 765.255 216.334 768.215 Q219.103 771.143 224.132 771.589 L224.1 750.709 Z" fill="#000000" fill-rule="nonzero" fill-opacity="1" /><path clip-path="url(#clip910)" d="M223.59 705.608 L245.107 705.608 L245.107 711.465 L223.781 711.465 Q218.721 711.465 216.206 713.438 Q213.692 715.411 213.692 719.358 Q213.692 724.101 216.715 726.838 Q219.739 729.575 224.959 729.575 L245.107 729.575 L245.107 735.463 L209.459 735.463 L209.459 729.575 L214.997 729.575 Q211.782 727.474 210.191 724.642 Q208.599 721.777 208.599 718.053 Q208.599 711.91 212.419 708.759 Q216.206 705.608 223.59 705.608 Z" fill="#000000" fill-rule="nonzero" fill-opacity="1" /><path clip-path="url(#clip910)" d="M199.337 688.134 L209.459 688.134 L209.459 676.071 L214.01 676.071 L214.01 688.134 L233.362 688.134 Q237.722 688.134 238.964 686.957 Q240.205 685.747 240.205 682.087 L240.205 676.071 L245.107 676.071 L245.107 682.087 Q245.107 688.866 242.592 691.445 Q240.046 694.023 233.362 694.023 L214.01 694.023 L214.01 698.319 L209.459 698.319 L209.459 694.023 L199.337 694.023 L199.337 688.134 Z" fill="#000000" fill-rule="nonzero" fill-opacity="1" /><path clip-path="url(#clip910)" d="M214.933 647.712 Q214.36 648.699 214.106 649.876 Q213.819 651.022 213.819 652.423 Q213.819 657.388 217.066 660.062 Q220.28 662.703 226.328 662.703 L245.107 662.703 L245.107 668.592 L209.459 668.592 L209.459 662.703 L214.997 662.703 Q211.75 660.857 210.191 657.897 Q208.599 654.937 208.599 650.704 Q208.599 650.099 208.695 649.367 Q208.758 648.635 208.917 647.744 L214.933 647.712 Z" fill="#000000" fill-rule="nonzero" fill-opacity="1" /><path clip-path="url(#clip910)" d="M227.187 625.368 Q227.187 632.466 228.81 635.204 Q230.434 637.941 234.348 637.941 Q237.468 637.941 239.314 635.904 Q241.128 633.835 241.128 630.302 Q241.128 625.432 237.69 622.504 Q234.221 619.544 228.492 619.544 L227.187 619.544 L227.187 625.368 M224.768 613.687 L245.107 613.687 L245.107 619.544 L239.696 619.544 Q242.942 621.549 244.502 624.541 Q246.03 627.533 246.03 631.862 Q246.03 637.336 242.974 640.583 Q239.887 643.797 234.73 643.797 Q228.715 643.797 225.659 639.787 Q222.604 635.745 222.604 627.756 L222.604 619.544 L222.031 619.544 Q217.989 619.544 215.792 622.217 Q213.564 624.859 213.564 629.665 Q213.564 632.721 214.296 635.617 Q215.029 638.514 216.493 641.187 L211.082 641.187 Q209.841 637.973 209.236 634.949 Q208.599 631.925 208.599 629.061 Q208.599 621.326 212.61 617.507 Q216.62 613.687 224.768 613.687 Z" fill="#000000" fill-rule="nonzero" fill-opacity="1" /><path clip-path="url(#clip910)" d="M199.337 595.832 L209.459 595.832 L209.459 583.769 L214.01 583.769 L214.01 595.832 L233.362 595.832 Q237.722 595.832 238.964 594.654 Q240.205 593.444 240.205 589.784 L240.205 583.769 L245.107 583.769 L245.107 589.784 Q245.107 596.564 242.592 599.142 Q240.046 601.72 233.362 601.72 L214.01 601.72 L214.01 606.017 L209.459 606.017 L209.459 601.72 L199.337 601.72 L199.337 595.832 Z" fill="#000000" fill-rule="nonzero" fill-opacity="1" /><path clip-path="url(#clip910)" d="M209.459 576.066 L209.459 570.21 L245.107 570.21 L245.107 576.066 L209.459 576.066 M195.581 576.066 L195.581 570.21 L202.997 570.21 L202.997 576.066 L195.581 576.066 Z" fill="#000000" fill-rule="nonzero" fill-opacity="1" /><path clip-path="url(#clip910)" d="M213.564 544.142 Q213.564 548.853 217.257 551.59 Q220.917 554.327 227.314 554.327 Q233.712 554.327 237.404 551.622 Q241.064 548.885 241.064 544.142 Q241.064 539.463 237.372 536.726 Q233.68 533.989 227.314 533.989 Q220.98 533.989 217.288 536.726 Q213.564 539.463 213.564 544.142 M208.599 544.142 Q208.599 536.503 213.564 532.143 Q218.53 527.782 227.314 527.782 Q236.067 527.782 241.064 532.143 Q246.03 536.503 246.03 544.142 Q246.03 551.813 241.064 556.173 Q236.067 560.502 227.314 560.502 Q218.53 560.502 213.564 556.173 Q208.599 551.813 208.599 544.142 Z" fill="#000000" fill-rule="nonzero" fill-opacity="1" /><path clip-path="url(#clip910)" d="M223.59 488.442 L245.107 488.442 L245.107 494.299 L223.781 494.299 Q218.721 494.299 216.206 496.272 Q213.692 498.245 213.692 502.192 Q213.692 506.935 216.715 509.672 Q219.739 512.409 224.959 512.409 L245.107 512.409 L245.107 518.297 L209.459 518.297 L209.459 512.409 L214.997 512.409 Q211.782 510.308 210.191 507.476 Q208.599 504.611 208.599 500.887 Q208.599 494.744 212.419 491.593 Q216.206 488.442 223.59 488.442 Z" fill="#000000" fill-rule="nonzero" fill-opacity="1" /><path clip-path="url(#clip910)" d="M1369.67 28.9478 L1369.67 35.9153 Q1366.51 34.1734 1363.31 33.3227 Q1360.15 32.4315 1356.91 32.4315 Q1349.66 32.4315 1345.65 37.0496 Q1341.64 41.6271 1341.64 49.9314 Q1341.64 58.2358 1345.65 62.8538 Q1349.66 67.4314 1356.91 67.4314 Q1360.15 67.4314 1363.31 66.5807 Q1366.51 65.6895 1369.67 63.9476 L1369.67 70.8341 Q1366.55 72.2924 1363.19 73.0216 Q1359.87 73.7508 1356.1 73.7508 Q1345.85 73.7508 1339.82 67.3098 Q1333.78 60.8689 1333.78 49.9314 Q1333.78 38.832 1339.86 32.472 Q1345.97 26.1121 1356.59 26.1121 Q1360.03 26.1121 1363.31 26.8413 Q1366.59 27.5299 1369.67 28.9478 Z" fill="#000000" fill-rule="nonzero" fill-opacity="1" /><path clip-path="url(#clip910)" d="M1385.11 65.6895 L1398.47 65.6895 L1398.47 19.5497 L1383.93 22.4663 L1383.93 15.0127 L1398.39 12.096 L1406.58 12.096 L1406.58 65.6895 L1419.94 65.6895 L1419.94 72.576 L1385.11 72.576 L1385.11 65.6895 Z" fill="#000000" fill-rule="nonzero" fill-opacity="1" /><circle clip-path="url(#clip912)" cx="640.339" cy="1148.98" r="14.4" fill="#009af9" fill-rule="evenodd" fill-opacity="1" stroke="#000000" stroke-opacity="1" stroke-width="3.2"/>
<circle clip-path="url(#clip912)" cx="824.47" cy="936.682" r="14.4" fill="#009af9" fill-rule="evenodd" fill-opacity="1" stroke="#000000" stroke-opacity="1" stroke-width="3.2"/>
<circle clip-path="url(#clip912)" cx="1008.6" cy="784.486" r="14.4" fill="#009af9" fill-rule="evenodd" fill-opacity="1" stroke="#000000" stroke-opacity="1" stroke-width="3.2"/>
<circle clip-path="url(#clip912)" cx="1192.73" cy="424.361" r="14.4" fill="#009af9" fill-rule="evenodd" fill-opacity="1" stroke="#000000" stroke-opacity="1" stroke-width="3.2"/>
<circle clip-path="url(#clip912)" cx="1376.86" cy="561.523" r="14.4" fill="#009af9" fill-rule="evenodd" fill-opacity="1" stroke="#000000" stroke-opacity="1" stroke-width="3.2"/>
<circle clip-path="url(#clip912)" cx="1560.99" cy="156.921" r="14.4" fill="#009af9" fill-rule="evenodd" fill-opacity="1" stroke="#000000" stroke-opacity="1" stroke-width="3.2"/>
<circle clip-path="url(#clip912)" cx="1745.12" cy="375.559" r="14.4" fill="#009af9" fill-rule="evenodd" fill-opacity="1" stroke="#000000" stroke-opacity="1" stroke-width="3.2"/>
<circle clip-path="url(#clip912)" cx="1929.25" cy="377.412" r="14.4" fill="#009af9" fill-rule="evenodd" fill-opacity="1" stroke="#000000" stroke-opacity="1" stroke-width="3.2"/>
<circle clip-path="url(#clip912)" cx="2113.39" cy="305.768" r="14.4" fill="#009af9" fill-rule="evenodd" fill-opacity="1" stroke="#000000" stroke-opacity="1" stroke-width="3.2"/>
<circle clip-path="url(#clip912)" cx="2297.52" cy="281.278" r="14.4" fill="#009af9" fill-rule="evenodd" fill-opacity="1" stroke="#000000" stroke-opacity="1" stroke-width="3.2"/>
<polyline clip-path="url(#clip912)" style="stroke:#009af9; stroke-linecap:round; stroke-linejoin:round; stroke-width:4; stroke-opacity:1; fill:none" points="456.208,1271.9 457.575,1271.87 458.943,1271.8 460.686,1271.64 462.575,1271.39 464.723,1271 467.047,1270.47 469.575,1269.76 472.273,1268.88 475.146,1267.79 478.181,1266.48 481.374,1264.95 484.722,1263.18 488.223,1261.16 491.877,1258.89 495.685,1256.35 499.649,1253.54 503.771,1250.45 508.056,1247.07 512.509,1243.39 517.135,1239.41 521.942,1235.11 526.935,1230.49 532.124,1225.53 537.517,1220.23 543.124,1214.58 548.956,1208.57 555.024,1202.18 561.34,1195.41 567.918,1188.23 574.773,1180.65 581.921,1172.64 589.378,1164.2 597.164,1155.3 605.298,1145.93 613.803,1136.07 622.702,1125.71 632.023,1114.83 641.795,1103.4 652.048,1091.4 662.821,1078.81 674.153,1065.6 686.092,1051.73 698.693,1037.17 712.02,1021.87 726.155,1005.78 741.203,988.803 757.306,970.837 774.678,951.701 793.683,931.071 815.126,908.194 843.18,878.92 871.234,850.405 899.287,822.658 927.341,795.684 955.395,769.481 983.449,744.044 1011.5,719.369 1039.56,695.446 1067.61,672.266 1095.66,649.819 1123.72,628.093 1151.77,607.076 1179.83,586.755 1207.88,567.116 1235.93,548.145 1263.99,529.829 1292.04,512.151 1320.1,495.098 1348.15,478.653 1376.2,462.802 1404.26,447.53 1432.31,432.819 1460.36,418.656 1488.44,405.013 1516.64,391.832 1544.99,379.084 1573.57,366.738 1602.42,354.773 1631.56,343.169 1661.05,331.912 1690.9,320.989 1721.17,310.389 1751.87,300.104 1783.03,290.126 1814.7,280.448 1846.89,271.065 1879.63,261.971 1912.97,253.162 1946.93,244.632 1981.54,236.378 2016.85,228.396 2052.88,220.682 2089.68,213.233 2127.28,206.044 2165.75,199.114 2205.11,192.437 2245.43,186.012 2286.75,179.834 2297.52,178.289 "/>
<path clip-path="url(#clip910)" d="M466.028 318.388 L969.978 318.388 L969.978 162.868 L466.028 162.868  Z" fill="#ffffff" fill-rule="evenodd" fill-opacity="1"/>
<polyline clip-path="url(#clip910)" style="stroke:#000000; stroke-linecap:round; stroke-linejoin:round; stroke-width:4; stroke-opacity:1; fill:none" points="466.028,318.388 969.978,318.388 969.978,162.868 466.028,162.868 466.028,318.388 "/>
<circle clip-path="url(#clip910)" cx="552.774" cy="214.708" r="20.48" fill="#009af9" fill-rule="evenodd" fill-opacity="1" stroke="#000000" stroke-opacity="1" stroke-width="4.55111"/>
<path clip-path="url(#clip910)" d="M644.196 201.27 L644.196 214.257 L650.076 214.257 Q653.34 214.257 655.122 212.567 Q656.905 210.877 656.905 207.752 Q656.905 204.65 655.122 202.96 Q653.34 201.27 650.076 201.27 L644.196 201.27 M639.52 197.428 L650.076 197.428 Q655.886 197.428 658.849 200.067 Q661.835 202.683 661.835 207.752 Q661.835 212.868 658.849 215.483 Q655.886 218.099 650.076 218.099 L644.196 218.099 L644.196 231.988 L639.52 231.988 L639.52 197.428 Z" fill="#000000" fill-rule="nonzero" fill-opacity="1" /><path clip-path="url(#clip910)" d="M693.224 196.016 Q690.122 201.34 688.617 206.548 Q687.113 211.757 687.113 217.104 Q687.113 222.451 688.617 227.706 Q690.145 232.937 693.224 238.238 L689.52 238.238 Q686.048 232.798 684.312 227.543 Q682.599 222.289 682.599 217.104 Q682.599 211.942 684.312 206.71 Q686.025 201.479 689.52 196.016 L693.224 196.016 Z" fill="#000000" fill-rule="nonzero" fill-opacity="1" /><path clip-path="url(#clip910)" d="M721.673 211.039 Q723.27 208.169 725.492 206.803 Q727.714 205.437 730.724 205.437 Q734.775 205.437 736.974 208.284 Q739.173 211.108 739.173 216.34 L739.173 231.988 L734.89 231.988 L734.89 216.479 Q734.89 212.752 733.571 210.946 Q732.251 209.141 729.543 209.141 Q726.233 209.141 724.312 211.34 Q722.39 213.539 722.39 217.335 L722.39 231.988 L718.108 231.988 L718.108 216.479 Q718.108 212.729 716.789 210.946 Q715.469 209.141 712.714 209.141 Q709.451 209.141 707.529 211.363 Q705.608 213.562 705.608 217.335 L705.608 231.988 L701.326 231.988 L701.326 206.062 L705.608 206.062 L705.608 210.09 Q707.066 207.706 709.103 206.571 Q711.14 205.437 713.941 205.437 Q716.765 205.437 718.733 206.872 Q720.724 208.307 721.673 211.039 Z" fill="#000000" fill-rule="nonzero" fill-opacity="1" /><path clip-path="url(#clip910)" d="M769.844 217.96 L769.844 220.044 L750.261 220.044 Q750.538 224.442 752.899 226.756 Q755.284 229.048 759.52 229.048 Q761.973 229.048 764.265 228.446 Q766.58 227.844 768.848 226.641 L768.848 230.668 Q766.557 231.641 764.149 232.15 Q761.742 232.659 759.265 232.659 Q753.061 232.659 749.427 229.048 Q745.816 225.437 745.816 219.28 Q745.816 212.914 749.242 209.187 Q752.691 205.437 758.524 205.437 Q763.756 205.437 766.788 208.817 Q769.844 212.173 769.844 217.96 M765.585 216.71 Q765.538 213.215 763.617 211.132 Q761.719 209.048 758.571 209.048 Q755.006 209.048 752.853 211.062 Q750.724 213.076 750.399 216.733 L765.585 216.71 Z" fill="#000000" fill-rule="nonzero" fill-opacity="1" /><path clip-path="url(#clip910)" d="M788.617 218.956 Q783.455 218.956 781.464 220.136 Q779.473 221.317 779.473 224.164 Q779.473 226.432 780.955 227.775 Q782.459 229.094 785.029 229.094 Q788.571 229.094 790.7 226.594 Q792.853 224.071 792.853 219.905 L792.853 218.956 L788.617 218.956 M797.112 217.196 L797.112 231.988 L792.853 231.988 L792.853 228.053 Q791.395 230.414 789.219 231.548 Q787.043 232.659 783.895 232.659 Q779.913 232.659 777.552 230.437 Q775.214 228.192 775.214 224.442 Q775.214 220.067 778.131 217.844 Q781.071 215.622 786.881 215.622 L792.853 215.622 L792.853 215.206 Q792.853 212.266 790.908 210.669 Q788.987 209.048 785.492 209.048 Q783.27 209.048 781.163 209.581 Q779.057 210.113 777.112 211.178 L777.112 207.243 Q779.45 206.34 781.649 205.9 Q783.848 205.437 785.932 205.437 Q791.557 205.437 794.334 208.354 Q797.112 211.27 797.112 217.196 Z" fill="#000000" fill-rule="nonzero" fill-opacity="1" /><path clip-path="url(#clip910)" d="M822.413 206.826 L822.413 210.854 Q820.607 209.928 818.663 209.465 Q816.719 209.002 814.635 209.002 Q811.464 209.002 809.867 209.974 Q808.293 210.946 808.293 212.891 Q808.293 214.372 809.427 215.229 Q810.561 216.062 813.987 216.826 L815.445 217.15 Q819.982 218.122 821.881 219.905 Q823.802 221.664 823.802 224.835 Q823.802 228.446 820.931 230.553 Q818.084 232.659 813.084 232.659 Q811.001 232.659 808.732 232.243 Q806.487 231.849 803.987 231.039 L803.987 226.641 Q806.348 227.868 808.64 228.493 Q810.932 229.094 813.177 229.094 Q816.186 229.094 817.806 228.076 Q819.427 227.034 819.427 225.159 Q819.427 223.423 818.246 222.497 Q817.089 221.571 813.131 220.715 L811.649 220.368 Q807.691 219.534 805.932 217.821 Q804.172 216.085 804.172 213.076 Q804.172 209.419 806.765 207.428 Q809.357 205.437 814.126 205.437 Q816.487 205.437 818.57 205.784 Q820.654 206.132 822.413 206.826 Z" fill="#000000" fill-rule="nonzero" fill-opacity="1" /><path clip-path="url(#clip910)" d="M830.144 221.756 L830.144 206.062 L834.404 206.062 L834.404 221.594 Q834.404 225.275 835.839 227.127 Q837.274 228.956 840.144 228.956 Q843.593 228.956 845.584 226.756 Q847.598 224.557 847.598 220.761 L847.598 206.062 L851.857 206.062 L851.857 231.988 L847.598 231.988 L847.598 228.006 Q846.047 230.368 843.987 231.525 Q841.95 232.659 839.242 232.659 Q834.774 232.659 832.459 229.881 Q830.144 227.104 830.144 221.756 M840.862 205.437 L840.862 205.437 Z" fill="#000000" fill-rule="nonzero" fill-opacity="1" /><path clip-path="url(#clip910)" d="M875.653 210.044 Q874.936 209.627 874.079 209.442 Q873.246 209.233 872.227 209.233 Q868.616 209.233 866.672 211.594 Q864.751 213.932 864.751 218.331 L864.751 231.988 L860.468 231.988 L860.468 206.062 L864.751 206.062 L864.751 210.09 Q866.093 207.729 868.246 206.595 Q870.399 205.437 873.477 205.437 Q873.917 205.437 874.45 205.507 Q874.982 205.553 875.63 205.669 L875.653 210.044 Z" fill="#000000" fill-rule="nonzero" fill-opacity="1" /><path clip-path="url(#clip910)" d="M901.255 217.96 L901.255 220.044 L881.672 220.044 Q881.95 224.442 884.311 226.756 Q886.695 229.048 890.931 229.048 Q893.385 229.048 895.676 228.446 Q897.991 227.844 900.26 226.641 L900.26 230.668 Q897.968 231.641 895.561 232.15 Q893.153 232.659 890.676 232.659 Q884.473 232.659 880.839 229.048 Q877.227 225.437 877.227 219.28 Q877.227 212.914 880.653 209.187 Q884.102 205.437 889.936 205.437 Q895.167 205.437 898.2 208.817 Q901.255 212.173 901.255 217.96 M896.996 216.71 Q896.95 213.215 895.028 211.132 Q893.13 209.048 889.982 209.048 Q886.417 209.048 884.264 211.062 Q882.135 213.076 881.811 216.733 L896.996 216.71 Z" fill="#000000" fill-rule="nonzero" fill-opacity="1" /><path clip-path="url(#clip910)" d="M925.306 209.997 L925.306 195.97 L929.565 195.97 L929.565 231.988 L925.306 231.988 L925.306 228.099 Q923.963 230.414 921.903 231.548 Q919.866 232.659 916.996 232.659 Q912.297 232.659 909.334 228.909 Q906.394 225.159 906.394 219.048 Q906.394 212.937 909.334 209.187 Q912.297 205.437 916.996 205.437 Q919.866 205.437 921.903 206.571 Q923.963 207.682 925.306 209.997 M910.792 219.048 Q910.792 223.747 912.713 226.432 Q914.658 229.094 918.037 229.094 Q921.417 229.094 923.361 226.432 Q925.306 223.747 925.306 219.048 Q925.306 214.349 923.361 211.687 Q921.417 209.002 918.037 209.002 Q914.658 209.002 912.713 211.687 Q910.792 214.349 910.792 219.048 Z" fill="#000000" fill-rule="nonzero" fill-opacity="1" /><path clip-path="url(#clip910)" d="M937.667 196.016 L941.371 196.016 Q944.843 201.479 946.556 206.71 Q948.292 211.942 948.292 217.104 Q948.292 222.289 946.556 227.543 Q944.843 232.798 941.371 238.238 L937.667 238.238 Q940.746 232.937 942.25 227.706 Q943.778 222.451 943.778 217.104 Q943.778 211.757 942.25 206.548 Q940.746 201.34 937.667 196.016 Z" fill="#000000" fill-rule="nonzero" fill-opacity="1" /><polyline clip-path="url(#clip910)" style="stroke:#009af9; stroke-linecap:round; stroke-linejoin:round; stroke-width:4; stroke-opacity:1; fill:none" points="487.715,266.548 617.834,266.548 "/>
<path clip-path="url(#clip910)" d="M644.196 253.11 L644.196 266.097 L650.076 266.097 Q653.34 266.097 655.122 264.407 Q656.905 262.717 656.905 259.592 Q656.905 256.49 655.122 254.8 Q653.34 253.11 650.076 253.11 L644.196 253.11 M639.52 249.268 L650.076 249.268 Q655.886 249.268 658.849 251.907 Q661.835 254.523 661.835 259.592 Q661.835 264.708 658.849 267.323 Q655.886 269.939 650.076 269.939 L644.196 269.939 L644.196 283.828 L639.52 283.828 L639.52 249.268 Z" fill="#000000" fill-rule="nonzero" fill-opacity="1" /><path clip-path="url(#clip910)" d="M693.224 247.856 Q690.122 253.18 688.617 258.388 Q687.113 263.597 687.113 268.944 Q687.113 274.291 688.617 279.546 Q690.145 284.777 693.224 290.078 L689.52 290.078 Q686.048 284.638 684.312 279.383 Q682.599 274.129 682.599 268.944 Q682.599 263.782 684.312 258.55 Q686.025 253.319 689.52 247.856 L693.224 247.856 Z" fill="#000000" fill-rule="nonzero" fill-opacity="1" /><path clip-path="url(#clip910)" d="M714.613 247.81 L714.613 251.351 L710.539 251.351 Q708.247 251.351 707.344 252.277 Q706.464 253.203 706.464 255.61 L706.464 257.902 L713.478 257.902 L713.478 261.212 L706.464 261.212 L706.464 283.828 L702.182 283.828 L702.182 261.212 L698.108 261.212 L698.108 257.902 L702.182 257.902 L702.182 256.097 Q702.182 251.768 704.196 249.8 Q706.21 247.81 710.585 247.81 L714.613 247.81 Z" fill="#000000" fill-rule="nonzero" fill-opacity="1" /><path clip-path="url(#clip910)" d="M718.177 257.902 L722.437 257.902 L722.437 283.828 L718.177 283.828 L718.177 257.902 M718.177 247.81 L722.437 247.81 L722.437 253.203 L718.177 253.203 L718.177 247.81 Z" fill="#000000" fill-rule="nonzero" fill-opacity="1" /><path clip-path="url(#clip910)" d="M735.562 250.541 L735.562 257.902 L744.335 257.902 L744.335 261.212 L735.562 261.212 L735.562 275.286 Q735.562 278.458 736.418 279.36 Q737.298 280.263 739.96 280.263 L744.335 280.263 L744.335 283.828 L739.96 283.828 Q735.029 283.828 733.154 281.999 Q731.279 280.147 731.279 275.286 L731.279 261.212 L728.154 261.212 L728.154 257.902 L731.279 257.902 L731.279 250.541 L735.562 250.541 Z" fill="#000000" fill-rule="nonzero" fill-opacity="1" /><path clip-path="url(#clip910)" d="M754.149 250.541 L754.149 257.902 L762.923 257.902 L762.923 261.212 L754.149 261.212 L754.149 275.286 Q754.149 278.458 755.006 279.36 Q755.886 280.263 758.548 280.263 L762.923 280.263 L762.923 283.828 L758.548 283.828 Q753.617 283.828 751.742 281.999 Q749.867 280.147 749.867 275.286 L749.867 261.212 L746.742 261.212 L746.742 257.902 L749.867 257.902 L749.867 250.541 L754.149 250.541 Z" fill="#000000" fill-rule="nonzero" fill-opacity="1" /><path clip-path="url(#clip910)" d="M790.7 269.8 L790.7 271.884 L771.117 271.884 Q771.395 276.282 773.756 278.596 Q776.14 280.888 780.376 280.888 Q782.83 280.888 785.121 280.286 Q787.436 279.684 789.705 278.481 L789.705 282.508 Q787.413 283.481 785.006 283.99 Q782.598 284.499 780.122 284.499 Q773.918 284.499 770.284 280.888 Q766.673 277.277 766.673 271.12 Q766.673 264.754 770.098 261.027 Q773.547 257.277 779.381 257.277 Q784.612 257.277 787.645 260.657 Q790.7 264.013 790.7 269.8 M786.441 268.55 Q786.395 265.055 784.473 262.972 Q782.575 260.888 779.427 260.888 Q775.862 260.888 773.71 262.902 Q771.58 264.916 771.256 268.573 L786.441 268.55 Z" fill="#000000" fill-rule="nonzero" fill-opacity="1" /><path clip-path="url(#clip910)" d="M814.751 261.837 L814.751 247.81 L819.01 247.81 L819.01 283.828 L814.751 283.828 L814.751 279.939 Q813.408 282.254 811.348 283.388 Q809.311 284.499 806.441 284.499 Q801.742 284.499 798.779 280.749 Q795.839 276.999 795.839 270.888 Q795.839 264.777 798.779 261.027 Q801.742 257.277 806.441 257.277 Q809.311 257.277 811.348 258.411 Q813.408 259.522 814.751 261.837 M800.237 270.888 Q800.237 275.587 802.158 278.272 Q804.103 280.934 807.482 280.934 Q810.862 280.934 812.807 278.272 Q814.751 275.587 814.751 270.888 Q814.751 266.189 812.807 263.527 Q810.862 260.842 807.482 260.842 Q804.103 260.842 802.158 263.527 Q800.237 266.189 800.237 270.888 Z" fill="#000000" fill-rule="nonzero" fill-opacity="1" /><path clip-path="url(#clip910)" d="M827.112 247.856 L830.816 247.856 Q834.288 253.319 836.001 258.55 Q837.737 263.782 837.737 268.944 Q837.737 274.129 836.001 279.383 Q834.288 284.638 830.816 290.078 L827.112 290.078 Q830.191 284.777 831.695 279.546 Q833.223 274.291 833.223 268.944 Q833.223 263.597 831.695 258.388 Q830.191 253.18 827.112 247.856 Z" fill="#000000" fill-rule="nonzero" fill-opacity="1" /></svg>
