<?xml version="1.0" encoding="utf-8"?>
<svg xmlns="http://www.w3.org/2000/svg" xmlns:xlink="http://www.w3.org/1999/xlink" width="750" height="500" viewBox="0 0 3000 2000">
<defs>
  <clipPath id="clip290">
    <rect x="0" y="0" width="3000" height="2000"/>
  </clipPath>
</defs>
<path clip-path="url(#clip290)" d="M0 2000 L3000 2000 L3000 0 L0 0  Z" fill="#ffffff" fill-rule="evenodd" fill-opacity="1"/>
<defs>
  <clipPath id="clip291">
    <rect x="600" y="0" width="2101" height="2000"/>
  </clipPath>
</defs>
<path clip-path="url(#clip290)" d="M419.492 1638.08 L2952.76 1638.08 L2952.76 123.472 L419.492 123.472  Z" fill="#ffffff" fill-rule="evenodd" fill-opacity="1"/>
<defs>
  <clipPath id="clip292">
    <rect x="419" y="123" width="2534" height="1516"/>
  </clipPath>
</defs>
<polyline clip-path="url(#clip292)" style="stroke:#000000; stroke-linecap:round; stroke-linejoin:round; stroke-width:2; stroke-opacity:0.1; fill:none" points="491.188,1638.08 491.188,123.472 "/>
<polyline clip-path="url(#clip292)" style="stroke:#000000; stroke-linecap:round; stroke-linejoin:round; stroke-width:2; stroke-opacity:0.1; fill:none" points="1088.66,1638.08 1088.66,123.472 "/>
<polyline clip-path="url(#clip292)" style="stroke:#000000; stroke-linecap:round; stroke-linejoin:round; stroke-width:2; stroke-opacity:0.1; fill:none" points="1686.12,1638.08 1686.12,123.472 "/>
<polyline clip-path="url(#clip292)" style="stroke:#000000; stroke-linecap:round; stroke-linejoin:round; stroke-width:2; stroke-opacity:0.1; fill:none" points="2283.59,1638.08 2283.59,123.472 "/>
<polyline clip-path="url(#clip292)" style="stroke:#000000; stroke-linecap:round; stroke-linejoin:round; stroke-width:2; stroke-opacity:0.1; fill:none" points="2881.06,1638.08 2881.06,123.472 "/>
<polyline clip-path="url(#clip292)" style="stroke:#000000; stroke-linecap:round; stroke-linejoin:round; stroke-width:2; stroke-opacity:0.1; fill:none" points="419.492,1590.03 2952.76,1590.03 "/>
<polyline clip-path="url(#clip292)" style="stroke:#000000; stroke-linecap:round; stroke-linejoin:round; stroke-width:2; stroke-opacity:0.1; fill:none" points="419.492,1115.53 2952.76,1115.53 "/>
<polyline clip-path="url(#clip292)" style="stroke:#000000; stroke-linecap:round; stroke-linejoin:round; stroke-width:2; stroke-opacity:0.1; fill:none" points="419.492,641.04 2952.76,641.04 "/>
<polyline clip-path="url(#clip292)" style="stroke:#000000; stroke-linecap:round; stroke-linejoin:round; stroke-width:2; stroke-opacity:0.1; fill:none" points="419.492,166.546 2952.76,166.546 "/>
<polyline clip-path="url(#clip290)" style="stroke:#000000; stroke-linecap:round; stroke-linejoin:round; stroke-width:4; stroke-opacity:1; fill:none" points="419.492,1638.08 2952.76,1638.08 "/>
<polyline clip-path="url(#clip290)" style="stroke:#000000; stroke-linecap:round; stroke-linejoin:round; stroke-width:4; stroke-opacity:1; fill:none" points="491.188,1638.08 491.188,1619.18 "/>
<polyline clip-path="url(#clip290)" style="stroke:#000000; stroke-linecap:round; stroke-linejoin:round; stroke-width:4; stroke-opacity:1; fill:none" points="1088.66,1638.08 1088.66,1619.18 "/>
<polyline clip-path="url(#clip290)" style="stroke:#000000; stroke-linecap:round; stroke-linejoin:round; stroke-width:4; stroke-opacity:1; fill:none" points="1686.12,1638.08 1686.12,1619.18 "/>
<polyline clip-path="url(#clip290)" style="stroke:#000000; stroke-linecap:round; stroke-linejoin:round; stroke-width:4; stroke-opacity:1; fill:none" points="2283.59,1638.08 2283.59,1619.18 "/>
<polyline clip-path="url(#clip290)" style="stroke:#000000; stroke-linecap:round; stroke-linejoin:round; stroke-width:4; stroke-opacity:1; fill:none" points="2881.06,1638.08 2881.06,1619.18 "/>
<path clip-path="url(#clip290)" d="M468.572 1673.8 Q464.961 1673.8 463.132 1677.36 Q461.327 1680.9 461.327 1688.03 Q461.327 1695.14 463.132 1698.7 Q464.961 1702.25 468.572 1702.25 Q472.206 1702.25 474.012 1698.7 Q475.841 1695.14 475.841 1688.03 Q475.841 1680.9 474.012 1677.36 Q472.206 1673.8 468.572 1673.8 M468.572 1670.09 Q474.382 1670.09 477.438 1674.7 Q480.517 1679.28 480.517 1688.03 Q480.517 1696.76 477.438 1701.37 Q474.382 1705.95 468.572 1705.95 Q462.762 1705.95 459.683 1701.37 Q456.628 1696.76 456.628 1688.03 Q456.628 1679.28 459.683 1674.7 Q462.762 1670.09 468.572 1670.09 Z" fill="#000000" fill-rule="nonzero" fill-opacity="1" /><path clip-path="url(#clip290)" d="M488.734 1699.4 L493.618 1699.4 L493.618 1705.28 L488.734 1705.28 L488.734 1699.4 Z" fill="#000000" fill-rule="nonzero" fill-opacity="1" /><path clip-path="url(#clip290)" d="M513.803 1673.8 Q510.192 1673.8 508.364 1677.36 Q506.558 1680.9 506.558 1688.03 Q506.558 1695.14 508.364 1698.7 Q510.192 1702.25 513.803 1702.25 Q517.438 1702.25 519.243 1698.7 Q521.072 1695.14 521.072 1688.03 Q521.072 1680.9 519.243 1677.36 Q517.438 1673.8 513.803 1673.8 M513.803 1670.09 Q519.614 1670.09 522.669 1674.7 Q525.748 1679.28 525.748 1688.03 Q525.748 1696.76 522.669 1701.37 Q519.614 1705.95 513.803 1705.95 Q507.993 1705.95 504.915 1701.37 Q501.859 1696.76 501.859 1688.03 Q501.859 1679.28 504.915 1674.7 Q507.993 1670.09 513.803 1670.09 Z" fill="#000000" fill-rule="nonzero" fill-opacity="1" /><path clip-path="url(#clip290)" d="M1060.39 1701.34 L1076.71 1701.34 L1076.71 1705.28 L1054.77 1705.28 L1054.77 1701.34 Q1057.43 1698.59 1062.01 1693.96 Q1066.62 1689.31 1067.8 1687.96 Q1070.04 1685.44 1070.92 1683.7 Q1071.83 1681.94 1071.83 1680.25 Q1071.83 1677.5 1069.88 1675.76 Q1067.96 1674.03 1064.86 1674.03 Q1062.66 1674.03 1060.21 1674.79 Q1057.78 1675.56 1055 1677.11 L1055 1672.38 Q1057.82 1671.25 1060.28 1670.67 Q1062.73 1670.09 1064.77 1670.09 Q1070.14 1670.09 1073.33 1672.78 Q1076.53 1675.46 1076.53 1679.95 Q1076.53 1682.08 1075.72 1684 Q1074.93 1685.9 1072.82 1688.5 Q1072.24 1689.17 1069.14 1692.38 Q1066.04 1695.58 1060.39 1701.34 Z" fill="#000000" fill-rule="nonzero" fill-opacity="1" /><path clip-path="url(#clip290)" d="M1086.53 1699.4 L1091.41 1699.4 L1091.41 1705.28 L1086.53 1705.28 L1086.53 1699.4 Z" fill="#000000" fill-rule="nonzero" fill-opacity="1" /><path clip-path="url(#clip290)" d="M1101.64 1670.72 L1120 1670.72 L1120 1674.65 L1105.92 1674.65 L1105.92 1683.12 Q1106.94 1682.78 1107.96 1682.62 Q1108.98 1682.43 1110 1682.43 Q1115.79 1682.43 1119.16 1685.6 Q1122.54 1688.77 1122.54 1694.19 Q1122.54 1699.77 1119.07 1702.87 Q1115.6 1705.95 1109.28 1705.95 Q1107.1 1705.95 1104.84 1705.58 Q1102.59 1705.21 1100.18 1704.47 L1100.18 1699.77 Q1102.27 1700.9 1104.49 1701.46 Q1106.71 1702.01 1109.19 1702.01 Q1113.19 1702.01 1115.53 1699.91 Q1117.87 1697.8 1117.87 1694.19 Q1117.87 1690.58 1115.53 1688.47 Q1113.19 1686.37 1109.19 1686.37 Q1107.31 1686.37 1105.44 1686.78 Q1103.59 1687.2 1101.64 1688.08 L1101.64 1670.72 Z" fill="#000000" fill-rule="nonzero" fill-opacity="1" /><path clip-path="url(#clip290)" d="M1653.29 1670.72 L1671.64 1670.72 L1671.64 1674.65 L1657.57 1674.65 L1657.57 1683.12 Q1658.59 1682.78 1659.61 1682.62 Q1660.63 1682.43 1661.64 1682.43 Q1667.43 1682.43 1670.81 1685.6 Q1674.19 1688.77 1674.19 1694.19 Q1674.19 1699.77 1670.72 1702.87 Q1667.25 1705.95 1660.93 1705.95 Q1658.75 1705.95 1656.48 1705.58 Q1654.24 1705.21 1651.83 1704.47 L1651.83 1699.77 Q1653.91 1700.9 1656.14 1701.46 Q1658.36 1702.01 1660.83 1702.01 Q1664.84 1702.01 1667.18 1699.91 Q1669.52 1697.8 1669.52 1694.19 Q1669.52 1690.58 1667.18 1688.47 Q1664.84 1686.37 1660.83 1686.37 Q1658.96 1686.37 1657.08 1686.78 Q1655.23 1687.2 1653.29 1688.08 L1653.29 1670.72 Z" fill="#000000" fill-rule="nonzero" fill-opacity="1" /><path clip-path="url(#clip290)" d="M1683.4 1699.4 L1688.29 1699.4 L1688.29 1705.28 L1683.4 1705.28 L1683.4 1699.4 Z" fill="#000000" fill-rule="nonzero" fill-opacity="1" /><path clip-path="url(#clip290)" d="M1708.47 1673.8 Q1704.86 1673.8 1703.03 1677.36 Q1701.23 1680.9 1701.23 1688.03 Q1701.23 1695.14 1703.03 1698.7 Q1704.86 1702.25 1708.47 1702.25 Q1712.11 1702.25 1713.91 1698.7 Q1715.74 1695.14 1715.74 1688.03 Q1715.74 1680.9 1713.91 1677.36 Q1712.11 1673.8 1708.47 1673.8 M1708.47 1670.09 Q1714.28 1670.09 1717.34 1674.7 Q1720.42 1679.28 1720.42 1688.03 Q1720.42 1696.76 1717.34 1701.37 Q1714.28 1705.95 1708.47 1705.95 Q1702.66 1705.95 1699.58 1701.37 Q1696.53 1696.76 1696.53 1688.03 Q1696.53 1679.28 1699.58 1674.7 Q1702.66 1670.09 1708.47 1670.09 Z" fill="#000000" fill-rule="nonzero" fill-opacity="1" /><path clip-path="url(#clip290)" d="M2249.91 1670.72 L2272.13 1670.72 L2272.13 1672.71 L2259.59 1705.28 L2254.7 1705.28 L2266.51 1674.65 L2249.91 1674.65 L2249.91 1670.72 Z" fill="#000000" fill-rule="nonzero" fill-opacity="1" /><path clip-path="url(#clip290)" d="M2281.25 1699.4 L2286.14 1699.4 L2286.14 1705.28 L2281.25 1705.28 L2281.25 1699.4 Z" fill="#000000" fill-rule="nonzero" fill-opacity="1" /><path clip-path="url(#clip290)" d="M2296.37 1670.72 L2314.73 1670.72 L2314.73 1674.65 L2300.65 1674.65 L2300.65 1683.12 Q2301.67 1682.78 2302.69 1682.62 Q2303.71 1682.43 2304.73 1682.43 Q2310.51 1682.43 2313.89 1685.6 Q2317.27 1688.77 2317.27 1694.19 Q2317.27 1699.77 2313.8 1702.87 Q2310.33 1705.95 2304.01 1705.95 Q2301.83 1705.95 2299.56 1705.58 Q2297.32 1705.21 2294.91 1704.47 L2294.91 1699.77 Q2296.99 1700.9 2299.22 1701.46 Q2301.44 1702.01 2303.92 1702.01 Q2307.92 1702.01 2310.26 1699.91 Q2312.6 1697.8 2312.6 1694.19 Q2312.6 1690.58 2310.26 1688.47 Q2307.92 1686.37 2303.92 1686.37 Q2302.04 1686.37 2300.17 1686.78 Q2298.31 1687.2 2296.37 1688.08 L2296.37 1670.72 Z" fill="#000000" fill-rule="nonzero" fill-opacity="1" /><path clip-path="url(#clip290)" d="M2833.13 1701.34 L2840.77 1701.34 L2840.77 1674.98 L2832.46 1676.64 L2832.46 1672.38 L2840.72 1670.72 L2845.4 1670.72 L2845.4 1701.34 L2853.04 1701.34 L2853.04 1705.28 L2833.13 1705.28 L2833.13 1701.34 Z" fill="#000000" fill-rule="nonzero" fill-opacity="1" /><path clip-path="url(#clip290)" d="M2872.48 1673.8 Q2868.87 1673.8 2867.04 1677.36 Q2865.24 1680.9 2865.24 1688.03 Q2865.24 1695.14 2867.04 1698.7 Q2868.87 1702.25 2872.48 1702.25 Q2876.12 1702.25 2877.92 1698.7 Q2879.75 1695.14 2879.75 1688.03 Q2879.75 1680.9 2877.92 1677.36 Q2876.12 1673.8 2872.48 1673.8 M2872.48 1670.09 Q2878.29 1670.09 2881.35 1674.7 Q2884.43 1679.28 2884.43 1688.03 Q2884.43 1696.76 2881.35 1701.37 Q2878.29 1705.95 2872.48 1705.95 Q2866.67 1705.95 2863.59 1701.37 Q2860.54 1696.76 2860.54 1688.03 Q2860.54 1679.28 2863.59 1674.7 Q2866.67 1670.09 2872.48 1670.09 Z" fill="#000000" fill-rule="nonzero" fill-opacity="1" /><path clip-path="url(#clip290)" d="M2892.65 1699.4 L2897.53 1699.4 L2897.53 1705.28 L2892.65 1705.28 L2892.65 1699.4 Z" fill="#000000" fill-rule="nonzero" fill-opacity="1" /><path clip-path="url(#clip290)" d="M2917.71 1673.8 Q2914.1 1673.8 2912.27 1677.36 Q2910.47 1680.9 2910.47 1688.03 Q2910.47 1695.14 2912.27 1698.7 Q2914.1 1702.25 2917.71 1702.25 Q2921.35 1702.25 2923.15 1698.7 Q2924.98 1695.14 2924.98 1688.03 Q2924.98 1680.9 2923.15 1677.36 Q2921.35 1673.8 2917.71 1673.8 M2917.71 1670.09 Q2923.52 1670.09 2926.58 1674.7 Q2929.66 1679.28 2929.66 1688.03 Q2929.66 1696.76 2926.58 1701.37 Q2923.52 1705.95 2917.71 1705.95 Q2911.9 1705.95 2908.83 1701.37 Q2905.77 1696.76 2905.77 1688.03 Q2905.77 1679.28 2908.83 1674.7 Q2911.9 1670.09 2917.71 1670.09 Z" fill="#000000" fill-rule="nonzero" fill-opacity="1" /><path clip-path="url(#clip290)" d="M1608 1744.42 L1648.2 1744.42 L1648.2 1749.83 L1631.33 1749.83 L1631.33 1791.94 L1624.87 1791.94 L1624.87 1749.83 L1608 1749.83 L1608 1744.42 Z" fill="#000000" fill-rule="nonzero" fill-opacity="1" /><path clip-path="url(#clip290)" d="M1652.15 1756.29 L1658 1756.29 L1658 1791.94 L1652.15 1791.94 L1652.15 1756.29 M1652.15 1742.42 L1658 1742.42 L1658 1749.83 L1652.15 1749.83 L1652.15 1742.42 Z" fill="#000000" fill-rule="nonzero" fill-opacity="1" /><path clip-path="url(#clip290)" d="M1698.01 1763.14 Q1700.21 1759.19 1703.26 1757.31 Q1706.32 1755.43 1710.46 1755.43 Q1716.03 1755.43 1719.05 1759.35 Q1722.07 1763.23 1722.07 1770.43 L1722.07 1791.94 L1716.19 1791.94 L1716.19 1770.62 Q1716.19 1765.49 1714.37 1763.01 Q1712.56 1760.53 1708.83 1760.53 Q1704.28 1760.53 1701.64 1763.55 Q1699 1766.57 1699 1771.79 L1699 1791.94 L1693.11 1791.94 L1693.11 1770.62 Q1693.11 1765.46 1691.3 1763.01 Q1689.48 1760.53 1685.69 1760.53 Q1681.21 1760.53 1678.56 1763.58 Q1675.92 1766.61 1675.92 1771.79 L1675.92 1791.94 L1670.03 1791.94 L1670.03 1756.29 L1675.92 1756.29 L1675.92 1761.83 Q1677.93 1758.55 1680.73 1756.99 Q1683.53 1755.43 1687.38 1755.43 Q1691.26 1755.43 1693.97 1757.41 Q1696.71 1759.38 1698.01 1763.14 Z" fill="#000000" fill-rule="nonzero" fill-opacity="1" /><path clip-path="url(#clip290)" d="M1764.25 1772.65 L1764.25 1775.52 L1737.32 1775.52 Q1737.7 1781.57 1740.95 1784.75 Q1744.23 1787.9 1750.05 1787.9 Q1753.43 1787.9 1756.58 1787.07 Q1759.76 1786.24 1762.88 1784.59 L1762.88 1790.13 Q1759.73 1791.46 1756.42 1792.16 Q1753.11 1792.86 1749.7 1792.86 Q1741.17 1792.86 1736.17 1787.9 Q1731.21 1782.93 1731.21 1774.47 Q1731.21 1765.71 1735.92 1760.59 Q1740.66 1755.43 1748.68 1755.43 Q1755.88 1755.43 1760.05 1760.08 Q1764.25 1764.7 1764.25 1772.65 M1758.39 1770.93 Q1758.33 1766.13 1755.69 1763.26 Q1753.08 1760.4 1748.75 1760.4 Q1743.84 1760.4 1740.88 1763.17 Q1737.96 1765.94 1737.51 1770.97 L1758.39 1770.93 Z" fill="#000000" fill-rule="nonzero" fill-opacity="1" /><polyline clip-path="url(#clip290)" style="stroke:#000000; stroke-linecap:round; stroke-linejoin:round; stroke-width:4; stroke-opacity:1; fill:none" points="419.492,1638.08 419.492,123.472 "/>
<polyline clip-path="url(#clip290)" style="stroke:#000000; stroke-linecap:round; stroke-linejoin:round; stroke-width:4; stroke-opacity:1; fill:none" points="419.492,1590.03 438.389,1590.03 "/>
<polyline clip-path="url(#clip290)" style="stroke:#000000; stroke-linecap:round; stroke-linejoin:round; stroke-width:4; stroke-opacity:1; fill:none" points="419.492,1115.53 438.389,1115.53 "/>
<polyline clip-path="url(#clip290)" style="stroke:#000000; stroke-linecap:round; stroke-linejoin:round; stroke-width:4; stroke-opacity:1; fill:none" points="419.492,641.04 438.389,641.04 "/>
<polyline clip-path="url(#clip290)" style="stroke:#000000; stroke-linecap:round; stroke-linejoin:round; stroke-width:4; stroke-opacity:1; fill:none" points="419.492,166.546 438.389,166.546 "/>
<path clip-path="url(#clip290)" d="M362.547 1575.83 Q358.936 1575.83 357.108 1579.39 Q355.302 1582.93 355.302 1590.06 Q355.302 1597.17 357.108 1600.73 Q358.936 1604.27 362.547 1604.27 Q366.182 1604.27 367.987 1600.73 Q369.816 1597.17 369.816 1590.06 Q369.816 1582.93 367.987 1579.39 Q366.182 1575.83 362.547 1575.83 M362.547 1572.12 Q368.357 1572.12 371.413 1576.73 Q374.492 1581.31 374.492 1590.06 Q374.492 1598.79 371.413 1603.4 Q368.357 1607.98 362.547 1607.98 Q356.737 1607.98 353.658 1603.4 Q350.603 1598.79 350.603 1590.06 Q350.603 1581.31 353.658 1576.73 Q356.737 1572.12 362.547 1572.12 Z" fill="#000000" fill-rule="nonzero" fill-opacity="1" /><path clip-path="url(#clip290)" d="M322.432 1098.25 L340.788 1098.25 L340.788 1102.19 L326.714 1102.19 L326.714 1110.66 Q327.733 1110.31 328.751 1110.15 Q329.77 1109.97 330.788 1109.97 Q336.575 1109.97 339.955 1113.14 Q343.334 1116.31 343.334 1121.73 Q343.334 1127.3 339.862 1130.41 Q336.39 1133.48 330.071 1133.48 Q327.895 1133.48 325.626 1133.11 Q323.381 1132.74 320.973 1132 L320.973 1127.3 Q323.057 1128.44 325.279 1128.99 Q327.501 1129.55 329.978 1129.55 Q333.983 1129.55 336.321 1127.44 Q338.659 1125.34 338.659 1121.73 Q338.659 1118.11 336.321 1116.01 Q333.983 1113.9 329.978 1113.9 Q328.103 1113.9 326.228 1114.32 Q324.376 1114.74 322.432 1115.61 L322.432 1098.25 Z" fill="#000000" fill-rule="nonzero" fill-opacity="1" /><path clip-path="url(#clip290)" d="M362.547 1101.33 Q358.936 1101.33 357.108 1104.9 Q355.302 1108.44 355.302 1115.57 Q355.302 1122.67 357.108 1126.24 Q358.936 1129.78 362.547 1129.78 Q366.182 1129.78 367.987 1126.24 Q369.816 1122.67 369.816 1115.57 Q369.816 1108.44 367.987 1104.9 Q366.182 1101.33 362.547 1101.33 M362.547 1097.63 Q368.357 1097.63 371.413 1102.24 Q374.492 1106.82 374.492 1115.57 Q374.492 1124.3 371.413 1128.9 Q368.357 1133.48 362.547 1133.48 Q356.737 1133.48 353.658 1128.9 Q350.603 1124.3 350.603 1115.57 Q350.603 1106.82 353.658 1102.24 Q356.737 1097.63 362.547 1097.63 Z" fill="#000000" fill-rule="nonzero" fill-opacity="1" /><path clip-path="url(#clip290)" d="M293.034 654.385 L300.673 654.385 L300.673 628.019 L292.363 629.686 L292.363 625.427 L300.626 623.76 L305.302 623.76 L305.302 654.385 L312.941 654.385 L312.941 658.32 L293.034 658.32 L293.034 654.385 Z" fill="#000000" fill-rule="nonzero" fill-opacity="1" /><path clip-path="url(#clip290)" d="M332.385 626.839 Q328.774 626.839 326.946 630.403 Q325.14 633.945 325.14 641.075 Q325.14 648.181 326.946 651.746 Q328.774 655.288 332.385 655.288 Q336.02 655.288 337.825 651.746 Q339.654 648.181 339.654 641.075 Q339.654 633.945 337.825 630.403 Q336.02 626.839 332.385 626.839 M332.385 623.135 Q338.196 623.135 341.251 627.741 Q344.33 632.325 344.33 641.075 Q344.33 649.801 341.251 654.408 Q338.196 658.991 332.385 658.991 Q326.575 658.991 323.497 654.408 Q320.441 649.801 320.441 641.075 Q320.441 632.325 323.497 627.741 Q326.575 623.135 332.385 623.135 Z" fill="#000000" fill-rule="nonzero" fill-opacity="1" /><path clip-path="url(#clip290)" d="M362.547 626.839 Q358.936 626.839 357.108 630.403 Q355.302 633.945 355.302 641.075 Q355.302 648.181 357.108 651.746 Q358.936 655.288 362.547 655.288 Q366.182 655.288 367.987 651.746 Q369.816 648.181 369.816 641.075 Q369.816 633.945 367.987 630.403 Q366.182 626.839 362.547 626.839 M362.547 623.135 Q368.357 623.135 371.413 627.741 Q374.492 632.325 374.492 641.075 Q374.492 649.801 371.413 654.408 Q368.357 658.991 362.547 658.991 Q356.737 658.991 353.658 654.408 Q350.603 649.801 350.603 641.075 Q350.603 632.325 353.658 627.741 Q356.737 623.135 362.547 623.135 Z" fill="#000000" fill-rule="nonzero" fill-opacity="1" /><path clip-path="url(#clip290)" d="M293.034 179.891 L300.673 179.891 L300.673 153.525 L292.363 155.192 L292.363 150.933 L300.626 149.266 L305.302 149.266 L305.302 179.891 L312.941 179.891 L312.941 183.826 L293.034 183.826 L293.034 179.891 Z" fill="#000000" fill-rule="nonzero" fill-opacity="1" /><path clip-path="url(#clip290)" d="M322.432 149.266 L340.788 149.266 L340.788 153.201 L326.714 153.201 L326.714 161.674 Q327.733 161.326 328.751 161.164 Q329.77 160.979 330.788 160.979 Q336.575 160.979 339.955 164.15 Q343.334 167.322 343.334 172.738 Q343.334 178.317 339.862 181.419 Q336.39 184.498 330.071 184.498 Q327.895 184.498 325.626 184.127 Q323.381 183.757 320.973 183.016 L320.973 178.317 Q323.057 179.451 325.279 180.007 Q327.501 180.562 329.978 180.562 Q333.983 180.562 336.321 178.456 Q338.659 176.349 338.659 172.738 Q338.659 169.127 336.321 167.021 Q333.983 164.914 329.978 164.914 Q328.103 164.914 326.228 165.331 Q324.376 165.748 322.432 166.627 L322.432 149.266 Z" fill="#000000" fill-rule="nonzero" fill-opacity="1" /><path clip-path="url(#clip290)" d="M362.547 152.345 Q358.936 152.345 357.108 155.91 Q355.302 159.451 355.302 166.581 Q355.302 173.687 357.108 177.252 Q358.936 180.794 362.547 180.794 Q366.182 180.794 367.987 177.252 Q369.816 173.687 369.816 166.581 Q369.816 159.451 367.987 155.91 Q366.182 152.345 362.547 152.345 M362.547 148.641 Q368.357 148.641 371.413 153.248 Q374.492 157.831 374.492 166.581 Q374.492 175.308 371.413 179.914 Q368.357 184.498 362.547 184.498 Q356.737 184.498 353.658 179.914 Q350.603 175.308 350.603 166.581 Q350.603 157.831 353.658 153.248 Q356.737 148.641 362.547 148.641 Z" fill="#000000" fill-rule="nonzero" fill-opacity="1" /><path clip-path="url(#clip290)" d="M185.587 1323.33 L185.587 1313.75 L217.924 1301.63 L185.587 1289.44 L185.587 1279.86 L233.107 1279.86 L233.107 1286.13 L191.379 1286.13 L223.972 1298.38 L223.972 1304.84 L191.379 1317.1 L233.107 1317.1 L233.107 1323.33 L185.587 1323.33 Z" fill="#000000" fill-rule="nonzero" fill-opacity="1" /><path clip-path="url(#clip290)" d="M201.564 1253.53 Q201.564 1258.25 205.257 1260.98 Q208.917 1263.72 215.314 1263.72 Q221.712 1263.72 225.404 1261.01 Q229.064 1258.28 229.064 1253.53 Q229.064 1248.86 225.372 1246.12 Q221.68 1243.38 215.314 1243.38 Q208.98 1243.38 205.288 1246.12 Q201.564 1248.86 201.564 1253.53 M196.599 1253.53 Q196.599 1245.9 201.564 1241.54 Q206.53 1237.17 215.314 1237.17 Q224.067 1237.17 229.064 1241.54 Q234.03 1245.9 234.03 1253.53 Q234.03 1261.21 229.064 1265.57 Q224.067 1269.89 215.314 1269.89 Q206.53 1269.89 201.564 1265.57 Q196.599 1261.21 196.599 1253.53 Z" fill="#000000" fill-rule="nonzero" fill-opacity="1" /><path clip-path="url(#clip290)" d="M202.869 1204.01 L183.581 1204.01 L183.581 1198.15 L233.107 1198.15 L233.107 1204.01 L227.759 1204.01 Q230.942 1205.86 232.502 1208.69 Q234.03 1211.49 234.03 1215.44 Q234.03 1221.9 228.873 1225.97 Q223.717 1230.01 215.314 1230.01 Q206.912 1230.01 201.755 1225.97 Q196.599 1221.9 196.599 1215.44 Q196.599 1211.49 198.159 1208.69 Q199.687 1205.86 202.869 1204.01 M215.314 1223.97 Q221.776 1223.97 225.468 1221.32 Q229.128 1218.65 229.128 1214 Q229.128 1209.36 225.468 1206.68 Q221.776 1204.01 215.314 1204.01 Q208.853 1204.01 205.193 1206.68 Q201.501 1209.36 201.501 1214 Q201.501 1218.65 205.193 1221.32 Q208.853 1223.97 215.314 1223.97 Z" fill="#000000" fill-rule="nonzero" fill-opacity="1" /><path clip-path="url(#clip290)" d="M213.818 1155.6 L216.683 1155.6 L216.683 1182.53 Q222.73 1182.14 225.913 1178.9 Q229.064 1175.62 229.064 1169.79 Q229.064 1166.42 228.237 1163.27 Q227.409 1160.09 225.754 1156.97 L231.292 1156.97 Q232.629 1160.12 233.329 1163.43 Q234.03 1166.74 234.03 1170.14 Q234.03 1178.67 229.064 1183.67 Q224.099 1188.64 215.633 1188.64 Q206.88 1188.64 201.755 1183.93 Q196.599 1179.18 196.599 1171.16 Q196.599 1163.97 201.246 1159.8 Q205.861 1155.6 213.818 1155.6 M212.1 1161.45 Q207.294 1161.52 204.429 1164.16 Q201.564 1166.77 201.564 1171.1 Q201.564 1176 204.334 1178.96 Q207.103 1181.89 212.132 1182.33 L212.1 1161.45 Z" fill="#000000" fill-rule="nonzero" fill-opacity="1" /><path clip-path="url(#clip290)" d="M183.581 1145.99 L183.581 1140.13 L233.107 1140.13 L233.107 1145.99 L183.581 1145.99 Z" fill="#000000" fill-rule="nonzero" fill-opacity="1" /><path clip-path="url(#clip290)" d="M215.187 1090.95 Q215.187 1098.05 216.81 1100.79 Q218.434 1103.53 222.348 1103.53 Q225.468 1103.53 227.314 1101.49 Q229.128 1099.42 229.128 1095.89 Q229.128 1091.02 225.69 1088.09 Q222.221 1085.13 216.492 1085.13 L215.187 1085.13 L215.187 1090.95 M212.768 1079.27 L233.107 1079.27 L233.107 1085.13 L227.696 1085.13 Q230.942 1087.14 232.502 1090.13 Q234.03 1093.12 234.03 1097.45 Q234.03 1102.92 230.974 1106.17 Q227.887 1109.38 222.73 1109.38 Q216.715 1109.38 213.659 1105.37 Q210.604 1101.33 210.604 1093.34 L210.604 1085.13 L210.031 1085.13 Q205.989 1085.13 203.792 1087.8 Q201.564 1090.45 201.564 1095.25 Q201.564 1098.31 202.296 1101.2 Q203.029 1104.1 204.493 1106.77 L199.082 1106.77 Q197.841 1103.56 197.236 1100.53 Q196.599 1097.51 196.599 1094.65 Q196.599 1086.91 200.61 1083.09 Q204.62 1079.27 212.768 1079.27 Z" fill="#000000" fill-rule="nonzero" fill-opacity="1" /><path clip-path="url(#clip290)" d="M211.59 1037.58 L233.107 1037.58 L233.107 1043.43 L211.781 1043.43 Q206.721 1043.43 204.206 1045.41 Q201.692 1047.38 201.692 1051.33 Q201.692 1056.07 204.715 1058.81 Q207.739 1061.54 212.959 1061.54 L233.107 1061.54 L233.107 1067.43 L197.459 1067.43 L197.459 1061.54 L202.997 1061.54 Q199.782 1059.44 198.191 1056.61 Q196.599 1053.75 196.599 1050.02 Q196.599 1043.88 200.419 1040.73 Q204.206 1037.58 211.59 1037.58 Z" fill="#000000" fill-rule="nonzero" fill-opacity="1" /><path clip-path="url(#clip290)" d="M202.869 1002.44 L183.581 1002.44 L183.581 996.583 L233.107 996.583 L233.107 1002.44 L227.759 1002.44 Q230.942 1004.29 232.502 1007.12 Q234.03 1009.92 234.03 1013.87 Q234.03 1020.33 228.873 1024.4 Q223.717 1028.44 215.314 1028.44 Q206.912 1028.44 201.755 1024.4 Q196.599 1020.33 196.599 1013.87 Q196.599 1009.92 198.159 1007.12 Q199.687 1004.29 202.869 1002.44 M215.314 1022.4 Q221.776 1022.4 225.468 1019.75 Q229.128 1017.08 229.128 1012.43 Q229.128 1007.79 225.468 1005.11 Q221.776 1002.44 215.314 1002.44 Q208.853 1002.44 205.193 1005.11 Q201.501 1007.79 201.501 1012.43 Q201.501 1017.08 205.193 1019.75 Q208.853 1022.4 215.314 1022.4 Z" fill="#000000" fill-rule="nonzero" fill-opacity="1" /><path clip-path="url(#clip290)" d="M201.564 949.986 Q201.564 954.697 205.257 957.434 Q208.917 960.171 215.314 960.171 Q221.712 960.171 225.404 957.466 Q229.064 954.728 229.064 949.986 Q229.064 945.307 225.372 942.57 Q221.68 939.833 215.314 939.833 Q208.98 939.833 205.288 942.57 Q201.564 945.307 201.564 949.986 M196.599 949.986 Q196.599 942.347 201.564 937.987 Q206.53 933.626 215.314 933.626 Q224.067 933.626 229.064 937.987 Q234.03 942.347 234.03 949.986 Q234.03 957.657 229.064 962.017 Q224.067 966.346 215.314 966.346 Q206.53 966.346 201.564 962.017 Q196.599 957.657 196.599 949.986 Z" fill="#000000" fill-rule="nonzero" fill-opacity="1" /><path clip-path="url(#clip290)" d="M215.314 898.328 Q208.853 898.328 205.193 901.002 Q201.501 903.644 201.501 908.291 Q201.501 912.938 205.193 915.611 Q208.853 918.253 215.314 918.253 Q221.776 918.253 225.468 915.611 Q229.128 912.938 229.128 908.291 Q229.128 903.644 225.468 901.002 Q221.776 898.328 215.314 898.328 M202.869 918.253 Q199.687 916.407 198.159 913.606 Q196.599 910.773 196.599 906.858 Q196.599 900.365 201.755 896.323 Q206.912 892.249 215.314 892.249 Q223.717 892.249 228.873 896.323 Q234.03 900.365 234.03 906.858 Q234.03 910.773 232.502 913.606 Q230.942 916.407 227.759 918.253 L233.107 918.253 L233.107 924.141 L183.581 924.141 L183.581 918.253 L202.869 918.253 Z" fill="#000000" fill-rule="nonzero" fill-opacity="1" /><path clip-path="url(#clip290)" d="M198.509 859.816 L204.047 859.816 Q202.774 862.298 202.137 864.972 Q201.501 867.646 201.501 870.51 Q201.501 874.871 202.838 877.067 Q204.174 879.231 206.848 879.231 Q208.885 879.231 210.063 877.672 Q211.208 876.112 212.259 871.401 L212.704 869.396 Q214.041 863.158 216.492 860.548 Q218.911 857.906 223.272 857.906 Q228.237 857.906 231.133 861.853 Q234.03 865.768 234.03 872.643 Q234.03 875.507 233.457 878.626 Q232.916 881.714 231.802 885.151 L225.754 885.151 Q227.441 881.905 228.3 878.754 Q229.128 875.603 229.128 872.515 Q229.128 868.378 227.727 866.15 Q226.295 863.922 223.717 863.922 Q221.33 863.922 220.057 865.545 Q218.784 867.136 217.606 872.579 L217.129 874.616 Q215.983 880.059 213.627 882.478 Q211.24 884.897 207.103 884.897 Q202.074 884.897 199.336 881.332 Q196.599 877.767 196.599 871.21 Q196.599 867.964 197.077 865.099 Q197.554 862.235 198.509 859.816 Z" fill="#000000" fill-rule="nonzero" fill-opacity="1" /><path clip-path="url(#clip290)" d="M213.818 818.089 L216.683 818.089 L216.683 845.015 Q222.73 844.634 225.913 841.387 Q229.064 838.109 229.064 832.284 Q229.064 828.91 228.237 825.759 Q227.409 822.576 225.754 819.457 L231.292 819.457 Q232.629 822.608 233.329 825.918 Q234.03 829.228 234.03 832.634 Q234.03 841.164 229.064 846.161 Q224.099 851.127 215.633 851.127 Q206.88 851.127 201.755 846.416 Q196.599 841.673 196.599 833.653 Q196.599 826.459 201.246 822.29 Q205.861 818.089 213.818 818.089 M212.1 823.945 Q207.294 824.009 204.429 826.65 Q201.564 829.26 201.564 833.589 Q201.564 838.491 204.334 841.451 Q207.103 844.379 212.132 844.824 L212.1 823.945 Z" fill="#000000" fill-rule="nonzero" fill-opacity="1" /><path clip-path="url(#clip290)" d="M202.933 787.82 Q202.36 788.806 202.106 789.984 Q201.819 791.13 201.819 792.53 Q201.819 797.495 205.066 800.169 Q208.28 802.811 214.328 802.811 L233.107 802.811 L233.107 808.699 L197.459 808.699 L197.459 802.811 L202.997 802.811 Q199.75 800.965 198.191 798.005 Q196.599 795.045 196.599 790.811 Q196.599 790.207 196.695 789.475 Q196.758 788.743 196.917 787.851 L202.933 787.82 Z" fill="#000000" fill-rule="nonzero" fill-opacity="1" /><path clip-path="url(#clip290)" d="M197.459 785.878 L197.459 779.671 L227.377 768.531 L197.459 757.391 L197.459 751.185 L233.107 764.553 L233.107 772.51 L197.459 785.878 Z" fill="#000000" fill-rule="nonzero" fill-opacity="1" /><path clip-path="url(#clip290)" d="M213.818 712.609 L216.683 712.609 L216.683 739.536 Q222.73 739.154 225.913 735.907 Q229.064 732.629 229.064 726.804 Q229.064 723.43 228.237 720.279 Q227.409 717.097 225.754 713.977 L231.292 713.977 Q232.629 717.128 233.329 720.439 Q234.03 723.749 234.03 727.154 Q234.03 735.684 229.064 740.682 Q224.099 745.647 215.633 745.647 Q206.88 745.647 201.755 740.936 Q196.599 736.194 196.599 728.173 Q196.599 720.98 201.246 716.81 Q205.861 712.609 213.818 712.609 M212.1 718.465 Q207.294 718.529 204.429 721.171 Q201.564 723.781 201.564 728.109 Q201.564 733.011 204.334 735.971 Q207.103 738.899 212.132 739.345 L212.1 718.465 Z" fill="#000000" fill-rule="nonzero" fill-opacity="1" /><path clip-path="url(#clip290)" d="M202.869 679.539 L183.581 679.539 L183.581 673.682 L233.107 673.682 L233.107 679.539 L227.759 679.539 Q230.942 681.385 232.502 684.218 Q234.03 687.019 234.03 690.965 Q234.03 697.427 228.873 701.501 Q223.717 705.543 215.314 705.543 Q206.912 705.543 201.755 701.501 Q196.599 697.427 196.599 690.965 Q196.599 687.019 198.159 684.218 Q199.687 681.385 202.869 679.539 M215.314 699.495 Q221.776 699.495 225.468 696.854 Q229.128 694.18 229.128 689.533 Q229.128 684.886 225.468 682.212 Q221.776 679.539 215.314 679.539 Q208.853 679.539 205.193 682.212 Q201.501 684.886 201.501 689.533 Q201.501 694.18 205.193 696.854 Q208.853 699.495 215.314 699.495 Z" fill="#000000" fill-rule="nonzero" fill-opacity="1" /><path clip-path="url(#clip290)" d="M197.459 645.1 L197.459 638.894 L227.377 627.754 L197.459 616.614 L197.459 610.407 L233.107 623.775 L233.107 631.732 L197.459 645.1 Z" fill="#000000" fill-rule="nonzero" fill-opacity="1" /><path clip-path="url(#clip290)" d="M215.187 586.122 Q215.187 593.22 216.81 595.957 Q218.434 598.694 222.348 598.694 Q225.468 598.694 227.314 596.657 Q229.128 594.589 229.128 591.056 Q229.128 586.186 225.69 583.258 Q222.221 580.298 216.492 580.298 L215.187 580.298 L215.187 586.122 M212.768 574.441 L233.107 574.441 L233.107 580.298 L227.696 580.298 Q230.942 582.303 232.502 585.295 Q234.03 588.286 234.03 592.615 Q234.03 598.09 230.974 601.336 Q227.887 604.551 222.73 604.551 Q216.715 604.551 213.659 600.54 Q210.604 596.498 210.604 588.509 L210.604 580.298 L210.031 580.298 Q205.989 580.298 203.792 582.971 Q201.564 585.613 201.564 590.419 Q201.564 593.475 202.296 596.371 Q203.029 599.267 204.493 601.941 L199.082 601.941 Q197.841 598.726 197.236 595.703 Q196.599 592.679 196.599 589.814 Q196.599 582.08 200.61 578.261 Q204.62 574.441 212.768 574.441 Z" fill="#000000" fill-rule="nonzero" fill-opacity="1" /><path clip-path="url(#clip290)" d="M183.581 562.378 L183.581 556.522 L233.107 556.522 L233.107 562.378 L183.581 562.378 Z" fill="#000000" fill-rule="nonzero" fill-opacity="1" /><path clip-path="url(#clip290)" d="M219.038 544.872 L197.459 544.872 L197.459 539.016 L218.816 539.016 Q223.876 539.016 226.423 537.043 Q228.937 535.069 228.937 531.122 Q228.937 526.38 225.913 523.643 Q222.89 520.874 217.67 520.874 L197.459 520.874 L197.459 515.017 L233.107 515.017 L233.107 520.874 L227.632 520.874 Q230.879 523.006 232.47 525.839 Q234.03 528.64 234.03 532.364 Q234.03 538.507 230.21 541.69 Q226.391 544.872 219.038 544.872 M196.599 530.136 L196.599 530.136 Z" fill="#000000" fill-rule="nonzero" fill-opacity="1" /><path clip-path="url(#clip290)" d="M213.818 472.462 L216.683 472.462 L216.683 499.389 Q222.73 499.007 225.913 495.761 Q229.064 492.483 229.064 486.658 Q229.064 483.284 228.237 480.133 Q227.409 476.95 225.754 473.831 L231.292 473.831 Q232.629 476.982 233.329 480.292 Q234.03 483.602 234.03 487.008 Q234.03 495.538 229.064 500.535 Q224.099 505.5 215.633 505.5 Q206.88 505.5 201.755 500.79 Q196.599 496.047 196.599 488.027 Q196.599 480.833 201.246 476.664 Q205.861 472.462 213.818 472.462 M212.1 478.319 Q207.294 478.383 204.429 481.024 Q201.564 483.634 201.564 487.963 Q201.564 492.865 204.334 495.825 Q207.103 498.753 212.132 499.198 L212.1 478.319 Z" fill="#000000" fill-rule="nonzero" fill-opacity="1" /><path clip-path="url(#clip290)" d="M198.509 440.125 L204.047 440.125 Q202.774 442.607 202.137 445.281 Q201.501 447.954 201.501 450.819 Q201.501 455.18 202.838 457.376 Q204.174 459.54 206.848 459.54 Q208.885 459.54 210.063 457.98 Q211.208 456.421 212.259 451.71 L212.704 449.705 Q214.041 443.467 216.492 440.857 Q218.911 438.215 223.272 438.215 Q228.237 438.215 231.133 442.162 Q234.03 446.077 234.03 452.952 Q234.03 455.816 233.457 458.935 Q232.916 462.023 231.802 465.46 L225.754 465.46 Q227.441 462.214 228.3 459.063 Q229.128 455.912 229.128 452.824 Q229.128 448.687 227.727 446.459 Q226.295 444.231 223.717 444.231 Q221.33 444.231 220.057 445.854 Q218.784 447.445 217.606 452.888 L217.129 454.925 Q215.983 460.368 213.627 462.787 Q211.24 465.206 207.103 465.206 Q202.074 465.206 199.336 461.641 Q196.599 458.076 196.599 451.519 Q196.599 448.273 197.077 445.408 Q197.554 442.544 198.509 440.125 Z" fill="#000000" fill-rule="nonzero" fill-opacity="1" /><path clip-path="url(#clip290)" d="M1596.25 86.3491 L1596.25 92.1419 L1553.15 92.1419 L1553.15 86.3491 L1596.25 86.3491 Z" fill="#000000" fill-rule="nonzero" fill-opacity="1" /><path clip-path="url(#clip290)" d="M1637.74 86.3491 L1637.74 92.1419 L1594.63 92.1419 L1594.63 86.3491 L1637.74 86.3491 Z" fill="#000000" fill-rule="nonzero" fill-opacity="1" /><path clip-path="url(#clip290)" d="M1677.39 28.9478 L1677.39 35.9153 Q1674.23 34.1734 1671.03 33.3227 Q1667.87 32.4315 1664.63 32.4315 Q1657.38 32.4315 1653.37 37.0496 Q1649.36 41.6271 1649.36 49.9314 Q1649.36 58.2358 1653.37 62.8538 Q1657.38 67.4314 1664.63 67.4314 Q1667.87 67.4314 1671.03 66.5807 Q1674.23 65.6895 1677.39 63.9476 L1677.39 70.8341 Q1674.27 72.2924 1670.91 73.0216 Q1667.59 73.7508 1663.82 73.7508 Q1653.57 73.7508 1647.54 67.3098 Q1641.5 60.8689 1641.5 49.9314 Q1641.5 38.832 1647.58 32.472 Q1653.7 26.1121 1664.31 26.1121 Q1667.75 26.1121 1671.03 26.8413 Q1674.32 27.5299 1677.39 28.9478 Z" fill="#000000" fill-rule="nonzero" fill-opacity="1" /><path clip-path="url(#clip290)" d="M1708.91 17.4837 Q1702.59 17.4837 1699.39 23.7221 Q1696.23 29.92 1696.23 42.3968 Q1696.23 54.833 1699.39 61.0714 Q1702.59 67.2693 1708.91 67.2693 Q1715.27 67.2693 1718.43 61.0714 Q1721.63 54.833 1721.63 42.3968 Q1721.63 29.92 1718.43 23.7221 Q1715.27 17.4837 1708.91 17.4837 M1708.91 11.0023 Q1719.08 11.0023 1724.43 19.0636 Q1729.81 27.0843 1729.81 42.3968 Q1729.81 57.6687 1724.43 65.73 Q1719.08 73.7508 1708.91 73.7508 Q1698.74 73.7508 1693.35 65.73 Q1688.01 57.6687 1688.01 42.3968 Q1688.01 27.0843 1693.35 19.0636 Q1698.74 11.0023 1708.91 11.0023 Z" fill="#000000" fill-rule="nonzero" fill-opacity="1" /><path clip-path="url(#clip290)" d="M1777.61 86.3491 L1777.61 92.1419 L1734.51 92.1419 L1734.51 86.3491 L1777.61 86.3491 Z" fill="#000000" fill-rule="nonzero" fill-opacity="1" /><path clip-path="url(#clip290)" d="M1819.09 86.3491 L1819.09 92.1419 L1775.99 92.1419 L1775.99 86.3491 L1819.09 86.3491 Z" fill="#000000" fill-rule="nonzero" fill-opacity="1" /><circle clip-path="url(#clip292)" cx="491.188" cy="1595.21" r="14.4" fill="#cc79a7" fill-rule="evenodd" fill-opacity="1" stroke="#000000" stroke-opacity="1" stroke-width="4"/>
<circle clip-path="url(#clip292)" cx="610.681" cy="1398.83" r="14.4" fill="#cc79a7" fill-rule="evenodd" fill-opacity="1" stroke="#000000" stroke-opacity="1" stroke-width="4"/>
<circle clip-path="url(#clip292)" cx="730.175" cy="1233.55" r="14.4" fill="#cc79a7" fill-rule="evenodd" fill-opacity="1" stroke="#000000" stroke-opacity="1" stroke-width="4"/>
<circle clip-path="url(#clip292)" cx="849.669" cy="1069.1" r="14.4" fill="#cc79a7" fill-rule="evenodd" fill-opacity="1" stroke="#000000" stroke-opacity="1" stroke-width="4"/>
<circle clip-path="url(#clip292)" cx="969.162" cy="934.947" r="14.4" fill="#cc79a7" fill-rule="evenodd" fill-opacity="1" stroke="#000000" stroke-opacity="1" stroke-width="4"/>
<circle clip-path="url(#clip292)" cx="1088.66" cy="850.612" r="14.4" fill="#cc79a7" fill-rule="evenodd" fill-opacity="1" stroke="#000000" stroke-opacity="1" stroke-width="4"/>
<circle clip-path="url(#clip292)" cx="1208.15" cy="777.428" r="14.4" fill="#cc79a7" fill-rule="evenodd" fill-opacity="1" stroke="#000000" stroke-opacity="1" stroke-width="4"/>
<circle clip-path="url(#clip292)" cx="1327.64" cy="734.901" r="14.4" fill="#cc79a7" fill-rule="evenodd" fill-opacity="1" stroke="#000000" stroke-opacity="1" stroke-width="4"/>
<circle clip-path="url(#clip292)" cx="1447.14" cy="714.009" r="14.4" fill="#cc79a7" fill-rule="evenodd" fill-opacity="1" stroke="#000000" stroke-opacity="1" stroke-width="4"/>
<circle clip-path="url(#clip292)" cx="1566.63" cy="663.451" r="14.4" fill="#cc79a7" fill-rule="evenodd" fill-opacity="1" stroke="#000000" stroke-opacity="1" stroke-width="4"/>
<circle clip-path="url(#clip292)" cx="1686.12" cy="676.309" r="14.4" fill="#cc79a7" fill-rule="evenodd" fill-opacity="1" stroke="#000000" stroke-opacity="1" stroke-width="4"/>
<circle clip-path="url(#clip292)" cx="1805.62" cy="664.139" r="14.4" fill="#cc79a7" fill-rule="evenodd" fill-opacity="1" stroke="#000000" stroke-opacity="1" stroke-width="4"/>
<circle clip-path="url(#clip292)" cx="1925.11" cy="666.412" r="14.4" fill="#cc79a7" fill-rule="evenodd" fill-opacity="1" stroke="#000000" stroke-opacity="1" stroke-width="4"/>
<circle clip-path="url(#clip292)" cx="2044.6" cy="650.782" r="14.4" fill="#cc79a7" fill-rule="evenodd" fill-opacity="1" stroke="#000000" stroke-opacity="1" stroke-width="4"/>
<circle clip-path="url(#clip292)" cx="2164.1" cy="651.739" r="14.4" fill="#cc79a7" fill-rule="evenodd" fill-opacity="1" stroke="#000000" stroke-opacity="1" stroke-width="4"/>
<circle clip-path="url(#clip292)" cx="2283.59" cy="654.285" r="14.4" fill="#cc79a7" fill-rule="evenodd" fill-opacity="1" stroke="#000000" stroke-opacity="1" stroke-width="4"/>
<circle clip-path="url(#clip292)" cx="2403.09" cy="632.746" r="14.4" fill="#cc79a7" fill-rule="evenodd" fill-opacity="1" stroke="#000000" stroke-opacity="1" stroke-width="4"/>
<circle clip-path="url(#clip292)" cx="2522.58" cy="643.567" r="14.4" fill="#cc79a7" fill-rule="evenodd" fill-opacity="1" stroke="#000000" stroke-opacity="1" stroke-width="4"/>
<circle clip-path="url(#clip292)" cx="2642.07" cy="651.829" r="14.4" fill="#cc79a7" fill-rule="evenodd" fill-opacity="1" stroke="#000000" stroke-opacity="1" stroke-width="4"/>
<circle clip-path="url(#clip292)" cx="2761.57" cy="643.677" r="14.4" fill="#cc79a7" fill-rule="evenodd" fill-opacity="1" stroke="#000000" stroke-opacity="1" stroke-width="4"/>
<circle clip-path="url(#clip292)" cx="2881.06" cy="659.688" r="14.4" fill="#cc79a7" fill-rule="evenodd" fill-opacity="1" stroke="#000000" stroke-opacity="1" stroke-width="4"/>
<polyline clip-path="url(#clip292)" style="stroke:#cc79a7; stroke-linecap:round; stroke-linejoin:round; stroke-width:8; stroke-opacity:1; fill:none" points="491.188,1590.03 491.253,1590.03 491.283,1590.02 491.332,1590.02 491.381,1590.01 491.435,1590 491.49,1589.99 491.549,1589.98 491.611,1589.96 491.675,1589.94 491.742,1589.91 491.813,1589.88 491.886,1589.85 491.962,1589.81 492.042,1589.77 492.124,1589.72 492.21,1589.67 492.299,1589.61 492.391,1589.55 492.486,1589.48 492.585,1589.4 492.686,1589.32 492.792,1589.23 492.9,1589.13 493.012,1589.03 493.128,1588.92 493.247,1588.81 493.369,1588.68 493.496,1588.55 493.626,1588.41 493.76,1588.26 493.898,1588.1 494.039,1587.94 494.185,1587.77 494.335,1587.58 494.489,1587.39 494.648,1587.19 494.811,1586.98 494.978,1586.76 495.15,1586.53 495.328,1586.29 495.51,1586.04 495.697,1585.78 495.889,1585.51 496.087,1585.23 496.291,1584.94 496.501,1584.63 496.717,1584.31 496.939,1583.98 497.168,1583.64 497.404,1583.28 497.647,1582.91 497.897,1582.52 498.156,1582.12 498.423,1581.71 498.699,1581.27 498.984,1580.82 499.278,1580.36 499.583,1579.87 499.899,1579.37 500.226,1578.84 500.565,1578.29 500.917,1577.72 501.283,1577.13 501.662,1576.51 502.057,1575.87 502.468,1575.19 502.896,1574.49 503.343,1573.76 503.808,1572.99 504.294,1572.19 504.802,1571.35 505.333,1570.47 505.888,1569.55 506.47,1568.59 507.079,1567.58 507.717,1566.52 508.387,1565.41 509.091,1564.24 509.831,1563.01 510.609,1561.72 511.429,1560.36 512.294,1558.92 513.208,1557.41 514.176,1555.8 515.203,1554.1 516.294,1552.29 517.457,1550.36 518.701,1548.3 520.034,1546.1 521.469,1543.72 523.017,1541.16 524.693,1538.4 526.51,1535.4 528.48,1532.15 530.608,1528.64 532.893,1524.88 535.321,1520.9 537.873,1516.71 540.529,1512.35 543.273,1507.86 546.088,1503.26 548.964,1498.57 551.89,1493.8 554.857,1488.97 557.859,1484.1 560.89,1479.18 563.946,1474.24 567.024,1469.26 570.119,1464.27 573.231,1459.26 576.357,1454.24 579.495,1449.21 582.644,1444.16 585.805,1439.11 588.975,1434.06 592.154,1429 595.343,1423.94 598.541,1418.87 601.748,1413.8 604.964,1408.73 608.189,1403.65 611.423,1398.57 614.666,1393.49 617.92,1388.4 621.184,1383.31 624.458,1378.22 627.743,1373.12 631.039,1368.01 634.348,1362.9 637.668,1357.79 641.002,1352.67 644.35,1347.54 647.711,1342.4 651.088,1337.26 654.481,1332.1 657.89,1326.94 661.317,1321.76 664.762,1316.57 668.227,1311.37 671.712,1306.16 675.219,1300.93 678.75,1295.68 682.305,1290.41 685.886,1285.12 689.495,1279.81 693.134,1274.48 696.805,1269.12 700.511,1263.73 704.253,1258.3 708.036,1252.84 711.862,1247.34 715.736,1241.79 719.662,1236.2 723.646,1230.55 727.694,1224.83 731.815,1219.04 736.018,1213.16 740.315,1207.18 744.724,1201.08 749.266,1194.83 753.973,1188.39 758.897,1181.7 764.123,1174.64 769.845,1166.98 776.827,1157.7 784.035,1148.23 789.877,1140.62 795.719,1133.08 801.561,1125.61 807.403,1118.2 813.245,1110.87 819.087,1103.6 824.929,1096.41 830.137,1090.05 835.345,1083.75 840.552,1077.52 845.76,1071.33 850.968,1065.21 856.176,1059.15 861.383,1053.14 866.07,1047.79 870.756,1042.48 875.442,1037.23 880.128,1032.02 884.815,1026.86 889.501,1021.75 894.187,1016.69 898.873,1011.68 903.56,1006.72 908.246,1001.81 912.932,996.949 917.618,992.136 922.304,987.373 926.991,982.66 931.677,977.996 936.363,973.382 941.049,968.818 945.736,964.303 950.422,959.838 955.108,955.421 959.794,951.055 964.481,946.737 969.167,942.468 973.853,938.248 978.539,934.077 983.226,929.954 987.912,925.879 992.598,921.853 997.284,917.875 1001.97,913.944 1006.66,910.06 1011.34,906.224 1016.03,902.435 1020.72,898.692 1025.4,894.996 1030.09,891.345 1034.77,887.741 1039.46,884.182 1044.15,880.668 1048.83,877.199 1053.52,873.774 1058.21,870.394 1062.89,867.057 1067.58,863.764 1072.26,860.514 1076.95,857.307 1081.64,854.142 1086.32,851.019 1091.01,847.938 1095.7,844.898 1100.38,841.899 1105.07,838.94 1109.75,836.022 1114.44,833.143 1119.13,830.303 1123.81,827.503 1128.5,824.741 1133.18,822.017 1137.87,819.331 1142.56,816.682 1147.24,814.071 1151.93,811.495 1156.62,808.956 1161.3,806.453 1165.99,803.985 1170.67,801.552 1175.36,799.154 1180.05,796.79 1184.73,794.459 1189.42,792.162 1194.11,789.898 1198.79,787.667 1203.48,785.467 1208.16,783.3 1212.85,781.164 1217.54,779.059 1222.22,776.985 1226.91,774.941 1231.6,772.926 1236.28,770.942 1240.97,768.986 1245.65,767.06 1250.34,765.161 1255.03,763.291 1259.71,761.449 1264.4,759.633 1269.09,757.845 1273.77,756.083 1278.46,754.348 1283.14,752.639 1287.83,750.955 1292.52,749.296 1297.2,747.662 1301.89,746.053 1306.58,744.468 1311.26,742.907 1315.95,741.369 1320.63,739.855 1325.32,738.363 1330.01,736.894 1334.69,735.448 1339.38,734.023 1344.07,732.62 1348.75,731.239 1353.44,729.878 1358.12,728.538 1362.81,727.219 1367.5,725.92 1372.18,724.641 1376.87,723.381 1381.56,722.141 1386.24,720.92 1390.93,719.717 1395.61,718.533 1400.3,717.368 1404.99,716.22 1409.67,715.09 1414.36,713.978 1419.05,712.882 1423.73,711.804 1428.42,710.742 1433.1,709.697 1437.79,708.668 1442.48,707.655 1447.16,706.658 1451.85,705.676 1456.53,704.71 1461.22,703.759 1465.91,702.821 1470.61,701.896 1475.33,700.983 1480.06,700.082 1484.8,699.192 1489.57,698.312 1494.35,697.443 1499.16,696.583 1504,695.733 1508.86,694.892 1513.74,694.061 1518.65,693.239 1523.59,692.426 1528.56,691.621 1533.56,690.826 1538.59,690.039 1543.65,689.26 1548.74,688.49 1553.86,687.729 1559.01,686.976 1564.2,686.231 1569.43,685.495 1574.68,684.766 1579.98,684.046 1585.31,683.334 1590.67,682.63 1596.07,681.934 1601.52,681.246 1606.99,680.566 1612.51,679.893 1618.07,679.229 1623.67,678.572 1629.31,677.923 1635,677.281 1640.72,676.647 1646.5,676.021 1652.31,675.402 1658.17,674.791 1664.08,674.187 1670.04,673.591 1676.04,673.002 1682.09,672.42 1688.2,671.845 1694.35,671.278 1700.56,670.718 1706.82,670.165 1713.13,669.619 1719.5,669.08 1725.93,668.549 1732.42,668.024 1738.96,667.506 1745.57,666.995 1752.23,666.491 1758.96,665.994 1765.76,665.503 1772.62,665.019 1779.55,664.542 1786.55,664.072 1793.62,663.608 1800.76,663.151 1807.98,662.7 1815.27,662.256 1822.64,661.818 1830.09,661.387 1837.62,660.962 1845.24,660.543 1852.95,660.131 1860.74,659.725 1868.62,659.325 1876.6,658.932 1884.67,658.545 1892.84,658.163 1901.11,657.788 1909.49,657.419 1917.98,657.056 1926.57,656.699 1935.28,656.348 1944.11,656.003 1953.05,655.664 1962.12,655.33 1971.33,655.003 1980.66,654.681 1990.13,654.365 1999.74,654.054 2009.5,653.75 2019.41,653.451 2029.48,653.157 2039.71,652.87 2050.1,652.587 2060.68,652.31 2071.43,652.039 2082.38,651.773 2093.51,651.513 2104.86,651.258 2116.41,651.009 2128.19,650.764 2140.2,650.525 2152.44,650.292 2164.94,650.063 2177.7,649.84 2190.74,649.622 2204.07,649.409 2217.7,649.201 2231.65,648.999 2245.93,648.801 2260.56,648.609 2275.57,648.421 2290.97,648.239 2306.78,648.061 2323.03,647.889 2339.75,647.721 2356.97,647.559 2374.72,647.401 2393.02,647.249 2411.93,647.101 2431.49,646.958 2451.73,646.819 2472.72,646.686 2494.52,646.558 2517.18,646.434 2540.79,646.315 2565.42,646.201 2591.17,646.092 2618.14,645.988 2646.46,645.889 2676.25,645.794 2707.68,645.705 2740.92,645.62 2776.17,645.54 2813.64,645.466 2853.6,645.396 2881.06,645.354 "/>
<circle clip-path="url(#clip292)" cx="491.188" cy="166.338" r="14.4" fill="#009e73" fill-rule="evenodd" fill-opacity="1" stroke="#000000" stroke-opacity="1" stroke-width="4"/>
<circle clip-path="url(#clip292)" cx="610.681" cy="1106.16" r="14.4" fill="#009e73" fill-rule="evenodd" fill-opacity="1" stroke="#000000" stroke-opacity="1" stroke-width="4"/>
<circle clip-path="url(#clip292)" cx="730.175" cy="1194.38" r="14.4" fill="#009e73" fill-rule="evenodd" fill-opacity="1" stroke="#000000" stroke-opacity="1" stroke-width="4"/>
<circle clip-path="url(#clip292)" cx="849.669" cy="1254.34" r="14.4" fill="#009e73" fill-rule="evenodd" fill-opacity="1" stroke="#000000" stroke-opacity="1" stroke-width="4"/>
<circle clip-path="url(#clip292)" cx="969.162" cy="1247.46" r="14.4" fill="#009e73" fill-rule="evenodd" fill-opacity="1" stroke="#000000" stroke-opacity="1" stroke-width="4"/>
<circle clip-path="url(#clip292)" cx="1088.66" cy="1209.48" r="14.4" fill="#009e73" fill-rule="evenodd" fill-opacity="1" stroke="#000000" stroke-opacity="1" stroke-width="4"/>
<circle clip-path="url(#clip292)" cx="1208.15" cy="1191.94" r="14.4" fill="#009e73" fill-rule="evenodd" fill-opacity="1" stroke="#000000" stroke-opacity="1" stroke-width="4"/>
<circle clip-path="url(#clip292)" cx="1327.64" cy="1157.41" r="14.4" fill="#009e73" fill-rule="evenodd" fill-opacity="1" stroke="#000000" stroke-opacity="1" stroke-width="4"/>
<circle clip-path="url(#clip292)" cx="1447.14" cy="1154.62" r="14.4" fill="#009e73" fill-rule="evenodd" fill-opacity="1" stroke="#000000" stroke-opacity="1" stroke-width="4"/>
<circle clip-path="url(#clip292)" cx="1566.63" cy="1146.73" r="14.4" fill="#009e73" fill-rule="evenodd" fill-opacity="1" stroke="#000000" stroke-opacity="1" stroke-width="4"/>
<circle clip-path="url(#clip292)" cx="1686.12" cy="1142.65" r="14.4" fill="#009e73" fill-rule="evenodd" fill-opacity="1" stroke="#000000" stroke-opacity="1" stroke-width="4"/>
<circle clip-path="url(#clip292)" cx="1805.62" cy="1128.81" r="14.4" fill="#009e73" fill-rule="evenodd" fill-opacity="1" stroke="#000000" stroke-opacity="1" stroke-width="4"/>
<circle clip-path="url(#clip292)" cx="1925.11" cy="1123.93" r="14.4" fill="#009e73" fill-rule="evenodd" fill-opacity="1" stroke="#000000" stroke-opacity="1" stroke-width="4"/>
<circle clip-path="url(#clip292)" cx="2044.6" cy="1129.15" r="14.4" fill="#009e73" fill-rule="evenodd" fill-opacity="1" stroke="#000000" stroke-opacity="1" stroke-width="4"/>
<circle clip-path="url(#clip292)" cx="2164.1" cy="1115.8" r="14.4" fill="#009e73" fill-rule="evenodd" fill-opacity="1" stroke="#000000" stroke-opacity="1" stroke-width="4"/>
<circle clip-path="url(#clip292)" cx="2283.59" cy="1102.28" r="14.4" fill="#009e73" fill-rule="evenodd" fill-opacity="1" stroke="#000000" stroke-opacity="1" stroke-width="4"/>
<circle clip-path="url(#clip292)" cx="2403.09" cy="1120.13" r="14.4" fill="#009e73" fill-rule="evenodd" fill-opacity="1" stroke="#000000" stroke-opacity="1" stroke-width="4"/>
<circle clip-path="url(#clip292)" cx="2522.58" cy="1118.25" r="14.4" fill="#009e73" fill-rule="evenodd" fill-opacity="1" stroke="#000000" stroke-opacity="1" stroke-width="4"/>
<circle clip-path="url(#clip292)" cx="2642.07" cy="1110.04" r="14.4" fill="#009e73" fill-rule="evenodd" fill-opacity="1" stroke="#000000" stroke-opacity="1" stroke-width="4"/>
<circle clip-path="url(#clip292)" cx="2761.57" cy="1101.48" r="14.4" fill="#009e73" fill-rule="evenodd" fill-opacity="1" stroke="#000000" stroke-opacity="1" stroke-width="4"/>
<circle clip-path="url(#clip292)" cx="2881.06" cy="1106.66" r="14.4" fill="#009e73" fill-rule="evenodd" fill-opacity="1" stroke="#000000" stroke-opacity="1" stroke-width="4"/>
<polyline clip-path="url(#clip292)" style="stroke:#009e73; stroke-linecap:round; stroke-linejoin:round; stroke-width:8; stroke-opacity:1; fill:none" points="491.188,170.438 491.253,196.298 491.283,207.557 491.332,225.957 491.381,243.768 491.435,262.43 491.49,281.149 491.549,300.249 491.611,319.486 491.675,338.9 491.742,358.391 491.813,377.929 491.886,397.453 491.962,416.922 492.042,436.288 492.124,455.512 492.21,474.556 492.299,493.384 492.391,511.965 492.486,530.269 492.585,548.272 492.686,565.95 492.792,583.282 492.9,600.251 493.012,616.841 493.128,633.038 493.247,648.833 493.369,664.215 493.496,679.178 493.626,693.716 493.76,707.825 493.898,721.504 494.039,734.752 494.185,747.568 494.335,759.954 494.489,771.914 494.648,783.45 494.811,794.566 494.978,805.269 495.15,815.563 495.328,825.455 495.51,834.951 495.697,844.059 495.889,852.787 496.087,861.142 496.291,869.133 496.501,876.767 496.717,884.055 496.939,891.005 497.168,897.625 497.404,903.926 497.647,909.915 497.897,915.603 498.156,920.998 498.423,926.111 498.699,930.951 498.984,935.526 499.278,939.848 499.583,943.925 499.899,947.766 500.226,951.383 500.565,954.783 500.917,957.978 501.283,960.977 501.662,963.79 502.057,966.427 502.468,968.899 502.896,971.215 503.343,973.386 503.808,975.423 504.294,977.336 504.802,979.136 505.333,980.835 505.888,982.443 506.47,983.973 507.079,985.435 507.717,986.84 508.387,988.201 509.091,989.529 509.831,990.835 510.609,992.13 511.429,993.427 512.294,994.736 513.208,996.069 514.176,997.438 515.203,998.854 516.294,1000.33 517.457,1001.88 518.701,1003.51 520.034,1005.24 521.469,1007.1 523.017,1009.08 524.693,1011.22 526.51,1013.52 528.48,1016.01 530.608,1018.69 532.893,1021.55 535.321,1024.58 537.873,1027.75 540.529,1031.03 543.273,1034.4 546.088,1037.84 548.964,1041.33 551.89,1044.86 554.857,1048.43 557.859,1052.01 560.89,1055.6 563.946,1059.2 567.024,1062.8 570.119,1066.39 573.231,1069.98 576.357,1073.55 579.495,1077.12 582.644,1080.67 585.805,1084.2 588.975,1087.72 592.154,1091.22 595.343,1094.7 598.541,1098.16 601.748,1101.6 604.964,1105.02 608.189,1108.41 611.423,1111.79 614.666,1115.14 617.92,1118.47 621.184,1121.77 624.458,1125.05 627.743,1128.31 631.039,1131.55 634.348,1134.76 637.668,1137.94 641.002,1141.1 644.35,1144.24 647.711,1147.35 651.088,1150.43 654.481,1153.49 657.89,1156.52 661.317,1159.53 664.762,1162.51 668.227,1165.47 671.712,1168.4 675.219,1171.3 678.75,1174.17 682.305,1177.02 685.886,1179.84 689.495,1182.63 693.134,1185.4 696.805,1188.13 700.511,1190.85 704.253,1193.53 708.036,1196.19 711.862,1198.81 715.736,1201.42 719.662,1203.99 723.646,1206.55 727.694,1209.07 731.815,1211.58 736.018,1214.06 740.315,1216.53 744.724,1218.98 749.266,1221.42 753.973,1223.86 758.897,1226.32 764.123,1228.82 769.845,1231.43 776.827,1234.43 784.035,1237.32 789.877,1239.51 795.719,1241.57 801.561,1243.49 807.403,1245.27 813.245,1246.92 819.087,1248.44 824.929,1249.84 830.137,1250.97 835.345,1252 840.552,1252.94 845.76,1253.78 850.968,1254.53 856.176,1255.18 861.383,1255.74 866.07,1256.18 870.756,1256.54 875.442,1256.83 880.128,1257.06 884.815,1257.22 889.501,1257.31 894.187,1257.35 898.873,1257.32 903.56,1257.24 908.246,1257.1 912.932,1256.9 917.618,1256.66 922.304,1256.36 926.991,1256.01 931.677,1255.61 936.363,1255.16 941.049,1254.67 945.736,1254.14 950.422,1253.57 955.108,1252.96 959.794,1252.31 964.481,1251.62 969.167,1250.9 973.853,1250.15 978.539,1249.36 983.226,1248.55 987.912,1247.71 992.598,1246.84 997.284,1245.94 1001.97,1245.03 1006.66,1244.08 1011.34,1243.12 1016.03,1242.14 1020.72,1241.14 1025.4,1240.12 1030.09,1239.09 1034.77,1238.04 1039.46,1236.98 1044.15,1235.91 1048.83,1234.82 1053.52,1233.72 1058.21,1232.62 1062.89,1231.5 1067.58,1230.38 1072.26,1229.25 1076.95,1228.12 1081.64,1226.98 1086.32,1225.84 1091.01,1224.69 1095.7,1223.54 1100.38,1222.39 1105.07,1221.24 1109.75,1220.08 1114.44,1218.93 1119.13,1217.78 1123.81,1216.63 1128.5,1215.48 1133.18,1214.33 1137.87,1213.19 1142.56,1212.05 1147.24,1210.91 1151.93,1209.78 1156.62,1208.65 1161.3,1207.52 1165.99,1206.41 1170.67,1205.29 1175.36,1204.19 1180.05,1203.08 1184.73,1201.99 1189.42,1200.9 1194.11,1199.82 1198.79,1198.75 1203.48,1197.68 1208.16,1196.63 1212.85,1195.58 1217.54,1194.54 1222.22,1193.5 1226.91,1192.48 1231.6,1191.46 1236.28,1190.45 1240.97,1189.45 1245.65,1188.46 1250.34,1187.48 1255.03,1186.51 1259.71,1185.55 1264.4,1184.6 1269.09,1183.65 1273.77,1182.72 1278.46,1181.79 1283.14,1180.88 1287.83,1179.97 1292.52,1179.07 1297.2,1178.19 1301.89,1177.31 1306.58,1176.44 1311.26,1175.58 1315.95,1174.74 1320.63,1173.9 1325.32,1173.07 1330.01,1172.25 1334.69,1171.44 1339.38,1170.64 1344.07,1169.84 1348.75,1169.06 1353.44,1168.29 1358.12,1167.53 1362.81,1166.77 1367.5,1166.03 1372.18,1165.29 1376.87,1164.56 1381.56,1163.85 1386.24,1163.14 1390.93,1162.44 1395.61,1161.75 1400.3,1161.07 1404.99,1160.4 1409.67,1159.73 1414.36,1159.08 1419.05,1158.43 1423.73,1157.79 1428.42,1157.16 1433.1,1156.54 1437.79,1155.93 1442.48,1155.32 1447.16,1154.72 1451.85,1154.14 1456.53,1153.56 1461.22,1152.98 1465.91,1152.42 1470.61,1151.86 1475.33,1151.31 1480.06,1150.76 1484.8,1150.22 1489.57,1149.68 1494.35,1149.15 1499.16,1148.63 1504,1148.11 1508.86,1147.59 1513.74,1147.08 1518.65,1146.58 1523.59,1146.07 1528.56,1145.58 1533.56,1145.09 1538.59,1144.6 1543.65,1144.12 1548.74,1143.64 1553.86,1143.17 1559.01,1142.7 1564.2,1142.23 1569.43,1141.77 1574.68,1141.32 1579.98,1140.87 1585.31,1140.42 1590.67,1139.98 1596.07,1139.54 1601.52,1139.11 1606.99,1138.68 1612.51,1138.26 1618.07,1137.84 1623.67,1137.42 1629.31,1137.01 1635,1136.61 1640.72,1136.2 1646.5,1135.81 1652.31,1135.41 1658.17,1135.02 1664.08,1134.64 1670.04,1134.26 1676.04,1133.88 1682.09,1133.51 1688.2,1133.14 1694.35,1132.78 1700.56,1132.42 1706.82,1132.07 1713.13,1131.72 1719.5,1131.37 1725.93,1131.03 1732.42,1130.69 1738.96,1130.36 1745.57,1130.03 1752.23,1129.7 1758.96,1129.38 1765.76,1129.06 1772.62,1128.75 1779.55,1128.44 1786.55,1128.14 1793.62,1127.84 1800.76,1127.54 1807.98,1127.25 1815.27,1126.96 1822.64,1126.67 1830.09,1126.39 1837.62,1126.11 1845.24,1125.84 1852.95,1125.57 1860.74,1125.31 1868.62,1125.05 1876.6,1124.79 1884.67,1124.54 1892.84,1124.29 1901.11,1124.04 1909.49,1123.8 1917.98,1123.56 1926.57,1123.33 1935.28,1123.1 1944.11,1122.87 1953.05,1122.65 1962.12,1122.43 1971.33,1122.21 1980.66,1122 1990.13,1121.79 1999.74,1121.59 2009.5,1121.39 2019.41,1121.19 2029.48,1121 2039.71,1120.81 2050.1,1120.62 2060.68,1120.44 2071.43,1120.26 2082.38,1120.08 2093.51,1119.91 2104.86,1119.74 2116.41,1119.58 2128.19,1119.41 2140.2,1119.26 2152.44,1119.1 2164.94,1118.95 2177.7,1118.8 2190.74,1118.66 2204.07,1118.52 2217.7,1118.38 2231.65,1118.24 2245.93,1118.11 2260.56,1117.98 2275.57,1117.86 2290.97,1117.74 2306.78,1117.62 2323.03,1117.51 2339.75,1117.39 2356.97,1117.29 2374.72,1117.18 2393.02,1117.08 2411.93,1116.98 2431.49,1116.89 2451.73,1116.79 2472.72,1116.7 2494.52,1116.62 2517.18,1116.54 2540.79,1116.46 2565.42,1116.38 2591.17,1116.31 2618.14,1116.24 2646.46,1116.17 2676.25,1116.11 2707.68,1116.05 2740.92,1115.99 2776.17,1115.94 2813.64,1115.89 2853.6,1115.84 2881.06,1115.82 "/>
<path clip-path="url(#clip290)" d="M2204.9 433.159 L2868.31 433.159 L2868.31 173.959 L2204.9 173.959  Z" fill="#ffffff" fill-rule="evenodd" fill-opacity="1"/>
<polyline clip-path="url(#clip290)" style="stroke:#000000; stroke-linecap:round; stroke-linejoin:round; stroke-width:4; stroke-opacity:1; fill:none" points="2204.9,433.159 2868.31,433.159 2868.31,173.959 2204.9,173.959 2204.9,433.159 "/>
<circle clip-path="url(#clip290)" cx="2317.49" cy="225.799" r="20.48" fill="#cc79a7" fill-rule="evenodd" fill-opacity="1" stroke="#000000" stroke-opacity="1" stroke-width="5.68889"/>
<path clip-path="url(#clip290)" d="M2434.75 212.362 L2434.75 225.348 L2440.63 225.348 Q2443.9 225.348 2445.68 223.658 Q2447.46 221.968 2447.46 218.843 Q2447.46 215.741 2445.68 214.051 Q2443.9 212.362 2440.63 212.362 L2434.75 212.362 M2430.08 208.519 L2440.63 208.519 Q2446.44 208.519 2449.4 211.158 Q2452.39 213.774 2452.39 218.843 Q2452.39 223.959 2449.4 226.574 Q2446.44 229.19 2440.63 229.19 L2434.75 229.19 L2434.75 243.079 L2430.08 243.079 L2430.08 208.519 Z" fill="#000000" fill-rule="nonzero" fill-opacity="1" /><path clip-path="url(#clip290)" d="M2483.78 207.107 Q2480.68 212.431 2479.17 217.639 Q2477.67 222.848 2477.67 228.195 Q2477.67 233.542 2479.17 238.797 Q2480.7 244.028 2483.78 249.329 L2480.08 249.329 Q2476.6 243.889 2474.87 238.635 Q2473.15 233.38 2473.15 228.195 Q2473.15 223.033 2474.87 217.801 Q2476.58 212.57 2480.08 207.107 L2483.78 207.107 Z" fill="#000000" fill-rule="nonzero" fill-opacity="1" /><path clip-path="url(#clip290)" d="M2512.23 222.13 Q2513.83 219.26 2516.05 217.894 Q2518.27 216.528 2521.28 216.528 Q2525.33 216.528 2527.53 219.375 Q2529.73 222.199 2529.73 227.431 L2529.73 243.079 L2525.45 243.079 L2525.45 227.57 Q2525.45 223.843 2524.13 222.037 Q2522.81 220.232 2520.1 220.232 Q2516.79 220.232 2514.87 222.431 Q2512.95 224.63 2512.95 228.426 L2512.95 243.079 L2508.66 243.079 L2508.66 227.57 Q2508.66 223.82 2507.34 222.037 Q2506.02 220.232 2503.27 220.232 Q2500.01 220.232 2498.08 222.454 Q2496.16 224.653 2496.16 228.426 L2496.16 243.079 L2491.88 243.079 L2491.88 217.153 L2496.16 217.153 L2496.16 221.181 Q2497.62 218.797 2499.66 217.662 Q2501.7 216.528 2504.5 216.528 Q2507.32 216.528 2509.29 217.963 Q2511.28 219.399 2512.23 222.13 Z" fill="#000000" fill-rule="nonzero" fill-opacity="1" /><path clip-path="url(#clip290)" d="M2560.4 229.051 L2560.4 231.135 L2540.82 231.135 Q2541.09 235.533 2543.46 237.848 Q2545.84 240.139 2550.08 240.139 Q2552.53 240.139 2554.82 239.537 Q2557.14 238.935 2559.4 237.732 L2559.4 241.76 Q2557.11 242.732 2554.7 243.241 Q2552.3 243.75 2549.82 243.75 Q2543.62 243.75 2539.98 240.139 Q2536.37 236.528 2536.37 230.371 Q2536.37 224.005 2539.8 220.278 Q2543.25 216.528 2549.08 216.528 Q2554.31 216.528 2557.34 219.908 Q2560.4 223.264 2560.4 229.051 M2556.14 227.801 Q2556.09 224.306 2554.17 222.223 Q2552.27 220.139 2549.13 220.139 Q2545.56 220.139 2543.41 222.153 Q2541.28 224.167 2540.96 227.824 L2556.14 227.801 Z" fill="#000000" fill-rule="nonzero" fill-opacity="1" /><path clip-path="url(#clip290)" d="M2579.17 230.047 Q2574.01 230.047 2572.02 231.227 Q2570.03 232.408 2570.03 235.255 Q2570.03 237.523 2571.51 238.866 Q2573.02 240.185 2575.58 240.185 Q2579.13 240.185 2581.26 237.685 Q2583.41 235.162 2583.41 230.996 L2583.41 230.047 L2579.17 230.047 M2587.67 228.287 L2587.67 243.079 L2583.41 243.079 L2583.41 239.144 Q2581.95 241.505 2579.77 242.639 Q2577.6 243.75 2574.45 243.75 Q2570.47 243.75 2568.11 241.528 Q2565.77 239.283 2565.77 235.533 Q2565.77 231.158 2568.69 228.936 Q2571.63 226.713 2577.44 226.713 L2583.41 226.713 L2583.41 226.297 Q2583.41 223.357 2581.46 221.76 Q2579.54 220.139 2576.05 220.139 Q2573.83 220.139 2571.72 220.672 Q2569.61 221.204 2567.67 222.269 L2567.67 218.334 Q2570.01 217.431 2572.2 216.991 Q2574.4 216.528 2576.49 216.528 Q2582.11 216.528 2584.89 219.445 Q2587.67 222.361 2587.67 228.287 Z" fill="#000000" fill-rule="nonzero" fill-opacity="1" /><path clip-path="url(#clip290)" d="M2612.97 217.917 L2612.97 221.945 Q2611.16 221.019 2609.22 220.556 Q2607.27 220.093 2605.19 220.093 Q2602.02 220.093 2600.42 221.065 Q2598.85 222.037 2598.85 223.982 Q2598.85 225.463 2599.98 226.32 Q2601.12 227.153 2604.54 227.917 L2606 228.241 Q2610.54 229.213 2612.44 230.996 Q2614.36 232.755 2614.36 235.926 Q2614.36 239.537 2611.49 241.644 Q2608.64 243.75 2603.64 243.75 Q2601.56 243.75 2599.29 243.334 Q2597.04 242.94 2594.54 242.13 L2594.54 237.732 Q2596.9 238.959 2599.2 239.584 Q2601.49 240.185 2603.73 240.185 Q2606.74 240.185 2608.36 239.167 Q2609.98 238.125 2609.98 236.25 Q2609.98 234.514 2608.8 233.588 Q2607.64 232.662 2603.69 231.806 L2602.2 231.459 Q2598.25 230.625 2596.49 228.912 Q2594.73 227.176 2594.73 224.167 Q2594.73 220.51 2597.32 218.519 Q2599.91 216.528 2604.68 216.528 Q2607.04 216.528 2609.13 216.875 Q2611.21 217.223 2612.97 217.917 Z" fill="#000000" fill-rule="nonzero" fill-opacity="1" /><path clip-path="url(#clip290)" d="M2620.7 232.848 L2620.7 217.153 L2624.96 217.153 L2624.96 232.686 Q2624.96 236.366 2626.39 238.218 Q2627.83 240.047 2630.7 240.047 Q2634.15 240.047 2636.14 237.848 Q2638.15 235.648 2638.15 231.852 L2638.15 217.153 L2642.41 217.153 L2642.41 243.079 L2638.15 243.079 L2638.15 239.098 Q2636.6 241.459 2634.54 242.616 Q2632.51 243.75 2629.8 243.75 Q2625.33 243.75 2623.01 240.973 Q2620.7 238.195 2620.7 232.848 M2631.42 216.528 L2631.42 216.528 Z" fill="#000000" fill-rule="nonzero" fill-opacity="1" /><path clip-path="url(#clip290)" d="M2666.21 221.135 Q2665.49 220.718 2664.63 220.533 Q2663.8 220.324 2662.78 220.324 Q2659.17 220.324 2657.23 222.686 Q2655.31 225.024 2655.31 229.422 L2655.31 243.079 L2651.02 243.079 L2651.02 217.153 L2655.31 217.153 L2655.31 221.181 Q2656.65 218.82 2658.8 217.686 Q2660.95 216.528 2664.03 216.528 Q2664.47 216.528 2665.01 216.598 Q2665.54 216.644 2666.19 216.76 L2666.21 221.135 Z" fill="#000000" fill-rule="nonzero" fill-opacity="1" /><path clip-path="url(#clip290)" d="M2691.81 229.051 L2691.81 231.135 L2672.23 231.135 Q2672.51 235.533 2674.87 237.848 Q2677.25 240.139 2681.49 240.139 Q2683.94 240.139 2686.23 239.537 Q2688.55 238.935 2690.82 237.732 L2690.82 241.76 Q2688.52 242.732 2686.12 243.241 Q2683.71 243.75 2681.23 243.75 Q2675.03 243.75 2671.39 240.139 Q2667.78 236.528 2667.78 230.371 Q2667.78 224.005 2671.21 220.278 Q2674.66 216.528 2680.49 216.528 Q2685.72 216.528 2688.76 219.908 Q2691.81 223.264 2691.81 229.051 M2687.55 227.801 Q2687.51 224.306 2685.58 222.223 Q2683.69 220.139 2680.54 220.139 Q2676.97 220.139 2674.82 222.153 Q2672.69 224.167 2672.37 227.824 L2687.55 227.801 Z" fill="#000000" fill-rule="nonzero" fill-opacity="1" /><path clip-path="url(#clip290)" d="M2715.86 221.088 L2715.86 207.061 L2720.12 207.061 L2720.12 243.079 L2715.86 243.079 L2715.86 239.19 Q2714.52 241.505 2712.46 242.639 Q2710.42 243.75 2707.55 243.75 Q2702.85 243.75 2699.89 240 Q2696.95 236.25 2696.95 230.139 Q2696.95 224.028 2699.89 220.278 Q2702.85 216.528 2707.55 216.528 Q2710.42 216.528 2712.46 217.662 Q2714.52 218.774 2715.86 221.088 M2701.35 230.139 Q2701.35 234.838 2703.27 237.523 Q2705.21 240.185 2708.59 240.185 Q2711.97 240.185 2713.92 237.523 Q2715.86 234.838 2715.86 230.139 Q2715.86 225.44 2713.92 222.778 Q2711.97 220.093 2708.59 220.093 Q2705.21 220.093 2703.27 222.778 Q2701.35 225.44 2701.35 230.139 Z" fill="#000000" fill-rule="nonzero" fill-opacity="1" /><path clip-path="url(#clip290)" d="M2728.22 207.107 L2731.93 207.107 Q2735.4 212.57 2737.11 217.801 Q2738.85 223.033 2738.85 228.195 Q2738.85 233.38 2737.11 238.635 Q2735.4 243.889 2731.93 249.329 L2728.22 249.329 Q2731.3 244.028 2732.81 238.797 Q2734.33 233.542 2734.33 228.195 Q2734.33 222.848 2732.81 217.639 Q2731.3 212.431 2728.22 207.107 Z" fill="#000000" fill-rule="nonzero" fill-opacity="1" /><polyline clip-path="url(#clip290)" style="stroke:#cc79a7; stroke-linecap:round; stroke-linejoin:round; stroke-width:8; stroke-opacity:1; fill:none" points="2233.04,277.639 2401.93,277.639 "/>
<path clip-path="url(#clip290)" d="M2434.75 264.202 L2434.75 277.188 L2440.63 277.188 Q2443.9 277.188 2445.68 275.498 Q2447.46 273.808 2447.46 270.683 Q2447.46 267.581 2445.68 265.891 Q2443.9 264.202 2440.63 264.202 L2434.75 264.202 M2430.08 260.359 L2440.63 260.359 Q2446.44 260.359 2449.4 262.998 Q2452.39 265.614 2452.39 270.683 Q2452.39 275.799 2449.4 278.414 Q2446.44 281.03 2440.63 281.03 L2434.75 281.03 L2434.75 294.919 L2430.08 294.919 L2430.08 260.359 Z" fill="#000000" fill-rule="nonzero" fill-opacity="1" /><path clip-path="url(#clip290)" d="M2483.78 258.947 Q2480.68 264.271 2479.17 269.479 Q2477.67 274.688 2477.67 280.035 Q2477.67 285.382 2479.17 290.637 Q2480.7 295.868 2483.78 301.169 L2480.08 301.169 Q2476.6 295.729 2474.87 290.475 Q2473.15 285.22 2473.15 280.035 Q2473.15 274.873 2474.87 269.641 Q2476.58 264.41 2480.08 258.947 L2483.78 258.947 Z" fill="#000000" fill-rule="nonzero" fill-opacity="1" /><path clip-path="url(#clip290)" d="M2505.17 258.901 L2505.17 262.442 L2501.09 262.442 Q2498.8 262.442 2497.9 263.368 Q2497.02 264.294 2497.02 266.702 L2497.02 268.993 L2504.03 268.993 L2504.03 272.303 L2497.02 272.303 L2497.02 294.919 L2492.74 294.919 L2492.74 272.303 L2488.66 272.303 L2488.66 268.993 L2492.74 268.993 L2492.74 267.188 Q2492.74 262.859 2494.75 260.891 Q2496.77 258.901 2501.14 258.901 L2505.17 258.901 Z" fill="#000000" fill-rule="nonzero" fill-opacity="1" /><path clip-path="url(#clip290)" d="M2508.73 268.993 L2512.99 268.993 L2512.99 294.919 L2508.73 294.919 L2508.73 268.993 M2508.73 258.901 L2512.99 258.901 L2512.99 264.294 L2508.73 264.294 L2508.73 258.901 Z" fill="#000000" fill-rule="nonzero" fill-opacity="1" /><path clip-path="url(#clip290)" d="M2526.12 261.632 L2526.12 268.993 L2534.89 268.993 L2534.89 272.303 L2526.12 272.303 L2526.12 286.377 Q2526.12 289.549 2526.97 290.451 Q2527.85 291.354 2530.52 291.354 L2534.89 291.354 L2534.89 294.919 L2530.52 294.919 Q2525.58 294.919 2523.71 293.09 Q2521.83 291.238 2521.83 286.377 L2521.83 272.303 L2518.71 272.303 L2518.71 268.993 L2521.83 268.993 L2521.83 261.632 L2526.12 261.632 Z" fill="#000000" fill-rule="nonzero" fill-opacity="1" /><path clip-path="url(#clip290)" d="M2544.71 261.632 L2544.71 268.993 L2553.48 268.993 L2553.48 272.303 L2544.71 272.303 L2544.71 286.377 Q2544.71 289.549 2545.56 290.451 Q2546.44 291.354 2549.1 291.354 L2553.48 291.354 L2553.48 294.919 L2549.1 294.919 Q2544.17 294.919 2542.3 293.09 Q2540.42 291.238 2540.42 286.377 L2540.42 272.303 L2537.3 272.303 L2537.3 268.993 L2540.42 268.993 L2540.42 261.632 L2544.71 261.632 Z" fill="#000000" fill-rule="nonzero" fill-opacity="1" /><path clip-path="url(#clip290)" d="M2581.26 280.891 L2581.26 282.975 L2561.67 282.975 Q2561.95 287.373 2564.31 289.688 Q2566.7 291.979 2570.93 291.979 Q2573.39 291.979 2575.68 291.377 Q2577.99 290.775 2580.26 289.572 L2580.26 293.6 Q2577.97 294.572 2575.56 295.081 Q2573.15 295.59 2570.68 295.59 Q2564.47 295.59 2560.84 291.979 Q2557.23 288.368 2557.23 282.211 Q2557.23 275.845 2560.65 272.118 Q2564.1 268.368 2569.94 268.368 Q2575.17 268.368 2578.2 271.748 Q2581.26 275.104 2581.26 280.891 M2577 279.641 Q2576.95 276.146 2575.03 274.063 Q2573.13 271.979 2569.98 271.979 Q2566.42 271.979 2564.27 273.993 Q2562.14 276.007 2561.81 279.664 L2577 279.641 Z" fill="#000000" fill-rule="nonzero" fill-opacity="1" /><path clip-path="url(#clip290)" d="M2605.31 272.928 L2605.31 258.901 L2609.57 258.901 L2609.57 294.919 L2605.31 294.919 L2605.31 291.03 Q2603.96 293.345 2601.9 294.479 Q2599.87 295.59 2597 295.59 Q2592.3 295.59 2589.33 291.84 Q2586.39 288.09 2586.39 281.979 Q2586.39 275.868 2589.33 272.118 Q2592.3 268.368 2597 268.368 Q2599.87 268.368 2601.9 269.502 Q2603.96 270.614 2605.31 272.928 M2590.79 281.979 Q2590.79 286.678 2592.71 289.363 Q2594.66 292.025 2598.04 292.025 Q2601.42 292.025 2603.36 289.363 Q2605.31 286.678 2605.31 281.979 Q2605.31 277.28 2603.36 274.618 Q2601.42 271.933 2598.04 271.933 Q2594.66 271.933 2592.71 274.618 Q2590.79 277.28 2590.79 281.979 Z" fill="#000000" fill-rule="nonzero" fill-opacity="1" /><path clip-path="url(#clip290)" d="M2617.67 258.947 L2621.37 258.947 Q2624.84 264.41 2626.56 269.641 Q2628.29 274.873 2628.29 280.035 Q2628.29 285.22 2626.56 290.475 Q2624.84 295.729 2621.37 301.169 L2617.67 301.169 Q2620.75 295.868 2622.25 290.637 Q2623.78 285.382 2623.78 280.035 Q2623.78 274.688 2622.25 269.479 Q2620.75 264.271 2617.67 258.947 Z" fill="#000000" fill-rule="nonzero" fill-opacity="1" /><circle clip-path="url(#clip290)" cx="2317.49" cy="329.479" r="20.48" fill="#009e73" fill-rule="evenodd" fill-opacity="1" stroke="#000000" stroke-opacity="1" stroke-width="5.68889"/>
<path clip-path="url(#clip290)" d="M2430.08 312.199 L2451.93 312.199 L2451.93 316.134 L2434.75 316.134 L2434.75 326.366 L2451.21 326.366 L2451.21 330.301 L2434.75 330.301 L2434.75 342.824 L2452.34 342.824 L2452.34 346.759 L2430.08 346.759 L2430.08 312.199 Z" fill="#000000" fill-rule="nonzero" fill-opacity="1" /><path clip-path="url(#clip290)" d="M2492.25 317.037 L2492.25 329.93 L2505.15 329.93 L2505.15 333.866 L2492.25 333.866 L2492.25 346.759 L2488.36 346.759 L2488.36 333.866 L2475.47 333.866 L2475.47 329.93 L2488.36 329.93 L2488.36 317.037 L2492.25 317.037 Z" fill="#000000" fill-rule="nonzero" fill-opacity="1" /><path clip-path="url(#clip290)" d="M2550.61 313.333 L2550.61 317.893 Q2547.95 316.62 2545.58 315.995 Q2543.22 315.37 2541.02 315.37 Q2537.21 315.37 2535.12 316.852 Q2533.06 318.333 2533.06 321.065 Q2533.06 323.356 2534.43 324.537 Q2535.82 325.694 2539.66 326.412 L2542.48 326.991 Q2547.71 327.986 2550.19 330.509 Q2552.69 333.009 2552.69 337.222 Q2552.69 342.245 2549.31 344.838 Q2545.95 347.43 2539.45 347.43 Q2537 347.43 2534.22 346.875 Q2531.46 346.319 2528.5 345.231 L2528.5 340.416 Q2531.35 342.014 2534.08 342.824 Q2536.81 343.634 2539.45 343.634 Q2543.46 343.634 2545.63 342.06 Q2547.81 340.486 2547.81 337.569 Q2547.81 335.023 2546.23 333.588 Q2544.68 332.153 2541.12 331.435 L2538.27 330.879 Q2533.04 329.838 2530.7 327.616 Q2528.36 325.393 2528.36 321.435 Q2528.36 316.852 2531.58 314.213 Q2534.82 311.574 2540.49 311.574 Q2542.92 311.574 2545.45 312.014 Q2547.97 312.454 2550.61 313.333 Z" fill="#000000" fill-rule="nonzero" fill-opacity="1" /><path clip-path="url(#clip290)" d="M2585.1 310.787 Q2582 316.111 2580.49 321.319 Q2578.99 326.528 2578.99 331.875 Q2578.99 337.222 2580.49 342.477 Q2582.02 347.708 2585.1 353.009 L2581.39 353.009 Q2577.92 347.569 2576.19 342.315 Q2574.47 337.06 2574.47 331.875 Q2574.47 326.713 2576.19 321.481 Q2577.9 316.25 2581.39 310.787 L2585.1 310.787 Z" fill="#000000" fill-rule="nonzero" fill-opacity="1" /><path clip-path="url(#clip290)" d="M2613.55 325.81 Q2615.14 322.94 2617.37 321.574 Q2619.59 320.208 2622.6 320.208 Q2626.65 320.208 2628.85 323.055 Q2631.05 325.879 2631.05 331.111 L2631.05 346.759 L2626.76 346.759 L2626.76 331.25 Q2626.76 327.523 2625.45 325.717 Q2624.13 323.912 2621.42 323.912 Q2618.11 323.912 2616.19 326.111 Q2614.26 328.31 2614.26 332.106 L2614.26 346.759 L2609.98 346.759 L2609.98 331.25 Q2609.98 327.5 2608.66 325.717 Q2607.34 323.912 2604.59 323.912 Q2601.33 323.912 2599.4 326.134 Q2597.48 328.333 2597.48 332.106 L2597.48 346.759 L2593.2 346.759 L2593.2 320.833 L2597.48 320.833 L2597.48 324.861 Q2598.94 322.477 2600.98 321.342 Q2603.01 320.208 2605.82 320.208 Q2608.64 320.208 2610.61 321.643 Q2612.6 323.079 2613.55 325.81 Z" fill="#000000" fill-rule="nonzero" fill-opacity="1" /><path clip-path="url(#clip290)" d="M2661.72 332.731 L2661.72 334.815 L2642.14 334.815 Q2642.41 339.213 2644.77 341.528 Q2647.16 343.819 2651.39 343.819 Q2653.85 343.819 2656.14 343.217 Q2658.45 342.615 2660.72 341.412 L2660.72 345.44 Q2658.43 346.412 2656.02 346.921 Q2653.62 347.43 2651.14 347.43 Q2644.94 347.43 2641.3 343.819 Q2637.69 340.208 2637.69 334.051 Q2637.69 327.685 2641.12 323.958 Q2644.57 320.208 2650.4 320.208 Q2655.63 320.208 2658.66 323.588 Q2661.72 326.944 2661.72 332.731 M2657.46 331.481 Q2657.41 327.986 2655.49 325.903 Q2653.59 323.819 2650.45 323.819 Q2646.88 323.819 2644.73 325.833 Q2642.6 327.847 2642.27 331.504 L2657.46 331.481 Z" fill="#000000" fill-rule="nonzero" fill-opacity="1" /><path clip-path="url(#clip290)" d="M2680.49 333.727 Q2675.33 333.727 2673.34 334.907 Q2671.35 336.088 2671.35 338.935 Q2671.35 341.203 2672.83 342.546 Q2674.33 343.865 2676.9 343.865 Q2680.45 343.865 2682.57 341.365 Q2684.73 338.842 2684.73 334.676 L2684.73 333.727 L2680.49 333.727 M2688.99 331.967 L2688.99 346.759 L2684.73 346.759 L2684.73 342.824 Q2683.27 345.185 2681.09 346.319 Q2678.92 347.43 2675.77 347.43 Q2671.79 347.43 2669.43 345.208 Q2667.09 342.963 2667.09 339.213 Q2667.09 334.838 2670.01 332.616 Q2672.95 330.393 2678.76 330.393 L2684.73 330.393 L2684.73 329.977 Q2684.73 327.037 2682.78 325.44 Q2680.86 323.819 2677.37 323.819 Q2675.14 323.819 2673.04 324.352 Q2670.93 324.884 2668.99 325.949 L2668.99 322.014 Q2671.32 321.111 2673.52 320.671 Q2675.72 320.208 2677.81 320.208 Q2683.43 320.208 2686.21 323.125 Q2688.99 326.041 2688.99 331.967 Z" fill="#000000" fill-rule="nonzero" fill-opacity="1" /><path clip-path="url(#clip290)" d="M2714.29 321.597 L2714.29 325.625 Q2712.48 324.699 2710.54 324.236 Q2708.59 323.773 2706.51 323.773 Q2703.34 323.773 2701.74 324.745 Q2700.17 325.717 2700.17 327.662 Q2700.17 329.143 2701.3 330 Q2702.44 330.833 2705.86 331.597 L2707.32 331.921 Q2711.86 332.893 2713.76 334.676 Q2715.68 336.435 2715.68 339.606 Q2715.68 343.217 2712.81 345.324 Q2709.96 347.43 2704.96 347.43 Q2702.88 347.43 2700.61 347.014 Q2698.36 346.62 2695.86 345.81 L2695.86 341.412 Q2698.22 342.639 2700.51 343.264 Q2702.81 343.865 2705.05 343.865 Q2708.06 343.865 2709.68 342.847 Q2711.3 341.805 2711.3 339.93 Q2711.3 338.194 2710.12 337.268 Q2708.96 336.342 2705.01 335.486 L2703.52 335.139 Q2699.57 334.305 2697.81 332.592 Q2696.05 330.856 2696.05 327.847 Q2696.05 324.19 2698.64 322.199 Q2701.23 320.208 2706 320.208 Q2708.36 320.208 2710.44 320.555 Q2712.53 320.903 2714.29 321.597 Z" fill="#000000" fill-rule="nonzero" fill-opacity="1" /><path clip-path="url(#clip290)" d="M2722.02 336.528 L2722.02 320.833 L2726.28 320.833 L2726.28 336.366 Q2726.28 340.046 2727.71 341.898 Q2729.15 343.727 2732.02 343.727 Q2735.47 343.727 2737.46 341.528 Q2739.47 339.328 2739.47 335.532 L2739.47 320.833 L2743.73 320.833 L2743.73 346.759 L2739.47 346.759 L2739.47 342.778 Q2737.92 345.139 2735.86 346.296 Q2733.82 347.43 2731.12 347.43 Q2726.65 347.43 2724.33 344.653 Q2722.02 341.875 2722.02 336.528 M2732.74 320.208 L2732.74 320.208 Z" fill="#000000" fill-rule="nonzero" fill-opacity="1" /><path clip-path="url(#clip290)" d="M2767.53 324.815 Q2766.81 324.398 2765.95 324.213 Q2765.12 324.004 2764.1 324.004 Q2760.49 324.004 2758.55 326.366 Q2756.63 328.704 2756.63 333.102 L2756.63 346.759 L2752.34 346.759 L2752.34 320.833 L2756.63 320.833 L2756.63 324.861 Q2757.97 322.5 2760.12 321.366 Q2762.27 320.208 2765.35 320.208 Q2765.79 320.208 2766.32 320.278 Q2766.86 320.324 2767.5 320.44 L2767.53 324.815 Z" fill="#000000" fill-rule="nonzero" fill-opacity="1" /><path clip-path="url(#clip290)" d="M2793.13 332.731 L2793.13 334.815 L2773.55 334.815 Q2773.82 339.213 2776.19 341.528 Q2778.57 343.819 2782.81 343.819 Q2785.26 343.819 2787.55 343.217 Q2789.87 342.615 2792.13 341.412 L2792.13 345.44 Q2789.84 346.412 2787.44 346.921 Q2785.03 347.43 2782.55 347.43 Q2776.35 347.43 2772.71 343.819 Q2769.1 340.208 2769.1 334.051 Q2769.1 327.685 2772.53 323.958 Q2775.98 320.208 2781.81 320.208 Q2787.04 320.208 2790.07 323.588 Q2793.13 326.944 2793.13 332.731 M2788.87 331.481 Q2788.82 327.986 2786.9 325.903 Q2785 323.819 2781.86 323.819 Q2778.29 323.819 2776.14 325.833 Q2774.01 327.847 2773.69 331.504 L2788.87 331.481 Z" fill="#000000" fill-rule="nonzero" fill-opacity="1" /><path clip-path="url(#clip290)" d="M2817.18 324.768 L2817.18 310.741 L2821.44 310.741 L2821.44 346.759 L2817.18 346.759 L2817.18 342.87 Q2815.84 345.185 2813.78 346.319 Q2811.74 347.43 2808.87 347.43 Q2804.17 347.43 2801.21 343.68 Q2798.27 339.93 2798.27 333.819 Q2798.27 327.708 2801.21 323.958 Q2804.17 320.208 2808.87 320.208 Q2811.74 320.208 2813.78 321.342 Q2815.84 322.454 2817.18 324.768 M2802.67 333.819 Q2802.67 338.518 2804.59 341.203 Q2806.53 343.865 2809.91 343.865 Q2813.29 343.865 2815.24 341.203 Q2817.18 338.518 2817.18 333.819 Q2817.18 329.12 2815.24 326.458 Q2813.29 323.773 2809.91 323.773 Q2806.53 323.773 2804.59 326.458 Q2802.67 329.12 2802.67 333.819 Z" fill="#000000" fill-rule="nonzero" fill-opacity="1" /><path clip-path="url(#clip290)" d="M2829.54 310.787 L2833.25 310.787 Q2836.72 316.25 2838.43 321.481 Q2840.17 326.713 2840.17 331.875 Q2840.17 337.06 2838.43 342.315 Q2836.72 347.569 2833.25 353.009 L2829.54 353.009 Q2832.62 347.708 2834.12 342.477 Q2835.65 337.222 2835.65 331.875 Q2835.65 326.528 2834.12 321.319 Q2832.62 316.111 2829.54 310.787 Z" fill="#000000" fill-rule="nonzero" fill-opacity="1" /><polyline clip-path="url(#clip290)" style="stroke:#009e73; stroke-linecap:round; stroke-linejoin:round; stroke-width:8; stroke-opacity:1; fill:none" points="2233.04,381.319 2401.93,381.319 "/>
<path clip-path="url(#clip290)" d="M2430.08 364.039 L2451.93 364.039 L2451.93 367.974 L2434.75 367.974 L2434.75 378.206 L2451.21 378.206 L2451.21 382.141 L2434.75 382.141 L2434.75 394.664 L2452.34 394.664 L2452.34 398.599 L2430.08 398.599 L2430.08 364.039 Z" fill="#000000" fill-rule="nonzero" fill-opacity="1" /><path clip-path="url(#clip290)" d="M2492.25 368.877 L2492.25 381.77 L2505.15 381.77 L2505.15 385.706 L2492.25 385.706 L2492.25 398.599 L2488.36 398.599 L2488.36 385.706 L2475.47 385.706 L2475.47 381.77 L2488.36 381.77 L2488.36 368.877 L2492.25 368.877 Z" fill="#000000" fill-rule="nonzero" fill-opacity="1" /><path clip-path="url(#clip290)" d="M2550.61 365.173 L2550.61 369.733 Q2547.95 368.46 2545.58 367.835 Q2543.22 367.21 2541.02 367.21 Q2537.21 367.21 2535.12 368.692 Q2533.06 370.173 2533.06 372.905 Q2533.06 375.196 2534.43 376.377 Q2535.82 377.534 2539.66 378.252 L2542.48 378.831 Q2547.71 379.826 2550.19 382.349 Q2552.69 384.849 2552.69 389.062 Q2552.69 394.085 2549.31 396.678 Q2545.95 399.27 2539.45 399.27 Q2537 399.27 2534.22 398.715 Q2531.46 398.159 2528.5 397.071 L2528.5 392.256 Q2531.35 393.854 2534.08 394.664 Q2536.81 395.474 2539.45 395.474 Q2543.46 395.474 2545.63 393.9 Q2547.81 392.326 2547.81 389.409 Q2547.81 386.863 2546.23 385.428 Q2544.68 383.993 2541.12 383.275 L2538.27 382.719 Q2533.04 381.678 2530.7 379.456 Q2528.36 377.233 2528.36 373.275 Q2528.36 368.692 2531.58 366.053 Q2534.82 363.414 2540.49 363.414 Q2542.92 363.414 2545.45 363.854 Q2547.97 364.294 2550.61 365.173 Z" fill="#000000" fill-rule="nonzero" fill-opacity="1" /><path clip-path="url(#clip290)" d="M2585.1 362.627 Q2582 367.951 2580.49 373.159 Q2578.99 378.368 2578.99 383.715 Q2578.99 389.062 2580.49 394.317 Q2582.02 399.548 2585.1 404.849 L2581.39 404.849 Q2577.92 399.409 2576.19 394.155 Q2574.47 388.9 2574.47 383.715 Q2574.47 378.553 2576.19 373.321 Q2577.9 368.09 2581.39 362.627 L2585.1 362.627 Z" fill="#000000" fill-rule="nonzero" fill-opacity="1" /><path clip-path="url(#clip290)" d="M2606.49 362.581 L2606.49 366.122 L2602.41 366.122 Q2600.12 366.122 2599.22 367.048 Q2598.34 367.974 2598.34 370.382 L2598.34 372.673 L2605.35 372.673 L2605.35 375.983 L2598.34 375.983 L2598.34 398.599 L2594.06 398.599 L2594.06 375.983 L2589.98 375.983 L2589.98 372.673 L2594.06 372.673 L2594.06 370.868 Q2594.06 366.539 2596.07 364.571 Q2598.08 362.581 2602.46 362.581 L2606.49 362.581 Z" fill="#000000" fill-rule="nonzero" fill-opacity="1" /><path clip-path="url(#clip290)" d="M2610.05 372.673 L2614.31 372.673 L2614.31 398.599 L2610.05 398.599 L2610.05 372.673 M2610.05 362.581 L2614.31 362.581 L2614.31 367.974 L2610.05 367.974 L2610.05 362.581 Z" fill="#000000" fill-rule="nonzero" fill-opacity="1" /><path clip-path="url(#clip290)" d="M2627.44 365.312 L2627.44 372.673 L2636.21 372.673 L2636.21 375.983 L2627.44 375.983 L2627.44 390.057 Q2627.44 393.229 2628.29 394.131 Q2629.17 395.034 2631.83 395.034 L2636.21 395.034 L2636.21 398.599 L2631.83 398.599 Q2626.9 398.599 2625.03 396.77 Q2623.15 394.918 2623.15 390.057 L2623.15 375.983 L2620.03 375.983 L2620.03 372.673 L2623.15 372.673 L2623.15 365.312 L2627.44 365.312 Z" fill="#000000" fill-rule="nonzero" fill-opacity="1" /><path clip-path="url(#clip290)" d="M2646.02 365.312 L2646.02 372.673 L2654.8 372.673 L2654.8 375.983 L2646.02 375.983 L2646.02 390.057 Q2646.02 393.229 2646.88 394.131 Q2647.76 395.034 2650.42 395.034 L2654.8 395.034 L2654.8 398.599 L2650.42 398.599 Q2645.49 398.599 2643.62 396.77 Q2641.74 394.918 2641.74 390.057 L2641.74 375.983 L2638.62 375.983 L2638.62 372.673 L2641.74 372.673 L2641.74 365.312 L2646.02 365.312 Z" fill="#000000" fill-rule="nonzero" fill-opacity="1" /><path clip-path="url(#clip290)" d="M2682.57 384.571 L2682.57 386.655 L2662.99 386.655 Q2663.27 391.053 2665.63 393.368 Q2668.01 395.659 2672.25 395.659 Q2674.7 395.659 2677 395.057 Q2679.31 394.455 2681.58 393.252 L2681.58 397.28 Q2679.29 398.252 2676.88 398.761 Q2674.47 399.27 2672 399.27 Q2665.79 399.27 2662.16 395.659 Q2658.55 392.048 2658.55 385.891 Q2658.55 379.525 2661.97 375.798 Q2665.42 372.048 2671.26 372.048 Q2676.49 372.048 2679.52 375.428 Q2682.57 378.784 2682.57 384.571 M2678.32 383.321 Q2678.27 379.826 2676.35 377.743 Q2674.45 375.659 2671.3 375.659 Q2667.74 375.659 2665.58 377.673 Q2663.45 379.687 2663.13 383.344 L2678.32 383.321 Z" fill="#000000" fill-rule="nonzero" fill-opacity="1" /><path clip-path="url(#clip290)" d="M2706.63 376.608 L2706.63 362.581 L2710.88 362.581 L2710.88 398.599 L2706.63 398.599 L2706.63 394.71 Q2705.28 397.025 2703.22 398.159 Q2701.19 399.27 2698.32 399.27 Q2693.62 399.27 2690.65 395.52 Q2687.71 391.77 2687.71 385.659 Q2687.71 379.548 2690.65 375.798 Q2693.62 372.048 2698.32 372.048 Q2701.19 372.048 2703.22 373.182 Q2705.28 374.294 2706.63 376.608 M2692.11 385.659 Q2692.11 390.358 2694.03 393.043 Q2695.98 395.705 2699.36 395.705 Q2702.74 395.705 2704.68 393.043 Q2706.63 390.358 2706.63 385.659 Q2706.63 380.96 2704.68 378.298 Q2702.74 375.613 2699.36 375.613 Q2695.98 375.613 2694.03 378.298 Q2692.11 380.96 2692.11 385.659 Z" fill="#000000" fill-rule="nonzero" fill-opacity="1" /><path clip-path="url(#clip290)" d="M2718.99 362.627 L2722.69 362.627 Q2726.16 368.09 2727.88 373.321 Q2729.61 378.553 2729.61 383.715 Q2729.61 388.9 2727.88 394.155 Q2726.16 399.409 2722.69 404.849 L2718.99 404.849 Q2722.07 399.548 2723.57 394.317 Q2725.1 389.062 2725.1 383.715 Q2725.1 378.368 2723.57 373.159 Q2722.07 367.951 2718.99 362.627 Z" fill="#000000" fill-rule="nonzero" fill-opacity="1" /></svg>
