<?xml version="1.0" encoding="utf-8"?>
<svg xmlns="http://www.w3.org/2000/svg" xmlns:xlink="http://www.w3.org/1999/xlink" width="600" height="400" viewBox="0 0 2400 1600">
<defs>
  <clipPath id="clip880">
    <rect x="0" y="0" width="2400" height="1600"/>
  </clipPath>
</defs>
<path clip-path="url(#clip880)" d="M0 1600 L2400 1600 L2400 0 L0 0  Z" fill="#ffffff" fill-rule="evenodd" fill-opacity="1"/>
<defs>
  <clipPath id="clip881">
    <rect x="480" y="0" width="1681" height="1600"/>
  </clipPath>
</defs>
<path clip-path="url(#clip880)" d="M102.74 1505.26 L2352.76 1505.26 L2352.76 47.2441 L102.74 47.2441  Z" fill="#ffffff" fill-rule="evenodd" fill-opacity="1"/>
<defs>
  <clipPath id="clip882">
    <rect x="102" y="47" width="2251" height="1459"/>
  </clipPath>
</defs>
<polyline clip-path="url(#clip882)" style="stroke:#000000; stroke-linecap:round; stroke-linejoin:round; stroke-width:2; stroke-opacity:0.1; fill:none" points="123.1,1505.26 123.1,47.2441 "/>
<polyline clip-path="url(#clip882)" style="stroke:#000000; stroke-linecap:round; stroke-linejoin:round; stroke-width:2; stroke-opacity:0.1; fill:none" points="556.296,1505.26 556.296,47.2441 "/>
<polyline clip-path="url(#clip882)" style="stroke:#000000; stroke-linecap:round; stroke-linejoin:round; stroke-width:2; stroke-opacity:0.1; fill:none" points="989.491,1505.26 989.491,47.2441 "/>
<polyline clip-path="url(#clip882)" style="stroke:#000000; stroke-linecap:round; stroke-linejoin:round; stroke-width:2; stroke-opacity:0.1; fill:none" points="1422.69,1505.26 1422.69,47.2441 "/>
<polyline clip-path="url(#clip882)" style="stroke:#000000; stroke-linecap:round; stroke-linejoin:round; stroke-width:2; stroke-opacity:0.1; fill:none" points="1855.88,1505.26 1855.88,47.2441 "/>
<polyline clip-path="url(#clip882)" style="stroke:#000000; stroke-linecap:round; stroke-linejoin:round; stroke-width:2; stroke-opacity:0.1; fill:none" points="2289.08,1505.26 2289.08,47.2441 "/>
<polyline clip-path="url(#clip880)" style="stroke:#000000; stroke-linecap:round; stroke-linejoin:round; stroke-width:4; stroke-opacity:1; fill:none" points="102.74,1505.26 2352.76,1505.26 "/>
<polyline clip-path="url(#clip880)" style="stroke:#000000; stroke-linecap:round; stroke-linejoin:round; stroke-width:4; stroke-opacity:1; fill:none" points="123.1,1505.26 123.1,1486.36 "/>
<polyline clip-path="url(#clip880)" style="stroke:#000000; stroke-linecap:round; stroke-linejoin:round; stroke-width:4; stroke-opacity:1; fill:none" points="556.296,1505.26 556.296,1486.36 "/>
<polyline clip-path="url(#clip880)" style="stroke:#000000; stroke-linecap:round; stroke-linejoin:round; stroke-width:4; stroke-opacity:1; fill:none" points="989.491,1505.26 989.491,1486.36 "/>
<polyline clip-path="url(#clip880)" style="stroke:#000000; stroke-linecap:round; stroke-linejoin:round; stroke-width:4; stroke-opacity:1; fill:none" points="1422.69,1505.26 1422.69,1486.36 "/>
<polyline clip-path="url(#clip880)" style="stroke:#000000; stroke-linecap:round; stroke-linejoin:round; stroke-width:4; stroke-opacity:1; fill:none" points="1855.88,1505.26 1855.88,1486.36 "/>
<polyline clip-path="url(#clip880)" style="stroke:#000000; stroke-linecap:round; stroke-linejoin:round; stroke-width:4; stroke-opacity:1; fill:none" points="2289.08,1505.26 2289.08,1486.36 "/>
<path clip-path="url(#clip880)" d="M123.1 1536.18 Q119.489 1536.18 117.661 1539.74 Q115.855 1543.28 115.855 1550.41 Q115.855 1557.52 117.661 1561.09 Q119.489 1564.63 123.1 1564.63 Q126.735 1564.63 128.54 1561.09 Q130.369 1557.52 130.369 1550.41 Q130.369 1543.28 128.54 1539.74 Q126.735 1536.18 123.1 1536.18 M123.1 1532.47 Q128.91 1532.47 131.966 1537.08 Q135.045 1541.66 135.045 1550.41 Q135.045 1559.14 131.966 1563.75 Q128.91 1568.33 123.1 1568.33 Q117.29 1568.33 114.211 1563.75 Q111.156 1559.14 111.156 1550.41 Q111.156 1541.66 114.211 1537.08 Q117.29 1532.47 123.1 1532.47 Z" fill="#000000" fill-rule="nonzero" fill-opacity="1" /><path clip-path="url(#clip880)" d="M530.983 1563.72 L538.622 1563.72 L538.622 1537.36 L530.312 1539.03 L530.312 1534.77 L538.576 1533.1 L543.252 1533.1 L543.252 1563.72 L550.89 1563.72 L550.89 1567.66 L530.983 1567.66 L530.983 1563.72 Z" fill="#000000" fill-rule="nonzero" fill-opacity="1" /><path clip-path="url(#clip880)" d="M570.335 1536.18 Q566.724 1536.18 564.895 1539.74 Q563.089 1543.28 563.089 1550.41 Q563.089 1557.52 564.895 1561.09 Q566.724 1564.63 570.335 1564.63 Q573.969 1564.63 575.775 1561.09 Q577.603 1557.52 577.603 1550.41 Q577.603 1543.28 575.775 1539.74 Q573.969 1536.18 570.335 1536.18 M570.335 1532.47 Q576.145 1532.47 579.2 1537.08 Q582.279 1541.66 582.279 1550.41 Q582.279 1559.14 579.2 1563.75 Q576.145 1568.33 570.335 1568.33 Q564.525 1568.33 561.446 1563.75 Q558.39 1559.14 558.39 1550.41 Q558.39 1541.66 561.446 1537.08 Q564.525 1532.47 570.335 1532.47 Z" fill="#000000" fill-rule="nonzero" fill-opacity="1" /><path clip-path="url(#clip880)" d="M968.264 1563.72 L984.583 1563.72 L984.583 1567.66 L962.639 1567.66 L962.639 1563.72 Q965.301 1560.97 969.884 1556.34 Q974.491 1551.69 975.671 1550.35 Q977.917 1547.82 978.796 1546.09 Q979.699 1544.33 979.699 1542.64 Q979.699 1539.88 977.755 1538.15 Q975.833 1536.41 972.732 1536.41 Q970.532 1536.41 968.079 1537.17 Q965.648 1537.94 962.87 1539.49 L962.87 1534.77 Q965.695 1533.63 968.148 1533.05 Q970.602 1532.47 972.639 1532.47 Q978.009 1532.47 981.204 1535.16 Q984.398 1537.85 984.398 1542.34 Q984.398 1544.47 983.588 1546.39 Q982.801 1548.28 980.694 1550.88 Q980.116 1551.55 977.014 1554.77 Q973.912 1557.96 968.264 1563.72 Z" fill="#000000" fill-rule="nonzero" fill-opacity="1" /><path clip-path="url(#clip880)" d="M1004.4 1536.18 Q1000.79 1536.18 998.958 1539.74 Q997.153 1543.28 997.153 1550.41 Q997.153 1557.52 998.958 1561.09 Q1000.79 1564.63 1004.4 1564.63 Q1008.03 1564.63 1009.84 1561.09 Q1011.67 1557.52 1011.67 1550.41 Q1011.67 1543.28 1009.84 1539.74 Q1008.03 1536.18 1004.4 1536.18 M1004.4 1532.47 Q1010.21 1532.47 1013.26 1537.08 Q1016.34 1541.66 1016.34 1550.41 Q1016.34 1559.14 1013.26 1563.75 Q1010.21 1568.33 1004.4 1568.33 Q998.588 1568.33 995.509 1563.75 Q992.454 1559.14 992.454 1550.41 Q992.454 1541.66 995.509 1537.08 Q998.588 1532.47 1004.4 1532.47 Z" fill="#000000" fill-rule="nonzero" fill-opacity="1" /><path clip-path="url(#clip880)" d="M1411.53 1549.03 Q1414.88 1549.74 1416.76 1552.01 Q1418.66 1554.28 1418.66 1557.61 Q1418.66 1562.73 1415.14 1565.53 Q1411.62 1568.33 1405.14 1568.33 Q1402.96 1568.33 1400.65 1567.89 Q1398.36 1567.47 1395.9 1566.62 L1395.9 1562.1 Q1397.85 1563.24 1400.16 1563.82 Q1402.48 1564.4 1405 1564.4 Q1409.4 1564.4 1411.69 1562.66 Q1414.01 1560.92 1414.01 1557.61 Q1414.01 1554.56 1411.85 1552.85 Q1409.72 1551.11 1405.9 1551.11 L1401.88 1551.11 L1401.88 1547.27 L1406.09 1547.27 Q1409.54 1547.27 1411.37 1545.9 Q1413.2 1544.51 1413.2 1541.92 Q1413.2 1539.26 1411.3 1537.85 Q1409.42 1536.41 1405.9 1536.41 Q1403.98 1536.41 1401.78 1536.83 Q1399.58 1537.24 1396.95 1538.12 L1396.95 1533.96 Q1399.61 1533.22 1401.92 1532.85 Q1404.26 1532.47 1406.32 1532.47 Q1411.64 1532.47 1414.75 1534.91 Q1417.85 1537.31 1417.85 1541.43 Q1417.85 1544.3 1416.2 1546.29 Q1414.56 1548.26 1411.53 1549.03 Z" fill="#000000" fill-rule="nonzero" fill-opacity="1" /><path clip-path="url(#clip880)" d="M1437.52 1536.18 Q1433.91 1536.18 1432.08 1539.74 Q1430.28 1543.28 1430.28 1550.41 Q1430.28 1557.52 1432.08 1561.09 Q1433.91 1564.63 1437.52 1564.63 Q1441.16 1564.63 1442.96 1561.09 Q1444.79 1557.52 1444.79 1550.41 Q1444.79 1543.28 1442.96 1539.74 Q1441.16 1536.18 1437.52 1536.18 M1437.52 1532.47 Q1443.33 1532.47 1446.39 1537.08 Q1449.47 1541.66 1449.47 1550.41 Q1449.47 1559.14 1446.39 1563.75 Q1443.33 1568.33 1437.52 1568.33 Q1431.71 1568.33 1428.63 1563.75 Q1425.58 1559.14 1425.58 1550.41 Q1425.58 1541.66 1428.63 1537.08 Q1431.71 1532.47 1437.52 1532.47 Z" fill="#000000" fill-rule="nonzero" fill-opacity="1" /><path clip-path="url(#clip880)" d="M1844.05 1537.17 L1832.25 1555.62 L1844.05 1555.62 L1844.05 1537.17 M1842.83 1533.1 L1848.71 1533.1 L1848.71 1555.62 L1853.64 1555.62 L1853.64 1559.51 L1848.71 1559.51 L1848.71 1567.66 L1844.05 1567.66 L1844.05 1559.51 L1828.45 1559.51 L1828.45 1555 L1842.83 1533.1 Z" fill="#000000" fill-rule="nonzero" fill-opacity="1" /><path clip-path="url(#clip880)" d="M1871.37 1536.18 Q1867.76 1536.18 1865.93 1539.74 Q1864.12 1543.28 1864.12 1550.41 Q1864.12 1557.52 1865.93 1561.09 Q1867.76 1564.63 1871.37 1564.63 Q1875 1564.63 1876.81 1561.09 Q1878.64 1557.52 1878.64 1550.41 Q1878.64 1543.28 1876.81 1539.74 Q1875 1536.18 1871.37 1536.18 M1871.37 1532.47 Q1877.18 1532.47 1880.23 1537.08 Q1883.31 1541.66 1883.31 1550.41 Q1883.31 1559.14 1880.23 1563.75 Q1877.18 1568.33 1871.37 1568.33 Q1865.56 1568.33 1862.48 1563.75 Q1859.42 1559.14 1859.42 1550.41 Q1859.42 1541.66 1862.48 1537.08 Q1865.56 1532.47 1871.37 1532.47 Z" fill="#000000" fill-rule="nonzero" fill-opacity="1" /><path clip-path="url(#clip880)" d="M2263.78 1533.1 L2282.13 1533.1 L2282.13 1537.04 L2268.06 1537.04 L2268.06 1545.51 Q2269.08 1545.16 2270.09 1545 Q2271.11 1544.81 2272.13 1544.81 Q2277.92 1544.81 2281.3 1547.98 Q2284.68 1551.16 2284.68 1556.57 Q2284.68 1562.15 2281.21 1565.25 Q2277.73 1568.33 2271.41 1568.33 Q2269.24 1568.33 2266.97 1567.96 Q2264.72 1567.59 2262.32 1566.85 L2262.32 1562.15 Q2264.4 1563.28 2266.62 1563.84 Q2268.84 1564.4 2271.32 1564.4 Q2275.33 1564.4 2277.66 1562.29 Q2280 1560.18 2280 1556.57 Q2280 1552.96 2277.66 1550.85 Q2275.33 1548.75 2271.32 1548.75 Q2269.45 1548.75 2267.57 1549.16 Q2265.72 1549.58 2263.78 1550.46 L2263.78 1533.1 Z" fill="#000000" fill-rule="nonzero" fill-opacity="1" /><path clip-path="url(#clip880)" d="M2303.89 1536.18 Q2300.28 1536.18 2298.45 1539.74 Q2296.65 1543.28 2296.65 1550.41 Q2296.65 1557.52 2298.45 1561.09 Q2300.28 1564.63 2303.89 1564.63 Q2307.53 1564.63 2309.33 1561.09 Q2311.16 1557.52 2311.16 1550.41 Q2311.16 1543.28 2309.33 1539.74 Q2307.53 1536.18 2303.89 1536.18 M2303.89 1532.47 Q2309.7 1532.47 2312.76 1537.08 Q2315.84 1541.66 2315.84 1550.41 Q2315.84 1559.14 2312.76 1563.75 Q2309.7 1568.33 2303.89 1568.33 Q2298.08 1568.33 2295 1563.75 Q2291.95 1559.14 2291.95 1550.41 Q2291.95 1541.66 2295 1537.08 Q2298.08 1532.47 2303.89 1532.47 Z" fill="#000000" fill-rule="nonzero" fill-opacity="1" /><path clip-path="url(#clip880)" d="M879.703 1606.96 Q872.701 1606.96 868.563 1612.18 Q864.457 1617.4 864.457 1626.41 Q864.457 1635.39 868.563 1640.61 Q872.701 1645.83 879.703 1645.83 Q886.705 1645.83 890.779 1640.61 Q894.885 1635.39 894.885 1626.41 Q894.885 1617.4 890.779 1612.18 Q886.705 1606.96 879.703 1606.96 M879.703 1601.74 Q889.697 1601.74 895.681 1608.46 Q901.665 1615.14 901.665 1626.41 Q901.665 1637.65 895.681 1644.36 Q889.697 1651.05 879.703 1651.05 Q869.677 1651.05 863.661 1644.36 Q857.678 1637.68 857.678 1626.41 Q857.678 1615.14 863.661 1608.46 Q869.677 1601.74 879.703 1601.74 Z" fill="#000000" fill-rule="nonzero" fill-opacity="1" /><path clip-path="url(#clip880)" d="M917.133 1644.78 L917.133 1663.68 L911.245 1663.68 L911.245 1614.48 L917.133 1614.48 L917.133 1619.89 Q918.979 1616.7 921.78 1615.18 Q924.613 1613.62 928.528 1613.62 Q935.021 1613.62 939.063 1618.77 Q943.137 1623.93 943.137 1632.33 Q943.137 1640.73 939.063 1645.89 Q935.021 1651.05 928.528 1651.05 Q924.613 1651.05 921.78 1649.52 Q918.979 1647.96 917.133 1644.78 M937.058 1632.33 Q937.058 1625.87 934.384 1622.21 Q931.743 1618.52 927.096 1618.52 Q922.449 1618.52 919.775 1622.21 Q917.133 1625.87 917.133 1632.33 Q917.133 1638.79 919.775 1642.48 Q922.449 1646.15 927.096 1646.15 Q931.743 1646.15 934.384 1642.48 Q937.058 1638.79 937.058 1632.33 Z" fill="#000000" fill-rule="nonzero" fill-opacity="1" /><path clip-path="url(#clip880)" d="M958.638 1604.35 L958.638 1614.48 L970.701 1614.48 L970.701 1619.03 L958.638 1619.03 L958.638 1638.38 Q958.638 1642.74 959.815 1643.98 Q961.025 1645.22 964.685 1645.22 L970.701 1645.22 L970.701 1650.12 L964.685 1650.12 Q957.906 1650.12 955.328 1647.61 Q952.75 1645.06 952.75 1638.38 L952.75 1619.03 L948.453 1619.03 L948.453 1614.48 L952.75 1614.48 L952.75 1604.35 L958.638 1604.35 Z" fill="#000000" fill-rule="nonzero" fill-opacity="1" /><path clip-path="url(#clip880)" d="M978.403 1614.48 L984.26 1614.48 L984.26 1650.12 L978.403 1650.12 L978.403 1614.48 M978.403 1600.6 L984.26 1600.6 L984.26 1608.01 L978.403 1608.01 L978.403 1600.6 Z" fill="#000000" fill-rule="nonzero" fill-opacity="1" /><path clip-path="url(#clip880)" d="M1024.27 1621.32 Q1026.46 1617.37 1029.52 1615.49 Q1032.58 1613.62 1036.71 1613.62 Q1042.28 1613.62 1045.31 1617.53 Q1048.33 1621.41 1048.33 1628.61 L1048.33 1650.12 L1042.44 1650.12 L1042.44 1628.8 Q1042.44 1623.67 1040.63 1621.19 Q1038.81 1618.71 1035.09 1618.71 Q1030.54 1618.71 1027.9 1621.73 Q1025.25 1624.76 1025.25 1629.98 L1025.25 1650.12 L1019.37 1650.12 L1019.37 1628.8 Q1019.37 1623.64 1017.55 1621.19 Q1015.74 1618.71 1011.95 1618.71 Q1007.46 1618.71 1004.82 1621.76 Q1002.18 1624.79 1002.18 1629.98 L1002.18 1650.12 L996.291 1650.12 L996.291 1614.48 L1002.18 1614.48 L1002.18 1620.01 Q1004.18 1616.74 1006.99 1615.18 Q1009.79 1613.62 1013.64 1613.62 Q1017.52 1613.62 1020.23 1615.59 Q1022.96 1617.56 1024.27 1621.32 Z" fill="#000000" fill-rule="nonzero" fill-opacity="1" /><path clip-path="url(#clip880)" d="M1060.01 1614.48 L1065.87 1614.48 L1065.87 1650.12 L1060.01 1650.12 L1060.01 1614.48 M1060.01 1600.6 L1065.87 1600.6 L1065.87 1608.01 L1060.01 1608.01 L1060.01 1600.6 Z" fill="#000000" fill-rule="nonzero" fill-opacity="1" /><path clip-path="url(#clip880)" d="M1100.85 1615.53 L1100.85 1621.06 Q1098.37 1619.79 1095.69 1619.15 Q1093.02 1618.52 1090.15 1618.52 Q1085.79 1618.52 1083.6 1619.85 Q1081.43 1621.19 1081.43 1623.87 Q1081.43 1625.9 1082.99 1627.08 Q1084.55 1628.23 1089.26 1629.28 L1091.27 1629.72 Q1097.51 1631.06 1100.12 1633.51 Q1102.76 1635.93 1102.76 1640.29 Q1102.76 1645.25 1098.81 1648.15 Q1094.9 1651.05 1088.02 1651.05 Q1085.16 1651.05 1082.04 1650.47 Q1078.95 1649.93 1075.51 1648.82 L1075.51 1642.77 Q1078.76 1644.46 1081.91 1645.32 Q1085.06 1646.15 1088.15 1646.15 Q1092.29 1646.15 1094.51 1644.74 Q1096.74 1643.31 1096.74 1640.73 Q1096.74 1638.35 1095.12 1637.07 Q1093.53 1635.8 1088.08 1634.62 L1086.05 1634.15 Q1080.6 1633 1078.19 1630.64 Q1075.77 1628.26 1075.77 1624.12 Q1075.77 1619.09 1079.33 1616.35 Q1082.9 1613.62 1089.45 1613.62 Q1092.7 1613.62 1095.56 1614.09 Q1098.43 1614.57 1100.85 1615.53 Z" fill="#000000" fill-rule="nonzero" fill-opacity="1" /><path clip-path="url(#clip880)" d="M1128.28 1632.2 Q1121.19 1632.2 1118.45 1633.83 Q1115.71 1635.45 1115.71 1639.37 Q1115.71 1642.48 1117.75 1644.33 Q1119.82 1646.15 1123.35 1646.15 Q1128.22 1646.15 1131.15 1642.71 Q1134.11 1639.24 1134.11 1633.51 L1134.11 1632.2 L1128.28 1632.2 M1139.96 1629.79 L1139.96 1650.12 L1134.11 1650.12 L1134.11 1644.71 Q1132.1 1647.96 1129.11 1649.52 Q1126.12 1651.05 1121.79 1651.05 Q1116.32 1651.05 1113.07 1647.99 Q1109.86 1644.9 1109.86 1639.75 Q1109.86 1633.73 1113.87 1630.68 Q1117.91 1627.62 1125.9 1627.62 L1134.11 1627.62 L1134.11 1627.05 Q1134.11 1623.01 1131.43 1620.81 Q1128.79 1618.58 1123.99 1618.58 Q1120.93 1618.58 1118.04 1619.31 Q1115.14 1620.05 1112.47 1621.51 L1112.47 1616.1 Q1115.68 1614.86 1118.7 1614.25 Q1121.73 1613.62 1124.59 1613.62 Q1132.33 1613.62 1136.15 1617.63 Q1139.96 1621.64 1139.96 1629.79 Z" fill="#000000" fill-rule="nonzero" fill-opacity="1" /><path clip-path="url(#clip880)" d="M1157.82 1604.35 L1157.82 1614.48 L1169.88 1614.48 L1169.88 1619.03 L1157.82 1619.03 L1157.82 1638.38 Q1157.82 1642.74 1159 1643.98 Q1160.21 1645.22 1163.87 1645.22 L1169.88 1645.22 L1169.88 1650.12 L1163.87 1650.12 Q1157.09 1650.12 1154.51 1647.61 Q1151.93 1645.06 1151.93 1638.38 L1151.93 1619.03 L1147.64 1619.03 L1147.64 1614.48 L1151.93 1614.48 L1151.93 1604.35 L1157.82 1604.35 Z" fill="#000000" fill-rule="nonzero" fill-opacity="1" /><path clip-path="url(#clip880)" d="M1177.59 1614.48 L1183.44 1614.48 L1183.44 1650.12 L1177.59 1650.12 L1177.59 1614.48 M1177.59 1600.6 L1183.44 1600.6 L1183.44 1608.01 L1177.59 1608.01 L1177.59 1600.6 Z" fill="#000000" fill-rule="nonzero" fill-opacity="1" /><path clip-path="url(#clip880)" d="M1209.51 1618.58 Q1204.8 1618.58 1202.06 1622.27 Q1199.33 1625.93 1199.33 1632.33 Q1199.33 1638.73 1202.03 1642.42 Q1204.77 1646.08 1209.51 1646.08 Q1214.19 1646.08 1216.93 1642.39 Q1219.66 1638.7 1219.66 1632.33 Q1219.66 1626 1216.93 1622.31 Q1214.19 1618.58 1209.51 1618.58 M1209.51 1613.62 Q1217.15 1613.62 1221.51 1618.58 Q1225.87 1623.55 1225.87 1632.33 Q1225.87 1641.08 1221.51 1646.08 Q1217.15 1651.05 1209.51 1651.05 Q1201.84 1651.05 1197.48 1646.08 Q1193.15 1641.08 1193.15 1632.33 Q1193.15 1623.55 1197.48 1618.58 Q1201.84 1613.62 1209.51 1613.62 Z" fill="#000000" fill-rule="nonzero" fill-opacity="1" /><path clip-path="url(#clip880)" d="M1265.21 1628.61 L1265.21 1650.12 L1259.35 1650.12 L1259.35 1628.8 Q1259.35 1623.74 1257.38 1621.22 Q1255.41 1618.71 1251.46 1618.71 Q1246.72 1618.71 1243.98 1621.73 Q1241.24 1624.76 1241.24 1629.98 L1241.24 1650.12 L1235.36 1650.12 L1235.36 1614.48 L1241.24 1614.48 L1241.24 1620.01 Q1243.34 1616.8 1246.18 1615.21 Q1249.04 1613.62 1252.77 1613.62 Q1258.91 1613.62 1262.06 1617.44 Q1265.21 1621.22 1265.21 1628.61 Z" fill="#000000" fill-rule="nonzero" fill-opacity="1" /><path clip-path="url(#clip880)" d="M1318.27 1619.95 Q1317.28 1619.38 1316.1 1619.12 Q1314.96 1618.84 1313.56 1618.84 Q1308.59 1618.84 1305.92 1622.08 Q1303.28 1625.3 1303.28 1631.35 L1303.28 1650.12 L1297.39 1650.12 L1297.39 1614.48 L1303.28 1614.48 L1303.28 1620.01 Q1305.12 1616.77 1308.08 1615.21 Q1311.04 1613.62 1315.28 1613.62 Q1315.88 1613.62 1316.61 1613.71 Q1317.35 1613.78 1318.24 1613.93 L1318.27 1619.95 Z" fill="#000000" fill-rule="nonzero" fill-opacity="1" /><path clip-path="url(#clip880)" d="M1323.81 1636.06 L1323.81 1614.48 L1329.66 1614.48 L1329.66 1635.83 Q1329.66 1640.89 1331.64 1643.44 Q1333.61 1645.95 1337.56 1645.95 Q1342.3 1645.95 1345.04 1642.93 Q1347.81 1639.91 1347.81 1634.69 L1347.81 1614.48 L1353.66 1614.48 L1353.66 1650.12 L1347.81 1650.12 L1347.81 1644.65 Q1345.67 1647.9 1342.84 1649.49 Q1340.04 1651.05 1336.32 1651.05 Q1330.17 1651.05 1326.99 1647.23 Q1323.81 1643.41 1323.81 1636.06 M1338.54 1613.62 L1338.54 1613.62 Z" fill="#000000" fill-rule="nonzero" fill-opacity="1" /><path clip-path="url(#clip880)" d="M1395.36 1628.61 L1395.36 1650.12 L1389.5 1650.12 L1389.5 1628.8 Q1389.5 1623.74 1387.53 1621.22 Q1385.55 1618.71 1381.61 1618.71 Q1376.86 1618.71 1374.13 1621.73 Q1371.39 1624.76 1371.39 1629.98 L1371.39 1650.12 L1365.5 1650.12 L1365.5 1614.48 L1371.39 1614.48 L1371.39 1620.01 Q1373.49 1616.8 1376.32 1615.21 Q1379.19 1613.62 1382.91 1613.62 Q1389.06 1613.62 1392.21 1617.44 Q1395.36 1621.22 1395.36 1628.61 Z" fill="#000000" fill-rule="nonzero" fill-opacity="1" /><path clip-path="url(#clip880)" d="M1427.76 1614.48 L1433.61 1614.48 L1433.61 1650.12 L1427.76 1650.12 L1427.76 1614.48 M1427.76 1600.6 L1433.61 1600.6 L1433.61 1608.01 L1427.76 1608.01 L1427.76 1600.6 Z" fill="#000000" fill-rule="nonzero" fill-opacity="1" /><path clip-path="url(#clip880)" d="M1475.5 1628.61 L1475.5 1650.12 L1469.64 1650.12 L1469.64 1628.8 Q1469.64 1623.74 1467.67 1621.22 Q1465.7 1618.71 1461.75 1618.71 Q1457.01 1618.71 1454.27 1621.73 Q1451.53 1624.76 1451.53 1629.98 L1451.53 1650.12 L1445.65 1650.12 L1445.65 1614.48 L1451.53 1614.48 L1451.53 1620.01 Q1453.64 1616.8 1456.47 1615.21 Q1459.33 1613.62 1463.06 1613.62 Q1469.2 1613.62 1472.35 1617.44 Q1475.5 1621.22 1475.5 1628.61 Z" fill="#000000" fill-rule="nonzero" fill-opacity="1" /><path clip-path="url(#clip880)" d="M1510.64 1619.89 L1510.64 1600.6 L1516.5 1600.6 L1516.5 1650.12 L1510.64 1650.12 L1510.64 1644.78 Q1508.79 1647.96 1505.96 1649.52 Q1503.16 1651.05 1499.21 1651.05 Q1492.75 1651.05 1488.68 1645.89 Q1484.64 1640.73 1484.64 1632.33 Q1484.64 1623.93 1488.68 1618.77 Q1492.75 1613.62 1499.21 1613.62 Q1503.16 1613.62 1505.96 1615.18 Q1508.79 1616.7 1510.64 1619.89 M1490.68 1632.33 Q1490.68 1638.79 1493.33 1642.48 Q1496 1646.15 1500.65 1646.15 Q1505.29 1646.15 1507.97 1642.48 Q1510.64 1638.79 1510.64 1632.33 Q1510.64 1625.87 1507.97 1622.21 Q1505.29 1618.52 1500.65 1618.52 Q1496 1618.52 1493.33 1622.21 Q1490.68 1625.87 1490.68 1632.33 Z" fill="#000000" fill-rule="nonzero" fill-opacity="1" /><path clip-path="url(#clip880)" d="M1559.05 1630.84 L1559.05 1633.7 L1532.12 1633.7 Q1532.51 1639.75 1535.75 1642.93 Q1539.03 1646.08 1544.86 1646.08 Q1548.23 1646.08 1551.38 1645.25 Q1554.56 1644.43 1557.68 1642.77 L1557.68 1648.31 Q1554.53 1649.65 1551.22 1650.35 Q1547.91 1651.05 1544.51 1651.05 Q1535.98 1651.05 1530.98 1646.08 Q1526.01 1641.12 1526.01 1632.65 Q1526.01 1623.9 1530.72 1618.77 Q1535.47 1613.62 1543.49 1613.62 Q1550.68 1613.62 1554.85 1618.26 Q1559.05 1622.88 1559.05 1630.84 M1553.19 1629.12 Q1553.13 1624.31 1550.49 1621.45 Q1547.88 1618.58 1543.55 1618.58 Q1538.65 1618.58 1535.69 1621.35 Q1532.76 1624.12 1532.32 1629.15 L1553.19 1629.12 Z" fill="#000000" fill-rule="nonzero" fill-opacity="1" /><path clip-path="url(#clip880)" d="M1597.15 1614.48 L1584.26 1631.82 L1597.82 1650.12 L1590.91 1650.12 L1580.54 1636.12 L1570.16 1650.12 L1563.25 1650.12 L1577.1 1631.47 L1564.43 1614.48 L1571.34 1614.48 L1580.79 1627.18 L1590.24 1614.48 L1597.15 1614.48 Z" fill="#000000" fill-rule="nonzero" fill-opacity="1" /><polyline clip-path="url(#clip882)" style="stroke:#000000; stroke-linecap:round; stroke-linejoin:round; stroke-width:2; stroke-opacity:0.1; fill:none" points="102.74,1024.42 2352.76,1024.42 "/>
<polyline clip-path="url(#clip882)" style="stroke:#000000; stroke-linecap:round; stroke-linejoin:round; stroke-width:2; stroke-opacity:0.1; fill:none" points="102.74,420.006 2352.76,420.006 "/>
<polyline clip-path="url(#clip880)" style="stroke:#000000; stroke-linecap:round; stroke-linejoin:round; stroke-width:4; stroke-opacity:1; fill:none" points="102.74,1505.26 102.74,47.2441 "/>
<polyline clip-path="url(#clip880)" style="stroke:#000000; stroke-linecap:round; stroke-linejoin:round; stroke-width:4; stroke-opacity:1; fill:none" points="102.74,1024.42 121.638,1024.42 "/>
<polyline clip-path="url(#clip880)" style="stroke:#000000; stroke-linecap:round; stroke-linejoin:round; stroke-width:4; stroke-opacity:1; fill:none" points="102.74,420.006 121.638,420.006 "/>
<path clip-path="url(#clip880)" d="M-64.9403 1044.22 L-57.3014 1044.22 L-57.3014 1017.85 L-65.6116 1019.52 L-65.6116 1015.26 L-57.3477 1013.59 L-52.6718 1013.59 L-52.6718 1044.22 L-45.033 1044.22 L-45.033 1048.15 L-64.9403 1048.15 L-64.9403 1044.22 Z" fill="#000000" fill-rule="nonzero" fill-opacity="1" /><path clip-path="url(#clip880)" d="M-25.5886 1016.67 Q-29.1997 1016.67 -31.0284 1020.23 Q-32.834 1023.78 -32.834 1030.9 Q-32.834 1038.01 -31.0284 1041.58 Q-29.1997 1045.12 -25.5886 1045.12 Q-21.9544 1045.12 -20.1488 1041.58 Q-18.3202 1038.01 -18.3202 1030.9 Q-18.3202 1023.78 -20.1488 1020.23 Q-21.9544 1016.67 -25.5886 1016.67 M-25.5886 1012.97 Q-19.7785 1012.97 -16.7229 1017.57 Q-13.6442 1022.16 -13.6442 1030.9 Q-13.6442 1039.63 -16.7229 1044.24 Q-19.7785 1048.82 -25.5886 1048.82 Q-31.3988 1048.82 -34.4775 1044.24 Q-37.533 1039.63 -37.533 1030.9 Q-37.533 1022.16 -34.4775 1017.57 Q-31.3988 1012.97 -25.5886 1012.97 Z" fill="#000000" fill-rule="nonzero" fill-opacity="1" /><path clip-path="url(#clip880)" d="M-9.07396 1017.54 L4.18552 1017.54 L4.18552 1020.74 L-13.6442 1020.74 L-13.6442 1017.54 Q-11.4814 1015.3 -7.75742 1011.54 Q-4.01467 1007.76 -3.05548 1006.67 Q-1.23112 1004.62 -0.516427 1003.21 Q0.217076 1001.78 0.217076 1000.41 Q0.217076 998.171 -1.36278 996.76 Q-2.92382 995.349 -5.44406 995.349 Q-7.2308 995.349 -9.22442 995.97 Q-11.1992 996.591 -13.4562 997.851 L-13.4562 994.014 Q-11.1616 993.092 -9.168 992.622 Q-7.17438 992.152 -5.51929 992.152 Q-1.15589 992.152 1.43958 994.334 Q4.03505 996.515 4.03505 1000.16 Q4.03505 1001.89 3.37678 1003.46 Q2.73732 1005 1.02581 1007.1 Q0.555616 1007.65 -1.96462 1010.26 Q-4.48487 1012.86 -9.07396 1017.54 Z" fill="#000000" fill-rule="nonzero" fill-opacity="1" /><path clip-path="url(#clip880)" d="M12.16 1015.96 L16.1284 1015.96 L16.1284 1020.74 L12.16 1020.74 L12.16 1015.96 Z" fill="#000000" fill-rule="nonzero" fill-opacity="1" /><path clip-path="url(#clip880)" d="M27.6764 1017.54 L40.9359 1017.54 L40.9359 1020.74 L23.1061 1020.74 L23.1061 1017.54 Q25.269 1015.3 28.993 1011.54 Q32.7357 1007.76 33.6949 1006.67 Q35.5193 1004.62 36.234 1003.21 Q36.9675 1001.78 36.9675 1000.41 Q36.9675 998.171 35.3876 996.76 Q33.8266 995.349 31.3063 995.349 Q29.5196 995.349 27.526 995.97 Q25.5511 996.591 23.2942 997.851 L23.2942 994.014 Q25.5888 993.092 27.5824 992.622 Q29.576 992.152 31.2311 992.152 Q35.5945 992.152 38.19 994.334 Q40.7854 996.515 40.7854 1000.16 Q40.7854 1001.89 40.1272 1003.46 Q39.4877 1005 37.7762 1007.1 Q37.306 1007.65 34.7858 1010.26 Q32.2655 1012.86 27.6764 1017.54 Z" fill="#000000" fill-rule="nonzero" fill-opacity="1" /><path clip-path="url(#clip880)" d="M57.0353 995.161 Q54.1013 995.161 52.6155 998.058 Q51.1485 1000.94 51.1485 1006.73 Q51.1485 1012.5 52.6155 1015.4 Q54.1013 1018.28 57.0353 1018.28 Q59.9882 1018.28 61.4552 1015.4 Q62.941 1012.5 62.941 1006.73 Q62.941 1000.94 61.4552 998.058 Q59.9882 995.161 57.0353 995.161 M57.0353 992.152 Q61.7561 992.152 64.2387 995.895 Q66.7402 999.619 66.7402 1006.73 Q66.7402 1013.82 64.2387 1017.56 Q61.7561 1021.29 57.0353 1021.29 Q52.3146 1021.29 49.8132 1017.56 Q47.3305 1013.82 47.3305 1006.73 Q47.3305 999.619 49.8132 995.895 Q52.3146 992.152 57.0353 992.152 Z" fill="#000000" fill-rule="nonzero" fill-opacity="1" /><path clip-path="url(#clip880)" d="M-64.1315 439.799 L-56.4927 439.799 L-56.4927 413.433 L-64.8028 415.1 L-64.8028 410.841 L-56.539 409.174 L-51.8631 409.174 L-51.8631 439.799 L-44.2242 439.799 L-44.2242 443.734 L-64.1315 443.734 L-64.1315 439.799 Z" fill="#000000" fill-rule="nonzero" fill-opacity="1" /><path clip-path="url(#clip880)" d="M-24.7799 412.253 Q-28.391 412.253 -30.2197 415.817 Q-32.0252 419.359 -32.0252 426.489 Q-32.0252 433.595 -30.2197 437.16 Q-28.391 440.701 -24.7799 440.701 Q-21.1457 440.701 -19.3401 437.16 Q-17.5114 433.595 -17.5114 426.489 Q-17.5114 419.359 -19.3401 415.817 Q-21.1457 412.253 -24.7799 412.253 M-24.7799 408.549 Q-18.9697 408.549 -15.9142 413.155 Q-12.8355 417.739 -12.8355 426.489 Q-12.8355 435.215 -15.9142 439.822 Q-18.9697 444.405 -24.7799 444.405 Q-30.5901 444.405 -33.6687 439.822 Q-36.7243 435.215 -36.7243 426.489 Q-36.7243 417.739 -33.6687 413.155 Q-30.5901 408.549 -24.7799 408.549 Z" fill="#000000" fill-rule="nonzero" fill-opacity="1" /><path clip-path="url(#clip880)" d="M-8.26523 413.126 L4.99425 413.126 L4.99425 416.323 L-12.8355 416.323 L-12.8355 413.126 Q-10.6726 410.888 -6.94868 407.126 Q-3.20594 403.346 -2.24674 402.255 Q-0.422388 400.205 0.292308 398.795 Q1.02581 397.365 1.02581 395.992 Q1.02581 393.754 -0.554042 392.344 Q-2.11509 390.933 -4.63533 390.933 Q-6.42207 390.933 -8.41569 391.554 Q-10.3905 392.174 -12.6474 393.434 L-12.6474 389.598 Q-10.3529 388.676 -8.35927 388.206 Q-6.36564 387.736 -4.71056 387.736 Q-0.347157 387.736 2.24832 389.917 Q4.84379 392.099 4.84379 395.748 Q4.84379 397.478 4.18552 399.039 Q3.54605 400.581 1.83454 402.688 Q1.36435 403.233 -1.15589 405.848 Q-3.67613 408.443 -8.26523 413.126 Z" fill="#000000" fill-rule="nonzero" fill-opacity="1" /><path clip-path="url(#clip880)" d="M12.9687 411.546 L16.9372 411.546 L16.9372 416.323 L12.9687 416.323 L12.9687 411.546 Z" fill="#000000" fill-rule="nonzero" fill-opacity="1" /><path clip-path="url(#clip880)" d="M28.4852 413.126 L41.7446 413.126 L41.7446 416.323 L23.9149 416.323 L23.9149 413.126 Q26.0778 410.888 29.8017 407.126 Q33.5444 403.346 34.5036 402.255 Q36.328 400.205 37.0427 398.795 Q37.7762 397.365 37.7762 395.992 Q37.7762 393.754 36.1963 392.344 Q34.6353 390.933 32.1151 390.933 Q30.3283 390.933 28.3347 391.554 Q26.3599 392.174 24.1029 393.434 L24.1029 389.598 Q26.3975 388.676 28.3911 388.206 Q30.3847 387.736 32.0398 387.736 Q36.4032 387.736 38.9987 389.917 Q41.5942 392.099 41.5942 395.748 Q41.5942 397.478 40.9359 399.039 Q40.2964 400.581 38.5849 402.688 Q38.1147 403.233 35.5945 405.848 Q33.0742 408.443 28.4852 413.126 Z" fill="#000000" fill-rule="nonzero" fill-opacity="1" /><path clip-path="url(#clip880)" d="M49.7567 388.243 L64.6713 388.243 L64.6713 391.441 L53.2362 391.441 L53.2362 398.324 Q54.0637 398.042 54.8913 397.911 Q55.7188 397.76 56.5463 397.76 Q61.2483 397.76 63.9942 400.337 Q66.7402 402.914 66.7402 407.315 Q66.7402 411.847 63.919 414.367 Q61.0978 416.869 55.9633 416.869 Q54.1954 416.869 52.3522 416.568 Q50.5279 416.267 48.5719 415.665 L48.5719 411.847 Q50.2646 412.769 52.0701 413.22 Q53.8756 413.672 55.8881 413.672 Q59.1418 413.672 61.0414 411.96 Q62.941 410.249 62.941 407.315 Q62.941 404.381 61.0414 402.669 Q59.1418 400.958 55.8881 400.958 Q54.3646 400.958 52.8412 401.296 Q51.3366 401.635 49.7567 402.349 L49.7567 388.243 Z" fill="#000000" fill-rule="nonzero" fill-opacity="1" /><path clip-path="url(#clip880)" d="M-138.561 1095.64 L-121.151 1095.64 L-121.151 1085.32 Q-121.151 1080.13 -123.284 1077.65 Q-125.448 1075.14 -129.872 1075.14 Q-134.328 1075.14 -136.429 1077.65 Q-138.561 1080.13 -138.561 1085.32 L-138.561 1095.64 M-158.104 1095.64 L-143.781 1095.64 L-143.781 1086.12 Q-143.781 1081.41 -145.532 1079.12 Q-147.314 1076.79 -150.943 1076.79 Q-154.539 1076.79 -156.322 1079.12 Q-158.104 1081.41 -158.104 1086.12 L-158.104 1095.64 M-163.388 1102.06 L-163.388 1085.64 Q-163.388 1078.29 -160.332 1074.31 Q-157.276 1070.33 -151.643 1070.33 Q-147.282 1070.33 -144.704 1072.37 Q-142.126 1074.41 -141.49 1078.35 Q-140.471 1073.61 -137.225 1071 Q-134.01 1068.36 -129.172 1068.36 Q-122.806 1068.36 -119.337 1072.69 Q-115.868 1077.02 -115.868 1085 L-115.868 1102.06 L-163.388 1102.06 Z" fill="#000000" fill-rule="nonzero" fill-opacity="1" /><path clip-path="url(#clip880)" d="M-135.156 1027.11 L-132.291 1027.11 L-132.291 1054.04 Q-126.244 1053.65 -123.061 1050.41 Q-119.91 1047.13 -119.91 1041.3 Q-119.91 1037.93 -120.737 1034.78 Q-121.565 1031.6 -123.22 1028.48 L-117.682 1028.48 Q-116.345 1031.63 -115.645 1034.94 Q-114.945 1038.25 -114.945 1041.65 Q-114.945 1050.18 -119.91 1055.18 Q-124.875 1060.15 -133.341 1060.15 Q-142.094 1060.15 -147.219 1055.44 Q-152.375 1050.69 -152.375 1042.67 Q-152.375 1035.48 -147.728 1031.31 Q-143.113 1027.11 -135.156 1027.11 M-136.874 1032.97 Q-141.681 1033.03 -144.545 1035.67 Q-147.41 1038.28 -147.41 1042.61 Q-147.41 1047.51 -144.641 1050.47 Q-141.871 1053.4 -136.843 1053.84 L-136.874 1032.97 Z" fill="#000000" fill-rule="nonzero" fill-opacity="1" /><path clip-path="url(#clip880)" d="M-150.465 994.771 L-144.927 994.771 Q-146.2 997.253 -146.837 999.927 Q-147.473 1002.6 -147.473 1005.47 Q-147.473 1009.83 -146.136 1012.02 Q-144.8 1014.19 -142.126 1014.19 Q-140.089 1014.19 -138.911 1012.63 Q-137.766 1011.07 -136.715 1006.36 L-136.27 1004.35 Q-134.933 998.113 -132.482 995.503 Q-130.063 992.861 -125.703 992.861 Q-120.737 992.861 -117.841 996.808 Q-114.945 1000.72 -114.945 1007.6 Q-114.945 1010.46 -115.517 1013.58 Q-116.059 1016.67 -117.173 1020.11 L-123.22 1020.11 Q-121.533 1016.86 -120.674 1013.71 Q-119.846 1010.56 -119.846 1007.47 Q-119.846 1003.33 -121.247 1001.1 Q-122.679 998.877 -125.257 998.877 Q-127.644 998.877 -128.917 1000.5 Q-130.19 1002.09 -131.368 1007.53 L-131.845 1009.57 Q-132.991 1015.01 -135.347 1017.43 Q-137.734 1019.85 -141.871 1019.85 Q-146.9 1019.85 -149.638 1016.29 Q-152.375 1012.72 -152.375 1006.17 Q-152.375 1002.92 -151.897 1000.05 Q-151.42 997.19 -150.465 994.771 Z" fill="#000000" fill-rule="nonzero" fill-opacity="1" /><path clip-path="url(#clip880)" d="M-161.637 977.742 L-151.516 977.742 L-151.516 965.679 L-146.964 965.679 L-146.964 977.742 L-127.612 977.742 Q-123.252 977.742 -122.01 976.565 Q-120.769 975.355 -120.769 971.695 L-120.769 965.679 L-115.868 965.679 L-115.868 971.695 Q-115.868 978.475 -118.382 981.053 Q-120.928 983.631 -127.612 983.631 L-146.964 983.631 L-146.964 987.928 L-151.516 987.928 L-151.516 983.631 L-161.637 983.631 L-161.637 977.742 Z" fill="#000000" fill-rule="nonzero" fill-opacity="1" /><path clip-path="url(#clip880)" d="M-147.41 923.443 Q-147.41 928.154 -143.718 930.891 Q-140.057 933.628 -133.66 933.628 Q-127.262 933.628 -123.57 930.923 Q-119.91 928.185 -119.91 923.443 Q-119.91 918.764 -123.602 916.027 Q-127.294 913.29 -133.66 913.29 Q-139.994 913.29 -143.686 916.027 Q-147.41 918.764 -147.41 923.443 M-152.375 923.443 Q-152.375 915.804 -147.41 911.444 Q-142.444 907.083 -133.66 907.083 Q-124.907 907.083 -119.91 911.444 Q-114.945 915.804 -114.945 923.443 Q-114.945 931.114 -119.91 935.474 Q-124.907 939.803 -133.66 939.803 Q-142.444 939.803 -147.41 935.474 Q-152.375 931.114 -152.375 923.443 Z" fill="#000000" fill-rule="nonzero" fill-opacity="1" /><path clip-path="url(#clip880)" d="M-133.66 871.785 Q-140.121 871.785 -143.781 874.459 Q-147.473 877.101 -147.473 881.748 Q-147.473 886.395 -143.781 889.068 Q-140.121 891.71 -133.66 891.71 Q-127.199 891.71 -123.506 889.068 Q-119.846 886.395 -119.846 881.748 Q-119.846 877.101 -123.506 874.459 Q-127.199 871.785 -133.66 871.785 M-146.105 891.71 Q-149.288 889.864 -150.815 887.063 Q-152.375 884.23 -152.375 880.315 Q-152.375 873.822 -147.219 869.78 Q-142.062 865.706 -133.66 865.706 Q-125.257 865.706 -120.101 869.78 Q-114.945 873.822 -114.945 880.315 Q-114.945 884.23 -116.472 887.063 Q-118.032 889.864 -121.215 891.71 L-115.868 891.71 L-115.868 897.598 L-165.393 897.598 L-165.393 891.71 L-146.105 891.71 Z" fill="#000000" fill-rule="nonzero" fill-opacity="1" /><path clip-path="url(#clip880)" d="M-151.516 855.998 L-151.516 850.142 L-115.231 850.142 Q-108.42 850.142 -105.364 852.752 Q-102.309 855.33 -102.309 861.091 L-102.309 863.319 L-107.274 863.319 L-107.274 861.759 Q-107.274 858.417 -108.833 857.208 Q-110.361 855.998 -115.231 855.998 L-151.516 855.998 M-165.393 855.998 L-165.393 850.142 L-157.977 850.142 L-157.977 855.998 L-165.393 855.998 Z" fill="#000000" fill-rule="nonzero" fill-opacity="1" /><path clip-path="url(#clip880)" d="M-135.156 807.396 L-132.291 807.396 L-132.291 834.323 Q-126.244 833.941 -123.061 830.695 Q-119.91 827.416 -119.91 821.592 Q-119.91 818.218 -120.737 815.067 Q-121.565 811.884 -123.22 808.765 L-117.682 808.765 Q-116.345 811.916 -115.645 815.226 Q-114.945 818.536 -114.945 821.942 Q-114.945 830.472 -119.91 835.469 Q-124.875 840.434 -133.341 840.434 Q-142.094 840.434 -147.219 835.724 Q-152.375 830.981 -152.375 822.96 Q-152.375 815.767 -147.728 811.598 Q-143.113 807.396 -135.156 807.396 M-136.874 813.253 Q-141.681 813.316 -144.545 815.958 Q-147.41 818.568 -147.41 822.897 Q-147.41 827.798 -144.641 830.758 Q-141.871 833.687 -136.843 834.132 L-136.874 813.253 Z" fill="#000000" fill-rule="nonzero" fill-opacity="1" /><path clip-path="url(#clip880)" d="M-150.147 772.13 L-144.672 772.13 Q-146.041 774.613 -146.709 777.127 Q-147.41 779.61 -147.41 782.156 Q-147.41 787.853 -143.781 791.004 Q-140.185 794.156 -133.66 794.156 Q-127.135 794.156 -123.506 791.004 Q-119.91 787.853 -119.91 782.156 Q-119.91 779.61 -120.578 777.127 Q-121.278 774.613 -122.647 772.13 L-117.236 772.13 Q-116.09 774.581 -115.517 777.223 Q-114.945 779.833 -114.945 782.793 Q-114.945 790.845 -120.005 795.588 Q-125.066 800.33 -133.66 800.33 Q-142.381 800.33 -147.378 795.556 Q-152.375 790.75 -152.375 782.411 Q-152.375 779.705 -151.802 777.127 Q-151.261 774.549 -150.147 772.13 Z" fill="#000000" fill-rule="nonzero" fill-opacity="1" /><path clip-path="url(#clip880)" d="M-161.637 756.152 L-151.516 756.152 L-151.516 744.089 L-146.964 744.089 L-146.964 756.152 L-127.612 756.152 Q-123.252 756.152 -122.01 754.975 Q-120.769 753.765 -120.769 750.105 L-120.769 744.089 L-115.868 744.089 L-115.868 750.105 Q-115.868 756.884 -118.382 759.462 Q-120.928 762.041 -127.612 762.041 L-146.964 762.041 L-146.964 766.337 L-151.516 766.337 L-151.516 762.041 L-161.637 762.041 L-161.637 756.152 Z" fill="#000000" fill-rule="nonzero" fill-opacity="1" /><path clip-path="url(#clip880)" d="M-151.516 736.387 L-151.516 730.53 L-115.868 730.53 L-115.868 736.387 L-151.516 736.387 M-165.393 736.387 L-165.393 730.53 L-157.977 730.53 L-157.977 736.387 L-165.393 736.387 Z" fill="#000000" fill-rule="nonzero" fill-opacity="1" /><path clip-path="url(#clip880)" d="M-151.516 722.478 L-151.516 716.271 L-121.597 705.131 L-151.516 693.991 L-151.516 687.785 L-115.868 701.153 L-115.868 709.11 L-151.516 722.478 Z" fill="#000000" fill-rule="nonzero" fill-opacity="1" /><path clip-path="url(#clip880)" d="M-135.156 649.208 L-132.291 649.208 L-132.291 676.135 Q-126.244 675.753 -123.061 672.507 Q-119.91 669.229 -119.91 663.404 Q-119.91 660.03 -120.737 656.879 Q-121.565 653.696 -123.22 650.577 L-117.682 650.577 Q-116.345 653.728 -115.645 657.038 Q-114.945 660.348 -114.945 663.754 Q-114.945 672.284 -119.91 677.281 Q-124.875 682.246 -133.341 682.246 Q-142.094 682.246 -147.219 677.536 Q-152.375 672.793 -152.375 664.773 Q-152.375 657.579 -147.728 653.41 Q-143.113 649.208 -135.156 649.208 M-136.874 655.065 Q-141.681 655.128 -144.545 657.77 Q-147.41 660.38 -147.41 664.709 Q-147.41 669.61 -144.641 672.571 Q-141.871 675.499 -136.843 675.944 L-136.874 655.065 Z" fill="#000000" fill-rule="nonzero" fill-opacity="1" /><path clip-path="url(#clip880)" d="M-151.516 623.077 L-151.516 616.871 L-121.597 605.731 L-151.516 594.591 L-151.516 588.384 L-115.868 601.752 L-115.868 609.709 L-151.516 623.077 Z" fill="#000000" fill-rule="nonzero" fill-opacity="1" /><path clip-path="url(#clip880)" d="M-133.787 564.099 Q-133.787 571.197 -132.164 573.934 Q-130.541 576.671 -126.626 576.671 Q-123.506 576.671 -121.66 574.634 Q-119.846 572.565 -119.846 569.032 Q-119.846 564.163 -123.284 561.234 Q-126.753 558.274 -132.482 558.274 L-133.787 558.274 L-133.787 564.099 M-136.206 552.418 L-115.868 552.418 L-115.868 558.274 L-121.278 558.274 Q-118.032 560.279 -116.472 563.271 Q-114.945 566.263 -114.945 570.592 Q-114.945 576.066 -118 579.313 Q-121.087 582.528 -126.244 582.528 Q-132.259 582.528 -135.315 578.517 Q-138.37 574.475 -138.37 566.486 L-138.37 558.274 L-138.943 558.274 Q-142.985 558.274 -145.182 560.948 Q-147.41 563.59 -147.41 568.396 Q-147.41 571.451 -146.678 574.348 Q-145.946 577.244 -144.481 579.918 L-149.892 579.918 Q-151.134 576.703 -151.738 573.679 Q-152.375 570.656 -152.375 567.791 Q-152.375 560.057 -148.364 556.237 Q-144.354 552.418 -136.206 552.418 Z" fill="#000000" fill-rule="nonzero" fill-opacity="1" /><path clip-path="url(#clip880)" d="M-165.393 540.355 L-165.393 534.498 L-115.868 534.498 L-115.868 540.355 L-165.393 540.355 Z" fill="#000000" fill-rule="nonzero" fill-opacity="1" /><path clip-path="url(#clip880)" d="M-129.936 522.849 L-151.516 522.849 L-151.516 516.993 L-130.159 516.993 Q-125.098 516.993 -122.552 515.019 Q-120.037 513.046 -120.037 509.099 Q-120.037 504.357 -123.061 501.619 Q-126.085 498.85 -131.304 498.85 L-151.516 498.85 L-151.516 492.994 L-115.868 492.994 L-115.868 498.85 L-121.342 498.85 Q-118.096 500.983 -116.504 503.816 Q-114.945 506.617 -114.945 510.34 Q-114.945 516.483 -118.764 519.666 Q-122.583 522.849 -129.936 522.849 M-152.375 508.112 L-152.375 508.112 Z" fill="#000000" fill-rule="nonzero" fill-opacity="1" /><path clip-path="url(#clip880)" d="M-135.156 450.439 L-132.291 450.439 L-132.291 477.366 Q-126.244 476.984 -123.061 473.738 Q-119.91 470.459 -119.91 464.635 Q-119.91 461.261 -120.737 458.11 Q-121.565 454.927 -123.22 451.808 L-117.682 451.808 Q-116.345 454.959 -115.645 458.269 Q-114.945 461.579 -114.945 464.985 Q-114.945 473.515 -119.91 478.512 Q-124.875 483.477 -133.341 483.477 Q-142.094 483.477 -147.219 478.767 Q-152.375 474.024 -152.375 466.003 Q-152.375 458.81 -147.728 454.641 Q-143.113 450.439 -135.156 450.439 M-136.874 456.296 Q-141.681 456.359 -144.545 459.001 Q-147.41 461.611 -147.41 465.94 Q-147.41 470.841 -144.641 473.801 Q-141.871 476.73 -136.843 477.175 L-136.874 456.296 Z" fill="#000000" fill-rule="nonzero" fill-opacity="1" /><circle clip-path="url(#clip882)" cx="166.42" cy="1464" r="28.8" fill="#009af9" fill-rule="evenodd" fill-opacity="1" stroke="#000000" stroke-opacity="1" stroke-width="3.2"/>
<circle clip-path="url(#clip882)" cx="209.739" cy="1464" r="28.8" fill="#009af9" fill-rule="evenodd" fill-opacity="1" stroke="#000000" stroke-opacity="1" stroke-width="3.2"/>
<circle clip-path="url(#clip882)" cx="253.059" cy="1400.11" r="28.8" fill="#e26f46" fill-rule="evenodd" fill-opacity="1" stroke="#000000" stroke-opacity="1" stroke-width="3.2"/>
<circle clip-path="url(#clip882)" cx="296.378" cy="1400.11" r="28.8" fill="#e26f46" fill-rule="evenodd" fill-opacity="1" stroke="#000000" stroke-opacity="1" stroke-width="3.2"/>
<circle clip-path="url(#clip882)" cx="339.698" cy="1400.11" r="28.8" fill="#e26f46" fill-rule="evenodd" fill-opacity="1" stroke="#000000" stroke-opacity="1" stroke-width="3.2"/>
<circle clip-path="url(#clip882)" cx="383.017" cy="1400.11" r="28.8" fill="#e26f46" fill-rule="evenodd" fill-opacity="1" stroke="#000000" stroke-opacity="1" stroke-width="3.2"/>
<circle clip-path="url(#clip882)" cx="426.337" cy="1400.11" r="28.8" fill="#e26f46" fill-rule="evenodd" fill-opacity="1" stroke="#000000" stroke-opacity="1" stroke-width="3.2"/>
<circle clip-path="url(#clip882)" cx="469.656" cy="1400.11" r="28.8" fill="#e26f46" fill-rule="evenodd" fill-opacity="1" stroke="#000000" stroke-opacity="1" stroke-width="3.2"/>
<circle clip-path="url(#clip882)" cx="512.976" cy="1400.11" r="28.8" fill="#e26f46" fill-rule="evenodd" fill-opacity="1" stroke="#000000" stroke-opacity="1" stroke-width="3.2"/>
<circle clip-path="url(#clip882)" cx="556.296" cy="1400.11" r="28.8" fill="#e26f46" fill-rule="evenodd" fill-opacity="1" stroke="#000000" stroke-opacity="1" stroke-width="3.2"/>
<circle clip-path="url(#clip882)" cx="599.615" cy="1400.11" r="28.8" fill="#e26f46" fill-rule="evenodd" fill-opacity="1" stroke="#000000" stroke-opacity="1" stroke-width="3.2"/>
<circle clip-path="url(#clip882)" cx="642.935" cy="1400.11" r="28.8" fill="#e26f46" fill-rule="evenodd" fill-opacity="1" stroke="#000000" stroke-opacity="1" stroke-width="3.2"/>
<circle clip-path="url(#clip882)" cx="686.254" cy="1400.11" r="28.8" fill="#e26f46" fill-rule="evenodd" fill-opacity="1" stroke="#000000" stroke-opacity="1" stroke-width="3.2"/>
<circle clip-path="url(#clip882)" cx="729.574" cy="1400.11" r="28.8" fill="#e26f46" fill-rule="evenodd" fill-opacity="1" stroke="#000000" stroke-opacity="1" stroke-width="3.2"/>
<circle clip-path="url(#clip882)" cx="772.893" cy="1400.11" r="28.8" fill="#e26f46" fill-rule="evenodd" fill-opacity="1" stroke="#000000" stroke-opacity="1" stroke-width="3.2"/>
<circle clip-path="url(#clip882)" cx="816.213" cy="1400.11" r="28.8" fill="#e26f46" fill-rule="evenodd" fill-opacity="1" stroke="#000000" stroke-opacity="1" stroke-width="3.2"/>
<circle clip-path="url(#clip882)" cx="859.532" cy="1400.11" r="28.8" fill="#e26f46" fill-rule="evenodd" fill-opacity="1" stroke="#000000" stroke-opacity="1" stroke-width="3.2"/>
<circle clip-path="url(#clip882)" cx="902.852" cy="1400.11" r="28.8" fill="#e26f46" fill-rule="evenodd" fill-opacity="1" stroke="#000000" stroke-opacity="1" stroke-width="3.2"/>
<circle clip-path="url(#clip882)" cx="946.171" cy="1400.11" r="28.8" fill="#e26f46" fill-rule="evenodd" fill-opacity="1" stroke="#000000" stroke-opacity="1" stroke-width="3.2"/>
<circle clip-path="url(#clip882)" cx="989.491" cy="1400.11" r="28.8" fill="#e26f46" fill-rule="evenodd" fill-opacity="1" stroke="#000000" stroke-opacity="1" stroke-width="3.2"/>
<circle clip-path="url(#clip882)" cx="1032.81" cy="1400.11" r="28.8" fill="#e26f46" fill-rule="evenodd" fill-opacity="1" stroke="#000000" stroke-opacity="1" stroke-width="3.2"/>
<circle clip-path="url(#clip882)" cx="1076.13" cy="1400.11" r="28.8" fill="#e26f46" fill-rule="evenodd" fill-opacity="1" stroke="#000000" stroke-opacity="1" stroke-width="3.2"/>
<circle clip-path="url(#clip882)" cx="1119.45" cy="1400.11" r="28.8" fill="#e26f46" fill-rule="evenodd" fill-opacity="1" stroke="#000000" stroke-opacity="1" stroke-width="3.2"/>
<circle clip-path="url(#clip882)" cx="1162.77" cy="1400.11" r="28.8" fill="#e26f46" fill-rule="evenodd" fill-opacity="1" stroke="#000000" stroke-opacity="1" stroke-width="3.2"/>
<circle clip-path="url(#clip882)" cx="1206.09" cy="1400.11" r="28.8" fill="#e26f46" fill-rule="evenodd" fill-opacity="1" stroke="#000000" stroke-opacity="1" stroke-width="3.2"/>
<circle clip-path="url(#clip882)" cx="1249.41" cy="1400.11" r="28.8" fill="#e26f46" fill-rule="evenodd" fill-opacity="1" stroke="#000000" stroke-opacity="1" stroke-width="3.2"/>
<circle clip-path="url(#clip882)" cx="1292.73" cy="1330.31" r="28.8" fill="#3da44d" fill-rule="evenodd" fill-opacity="1" stroke="#000000" stroke-opacity="1" stroke-width="3.2"/>
<circle clip-path="url(#clip882)" cx="1336.05" cy="1330.31" r="28.8" fill="#3da44d" fill-rule="evenodd" fill-opacity="1" stroke="#000000" stroke-opacity="1" stroke-width="3.2"/>
<circle clip-path="url(#clip882)" cx="1379.37" cy="1330.31" r="28.8" fill="#3da44d" fill-rule="evenodd" fill-opacity="1" stroke="#000000" stroke-opacity="1" stroke-width="3.2"/>
<circle clip-path="url(#clip882)" cx="1422.69" cy="1330.31" r="28.8" fill="#3da44d" fill-rule="evenodd" fill-opacity="1" stroke="#000000" stroke-opacity="1" stroke-width="3.2"/>
<circle clip-path="url(#clip882)" cx="1466.01" cy="1330.31" r="28.8" fill="#3da44d" fill-rule="evenodd" fill-opacity="1" stroke="#000000" stroke-opacity="1" stroke-width="3.2"/>
<circle clip-path="url(#clip882)" cx="1509.32" cy="1330.31" r="28.8" fill="#3da44d" fill-rule="evenodd" fill-opacity="1" stroke="#000000" stroke-opacity="1" stroke-width="3.2"/>
<circle clip-path="url(#clip882)" cx="1552.64" cy="1330.31" r="28.8" fill="#3da44d" fill-rule="evenodd" fill-opacity="1" stroke="#000000" stroke-opacity="1" stroke-width="3.2"/>
<circle clip-path="url(#clip882)" cx="1595.96" cy="1327.88" r="28.8" fill="#3da44d" fill-rule="evenodd" fill-opacity="1" stroke="#000000" stroke-opacity="1" stroke-width="3.2"/>
<circle clip-path="url(#clip882)" cx="1639.28" cy="1327.88" r="28.8" fill="#3da44d" fill-rule="evenodd" fill-opacity="1" stroke="#000000" stroke-opacity="1" stroke-width="3.2"/>
<circle clip-path="url(#clip882)" cx="1682.6" cy="1327.88" r="28.8" fill="#3da44d" fill-rule="evenodd" fill-opacity="1" stroke="#000000" stroke-opacity="1" stroke-width="3.2"/>
<circle clip-path="url(#clip882)" cx="1725.92" cy="1327.88" r="28.8" fill="#3da44d" fill-rule="evenodd" fill-opacity="1" stroke="#000000" stroke-opacity="1" stroke-width="3.2"/>
<circle clip-path="url(#clip882)" cx="1769.24" cy="1327.88" r="28.8" fill="#3da44d" fill-rule="evenodd" fill-opacity="1" stroke="#000000" stroke-opacity="1" stroke-width="3.2"/>
<circle clip-path="url(#clip882)" cx="1812.56" cy="1327.88" r="28.8" fill="#3da44d" fill-rule="evenodd" fill-opacity="1" stroke="#000000" stroke-opacity="1" stroke-width="3.2"/>
<circle clip-path="url(#clip882)" cx="1855.88" cy="1327.88" r="28.8" fill="#3da44d" fill-rule="evenodd" fill-opacity="1" stroke="#000000" stroke-opacity="1" stroke-width="3.2"/>
<circle clip-path="url(#clip882)" cx="1899.2" cy="1327.88" r="28.8" fill="#3da44d" fill-rule="evenodd" fill-opacity="1" stroke="#000000" stroke-opacity="1" stroke-width="3.2"/>
<circle clip-path="url(#clip882)" cx="1942.52" cy="1327.88" r="28.8" fill="#3da44d" fill-rule="evenodd" fill-opacity="1" stroke="#000000" stroke-opacity="1" stroke-width="3.2"/>
<circle clip-path="url(#clip882)" cx="1985.84" cy="1327.88" r="28.8" fill="#3da44d" fill-rule="evenodd" fill-opacity="1" stroke="#000000" stroke-opacity="1" stroke-width="3.2"/>
<circle clip-path="url(#clip882)" cx="2029.16" cy="1327.88" r="28.8" fill="#3da44d" fill-rule="evenodd" fill-opacity="1" stroke="#000000" stroke-opacity="1" stroke-width="3.2"/>
<circle clip-path="url(#clip882)" cx="2072.48" cy="831.377" r="28.8" fill="#c271d2" fill-rule="evenodd" fill-opacity="1" stroke="#000000" stroke-opacity="1" stroke-width="3.2"/>
<circle clip-path="url(#clip882)" cx="2115.8" cy="621.44" r="28.8" fill="#ac8d18" fill-rule="evenodd" fill-opacity="1" stroke="#000000" stroke-opacity="1" stroke-width="3.2"/>
<circle clip-path="url(#clip882)" cx="2159.12" cy="621.44" r="28.8" fill="#ac8d18" fill-rule="evenodd" fill-opacity="1" stroke="#000000" stroke-opacity="1" stroke-width="3.2"/>
<circle clip-path="url(#clip882)" cx="2202.44" cy="621.44" r="28.8" fill="#ac8d18" fill-rule="evenodd" fill-opacity="1" stroke="#000000" stroke-opacity="1" stroke-width="3.2"/>
<circle clip-path="url(#clip882)" cx="2245.76" cy="619.709" r="28.8" fill="#ac8d18" fill-rule="evenodd" fill-opacity="1" stroke="#000000" stroke-opacity="1" stroke-width="3.2"/>
<circle clip-path="url(#clip882)" cx="2289.08" cy="88.5087" r="28.8" fill="#00a9ad" fill-rule="evenodd" fill-opacity="1" stroke="#000000" stroke-opacity="1" stroke-width="3.2"/>
</svg>
