<?xml version="1.0" encoding="utf-8"?>
<svg xmlns="http://www.w3.org/2000/svg" xmlns:xlink="http://www.w3.org/1999/xlink" width="600" height="400" viewBox="0 0 2400 1600">
<defs>
  <clipPath id="clip820">
    <rect x="0" y="0" width="2400" height="1600"/>
  </clipPath>
</defs>
<path clip-path="url(#clip820)" d="M0 1600 L2400 1600 L2400 0 L0 0  Z" fill="#ffffff" fill-rule="evenodd" fill-opacity="1"/>
<defs>
  <clipPath id="clip821">
    <rect x="480" y="0" width="1681" height="1600"/>
  </clipPath>
</defs>
<path clip-path="url(#clip820)" d="M102.74 1505.26 L2352.76 1505.26 L2352.76 47.2441 L102.74 47.2441  Z" fill="#ffffff" fill-rule="evenodd" fill-opacity="1"/>
<defs>
  <clipPath id="clip822">
    <rect x="102" y="47" width="2251" height="1459"/>
  </clipPath>
</defs>
<polyline clip-path="url(#clip822)" style="stroke:#000000; stroke-linecap:round; stroke-linejoin:round; stroke-width:2; stroke-opacity:0.1; fill:none" points="594.123,1505.26 594.123,47.2441 "/>
<polyline clip-path="url(#clip822)" style="stroke:#000000; stroke-linecap:round; stroke-linejoin:round; stroke-width:2; stroke-opacity:0.1; fill:none" points="1111.37,1505.26 1111.37,47.2441 "/>
<polyline clip-path="url(#clip822)" style="stroke:#000000; stroke-linecap:round; stroke-linejoin:round; stroke-width:2; stroke-opacity:0.1; fill:none" points="1628.61,1505.26 1628.61,47.2441 "/>
<polyline clip-path="url(#clip822)" style="stroke:#000000; stroke-linecap:round; stroke-linejoin:round; stroke-width:2; stroke-opacity:0.1; fill:none" points="2145.86,1505.26 2145.86,47.2441 "/>
<polyline clip-path="url(#clip820)" style="stroke:#000000; stroke-linecap:round; stroke-linejoin:round; stroke-width:4; stroke-opacity:1; fill:none" points="102.74,1505.26 2352.76,1505.26 "/>
<polyline clip-path="url(#clip820)" style="stroke:#000000; stroke-linecap:round; stroke-linejoin:round; stroke-width:4; stroke-opacity:1; fill:none" points="594.123,1505.26 594.123,1486.36 "/>
<polyline clip-path="url(#clip820)" style="stroke:#000000; stroke-linecap:round; stroke-linejoin:round; stroke-width:4; stroke-opacity:1; fill:none" points="1111.37,1505.26 1111.37,1486.36 "/>
<polyline clip-path="url(#clip820)" style="stroke:#000000; stroke-linecap:round; stroke-linejoin:round; stroke-width:4; stroke-opacity:1; fill:none" points="1628.61,1505.26 1628.61,1486.36 "/>
<polyline clip-path="url(#clip820)" style="stroke:#000000; stroke-linecap:round; stroke-linejoin:round; stroke-width:4; stroke-opacity:1; fill:none" points="2145.86,1505.26 2145.86,1486.36 "/>
<path clip-path="url(#clip820)" d="M572.896 1563.72 L589.216 1563.72 L589.216 1567.66 L567.271 1567.66 L567.271 1563.72 Q569.933 1560.97 574.517 1556.34 Q579.123 1551.69 580.304 1550.35 Q582.549 1547.82 583.429 1546.09 Q584.331 1544.33 584.331 1542.64 Q584.331 1539.88 582.387 1538.15 Q580.466 1536.41 577.364 1536.41 Q575.165 1536.41 572.711 1537.17 Q570.28 1537.94 567.503 1539.49 L567.503 1534.77 Q570.327 1533.63 572.78 1533.05 Q575.234 1532.47 577.271 1532.47 Q582.641 1532.47 585.836 1535.16 Q589.03 1537.85 589.03 1542.34 Q589.03 1544.47 588.22 1546.39 Q587.433 1548.28 585.327 1550.88 Q584.748 1551.55 581.646 1554.77 Q578.544 1557.96 572.896 1563.72 Z" fill="#000000" fill-rule="nonzero" fill-opacity="1" /><path clip-path="url(#clip820)" d="M609.03 1536.18 Q605.419 1536.18 603.59 1539.74 Q601.785 1543.28 601.785 1550.41 Q601.785 1557.52 603.59 1561.09 Q605.419 1564.63 609.03 1564.63 Q612.664 1564.63 614.47 1561.09 Q616.299 1557.52 616.299 1550.41 Q616.299 1543.28 614.47 1539.74 Q612.664 1536.18 609.03 1536.18 M609.03 1532.47 Q614.84 1532.47 617.896 1537.08 Q620.975 1541.66 620.975 1550.41 Q620.975 1559.14 617.896 1563.75 Q614.84 1568.33 609.03 1568.33 Q603.22 1568.33 600.141 1563.75 Q597.086 1559.14 597.086 1550.41 Q597.086 1541.66 600.141 1537.08 Q603.22 1532.47 609.03 1532.47 Z" fill="#000000" fill-rule="nonzero" fill-opacity="1" /><path clip-path="url(#clip820)" d="M1099.54 1537.17 L1087.73 1555.62 L1099.54 1555.62 L1099.54 1537.17 M1098.31 1533.1 L1104.19 1533.1 L1104.19 1555.62 L1109.12 1555.62 L1109.12 1559.51 L1104.19 1559.51 L1104.19 1567.66 L1099.54 1567.66 L1099.54 1559.51 L1083.94 1559.51 L1083.94 1555 L1098.31 1533.1 Z" fill="#000000" fill-rule="nonzero" fill-opacity="1" /><path clip-path="url(#clip820)" d="M1126.85 1536.18 Q1123.24 1536.18 1121.41 1539.74 Q1119.61 1543.28 1119.61 1550.41 Q1119.61 1557.52 1121.41 1561.09 Q1123.24 1564.63 1126.85 1564.63 Q1130.49 1564.63 1132.29 1561.09 Q1134.12 1557.52 1134.12 1550.41 Q1134.12 1543.28 1132.29 1539.74 Q1130.49 1536.18 1126.85 1536.18 M1126.85 1532.47 Q1132.66 1532.47 1135.72 1537.08 Q1138.8 1541.66 1138.8 1550.41 Q1138.8 1559.14 1135.72 1563.75 Q1132.66 1568.33 1126.85 1568.33 Q1121.04 1568.33 1117.97 1563.75 Q1114.91 1559.14 1114.91 1550.41 Q1114.91 1541.66 1117.97 1537.08 Q1121.04 1532.47 1126.85 1532.47 Z" fill="#000000" fill-rule="nonzero" fill-opacity="1" /><path clip-path="url(#clip820)" d="M1614.02 1548.52 Q1610.87 1548.52 1609.02 1550.67 Q1607.19 1552.82 1607.19 1556.57 Q1607.19 1560.3 1609.02 1562.47 Q1610.87 1564.63 1614.02 1564.63 Q1617.17 1564.63 1618.99 1562.47 Q1620.85 1560.3 1620.85 1556.57 Q1620.85 1552.82 1618.99 1550.67 Q1617.17 1548.52 1614.02 1548.52 M1623.3 1533.86 L1623.3 1538.12 Q1621.54 1537.29 1619.74 1536.85 Q1617.95 1536.41 1616.19 1536.41 Q1611.56 1536.41 1609.11 1539.53 Q1606.68 1542.66 1606.33 1548.98 Q1607.7 1546.97 1609.76 1545.9 Q1611.82 1544.81 1614.3 1544.81 Q1619.5 1544.81 1622.51 1547.98 Q1625.55 1551.13 1625.55 1556.57 Q1625.55 1561.9 1622.4 1565.11 Q1619.25 1568.33 1614.02 1568.33 Q1608.02 1568.33 1604.85 1563.75 Q1601.68 1559.14 1601.68 1550.41 Q1601.68 1542.22 1605.57 1537.36 Q1609.46 1532.47 1616.01 1532.47 Q1617.77 1532.47 1619.55 1532.82 Q1621.36 1533.17 1623.3 1533.86 Z" fill="#000000" fill-rule="nonzero" fill-opacity="1" /><path clip-path="url(#clip820)" d="M1643.6 1536.18 Q1639.99 1536.18 1638.16 1539.74 Q1636.36 1543.28 1636.36 1550.41 Q1636.36 1557.52 1638.16 1561.09 Q1639.99 1564.63 1643.6 1564.63 Q1647.24 1564.63 1649.04 1561.09 Q1650.87 1557.52 1650.87 1550.41 Q1650.87 1543.28 1649.04 1539.74 Q1647.24 1536.18 1643.6 1536.18 M1643.6 1532.47 Q1649.41 1532.47 1652.47 1537.08 Q1655.55 1541.66 1655.55 1550.41 Q1655.55 1559.14 1652.47 1563.75 Q1649.41 1568.33 1643.6 1568.33 Q1637.79 1568.33 1634.71 1563.75 Q1631.66 1559.14 1631.66 1550.41 Q1631.66 1541.66 1634.71 1537.08 Q1637.79 1532.47 1643.6 1532.47 Z" fill="#000000" fill-rule="nonzero" fill-opacity="1" /><path clip-path="url(#clip820)" d="M2130.73 1551.25 Q2127.4 1551.25 2125.48 1553.03 Q2123.58 1554.81 2123.58 1557.94 Q2123.58 1561.06 2125.48 1562.85 Q2127.4 1564.63 2130.73 1564.63 Q2134.06 1564.63 2135.99 1562.85 Q2137.91 1561.04 2137.91 1557.94 Q2137.91 1554.81 2135.99 1553.03 Q2134.09 1551.25 2130.73 1551.25 M2126.05 1549.26 Q2123.05 1548.52 2121.36 1546.46 Q2119.69 1544.4 2119.69 1541.43 Q2119.69 1537.29 2122.63 1534.88 Q2125.59 1532.47 2130.73 1532.47 Q2135.89 1532.47 2138.83 1534.88 Q2141.77 1537.29 2141.77 1541.43 Q2141.77 1544.4 2140.08 1546.46 Q2138.42 1548.52 2135.43 1549.26 Q2138.81 1550.04 2140.68 1552.34 Q2142.58 1554.63 2142.58 1557.94 Q2142.58 1562.96 2139.5 1565.65 Q2136.45 1568.33 2130.73 1568.33 Q2125.01 1568.33 2121.93 1565.65 Q2118.88 1562.96 2118.88 1557.94 Q2118.88 1554.63 2120.78 1552.34 Q2122.68 1550.04 2126.05 1549.26 M2124.34 1541.87 Q2124.34 1544.56 2126.01 1546.06 Q2127.7 1547.57 2130.73 1547.57 Q2133.74 1547.57 2135.43 1546.06 Q2137.14 1544.56 2137.14 1541.87 Q2137.14 1539.19 2135.43 1537.68 Q2133.74 1536.18 2130.73 1536.18 Q2127.7 1536.18 2126.01 1537.68 Q2124.34 1539.19 2124.34 1541.87 Z" fill="#000000" fill-rule="nonzero" fill-opacity="1" /><path clip-path="url(#clip820)" d="M2160.89 1536.18 Q2157.28 1536.18 2155.45 1539.74 Q2153.65 1543.28 2153.65 1550.41 Q2153.65 1557.52 2155.45 1561.09 Q2157.28 1564.63 2160.89 1564.63 Q2164.53 1564.63 2166.33 1561.09 Q2168.16 1557.52 2168.16 1550.41 Q2168.16 1543.28 2166.33 1539.74 Q2164.53 1536.18 2160.89 1536.18 M2160.89 1532.47 Q2166.7 1532.47 2169.76 1537.08 Q2172.84 1541.66 2172.84 1550.41 Q2172.84 1559.14 2169.76 1563.75 Q2166.7 1568.33 2160.89 1568.33 Q2155.08 1568.33 2152 1563.75 Q2148.95 1559.14 2148.95 1550.41 Q2148.95 1541.66 2152 1537.08 Q2155.08 1532.47 2160.89 1532.47 Z" fill="#000000" fill-rule="nonzero" fill-opacity="1" /><path clip-path="url(#clip820)" d="M913.298 1602.6 L940.607 1602.6 L940.607 1608.01 L919.727 1608.01 L919.727 1622.02 L938.57 1622.02 L938.57 1627.43 L919.727 1627.43 L919.727 1650.12 L913.298 1650.12 L913.298 1602.6 Z" fill="#000000" fill-rule="nonzero" fill-opacity="1" /><path clip-path="url(#clip820)" d="M946.368 1636.06 L946.368 1614.48 L952.224 1614.48 L952.224 1635.83 Q952.224 1640.89 954.198 1643.44 Q956.171 1645.95 960.118 1645.95 Q964.86 1645.95 967.598 1642.93 Q970.367 1639.91 970.367 1634.69 L970.367 1614.48 L976.223 1614.48 L976.223 1650.12 L970.367 1650.12 L970.367 1644.65 Q968.234 1647.9 965.401 1649.49 Q962.6 1651.05 958.876 1651.05 Q952.734 1651.05 949.551 1647.23 Q946.368 1643.41 946.368 1636.06 M961.104 1613.62 L961.104 1613.62 Z" fill="#000000" fill-rule="nonzero" fill-opacity="1" /><path clip-path="url(#clip820)" d="M1017.92 1628.61 L1017.92 1650.12 L1012.06 1650.12 L1012.06 1628.8 Q1012.06 1623.74 1010.09 1621.22 Q1008.12 1618.71 1004.17 1618.71 Q999.426 1618.71 996.689 1621.73 Q993.952 1624.76 993.952 1629.98 L993.952 1650.12 L988.063 1650.12 L988.063 1614.48 L993.952 1614.48 L993.952 1620.01 Q996.052 1616.8 998.885 1615.21 Q1001.75 1613.62 1005.47 1613.62 Q1011.62 1613.62 1014.77 1617.44 Q1017.92 1621.22 1017.92 1628.61 Z" fill="#000000" fill-rule="nonzero" fill-opacity="1" /><path clip-path="url(#clip820)" d="M1055.25 1615.84 L1055.25 1621.32 Q1052.77 1619.95 1050.26 1619.28 Q1047.77 1618.58 1045.23 1618.58 Q1039.53 1618.58 1036.38 1622.21 Q1033.23 1625.81 1033.23 1632.33 Q1033.23 1638.86 1036.38 1642.48 Q1039.53 1646.08 1045.23 1646.08 Q1047.77 1646.08 1050.26 1645.41 Q1052.77 1644.71 1055.25 1643.34 L1055.25 1648.76 Q1052.8 1649.9 1050.16 1650.47 Q1047.55 1651.05 1044.59 1651.05 Q1036.54 1651.05 1031.8 1645.99 Q1027.05 1640.93 1027.05 1632.33 Q1027.05 1623.61 1031.83 1618.61 Q1036.63 1613.62 1044.97 1613.62 Q1047.68 1613.62 1050.26 1614.19 Q1052.83 1614.73 1055.25 1615.84 Z" fill="#000000" fill-rule="nonzero" fill-opacity="1" /><path clip-path="url(#clip820)" d="M1071.23 1604.35 L1071.23 1614.48 L1083.29 1614.48 L1083.29 1619.03 L1071.23 1619.03 L1071.23 1638.38 Q1071.23 1642.74 1072.41 1643.98 Q1073.62 1645.22 1077.28 1645.22 L1083.29 1645.22 L1083.29 1650.12 L1077.28 1650.12 Q1070.5 1650.12 1067.92 1647.61 Q1065.34 1645.06 1065.34 1638.38 L1065.34 1619.03 L1061.05 1619.03 L1061.05 1614.48 L1065.34 1614.48 L1065.34 1604.35 L1071.23 1604.35 Z" fill="#000000" fill-rule="nonzero" fill-opacity="1" /><path clip-path="url(#clip820)" d="M1091 1614.48 L1096.85 1614.48 L1096.85 1650.12 L1091 1650.12 L1091 1614.48 M1091 1600.6 L1096.85 1600.6 L1096.85 1608.01 L1091 1608.01 L1091 1600.6 Z" fill="#000000" fill-rule="nonzero" fill-opacity="1" /><path clip-path="url(#clip820)" d="M1122.92 1618.58 Q1118.21 1618.58 1115.47 1622.27 Q1112.74 1625.93 1112.74 1632.33 Q1112.74 1638.73 1115.44 1642.42 Q1118.18 1646.08 1122.92 1646.08 Q1127.6 1646.08 1130.34 1642.39 Q1133.07 1638.7 1133.07 1632.33 Q1133.07 1626 1130.34 1622.31 Q1127.6 1618.58 1122.92 1618.58 M1122.92 1613.62 Q1130.56 1613.62 1134.92 1618.58 Q1139.28 1623.55 1139.28 1632.33 Q1139.28 1641.08 1134.92 1646.08 Q1130.56 1651.05 1122.92 1651.05 Q1115.25 1651.05 1110.89 1646.08 Q1106.56 1641.08 1106.56 1632.33 Q1106.56 1623.55 1110.89 1618.58 Q1115.25 1613.62 1122.92 1613.62 Z" fill="#000000" fill-rule="nonzero" fill-opacity="1" /><path clip-path="url(#clip820)" d="M1178.62 1628.61 L1178.62 1650.12 L1172.76 1650.12 L1172.76 1628.8 Q1172.76 1623.74 1170.79 1621.22 Q1168.82 1618.71 1164.87 1618.71 Q1160.13 1618.71 1157.39 1621.73 Q1154.65 1624.76 1154.65 1629.98 L1154.65 1650.12 L1148.77 1650.12 L1148.77 1614.48 L1154.65 1614.48 L1154.65 1620.01 Q1156.75 1616.8 1159.59 1615.21 Q1162.45 1613.62 1166.18 1613.62 Q1172.32 1613.62 1175.47 1617.44 Q1178.62 1621.22 1178.62 1628.61 Z" fill="#000000" fill-rule="nonzero" fill-opacity="1" /><path clip-path="url(#clip820)" d="M1241.51 1630.84 L1241.51 1633.7 L1214.59 1633.7 Q1214.97 1639.75 1218.22 1642.93 Q1221.49 1646.08 1227.32 1646.08 Q1230.69 1646.08 1233.84 1645.25 Q1237.03 1644.43 1240.15 1642.77 L1240.15 1648.31 Q1236.99 1649.65 1233.68 1650.35 Q1230.37 1651.05 1226.97 1651.05 Q1218.44 1651.05 1213.44 1646.08 Q1208.48 1641.12 1208.48 1632.65 Q1208.48 1623.9 1213.19 1618.77 Q1217.93 1613.62 1225.95 1613.62 Q1233.14 1613.62 1237.31 1618.26 Q1241.51 1622.88 1241.51 1630.84 M1235.66 1629.12 Q1235.59 1624.31 1232.95 1621.45 Q1230.34 1618.58 1226.01 1618.58 Q1221.11 1618.58 1218.15 1621.35 Q1215.22 1624.12 1214.78 1629.15 L1235.66 1629.12 Z" fill="#000000" fill-rule="nonzero" fill-opacity="1" /><path clip-path="url(#clip820)" d="M1246.92 1614.48 L1253.13 1614.48 L1264.27 1644.39 L1275.41 1614.48 L1281.62 1614.48 L1268.25 1650.12 L1260.29 1650.12 L1246.92 1614.48 Z" fill="#000000" fill-rule="nonzero" fill-opacity="1" /><path clip-path="url(#clip820)" d="M1305.9 1632.2 Q1298.81 1632.2 1296.07 1633.83 Q1293.33 1635.45 1293.33 1639.37 Q1293.33 1642.48 1295.37 1644.33 Q1297.44 1646.15 1300.97 1646.15 Q1305.84 1646.15 1308.77 1642.71 Q1311.73 1639.24 1311.73 1633.51 L1311.73 1632.2 L1305.9 1632.2 M1317.58 1629.79 L1317.58 1650.12 L1311.73 1650.12 L1311.73 1644.71 Q1309.72 1647.96 1306.73 1649.52 Q1303.74 1651.05 1299.41 1651.05 Q1293.94 1651.05 1290.69 1647.99 Q1287.47 1644.9 1287.47 1639.75 Q1287.47 1633.73 1291.48 1630.68 Q1295.53 1627.62 1303.52 1627.62 L1311.73 1627.62 L1311.73 1627.05 Q1311.73 1623.01 1309.05 1620.81 Q1306.41 1618.58 1301.61 1618.58 Q1298.55 1618.58 1295.65 1619.31 Q1292.76 1620.05 1290.08 1621.51 L1290.08 1616.1 Q1293.3 1614.86 1296.32 1614.25 Q1299.35 1613.62 1302.21 1613.62 Q1309.95 1613.62 1313.76 1617.63 Q1317.58 1621.64 1317.58 1629.79 Z" fill="#000000" fill-rule="nonzero" fill-opacity="1" /><path clip-path="url(#clip820)" d="M1329.65 1600.6 L1335.5 1600.6 L1335.5 1650.12 L1329.65 1650.12 L1329.65 1600.6 Z" fill="#000000" fill-rule="nonzero" fill-opacity="1" /><path clip-path="url(#clip820)" d="M1347.15 1636.06 L1347.15 1614.48 L1353.01 1614.48 L1353.01 1635.83 Q1353.01 1640.89 1354.98 1643.44 Q1356.96 1645.95 1360.9 1645.95 Q1365.65 1645.95 1368.38 1642.93 Q1371.15 1639.91 1371.15 1634.69 L1371.15 1614.48 L1377.01 1614.48 L1377.01 1650.12 L1371.15 1650.12 L1371.15 1644.65 Q1369.02 1647.9 1366.19 1649.49 Q1363.39 1651.05 1359.66 1651.05 Q1353.52 1651.05 1350.34 1647.23 Q1347.15 1643.41 1347.15 1636.06 M1361.89 1613.62 L1361.89 1613.62 Z" fill="#000000" fill-rule="nonzero" fill-opacity="1" /><path clip-path="url(#clip820)" d="M1405.27 1632.2 Q1398.17 1632.2 1395.44 1633.83 Q1392.7 1635.45 1392.7 1639.37 Q1392.7 1642.48 1394.74 1644.33 Q1396.81 1646.15 1400.34 1646.15 Q1405.21 1646.15 1408.14 1642.71 Q1411.1 1639.24 1411.1 1633.51 L1411.1 1632.2 L1405.27 1632.2 M1416.95 1629.79 L1416.95 1650.12 L1411.1 1650.12 L1411.1 1644.71 Q1409.09 1647.96 1406.1 1649.52 Q1403.11 1651.05 1398.78 1651.05 Q1393.3 1651.05 1390.06 1647.99 Q1386.84 1644.9 1386.84 1639.75 Q1386.84 1633.73 1390.85 1630.68 Q1394.9 1627.62 1402.88 1627.62 L1411.1 1627.62 L1411.1 1627.05 Q1411.1 1623.01 1408.42 1620.81 Q1405.78 1618.58 1400.97 1618.58 Q1397.92 1618.58 1395.02 1619.31 Q1392.13 1620.05 1389.45 1621.51 L1389.45 1616.1 Q1392.67 1614.86 1395.69 1614.25 Q1398.71 1613.62 1401.58 1613.62 Q1409.31 1613.62 1413.13 1617.63 Q1416.95 1621.64 1416.95 1629.79 Z" fill="#000000" fill-rule="nonzero" fill-opacity="1" /><path clip-path="url(#clip820)" d="M1434.81 1604.35 L1434.81 1614.48 L1446.87 1614.48 L1446.87 1619.03 L1434.81 1619.03 L1434.81 1638.38 Q1434.81 1642.74 1435.99 1643.98 Q1437.2 1645.22 1440.86 1645.22 L1446.87 1645.22 L1446.87 1650.12 L1440.86 1650.12 Q1434.08 1650.12 1431.5 1647.61 Q1428.92 1645.06 1428.92 1638.38 L1428.92 1619.03 L1424.62 1619.03 L1424.62 1614.48 L1428.92 1614.48 L1428.92 1604.35 L1434.81 1604.35 Z" fill="#000000" fill-rule="nonzero" fill-opacity="1" /><path clip-path="url(#clip820)" d="M1454.57 1614.48 L1460.43 1614.48 L1460.43 1650.12 L1454.57 1650.12 L1454.57 1614.48 M1454.57 1600.6 L1460.43 1600.6 L1460.43 1608.01 L1454.57 1608.01 L1454.57 1600.6 Z" fill="#000000" fill-rule="nonzero" fill-opacity="1" /><path clip-path="url(#clip820)" d="M1486.5 1618.58 Q1481.79 1618.58 1479.05 1622.27 Q1476.31 1625.93 1476.31 1632.33 Q1476.31 1638.73 1479.02 1642.42 Q1481.76 1646.08 1486.5 1646.08 Q1491.18 1646.08 1493.91 1642.39 Q1496.65 1638.7 1496.65 1632.33 Q1496.65 1626 1493.91 1622.31 Q1491.18 1618.58 1486.5 1618.58 M1486.5 1613.62 Q1494.14 1613.62 1498.5 1618.58 Q1502.86 1623.55 1502.86 1632.33 Q1502.86 1641.08 1498.5 1646.08 Q1494.14 1651.05 1486.5 1651.05 Q1478.83 1651.05 1474.47 1646.08 Q1470.14 1641.08 1470.14 1632.33 Q1470.14 1623.55 1474.47 1618.58 Q1478.83 1613.62 1486.5 1613.62 Z" fill="#000000" fill-rule="nonzero" fill-opacity="1" /><path clip-path="url(#clip820)" d="M1542.2 1628.61 L1542.2 1650.12 L1536.34 1650.12 L1536.34 1628.8 Q1536.34 1623.74 1534.37 1621.22 Q1532.39 1618.71 1528.45 1618.71 Q1523.71 1618.71 1520.97 1621.73 Q1518.23 1624.76 1518.23 1629.98 L1518.23 1650.12 L1512.34 1650.12 L1512.34 1614.48 L1518.23 1614.48 L1518.23 1620.01 Q1520.33 1616.8 1523.16 1615.21 Q1526.03 1613.62 1529.75 1613.62 Q1535.9 1613.62 1539.05 1617.44 Q1542.2 1621.22 1542.2 1628.61 Z" fill="#000000" fill-rule="nonzero" fill-opacity="1" /><polyline clip-path="url(#clip822)" style="stroke:#000000; stroke-linecap:round; stroke-linejoin:round; stroke-width:2; stroke-opacity:0.1; fill:none" points="102.74,1147.51 2352.76,1147.51 "/>
<polyline clip-path="url(#clip822)" style="stroke:#000000; stroke-linecap:round; stroke-linejoin:round; stroke-width:2; stroke-opacity:0.1; fill:none" points="102.74,587.388 2352.76,587.388 "/>
<polyline clip-path="url(#clip820)" style="stroke:#000000; stroke-linecap:round; stroke-linejoin:round; stroke-width:4; stroke-opacity:1; fill:none" points="102.74,1505.26 102.74,47.2441 "/>
<polyline clip-path="url(#clip820)" style="stroke:#000000; stroke-linecap:round; stroke-linejoin:round; stroke-width:4; stroke-opacity:1; fill:none" points="102.74,1147.51 121.638,1147.51 "/>
<polyline clip-path="url(#clip820)" style="stroke:#000000; stroke-linecap:round; stroke-linejoin:round; stroke-width:4; stroke-opacity:1; fill:none" points="102.74,587.388 121.638,587.388 "/>
<path clip-path="url(#clip820)" d="M-2.72417 1167.31 L4.91468 1167.31 L4.91468 1140.94 L-3.39546 1142.61 L-3.39546 1138.35 L4.86838 1136.68 L9.54428 1136.68 L9.54428 1167.31 L17.1831 1167.31 L17.1831 1171.24 L-2.72417 1171.24 L-2.72417 1167.31 Z" fill="#000000" fill-rule="nonzero" fill-opacity="1" /><path clip-path="url(#clip820)" d="M36.6275 1139.76 Q33.0164 1139.76 31.1877 1143.32 Q29.3821 1146.87 29.3821 1154 Q29.3821 1161.1 31.1877 1164.67 Q33.0164 1168.21 36.6275 1168.21 Q40.2617 1168.21 42.0673 1164.67 Q43.896 1161.1 43.896 1154 Q43.896 1146.87 42.0673 1143.32 Q40.2617 1139.76 36.6275 1139.76 M36.6275 1136.06 Q42.4376 1136.06 45.4932 1140.66 Q48.5719 1145.25 48.5719 1154 Q48.5719 1162.72 45.4932 1167.33 Q42.4376 1171.91 36.6275 1171.91 Q30.8173 1171.91 27.7386 1167.33 Q24.6831 1162.72 24.6831 1154 Q24.6831 1145.25 27.7386 1140.66 Q30.8173 1136.06 36.6275 1136.06 Z" fill="#000000" fill-rule="nonzero" fill-opacity="1" /><path clip-path="url(#clip820)" d="M49.7567 1115.75 L64.6713 1115.75 L64.6713 1118.95 L53.2362 1118.95 L53.2362 1125.83 Q54.0637 1125.55 54.8913 1125.42 Q55.7188 1125.27 56.5463 1125.27 Q61.2483 1125.27 63.9942 1127.84 Q66.7402 1130.42 66.7402 1134.82 Q66.7402 1139.35 63.919 1141.87 Q61.0978 1144.38 55.9633 1144.38 Q54.1954 1144.38 52.3522 1144.07 Q50.5279 1143.77 48.5719 1143.17 L48.5719 1139.35 Q50.2646 1140.28 52.0701 1140.73 Q53.8756 1141.18 55.8881 1141.18 Q59.1418 1141.18 61.0414 1139.47 Q62.941 1137.76 62.941 1134.82 Q62.941 1131.89 61.0414 1130.18 Q59.1418 1128.46 55.8881 1128.46 Q54.3646 1128.46 52.8412 1128.8 Q51.3366 1129.14 49.7567 1129.86 L49.7567 1115.75 Z" fill="#000000" fill-rule="nonzero" fill-opacity="1" /><path clip-path="url(#clip820)" d="M-26.7793 607.18 L-19.1405 607.18 L-19.1405 580.815 L-27.4506 582.481 L-27.4506 578.222 L-19.1868 576.556 L-14.5109 576.556 L-14.5109 607.18 L-6.87201 607.18 L-6.87201 611.116 L-26.7793 611.116 L-26.7793 607.18 Z" fill="#000000" fill-rule="nonzero" fill-opacity="1" /><path clip-path="url(#clip820)" d="M12.5723 579.634 Q8.96124 579.634 7.13255 583.199 Q5.327 586.741 5.327 593.87 Q5.327 600.977 7.13255 604.542 Q8.96124 608.083 12.5723 608.083 Q16.2066 608.083 18.0121 604.542 Q19.8408 600.977 19.8408 593.87 Q19.8408 586.741 18.0121 583.199 Q16.2066 579.634 12.5723 579.634 M12.5723 575.931 Q18.3825 575.931 21.438 580.537 Q24.5167 585.12 24.5167 593.87 Q24.5167 602.597 21.438 607.204 Q18.3825 611.787 12.5723 611.787 Q6.76218 611.787 3.68349 607.204 Q0.627954 602.597 0.627954 593.87 Q0.627954 585.12 3.68349 580.537 Q6.76218 575.931 12.5723 575.931 Z" fill="#000000" fill-rule="nonzero" fill-opacity="1" /><path clip-path="url(#clip820)" d="M25.0621 580.508 L31.2687 580.508 L31.2687 559.086 L24.5167 560.44 L24.5167 556.979 L31.2311 555.625 L35.0303 555.625 L35.0303 580.508 L41.2368 580.508 L41.2368 583.705 L25.0621 583.705 L25.0621 580.508 Z" fill="#000000" fill-rule="nonzero" fill-opacity="1" /><path clip-path="url(#clip820)" d="M57.0353 558.127 Q54.1013 558.127 52.6155 561.023 Q51.1485 563.901 51.1485 569.693 Q51.1485 575.467 52.6155 578.364 Q54.1013 581.241 57.0353 581.241 Q59.9882 581.241 61.4552 578.364 Q62.941 575.467 62.941 569.693 Q62.941 563.901 61.4552 561.023 Q59.9882 558.127 57.0353 558.127 M57.0353 555.117 Q61.7561 555.117 64.2387 558.86 Q66.7402 562.584 66.7402 569.693 Q66.7402 576.784 64.2387 580.527 Q61.7561 584.251 57.0353 584.251 Q52.3146 584.251 49.8132 580.527 Q47.3305 576.784 47.3305 569.693 Q47.3305 562.584 49.8132 558.86 Q52.3146 555.117 57.0353 555.117 Z" fill="#000000" fill-rule="nonzero" fill-opacity="1" /><path clip-path="url(#clip820)" d="M-100.4 1095.64 L-82.9901 1095.64 L-82.9901 1085.32 Q-82.9901 1080.13 -85.1226 1077.65 Q-87.287 1075.14 -91.7112 1075.14 Q-96.1671 1075.14 -98.2678 1077.65 Q-100.4 1080.13 -100.4 1085.32 L-100.4 1095.64 M-119.943 1095.64 L-105.62 1095.64 L-105.62 1086.12 Q-105.62 1081.41 -107.371 1079.12 Q-109.153 1076.79 -112.782 1076.79 Q-116.378 1076.79 -118.161 1079.12 Q-119.943 1081.41 -119.943 1086.12 L-119.943 1095.64 M-125.227 1102.06 L-125.227 1085.64 Q-125.227 1078.29 -122.171 1074.31 Q-119.116 1070.33 -113.482 1070.33 Q-109.121 1070.33 -106.543 1072.37 Q-103.965 1074.41 -103.329 1078.35 Q-102.31 1073.61 -99.0635 1071 Q-95.8489 1068.36 -91.0109 1068.36 Q-84.6452 1068.36 -81.1759 1072.69 Q-77.7066 1077.02 -77.7066 1085 L-77.7066 1102.06 L-125.227 1102.06 Z" fill="#000000" fill-rule="nonzero" fill-opacity="1" /><path clip-path="url(#clip820)" d="M-96.9947 1027.11 L-94.1301 1027.11 L-94.1301 1054.04 Q-88.0827 1053.65 -84.8998 1050.41 Q-81.7488 1047.13 -81.7488 1041.3 Q-81.7488 1037.93 -82.5764 1034.78 Q-83.4039 1031.6 -85.059 1028.48 L-79.5208 1028.48 Q-78.184 1031.63 -77.4838 1034.94 Q-76.7836 1038.25 -76.7836 1041.65 Q-76.7836 1050.18 -81.7488 1055.18 Q-86.7141 1060.15 -95.1805 1060.15 Q-103.933 1060.15 -109.058 1055.44 Q-114.214 1050.69 -114.214 1042.67 Q-114.214 1035.48 -109.567 1031.31 Q-104.952 1027.11 -96.9947 1027.11 M-98.7134 1032.97 Q-103.52 1033.03 -106.384 1035.67 Q-109.249 1038.28 -109.249 1042.61 Q-109.249 1047.51 -106.48 1050.47 Q-103.711 1053.4 -98.6816 1053.84 L-98.7134 1032.97 Z" fill="#000000" fill-rule="nonzero" fill-opacity="1" /><path clip-path="url(#clip820)" d="M-112.304 994.771 L-106.766 994.771 Q-108.039 997.253 -108.676 999.927 Q-109.312 1002.6 -109.312 1005.47 Q-109.312 1009.83 -107.976 1012.02 Q-106.639 1014.19 -103.965 1014.19 Q-101.928 1014.19 -100.75 1012.63 Q-99.6046 1011.07 -98.5543 1006.36 L-98.1087 1004.35 Q-96.7719 998.113 -94.3211 995.503 Q-91.9021 992.861 -87.5416 992.861 Q-82.5764 992.861 -79.68 996.808 Q-76.7836 1000.72 -76.7836 1007.6 Q-76.7836 1010.46 -77.3565 1013.58 Q-77.8976 1016.67 -79.0116 1020.11 L-85.059 1020.11 Q-83.3721 1016.86 -82.5127 1013.71 Q-81.6852 1010.56 -81.6852 1007.47 Q-81.6852 1003.33 -83.0856 1001.1 Q-84.5179 998.877 -87.096 998.877 Q-89.4832 998.877 -90.7563 1000.5 Q-92.0294 1002.09 -93.2071 1007.53 L-93.6845 1009.57 Q-94.8304 1015.01 -97.1857 1017.43 Q-99.5728 1019.85 -103.711 1019.85 Q-108.739 1019.85 -111.477 1016.29 Q-114.214 1012.72 -114.214 1006.17 Q-114.214 1002.92 -113.736 1000.05 Q-113.259 997.19 -112.304 994.771 Z" fill="#000000" fill-rule="nonzero" fill-opacity="1" /><path clip-path="url(#clip820)" d="M-123.476 977.742 L-113.355 977.742 L-113.355 965.679 L-108.803 965.679 L-108.803 977.742 L-89.4513 977.742 Q-85.0908 977.742 -83.8495 976.565 Q-82.6082 975.355 -82.6082 971.695 L-82.6082 965.679 L-77.7066 965.679 L-77.7066 971.695 Q-77.7066 978.475 -80.2211 981.053 Q-82.7673 983.631 -89.4513 983.631 L-108.803 983.631 L-108.803 987.928 L-113.355 987.928 L-113.355 983.631 L-123.476 983.631 L-123.476 977.742 Z" fill="#000000" fill-rule="nonzero" fill-opacity="1" /><path clip-path="url(#clip820)" d="M-109.249 923.443 Q-109.249 928.154 -105.557 930.891 Q-101.896 933.628 -95.4987 933.628 Q-89.1012 933.628 -85.4091 930.923 Q-81.7488 928.185 -81.7488 923.443 Q-81.7488 918.764 -85.4409 916.027 Q-89.133 913.29 -95.4987 913.29 Q-101.833 913.29 -105.525 916.027 Q-109.249 918.764 -109.249 923.443 M-114.214 923.443 Q-114.214 915.804 -109.249 911.444 Q-104.283 907.083 -95.4987 907.083 Q-86.7459 907.083 -81.7488 911.444 Q-76.7836 915.804 -76.7836 923.443 Q-76.7836 931.114 -81.7488 935.474 Q-86.7459 939.803 -95.4987 939.803 Q-104.283 939.803 -109.249 935.474 Q-114.214 931.114 -114.214 923.443 Z" fill="#000000" fill-rule="nonzero" fill-opacity="1" /><path clip-path="url(#clip820)" d="M-95.4987 871.785 Q-101.96 871.785 -105.62 874.459 Q-109.312 877.101 -109.312 881.748 Q-109.312 886.395 -105.62 889.068 Q-101.96 891.71 -95.4987 891.71 Q-89.0376 891.71 -85.3454 889.068 Q-81.6852 886.395 -81.6852 881.748 Q-81.6852 877.101 -85.3454 874.459 Q-89.0376 871.785 -95.4987 871.785 M-107.944 891.71 Q-111.127 889.864 -112.654 887.063 Q-114.214 884.23 -114.214 880.315 Q-114.214 873.822 -109.058 869.78 Q-103.901 865.706 -95.4987 865.706 Q-87.096 865.706 -81.9398 869.78 Q-76.7836 873.822 -76.7836 880.315 Q-76.7836 884.23 -78.3113 887.063 Q-79.8709 889.864 -83.0538 891.71 L-77.7066 891.71 L-77.7066 897.598 L-127.232 897.598 L-127.232 891.71 L-107.944 891.71 Z" fill="#000000" fill-rule="nonzero" fill-opacity="1" /><path clip-path="url(#clip820)" d="M-113.355 855.998 L-113.355 850.142 L-77.07 850.142 Q-70.2587 850.142 -67.2032 852.752 Q-64.1476 855.33 -64.1476 861.091 L-64.1476 863.319 L-69.1129 863.319 L-69.1129 861.759 Q-69.1129 858.417 -70.6725 857.208 Q-72.2003 855.998 -77.07 855.998 L-113.355 855.998 M-127.232 855.998 L-127.232 850.142 L-119.816 850.142 L-119.816 855.998 L-127.232 855.998 Z" fill="#000000" fill-rule="nonzero" fill-opacity="1" /><path clip-path="url(#clip820)" d="M-96.9947 807.396 L-94.1301 807.396 L-94.1301 834.323 Q-88.0827 833.941 -84.8998 830.695 Q-81.7488 827.416 -81.7488 821.592 Q-81.7488 818.218 -82.5764 815.067 Q-83.4039 811.884 -85.059 808.765 L-79.5208 808.765 Q-78.184 811.916 -77.4838 815.226 Q-76.7836 818.536 -76.7836 821.942 Q-76.7836 830.472 -81.7488 835.469 Q-86.7141 840.434 -95.1805 840.434 Q-103.933 840.434 -109.058 835.724 Q-114.214 830.981 -114.214 822.96 Q-114.214 815.767 -109.567 811.598 Q-104.952 807.396 -96.9947 807.396 M-98.7134 813.253 Q-103.52 813.316 -106.384 815.958 Q-109.249 818.568 -109.249 822.897 Q-109.249 827.798 -106.48 830.758 Q-103.711 833.687 -98.6816 834.132 L-98.7134 813.253 Z" fill="#000000" fill-rule="nonzero" fill-opacity="1" /><path clip-path="url(#clip820)" d="M-111.986 772.13 L-106.511 772.13 Q-107.88 774.613 -108.548 777.127 Q-109.249 779.61 -109.249 782.156 Q-109.249 787.853 -105.62 791.004 Q-102.024 794.156 -95.4987 794.156 Q-88.9739 794.156 -85.3454 791.004 Q-81.7488 787.853 -81.7488 782.156 Q-81.7488 779.61 -82.4172 777.127 Q-83.1175 774.613 -84.4861 772.13 L-79.0752 772.13 Q-77.9294 774.581 -77.3565 777.223 Q-76.7836 779.833 -76.7836 782.793 Q-76.7836 790.845 -81.8443 795.588 Q-86.905 800.33 -95.4987 800.33 Q-104.22 800.33 -109.217 795.556 Q-114.214 790.75 -114.214 782.411 Q-114.214 779.705 -113.641 777.127 Q-113.1 774.549 -111.986 772.13 Z" fill="#000000" fill-rule="nonzero" fill-opacity="1" /><path clip-path="url(#clip820)" d="M-123.476 756.152 L-113.355 756.152 L-113.355 744.089 L-108.803 744.089 L-108.803 756.152 L-89.4513 756.152 Q-85.0908 756.152 -83.8495 754.975 Q-82.6082 753.765 -82.6082 750.105 L-82.6082 744.089 L-77.7066 744.089 L-77.7066 750.105 Q-77.7066 756.884 -80.2211 759.462 Q-82.7673 762.041 -89.4513 762.041 L-108.803 762.041 L-108.803 766.337 L-113.355 766.337 L-113.355 762.041 L-123.476 762.041 L-123.476 756.152 Z" fill="#000000" fill-rule="nonzero" fill-opacity="1" /><path clip-path="url(#clip820)" d="M-113.355 736.387 L-113.355 730.53 L-77.7066 730.53 L-77.7066 736.387 L-113.355 736.387 M-127.232 736.387 L-127.232 730.53 L-119.816 730.53 L-119.816 736.387 L-127.232 736.387 Z" fill="#000000" fill-rule="nonzero" fill-opacity="1" /><path clip-path="url(#clip820)" d="M-113.355 722.478 L-113.355 716.271 L-83.4357 705.131 L-113.355 693.991 L-113.355 687.785 L-77.7066 701.153 L-77.7066 709.11 L-113.355 722.478 Z" fill="#000000" fill-rule="nonzero" fill-opacity="1" /><path clip-path="url(#clip820)" d="M-96.9947 649.208 L-94.1301 649.208 L-94.1301 676.135 Q-88.0827 675.753 -84.8998 672.507 Q-81.7488 669.229 -81.7488 663.404 Q-81.7488 660.03 -82.5764 656.879 Q-83.4039 653.696 -85.059 650.577 L-79.5208 650.577 Q-78.184 653.728 -77.4838 657.038 Q-76.7836 660.348 -76.7836 663.754 Q-76.7836 672.284 -81.7488 677.281 Q-86.7141 682.246 -95.1805 682.246 Q-103.933 682.246 -109.058 677.536 Q-114.214 672.793 -114.214 664.773 Q-114.214 657.579 -109.567 653.41 Q-104.952 649.208 -96.9947 649.208 M-98.7134 655.065 Q-103.52 655.128 -106.384 657.77 Q-109.249 660.38 -109.249 664.709 Q-109.249 669.61 -106.48 672.571 Q-103.711 675.499 -98.6816 675.944 L-98.7134 655.065 Z" fill="#000000" fill-rule="nonzero" fill-opacity="1" /><path clip-path="url(#clip820)" d="M-113.355 623.077 L-113.355 616.871 L-83.4357 605.731 L-113.355 594.591 L-113.355 588.384 L-77.7066 601.752 L-77.7066 609.709 L-113.355 623.077 Z" fill="#000000" fill-rule="nonzero" fill-opacity="1" /><path clip-path="url(#clip820)" d="M-95.6261 564.099 Q-95.6261 571.197 -94.0028 573.934 Q-92.3796 576.671 -88.4646 576.671 Q-85.3454 576.671 -83.4994 574.634 Q-81.6852 572.565 -81.6852 569.032 Q-81.6852 564.163 -85.1226 561.234 Q-88.592 558.274 -94.3211 558.274 L-95.6261 558.274 L-95.6261 564.099 M-98.045 552.418 L-77.7066 552.418 L-77.7066 558.274 L-83.1175 558.274 Q-79.8709 560.279 -78.3113 563.271 Q-76.7836 566.263 -76.7836 570.592 Q-76.7836 576.066 -79.8391 579.313 Q-82.9265 582.528 -88.0827 582.528 Q-94.0983 582.528 -97.1538 578.517 Q-100.209 574.475 -100.209 566.486 L-100.209 558.274 L-100.782 558.274 Q-104.825 558.274 -107.021 560.948 Q-109.249 563.59 -109.249 568.396 Q-109.249 571.451 -108.517 574.348 Q-107.785 577.244 -106.32 579.918 L-111.731 579.918 Q-112.973 576.703 -113.577 573.679 Q-114.214 570.656 -114.214 567.791 Q-114.214 560.057 -110.204 556.237 Q-106.193 552.418 -98.045 552.418 Z" fill="#000000" fill-rule="nonzero" fill-opacity="1" /><path clip-path="url(#clip820)" d="M-127.232 540.355 L-127.232 534.498 L-77.7066 534.498 L-77.7066 540.355 L-127.232 540.355 Z" fill="#000000" fill-rule="nonzero" fill-opacity="1" /><path clip-path="url(#clip820)" d="M-91.7748 522.849 L-113.355 522.849 L-113.355 516.993 L-91.9976 516.993 Q-86.9369 516.993 -84.3906 515.019 Q-81.8761 513.046 -81.8761 509.099 Q-81.8761 504.357 -84.8998 501.619 Q-87.9236 498.85 -93.1434 498.85 L-113.355 498.85 L-113.355 492.994 L-77.7066 492.994 L-77.7066 498.85 L-83.1811 498.85 Q-79.9346 500.983 -78.3432 503.816 Q-76.7836 506.617 -76.7836 510.34 Q-76.7836 516.483 -80.603 519.666 Q-84.4224 522.849 -91.7748 522.849 M-114.214 508.112 L-114.214 508.112 Z" fill="#000000" fill-rule="nonzero" fill-opacity="1" /><path clip-path="url(#clip820)" d="M-96.9947 450.439 L-94.1301 450.439 L-94.1301 477.366 Q-88.0827 476.984 -84.8998 473.738 Q-81.7488 470.459 -81.7488 464.635 Q-81.7488 461.261 -82.5764 458.11 Q-83.4039 454.927 -85.059 451.808 L-79.5208 451.808 Q-78.184 454.959 -77.4838 458.269 Q-76.7836 461.579 -76.7836 464.985 Q-76.7836 473.515 -81.7488 478.512 Q-86.7141 483.477 -95.1805 483.477 Q-103.933 483.477 -109.058 478.767 Q-114.214 474.024 -114.214 466.003 Q-114.214 458.81 -109.567 454.641 Q-104.952 450.439 -96.9947 450.439 M-98.7134 456.296 Q-103.52 456.359 -106.384 459.001 Q-109.249 461.611 -109.249 465.94 Q-109.249 470.841 -106.48 473.801 Q-103.711 476.73 -98.6816 477.175 L-98.7134 456.296 Z" fill="#000000" fill-rule="nonzero" fill-opacity="1" /><polyline clip-path="url(#clip822)" style="stroke:#009af9; stroke-linecap:round; stroke-linejoin:round; stroke-width:8; stroke-opacity:0.7; fill:none" points="102.74,1156.46 128.602,1157.51 154.465,1206.04 180.327,1214.07 206.189,1262.25 232.051,1309.5 257.914,1354.23 283.776,1392.93 309.638,1420.83 335.5,1436.21 361.363,1441.61 387.225,1444.44 413.087,1444.78 438.949,1445.68 464.812,1446.54 490.674,1449.25 516.536,1452.83 542.398,1457.77 568.261,1459.83 594.123,1461.78 619.985,1462.6 645.847,1463.21 671.71,1463.38 697.572,1463.49 723.434,1463.6 749.296,1463.79 775.159,1463.98 801.021,1463.99 826.883,1463.99 852.745,1463.99 878.608,1463.99 904.47,1464 930.332,1464 956.194,1464 982.057,1464 1007.92,1464 1033.78,1464 1059.64,1464 1085.51,1464 1111.37,1464 "/>
<polyline clip-path="url(#clip822)" style="stroke:#009af9; stroke-linecap:round; stroke-linejoin:round; stroke-width:8; stroke-opacity:0.7; fill:none" points="102.74,934.573 128.602,983.22 154.465,1031.86 180.327,1080.14 206.189,1128.76 232.051,1177.33 257.914,1225.73 283.776,1273.63 309.638,1320.14 335.5,1363.06 361.363,1398.3 387.225,1421.73 413.087,1433.47 438.949,1437.81 464.812,1438.78 490.674,1439.06 516.536,1439.1 542.398,1439.17 568.261,1439.38 594.123,1439.93 619.985,1440.52 645.847,1440.53 671.71,1440.53 697.572,1440.53 723.434,1440.53 749.296,1440.53 775.159,1443.23 801.021,1449.11 826.883,1450.55 852.745,1451.23 878.608,1451.75 904.47,1451.76 930.332,1454.03 956.194,1455.89 982.057,1460.05 1007.92,1460.75 1033.78,1461.67 1059.64,1462.86 1085.51,1463.47 1111.37,1463.59 1137.23,1463.61 1163.09,1463.64 1188.95,1463.64 1214.82,1463.65 1240.68,1463.67 1266.54,1463.74 1292.4,1463.84 1318.27,1463.92 1344.13,1463.97 1369.99,1463.98 1395.85,1463.99 1421.71,1463.99 1447.58,1463.99 1473.44,1463.99 1499.3,1463.99 1525.16,1464 1551.03,1464 1576.89,1464 1602.75,1464 1628.61,1464 1654.48,1464 1680.34,1464 1706.2,1464 1732.06,1464 "/>
<polyline clip-path="url(#clip822)" style="stroke:#009af9; stroke-linecap:round; stroke-linejoin:round; stroke-width:8; stroke-opacity:0.7; fill:none" points="102.74,741.923 128.602,790.615 154.465,839.254 180.327,887.916 206.189,936.552 232.051,985.201 257.914,1033.83 283.776,1082.47 309.638,1131.08 335.5,1179.62 361.363,1227.98 387.225,1275.8 413.087,1322.13 438.949,1364.74 464.812,1399.53 490.674,1422.42 516.536,1433.76 542.398,1437.9 568.261,1438.93 594.123,1439.06 619.985,1439.07 645.847,1439.09 671.71,1439.15 697.572,1439.3 723.434,1439.63 749.296,1440.3 775.159,1442.47 801.021,1447.34 826.883,1447.35 852.745,1447.35 878.608,1447.35 904.47,1447.35 930.332,1447.35 956.194,1447.35 982.057,1447.35 1007.92,1449.26 1033.78,1450.37 1059.64,1452.07 1085.51,1452.9 1111.37,1453.28 1137.23,1453.99 1163.09,1454.38 1188.95,1455.56 1214.82,1456.74 1240.68,1456.84 1266.54,1456.84 1292.4,1456.84 1318.27,1458.34 1344.13,1461.68 1369.99,1463.39 1395.85,1463.86 1421.71,1463.94 1447.58,1463.97 1473.44,1463.98 1499.3,1463.99 1525.16,1463.99 1551.03,1463.99 1576.89,1463.99 1602.75,1464 1628.61,1464 1654.48,1464 1680.34,1464 1706.2,1464 1732.06,1464 1757.92,1464 1783.79,1464 1809.65,1464 1835.51,1464 1861.37,1464 1887.24,1464 1913.1,1464 1938.96,1464 1964.82,1464 "/>
<polyline clip-path="url(#clip822)" style="stroke:#009af9; stroke-linecap:round; stroke-linejoin:round; stroke-width:8; stroke-opacity:0.7; fill:none" points="102.74,876.389 128.602,925.06 154.465,973.695 180.327,1022.35 206.189,1070.98 232.051,1120.5 257.914,1169.07 283.776,1217.47 309.638,1265.47 335.5,1312.27 361.363,1355.99 387.225,1392.93 413.087,1418.65 438.949,1432.28 464.812,1437.73 490.674,1439.57 516.536,1440.88 542.398,1444.47 568.261,1451.15 594.123,1457.19 619.985,1459.63 645.847,1460.66 671.71,1462.08 697.572,1462.77 723.434,1463.44 749.296,1463.6 775.159,1463.95 801.021,1463.98 826.883,1463.99 852.745,1463.99 878.608,1463.99 904.47,1463.99 930.332,1463.99 956.194,1464 982.057,1464 1007.92,1464 1033.78,1464 1059.64,1464 1085.51,1464 1111.37,1464 1137.23,1464 1163.09,1464 1188.95,1464 1214.82,1464 1240.68,1464 1266.54,1464 "/>
<polyline clip-path="url(#clip822)" style="stroke:#e26f46; stroke-linecap:round; stroke-linejoin:round; stroke-width:8; stroke-opacity:0.7; fill:none" points="102.74,800.144 128.602,848.805 154.465,897.455 180.327,946.069 206.189,994.716 232.051,1043.36 257.914,1092 283.776,1140.61 309.638,1189.14 335.5,1237.43 361.363,1285.05 387.225,1330.88 413.087,1372.32 438.949,1405.02 464.812,1425.45 490.674,1434.98 516.536,1438 542.398,1438.64 568.261,1439.04 594.123,1439.08 619.985,1439.12 645.847,1439.23 671.71,1439.53 697.572,1440.4 723.434,1443.27 749.296,1445.04 775.159,1450.43 801.021,1453.63 826.883,1454.57 852.745,1455.29 878.608,1456.41 904.47,1457.29 930.332,1457.98 956.194,1458.86 982.057,1459.01 1007.92,1459.14 1033.78,1459.29 1059.64,1459.34 1085.51,1459.37 1111.37,1459.38 1137.23,1459.39 1163.09,1459.39 1188.95,1459.39 1214.82,1459.39 1240.68,1459.39 1266.54,1459.39 1292.4,1459.39 1318.27,1459.39 1344.13,1459.39 1369.99,1459.39 1395.85,1459.39 1421.71,1459.39 1447.58,1459.39 1473.44,1459.39 1499.3,1459.39 1525.16,1459.39 "/>
<polyline clip-path="url(#clip822)" style="stroke:#3da44d; stroke-linecap:round; stroke-linejoin:round; stroke-width:8; stroke-opacity:0.7; fill:none" points="102.74,88.5087 128.602,110.903 154.465,156.371 180.327,193.994 206.189,242.654 232.051,291.314 257.914,339.967 283.776,388.624 309.638,437.276 335.5,485.935 361.363,534.587 387.225,583.24 413.087,631.892 438.949,680.545 464.812,729.197 490.674,777.849 516.536,826.5 542.398,875.152 568.261,923.804 594.123,972.455 619.985,1021.11 645.847,1069.75 671.71,1118.38 697.572,1166.97 723.434,1215.42 749.296,1263.48 775.159,1310.43 801.021,1354.43 826.883,1391.74 852.745,1417.86 878.608,1431.78 904.47,1437.27 930.332,1438.81 956.194,1439.05 982.057,1439.07 1007.92,1439.08 1033.78,1439.11 1059.64,1439.2 1085.51,1439.39 1111.37,1439.97 1137.23,1441.48 1163.09,1442.92 1188.95,1444.65 1214.82,1444.65 1240.68,1446.09 1266.54,1448.73 1292.4,1448.73 1318.27,1448.73 1344.13,1448.73 1369.99,1448.73 1395.85,1448.73 1421.71,1448.73 1447.58,1448.73 1473.44,1450.35 1499.3,1451.11 1525.16,1453.1 1551.03,1453.83 1576.89,1455.6 1602.75,1456.69 1628.61,1457.32 1654.48,1457.41 1680.34,1457.43 1706.2,1457.44 1732.06,1457.45 1757.92,1457.45 1783.79,1457.45 1809.65,1457.45 1835.51,1457.45 1861.37,1457.45 1887.24,1457.45 1913.1,1457.45 1938.96,1457.45 1964.82,1457.45 1990.68,1457.45 2016.55,1457.45 2042.41,1457.45 2068.27,1457.45 2094.13,1457.45 2120,1457.45 2145.86,1457.45 2171.72,1457.45 2197.58,1457.45 2223.44,1457.45 2249.31,1457.45 2275.17,1457.45 2301.03,1457.45 2326.89,1457.45 2352.76,1457.45 "/>
<polyline clip-path="url(#clip822)" style="stroke:#3da44d; stroke-linecap:round; stroke-linejoin:round; stroke-width:8; stroke-opacity:0.7; fill:none" points="102.74,396.854 128.602,445.538 154.465,490.195 180.327,538.86 206.189,587.512 232.051,636.17 257.914,684.822 283.776,733.476 309.638,782.127 335.5,830.78 361.363,879.431 387.225,928.082 413.087,976.732 438.949,1025.38 464.812,1074.02 490.674,1122.64 516.536,1171.21 542.398,1219.61 568.261,1267.54 594.123,1314.23 619.985,1357.73 645.847,1394.23 671.71,1419.35 697.572,1432.44 723.434,1437.49 749.296,1438.86 775.159,1439.05 801.021,1439.06 826.883,1439.07 852.745,1439.08 878.608,1439.12 904.47,1439.24 930.332,1439.47 956.194,1440.21 982.057,1441.37 1007.92,1446.33 1033.78,1446.58 1059.64,1448.59 1085.51,1453.23 1111.37,1454.29 1137.23,1455.11 1163.09,1456.07 1188.95,1457.06 1214.82,1457.33 1240.68,1457.39 1266.54,1457.42 1292.4,1457.44 1318.27,1457.44 1344.13,1457.45 1369.99,1457.45 1395.85,1457.45 1421.71,1457.45 1447.58,1457.45 1473.44,1457.45 1499.3,1457.45 1525.16,1457.45 1551.03,1457.45 1576.89,1457.45 1602.75,1457.45 1628.61,1457.45 1654.48,1457.45 1680.34,1457.45 1706.2,1457.45 1732.06,1457.45 1757.92,1457.45 1783.79,1457.45 1809.65,1457.45 "/>
<polyline clip-path="url(#clip822)" style="stroke:#3da44d; stroke-linecap:round; stroke-linejoin:round; stroke-width:8; stroke-opacity:0.7; fill:none" points="102.74,1065.09 128.602,1113.69 154.465,1162.27 180.327,1210.76 206.189,1258.93 232.051,1306.16 257.914,1350.83 283.776,1389.35 309.638,1416.81 335.5,1431.47 361.363,1437.19 387.225,1438.8 413.087,1439.05 438.949,1439.1 464.812,1439.18 490.674,1439.38 516.536,1439.96 542.398,1442.07 568.261,1445.15 594.123,1446.23 619.985,1451.03 645.847,1452.43 671.71,1454.09 697.572,1455.72 723.434,1456.41 749.296,1457.17 775.159,1457.38 801.021,1457.43 826.883,1457.44 852.745,1457.45 878.608,1457.45 904.47,1457.45 930.332,1457.45 956.194,1457.45 982.057,1457.45 1007.92,1457.45 1033.78,1457.45 1059.64,1457.45 1085.51,1457.45 1111.37,1457.45 1137.23,1457.45 1163.09,1457.45 1188.95,1457.45 1214.82,1457.45 1240.68,1457.45 1266.54,1457.45 1292.4,1457.45 1318.27,1457.45 "/>
<polyline clip-path="url(#clip822)" style="stroke:#3da44d; stroke-linecap:round; stroke-linejoin:round; stroke-width:8; stroke-opacity:0.7; fill:none" points="102.74,217.604 128.602,240.004 154.465,288.703 180.327,325.768 206.189,374.428 232.051,423.083 257.914,471.736 283.776,520.391 309.638,569.043 335.5,617.697 361.363,666.349 387.225,715.001 413.087,763.653 438.949,812.305 464.812,860.957 490.674,909.608 516.536,958.259 542.398,1006.91 568.261,1055.55 594.123,1104.19 619.985,1152.78 645.847,1201.26 671.71,1249.43 697.572,1296.74 723.434,1341.78 749.296,1358.44 775.159,1394.8 801.021,1419.8 826.883,1433.04 852.745,1439 878.608,1442.3 904.47,1443.35 930.332,1443.38 956.194,1443.61 982.057,1443.61 1007.92,1444.03 1033.78,1449.55 1059.64,1454.95 1085.51,1456.53 1111.37,1456.59 1137.23,1457.01 1163.09,1457.14 1188.95,1457.22 1214.82,1457.31 1240.68,1457.36 1266.54,1457.41 1292.4,1457.42 1318.27,1457.43 1344.13,1457.43 1369.99,1457.43 1395.85,1457.43 1421.71,1457.43 1447.58,1457.43 1473.44,1457.43 1499.3,1457.43 1525.16,1457.43 1551.03,1457.43 1576.89,1457.43 1602.75,1457.43 1628.61,1457.43 1654.48,1457.43 1680.34,1457.43 1706.2,1457.43 1732.06,1457.43 1757.92,1457.43 1783.79,1457.43 1809.65,1457.43 1835.51,1457.43 1861.37,1457.43 1887.24,1457.43 1913.1,1457.43 1938.96,1457.43 1964.82,1457.43 1990.68,1457.43 2016.55,1457.43 2042.41,1457.43 "/>
<polyline clip-path="url(#clip822)" style="stroke:#c271d2; stroke-linecap:round; stroke-linejoin:round; stroke-width:8; stroke-opacity:0.7; fill:none" points="102.74,352.044 128.602,400.818 154.465,435.599 180.327,484.273 206.189,532.948 232.051,581.611 257.914,630.276 283.776,678.933 309.638,727.59 335.5,776.243 361.363,824.896 387.225,873.547 413.087,922.198 438.949,970.847 464.812,1019.49 490.674,1068.14 516.536,1116.76 542.398,1165.34 568.261,1213.77 594.123,1261.8 619.985,1308.71 645.847,1352.75 671.71,1390.35 697.572,1416.99 723.434,1431.38 749.296,1437.14 775.159,1438.79 801.021,1439.05 826.883,1439.06 852.745,1439.06 878.608,1439.07 904.47,1439.1 930.332,1439.18 956.194,1439.38 982.057,1439.9 1007.92,1441.46 1033.78,1443.47 1059.64,1447.61 1085.51,1451.07 1111.37,1451.07 1137.23,1451.07 1163.09,1452.26 1188.95,1452.49 1214.82,1452.51 1240.68,1452.51 1266.54,1452.51 1292.4,1452.51 1318.27,1452.51 1344.13,1452.51 1369.99,1452.51 1395.85,1452.51 1421.71,1452.51 "/>
</svg>
