<?xml version="1.0" encoding="utf-8"?>
<svg xmlns="http://www.w3.org/2000/svg" xmlns:xlink="http://www.w3.org/1999/xlink" width="600" height="400" viewBox="0 0 2400 1600">
<defs>
  <clipPath id="clip400">
    <rect x="0" y="0" width="2400" height="1600"/>
  </clipPath>
</defs>
<path clip-path="url(#clip400)" d="M0 1600 L2400 1600 L2400 0 L0 0  Z" fill="#ffffff" fill-rule="evenodd" fill-opacity="1"/>
<defs>
  <clipPath id="clip401">
    <rect x="480" y="0" width="1681" height="1600"/>
  </clipPath>
</defs>
<path clip-path="url(#clip400)" d="M283.843 1324.16 L2352.76 1324.16 L2352.76 47.2441 L283.843 47.2441  Z" fill="#ffffff" fill-rule="evenodd" fill-opacity="1"/>
<defs>
  <clipPath id="clip402">
    <rect x="283" y="47" width="2070" height="1278"/>
  </clipPath>
</defs>
<polyline clip-path="url(#clip402)" style="stroke:#000000; stroke-linecap:round; stroke-linejoin:round; stroke-width:2; stroke-opacity:0.1; fill:none" points="302.564,1324.16 302.564,47.2441 "/>
<polyline clip-path="url(#clip402)" style="stroke:#000000; stroke-linecap:round; stroke-linejoin:round; stroke-width:2; stroke-opacity:0.1; fill:none" points="700.891,1324.16 700.891,47.2441 "/>
<polyline clip-path="url(#clip402)" style="stroke:#000000; stroke-linecap:round; stroke-linejoin:round; stroke-width:2; stroke-opacity:0.1; fill:none" points="1099.22,1324.16 1099.22,47.2441 "/>
<polyline clip-path="url(#clip402)" style="stroke:#000000; stroke-linecap:round; stroke-linejoin:round; stroke-width:2; stroke-opacity:0.1; fill:none" points="1497.55,1324.16 1497.55,47.2441 "/>
<polyline clip-path="url(#clip402)" style="stroke:#000000; stroke-linecap:round; stroke-linejoin:round; stroke-width:2; stroke-opacity:0.1; fill:none" points="1895.87,1324.16 1895.87,47.2441 "/>
<polyline clip-path="url(#clip402)" style="stroke:#000000; stroke-linecap:round; stroke-linejoin:round; stroke-width:2; stroke-opacity:0.1; fill:none" points="2294.2,1324.16 2294.2,47.2441 "/>
<polyline clip-path="url(#clip400)" style="stroke:#000000; stroke-linecap:round; stroke-linejoin:round; stroke-width:4; stroke-opacity:1; fill:none" points="283.843,1324.16 2352.76,1324.16 "/>
<polyline clip-path="url(#clip400)" style="stroke:#000000; stroke-linecap:round; stroke-linejoin:round; stroke-width:4; stroke-opacity:1; fill:none" points="302.564,1324.16 302.564,1305.26 "/>
<polyline clip-path="url(#clip400)" style="stroke:#000000; stroke-linecap:round; stroke-linejoin:round; stroke-width:4; stroke-opacity:1; fill:none" points="700.891,1324.16 700.891,1305.26 "/>
<polyline clip-path="url(#clip400)" style="stroke:#000000; stroke-linecap:round; stroke-linejoin:round; stroke-width:4; stroke-opacity:1; fill:none" points="1099.22,1324.16 1099.22,1305.26 "/>
<polyline clip-path="url(#clip400)" style="stroke:#000000; stroke-linecap:round; stroke-linejoin:round; stroke-width:4; stroke-opacity:1; fill:none" points="1497.55,1324.16 1497.55,1305.26 "/>
<polyline clip-path="url(#clip400)" style="stroke:#000000; stroke-linecap:round; stroke-linejoin:round; stroke-width:4; stroke-opacity:1; fill:none" points="1895.87,1324.16 1895.87,1305.26 "/>
<polyline clip-path="url(#clip400)" style="stroke:#000000; stroke-linecap:round; stroke-linejoin:round; stroke-width:4; stroke-opacity:1; fill:none" points="2294.2,1324.16 2294.2,1305.26 "/>
<path clip-path="url(#clip400)" d="M302.564 1355.08 Q298.953 1355.08 297.124 1358.64 Q295.319 1362.18 295.319 1369.31 Q295.319 1376.42 297.124 1379.98 Q298.953 1383.53 302.564 1383.53 Q306.198 1383.53 308.004 1379.98 Q309.832 1376.42 309.832 1369.31 Q309.832 1362.18 308.004 1358.64 Q306.198 1355.08 302.564 1355.08 M302.564 1351.37 Q308.374 1351.37 311.43 1355.98 Q314.508 1360.56 314.508 1369.31 Q314.508 1378.04 311.43 1382.65 Q308.374 1387.23 302.564 1387.23 Q296.754 1387.23 293.675 1382.65 Q290.62 1378.04 290.62 1369.31 Q290.62 1360.56 293.675 1355.98 Q296.754 1351.37 302.564 1351.37 Z" fill="#000000" fill-rule="nonzero" fill-opacity="1" /><path clip-path="url(#clip400)" d="M675.579 1382.62 L683.218 1382.62 L683.218 1356.26 L674.908 1357.92 L674.908 1353.66 L683.172 1352 L687.848 1352 L687.848 1382.62 L695.486 1382.62 L695.486 1386.56 L675.579 1386.56 L675.579 1382.62 Z" fill="#000000" fill-rule="nonzero" fill-opacity="1" /><path clip-path="url(#clip400)" d="M714.931 1355.08 Q711.32 1355.08 709.491 1358.64 Q707.685 1362.18 707.685 1369.31 Q707.685 1376.42 709.491 1379.98 Q711.32 1383.53 714.931 1383.53 Q718.565 1383.53 720.371 1379.98 Q722.199 1376.42 722.199 1369.31 Q722.199 1362.18 720.371 1358.64 Q718.565 1355.08 714.931 1355.08 M714.931 1351.37 Q720.741 1351.37 723.796 1355.98 Q726.875 1360.56 726.875 1369.31 Q726.875 1378.04 723.796 1382.65 Q720.741 1387.23 714.931 1387.23 Q709.121 1387.23 706.042 1382.65 Q702.986 1378.04 702.986 1369.31 Q702.986 1360.56 706.042 1355.98 Q709.121 1351.37 714.931 1351.37 Z" fill="#000000" fill-rule="nonzero" fill-opacity="1" /><path clip-path="url(#clip400)" d="M1077.99 1382.62 L1094.31 1382.62 L1094.31 1386.56 L1072.37 1386.56 L1072.37 1382.62 Q1075.03 1379.87 1079.61 1375.24 Q1084.22 1370.59 1085.4 1369.24 Q1087.65 1366.72 1088.52 1364.98 Q1089.43 1363.22 1089.43 1361.53 Q1089.43 1358.78 1087.48 1357.04 Q1085.56 1355.31 1082.46 1355.31 Q1080.26 1355.31 1077.81 1356.07 Q1075.38 1356.84 1072.6 1358.39 L1072.6 1353.66 Q1075.42 1352.53 1077.88 1351.95 Q1080.33 1351.37 1082.37 1351.37 Q1087.74 1351.37 1090.93 1354.06 Q1094.13 1356.74 1094.13 1361.23 Q1094.13 1363.36 1093.32 1365.28 Q1092.53 1367.18 1090.42 1369.78 Q1089.84 1370.45 1086.74 1373.66 Q1083.64 1376.86 1077.99 1382.62 Z" fill="#000000" fill-rule="nonzero" fill-opacity="1" /><path clip-path="url(#clip400)" d="M1114.13 1355.08 Q1110.52 1355.08 1108.69 1358.64 Q1106.88 1362.18 1106.88 1369.31 Q1106.88 1376.42 1108.69 1379.98 Q1110.52 1383.53 1114.13 1383.53 Q1117.76 1383.53 1119.57 1379.98 Q1121.39 1376.42 1121.39 1369.31 Q1121.39 1362.18 1119.57 1358.64 Q1117.76 1355.08 1114.13 1355.08 M1114.13 1351.37 Q1119.94 1351.37 1122.99 1355.98 Q1126.07 1360.56 1126.07 1369.31 Q1126.07 1378.04 1122.99 1382.65 Q1119.94 1387.23 1114.13 1387.23 Q1108.32 1387.23 1105.24 1382.65 Q1102.18 1378.04 1102.18 1369.31 Q1102.18 1360.56 1105.24 1355.98 Q1108.32 1351.37 1114.13 1351.37 Z" fill="#000000" fill-rule="nonzero" fill-opacity="1" /><path clip-path="url(#clip400)" d="M1486.39 1367.92 Q1489.75 1368.64 1491.62 1370.91 Q1493.52 1373.18 1493.52 1376.51 Q1493.52 1381.63 1490 1384.43 Q1486.48 1387.23 1480 1387.23 Q1477.82 1387.23 1475.51 1386.79 Q1473.22 1386.37 1470.76 1385.52 L1470.76 1381 Q1472.71 1382.14 1475.02 1382.71 Q1477.34 1383.29 1479.86 1383.29 Q1484.26 1383.29 1486.55 1381.56 Q1488.87 1379.82 1488.87 1376.51 Q1488.87 1373.46 1486.71 1371.74 Q1484.58 1370.01 1480.76 1370.01 L1476.74 1370.01 L1476.74 1366.16 L1480.95 1366.16 Q1484.4 1366.16 1486.23 1364.8 Q1488.06 1363.41 1488.06 1360.82 Q1488.06 1358.15 1486.16 1356.74 Q1484.28 1355.31 1480.76 1355.31 Q1478.84 1355.31 1476.64 1355.72 Q1474.44 1356.14 1471.81 1357.02 L1471.81 1352.85 Q1474.47 1352.11 1476.78 1351.74 Q1479.12 1351.37 1481.18 1351.37 Q1486.51 1351.37 1489.61 1353.8 Q1492.71 1356.21 1492.71 1360.33 Q1492.71 1363.2 1491.07 1365.19 Q1489.42 1367.16 1486.39 1367.92 Z" fill="#000000" fill-rule="nonzero" fill-opacity="1" /><path clip-path="url(#clip400)" d="M1512.38 1355.08 Q1508.77 1355.08 1506.94 1358.64 Q1505.14 1362.18 1505.14 1369.31 Q1505.14 1376.42 1506.94 1379.98 Q1508.77 1383.53 1512.38 1383.53 Q1516.02 1383.53 1517.82 1379.98 Q1519.65 1376.42 1519.65 1369.31 Q1519.65 1362.18 1517.82 1358.64 Q1516.02 1355.08 1512.38 1355.08 M1512.38 1351.37 Q1518.19 1351.37 1521.25 1355.98 Q1524.33 1360.56 1524.33 1369.31 Q1524.33 1378.04 1521.25 1382.65 Q1518.19 1387.23 1512.38 1387.23 Q1506.57 1387.23 1503.5 1382.65 Q1500.44 1378.04 1500.44 1369.31 Q1500.44 1360.56 1503.5 1355.98 Q1506.57 1351.37 1512.38 1351.37 Z" fill="#000000" fill-rule="nonzero" fill-opacity="1" /><path clip-path="url(#clip400)" d="M1884.05 1356.07 L1872.24 1374.52 L1884.05 1374.52 L1884.05 1356.07 M1882.82 1352 L1888.7 1352 L1888.7 1374.52 L1893.63 1374.52 L1893.63 1378.41 L1888.7 1378.41 L1888.7 1386.56 L1884.05 1386.56 L1884.05 1378.41 L1868.44 1378.41 L1868.44 1373.9 L1882.82 1352 Z" fill="#000000" fill-rule="nonzero" fill-opacity="1" /><path clip-path="url(#clip400)" d="M1911.36 1355.08 Q1907.75 1355.08 1905.92 1358.64 Q1904.11 1362.18 1904.11 1369.31 Q1904.11 1376.42 1905.92 1379.98 Q1907.75 1383.53 1911.36 1383.53 Q1914.99 1383.53 1916.8 1379.98 Q1918.63 1376.42 1918.63 1369.31 Q1918.63 1362.18 1916.8 1358.64 Q1914.99 1355.08 1911.36 1355.08 M1911.36 1351.37 Q1917.17 1351.37 1920.23 1355.98 Q1923.3 1360.56 1923.3 1369.31 Q1923.3 1378.04 1920.23 1382.65 Q1917.17 1387.23 1911.36 1387.23 Q1905.55 1387.23 1902.47 1382.65 Q1899.42 1378.04 1899.42 1369.31 Q1899.42 1360.56 1902.47 1355.98 Q1905.55 1351.37 1911.36 1351.37 Z" fill="#000000" fill-rule="nonzero" fill-opacity="1" /><path clip-path="url(#clip400)" d="M2268.9 1352 L2287.26 1352 L2287.26 1355.93 L2273.18 1355.93 L2273.18 1364.4 Q2274.2 1364.06 2275.22 1363.9 Q2276.24 1363.71 2277.26 1363.71 Q2283.04 1363.71 2286.42 1366.88 Q2289.8 1370.05 2289.8 1375.47 Q2289.8 1381.05 2286.33 1384.15 Q2282.86 1387.23 2276.54 1387.23 Q2274.36 1387.23 2272.1 1386.86 Q2269.85 1386.49 2267.44 1385.75 L2267.44 1381.05 Q2269.53 1382.18 2271.75 1382.74 Q2273.97 1383.29 2276.45 1383.29 Q2280.45 1383.29 2282.79 1381.19 Q2285.13 1379.08 2285.13 1375.47 Q2285.13 1371.86 2282.79 1369.75 Q2280.45 1367.65 2276.45 1367.65 Q2274.57 1367.65 2272.7 1368.06 Q2270.85 1368.48 2268.9 1369.36 L2268.9 1352 Z" fill="#000000" fill-rule="nonzero" fill-opacity="1" /><path clip-path="url(#clip400)" d="M2309.02 1355.08 Q2305.41 1355.08 2303.58 1358.64 Q2301.77 1362.18 2301.77 1369.31 Q2301.77 1376.42 2303.58 1379.98 Q2305.41 1383.53 2309.02 1383.53 Q2312.65 1383.53 2314.46 1379.98 Q2316.28 1376.42 2316.28 1369.31 Q2316.28 1362.18 2314.46 1358.64 Q2312.65 1355.08 2309.02 1355.08 M2309.02 1351.37 Q2314.83 1351.37 2317.88 1355.98 Q2320.96 1360.56 2320.96 1369.31 Q2320.96 1378.04 2317.88 1382.65 Q2314.83 1387.23 2309.02 1387.23 Q2303.21 1387.23 2300.13 1382.65 Q2297.07 1378.04 2297.07 1369.31 Q2297.07 1360.56 2300.13 1355.98 Q2303.21 1351.37 2309.02 1351.37 Z" fill="#000000" fill-rule="nonzero" fill-opacity="1" /><path clip-path="url(#clip400)" d="M970.254 1425.86 Q963.252 1425.86 959.114 1431.08 Q955.008 1436.3 955.008 1445.31 Q955.008 1454.28 959.114 1459.5 Q963.252 1464.72 970.254 1464.72 Q977.256 1464.72 981.331 1459.5 Q985.436 1454.28 985.436 1445.31 Q985.436 1436.3 981.331 1431.08 Q977.256 1425.86 970.254 1425.86 M970.254 1420.64 Q980.248 1420.64 986.232 1427.36 Q992.216 1434.04 992.216 1445.31 Q992.216 1456.54 986.232 1463.26 Q980.248 1469.94 970.254 1469.94 Q960.228 1469.94 954.213 1463.26 Q948.229 1456.58 948.229 1445.31 Q948.229 1434.04 954.213 1427.36 Q960.228 1420.64 970.254 1420.64 Z" fill="#000000" fill-rule="nonzero" fill-opacity="1" /><path clip-path="url(#clip400)" d="M1007.68 1463.67 L1007.68 1482.58 L1001.8 1482.58 L1001.8 1433.37 L1007.68 1433.37 L1007.68 1438.78 Q1009.53 1435.6 1012.33 1434.07 Q1015.16 1432.51 1019.08 1432.51 Q1025.57 1432.51 1029.61 1437.67 Q1033.69 1442.83 1033.69 1451.23 Q1033.69 1459.63 1029.61 1464.79 Q1025.57 1469.94 1019.08 1469.94 Q1015.16 1469.94 1012.33 1468.42 Q1009.53 1466.86 1007.68 1463.67 M1027.61 1451.23 Q1027.61 1444.77 1024.94 1441.11 Q1022.29 1437.42 1017.65 1437.42 Q1013 1437.42 1010.33 1441.11 Q1007.68 1444.77 1007.68 1451.23 Q1007.68 1457.69 1010.33 1461.38 Q1013 1465.04 1017.65 1465.04 Q1022.29 1465.04 1024.94 1461.38 Q1027.61 1457.69 1027.61 1451.23 Z" fill="#000000" fill-rule="nonzero" fill-opacity="1" /><path clip-path="url(#clip400)" d="M1049.19 1423.25 L1049.19 1433.37 L1061.25 1433.37 L1061.25 1437.93 L1049.19 1437.93 L1049.19 1457.28 Q1049.19 1461.64 1050.37 1462.88 Q1051.58 1464.12 1055.24 1464.12 L1061.25 1464.12 L1061.25 1469.02 L1055.24 1469.02 Q1048.46 1469.02 1045.88 1466.51 Q1043.3 1463.96 1043.3 1457.28 L1043.3 1437.93 L1039 1437.93 L1039 1433.37 L1043.3 1433.37 L1043.3 1423.25 L1049.19 1423.25 Z" fill="#000000" fill-rule="nonzero" fill-opacity="1" /><path clip-path="url(#clip400)" d="M1068.95 1433.37 L1074.81 1433.37 L1074.81 1469.02 L1068.95 1469.02 L1068.95 1433.37 M1068.95 1419.5 L1074.81 1419.5 L1074.81 1426.91 L1068.95 1426.91 L1068.95 1419.5 Z" fill="#000000" fill-rule="nonzero" fill-opacity="1" /><path clip-path="url(#clip400)" d="M1114.82 1440.22 Q1117.02 1436.27 1120.07 1434.39 Q1123.13 1432.51 1127.26 1432.51 Q1132.83 1432.51 1135.86 1436.43 Q1138.88 1440.31 1138.88 1447.51 L1138.88 1469.02 L1132.99 1469.02 L1132.99 1447.7 Q1132.99 1442.57 1131.18 1440.09 Q1129.37 1437.61 1125.64 1437.61 Q1121.09 1437.61 1118.45 1440.63 Q1115.81 1443.65 1115.81 1448.87 L1115.81 1469.02 L1109.92 1469.02 L1109.92 1447.7 Q1109.92 1442.54 1108.1 1440.09 Q1106.29 1437.61 1102.5 1437.61 Q1098.01 1437.61 1095.37 1440.66 Q1092.73 1443.69 1092.73 1448.87 L1092.73 1469.02 L1086.84 1469.02 L1086.84 1433.37 L1092.73 1433.37 L1092.73 1438.91 Q1094.74 1435.63 1097.54 1434.07 Q1100.34 1432.51 1104.19 1432.51 Q1108.07 1432.51 1110.78 1434.49 Q1113.51 1436.46 1114.82 1440.22 Z" fill="#000000" fill-rule="nonzero" fill-opacity="1" /><path clip-path="url(#clip400)" d="M1150.56 1433.37 L1156.42 1433.37 L1156.42 1469.02 L1150.56 1469.02 L1150.56 1433.37 M1150.56 1419.5 L1156.42 1419.5 L1156.42 1426.91 L1150.56 1426.91 L1150.56 1419.5 Z" fill="#000000" fill-rule="nonzero" fill-opacity="1" /><path clip-path="url(#clip400)" d="M1191.4 1434.42 L1191.4 1439.96 Q1188.92 1438.69 1186.24 1438.05 Q1183.57 1437.42 1180.7 1437.42 Q1176.34 1437.42 1174.15 1438.75 Q1171.98 1440.09 1171.98 1442.76 Q1171.98 1444.8 1173.54 1445.98 Q1175.1 1447.12 1179.81 1448.17 L1181.82 1448.62 Q1188.06 1449.96 1190.67 1452.41 Q1193.31 1454.83 1193.31 1459.19 Q1193.31 1464.15 1189.36 1467.05 Q1185.45 1469.94 1178.57 1469.94 Q1175.71 1469.94 1172.59 1469.37 Q1169.5 1468.83 1166.06 1467.72 L1166.06 1461.67 Q1169.31 1463.36 1172.46 1464.22 Q1175.61 1465.04 1178.7 1465.04 Q1182.84 1465.04 1185.06 1463.64 Q1187.29 1462.21 1187.29 1459.63 Q1187.29 1457.24 1185.67 1455.97 Q1184.08 1454.7 1178.64 1453.52 L1176.6 1453.04 Q1171.16 1451.9 1168.74 1449.54 Q1166.32 1447.16 1166.32 1443.02 Q1166.32 1437.99 1169.88 1435.25 Q1173.45 1432.51 1180 1432.51 Q1183.25 1432.51 1186.12 1432.99 Q1188.98 1433.47 1191.4 1434.42 Z" fill="#000000" fill-rule="nonzero" fill-opacity="1" /><path clip-path="url(#clip400)" d="M1218.84 1451.1 Q1211.74 1451.1 1209 1452.73 Q1206.26 1454.35 1206.26 1458.26 Q1206.26 1461.38 1208.3 1463.23 Q1210.37 1465.04 1213.9 1465.04 Q1218.77 1465.04 1221.7 1461.61 Q1224.66 1458.14 1224.66 1452.41 L1224.66 1451.1 L1218.84 1451.1 M1230.52 1448.68 L1230.52 1469.02 L1224.66 1469.02 L1224.66 1463.61 Q1222.65 1466.86 1219.66 1468.42 Q1216.67 1469.94 1212.34 1469.94 Q1206.87 1469.94 1203.62 1466.89 Q1200.41 1463.8 1200.41 1458.65 Q1200.41 1452.63 1204.42 1449.57 Q1208.46 1446.52 1216.45 1446.52 L1224.66 1446.52 L1224.66 1445.95 Q1224.66 1441.9 1221.99 1439.71 Q1219.34 1437.48 1214.54 1437.48 Q1211.48 1437.48 1208.59 1438.21 Q1205.69 1438.94 1203.02 1440.41 L1203.02 1435 Q1206.23 1433.76 1209.25 1433.15 Q1212.28 1432.51 1215.14 1432.51 Q1222.88 1432.51 1226.7 1436.52 Q1230.52 1440.53 1230.52 1448.68 Z" fill="#000000" fill-rule="nonzero" fill-opacity="1" /><path clip-path="url(#clip400)" d="M1248.37 1423.25 L1248.37 1433.37 L1260.43 1433.37 L1260.43 1437.93 L1248.37 1437.93 L1248.37 1457.28 Q1248.37 1461.64 1249.55 1462.88 Q1250.76 1464.12 1254.42 1464.12 L1260.43 1464.12 L1260.43 1469.02 L1254.42 1469.02 Q1247.64 1469.02 1245.06 1466.51 Q1242.48 1463.96 1242.48 1457.28 L1242.48 1437.93 L1238.19 1437.93 L1238.19 1433.37 L1242.48 1433.37 L1242.48 1423.25 L1248.37 1423.25 Z" fill="#000000" fill-rule="nonzero" fill-opacity="1" /><path clip-path="url(#clip400)" d="M1268.14 1433.37 L1273.99 1433.37 L1273.99 1469.02 L1268.14 1469.02 L1268.14 1433.37 M1268.14 1419.5 L1273.99 1419.5 L1273.99 1426.91 L1268.14 1426.91 L1268.14 1419.5 Z" fill="#000000" fill-rule="nonzero" fill-opacity="1" /><path clip-path="url(#clip400)" d="M1300.06 1437.48 Q1295.35 1437.48 1292.61 1441.17 Q1289.88 1444.83 1289.88 1451.23 Q1289.88 1457.63 1292.58 1461.32 Q1295.32 1464.98 1300.06 1464.98 Q1304.74 1464.98 1307.48 1461.29 Q1310.21 1457.6 1310.21 1451.23 Q1310.21 1444.9 1307.48 1441.2 Q1304.74 1437.48 1300.06 1437.48 M1300.06 1432.51 Q1307.7 1432.51 1312.06 1437.48 Q1316.42 1442.44 1316.42 1451.23 Q1316.42 1459.98 1312.06 1464.98 Q1307.7 1469.94 1300.06 1469.94 Q1292.39 1469.94 1288.03 1464.98 Q1283.7 1459.98 1283.7 1451.23 Q1283.7 1442.44 1288.03 1437.48 Q1292.39 1432.51 1300.06 1432.51 Z" fill="#000000" fill-rule="nonzero" fill-opacity="1" /><path clip-path="url(#clip400)" d="M1355.76 1447.51 L1355.76 1469.02 L1349.9 1469.02 L1349.9 1447.7 Q1349.9 1442.64 1347.93 1440.12 Q1345.96 1437.61 1342.01 1437.61 Q1337.27 1437.61 1334.53 1440.63 Q1331.79 1443.65 1331.79 1448.87 L1331.79 1469.02 L1325.91 1469.02 L1325.91 1433.37 L1331.79 1433.37 L1331.79 1438.91 Q1333.9 1435.7 1336.73 1434.11 Q1339.59 1432.51 1343.32 1432.51 Q1349.46 1432.51 1352.61 1436.33 Q1355.76 1440.12 1355.76 1447.51 Z" fill="#000000" fill-rule="nonzero" fill-opacity="1" /><path clip-path="url(#clip400)" d="M1408.82 1438.85 Q1407.83 1438.28 1406.66 1438.02 Q1405.51 1437.73 1404.11 1437.73 Q1399.14 1437.73 1396.47 1440.98 Q1393.83 1444.2 1393.83 1450.24 L1393.83 1469.02 L1387.94 1469.02 L1387.94 1433.37 L1393.83 1433.37 L1393.83 1438.91 Q1395.67 1435.67 1398.63 1434.11 Q1401.59 1432.51 1405.83 1432.51 Q1406.43 1432.51 1407.16 1432.61 Q1407.9 1432.67 1408.79 1432.83 L1408.82 1438.85 Z" fill="#000000" fill-rule="nonzero" fill-opacity="1" /><path clip-path="url(#clip400)" d="M1414.36 1454.95 L1414.36 1433.37 L1420.21 1433.37 L1420.21 1454.73 Q1420.21 1459.79 1422.19 1462.34 Q1424.16 1464.85 1428.11 1464.85 Q1432.85 1464.85 1435.59 1461.83 Q1438.36 1458.8 1438.36 1453.58 L1438.36 1433.37 L1444.21 1433.37 L1444.21 1469.02 L1438.36 1469.02 L1438.36 1463.55 Q1436.22 1466.79 1433.39 1468.38 Q1430.59 1469.94 1426.87 1469.94 Q1420.72 1469.94 1417.54 1466.13 Q1414.36 1462.31 1414.36 1454.95 M1429.09 1432.51 L1429.09 1432.51 Z" fill="#000000" fill-rule="nonzero" fill-opacity="1" /><path clip-path="url(#clip400)" d="M1485.91 1447.51 L1485.91 1469.02 L1480.05 1469.02 L1480.05 1447.7 Q1480.05 1442.64 1478.08 1440.12 Q1476.11 1437.61 1472.16 1437.61 Q1467.42 1437.61 1464.68 1440.63 Q1461.94 1443.65 1461.94 1448.87 L1461.94 1469.02 L1456.05 1469.02 L1456.05 1433.37 L1461.94 1433.37 L1461.94 1438.91 Q1464.04 1435.7 1466.87 1434.11 Q1469.74 1432.51 1473.46 1432.51 Q1479.61 1432.51 1482.76 1436.33 Q1485.91 1440.12 1485.91 1447.51 Z" fill="#000000" fill-rule="nonzero" fill-opacity="1" /><path clip-path="url(#clip400)" d="M1518.31 1433.37 L1524.17 1433.37 L1524.17 1469.02 L1518.31 1469.02 L1518.31 1433.37 M1518.31 1419.5 L1524.17 1419.5 L1524.17 1426.91 L1518.31 1426.91 L1518.31 1419.5 Z" fill="#000000" fill-rule="nonzero" fill-opacity="1" /><path clip-path="url(#clip400)" d="M1566.05 1447.51 L1566.05 1469.02 L1560.2 1469.02 L1560.2 1447.7 Q1560.2 1442.64 1558.22 1440.12 Q1556.25 1437.61 1552.3 1437.61 Q1547.56 1437.61 1544.82 1440.63 Q1542.09 1443.65 1542.09 1448.87 L1542.09 1469.02 L1536.2 1469.02 L1536.2 1433.37 L1542.09 1433.37 L1542.09 1438.91 Q1544.19 1435.7 1547.02 1434.11 Q1549.88 1432.51 1553.61 1432.51 Q1559.75 1432.51 1562.9 1436.33 Q1566.05 1440.12 1566.05 1447.51 Z" fill="#000000" fill-rule="nonzero" fill-opacity="1" /><path clip-path="url(#clip400)" d="M1601.19 1438.78 L1601.19 1419.5 L1607.05 1419.5 L1607.05 1469.02 L1601.19 1469.02 L1601.19 1463.67 Q1599.35 1466.86 1596.51 1468.42 Q1593.71 1469.94 1589.76 1469.94 Q1583.3 1469.94 1579.23 1464.79 Q1575.19 1459.63 1575.19 1451.23 Q1575.19 1442.83 1579.23 1437.67 Q1583.3 1432.51 1589.76 1432.51 Q1593.71 1432.51 1596.51 1434.07 Q1599.35 1435.6 1601.19 1438.78 M1581.23 1451.23 Q1581.23 1457.69 1583.88 1461.38 Q1586.55 1465.04 1591.2 1465.04 Q1595.84 1465.04 1598.52 1461.38 Q1601.19 1457.69 1601.19 1451.23 Q1601.19 1444.77 1598.52 1441.11 Q1595.84 1437.42 1591.2 1437.42 Q1586.55 1437.42 1583.88 1441.11 Q1581.23 1444.77 1581.23 1451.23 Z" fill="#000000" fill-rule="nonzero" fill-opacity="1" /><path clip-path="url(#clip400)" d="M1649.6 1449.73 L1649.6 1452.6 L1622.68 1452.6 Q1623.06 1458.65 1626.3 1461.83 Q1629.58 1464.98 1635.41 1464.98 Q1638.78 1464.98 1641.93 1464.15 Q1645.11 1463.32 1648.23 1461.67 L1648.23 1467.21 Q1645.08 1468.54 1641.77 1469.24 Q1638.46 1469.94 1635.06 1469.94 Q1626.53 1469.94 1621.53 1464.98 Q1616.56 1460.01 1616.56 1451.55 Q1616.56 1442.79 1621.28 1437.67 Q1626.02 1432.51 1634.04 1432.51 Q1641.23 1432.51 1645.4 1437.16 Q1649.6 1441.78 1649.6 1449.73 M1643.75 1448.01 Q1643.68 1443.21 1641.04 1440.34 Q1638.43 1437.48 1634.1 1437.48 Q1629.2 1437.48 1626.24 1440.25 Q1623.31 1443.02 1622.87 1448.05 L1643.75 1448.01 Z" fill="#000000" fill-rule="nonzero" fill-opacity="1" /><path clip-path="url(#clip400)" d="M1687.7 1433.37 L1674.81 1450.72 L1688.37 1469.02 L1681.46 1469.02 L1671.09 1455.02 L1660.71 1469.02 L1653.8 1469.02 L1667.65 1450.37 L1654.98 1433.37 L1661.89 1433.37 L1671.34 1446.07 L1680.79 1433.37 L1687.7 1433.37 Z" fill="#000000" fill-rule="nonzero" fill-opacity="1" /><polyline clip-path="url(#clip402)" style="stroke:#000000; stroke-linecap:round; stroke-linejoin:round; stroke-width:2; stroke-opacity:0.1; fill:none" points="283.843,903.046 2352.76,903.046 "/>
<polyline clip-path="url(#clip402)" style="stroke:#000000; stroke-linecap:round; stroke-linejoin:round; stroke-width:2; stroke-opacity:0.1; fill:none" points="283.843,373.705 2352.76,373.705 "/>
<polyline clip-path="url(#clip400)" style="stroke:#000000; stroke-linecap:round; stroke-linejoin:round; stroke-width:4; stroke-opacity:1; fill:none" points="283.843,1324.16 283.843,47.2441 "/>
<polyline clip-path="url(#clip400)" style="stroke:#000000; stroke-linecap:round; stroke-linejoin:round; stroke-width:4; stroke-opacity:1; fill:none" points="283.843,903.046 302.74,903.046 "/>
<polyline clip-path="url(#clip400)" style="stroke:#000000; stroke-linecap:round; stroke-linejoin:round; stroke-width:4; stroke-opacity:1; fill:none" points="283.843,373.705 302.74,373.705 "/>
<path clip-path="url(#clip400)" d="M116.162 922.838 L123.801 922.838 L123.801 896.473 L115.491 898.139 L115.491 893.88 L123.755 892.213 L128.431 892.213 L128.431 922.838 L136.069 922.838 L136.069 926.773 L116.162 926.773 L116.162 922.838 Z" fill="#000000" fill-rule="nonzero" fill-opacity="1" /><path clip-path="url(#clip400)" d="M155.514 895.292 Q151.903 895.292 150.074 898.857 Q148.268 902.399 148.268 909.528 Q148.268 916.635 150.074 920.199 Q151.903 923.741 155.514 923.741 Q159.148 923.741 160.954 920.199 Q162.782 916.635 162.782 909.528 Q162.782 902.399 160.954 898.857 Q159.148 895.292 155.514 895.292 M155.514 891.588 Q161.324 891.588 164.379 896.195 Q167.458 900.778 167.458 909.528 Q167.458 918.255 164.379 922.861 Q161.324 927.445 155.514 927.445 Q149.704 927.445 146.625 922.861 Q143.569 918.255 143.569 909.528 Q143.569 900.778 146.625 896.195 Q149.704 891.588 155.514 891.588 Z" fill="#000000" fill-rule="nonzero" fill-opacity="1" /><path clip-path="url(#clip400)" d="M172.028 896.166 L185.288 896.166 L185.288 899.363 L167.458 899.363 L167.458 896.166 Q169.621 893.928 173.345 890.166 Q177.088 886.386 178.047 885.295 Q179.871 883.245 180.586 881.834 Q181.319 880.405 181.319 879.032 Q181.319 876.794 179.74 875.383 Q178.179 873.973 175.658 873.973 Q173.872 873.973 171.878 874.593 Q169.903 875.214 167.646 876.474 L167.646 872.637 Q169.941 871.716 171.934 871.245 Q173.928 870.775 175.583 870.775 Q179.946 870.775 182.542 872.957 Q185.137 875.139 185.137 878.787 Q185.137 880.518 184.479 882.079 Q183.84 883.621 182.128 885.727 Q181.658 886.273 179.138 888.887 Q176.617 891.483 172.028 896.166 Z" fill="#000000" fill-rule="nonzero" fill-opacity="1" /><path clip-path="url(#clip400)" d="M193.262 894.586 L197.231 894.586 L197.231 899.363 L193.262 899.363 L193.262 894.586 Z" fill="#000000" fill-rule="nonzero" fill-opacity="1" /><path clip-path="url(#clip400)" d="M208.779 896.166 L222.038 896.166 L222.038 899.363 L204.208 899.363 L204.208 896.166 Q206.371 893.928 210.095 890.166 Q213.838 886.386 214.797 885.295 Q216.622 883.245 217.336 881.834 Q218.07 880.405 218.07 879.032 Q218.07 876.794 216.49 875.383 Q214.929 873.973 212.409 873.973 Q210.622 873.973 208.628 874.593 Q206.654 875.214 204.397 876.474 L204.397 872.637 Q206.691 871.716 208.685 871.245 Q210.678 870.775 212.333 870.775 Q216.697 870.775 219.292 872.957 Q221.888 875.139 221.888 878.787 Q221.888 880.518 221.23 882.079 Q220.59 883.621 218.879 885.727 Q218.408 886.273 215.888 888.887 Q213.368 891.483 208.779 896.166 Z" fill="#000000" fill-rule="nonzero" fill-opacity="1" /><path clip-path="url(#clip400)" d="M238.138 873.784 Q235.204 873.784 233.718 876.681 Q232.251 879.558 232.251 885.351 Q232.251 891.125 233.718 894.022 Q235.204 896.899 238.138 896.899 Q241.091 896.899 242.558 894.022 Q244.043 891.125 244.043 885.351 Q244.043 879.558 242.558 876.681 Q241.091 873.784 238.138 873.784 M238.138 870.775 Q242.858 870.775 245.341 874.518 Q247.843 878.242 247.843 885.351 Q247.843 892.442 245.341 896.184 Q242.858 899.908 238.138 899.908 Q233.417 899.908 230.916 896.184 Q228.433 892.442 228.433 885.351 Q228.433 878.242 230.916 874.518 Q233.417 870.775 238.138 870.775 Z" fill="#000000" fill-rule="nonzero" fill-opacity="1" /><path clip-path="url(#clip400)" d="M116.971 393.497 L124.61 393.497 L124.61 367.132 L116.3 368.798 L116.3 364.539 L124.563 362.873 L129.239 362.873 L129.239 393.497 L136.878 393.497 L136.878 397.433 L116.971 397.433 L116.971 393.497 Z" fill="#000000" fill-rule="nonzero" fill-opacity="1" /><path clip-path="url(#clip400)" d="M156.322 365.951 Q152.711 365.951 150.883 369.516 Q149.077 373.058 149.077 380.187 Q149.077 387.294 150.883 390.858 Q152.711 394.4 156.322 394.4 Q159.957 394.4 161.762 390.858 Q163.591 387.294 163.591 380.187 Q163.591 373.058 161.762 369.516 Q159.957 365.951 156.322 365.951 M156.322 362.248 Q162.133 362.248 165.188 366.854 Q168.267 371.437 168.267 380.187 Q168.267 388.914 165.188 393.52 Q162.133 398.104 156.322 398.104 Q150.512 398.104 147.434 393.52 Q144.378 388.914 144.378 380.187 Q144.378 371.437 147.434 366.854 Q150.512 362.248 156.322 362.248 Z" fill="#000000" fill-rule="nonzero" fill-opacity="1" /><path clip-path="url(#clip400)" d="M172.837 366.825 L186.097 366.825 L186.097 370.022 L168.267 370.022 L168.267 366.825 Q170.43 364.587 174.154 360.825 Q177.896 357.045 178.856 355.954 Q180.68 353.904 181.395 352.493 Q182.128 351.064 182.128 349.691 Q182.128 347.453 180.548 346.042 Q178.987 344.632 176.467 344.632 Q174.68 344.632 172.687 345.252 Q170.712 345.873 168.455 347.133 L168.455 343.296 Q170.749 342.375 172.743 341.904 Q174.737 341.434 176.392 341.434 Q180.755 341.434 183.351 343.616 Q185.946 345.798 185.946 349.446 Q185.946 351.177 185.288 352.738 Q184.648 354.28 182.937 356.386 Q182.467 356.932 179.946 359.546 Q177.426 362.142 172.837 366.825 Z" fill="#000000" fill-rule="nonzero" fill-opacity="1" /><path clip-path="url(#clip400)" d="M194.071 365.245 L198.04 365.245 L198.04 370.022 L194.071 370.022 L194.071 365.245 Z" fill="#000000" fill-rule="nonzero" fill-opacity="1" /><path clip-path="url(#clip400)" d="M209.588 366.825 L222.847 366.825 L222.847 370.022 L205.017 370.022 L205.017 366.825 Q207.18 364.587 210.904 360.825 Q214.647 357.045 215.606 355.954 Q217.43 353.904 218.145 352.493 Q218.879 351.064 218.879 349.691 Q218.879 347.453 217.299 346.042 Q215.738 344.632 213.217 344.632 Q211.431 344.632 209.437 345.252 Q207.462 345.873 205.205 347.133 L205.205 343.296 Q207.5 342.375 209.493 341.904 Q211.487 341.434 213.142 341.434 Q217.506 341.434 220.101 343.616 Q222.697 345.798 222.697 349.446 Q222.697 351.177 222.038 352.738 Q221.399 354.28 219.687 356.386 Q219.217 356.932 216.697 359.546 Q214.177 362.142 209.588 366.825 Z" fill="#000000" fill-rule="nonzero" fill-opacity="1" /><path clip-path="url(#clip400)" d="M230.859 341.942 L245.774 341.942 L245.774 345.139 L234.339 345.139 L234.339 352.023 Q235.166 351.741 235.994 351.609 Q236.821 351.459 237.649 351.459 Q242.351 351.459 245.097 354.036 Q247.843 356.612 247.843 361.013 Q247.843 365.546 245.021 368.066 Q242.2 370.568 237.066 370.568 Q235.298 370.568 233.455 370.267 Q231.63 369.966 229.674 369.364 L229.674 365.546 Q231.367 366.467 233.172 366.919 Q234.978 367.37 236.99 367.37 Q240.244 367.37 242.144 365.659 Q244.043 363.947 244.043 361.013 Q244.043 358.079 242.144 356.368 Q240.244 354.656 236.99 354.656 Q235.467 354.656 233.944 354.995 Q232.439 355.333 230.859 356.048 L230.859 341.942 Z" fill="#000000" fill-rule="nonzero" fill-opacity="1" /><path clip-path="url(#clip400)" d="M42.5411 1005.08 L59.9513 1005.08 L59.9513 994.772 Q59.9513 989.584 57.8188 987.101 Q55.6544 984.587 51.2302 984.587 Q46.7742 984.587 44.6736 987.101 Q42.5411 989.584 42.5411 994.772 L42.5411 1005.08 M22.9983 1005.08 L37.3212 1005.08 L37.3212 995.567 Q37.3212 990.857 35.5706 988.565 Q33.7882 986.242 30.1598 986.242 Q26.5631 986.242 24.7807 988.565 Q22.9983 990.857 22.9983 995.567 L22.9983 1005.08 M17.7148 1011.51 L17.7148 995.09 Q17.7148 987.738 20.7703 983.759 Q23.8259 979.781 29.4595 979.781 Q33.82 979.781 36.3981 981.818 Q38.9763 983.855 39.6128 987.801 Q40.6313 983.059 43.8779 980.449 Q47.0925 977.807 51.9305 977.807 Q58.2962 977.807 61.7655 982.136 Q65.2348 986.465 65.2348 994.453 L65.2348 1011.51 L17.7148 1011.51 Z" fill="#000000" fill-rule="nonzero" fill-opacity="1" /><path clip-path="url(#clip400)" d="M45.9467 936.557 L48.8113 936.557 L48.8113 963.484 Q54.8587 963.102 58.0415 959.856 Q61.1926 956.578 61.1926 950.753 Q61.1926 947.379 60.365 944.228 Q59.5375 941.045 57.8824 937.926 L63.4206 937.926 Q64.7574 941.077 65.4576 944.387 Q66.1578 947.697 66.1578 951.103 Q66.1578 959.633 61.1926 964.63 Q56.2273 969.595 47.7609 969.595 Q39.0081 969.595 33.8837 964.885 Q28.7275 960.142 28.7275 952.122 Q28.7275 944.928 33.3744 940.759 Q37.9896 936.557 45.9467 936.557 M44.228 942.414 Q39.4219 942.477 36.5573 945.119 Q33.6927 947.729 33.6927 952.058 Q33.6927 956.959 36.4618 959.92 Q39.2309 962.848 44.2598 963.293 L44.228 942.414 Z" fill="#000000" fill-rule="nonzero" fill-opacity="1" /><path clip-path="url(#clip400)" d="M30.6372 904.22 L36.1753 904.22 Q34.9022 906.702 34.2656 909.376 Q33.6291 912.049 33.6291 914.914 Q33.6291 919.274 34.9659 921.471 Q36.3027 923.635 38.9763 923.635 Q41.0133 923.635 42.1909 922.075 Q43.3368 920.516 44.3871 915.805 L44.8327 913.8 Q46.1695 907.562 48.6203 904.952 Q51.0393 902.31 55.3998 902.31 Q60.365 902.31 63.2614 906.257 Q66.1578 910.172 66.1578 917.046 Q66.1578 919.911 65.5849 923.03 Q65.0438 926.118 63.9298 929.555 L57.8824 929.555 Q59.5693 926.309 60.4287 923.158 Q61.2562 920.007 61.2562 916.919 Q61.2562 912.781 59.8558 910.553 Q58.4235 908.325 55.8454 908.325 Q53.4582 908.325 52.1851 909.949 Q50.912 911.54 49.7343 916.983 L49.2569 919.02 Q48.111 924.463 45.7557 926.881 Q43.3686 929.3 39.2309 929.3 Q34.202 929.3 31.4647 925.736 Q28.7275 922.171 28.7275 915.614 Q28.7275 912.368 29.2049 909.503 Q29.6823 906.639 30.6372 904.22 Z" fill="#000000" fill-rule="nonzero" fill-opacity="1" /><path clip-path="url(#clip400)" d="M19.4654 887.191 L29.5868 887.191 L29.5868 875.128 L34.1383 875.128 L34.1383 887.191 L53.4901 887.191 Q57.8506 887.191 59.0919 886.014 Q60.3332 884.804 60.3332 881.144 L60.3332 875.128 L65.2348 875.128 L65.2348 881.144 Q65.2348 887.923 62.7203 890.501 Q60.1741 893.08 53.4901 893.08 L34.1383 893.08 L34.1383 897.376 L29.5868 897.376 L29.5868 893.08 L19.4654 893.08 L19.4654 887.191 Z" fill="#000000" fill-rule="nonzero" fill-opacity="1" /><path clip-path="url(#clip400)" d="M33.6927 832.892 Q33.6927 837.602 37.3848 840.34 Q41.0451 843.077 47.4426 843.077 Q53.8402 843.077 57.5323 840.372 Q61.1926 837.634 61.1926 832.892 Q61.1926 828.213 57.5005 825.476 Q53.8084 822.739 47.4426 822.739 Q41.1088 822.739 37.4167 825.476 Q33.6927 828.213 33.6927 832.892 M28.7275 832.892 Q28.7275 825.253 33.6927 820.892 Q38.658 816.532 47.4426 816.532 Q56.1955 816.532 61.1926 820.892 Q66.1578 825.253 66.1578 832.892 Q66.1578 840.563 61.1926 844.923 Q56.1955 849.252 47.4426 849.252 Q38.658 849.252 33.6927 844.923 Q28.7275 840.563 28.7275 832.892 Z" fill="#000000" fill-rule="nonzero" fill-opacity="1" /><path clip-path="url(#clip400)" d="M47.4426 781.234 Q40.9815 781.234 37.3212 783.908 Q33.6291 786.549 33.6291 791.196 Q33.6291 795.843 37.3212 798.517 Q40.9815 801.159 47.4426 801.159 Q53.9038 801.159 57.596 798.517 Q61.2562 795.843 61.2562 791.196 Q61.2562 786.549 57.596 783.908 Q53.9038 781.234 47.4426 781.234 M34.9977 801.159 Q31.8148 799.313 30.2871 796.512 Q28.7275 793.679 28.7275 789.764 Q28.7275 783.271 33.8837 779.229 Q39.0399 775.155 47.4426 775.155 Q55.8454 775.155 61.0016 779.229 Q66.1578 783.271 66.1578 789.764 Q66.1578 793.679 64.6301 796.512 Q63.0705 799.313 59.8876 801.159 L65.2348 801.159 L65.2348 807.047 L15.7096 807.047 L15.7096 801.159 L34.9977 801.159 Z" fill="#000000" fill-rule="nonzero" fill-opacity="1" /><path clip-path="url(#clip400)" d="M29.5868 765.447 L29.5868 759.591 L65.8714 759.591 Q72.6827 759.591 75.7382 762.201 Q78.7938 764.779 78.7938 770.54 L78.7938 772.768 L73.8285 772.768 L73.8285 771.208 Q73.8285 767.866 72.2689 766.657 Q70.7411 765.447 65.8714 765.447 L29.5868 765.447 M15.7096 765.447 L15.7096 759.591 L23.1256 759.591 L23.1256 765.447 L15.7096 765.447 Z" fill="#000000" fill-rule="nonzero" fill-opacity="1" /><path clip-path="url(#clip400)" d="M45.9467 716.845 L48.8113 716.845 L48.8113 743.772 Q54.8587 743.39 58.0415 740.143 Q61.1926 736.865 61.1926 731.041 Q61.1926 727.667 60.365 724.516 Q59.5375 721.333 57.8824 718.214 L63.4206 718.214 Q64.7574 721.365 65.4576 724.675 Q66.1578 727.985 66.1578 731.391 Q66.1578 739.921 61.1926 744.918 Q56.2273 749.883 47.7609 749.883 Q39.0081 749.883 33.8837 745.172 Q28.7275 740.43 28.7275 732.409 Q28.7275 725.216 33.3744 721.046 Q37.9896 716.845 45.9467 716.845 M44.228 722.701 Q39.4219 722.765 36.5573 725.407 Q33.6927 728.017 33.6927 732.346 Q33.6927 737.247 36.4618 740.207 Q39.2309 743.135 44.2598 743.581 L44.228 722.701 Z" fill="#000000" fill-rule="nonzero" fill-opacity="1" /><path clip-path="url(#clip400)" d="M30.9555 681.579 L36.43 681.579 Q35.0613 684.062 34.3929 686.576 Q33.6927 689.059 33.6927 691.605 Q33.6927 697.302 37.3212 700.453 Q40.9178 703.604 47.4426 703.604 Q53.9675 703.604 57.596 700.453 Q61.1926 697.302 61.1926 691.605 Q61.1926 689.059 60.5242 686.576 Q59.8239 684.062 58.4553 681.579 L63.8662 681.579 Q65.012 684.03 65.5849 686.672 Q66.1578 689.281 66.1578 692.242 Q66.1578 700.294 61.0971 705.037 Q56.0364 709.779 47.4426 709.779 Q38.7216 709.779 33.7246 705.005 Q28.7275 700.199 28.7275 691.86 Q28.7275 689.154 29.3004 686.576 Q29.8415 683.998 30.9555 681.579 Z" fill="#000000" fill-rule="nonzero" fill-opacity="1" /><path clip-path="url(#clip400)" d="M19.4654 665.601 L29.5868 665.601 L29.5868 653.538 L34.1383 653.538 L34.1383 665.601 L53.4901 665.601 Q57.8506 665.601 59.0919 664.423 Q60.3332 663.214 60.3332 659.554 L60.3332 653.538 L65.2348 653.538 L65.2348 659.554 Q65.2348 666.333 62.7203 668.911 Q60.1741 671.489 53.4901 671.489 L34.1383 671.489 L34.1383 675.786 L29.5868 675.786 L29.5868 671.489 L19.4654 671.489 L19.4654 665.601 Z" fill="#000000" fill-rule="nonzero" fill-opacity="1" /><path clip-path="url(#clip400)" d="M29.5868 645.836 L29.5868 639.979 L65.2348 639.979 L65.2348 645.836 L29.5868 645.836 M15.7096 645.836 L15.7096 639.979 L23.1256 639.979 L23.1256 645.836 L15.7096 645.836 Z" fill="#000000" fill-rule="nonzero" fill-opacity="1" /><path clip-path="url(#clip400)" d="M29.5868 631.926 L29.5868 625.72 L59.5057 614.58 L29.5868 603.44 L29.5868 597.233 L65.2348 610.601 L65.2348 618.558 L29.5868 631.926 Z" fill="#000000" fill-rule="nonzero" fill-opacity="1" /><path clip-path="url(#clip400)" d="M45.9467 558.657 L48.8113 558.657 L48.8113 585.584 Q54.8587 585.202 58.0415 581.956 Q61.1926 578.677 61.1926 572.853 Q61.1926 569.479 60.365 566.328 Q59.5375 563.145 57.8824 560.026 L63.4206 560.026 Q64.7574 563.177 65.4576 566.487 Q66.1578 569.797 66.1578 573.203 Q66.1578 581.733 61.1926 586.73 Q56.2273 591.695 47.7609 591.695 Q39.0081 591.695 33.8837 586.985 Q28.7275 582.242 28.7275 574.221 Q28.7275 567.028 33.3744 562.859 Q37.9896 558.657 45.9467 558.657 M44.228 564.514 Q39.4219 564.577 36.5573 567.219 Q33.6927 569.829 33.6927 574.158 Q33.6927 579.059 36.4618 582.019 Q39.2309 584.948 44.2598 585.393 L44.228 564.514 Z" fill="#000000" fill-rule="nonzero" fill-opacity="1" /><path clip-path="url(#clip400)" d="M29.5868 532.526 L29.5868 526.319 L59.5057 515.179 L29.5868 504.039 L29.5868 497.833 L65.2348 511.201 L65.2348 519.158 L29.5868 532.526 Z" fill="#000000" fill-rule="nonzero" fill-opacity="1" /><path clip-path="url(#clip400)" d="M47.3153 473.548 Q47.3153 480.645 48.9386 483.383 Q50.5618 486.12 54.4768 486.12 Q57.596 486.12 59.442 484.083 Q61.2562 482.014 61.2562 478.481 Q61.2562 473.611 57.8188 470.683 Q54.3494 467.723 48.6203 467.723 L47.3153 467.723 L47.3153 473.548 M44.8964 461.867 L65.2348 461.867 L65.2348 467.723 L59.8239 467.723 Q63.0705 469.728 64.6301 472.72 Q66.1578 475.712 66.1578 480.041 Q66.1578 485.515 63.1023 488.762 Q60.0149 491.976 54.8587 491.976 Q48.8431 491.976 45.7876 487.966 Q42.732 483.924 42.732 475.935 L42.732 467.723 L42.1591 467.723 Q38.1169 467.723 35.9207 470.397 Q33.6927 473.038 33.6927 477.845 Q33.6927 480.9 34.4248 483.796 Q35.1568 486.693 36.6209 489.366 L31.2101 489.366 Q29.9688 486.152 29.364 483.128 Q28.7275 480.104 28.7275 477.24 Q28.7275 469.505 32.7379 465.686 Q36.7483 461.867 44.8964 461.867 Z" fill="#000000" fill-rule="nonzero" fill-opacity="1" /><path clip-path="url(#clip400)" d="M15.7096 449.804 L15.7096 443.947 L65.2348 443.947 L65.2348 449.804 L15.7096 449.804 Z" fill="#000000" fill-rule="nonzero" fill-opacity="1" /><path clip-path="url(#clip400)" d="M51.1666 432.298 L29.5868 432.298 L29.5868 426.441 L50.9438 426.441 Q56.0045 426.441 58.5508 424.468 Q61.0653 422.495 61.0653 418.548 Q61.0653 413.806 58.0415 411.068 Q55.0178 408.299 49.798 408.299 L29.5868 408.299 L29.5868 402.443 L65.2348 402.443 L65.2348 408.299 L59.7603 408.299 Q63.0068 410.432 64.5982 413.264 Q66.1578 416.065 66.1578 419.789 Q66.1578 425.932 62.3384 429.115 Q58.519 432.298 51.1666 432.298 M28.7275 417.561 L28.7275 417.561 Z" fill="#000000" fill-rule="nonzero" fill-opacity="1" /><path clip-path="url(#clip400)" d="M45.9467 359.888 L48.8113 359.888 L48.8113 386.815 Q54.8587 386.433 58.0415 383.186 Q61.1926 379.908 61.1926 374.084 Q61.1926 370.71 60.365 367.559 Q59.5375 364.376 57.8824 361.257 L63.4206 361.257 Q64.7574 364.408 65.4576 367.718 Q66.1578 371.028 66.1578 374.434 Q66.1578 382.964 61.1926 387.961 Q56.2273 392.926 47.7609 392.926 Q39.0081 392.926 33.8837 388.215 Q28.7275 383.473 28.7275 375.452 Q28.7275 368.259 33.3744 364.089 Q37.9896 359.888 45.9467 359.888 M44.228 365.744 Q39.4219 365.808 36.5573 368.45 Q33.6927 371.06 33.6927 375.389 Q33.6927 380.29 36.4618 383.25 Q39.2309 386.178 44.2598 386.624 L44.228 365.744 Z" fill="#000000" fill-rule="nonzero" fill-opacity="1" /><circle clip-path="url(#clip402)" cx="342.397" cy="1288.02" r="28.8" fill="#009af9" fill-rule="evenodd" fill-opacity="1" stroke="#000000" stroke-opacity="1" stroke-width="3.2"/>
<circle clip-path="url(#clip402)" cx="382.229" cy="1288.02" r="28.8" fill="#009af9" fill-rule="evenodd" fill-opacity="1" stroke="#000000" stroke-opacity="1" stroke-width="3.2"/>
<circle clip-path="url(#clip402)" cx="422.062" cy="1232.07" r="28.8" fill="#e26f46" fill-rule="evenodd" fill-opacity="1" stroke="#000000" stroke-opacity="1" stroke-width="3.2"/>
<circle clip-path="url(#clip402)" cx="461.895" cy="1232.07" r="28.8" fill="#e26f46" fill-rule="evenodd" fill-opacity="1" stroke="#000000" stroke-opacity="1" stroke-width="3.2"/>
<circle clip-path="url(#clip402)" cx="501.728" cy="1232.07" r="28.8" fill="#e26f46" fill-rule="evenodd" fill-opacity="1" stroke="#000000" stroke-opacity="1" stroke-width="3.2"/>
<circle clip-path="url(#clip402)" cx="541.56" cy="1232.07" r="28.8" fill="#e26f46" fill-rule="evenodd" fill-opacity="1" stroke="#000000" stroke-opacity="1" stroke-width="3.2"/>
<circle clip-path="url(#clip402)" cx="581.393" cy="1232.07" r="28.8" fill="#e26f46" fill-rule="evenodd" fill-opacity="1" stroke="#000000" stroke-opacity="1" stroke-width="3.2"/>
<circle clip-path="url(#clip402)" cx="621.226" cy="1232.07" r="28.8" fill="#e26f46" fill-rule="evenodd" fill-opacity="1" stroke="#000000" stroke-opacity="1" stroke-width="3.2"/>
<circle clip-path="url(#clip402)" cx="661.059" cy="1232.07" r="28.8" fill="#e26f46" fill-rule="evenodd" fill-opacity="1" stroke="#000000" stroke-opacity="1" stroke-width="3.2"/>
<circle clip-path="url(#clip402)" cx="700.891" cy="1232.07" r="28.8" fill="#e26f46" fill-rule="evenodd" fill-opacity="1" stroke="#000000" stroke-opacity="1" stroke-width="3.2"/>
<circle clip-path="url(#clip402)" cx="740.724" cy="1232.07" r="28.8" fill="#e26f46" fill-rule="evenodd" fill-opacity="1" stroke="#000000" stroke-opacity="1" stroke-width="3.2"/>
<circle clip-path="url(#clip402)" cx="780.557" cy="1232.07" r="28.8" fill="#e26f46" fill-rule="evenodd" fill-opacity="1" stroke="#000000" stroke-opacity="1" stroke-width="3.2"/>
<circle clip-path="url(#clip402)" cx="820.39" cy="1232.07" r="28.8" fill="#e26f46" fill-rule="evenodd" fill-opacity="1" stroke="#000000" stroke-opacity="1" stroke-width="3.2"/>
<circle clip-path="url(#clip402)" cx="860.223" cy="1232.07" r="28.8" fill="#e26f46" fill-rule="evenodd" fill-opacity="1" stroke="#000000" stroke-opacity="1" stroke-width="3.2"/>
<circle clip-path="url(#clip402)" cx="900.055" cy="1232.07" r="28.8" fill="#e26f46" fill-rule="evenodd" fill-opacity="1" stroke="#000000" stroke-opacity="1" stroke-width="3.2"/>
<circle clip-path="url(#clip402)" cx="939.888" cy="1232.07" r="28.8" fill="#e26f46" fill-rule="evenodd" fill-opacity="1" stroke="#000000" stroke-opacity="1" stroke-width="3.2"/>
<circle clip-path="url(#clip402)" cx="979.721" cy="1232.07" r="28.8" fill="#e26f46" fill-rule="evenodd" fill-opacity="1" stroke="#000000" stroke-opacity="1" stroke-width="3.2"/>
<circle clip-path="url(#clip402)" cx="1019.55" cy="1232.07" r="28.8" fill="#e26f46" fill-rule="evenodd" fill-opacity="1" stroke="#000000" stroke-opacity="1" stroke-width="3.2"/>
<circle clip-path="url(#clip402)" cx="1059.39" cy="1232.07" r="28.8" fill="#e26f46" fill-rule="evenodd" fill-opacity="1" stroke="#000000" stroke-opacity="1" stroke-width="3.2"/>
<circle clip-path="url(#clip402)" cx="1099.22" cy="1232.07" r="28.8" fill="#e26f46" fill-rule="evenodd" fill-opacity="1" stroke="#000000" stroke-opacity="1" stroke-width="3.2"/>
<circle clip-path="url(#clip402)" cx="1139.05" cy="1232.07" r="28.8" fill="#e26f46" fill-rule="evenodd" fill-opacity="1" stroke="#000000" stroke-opacity="1" stroke-width="3.2"/>
<circle clip-path="url(#clip402)" cx="1178.88" cy="1232.07" r="28.8" fill="#e26f46" fill-rule="evenodd" fill-opacity="1" stroke="#000000" stroke-opacity="1" stroke-width="3.2"/>
<circle clip-path="url(#clip402)" cx="1218.72" cy="1232.07" r="28.8" fill="#e26f46" fill-rule="evenodd" fill-opacity="1" stroke="#000000" stroke-opacity="1" stroke-width="3.2"/>
<circle clip-path="url(#clip402)" cx="1258.55" cy="1232.07" r="28.8" fill="#e26f46" fill-rule="evenodd" fill-opacity="1" stroke="#000000" stroke-opacity="1" stroke-width="3.2"/>
<circle clip-path="url(#clip402)" cx="1298.38" cy="1232.07" r="28.8" fill="#e26f46" fill-rule="evenodd" fill-opacity="1" stroke="#000000" stroke-opacity="1" stroke-width="3.2"/>
<circle clip-path="url(#clip402)" cx="1338.22" cy="1232.07" r="28.8" fill="#e26f46" fill-rule="evenodd" fill-opacity="1" stroke="#000000" stroke-opacity="1" stroke-width="3.2"/>
<circle clip-path="url(#clip402)" cx="1378.05" cy="1170.94" r="28.8" fill="#3da44d" fill-rule="evenodd" fill-opacity="1" stroke="#000000" stroke-opacity="1" stroke-width="3.2"/>
<circle clip-path="url(#clip402)" cx="1417.88" cy="1170.94" r="28.8" fill="#3da44d" fill-rule="evenodd" fill-opacity="1" stroke="#000000" stroke-opacity="1" stroke-width="3.2"/>
<circle clip-path="url(#clip402)" cx="1457.71" cy="1170.94" r="28.8" fill="#3da44d" fill-rule="evenodd" fill-opacity="1" stroke="#000000" stroke-opacity="1" stroke-width="3.2"/>
<circle clip-path="url(#clip402)" cx="1497.55" cy="1170.94" r="28.8" fill="#3da44d" fill-rule="evenodd" fill-opacity="1" stroke="#000000" stroke-opacity="1" stroke-width="3.2"/>
<circle clip-path="url(#clip402)" cx="1537.38" cy="1170.94" r="28.8" fill="#3da44d" fill-rule="evenodd" fill-opacity="1" stroke="#000000" stroke-opacity="1" stroke-width="3.2"/>
<circle clip-path="url(#clip402)" cx="1577.21" cy="1170.94" r="28.8" fill="#3da44d" fill-rule="evenodd" fill-opacity="1" stroke="#000000" stroke-opacity="1" stroke-width="3.2"/>
<circle clip-path="url(#clip402)" cx="1617.04" cy="1170.94" r="28.8" fill="#3da44d" fill-rule="evenodd" fill-opacity="1" stroke="#000000" stroke-opacity="1" stroke-width="3.2"/>
<circle clip-path="url(#clip402)" cx="1656.88" cy="1168.81" r="28.8" fill="#3da44d" fill-rule="evenodd" fill-opacity="1" stroke="#000000" stroke-opacity="1" stroke-width="3.2"/>
<circle clip-path="url(#clip402)" cx="1696.71" cy="1168.81" r="28.8" fill="#3da44d" fill-rule="evenodd" fill-opacity="1" stroke="#000000" stroke-opacity="1" stroke-width="3.2"/>
<circle clip-path="url(#clip402)" cx="1736.54" cy="1168.81" r="28.8" fill="#3da44d" fill-rule="evenodd" fill-opacity="1" stroke="#000000" stroke-opacity="1" stroke-width="3.2"/>
<circle clip-path="url(#clip402)" cx="1776.38" cy="1168.81" r="28.8" fill="#3da44d" fill-rule="evenodd" fill-opacity="1" stroke="#000000" stroke-opacity="1" stroke-width="3.2"/>
<circle clip-path="url(#clip402)" cx="1816.21" cy="1168.81" r="28.8" fill="#3da44d" fill-rule="evenodd" fill-opacity="1" stroke="#000000" stroke-opacity="1" stroke-width="3.2"/>
<circle clip-path="url(#clip402)" cx="1856.04" cy="1168.81" r="28.8" fill="#3da44d" fill-rule="evenodd" fill-opacity="1" stroke="#000000" stroke-opacity="1" stroke-width="3.2"/>
<circle clip-path="url(#clip402)" cx="1895.87" cy="1168.81" r="28.8" fill="#3da44d" fill-rule="evenodd" fill-opacity="1" stroke="#000000" stroke-opacity="1" stroke-width="3.2"/>
<circle clip-path="url(#clip402)" cx="1935.71" cy="1168.81" r="28.8" fill="#3da44d" fill-rule="evenodd" fill-opacity="1" stroke="#000000" stroke-opacity="1" stroke-width="3.2"/>
<circle clip-path="url(#clip402)" cx="1975.54" cy="1168.81" r="28.8" fill="#3da44d" fill-rule="evenodd" fill-opacity="1" stroke="#000000" stroke-opacity="1" stroke-width="3.2"/>
<circle clip-path="url(#clip402)" cx="2015.37" cy="1168.81" r="28.8" fill="#3da44d" fill-rule="evenodd" fill-opacity="1" stroke="#000000" stroke-opacity="1" stroke-width="3.2"/>
<circle clip-path="url(#clip402)" cx="2055.21" cy="1168.81" r="28.8" fill="#3da44d" fill-rule="evenodd" fill-opacity="1" stroke="#000000" stroke-opacity="1" stroke-width="3.2"/>
<circle clip-path="url(#clip402)" cx="2095.04" cy="733.978" r="28.8" fill="#c271d2" fill-rule="evenodd" fill-opacity="1" stroke="#000000" stroke-opacity="1" stroke-width="3.2"/>
<circle clip-path="url(#clip402)" cx="2134.87" cy="550.118" r="28.8" fill="#ac8d18" fill-rule="evenodd" fill-opacity="1" stroke="#000000" stroke-opacity="1" stroke-width="3.2"/>
<circle clip-path="url(#clip402)" cx="2174.7" cy="550.118" r="28.8" fill="#ac8d18" fill-rule="evenodd" fill-opacity="1" stroke="#000000" stroke-opacity="1" stroke-width="3.2"/>
<circle clip-path="url(#clip402)" cx="2214.54" cy="550.118" r="28.8" fill="#ac8d18" fill-rule="evenodd" fill-opacity="1" stroke="#000000" stroke-opacity="1" stroke-width="3.2"/>
<circle clip-path="url(#clip402)" cx="2254.37" cy="548.602" r="28.8" fill="#ac8d18" fill-rule="evenodd" fill-opacity="1" stroke="#000000" stroke-opacity="1" stroke-width="3.2"/>
<circle clip-path="url(#clip402)" cx="2294.2" cy="83.3832" r="28.8" fill="#00a9ad" fill-rule="evenodd" fill-opacity="1" stroke="#000000" stroke-opacity="1" stroke-width="3.2"/>
</svg>
