<?xml version="1.0" encoding="utf-8"?>
<svg xmlns="http://www.w3.org/2000/svg" xmlns:xlink="http://www.w3.org/1999/xlink" width="600" height="400" viewBox="0 0 2400 1600">
<defs>
  <clipPath id="clip170">
    <rect x="0" y="0" width="2400" height="1600"/>
  </clipPath>
</defs>
<path clip-path="url(#clip170)" d="M0 1600 L2400 1600 L2400 0 L0 0  Z" fill="#ffffff" fill-rule="evenodd" fill-opacity="1"/>
<defs>
  <clipPath id="clip171">
    <rect x="480" y="0" width="1681" height="1600"/>
  </clipPath>
</defs>
<path clip-path="url(#clip170)" d="M283.843 1339.91 L2352.76 1339.91 L2352.76 62.9921 L283.843 62.9921  Z" fill="#ffffff" fill-rule="evenodd" fill-opacity="1"/>
<defs>
  <clipPath id="clip172">
    <rect x="283" y="62" width="2070" height="1278"/>
  </clipPath>
</defs>
<polyline clip-path="url(#clip172)" style="stroke:#000000; stroke-linecap:round; stroke-linejoin:round; stroke-width:2; stroke-opacity:0.1; fill:none" points="342.397,1339.91 342.397,62.9921 "/>
<polyline clip-path="url(#clip172)" style="stroke:#000000; stroke-linecap:round; stroke-linejoin:round; stroke-width:2; stroke-opacity:0.1; fill:none" points="830.348,1339.91 830.348,62.9921 "/>
<polyline clip-path="url(#clip172)" style="stroke:#000000; stroke-linecap:round; stroke-linejoin:round; stroke-width:2; stroke-opacity:0.1; fill:none" points="1318.3,1339.91 1318.3,62.9921 "/>
<polyline clip-path="url(#clip172)" style="stroke:#000000; stroke-linecap:round; stroke-linejoin:round; stroke-width:2; stroke-opacity:0.1; fill:none" points="1806.25,1339.91 1806.25,62.9921 "/>
<polyline clip-path="url(#clip172)" style="stroke:#000000; stroke-linecap:round; stroke-linejoin:round; stroke-width:2; stroke-opacity:0.1; fill:none" points="2294.2,1339.91 2294.2,62.9921 "/>
<polyline clip-path="url(#clip170)" style="stroke:#000000; stroke-linecap:round; stroke-linejoin:round; stroke-width:4; stroke-opacity:1; fill:none" points="283.843,1339.91 2352.76,1339.91 "/>
<polyline clip-path="url(#clip170)" style="stroke:#000000; stroke-linecap:round; stroke-linejoin:round; stroke-width:4; stroke-opacity:1; fill:none" points="342.397,1339.91 342.397,1321.01 "/>
<polyline clip-path="url(#clip170)" style="stroke:#000000; stroke-linecap:round; stroke-linejoin:round; stroke-width:4; stroke-opacity:1; fill:none" points="830.348,1339.91 830.348,1321.01 "/>
<polyline clip-path="url(#clip170)" style="stroke:#000000; stroke-linecap:round; stroke-linejoin:round; stroke-width:4; stroke-opacity:1; fill:none" points="1318.3,1339.91 1318.3,1321.01 "/>
<polyline clip-path="url(#clip170)" style="stroke:#000000; stroke-linecap:round; stroke-linejoin:round; stroke-width:4; stroke-opacity:1; fill:none" points="1806.25,1339.91 1806.25,1321.01 "/>
<polyline clip-path="url(#clip170)" style="stroke:#000000; stroke-linecap:round; stroke-linejoin:round; stroke-width:4; stroke-opacity:1; fill:none" points="2294.2,1339.91 2294.2,1321.01 "/>
<path clip-path="url(#clip170)" d="M319.781 1370.82 Q316.17 1370.82 314.341 1374.39 Q312.536 1377.93 312.536 1385.06 Q312.536 1392.17 314.341 1395.73 Q316.17 1399.27 319.781 1399.27 Q323.415 1399.27 325.221 1395.73 Q327.05 1392.17 327.05 1385.06 Q327.05 1377.93 325.221 1374.39 Q323.415 1370.82 319.781 1370.82 M319.781 1367.12 Q325.591 1367.12 328.647 1371.73 Q331.725 1376.31 331.725 1385.06 Q331.725 1393.79 328.647 1398.39 Q325.591 1402.98 319.781 1402.98 Q313.971 1402.98 310.892 1398.39 Q307.837 1393.79 307.837 1385.06 Q307.837 1376.31 310.892 1371.73 Q313.971 1367.12 319.781 1367.12 Z" fill="#000000" fill-rule="nonzero" fill-opacity="1" /><path clip-path="url(#clip170)" d="M339.943 1396.43 L344.827 1396.43 L344.827 1402.31 L339.943 1402.31 L339.943 1396.43 Z" fill="#000000" fill-rule="nonzero" fill-opacity="1" /><path clip-path="url(#clip170)" d="M365.012 1370.82 Q361.401 1370.82 359.573 1374.39 Q357.767 1377.93 357.767 1385.06 Q357.767 1392.17 359.573 1395.73 Q361.401 1399.27 365.012 1399.27 Q368.647 1399.27 370.452 1395.73 Q372.281 1392.17 372.281 1385.06 Q372.281 1377.93 370.452 1374.39 Q368.647 1370.82 365.012 1370.82 M365.012 1367.12 Q370.822 1367.12 373.878 1371.73 Q376.957 1376.31 376.957 1385.06 Q376.957 1393.79 373.878 1398.39 Q370.822 1402.98 365.012 1402.98 Q359.202 1402.98 356.123 1398.39 Q353.068 1393.79 353.068 1385.06 Q353.068 1376.31 356.123 1371.73 Q359.202 1367.12 365.012 1367.12 Z" fill="#000000" fill-rule="nonzero" fill-opacity="1" /><path clip-path="url(#clip170)" d="M802.084 1398.37 L818.404 1398.37 L818.404 1402.31 L796.459 1402.31 L796.459 1398.37 Q799.121 1395.62 803.705 1390.99 Q808.311 1386.33 809.492 1384.99 Q811.737 1382.47 812.617 1380.73 Q813.519 1378.97 813.519 1377.28 Q813.519 1374.53 811.575 1372.79 Q809.654 1371.06 806.552 1371.06 Q804.353 1371.06 801.899 1371.82 Q799.468 1372.58 796.691 1374.13 L796.691 1369.41 Q799.515 1368.28 801.968 1367.7 Q804.422 1367.12 806.459 1367.12 Q811.83 1367.12 815.024 1369.81 Q818.218 1372.49 818.218 1376.98 Q818.218 1379.11 817.408 1381.03 Q816.621 1382.93 814.515 1385.52 Q813.936 1386.19 810.834 1389.41 Q807.732 1392.61 802.084 1398.37 Z" fill="#000000" fill-rule="nonzero" fill-opacity="1" /><path clip-path="url(#clip170)" d="M828.218 1396.43 L833.103 1396.43 L833.103 1402.31 L828.218 1402.31 L828.218 1396.43 Z" fill="#000000" fill-rule="nonzero" fill-opacity="1" /><path clip-path="url(#clip170)" d="M843.334 1367.75 L861.69 1367.75 L861.69 1371.68 L847.616 1371.68 L847.616 1380.15 Q848.635 1379.81 849.653 1379.64 Q850.672 1379.46 851.69 1379.46 Q857.477 1379.46 860.857 1382.63 Q864.237 1385.8 864.237 1391.22 Q864.237 1396.8 860.764 1399.9 Q857.292 1402.98 850.973 1402.98 Q848.797 1402.98 846.528 1402.61 Q844.283 1402.24 841.876 1401.5 L841.876 1396.8 Q843.959 1397.93 846.181 1398.49 Q848.403 1399.04 850.88 1399.04 Q854.885 1399.04 857.223 1396.94 Q859.561 1394.83 859.561 1391.22 Q859.561 1387.61 857.223 1385.5 Q854.885 1383.39 850.88 1383.39 Q849.005 1383.39 847.13 1383.81 Q845.278 1384.23 843.334 1385.11 L843.334 1367.75 Z" fill="#000000" fill-rule="nonzero" fill-opacity="1" /><path clip-path="url(#clip170)" d="M1285.46 1367.75 L1303.82 1367.75 L1303.82 1371.68 L1289.75 1371.68 L1289.75 1380.15 Q1290.76 1379.81 1291.78 1379.64 Q1292.8 1379.46 1293.82 1379.46 Q1299.61 1379.46 1302.99 1382.63 Q1306.37 1385.8 1306.37 1391.22 Q1306.37 1396.8 1302.89 1399.9 Q1299.42 1402.98 1293.1 1402.98 Q1290.93 1402.98 1288.66 1402.61 Q1286.41 1402.24 1284.01 1401.5 L1284.01 1396.8 Q1286.09 1397.93 1288.31 1398.49 Q1290.53 1399.04 1293.01 1399.04 Q1297.01 1399.04 1299.35 1396.94 Q1301.69 1394.83 1301.69 1391.22 Q1301.69 1387.61 1299.35 1385.5 Q1297.01 1383.39 1293.01 1383.39 Q1291.14 1383.39 1289.26 1383.81 Q1287.41 1384.23 1285.46 1385.11 L1285.46 1367.75 Z" fill="#000000" fill-rule="nonzero" fill-opacity="1" /><path clip-path="url(#clip170)" d="M1315.58 1396.43 L1320.46 1396.43 L1320.46 1402.31 L1315.58 1402.31 L1315.58 1396.43 Z" fill="#000000" fill-rule="nonzero" fill-opacity="1" /><path clip-path="url(#clip170)" d="M1340.65 1370.82 Q1337.04 1370.82 1335.21 1374.39 Q1333.4 1377.93 1333.4 1385.06 Q1333.4 1392.17 1335.21 1395.73 Q1337.04 1399.27 1340.65 1399.27 Q1344.28 1399.27 1346.09 1395.73 Q1347.92 1392.17 1347.92 1385.06 Q1347.92 1377.93 1346.09 1374.39 Q1344.28 1370.82 1340.65 1370.82 M1340.65 1367.12 Q1346.46 1367.12 1349.51 1371.73 Q1352.59 1376.31 1352.59 1385.06 Q1352.59 1393.79 1349.51 1398.39 Q1346.46 1402.98 1340.65 1402.98 Q1334.84 1402.98 1331.76 1398.39 Q1328.7 1393.79 1328.7 1385.06 Q1328.7 1376.31 1331.76 1371.73 Q1334.84 1367.12 1340.65 1367.12 Z" fill="#000000" fill-rule="nonzero" fill-opacity="1" /><path clip-path="url(#clip170)" d="M1772.57 1367.75 L1794.79 1367.75 L1794.79 1369.74 L1782.25 1402.31 L1777.36 1402.31 L1789.17 1371.68 L1772.57 1371.68 L1772.57 1367.75 Z" fill="#000000" fill-rule="nonzero" fill-opacity="1" /><path clip-path="url(#clip170)" d="M1803.91 1396.43 L1808.8 1396.43 L1808.8 1402.31 L1803.91 1402.31 L1803.91 1396.43 Z" fill="#000000" fill-rule="nonzero" fill-opacity="1" /><path clip-path="url(#clip170)" d="M1819.03 1367.75 L1837.38 1367.75 L1837.38 1371.68 L1823.31 1371.68 L1823.31 1380.15 Q1824.33 1379.81 1825.35 1379.64 Q1826.37 1379.46 1827.38 1379.46 Q1833.17 1379.46 1836.55 1382.63 Q1839.93 1385.8 1839.93 1391.22 Q1839.93 1396.8 1836.46 1399.9 Q1832.99 1402.98 1826.67 1402.98 Q1824.49 1402.98 1822.22 1402.61 Q1819.98 1402.24 1817.57 1401.5 L1817.57 1396.8 Q1819.65 1397.93 1821.88 1398.49 Q1824.1 1399.04 1826.57 1399.04 Q1830.58 1399.04 1832.92 1396.94 Q1835.25 1394.83 1835.25 1391.22 Q1835.25 1387.61 1832.92 1385.5 Q1830.58 1383.39 1826.57 1383.39 Q1824.7 1383.39 1822.82 1383.81 Q1820.97 1384.23 1819.03 1385.11 L1819.03 1367.75 Z" fill="#000000" fill-rule="nonzero" fill-opacity="1" /><path clip-path="url(#clip170)" d="M2246.27 1398.37 L2253.91 1398.37 L2253.91 1372 L2245.6 1373.67 L2245.6 1369.41 L2253.87 1367.75 L2258.54 1367.75 L2258.54 1398.37 L2266.18 1398.37 L2266.18 1402.31 L2246.27 1402.31 L2246.27 1398.37 Z" fill="#000000" fill-rule="nonzero" fill-opacity="1" /><path clip-path="url(#clip170)" d="M2285.63 1370.82 Q2282.01 1370.82 2280.19 1374.39 Q2278.38 1377.93 2278.38 1385.06 Q2278.38 1392.17 2280.19 1395.73 Q2282.01 1399.27 2285.63 1399.27 Q2289.26 1399.27 2291.07 1395.73 Q2292.89 1392.17 2292.89 1385.06 Q2292.89 1377.93 2291.07 1374.39 Q2289.26 1370.82 2285.63 1370.82 M2285.63 1367.12 Q2291.44 1367.12 2294.49 1371.73 Q2297.57 1376.31 2297.57 1385.06 Q2297.57 1393.79 2294.49 1398.39 Q2291.44 1402.98 2285.63 1402.98 Q2279.82 1402.98 2276.74 1398.39 Q2273.68 1393.79 2273.68 1385.06 Q2273.68 1376.31 2276.74 1371.73 Q2279.82 1367.12 2285.63 1367.12 Z" fill="#000000" fill-rule="nonzero" fill-opacity="1" /><path clip-path="url(#clip170)" d="M2305.79 1396.43 L2310.67 1396.43 L2310.67 1402.31 L2305.79 1402.31 L2305.79 1396.43 Z" fill="#000000" fill-rule="nonzero" fill-opacity="1" /><path clip-path="url(#clip170)" d="M2330.86 1370.82 Q2327.25 1370.82 2325.42 1374.39 Q2323.61 1377.93 2323.61 1385.06 Q2323.61 1392.17 2325.42 1395.73 Q2327.25 1399.27 2330.86 1399.27 Q2334.49 1399.27 2336.3 1395.73 Q2338.13 1392.17 2338.13 1385.06 Q2338.13 1377.93 2336.3 1374.39 Q2334.49 1370.82 2330.86 1370.82 M2330.86 1367.12 Q2336.67 1367.12 2339.72 1371.73 Q2342.8 1376.31 2342.8 1385.06 Q2342.8 1393.79 2339.72 1398.39 Q2336.67 1402.98 2330.86 1402.98 Q2325.05 1402.98 2321.97 1398.39 Q2318.91 1393.79 2318.91 1385.06 Q2318.91 1376.31 2321.97 1371.73 Q2325.05 1367.12 2330.86 1367.12 Z" fill="#000000" fill-rule="nonzero" fill-opacity="1" /><polyline clip-path="url(#clip172)" style="stroke:#000000; stroke-linecap:round; stroke-linejoin:round; stroke-width:2; stroke-opacity:0.1; fill:none" points="283.843,1171.63 2352.76,1171.63 "/>
<polyline clip-path="url(#clip172)" style="stroke:#000000; stroke-linecap:round; stroke-linejoin:round; stroke-width:2; stroke-opacity:0.1; fill:none" points="283.843,842.172 2352.76,842.172 "/>
<polyline clip-path="url(#clip172)" style="stroke:#000000; stroke-linecap:round; stroke-linejoin:round; stroke-width:2; stroke-opacity:0.1; fill:none" points="283.843,512.717 2352.76,512.717 "/>
<polyline clip-path="url(#clip172)" style="stroke:#000000; stroke-linecap:round; stroke-linejoin:round; stroke-width:2; stroke-opacity:0.1; fill:none" points="283.843,183.262 2352.76,183.262 "/>
<polyline clip-path="url(#clip170)" style="stroke:#000000; stroke-linecap:round; stroke-linejoin:round; stroke-width:4; stroke-opacity:1; fill:none" points="283.843,1339.91 283.843,62.9921 "/>
<polyline clip-path="url(#clip170)" style="stroke:#000000; stroke-linecap:round; stroke-linejoin:round; stroke-width:4; stroke-opacity:1; fill:none" points="283.843,1171.63 302.74,1171.63 "/>
<polyline clip-path="url(#clip170)" style="stroke:#000000; stroke-linecap:round; stroke-linejoin:round; stroke-width:4; stroke-opacity:1; fill:none" points="283.843,842.172 302.74,842.172 "/>
<polyline clip-path="url(#clip170)" style="stroke:#000000; stroke-linecap:round; stroke-linejoin:round; stroke-width:4; stroke-opacity:1; fill:none" points="283.843,512.717 302.74,512.717 "/>
<polyline clip-path="url(#clip170)" style="stroke:#000000; stroke-linecap:round; stroke-linejoin:round; stroke-width:4; stroke-opacity:1; fill:none" points="283.843,183.262 302.74,183.262 "/>
<path clip-path="url(#clip170)" d="M191.57 1157.43 Q187.959 1157.43 186.13 1160.99 Q184.324 1164.53 184.324 1171.66 Q184.324 1178.77 186.13 1182.33 Q187.959 1185.87 191.57 1185.87 Q195.204 1185.87 197.009 1182.33 Q198.838 1178.77 198.838 1171.66 Q198.838 1164.53 197.009 1160.99 Q195.204 1157.43 191.57 1157.43 M191.57 1153.72 Q197.38 1153.72 200.435 1158.33 Q203.514 1162.91 203.514 1171.66 Q203.514 1180.39 200.435 1185 Q197.38 1189.58 191.57 1189.58 Q185.76 1189.58 182.681 1185 Q179.625 1180.39 179.625 1171.66 Q179.625 1162.91 182.681 1158.33 Q185.76 1153.72 191.57 1153.72 Z" fill="#000000" fill-rule="nonzero" fill-opacity="1" /><path clip-path="url(#clip170)" d="M211.732 1183.03 L216.616 1183.03 L216.616 1188.91 L211.732 1188.91 L211.732 1183.03 Z" fill="#000000" fill-rule="nonzero" fill-opacity="1" /><path clip-path="url(#clip170)" d="M225.62 1154.35 L247.843 1154.35 L247.843 1156.34 L235.296 1188.91 L230.412 1188.91 L242.218 1158.28 L225.62 1158.28 L225.62 1154.35 Z" fill="#000000" fill-rule="nonzero" fill-opacity="1" /><path clip-path="url(#clip170)" d="M190.759 827.971 Q187.148 827.971 185.32 831.536 Q183.514 835.077 183.514 842.207 Q183.514 849.313 185.32 852.878 Q187.148 856.42 190.759 856.42 Q194.394 856.42 196.199 852.878 Q198.028 849.313 198.028 842.207 Q198.028 835.077 196.199 831.536 Q194.394 827.971 190.759 827.971 M190.759 824.267 Q196.57 824.267 199.625 828.874 Q202.704 833.457 202.704 842.207 Q202.704 850.934 199.625 855.54 Q196.57 860.123 190.759 860.123 Q184.949 860.123 181.871 855.54 Q178.815 850.934 178.815 842.207 Q178.815 833.457 181.871 828.874 Q184.949 824.267 190.759 824.267 Z" fill="#000000" fill-rule="nonzero" fill-opacity="1" /><path clip-path="url(#clip170)" d="M210.921 853.573 L215.806 853.573 L215.806 859.452 L210.921 859.452 L210.921 853.573 Z" fill="#000000" fill-rule="nonzero" fill-opacity="1" /><path clip-path="url(#clip170)" d="M235.991 843.04 Q232.657 843.04 230.736 844.823 Q228.838 846.605 228.838 849.73 Q228.838 852.855 230.736 854.637 Q232.657 856.42 235.991 856.42 Q239.324 856.42 241.245 854.637 Q243.167 852.832 243.167 849.73 Q243.167 846.605 241.245 844.823 Q239.347 843.04 235.991 843.04 M231.315 841.05 Q228.306 840.309 226.616 838.249 Q224.949 836.188 224.949 833.225 Q224.949 829.082 227.889 826.675 Q230.852 824.267 235.991 824.267 Q241.153 824.267 244.093 826.675 Q247.032 829.082 247.032 833.225 Q247.032 836.188 245.343 838.249 Q243.676 840.309 240.69 841.05 Q244.069 841.837 245.944 844.128 Q247.843 846.42 247.843 849.73 Q247.843 854.753 244.764 857.438 Q241.708 860.123 235.991 860.123 Q230.273 860.123 227.194 857.438 Q224.139 854.753 224.139 849.73 Q224.139 846.42 226.037 844.128 Q227.935 841.837 231.315 841.05 M229.602 833.665 Q229.602 836.35 231.269 837.855 Q232.958 839.36 235.991 839.36 Q239 839.36 240.69 837.855 Q242.403 836.35 242.403 833.665 Q242.403 830.98 240.69 829.476 Q239 827.971 235.991 827.971 Q232.958 827.971 231.269 829.476 Q229.602 830.98 229.602 833.665 Z" fill="#000000" fill-rule="nonzero" fill-opacity="1" /><path clip-path="url(#clip170)" d="M190.852 498.516 Q187.241 498.516 185.412 502.081 Q183.607 505.622 183.607 512.752 Q183.607 519.858 185.412 523.423 Q187.241 526.965 190.852 526.965 Q194.486 526.965 196.292 523.423 Q198.121 519.858 198.121 512.752 Q198.121 505.622 196.292 502.081 Q194.486 498.516 190.852 498.516 M190.852 494.812 Q196.662 494.812 199.718 499.418 Q202.796 504.002 202.796 512.752 Q202.796 521.479 199.718 526.085 Q196.662 530.668 190.852 530.668 Q185.042 530.668 181.963 526.085 Q178.908 521.479 178.908 512.752 Q178.908 504.002 181.963 499.418 Q185.042 494.812 190.852 494.812 Z" fill="#000000" fill-rule="nonzero" fill-opacity="1" /><path clip-path="url(#clip170)" d="M211.014 524.117 L215.898 524.117 L215.898 529.997 L211.014 529.997 L211.014 524.117 Z" fill="#000000" fill-rule="nonzero" fill-opacity="1" /><path clip-path="url(#clip170)" d="M226.222 529.279 L226.222 525.02 Q227.982 525.854 229.787 526.293 Q231.593 526.733 233.329 526.733 Q237.958 526.733 240.389 523.631 Q242.843 520.506 243.19 514.164 Q241.847 516.155 239.787 517.219 Q237.727 518.284 235.227 518.284 Q230.042 518.284 227.009 515.159 Q224 512.011 224 506.571 Q224 501.247 227.148 498.03 Q230.296 494.812 235.528 494.812 Q241.523 494.812 244.671 499.418 Q247.843 504.002 247.843 512.752 Q247.843 520.923 243.954 525.807 Q240.088 530.668 233.537 530.668 Q231.778 530.668 229.972 530.321 Q228.167 529.974 226.222 529.279 M235.528 514.627 Q238.676 514.627 240.505 512.474 Q242.356 510.321 242.356 506.571 Q242.356 502.844 240.505 500.692 Q238.676 498.516 235.528 498.516 Q232.38 498.516 230.528 500.692 Q228.699 502.844 228.699 506.571 Q228.699 510.321 230.528 512.474 Q232.38 514.627 235.528 514.627 Z" fill="#000000" fill-rule="nonzero" fill-opacity="1" /><path clip-path="url(#clip170)" d="M181.477 196.607 L189.116 196.607 L189.116 170.241 L180.806 171.908 L180.806 167.649 L189.07 165.982 L193.746 165.982 L193.746 196.607 L201.384 196.607 L201.384 200.542 L181.477 200.542 L181.477 196.607 Z" fill="#000000" fill-rule="nonzero" fill-opacity="1" /><path clip-path="url(#clip170)" d="M210.829 194.662 L215.713 194.662 L215.713 200.542 L210.829 200.542 L210.829 194.662 Z" fill="#000000" fill-rule="nonzero" fill-opacity="1" /><path clip-path="url(#clip170)" d="M235.898 169.061 Q232.287 169.061 230.458 172.625 Q228.653 176.167 228.653 183.297 Q228.653 190.403 230.458 193.968 Q232.287 197.509 235.898 197.509 Q239.532 197.509 241.338 193.968 Q243.167 190.403 243.167 183.297 Q243.167 176.167 241.338 172.625 Q239.532 169.061 235.898 169.061 M235.898 165.357 Q241.708 165.357 244.764 169.963 Q247.843 174.547 247.843 183.297 Q247.843 192.023 244.764 196.63 Q241.708 201.213 235.898 201.213 Q230.088 201.213 227.009 196.63 Q223.954 192.023 223.954 183.297 Q223.954 174.547 227.009 169.963 Q230.088 165.357 235.898 165.357 Z" fill="#000000" fill-rule="nonzero" fill-opacity="1" /><path clip-path="url(#clip170)" d="M84.6994 889.094 L91.4789 889.094 Q88.4552 892.34 86.9592 896.033 Q85.4633 899.693 85.4633 903.831 Q85.4633 911.979 90.4604 916.307 Q95.4256 920.636 104.847 920.636 Q114.236 920.636 119.233 916.307 Q124.199 911.979 124.199 903.831 Q124.199 899.693 122.703 896.033 Q121.207 892.34 118.183 889.094 L124.899 889.094 Q127.19 892.468 128.336 896.255 Q129.482 900.011 129.482 904.212 Q129.482 915.002 122.894 921.209 Q116.273 927.415 104.847 927.415 Q93.3886 927.415 86.8001 921.209 Q80.1797 915.002 80.1797 904.212 Q80.1797 899.947 81.3256 896.192 Q82.4396 892.404 84.6994 889.094 Z" fill="#000000" fill-rule="nonzero" fill-opacity="1" /><path clip-path="url(#clip170)" d="M97.017 865.604 Q97.017 870.315 100.709 873.052 Q104.369 875.79 110.767 875.79 Q117.164 875.79 120.857 873.084 Q124.517 870.347 124.517 865.604 Q124.517 860.926 120.825 858.188 Q117.133 855.451 110.767 855.451 Q104.433 855.451 100.741 858.188 Q97.017 860.926 97.017 865.604 M92.0518 865.604 Q92.0518 857.966 97.017 853.605 Q101.982 849.245 110.767 849.245 Q119.52 849.245 124.517 853.605 Q129.482 857.966 129.482 865.604 Q129.482 873.275 124.517 877.636 Q119.52 881.964 110.767 881.964 Q101.982 881.964 97.017 877.636 Q92.0518 873.275 92.0518 865.604 Z" fill="#000000" fill-rule="nonzero" fill-opacity="1" /><path clip-path="url(#clip170)" d="M107.043 809.905 L128.559 809.905 L128.559 815.761 L107.234 815.761 Q102.173 815.761 99.6588 817.734 Q97.1443 819.708 97.1443 823.654 Q97.1443 828.397 100.168 831.134 Q103.192 833.871 108.412 833.871 L128.559 833.871 L128.559 839.76 L92.9112 839.76 L92.9112 833.871 L98.4493 833.871 Q95.2346 831.771 93.6432 828.938 Q92.0518 826.073 92.0518 822.35 Q92.0518 816.207 95.8712 813.056 Q99.6588 809.905 107.043 809.905 Z" fill="#000000" fill-rule="nonzero" fill-opacity="1" /><path clip-path="url(#clip170)" d="M94.2798 772.57 L99.7543 772.57 Q98.3857 775.052 97.7173 777.567 Q97.017 780.049 97.017 782.596 Q97.017 788.293 100.645 791.444 Q104.242 794.595 110.767 794.595 Q117.292 794.595 120.92 791.444 Q124.517 788.293 124.517 782.596 Q124.517 780.049 123.848 777.567 Q123.148 775.052 121.78 772.57 L127.19 772.57 Q128.336 775.02 128.909 777.662 Q129.482 780.272 129.482 783.232 Q129.482 791.285 124.421 796.027 Q119.361 800.77 110.767 800.77 Q102.046 800.77 97.0489 795.995 Q92.0518 791.189 92.0518 782.85 Q92.0518 780.145 92.6247 777.567 Q93.1658 774.989 94.2798 772.57 Z" fill="#000000" fill-rule="nonzero" fill-opacity="1" /><path clip-path="url(#clip170)" d="M109.271 731.893 L112.136 731.893 L112.136 758.82 Q118.183 758.438 121.366 755.191 Q124.517 751.913 124.517 746.088 Q124.517 742.715 123.689 739.563 Q122.862 736.381 121.207 733.261 L126.745 733.261 Q128.082 736.412 128.782 739.723 Q129.482 743.033 129.482 746.438 Q129.482 754.968 124.517 759.966 Q119.552 764.931 111.085 764.931 Q102.332 764.931 97.208 760.22 Q92.0518 755.478 92.0518 747.457 Q92.0518 740.264 96.6988 736.094 Q101.314 731.893 109.271 731.893 M107.552 737.749 Q102.746 737.813 99.8816 740.455 Q97.017 743.065 97.017 747.393 Q97.017 752.295 99.7861 755.255 Q102.555 758.183 107.584 758.629 L107.552 737.749 Z" fill="#000000" fill-rule="nonzero" fill-opacity="1" /><path clip-path="url(#clip170)" d="M107.043 692.648 L128.559 692.648 L128.559 698.505 L107.234 698.505 Q102.173 698.505 99.6588 700.478 Q97.1443 702.451 97.1443 706.398 Q97.1443 711.141 100.168 713.878 Q103.192 716.615 108.412 716.615 L128.559 716.615 L128.559 722.503 L92.9112 722.503 L92.9112 716.615 L98.4493 716.615 Q95.2346 714.514 93.6432 711.682 Q92.0518 708.817 92.0518 705.093 Q92.0518 698.95 95.8712 695.799 Q99.6588 692.648 107.043 692.648 Z" fill="#000000" fill-rule="nonzero" fill-opacity="1" /><path clip-path="url(#clip170)" d="M82.7897 675.174 L92.9112 675.174 L92.9112 663.111 L97.4626 663.111 L97.4626 675.174 L116.814 675.174 Q121.175 675.174 122.416 673.997 Q123.658 672.787 123.658 669.127 L123.658 663.111 L128.559 663.111 L128.559 669.127 Q128.559 675.906 126.045 678.485 Q123.498 681.063 116.814 681.063 L97.4626 681.063 L97.4626 685.359 L92.9112 685.359 L92.9112 681.063 L82.7897 681.063 L82.7897 675.174 Z" fill="#000000" fill-rule="nonzero" fill-opacity="1" /><path clip-path="url(#clip170)" d="M98.3857 634.752 Q97.8127 635.739 97.5581 636.916 Q97.2717 638.062 97.2717 639.463 Q97.2717 644.428 100.518 647.102 Q103.733 649.743 109.78 649.743 L128.559 649.743 L128.559 655.632 L92.9112 655.632 L92.9112 649.743 L98.4493 649.743 Q95.2028 647.897 93.6432 644.937 Q92.0518 641.977 92.0518 637.744 Q92.0518 637.139 92.1473 636.407 Q92.2109 635.675 92.3701 634.784 L98.3857 634.752 Z" fill="#000000" fill-rule="nonzero" fill-opacity="1" /><path clip-path="url(#clip170)" d="M110.64 612.408 Q110.64 619.506 112.263 622.244 Q113.886 624.981 117.801 624.981 Q120.92 624.981 122.766 622.944 Q124.581 620.875 124.581 617.342 Q124.581 612.472 121.143 609.544 Q117.674 606.584 111.945 606.584 L110.64 606.584 L110.64 612.408 M108.221 600.727 L128.559 600.727 L128.559 606.584 L123.148 606.584 Q126.395 608.589 127.954 611.581 Q129.482 614.573 129.482 618.902 Q129.482 624.376 126.427 627.623 Q123.339 630.837 118.183 630.837 Q112.167 630.837 109.112 626.827 Q106.056 622.785 106.056 614.796 L106.056 606.584 L105.483 606.584 Q101.441 606.584 99.245 609.257 Q97.017 611.899 97.017 616.705 Q97.017 619.761 97.7491 622.657 Q98.4811 625.554 99.9453 628.227 L94.5344 628.227 Q93.2931 625.013 92.6884 621.989 Q92.0518 618.965 92.0518 616.101 Q92.0518 608.366 96.0622 604.547 Q100.073 600.727 108.221 600.727 Z" fill="#000000" fill-rule="nonzero" fill-opacity="1" /><path clip-path="url(#clip170)" d="M82.7897 582.872 L92.9112 582.872 L92.9112 570.809 L97.4626 570.809 L97.4626 582.872 L116.814 582.872 Q121.175 582.872 122.416 581.694 Q123.658 580.484 123.658 576.824 L123.658 570.809 L128.559 570.809 L128.559 576.824 Q128.559 583.604 126.045 586.182 Q123.498 588.76 116.814 588.76 L97.4626 588.76 L97.4626 593.057 L92.9112 593.057 L92.9112 588.76 L82.7897 588.76 L82.7897 582.872 Z" fill="#000000" fill-rule="nonzero" fill-opacity="1" /><path clip-path="url(#clip170)" d="M92.9112 563.106 L92.9112 557.25 L128.559 557.25 L128.559 563.106 L92.9112 563.106 M79.0339 563.106 L79.0339 557.25 L86.45 557.25 L86.45 563.106 L79.0339 563.106 Z" fill="#000000" fill-rule="nonzero" fill-opacity="1" /><path clip-path="url(#clip170)" d="M97.017 531.182 Q97.017 535.893 100.709 538.63 Q104.369 541.367 110.767 541.367 Q117.164 541.367 120.857 538.662 Q124.517 535.925 124.517 531.182 Q124.517 526.503 120.825 523.766 Q117.133 521.029 110.767 521.029 Q104.433 521.029 100.741 523.766 Q97.017 526.503 97.017 531.182 M92.0518 531.182 Q92.0518 523.543 97.017 519.183 Q101.982 514.822 110.767 514.822 Q119.52 514.822 124.517 519.183 Q129.482 523.543 129.482 531.182 Q129.482 538.853 124.517 543.213 Q119.52 547.542 110.767 547.542 Q101.982 547.542 97.017 543.213 Q92.0518 538.853 92.0518 531.182 Z" fill="#000000" fill-rule="nonzero" fill-opacity="1" /><path clip-path="url(#clip170)" d="M107.043 475.482 L128.559 475.482 L128.559 481.339 L107.234 481.339 Q102.173 481.339 99.6588 483.312 Q97.1443 485.285 97.1443 489.232 Q97.1443 493.975 100.168 496.712 Q103.192 499.449 108.412 499.449 L128.559 499.449 L128.559 505.337 L92.9112 505.337 L92.9112 499.449 L98.4493 499.449 Q95.2346 497.348 93.6432 494.516 Q92.0518 491.651 92.0518 487.927 Q92.0518 481.784 95.8712 478.633 Q99.6588 475.482 107.043 475.482 Z" fill="#000000" fill-rule="nonzero" fill-opacity="1" /><path clip-path="url(#clip170)" d="M1311.11 28.9478 L1311.11 35.9153 Q1307.95 34.1734 1304.75 33.3227 Q1301.59 32.4315 1298.35 32.4315 Q1291.1 32.4315 1287.09 37.0496 Q1283.08 41.6271 1283.08 49.9314 Q1283.08 58.2358 1287.09 62.8538 Q1291.1 67.4314 1298.35 67.4314 Q1301.59 67.4314 1304.75 66.5807 Q1307.95 65.6895 1311.11 63.9476 L1311.11 70.8341 Q1307.99 72.2924 1304.63 73.0216 Q1301.31 73.7508 1297.54 73.7508 Q1287.29 73.7508 1281.25 67.3098 Q1275.22 60.8689 1275.22 49.9314 Q1275.22 38.832 1281.29 32.472 Q1287.41 26.1121 1298.02 26.1121 Q1301.47 26.1121 1304.75 26.8413 Q1308.03 27.5299 1311.11 28.9478 Z" fill="#000000" fill-rule="nonzero" fill-opacity="1" /><path clip-path="url(#clip170)" d="M1326.54 65.6895 L1339.91 65.6895 L1339.91 19.5497 L1325.37 22.4663 L1325.37 15.0127 L1339.83 12.096 L1348.01 12.096 L1348.01 65.6895 L1361.38 65.6895 L1361.38 72.576 L1326.54 72.576 L1326.54 65.6895 Z" fill="#000000" fill-rule="nonzero" fill-opacity="1" /><circle clip-path="url(#clip172)" cx="537.577" cy="1158.66" r="14.4" fill="#009af9" fill-rule="evenodd" fill-opacity="1" stroke="#000000" stroke-opacity="1" stroke-width="3.2"/>
<circle clip-path="url(#clip172)" cx="732.758" cy="1029.04" r="14.4" fill="#009af9" fill-rule="evenodd" fill-opacity="1" stroke="#000000" stroke-opacity="1" stroke-width="3.2"/>
<circle clip-path="url(#clip172)" cx="927.938" cy="862.768" r="14.4" fill="#009af9" fill-rule="evenodd" fill-opacity="1" stroke="#000000" stroke-opacity="1" stroke-width="3.2"/>
<circle clip-path="url(#clip172)" cx="1123.12" cy="989.187" r="14.4" fill="#009af9" fill-rule="evenodd" fill-opacity="1" stroke="#000000" stroke-opacity="1" stroke-width="3.2"/>
<circle clip-path="url(#clip172)" cx="1318.3" cy="863.319" r="14.4" fill="#009af9" fill-rule="evenodd" fill-opacity="1" stroke="#000000" stroke-opacity="1" stroke-width="3.2"/>
<circle clip-path="url(#clip172)" cx="1513.48" cy="1063.08" r="14.4" fill="#009af9" fill-rule="evenodd" fill-opacity="1" stroke="#000000" stroke-opacity="1" stroke-width="3.2"/>
<circle clip-path="url(#clip172)" cx="1708.66" cy="776.398" r="14.4" fill="#009af9" fill-rule="evenodd" fill-opacity="1" stroke="#000000" stroke-opacity="1" stroke-width="3.2"/>
<circle clip-path="url(#clip172)" cx="1903.84" cy="380.998" r="14.4" fill="#009af9" fill-rule="evenodd" fill-opacity="1" stroke="#000000" stroke-opacity="1" stroke-width="3.2"/>
<circle clip-path="url(#clip172)" cx="2099.02" cy="99.1312" r="14.4" fill="#009af9" fill-rule="evenodd" fill-opacity="1" stroke="#000000" stroke-opacity="1" stroke-width="3.2"/>
<circle clip-path="url(#clip172)" cx="2294.2" cy="474.564" r="14.4" fill="#009af9" fill-rule="evenodd" fill-opacity="1" stroke="#000000" stroke-opacity="1" stroke-width="3.2"/>
<polyline clip-path="url(#clip172)" style="stroke:#009af9; stroke-linecap:round; stroke-linejoin:round; stroke-width:4; stroke-opacity:1; fill:none" points="342.397,183.262 344.387,207.572 347.054,239.347 350.261,276.413 354.093,319.107 358.473,365.875 363.403,416.054 368.833,468.465 374.74,522.292 381.091,576.675 387.863,630.953 395.034,684.539 402.587,736.978 410.511,787.894 418.796,836.999 427.439,884.065 436.437,928.919 445.791,971.431 455.503,1011.5 465.58,1049.07 476.029,1084.08 486.857,1116.5 498.076,1146.32 509.697,1173.52 521.734,1198.1 534.202,1220.08 547.118,1239.46 560.498,1256.26 574.364,1270.48 588.736,1282.16 603.64,1291.31 619.102,1297.95 635.152,1302.1 651.825,1303.77 669.16,1302.97 687.204,1299.72 706.012,1294.01 725.652,1285.83 746.206,1275.16 767.783,1261.93 790.529,1246.06 814.656,1227.4 840.501,1205.64 868.697,1180.2 900.963,1149.34 942.349,1107.74 973.902,1074.94 1008.52,1038.27 1043.14,1001.2 1077.75,964.027 1112.37,926.982 1146.99,890.278 1181.61,854.094 1216.23,818.585 1250.84,783.881 1285.46,750.091 1320.08,717.308 1354.7,685.607 1389.47,654.907 1424.52,625.178 1459.97,596.387 1495.91,568.518 1532.45,541.563 1569.7,515.519 1607.77,490.388 1646.77,466.177 1686.81,442.895 1728.02,420.555 1770.55,399.167 1814.54,378.748 1860.17,359.309 1907.63,340.867 1957.14,323.434 2008.96,307.024 2063.37,291.65 2120.71,277.324 2181.37,264.059 2245.8,251.864 2294.2,243.848 "/>
<path clip-path="url(#clip170)" d="M1766.76 1297.34 L2283.79 1297.34 L2283.79 1141.82 L1766.76 1141.82  Z" fill="#ffffff" fill-rule="evenodd" fill-opacity="1"/>
<polyline clip-path="url(#clip170)" style="stroke:#000000; stroke-linecap:round; stroke-linejoin:round; stroke-width:4; stroke-opacity:1; fill:none" points="1766.76,1297.34 2283.79,1297.34 2283.79,1141.82 1766.76,1141.82 1766.76,1297.34 "/>
<circle clip-path="url(#clip170)" cx="1858.72" cy="1193.66" r="20.48" fill="#009af9" fill-rule="evenodd" fill-opacity="1" stroke="#000000" stroke-opacity="1" stroke-width="4.55111"/>
<path clip-path="url(#clip170)" d="M1950.67 1176.38 L1972.52 1176.38 L1972.52 1180.32 L1955.34 1180.32 L1955.34 1190.55 L1971.8 1190.55 L1971.8 1194.48 L1955.34 1194.48 L1955.34 1207.01 L1972.94 1207.01 L1972.94 1210.94 L1950.67 1210.94 L1950.67 1176.38 Z" fill="#000000" fill-rule="nonzero" fill-opacity="1" /><path clip-path="url(#clip170)" d="M2005.74 1174.97 Q2002.63 1180.29 2001.13 1185.5 Q1999.63 1190.71 1999.63 1196.06 Q1999.63 1201.4 2001.13 1206.66 Q2002.66 1211.89 2005.74 1217.19 L2002.03 1217.19 Q1998.56 1211.75 1996.82 1206.5 Q1995.11 1201.24 1995.11 1196.06 Q1995.11 1190.9 1996.82 1185.66 Q1998.54 1180.43 2002.03 1174.97 L2005.74 1174.97 Z" fill="#000000" fill-rule="nonzero" fill-opacity="1" /><path clip-path="url(#clip170)" d="M2034.19 1189.99 Q2035.78 1187.12 2038 1185.76 Q2040.23 1184.39 2043.24 1184.39 Q2047.29 1184.39 2049.49 1187.24 Q2051.68 1190.06 2051.68 1195.29 L2051.68 1210.94 L2047.4 1210.94 L2047.4 1195.43 Q2047.4 1191.71 2046.08 1189.9 Q2044.76 1188.09 2042.06 1188.09 Q2038.75 1188.09 2036.82 1190.29 Q2034.9 1192.49 2034.9 1196.29 L2034.9 1210.94 L2030.62 1210.94 L2030.62 1195.43 Q2030.62 1191.68 2029.3 1189.9 Q2027.98 1188.09 2025.23 1188.09 Q2021.96 1188.09 2020.04 1190.32 Q2018.12 1192.52 2018.12 1196.29 L2018.12 1210.94 L2013.84 1210.94 L2013.84 1185.02 L2018.12 1185.02 L2018.12 1189.04 Q2019.58 1186.66 2021.62 1185.53 Q2023.65 1184.39 2026.45 1184.39 Q2029.28 1184.39 2031.25 1185.83 Q2033.24 1187.26 2034.19 1189.99 Z" fill="#000000" fill-rule="nonzero" fill-opacity="1" /><path clip-path="url(#clip170)" d="M2082.36 1196.91 L2082.36 1199 L2062.77 1199 Q2063.05 1203.4 2065.41 1205.71 Q2067.8 1208 2072.03 1208 Q2074.49 1208 2076.78 1207.4 Q2079.09 1206.8 2081.36 1205.59 L2081.36 1209.62 Q2079.07 1210.59 2076.66 1211.1 Q2074.25 1211.61 2071.78 1211.61 Q2065.57 1211.61 2061.94 1208 Q2058.33 1204.39 2058.33 1198.23 Q2058.33 1191.87 2061.75 1188.14 Q2065.2 1184.39 2071.04 1184.39 Q2076.27 1184.39 2079.3 1187.77 Q2082.36 1191.13 2082.36 1196.91 M2078.1 1195.66 Q2078.05 1192.17 2076.13 1190.09 Q2074.23 1188 2071.08 1188 Q2067.52 1188 2065.37 1190.02 Q2063.24 1192.03 2062.91 1195.69 L2078.1 1195.66 Z" fill="#000000" fill-rule="nonzero" fill-opacity="1" /><path clip-path="url(#clip170)" d="M2101.13 1197.91 Q2095.97 1197.91 2093.98 1199.09 Q2091.99 1200.27 2091.99 1203.12 Q2091.99 1205.39 2093.47 1206.73 Q2094.97 1208.05 2097.54 1208.05 Q2101.08 1208.05 2103.21 1205.55 Q2105.37 1203.03 2105.37 1198.86 L2105.37 1197.91 L2101.13 1197.91 M2109.62 1196.15 L2109.62 1210.94 L2105.37 1210.94 L2105.37 1207.01 Q2103.91 1209.37 2101.73 1210.5 Q2099.56 1211.61 2096.41 1211.61 Q2092.43 1211.61 2090.06 1209.39 Q2087.73 1207.15 2087.73 1203.4 Q2087.73 1199.02 2090.64 1196.8 Q2093.58 1194.58 2099.39 1194.58 L2105.37 1194.58 L2105.37 1194.16 Q2105.37 1191.22 2103.42 1189.62 Q2101.5 1188 2098 1188 Q2095.78 1188 2093.68 1188.53 Q2091.57 1189.07 2089.62 1190.13 L2089.62 1186.2 Q2091.96 1185.29 2094.16 1184.85 Q2096.36 1184.39 2098.44 1184.39 Q2104.07 1184.39 2106.85 1187.31 Q2109.62 1190.22 2109.62 1196.15 Z" fill="#000000" fill-rule="nonzero" fill-opacity="1" /><path clip-path="url(#clip170)" d="M2134.93 1185.78 L2134.93 1189.81 Q2133.12 1188.88 2131.18 1188.42 Q2129.23 1187.96 2127.15 1187.96 Q2123.98 1187.96 2122.38 1188.93 Q2120.8 1189.9 2120.8 1191.84 Q2120.8 1193.33 2121.94 1194.18 Q2123.07 1195.02 2126.5 1195.78 L2127.96 1196.1 Q2132.49 1197.08 2134.39 1198.86 Q2136.31 1200.62 2136.31 1203.79 Q2136.31 1207.4 2133.44 1209.51 Q2130.6 1211.61 2125.6 1211.61 Q2123.51 1211.61 2121.24 1211.2 Q2119 1210.8 2116.5 1209.99 L2116.5 1205.59 Q2118.86 1206.82 2121.15 1207.45 Q2123.44 1208.05 2125.69 1208.05 Q2128.7 1208.05 2130.32 1207.03 Q2131.94 1205.99 2131.94 1204.11 Q2131.94 1202.38 2130.76 1201.45 Q2129.6 1200.53 2125.64 1199.67 L2124.16 1199.32 Q2120.2 1198.49 2118.44 1196.78 Q2116.68 1195.04 2116.68 1192.03 Q2116.68 1188.37 2119.28 1186.38 Q2121.87 1184.39 2126.64 1184.39 Q2129 1184.39 2131.08 1184.74 Q2133.17 1185.09 2134.93 1185.78 Z" fill="#000000" fill-rule="nonzero" fill-opacity="1" /><path clip-path="url(#clip170)" d="M2142.66 1200.71 L2142.66 1185.02 L2146.92 1185.02 L2146.92 1200.55 Q2146.92 1204.23 2148.35 1206.08 Q2149.79 1207.91 2152.66 1207.91 Q2156.11 1207.91 2158.1 1205.71 Q2160.11 1203.51 2160.11 1199.71 L2160.11 1185.02 L2164.37 1185.02 L2164.37 1210.94 L2160.11 1210.94 L2160.11 1206.96 Q2158.56 1209.32 2156.5 1210.48 Q2154.46 1211.61 2151.75 1211.61 Q2147.29 1211.61 2144.97 1208.84 Q2142.66 1206.06 2142.66 1200.71 M2153.37 1184.39 L2153.37 1184.39 Z" fill="#000000" fill-rule="nonzero" fill-opacity="1" /><path clip-path="url(#clip170)" d="M2188.17 1189 Q2187.45 1188.58 2186.59 1188.4 Q2185.76 1188.19 2184.74 1188.19 Q2181.13 1188.19 2179.18 1190.55 Q2177.26 1192.89 2177.26 1197.28 L2177.26 1210.94 L2172.98 1210.94 L2172.98 1185.02 L2177.26 1185.02 L2177.26 1189.04 Q2178.61 1186.68 2180.76 1185.55 Q2182.91 1184.39 2185.99 1184.39 Q2186.43 1184.39 2186.96 1184.46 Q2187.49 1184.51 2188.14 1184.62 L2188.17 1189 Z" fill="#000000" fill-rule="nonzero" fill-opacity="1" /><path clip-path="url(#clip170)" d="M2213.77 1196.91 L2213.77 1199 L2194.18 1199 Q2194.46 1203.4 2196.82 1205.71 Q2199.21 1208 2203.44 1208 Q2205.9 1208 2208.19 1207.4 Q2210.5 1206.8 2212.77 1205.59 L2212.77 1209.62 Q2210.48 1210.59 2208.07 1211.1 Q2205.67 1211.61 2203.19 1211.61 Q2196.99 1211.61 2193.35 1208 Q2189.74 1204.39 2189.74 1198.23 Q2189.74 1191.87 2193.17 1188.14 Q2196.61 1184.39 2202.45 1184.39 Q2207.68 1184.39 2210.71 1187.77 Q2213.77 1191.13 2213.77 1196.91 M2209.51 1195.66 Q2209.46 1192.17 2207.54 1190.09 Q2205.64 1188 2202.49 1188 Q2198.93 1188 2196.78 1190.02 Q2194.65 1192.03 2194.32 1195.69 L2209.51 1195.66 Z" fill="#000000" fill-rule="nonzero" fill-opacity="1" /><path clip-path="url(#clip170)" d="M2237.82 1188.95 L2237.82 1174.92 L2242.08 1174.92 L2242.08 1210.94 L2237.82 1210.94 L2237.82 1207.05 Q2236.48 1209.37 2234.42 1210.5 Q2232.38 1211.61 2229.51 1211.61 Q2224.81 1211.61 2221.85 1207.86 Q2218.91 1204.11 2218.91 1198 Q2218.91 1191.89 2221.85 1188.14 Q2224.81 1184.39 2229.51 1184.39 Q2232.38 1184.39 2234.42 1185.53 Q2236.48 1186.64 2237.82 1188.95 M2223.3 1198 Q2223.3 1202.7 2225.23 1205.39 Q2227.17 1208.05 2230.55 1208.05 Q2233.93 1208.05 2235.87 1205.39 Q2237.82 1202.7 2237.82 1198 Q2237.82 1193.3 2235.87 1190.64 Q2233.93 1187.96 2230.55 1187.96 Q2227.17 1187.96 2225.23 1190.64 Q2223.3 1193.3 2223.3 1198 Z" fill="#000000" fill-rule="nonzero" fill-opacity="1" /><path clip-path="url(#clip170)" d="M2250.18 1174.97 L2253.88 1174.97 Q2257.36 1180.43 2259.07 1185.66 Q2260.8 1190.9 2260.8 1196.06 Q2260.8 1201.24 2259.07 1206.5 Q2257.36 1211.75 2253.88 1217.19 L2250.18 1217.19 Q2253.26 1211.89 2254.76 1206.66 Q2256.29 1201.4 2256.29 1196.06 Q2256.29 1190.71 2254.76 1185.5 Q2253.26 1180.29 2250.18 1174.97 Z" fill="#000000" fill-rule="nonzero" fill-opacity="1" /><polyline clip-path="url(#clip170)" style="stroke:#009af9; stroke-linecap:round; stroke-linejoin:round; stroke-width:4; stroke-opacity:1; fill:none" points="1789.75,1245.5 1927.68,1245.5 "/>
<path clip-path="url(#clip170)" d="M1950.67 1228.22 L1972.52 1228.22 L1972.52 1232.16 L1955.34 1232.16 L1955.34 1242.39 L1971.8 1242.39 L1971.8 1246.32 L1955.34 1246.32 L1955.34 1258.85 L1972.94 1258.85 L1972.94 1262.78 L1950.67 1262.78 L1950.67 1228.22 Z" fill="#000000" fill-rule="nonzero" fill-opacity="1" /><path clip-path="url(#clip170)" d="M2005.74 1226.81 Q2002.63 1232.13 2001.13 1237.34 Q1999.63 1242.55 1999.63 1247.9 Q1999.63 1253.24 2001.13 1258.5 Q2002.66 1263.73 2005.74 1269.03 L2002.03 1269.03 Q1998.56 1263.59 1996.82 1258.34 Q1995.11 1253.08 1995.11 1247.9 Q1995.11 1242.74 1996.82 1237.5 Q1998.54 1232.27 2002.03 1226.81 L2005.74 1226.81 Z" fill="#000000" fill-rule="nonzero" fill-opacity="1" /><path clip-path="url(#clip170)" d="M2027.12 1226.76 L2027.12 1230.31 L2023.05 1230.31 Q2020.76 1230.31 2019.86 1231.23 Q2018.98 1232.16 2018.98 1234.56 L2018.98 1236.86 L2025.99 1236.86 L2025.99 1240.17 L2018.98 1240.17 L2018.98 1262.78 L2014.69 1262.78 L2014.69 1240.17 L2010.62 1240.17 L2010.62 1236.86 L2014.69 1236.86 L2014.69 1235.05 Q2014.69 1230.72 2016.71 1228.75 Q2018.72 1226.76 2023.1 1226.76 L2027.12 1226.76 Z" fill="#000000" fill-rule="nonzero" fill-opacity="1" /><path clip-path="url(#clip170)" d="M2030.69 1236.86 L2034.95 1236.86 L2034.95 1262.78 L2030.69 1262.78 L2030.69 1236.86 M2030.69 1226.76 L2034.95 1226.76 L2034.95 1232.16 L2030.69 1232.16 L2030.69 1226.76 Z" fill="#000000" fill-rule="nonzero" fill-opacity="1" /><path clip-path="url(#clip170)" d="M2048.07 1229.49 L2048.07 1236.86 L2056.85 1236.86 L2056.85 1240.17 L2048.07 1240.17 L2048.07 1254.24 Q2048.07 1257.41 2048.93 1258.31 Q2049.81 1259.22 2052.47 1259.22 L2056.85 1259.22 L2056.85 1262.78 L2052.47 1262.78 Q2047.54 1262.78 2045.67 1260.95 Q2043.79 1259.1 2043.79 1254.24 L2043.79 1240.17 L2040.67 1240.17 L2040.67 1236.86 L2043.79 1236.86 L2043.79 1229.49 L2048.07 1229.49 Z" fill="#000000" fill-rule="nonzero" fill-opacity="1" /><path clip-path="url(#clip170)" d="M2066.66 1229.49 L2066.66 1236.86 L2075.43 1236.86 L2075.43 1240.17 L2066.66 1240.17 L2066.66 1254.24 Q2066.66 1257.41 2067.52 1258.31 Q2068.4 1259.22 2071.06 1259.22 L2075.43 1259.22 L2075.43 1262.78 L2071.06 1262.78 Q2066.13 1262.78 2064.25 1260.95 Q2062.38 1259.1 2062.38 1254.24 L2062.38 1240.17 L2059.25 1240.17 L2059.25 1236.86 L2062.38 1236.86 L2062.38 1229.49 L2066.66 1229.49 Z" fill="#000000" fill-rule="nonzero" fill-opacity="1" /><path clip-path="url(#clip170)" d="M2103.21 1248.75 L2103.21 1250.84 L2083.63 1250.84 Q2083.91 1255.24 2086.27 1257.55 Q2088.65 1259.84 2092.89 1259.84 Q2095.34 1259.84 2097.63 1259.24 Q2099.95 1258.64 2102.22 1257.43 L2102.22 1261.46 Q2099.93 1262.43 2097.52 1262.94 Q2095.11 1263.45 2092.63 1263.45 Q2086.43 1263.45 2082.8 1259.84 Q2079.18 1256.23 2079.18 1250.07 Q2079.18 1243.71 2082.61 1239.98 Q2086.06 1236.23 2091.89 1236.23 Q2097.12 1236.23 2100.16 1239.61 Q2103.21 1242.97 2103.21 1248.75 M2098.95 1247.5 Q2098.91 1244.01 2096.99 1241.93 Q2095.09 1239.84 2091.94 1239.84 Q2088.37 1239.84 2086.22 1241.86 Q2084.09 1243.87 2083.77 1247.53 L2098.95 1247.5 Z" fill="#000000" fill-rule="nonzero" fill-opacity="1" /><path clip-path="url(#clip170)" d="M2127.26 1240.79 L2127.26 1226.76 L2131.52 1226.76 L2131.52 1262.78 L2127.26 1262.78 L2127.26 1258.89 Q2125.92 1261.21 2123.86 1262.34 Q2121.82 1263.45 2118.95 1263.45 Q2114.25 1263.45 2111.29 1259.7 Q2108.35 1255.95 2108.35 1249.84 Q2108.35 1243.73 2111.29 1239.98 Q2114.25 1236.23 2118.95 1236.23 Q2121.82 1236.23 2123.86 1237.37 Q2125.92 1238.48 2127.26 1240.79 M2112.75 1249.84 Q2112.75 1254.54 2114.67 1257.23 Q2116.62 1259.89 2119.99 1259.89 Q2123.37 1259.89 2125.32 1257.23 Q2127.26 1254.54 2127.26 1249.84 Q2127.26 1245.14 2125.32 1242.48 Q2123.37 1239.8 2119.99 1239.8 Q2116.62 1239.8 2114.67 1242.48 Q2112.75 1245.14 2112.75 1249.84 Z" fill="#000000" fill-rule="nonzero" fill-opacity="1" /><path clip-path="url(#clip170)" d="M2139.62 1226.81 L2143.33 1226.81 Q2146.8 1232.27 2148.51 1237.5 Q2150.25 1242.74 2150.25 1247.9 Q2150.25 1253.08 2148.51 1258.34 Q2146.8 1263.59 2143.33 1269.03 L2139.62 1269.03 Q2142.7 1263.73 2144.21 1258.5 Q2145.74 1253.24 2145.74 1247.9 Q2145.74 1242.55 2144.21 1237.34 Q2142.7 1232.13 2139.62 1226.81 Z" fill="#000000" fill-rule="nonzero" fill-opacity="1" /></svg>
