<?xml version="1.0" encoding="utf-8"?>
<svg xmlns="http://www.w3.org/2000/svg" xmlns:xlink="http://www.w3.org/1999/xlink" width="600" height="400" viewBox="0 0 2400 1600">
<defs>
  <clipPath id="clip150">
    <rect x="0" y="0" width="2400" height="1600"/>
  </clipPath>
</defs>
<path clip-path="url(#clip150)" d="M0 1600 L2400 1600 L2400 0 L0 0  Z" fill="#ffffff" fill-rule="evenodd" fill-opacity="1"/>
<defs>
  <clipPath id="clip151">
    <rect x="480" y="0" width="1681" height="1600"/>
  </clipPath>
</defs>
<path clip-path="url(#clip150)" d="M400.645 1305.35 L2352.76 1305.35 L2352.76 123.472 L400.645 123.472  Z" fill="#ffffff" fill-rule="evenodd" fill-opacity="1"/>
<defs>
  <clipPath id="clip152">
    <rect x="400" y="123" width="1953" height="1183"/>
  </clipPath>
</defs>
<polyline clip-path="url(#clip152)" style="stroke:#000000; stroke-linecap:round; stroke-linejoin:round; stroke-width:2; stroke-opacity:0.1; fill:none" points="455.893,1305.35 455.893,123.472 "/>
<polyline clip-path="url(#clip152)" style="stroke:#000000; stroke-linecap:round; stroke-linejoin:round; stroke-width:2; stroke-opacity:0.1; fill:none" points="916.297,1305.35 916.297,123.472 "/>
<polyline clip-path="url(#clip152)" style="stroke:#000000; stroke-linecap:round; stroke-linejoin:round; stroke-width:2; stroke-opacity:0.1; fill:none" points="1376.7,1305.35 1376.7,123.472 "/>
<polyline clip-path="url(#clip152)" style="stroke:#000000; stroke-linecap:round; stroke-linejoin:round; stroke-width:2; stroke-opacity:0.1; fill:none" points="1837.1,1305.35 1837.1,123.472 "/>
<polyline clip-path="url(#clip152)" style="stroke:#000000; stroke-linecap:round; stroke-linejoin:round; stroke-width:2; stroke-opacity:0.1; fill:none" points="2297.51,1305.35 2297.51,123.472 "/>
<polyline clip-path="url(#clip150)" style="stroke:#000000; stroke-linecap:round; stroke-linejoin:round; stroke-width:4; stroke-opacity:1; fill:none" points="400.645,1305.35 2352.76,1305.35 "/>
<polyline clip-path="url(#clip150)" style="stroke:#000000; stroke-linecap:round; stroke-linejoin:round; stroke-width:4; stroke-opacity:1; fill:none" points="455.893,1305.35 455.893,1286.45 "/>
<polyline clip-path="url(#clip150)" style="stroke:#000000; stroke-linecap:round; stroke-linejoin:round; stroke-width:4; stroke-opacity:1; fill:none" points="916.297,1305.35 916.297,1286.45 "/>
<polyline clip-path="url(#clip150)" style="stroke:#000000; stroke-linecap:round; stroke-linejoin:round; stroke-width:4; stroke-opacity:1; fill:none" points="1376.7,1305.35 1376.7,1286.45 "/>
<polyline clip-path="url(#clip150)" style="stroke:#000000; stroke-linecap:round; stroke-linejoin:round; stroke-width:4; stroke-opacity:1; fill:none" points="1837.1,1305.35 1837.1,1286.45 "/>
<polyline clip-path="url(#clip150)" style="stroke:#000000; stroke-linecap:round; stroke-linejoin:round; stroke-width:4; stroke-opacity:1; fill:none" points="2297.51,1305.35 2297.51,1286.45 "/>
<path clip-path="url(#clip150)" d="M433.277 1336.26 Q429.666 1336.26 427.838 1339.83 Q426.032 1343.37 426.032 1350.5 Q426.032 1357.61 427.838 1361.17 Q429.666 1364.71 433.277 1364.71 Q436.912 1364.71 438.717 1361.17 Q440.546 1357.61 440.546 1350.5 Q440.546 1343.37 438.717 1339.83 Q436.912 1336.26 433.277 1336.26 M433.277 1332.56 Q439.088 1332.56 442.143 1337.17 Q445.222 1341.75 445.222 1350.5 Q445.222 1359.23 442.143 1363.83 Q439.088 1368.42 433.277 1368.42 Q427.467 1368.42 424.389 1363.83 Q421.333 1359.23 421.333 1350.5 Q421.333 1341.75 424.389 1337.17 Q427.467 1332.56 433.277 1332.56 Z" fill="#000000" fill-rule="nonzero" fill-opacity="1" /><path clip-path="url(#clip150)" d="M453.439 1361.87 L458.324 1361.87 L458.324 1367.75 L453.439 1367.75 L453.439 1361.87 Z" fill="#000000" fill-rule="nonzero" fill-opacity="1" /><path clip-path="url(#clip150)" d="M478.509 1336.26 Q474.898 1336.26 473.069 1339.83 Q471.263 1343.37 471.263 1350.5 Q471.263 1357.61 473.069 1361.17 Q474.898 1364.71 478.509 1364.71 Q482.143 1364.71 483.948 1361.17 Q485.777 1357.61 485.777 1350.5 Q485.777 1343.37 483.948 1339.83 Q482.143 1336.26 478.509 1336.26 M478.509 1332.56 Q484.319 1332.56 487.374 1337.17 Q490.453 1341.75 490.453 1350.5 Q490.453 1359.23 487.374 1363.83 Q484.319 1368.42 478.509 1368.42 Q472.698 1368.42 469.62 1363.83 Q466.564 1359.23 466.564 1350.5 Q466.564 1341.75 469.62 1337.17 Q472.698 1332.56 478.509 1332.56 Z" fill="#000000" fill-rule="nonzero" fill-opacity="1" /><path clip-path="url(#clip150)" d="M888.033 1363.81 L904.352 1363.81 L904.352 1367.75 L882.408 1367.75 L882.408 1363.81 Q885.07 1361.06 889.653 1356.43 Q894.26 1351.77 895.44 1350.43 Q897.686 1347.91 898.565 1346.17 Q899.468 1344.41 899.468 1342.72 Q899.468 1339.97 897.524 1338.23 Q895.602 1336.5 892.5 1336.5 Q890.301 1336.5 887.848 1337.26 Q885.417 1338.02 882.639 1339.57 L882.639 1334.85 Q885.463 1333.72 887.917 1333.14 Q890.371 1332.56 892.408 1332.56 Q897.778 1332.56 900.973 1335.25 Q904.167 1337.93 904.167 1342.42 Q904.167 1344.55 903.357 1346.47 Q902.57 1348.37 900.463 1350.96 Q899.885 1351.63 896.783 1354.85 Q893.681 1358.05 888.033 1363.81 Z" fill="#000000" fill-rule="nonzero" fill-opacity="1" /><path clip-path="url(#clip150)" d="M914.167 1361.87 L919.051 1361.87 L919.051 1367.75 L914.167 1367.75 L914.167 1361.87 Z" fill="#000000" fill-rule="nonzero" fill-opacity="1" /><path clip-path="url(#clip150)" d="M929.283 1333.19 L947.639 1333.19 L947.639 1337.12 L933.565 1337.12 L933.565 1345.59 Q934.584 1345.25 935.602 1345.08 Q936.621 1344.9 937.639 1344.9 Q943.426 1344.9 946.806 1348.07 Q950.185 1351.24 950.185 1356.66 Q950.185 1362.24 946.713 1365.34 Q943.241 1368.42 936.921 1368.42 Q934.746 1368.42 932.477 1368.05 Q930.232 1367.68 927.824 1366.94 L927.824 1362.24 Q929.908 1363.37 932.13 1363.93 Q934.352 1364.48 936.829 1364.48 Q940.834 1364.48 943.171 1362.38 Q945.509 1360.27 945.509 1356.66 Q945.509 1353.05 943.171 1350.94 Q940.834 1348.83 936.829 1348.83 Q934.954 1348.83 933.079 1349.25 Q931.227 1349.67 929.283 1350.55 L929.283 1333.19 Z" fill="#000000" fill-rule="nonzero" fill-opacity="1" /><path clip-path="url(#clip150)" d="M1343.86 1333.19 L1362.22 1333.19 L1362.22 1337.12 L1348.15 1337.12 L1348.15 1345.59 Q1349.17 1345.25 1350.18 1345.08 Q1351.2 1344.9 1352.22 1344.9 Q1358.01 1344.9 1361.39 1348.07 Q1364.77 1351.24 1364.77 1356.66 Q1364.77 1362.24 1361.3 1365.34 Q1357.82 1368.42 1351.5 1368.42 Q1349.33 1368.42 1347.06 1368.05 Q1344.81 1367.68 1342.41 1366.94 L1342.41 1362.24 Q1344.49 1363.37 1346.71 1363.93 Q1348.93 1364.48 1351.41 1364.48 Q1355.42 1364.48 1357.75 1362.38 Q1360.09 1360.27 1360.09 1356.66 Q1360.09 1353.05 1357.75 1350.94 Q1355.42 1348.83 1351.41 1348.83 Q1349.54 1348.83 1347.66 1349.25 Q1345.81 1349.67 1343.86 1350.55 L1343.86 1333.19 Z" fill="#000000" fill-rule="nonzero" fill-opacity="1" /><path clip-path="url(#clip150)" d="M1373.98 1361.87 L1378.86 1361.87 L1378.86 1367.75 L1373.98 1367.75 L1373.98 1361.87 Z" fill="#000000" fill-rule="nonzero" fill-opacity="1" /><path clip-path="url(#clip150)" d="M1399.05 1336.26 Q1395.44 1336.26 1393.61 1339.83 Q1391.8 1343.37 1391.8 1350.5 Q1391.8 1357.61 1393.61 1361.17 Q1395.44 1364.71 1399.05 1364.71 Q1402.68 1364.71 1404.49 1361.17 Q1406.32 1357.61 1406.32 1350.5 Q1406.32 1343.37 1404.49 1339.83 Q1402.68 1336.26 1399.05 1336.26 M1399.05 1332.56 Q1404.86 1332.56 1407.92 1337.17 Q1410.99 1341.75 1410.99 1350.5 Q1410.99 1359.23 1407.92 1363.83 Q1404.86 1368.42 1399.05 1368.42 Q1393.24 1368.42 1390.16 1363.83 Q1387.11 1359.23 1387.11 1350.5 Q1387.11 1341.75 1390.16 1337.17 Q1393.24 1332.56 1399.05 1332.56 Z" fill="#000000" fill-rule="nonzero" fill-opacity="1" /><path clip-path="url(#clip150)" d="M1803.42 1333.19 L1825.65 1333.19 L1825.65 1335.18 L1813.1 1367.75 L1808.22 1367.75 L1820.02 1337.12 L1803.42 1337.12 L1803.42 1333.19 Z" fill="#000000" fill-rule="nonzero" fill-opacity="1" /><path clip-path="url(#clip150)" d="M1834.77 1361.87 L1839.65 1361.87 L1839.65 1367.75 L1834.77 1367.75 L1834.77 1361.87 Z" fill="#000000" fill-rule="nonzero" fill-opacity="1" /><path clip-path="url(#clip150)" d="M1849.88 1333.19 L1868.24 1333.19 L1868.24 1337.12 L1854.16 1337.12 L1854.16 1345.59 Q1855.18 1345.25 1856.2 1345.08 Q1857.22 1344.9 1858.24 1344.9 Q1864.03 1344.9 1867.4 1348.07 Q1870.78 1351.24 1870.78 1356.66 Q1870.78 1362.24 1867.31 1365.34 Q1863.84 1368.42 1857.52 1368.42 Q1855.34 1368.42 1853.08 1368.05 Q1850.83 1367.68 1848.42 1366.94 L1848.42 1362.24 Q1850.51 1363.37 1852.73 1363.93 Q1854.95 1364.48 1857.43 1364.48 Q1861.43 1364.48 1863.77 1362.38 Q1866.11 1360.27 1866.11 1356.66 Q1866.11 1353.05 1863.77 1350.94 Q1861.43 1348.83 1857.43 1348.83 Q1855.55 1348.83 1853.68 1349.25 Q1851.83 1349.67 1849.88 1350.55 L1849.88 1333.19 Z" fill="#000000" fill-rule="nonzero" fill-opacity="1" /><path clip-path="url(#clip150)" d="M2249.58 1363.81 L2257.22 1363.81 L2257.22 1337.44 L2248.91 1339.11 L2248.91 1334.85 L2257.17 1333.19 L2261.85 1333.19 L2261.85 1363.81 L2269.49 1363.81 L2269.49 1367.75 L2249.58 1367.75 L2249.58 1363.81 Z" fill="#000000" fill-rule="nonzero" fill-opacity="1" /><path clip-path="url(#clip150)" d="M2288.93 1336.26 Q2285.32 1336.26 2283.49 1339.83 Q2281.69 1343.37 2281.69 1350.5 Q2281.69 1357.61 2283.49 1361.17 Q2285.32 1364.71 2288.93 1364.71 Q2292.57 1364.71 2294.37 1361.17 Q2296.2 1357.61 2296.2 1350.5 Q2296.2 1343.37 2294.37 1339.83 Q2292.57 1336.26 2288.93 1336.26 M2288.93 1332.56 Q2294.74 1332.56 2297.8 1337.17 Q2300.88 1341.75 2300.88 1350.5 Q2300.88 1359.23 2297.8 1363.83 Q2294.74 1368.42 2288.93 1368.42 Q2283.12 1368.42 2280.04 1363.83 Q2276.99 1359.23 2276.99 1350.5 Q2276.99 1341.75 2280.04 1337.17 Q2283.12 1332.56 2288.93 1332.56 Z" fill="#000000" fill-rule="nonzero" fill-opacity="1" /><path clip-path="url(#clip150)" d="M2309.09 1361.87 L2313.98 1361.87 L2313.98 1367.75 L2309.09 1367.75 L2309.09 1361.87 Z" fill="#000000" fill-rule="nonzero" fill-opacity="1" /><path clip-path="url(#clip150)" d="M2334.16 1336.26 Q2330.55 1336.26 2328.72 1339.83 Q2326.92 1343.37 2326.92 1350.5 Q2326.92 1357.61 2328.72 1361.17 Q2330.55 1364.71 2334.16 1364.71 Q2337.8 1364.71 2339.6 1361.17 Q2341.43 1357.61 2341.43 1350.5 Q2341.43 1343.37 2339.6 1339.83 Q2337.8 1336.26 2334.16 1336.26 M2334.16 1332.56 Q2339.97 1332.56 2343.03 1337.17 Q2346.11 1341.75 2346.11 1350.5 Q2346.11 1359.23 2343.03 1363.83 Q2339.97 1368.42 2334.16 1368.42 Q2328.35 1368.42 2325.27 1363.83 Q2322.22 1359.23 2322.22 1350.5 Q2322.22 1341.75 2325.27 1337.17 Q2328.35 1332.56 2334.16 1332.56 Z" fill="#000000" fill-rule="nonzero" fill-opacity="1" /><polyline clip-path="url(#clip152)" style="stroke:#000000; stroke-linecap:round; stroke-linejoin:round; stroke-width:2; stroke-opacity:0.1; fill:none" points="400.645,1140.33 2352.76,1140.33 "/>
<polyline clip-path="url(#clip152)" style="stroke:#000000; stroke-linecap:round; stroke-linejoin:round; stroke-width:2; stroke-opacity:0.1; fill:none" points="400.645,947.989 2352.76,947.989 "/>
<polyline clip-path="url(#clip152)" style="stroke:#000000; stroke-linecap:round; stroke-linejoin:round; stroke-width:2; stroke-opacity:0.1; fill:none" points="400.645,755.646 2352.76,755.646 "/>
<polyline clip-path="url(#clip152)" style="stroke:#000000; stroke-linecap:round; stroke-linejoin:round; stroke-width:2; stroke-opacity:0.1; fill:none" points="400.645,563.303 2352.76,563.303 "/>
<polyline clip-path="url(#clip152)" style="stroke:#000000; stroke-linecap:round; stroke-linejoin:round; stroke-width:2; stroke-opacity:0.1; fill:none" points="400.645,370.96 2352.76,370.96 "/>
<polyline clip-path="url(#clip152)" style="stroke:#000000; stroke-linecap:round; stroke-linejoin:round; stroke-width:2; stroke-opacity:0.1; fill:none" points="400.645,178.616 2352.76,178.616 "/>
<polyline clip-path="url(#clip150)" style="stroke:#000000; stroke-linecap:round; stroke-linejoin:round; stroke-width:4; stroke-opacity:1; fill:none" points="400.645,1305.35 400.645,123.472 "/>
<polyline clip-path="url(#clip150)" style="stroke:#000000; stroke-linecap:round; stroke-linejoin:round; stroke-width:4; stroke-opacity:1; fill:none" points="400.645,1140.33 419.542,1140.33 "/>
<polyline clip-path="url(#clip150)" style="stroke:#000000; stroke-linecap:round; stroke-linejoin:round; stroke-width:4; stroke-opacity:1; fill:none" points="400.645,947.989 419.542,947.989 "/>
<polyline clip-path="url(#clip150)" style="stroke:#000000; stroke-linecap:round; stroke-linejoin:round; stroke-width:4; stroke-opacity:1; fill:none" points="400.645,755.646 419.542,755.646 "/>
<polyline clip-path="url(#clip150)" style="stroke:#000000; stroke-linecap:round; stroke-linejoin:round; stroke-width:4; stroke-opacity:1; fill:none" points="400.645,563.303 419.542,563.303 "/>
<polyline clip-path="url(#clip150)" style="stroke:#000000; stroke-linecap:round; stroke-linejoin:round; stroke-width:4; stroke-opacity:1; fill:none" points="400.645,370.96 419.542,370.96 "/>
<polyline clip-path="url(#clip150)" style="stroke:#000000; stroke-linecap:round; stroke-linejoin:round; stroke-width:4; stroke-opacity:1; fill:none" points="400.645,178.616 419.542,178.616 "/>
<path clip-path="url(#clip150)" d="M307.307 1126.13 Q303.696 1126.13 301.867 1129.7 Q300.062 1133.24 300.062 1140.37 Q300.062 1147.47 301.867 1151.04 Q303.696 1154.58 307.307 1154.58 Q310.941 1154.58 312.747 1151.04 Q314.575 1147.47 314.575 1140.37 Q314.575 1133.24 312.747 1129.7 Q310.941 1126.13 307.307 1126.13 M307.307 1122.43 Q313.117 1122.43 316.173 1127.03 Q319.251 1131.62 319.251 1140.37 Q319.251 1149.09 316.173 1153.7 Q313.117 1158.28 307.307 1158.28 Q301.497 1158.28 298.418 1153.7 Q295.363 1149.09 295.363 1140.37 Q295.363 1131.62 298.418 1127.03 Q301.497 1122.43 307.307 1122.43 Z" fill="#000000" fill-rule="nonzero" fill-opacity="1" /><path clip-path="url(#clip150)" d="M327.469 1151.73 L332.353 1151.73 L332.353 1157.61 L327.469 1157.61 L327.469 1151.73 Z" fill="#000000" fill-rule="nonzero" fill-opacity="1" /><path clip-path="url(#clip150)" d="M353.117 1138.47 Q349.969 1138.47 348.117 1140.62 Q346.288 1142.77 346.288 1146.52 Q346.288 1150.25 348.117 1152.43 Q349.969 1154.58 353.117 1154.58 Q356.265 1154.58 358.094 1152.43 Q359.946 1150.25 359.946 1146.52 Q359.946 1142.77 358.094 1140.62 Q356.265 1138.47 353.117 1138.47 M362.399 1123.82 L362.399 1128.08 Q360.64 1127.24 358.834 1126.8 Q357.052 1126.36 355.293 1126.36 Q350.663 1126.36 348.209 1129.49 Q345.779 1132.61 345.432 1138.93 Q346.797 1136.92 348.858 1135.85 Q350.918 1134.76 353.395 1134.76 Q358.603 1134.76 361.612 1137.94 Q364.645 1141.08 364.645 1146.52 Q364.645 1151.85 361.496 1155.07 Q358.348 1158.28 353.117 1158.28 Q347.122 1158.28 343.95 1153.7 Q340.779 1149.09 340.779 1140.37 Q340.779 1132.17 344.668 1127.31 Q348.557 1122.43 355.108 1122.43 Q356.867 1122.43 358.649 1122.77 Q360.455 1123.12 362.399 1123.82 Z" fill="#000000" fill-rule="nonzero" fill-opacity="1" /><path clip-path="url(#clip150)" d="M308.372 933.788 Q304.761 933.788 302.932 937.352 Q301.126 940.894 301.126 948.024 Q301.126 955.13 302.932 958.695 Q304.761 962.237 308.372 962.237 Q312.006 962.237 313.811 958.695 Q315.64 955.13 315.64 948.024 Q315.64 940.894 313.811 937.352 Q312.006 933.788 308.372 933.788 M308.372 930.084 Q314.182 930.084 317.237 934.69 Q320.316 939.274 320.316 948.024 Q320.316 956.75 317.237 961.357 Q314.182 965.94 308.372 965.94 Q302.562 965.94 299.483 961.357 Q296.427 956.75 296.427 948.024 Q296.427 939.274 299.483 934.69 Q302.562 930.084 308.372 930.084 Z" fill="#000000" fill-rule="nonzero" fill-opacity="1" /><path clip-path="url(#clip150)" d="M328.534 959.389 L333.418 959.389 L333.418 965.269 L328.534 965.269 L328.534 959.389 Z" fill="#000000" fill-rule="nonzero" fill-opacity="1" /><path clip-path="url(#clip150)" d="M342.422 930.709 L364.645 930.709 L364.645 932.7 L352.098 965.269 L347.214 965.269 L359.02 934.644 L342.422 934.644 L342.422 930.709 Z" fill="#000000" fill-rule="nonzero" fill-opacity="1" /><path clip-path="url(#clip150)" d="M307.562 741.445 Q303.95 741.445 302.122 745.009 Q300.316 748.551 300.316 755.681 Q300.316 762.787 302.122 766.352 Q303.95 769.893 307.562 769.893 Q311.196 769.893 313.001 766.352 Q314.83 762.787 314.83 755.681 Q314.83 748.551 313.001 745.009 Q311.196 741.445 307.562 741.445 M307.562 737.741 Q313.372 737.741 316.427 742.347 Q319.506 746.931 319.506 755.681 Q319.506 764.407 316.427 769.014 Q313.372 773.597 307.562 773.597 Q301.751 773.597 298.673 769.014 Q295.617 764.407 295.617 755.681 Q295.617 746.931 298.673 742.347 Q301.751 737.741 307.562 737.741 Z" fill="#000000" fill-rule="nonzero" fill-opacity="1" /><path clip-path="url(#clip150)" d="M327.723 767.046 L332.608 767.046 L332.608 772.926 L327.723 772.926 L327.723 767.046 Z" fill="#000000" fill-rule="nonzero" fill-opacity="1" /><path clip-path="url(#clip150)" d="M352.793 756.514 Q349.459 756.514 347.538 758.296 Q345.64 760.079 345.64 763.204 Q345.64 766.329 347.538 768.111 Q349.459 769.893 352.793 769.893 Q356.126 769.893 358.047 768.111 Q359.969 766.306 359.969 763.204 Q359.969 760.079 358.047 758.296 Q356.149 756.514 352.793 756.514 M348.117 754.523 Q345.108 753.782 343.418 751.722 Q341.751 749.662 341.751 746.699 Q341.751 742.556 344.691 740.148 Q347.654 737.741 352.793 737.741 Q357.955 737.741 360.895 740.148 Q363.834 742.556 363.834 746.699 Q363.834 749.662 362.145 751.722 Q360.478 753.782 357.492 754.523 Q360.871 755.31 362.746 757.602 Q364.645 759.894 364.645 763.204 Q364.645 768.227 361.566 770.912 Q358.51 773.597 352.793 773.597 Q347.075 773.597 343.997 770.912 Q340.941 768.227 340.941 763.204 Q340.941 759.894 342.839 757.602 Q344.737 755.31 348.117 754.523 M346.404 747.139 Q346.404 749.824 348.071 751.329 Q349.76 752.833 352.793 752.833 Q355.802 752.833 357.492 751.329 Q359.205 749.824 359.205 747.139 Q359.205 744.454 357.492 742.949 Q355.802 741.445 352.793 741.445 Q349.76 741.445 348.071 742.949 Q346.404 744.454 346.404 747.139 Z" fill="#000000" fill-rule="nonzero" fill-opacity="1" /><path clip-path="url(#clip150)" d="M307.654 549.101 Q304.043 549.101 302.214 552.666 Q300.409 556.208 300.409 563.337 Q300.409 570.444 302.214 574.009 Q304.043 577.55 307.654 577.55 Q311.288 577.55 313.094 574.009 Q314.923 570.444 314.923 563.337 Q314.923 556.208 313.094 552.666 Q311.288 549.101 307.654 549.101 M307.654 545.398 Q313.464 545.398 316.52 550.004 Q319.599 554.587 319.599 563.337 Q319.599 572.064 316.52 576.671 Q313.464 581.254 307.654 581.254 Q301.844 581.254 298.765 576.671 Q295.71 572.064 295.71 563.337 Q295.71 554.587 298.765 550.004 Q301.844 545.398 307.654 545.398 Z" fill="#000000" fill-rule="nonzero" fill-opacity="1" /><path clip-path="url(#clip150)" d="M327.816 574.703 L332.7 574.703 L332.7 580.583 L327.816 580.583 L327.816 574.703 Z" fill="#000000" fill-rule="nonzero" fill-opacity="1" /><path clip-path="url(#clip150)" d="M343.024 579.865 L343.024 575.606 Q344.784 576.439 346.589 576.879 Q348.395 577.319 350.131 577.319 Q354.76 577.319 357.191 574.217 Q359.645 571.092 359.992 564.749 Q358.649 566.74 356.589 567.805 Q354.529 568.87 352.029 568.87 Q346.844 568.87 343.811 565.745 Q340.802 562.597 340.802 557.157 Q340.802 551.833 343.95 548.615 Q347.098 545.398 352.33 545.398 Q358.325 545.398 361.473 550.004 Q364.645 554.587 364.645 563.337 Q364.645 571.509 360.756 576.393 Q356.89 581.254 350.339 581.254 Q348.58 581.254 346.774 580.907 Q344.969 580.56 343.024 579.865 M352.33 565.212 Q355.478 565.212 357.307 563.06 Q359.158 560.907 359.158 557.157 Q359.158 553.43 357.307 551.277 Q355.478 549.101 352.33 549.101 Q349.182 549.101 347.33 551.277 Q345.501 553.43 345.501 557.157 Q345.501 560.907 347.33 563.06 Q349.182 565.212 352.33 565.212 Z" fill="#000000" fill-rule="nonzero" fill-opacity="1" /><path clip-path="url(#clip150)" d="M298.279 384.304 L305.918 384.304 L305.918 357.939 L297.608 359.606 L297.608 355.346 L305.872 353.68 L310.548 353.68 L310.548 384.304 L318.186 384.304 L318.186 388.24 L298.279 388.24 L298.279 384.304 Z" fill="#000000" fill-rule="nonzero" fill-opacity="1" /><path clip-path="url(#clip150)" d="M327.631 382.36 L332.515 382.36 L332.515 388.24 L327.631 388.24 L327.631 382.36 Z" fill="#000000" fill-rule="nonzero" fill-opacity="1" /><path clip-path="url(#clip150)" d="M352.7 356.758 Q349.089 356.758 347.26 360.323 Q345.455 363.865 345.455 370.994 Q345.455 378.101 347.26 381.666 Q349.089 385.207 352.7 385.207 Q356.334 385.207 358.14 381.666 Q359.969 378.101 359.969 370.994 Q359.969 363.865 358.14 360.323 Q356.334 356.758 352.7 356.758 M352.7 353.055 Q358.51 353.055 361.566 357.661 Q364.645 362.244 364.645 370.994 Q364.645 379.721 361.566 384.328 Q358.51 388.911 352.7 388.911 Q346.89 388.911 343.811 384.328 Q340.756 379.721 340.756 370.994 Q340.756 362.244 343.811 357.661 Q346.89 353.055 352.7 353.055 Z" fill="#000000" fill-rule="nonzero" fill-opacity="1" /><path clip-path="url(#clip150)" d="M299.506 191.961 L307.145 191.961 L307.145 165.596 L298.835 167.262 L298.835 163.003 L307.099 161.336 L311.774 161.336 L311.774 191.961 L319.413 191.961 L319.413 195.896 L299.506 195.896 L299.506 191.961 Z" fill="#000000" fill-rule="nonzero" fill-opacity="1" /><path clip-path="url(#clip150)" d="M328.858 190.017 L333.742 190.017 L333.742 195.896 L328.858 195.896 L328.858 190.017 Z" fill="#000000" fill-rule="nonzero" fill-opacity="1" /><path clip-path="url(#clip150)" d="M344.737 191.961 L352.376 191.961 L352.376 165.596 L344.066 167.262 L344.066 163.003 L352.33 161.336 L357.006 161.336 L357.006 191.961 L364.645 191.961 L364.645 195.896 L344.737 195.896 L344.737 191.961 Z" fill="#000000" fill-rule="nonzero" fill-opacity="1" /><path clip-path="url(#clip150)" d="M201.247 902.054 L208.026 902.054 Q205.003 905.3 203.507 908.993 Q202.011 912.653 202.011 916.791 Q202.011 924.939 207.008 929.267 Q211.973 933.596 221.394 933.596 Q230.784 933.596 235.781 929.267 Q240.746 924.939 240.746 916.791 Q240.746 912.653 239.25 908.993 Q237.754 905.3 234.73 902.054 L241.446 902.054 Q243.738 905.428 244.884 909.215 Q246.03 912.971 246.03 917.172 Q246.03 927.962 239.441 934.169 Q232.821 940.375 221.394 940.375 Q209.936 940.375 203.347 934.169 Q196.727 927.962 196.727 917.172 Q196.727 912.907 197.873 909.152 Q198.987 905.364 201.247 902.054 Z" fill="#000000" fill-rule="nonzero" fill-opacity="1" /><path clip-path="url(#clip150)" d="M213.564 878.564 Q213.564 883.275 217.257 886.012 Q220.917 888.75 227.314 888.75 Q233.712 888.75 237.404 886.044 Q241.064 883.307 241.064 878.564 Q241.064 873.886 237.372 871.148 Q233.68 868.411 227.314 868.411 Q220.98 868.411 217.288 871.148 Q213.564 873.886 213.564 878.564 M208.599 878.564 Q208.599 870.926 213.564 866.565 Q218.53 862.205 227.314 862.205 Q236.067 862.205 241.064 866.565 Q246.03 870.926 246.03 878.564 Q246.03 886.235 241.064 890.596 Q236.067 894.924 227.314 894.924 Q218.53 894.924 213.564 890.596 Q208.599 886.235 208.599 878.564 Z" fill="#000000" fill-rule="nonzero" fill-opacity="1" /><path clip-path="url(#clip150)" d="M223.59 822.865 L245.107 822.865 L245.107 828.721 L223.781 828.721 Q218.721 828.721 216.206 830.694 Q213.692 832.668 213.692 836.614 Q213.692 841.357 216.715 844.094 Q219.739 846.831 224.959 846.831 L245.107 846.831 L245.107 852.72 L209.459 852.72 L209.459 846.831 L214.997 846.831 Q211.782 844.731 210.191 841.898 Q208.599 839.033 208.599 835.31 Q208.599 829.167 212.419 826.016 Q216.206 822.865 223.59 822.865 Z" fill="#000000" fill-rule="nonzero" fill-opacity="1" /><path clip-path="url(#clip150)" d="M210.827 785.53 L216.302 785.53 Q214.933 788.012 214.265 790.527 Q213.564 793.009 213.564 795.556 Q213.564 801.253 217.193 804.404 Q220.79 807.555 227.314 807.555 Q233.839 807.555 237.468 804.404 Q241.064 801.253 241.064 795.556 Q241.064 793.009 240.396 790.527 Q239.696 788.012 238.327 785.53 L243.738 785.53 Q244.884 787.98 245.457 790.622 Q246.03 793.232 246.03 796.192 Q246.03 804.245 240.969 808.987 Q235.908 813.73 227.314 813.73 Q218.593 813.73 213.596 808.955 Q208.599 804.149 208.599 795.81 Q208.599 793.105 209.172 790.527 Q209.713 787.949 210.827 785.53 Z" fill="#000000" fill-rule="nonzero" fill-opacity="1" /><path clip-path="url(#clip150)" d="M225.818 744.853 L228.683 744.853 L228.683 771.78 Q234.73 771.398 237.913 768.151 Q241.064 764.873 241.064 759.048 Q241.064 755.675 240.237 752.523 Q239.409 749.341 237.754 746.221 L243.292 746.221 Q244.629 749.372 245.329 752.683 Q246.03 755.993 246.03 759.398 Q246.03 767.928 241.064 772.926 Q236.099 777.891 227.633 777.891 Q218.88 777.891 213.755 773.18 Q208.599 768.438 208.599 760.417 Q208.599 753.224 213.246 749.054 Q217.861 744.853 225.818 744.853 M224.1 750.709 Q219.294 750.773 216.429 753.415 Q213.564 756.025 213.564 760.353 Q213.564 765.255 216.334 768.215 Q219.103 771.143 224.132 771.589 L224.1 750.709 Z" fill="#000000" fill-rule="nonzero" fill-opacity="1" /><path clip-path="url(#clip150)" d="M223.59 705.608 L245.107 705.608 L245.107 711.465 L223.781 711.465 Q218.721 711.465 216.206 713.438 Q213.692 715.411 213.692 719.358 Q213.692 724.101 216.715 726.838 Q219.739 729.575 224.959 729.575 L245.107 729.575 L245.107 735.463 L209.459 735.463 L209.459 729.575 L214.997 729.575 Q211.782 727.474 210.191 724.642 Q208.599 721.777 208.599 718.053 Q208.599 711.91 212.419 708.759 Q216.206 705.608 223.59 705.608 Z" fill="#000000" fill-rule="nonzero" fill-opacity="1" /><path clip-path="url(#clip150)" d="M199.337 688.134 L209.459 688.134 L209.459 676.071 L214.01 676.071 L214.01 688.134 L233.362 688.134 Q237.722 688.134 238.964 686.957 Q240.205 685.747 240.205 682.087 L240.205 676.071 L245.107 676.071 L245.107 682.087 Q245.107 688.866 242.592 691.445 Q240.046 694.023 233.362 694.023 L214.01 694.023 L214.01 698.319 L209.459 698.319 L209.459 694.023 L199.337 694.023 L199.337 688.134 Z" fill="#000000" fill-rule="nonzero" fill-opacity="1" /><path clip-path="url(#clip150)" d="M214.933 647.712 Q214.36 648.699 214.106 649.876 Q213.819 651.022 213.819 652.423 Q213.819 657.388 217.066 660.062 Q220.28 662.703 226.328 662.703 L245.107 662.703 L245.107 668.592 L209.459 668.592 L209.459 662.703 L214.997 662.703 Q211.75 660.857 210.191 657.897 Q208.599 654.937 208.599 650.704 Q208.599 650.099 208.695 649.367 Q208.758 648.635 208.917 647.744 L214.933 647.712 Z" fill="#000000" fill-rule="nonzero" fill-opacity="1" /><path clip-path="url(#clip150)" d="M227.187 625.368 Q227.187 632.466 228.81 635.204 Q230.434 637.941 234.348 637.941 Q237.468 637.941 239.314 635.904 Q241.128 633.835 241.128 630.302 Q241.128 625.432 237.69 622.504 Q234.221 619.544 228.492 619.544 L227.187 619.544 L227.187 625.368 M224.768 613.687 L245.107 613.687 L245.107 619.544 L239.696 619.544 Q242.942 621.549 244.502 624.541 Q246.03 627.533 246.03 631.862 Q246.03 637.336 242.974 640.583 Q239.887 643.797 234.73 643.797 Q228.715 643.797 225.659 639.787 Q222.604 635.745 222.604 627.756 L222.604 619.544 L222.031 619.544 Q217.989 619.544 215.792 622.217 Q213.564 624.859 213.564 629.665 Q213.564 632.721 214.296 635.617 Q215.029 638.514 216.493 641.187 L211.082 641.187 Q209.841 637.973 209.236 634.949 Q208.599 631.925 208.599 629.061 Q208.599 621.326 212.61 617.507 Q216.62 613.687 224.768 613.687 Z" fill="#000000" fill-rule="nonzero" fill-opacity="1" /><path clip-path="url(#clip150)" d="M199.337 595.832 L209.459 595.832 L209.459 583.769 L214.01 583.769 L214.01 595.832 L233.362 595.832 Q237.722 595.832 238.964 594.654 Q240.205 593.444 240.205 589.784 L240.205 583.769 L245.107 583.769 L245.107 589.784 Q245.107 596.564 242.592 599.142 Q240.046 601.72 233.362 601.72 L214.01 601.72 L214.01 606.017 L209.459 606.017 L209.459 601.72 L199.337 601.72 L199.337 595.832 Z" fill="#000000" fill-rule="nonzero" fill-opacity="1" /><path clip-path="url(#clip150)" d="M209.459 576.066 L209.459 570.21 L245.107 570.21 L245.107 576.066 L209.459 576.066 M195.581 576.066 L195.581 570.21 L202.997 570.21 L202.997 576.066 L195.581 576.066 Z" fill="#000000" fill-rule="nonzero" fill-opacity="1" /><path clip-path="url(#clip150)" d="M213.564 544.142 Q213.564 548.853 217.257 551.59 Q220.917 554.327 227.314 554.327 Q233.712 554.327 237.404 551.622 Q241.064 548.885 241.064 544.142 Q241.064 539.463 237.372 536.726 Q233.68 533.989 227.314 533.989 Q220.98 533.989 217.288 536.726 Q213.564 539.463 213.564 544.142 M208.599 544.142 Q208.599 536.503 213.564 532.143 Q218.53 527.782 227.314 527.782 Q236.067 527.782 241.064 532.143 Q246.03 536.503 246.03 544.142 Q246.03 551.813 241.064 556.173 Q236.067 560.502 227.314 560.502 Q218.53 560.502 213.564 556.173 Q208.599 551.813 208.599 544.142 Z" fill="#000000" fill-rule="nonzero" fill-opacity="1" /><path clip-path="url(#clip150)" d="M223.59 488.442 L245.107 488.442 L245.107 494.299 L223.781 494.299 Q218.721 494.299 216.206 496.272 Q213.692 498.245 213.692 502.192 Q213.692 506.935 216.715 509.672 Q219.739 512.409 224.959 512.409 L245.107 512.409 L245.107 518.297 L209.459 518.297 L209.459 512.409 L214.997 512.409 Q211.782 510.308 210.191 507.476 Q208.599 504.611 208.599 500.887 Q208.599 494.744 212.419 491.593 Q216.206 488.442 223.59 488.442 Z" fill="#000000" fill-rule="nonzero" fill-opacity="1" /><path clip-path="url(#clip150)" d="M1369.51 28.9478 L1369.51 35.9153 Q1366.35 34.1734 1363.15 33.3227 Q1359.99 32.4315 1356.75 32.4315 Q1349.5 32.4315 1345.49 37.0496 Q1341.48 41.6271 1341.48 49.9314 Q1341.48 58.2358 1345.49 62.8538 Q1349.5 67.4314 1356.75 67.4314 Q1359.99 67.4314 1363.15 66.5807 Q1366.35 65.6895 1369.51 63.9476 L1369.51 70.8341 Q1366.39 72.2924 1363.03 73.0216 Q1359.71 73.7508 1355.94 73.7508 Q1345.69 73.7508 1339.65 67.3098 Q1333.62 60.8689 1333.62 49.9314 Q1333.62 38.832 1339.7 32.472 Q1345.81 26.1121 1356.43 26.1121 Q1359.87 26.1121 1363.15 26.8413 Q1366.43 27.5299 1369.51 28.9478 Z" fill="#000000" fill-rule="nonzero" fill-opacity="1" /><path clip-path="url(#clip150)" d="M1384.94 65.6895 L1398.31 65.6895 L1398.31 19.5497 L1383.77 22.4663 L1383.77 15.0127 L1398.23 12.096 L1406.41 12.096 L1406.41 65.6895 L1419.78 65.6895 L1419.78 72.576 L1384.94 72.576 L1384.94 65.6895 Z" fill="#000000" fill-rule="nonzero" fill-opacity="1" /><circle clip-path="url(#clip152)" cx="640.054" cy="1271.9" r="14.4" fill="#009af9" fill-rule="evenodd" fill-opacity="1" stroke="#000000" stroke-opacity="1" stroke-width="3.2"/>
<circle clip-path="url(#clip152)" cx="824.216" cy="1225.93" r="14.4" fill="#009af9" fill-rule="evenodd" fill-opacity="1" stroke="#000000" stroke-opacity="1" stroke-width="3.2"/>
<circle clip-path="url(#clip152)" cx="1008.38" cy="1131.7" r="14.4" fill="#009af9" fill-rule="evenodd" fill-opacity="1" stroke="#000000" stroke-opacity="1" stroke-width="3.2"/>
<circle clip-path="url(#clip152)" cx="1192.54" cy="603.444" r="14.4" fill="#009af9" fill-rule="evenodd" fill-opacity="1" stroke="#000000" stroke-opacity="1" stroke-width="3.2"/>
<circle clip-path="url(#clip152)" cx="1376.7" cy="827.987" r="14.4" fill="#009af9" fill-rule="evenodd" fill-opacity="1" stroke="#000000" stroke-opacity="1" stroke-width="3.2"/>
<circle clip-path="url(#clip152)" cx="1560.86" cy="823.926" r="14.4" fill="#009af9" fill-rule="evenodd" fill-opacity="1" stroke="#000000" stroke-opacity="1" stroke-width="3.2"/>
<circle clip-path="url(#clip152)" cx="1745.02" cy="583.894" r="14.4" fill="#009af9" fill-rule="evenodd" fill-opacity="1" stroke="#000000" stroke-opacity="1" stroke-width="3.2"/>
<circle clip-path="url(#clip152)" cx="1929.18" cy="160.202" r="14.4" fill="#009af9" fill-rule="evenodd" fill-opacity="1" stroke="#000000" stroke-opacity="1" stroke-width="3.2"/>
<circle clip-path="url(#clip152)" cx="2113.35" cy="156.921" r="14.4" fill="#009af9" fill-rule="evenodd" fill-opacity="1" stroke="#000000" stroke-opacity="1" stroke-width="3.2"/>
<circle clip-path="url(#clip152)" cx="2297.51" cy="378.246" r="14.4" fill="#009af9" fill-rule="evenodd" fill-opacity="1" stroke="#000000" stroke-opacity="1" stroke-width="3.2"/>
<polyline clip-path="url(#clip152)" style="stroke:#009af9; stroke-linecap:round; stroke-linejoin:round; stroke-width:4; stroke-opacity:1; fill:none" points="455.893,370.96 457.484,390.541 459.235,411.539 461.46,437.412 463.96,465.44 466.829,496.321 469.985,528.784 473.443,562.658 477.168,597.259 481.153,632.268 485.381,667.278 489.843,702.025 494.53,736.259 499.438,769.799 504.562,802.493 509.903,834.228 515.458,864.913 521.232,894.477 527.225,922.869 533.443,950.049 539.89,975.987 546.572,1000.66 553.497,1024.05 560.672,1046.15 568.106,1066.95 575.807,1086.45 583.786,1104.64 592.054,1121.52 600.62,1137.09 609.499,1151.35 618.703,1164.3 628.246,1175.95 638.142,1186.29 648.408,1195.33 659.061,1203.06 670.12,1209.49 681.605,1214.63 693.538,1218.45 705.943,1220.97 718.848,1222.19 732.284,1222.08 746.286,1220.65 760.895,1217.88 776.161,1213.75 792.143,1208.23 808.916,1201.28 826.578,1192.85 845.266,1182.84 865.181,1171.12 886.664,1157.43 910.427,1141.23 939.164,1120.44 967.901,1098.61 996.638,1076 1025.37,1052.83 1054.11,1029.27 1082.85,1005.49 1111.59,981.634 1140.32,957.821 1169.06,934.158 1197.8,910.741 1226.53,887.652 1255.27,864.962 1284.01,842.734 1312.74,821.021 1341.48,799.868 1370.22,779.312 1399.09,759.29 1428.19,739.774 1457.62,720.735 1487.45,702.158 1517.78,684.032 1548.68,666.353 1580.23,649.119 1612.5,632.334 1645.59,616.002 1679.55,600.13 1714.5,584.727 1750.51,569.803 1787.68,555.368 1826.12,541.433 1865.94,528.012 1907.26,515.115 1950.2,502.756 1994.91,490.944 2041.55,479.693 2090.27,469.013 2141.26,458.914 2194.73,449.404 2250.87,440.491 2297.51,433.843 "/>
<path clip-path="url(#clip150)" d="M1782.34 1265.95 L2287.69 1265.95 L2287.69 1110.43 L1782.34 1110.43  Z" fill="#ffffff" fill-rule="evenodd" fill-opacity="1"/>
<polyline clip-path="url(#clip150)" style="stroke:#000000; stroke-linecap:round; stroke-linejoin:round; stroke-width:4; stroke-opacity:1; fill:none" points="1782.34,1265.95 2287.69,1265.95 2287.69,1110.43 1782.34,1110.43 1782.34,1265.95 "/>
<circle clip-path="url(#clip150)" cx="1869.1" cy="1162.27" r="20.48" fill="#009af9" fill-rule="evenodd" fill-opacity="1" stroke="#000000" stroke-opacity="1" stroke-width="4.55111"/>
<path clip-path="url(#clip150)" d="M1955.86 1144.99 L1977.71 1144.99 L1977.71 1148.92 L1960.53 1148.92 L1960.53 1159.16 L1976.99 1159.16 L1976.99 1163.09 L1960.53 1163.09 L1960.53 1175.61 L1978.13 1175.61 L1978.13 1179.55 L1955.86 1179.55 L1955.86 1144.99 Z" fill="#000000" fill-rule="nonzero" fill-opacity="1" /><path clip-path="url(#clip150)" d="M2010.93 1143.58 Q2007.83 1148.9 2006.32 1154.11 Q2004.82 1159.32 2004.82 1164.67 Q2004.82 1170.01 2006.32 1175.27 Q2007.85 1180.5 2010.93 1185.8 L2007.22 1185.8 Q2003.75 1180.36 2002.02 1175.11 Q2000.3 1169.85 2000.3 1164.67 Q2000.3 1159.5 2002.02 1154.27 Q2003.73 1149.04 2007.22 1143.58 L2010.93 1143.58 Z" fill="#000000" fill-rule="nonzero" fill-opacity="1" /><path clip-path="url(#clip150)" d="M2039.38 1158.6 Q2040.97 1155.73 2043.2 1154.36 Q2045.42 1153 2048.43 1153 Q2052.48 1153 2054.68 1155.85 Q2056.88 1158.67 2056.88 1163.9 L2056.88 1179.55 L2052.59 1179.55 L2052.59 1164.04 Q2052.59 1160.31 2051.27 1158.51 Q2049.95 1156.7 2047.25 1156.7 Q2043.94 1156.7 2042.02 1158.9 Q2040.09 1161.1 2040.09 1164.9 L2040.09 1179.55 L2035.81 1179.55 L2035.81 1164.04 Q2035.81 1160.29 2034.49 1158.51 Q2033.17 1156.7 2030.42 1156.7 Q2027.15 1156.7 2025.23 1158.92 Q2023.31 1161.12 2023.31 1164.9 L2023.31 1179.55 L2019.03 1179.55 L2019.03 1153.62 L2023.31 1153.62 L2023.31 1157.65 Q2024.77 1155.27 2026.81 1154.13 Q2028.84 1153 2031.64 1153 Q2034.47 1153 2036.44 1154.43 Q2038.43 1155.87 2039.38 1158.6 Z" fill="#000000" fill-rule="nonzero" fill-opacity="1" /><path clip-path="url(#clip150)" d="M2087.55 1165.52 L2087.55 1167.61 L2067.96 1167.61 Q2068.24 1172 2070.6 1174.32 Q2072.99 1176.61 2077.22 1176.61 Q2079.68 1176.61 2081.97 1176.01 Q2084.28 1175.41 2086.55 1174.2 L2086.55 1178.23 Q2084.26 1179.2 2081.85 1179.71 Q2079.45 1180.22 2076.97 1180.22 Q2070.76 1180.22 2067.13 1176.61 Q2063.52 1173 2063.52 1166.84 Q2063.52 1160.48 2066.95 1156.75 Q2070.39 1153 2076.23 1153 Q2081.46 1153 2084.49 1156.38 Q2087.55 1159.74 2087.55 1165.52 M2083.29 1164.27 Q2083.24 1160.78 2081.32 1158.69 Q2079.42 1156.61 2076.27 1156.61 Q2072.71 1156.61 2070.56 1158.62 Q2068.43 1160.64 2068.1 1164.3 L2083.29 1164.27 Z" fill="#000000" fill-rule="nonzero" fill-opacity="1" /><path clip-path="url(#clip150)" d="M2106.32 1166.52 Q2101.16 1166.52 2099.17 1167.7 Q2097.18 1168.88 2097.18 1171.73 Q2097.18 1173.99 2098.66 1175.34 Q2100.16 1176.66 2102.73 1176.66 Q2106.27 1176.66 2108.4 1174.16 Q2110.56 1171.63 2110.56 1167.47 L2110.56 1166.52 L2106.32 1166.52 M2114.82 1164.76 L2114.82 1179.55 L2110.56 1179.55 L2110.56 1175.61 Q2109.1 1177.98 2106.92 1179.11 Q2104.75 1180.22 2101.6 1180.22 Q2097.62 1180.22 2095.26 1178 Q2092.92 1175.75 2092.92 1172 Q2092.92 1167.63 2095.83 1165.41 Q2098.77 1163.18 2104.58 1163.18 L2110.56 1163.18 L2110.56 1162.77 Q2110.56 1159.83 2108.61 1158.23 Q2106.69 1156.61 2103.2 1156.61 Q2100.97 1156.61 2098.87 1157.14 Q2096.76 1157.67 2094.82 1158.74 L2094.82 1154.8 Q2097.15 1153.9 2099.35 1153.46 Q2101.55 1153 2103.64 1153 Q2109.26 1153 2112.04 1155.92 Q2114.82 1158.83 2114.82 1164.76 Z" fill="#000000" fill-rule="nonzero" fill-opacity="1" /><path clip-path="url(#clip150)" d="M2140.12 1154.39 L2140.12 1158.42 Q2138.31 1157.49 2136.37 1157.03 Q2134.42 1156.56 2132.34 1156.56 Q2129.17 1156.56 2127.57 1157.54 Q2126 1158.51 2126 1160.45 Q2126 1161.93 2127.13 1162.79 Q2128.26 1163.62 2131.69 1164.39 L2133.15 1164.71 Q2137.69 1165.68 2139.58 1167.47 Q2141.51 1169.23 2141.51 1172.4 Q2141.51 1176.01 2138.63 1178.11 Q2135.79 1180.22 2130.79 1180.22 Q2128.7 1180.22 2126.44 1179.8 Q2124.19 1179.41 2121.69 1178.6 L2121.69 1174.2 Q2124.05 1175.43 2126.34 1176.05 Q2128.64 1176.66 2130.88 1176.66 Q2133.89 1176.66 2135.51 1175.64 Q2137.13 1174.6 2137.13 1172.72 Q2137.13 1170.98 2135.95 1170.06 Q2134.79 1169.13 2130.83 1168.28 L2129.35 1167.93 Q2125.39 1167.1 2123.64 1165.38 Q2121.88 1163.65 2121.88 1160.64 Q2121.88 1156.98 2124.47 1154.99 Q2127.06 1153 2131.83 1153 Q2134.19 1153 2136.27 1153.35 Q2138.36 1153.69 2140.12 1154.39 Z" fill="#000000" fill-rule="nonzero" fill-opacity="1" /><path clip-path="url(#clip150)" d="M2147.85 1169.32 L2147.85 1153.62 L2152.11 1153.62 L2152.11 1169.16 Q2152.11 1172.84 2153.54 1174.69 Q2154.98 1176.52 2157.85 1176.52 Q2161.3 1176.52 2163.29 1174.32 Q2165.3 1172.12 2165.3 1168.32 L2165.3 1153.62 L2169.56 1153.62 L2169.56 1179.55 L2165.3 1179.55 L2165.3 1175.57 Q2163.75 1177.93 2161.69 1179.09 Q2159.65 1180.22 2156.95 1180.22 Q2152.48 1180.22 2150.16 1177.44 Q2147.85 1174.67 2147.85 1169.32 M2158.57 1153 L2158.57 1153 Z" fill="#000000" fill-rule="nonzero" fill-opacity="1" /><path clip-path="url(#clip150)" d="M2193.36 1157.61 Q2192.64 1157.19 2191.78 1157 Q2190.95 1156.8 2189.93 1156.8 Q2186.32 1156.8 2184.38 1159.16 Q2182.45 1161.49 2182.45 1165.89 L2182.45 1179.55 L2178.17 1179.55 L2178.17 1153.62 L2182.45 1153.62 L2182.45 1157.65 Q2183.8 1155.29 2185.95 1154.16 Q2188.1 1153 2191.18 1153 Q2191.62 1153 2192.15 1153.07 Q2192.69 1153.11 2193.33 1153.23 L2193.36 1157.61 Z" fill="#000000" fill-rule="nonzero" fill-opacity="1" /><path clip-path="url(#clip150)" d="M2218.96 1165.52 L2218.96 1167.61 L2199.38 1167.61 Q2199.65 1172 2202.01 1174.32 Q2204.4 1176.61 2208.63 1176.61 Q2211.09 1176.61 2213.38 1176.01 Q2215.69 1175.41 2217.96 1174.2 L2217.96 1178.23 Q2215.67 1179.2 2213.26 1179.71 Q2210.86 1180.22 2208.38 1180.22 Q2202.18 1180.22 2198.54 1176.61 Q2194.93 1173 2194.93 1166.84 Q2194.93 1160.48 2198.36 1156.75 Q2201.81 1153 2207.64 1153 Q2212.87 1153 2215.9 1156.38 Q2218.96 1159.74 2218.96 1165.52 M2214.7 1164.27 Q2214.65 1160.78 2212.73 1158.69 Q2210.83 1156.61 2207.69 1156.61 Q2204.12 1156.61 2201.97 1158.62 Q2199.84 1160.64 2199.51 1164.3 L2214.7 1164.27 Z" fill="#000000" fill-rule="nonzero" fill-opacity="1" /><path clip-path="url(#clip150)" d="M2243.01 1157.56 L2243.01 1143.53 L2247.27 1143.53 L2247.27 1179.55 L2243.01 1179.55 L2243.01 1175.66 Q2241.67 1177.98 2239.61 1179.11 Q2237.57 1180.22 2234.7 1180.22 Q2230 1180.22 2227.04 1176.47 Q2224.1 1172.72 2224.1 1166.61 Q2224.1 1160.5 2227.04 1156.75 Q2230 1153 2234.7 1153 Q2237.57 1153 2239.61 1154.13 Q2241.67 1155.24 2243.01 1157.56 M2228.5 1166.61 Q2228.5 1171.31 2230.42 1173.99 Q2232.36 1176.66 2235.74 1176.66 Q2239.12 1176.66 2241.06 1173.99 Q2243.01 1171.31 2243.01 1166.61 Q2243.01 1161.91 2241.06 1159.25 Q2239.12 1156.56 2235.74 1156.56 Q2232.36 1156.56 2230.42 1159.25 Q2228.5 1161.91 2228.5 1166.61 Z" fill="#000000" fill-rule="nonzero" fill-opacity="1" /><path clip-path="url(#clip150)" d="M2255.37 1143.58 L2259.07 1143.58 Q2262.55 1149.04 2264.26 1154.27 Q2266 1159.5 2266 1164.67 Q2266 1169.85 2264.26 1175.11 Q2262.55 1180.36 2259.07 1185.8 L2255.37 1185.8 Q2258.45 1180.5 2259.95 1175.27 Q2261.48 1170.01 2261.48 1164.67 Q2261.48 1159.32 2259.95 1154.11 Q2258.45 1148.9 2255.37 1143.58 Z" fill="#000000" fill-rule="nonzero" fill-opacity="1" /><polyline clip-path="url(#clip150)" style="stroke:#009af9; stroke-linecap:round; stroke-linejoin:round; stroke-width:4; stroke-opacity:1; fill:none" points="1804.03,1214.11 1934.17,1214.11 "/>
<path clip-path="url(#clip150)" d="M1955.86 1196.83 L1977.71 1196.83 L1977.71 1200.76 L1960.53 1200.76 L1960.53 1211 L1976.99 1211 L1976.99 1214.93 L1960.53 1214.93 L1960.53 1227.45 L1978.13 1227.45 L1978.13 1231.39 L1955.86 1231.39 L1955.86 1196.83 Z" fill="#000000" fill-rule="nonzero" fill-opacity="1" /><path clip-path="url(#clip150)" d="M2010.93 1195.42 Q2007.83 1200.74 2006.32 1205.95 Q2004.82 1211.16 2004.82 1216.51 Q2004.82 1221.85 2006.32 1227.11 Q2007.85 1232.34 2010.93 1237.64 L2007.22 1237.64 Q2003.75 1232.2 2002.02 1226.95 Q2000.3 1221.69 2000.3 1216.51 Q2000.3 1211.34 2002.02 1206.11 Q2003.73 1200.88 2007.22 1195.42 L2010.93 1195.42 Z" fill="#000000" fill-rule="nonzero" fill-opacity="1" /><path clip-path="url(#clip150)" d="M2032.32 1195.37 L2032.32 1198.91 L2028.24 1198.91 Q2025.95 1198.91 2025.05 1199.84 Q2024.17 1200.76 2024.17 1203.17 L2024.17 1205.46 L2031.18 1205.46 L2031.18 1208.77 L2024.17 1208.77 L2024.17 1231.39 L2019.89 1231.39 L2019.89 1208.77 L2015.81 1208.77 L2015.81 1205.46 L2019.89 1205.46 L2019.89 1203.66 Q2019.89 1199.33 2021.9 1197.36 Q2023.91 1195.37 2028.29 1195.37 L2032.32 1195.37 Z" fill="#000000" fill-rule="nonzero" fill-opacity="1" /><path clip-path="url(#clip150)" d="M2035.88 1205.46 L2040.14 1205.46 L2040.14 1231.39 L2035.88 1231.39 L2035.88 1205.46 M2035.88 1195.37 L2040.14 1195.37 L2040.14 1200.76 L2035.88 1200.76 L2035.88 1195.37 Z" fill="#000000" fill-rule="nonzero" fill-opacity="1" /><path clip-path="url(#clip150)" d="M2053.27 1198.1 L2053.27 1205.46 L2062.04 1205.46 L2062.04 1208.77 L2053.27 1208.77 L2053.27 1222.85 Q2053.27 1226.02 2054.12 1226.92 Q2055 1227.82 2057.66 1227.82 L2062.04 1227.82 L2062.04 1231.39 L2057.66 1231.39 Q2052.73 1231.39 2050.86 1229.56 Q2048.98 1227.71 2048.98 1222.85 L2048.98 1208.77 L2045.86 1208.77 L2045.86 1205.46 L2048.98 1205.46 L2048.98 1198.1 L2053.27 1198.1 Z" fill="#000000" fill-rule="nonzero" fill-opacity="1" /><path clip-path="url(#clip150)" d="M2071.85 1198.1 L2071.85 1205.46 L2080.63 1205.46 L2080.63 1208.77 L2071.85 1208.77 L2071.85 1222.85 Q2071.85 1226.02 2072.71 1226.92 Q2073.59 1227.82 2076.25 1227.82 L2080.63 1227.82 L2080.63 1231.39 L2076.25 1231.39 Q2071.32 1231.39 2069.45 1229.56 Q2067.57 1227.71 2067.57 1222.85 L2067.57 1208.77 L2064.45 1208.77 L2064.45 1205.46 L2067.57 1205.46 L2067.57 1198.1 L2071.85 1198.1 Z" fill="#000000" fill-rule="nonzero" fill-opacity="1" /><path clip-path="url(#clip150)" d="M2108.4 1217.36 L2108.4 1219.45 L2088.82 1219.45 Q2089.1 1223.84 2091.46 1226.16 Q2093.84 1228.45 2098.08 1228.45 Q2100.53 1228.45 2102.82 1227.85 Q2105.14 1227.25 2107.41 1226.04 L2107.41 1230.07 Q2105.12 1231.04 2102.71 1231.55 Q2100.3 1232.06 2097.83 1232.06 Q2091.62 1232.06 2087.99 1228.45 Q2084.38 1224.84 2084.38 1218.68 Q2084.38 1212.32 2087.8 1208.59 Q2091.25 1204.84 2097.08 1204.84 Q2102.32 1204.84 2105.35 1208.22 Q2108.4 1211.58 2108.4 1217.36 M2104.14 1216.11 Q2104.1 1212.62 2102.18 1210.53 Q2100.28 1208.45 2097.13 1208.45 Q2093.57 1208.45 2091.41 1210.46 Q2089.28 1212.48 2088.96 1216.14 L2104.14 1216.11 Z" fill="#000000" fill-rule="nonzero" fill-opacity="1" /><path clip-path="url(#clip150)" d="M2132.45 1209.4 L2132.45 1195.37 L2136.71 1195.37 L2136.71 1231.39 L2132.45 1231.39 L2132.45 1227.5 Q2131.11 1229.82 2129.05 1230.95 Q2127.01 1232.06 2124.14 1232.06 Q2119.45 1232.06 2116.48 1228.31 Q2113.54 1224.56 2113.54 1218.45 Q2113.54 1212.34 2116.48 1208.59 Q2119.45 1204.84 2124.14 1204.84 Q2127.01 1204.84 2129.05 1205.97 Q2131.11 1207.08 2132.45 1209.4 M2117.94 1218.45 Q2117.94 1223.15 2119.86 1225.83 Q2121.81 1228.5 2125.19 1228.5 Q2128.57 1228.5 2130.51 1225.83 Q2132.45 1223.15 2132.45 1218.45 Q2132.45 1213.75 2130.51 1211.09 Q2128.57 1208.4 2125.19 1208.4 Q2121.81 1208.4 2119.86 1211.09 Q2117.94 1213.75 2117.94 1218.45 Z" fill="#000000" fill-rule="nonzero" fill-opacity="1" /><path clip-path="url(#clip150)" d="M2144.82 1195.42 L2148.52 1195.42 Q2151.99 1200.88 2153.7 1206.11 Q2155.44 1211.34 2155.44 1216.51 Q2155.44 1221.69 2153.7 1226.95 Q2151.99 1232.2 2148.52 1237.64 L2144.82 1237.64 Q2147.89 1232.34 2149.4 1227.11 Q2150.93 1221.85 2150.93 1216.51 Q2150.93 1211.16 2149.4 1205.95 Q2147.89 1200.74 2144.82 1195.42 Z" fill="#000000" fill-rule="nonzero" fill-opacity="1" /></svg>
