<?xml version="1.0" encoding="utf-8"?>
<svg xmlns="http://www.w3.org/2000/svg" xmlns:xlink="http://www.w3.org/1999/xlink" width="600" height="400" viewBox="0 0 2400 1600">
<defs>
  <clipPath id="clip030">
    <rect x="0" y="0" width="2400" height="1600"/>
  </clipPath>
</defs>
<path clip-path="url(#clip030)" d="M0 1600 L2400 1600 L2400 0 L0 0  Z" fill="#ffffff" fill-rule="evenodd" fill-opacity="1"/>
<defs>
  <clipPath id="clip031">
    <rect x="480" y="0" width="1681" height="1600"/>
  </clipPath>
</defs>
<path clip-path="url(#clip030)" d="M430.644 1305.35 L2352.76 1305.35 L2352.76 123.472 L430.644 123.472  Z" fill="#ffffff" fill-rule="evenodd" fill-opacity="1"/>
<defs>
  <clipPath id="clip032">
    <rect x="430" y="123" width="1923" height="1183"/>
  </clipPath>
</defs>
<polyline clip-path="url(#clip032)" style="stroke:#000000; stroke-linecap:round; stroke-linejoin:round; stroke-width:2; stroke-opacity:0.1; fill:none" points="485.044,1305.35 485.044,123.472 "/>
<polyline clip-path="url(#clip032)" style="stroke:#000000; stroke-linecap:round; stroke-linejoin:round; stroke-width:2; stroke-opacity:0.1; fill:none" points="938.372,1305.35 938.372,123.472 "/>
<polyline clip-path="url(#clip032)" style="stroke:#000000; stroke-linecap:round; stroke-linejoin:round; stroke-width:2; stroke-opacity:0.1; fill:none" points="1391.7,1305.35 1391.7,123.472 "/>
<polyline clip-path="url(#clip032)" style="stroke:#000000; stroke-linecap:round; stroke-linejoin:round; stroke-width:2; stroke-opacity:0.1; fill:none" points="1845.03,1305.35 1845.03,123.472 "/>
<polyline clip-path="url(#clip032)" style="stroke:#000000; stroke-linecap:round; stroke-linejoin:round; stroke-width:2; stroke-opacity:0.1; fill:none" points="2298.36,1305.35 2298.36,123.472 "/>
<polyline clip-path="url(#clip030)" style="stroke:#000000; stroke-linecap:round; stroke-linejoin:round; stroke-width:4; stroke-opacity:1; fill:none" points="430.644,1305.35 2352.76,1305.35 "/>
<polyline clip-path="url(#clip030)" style="stroke:#000000; stroke-linecap:round; stroke-linejoin:round; stroke-width:4; stroke-opacity:1; fill:none" points="485.044,1305.35 485.044,1286.45 "/>
<polyline clip-path="url(#clip030)" style="stroke:#000000; stroke-linecap:round; stroke-linejoin:round; stroke-width:4; stroke-opacity:1; fill:none" points="938.372,1305.35 938.372,1286.45 "/>
<polyline clip-path="url(#clip030)" style="stroke:#000000; stroke-linecap:round; stroke-linejoin:round; stroke-width:4; stroke-opacity:1; fill:none" points="1391.7,1305.35 1391.7,1286.45 "/>
<polyline clip-path="url(#clip030)" style="stroke:#000000; stroke-linecap:round; stroke-linejoin:round; stroke-width:4; stroke-opacity:1; fill:none" points="1845.03,1305.35 1845.03,1286.45 "/>
<polyline clip-path="url(#clip030)" style="stroke:#000000; stroke-linecap:round; stroke-linejoin:round; stroke-width:4; stroke-opacity:1; fill:none" points="2298.36,1305.35 2298.36,1286.45 "/>
<path clip-path="url(#clip030)" d="M462.428 1336.26 Q458.817 1336.26 456.988 1339.83 Q455.183 1343.37 455.183 1350.5 Q455.183 1357.61 456.988 1361.17 Q458.817 1364.71 462.428 1364.71 Q466.062 1364.71 467.868 1361.17 Q469.697 1357.61 469.697 1350.5 Q469.697 1343.37 467.868 1339.83 Q466.062 1336.26 462.428 1336.26 M462.428 1332.56 Q468.238 1332.56 471.294 1337.17 Q474.373 1341.75 474.373 1350.5 Q474.373 1359.23 471.294 1363.83 Q468.238 1368.42 462.428 1368.42 Q456.618 1368.42 453.539 1363.83 Q450.484 1359.23 450.484 1350.5 Q450.484 1341.75 453.539 1337.17 Q456.618 1332.56 462.428 1332.56 Z" fill="#000000" fill-rule="nonzero" fill-opacity="1" /><path clip-path="url(#clip030)" d="M482.59 1361.87 L487.474 1361.87 L487.474 1367.75 L482.59 1367.75 L482.59 1361.87 Z" fill="#000000" fill-rule="nonzero" fill-opacity="1" /><path clip-path="url(#clip030)" d="M507.659 1336.26 Q504.048 1336.26 502.22 1339.83 Q500.414 1343.37 500.414 1350.5 Q500.414 1357.61 502.22 1361.17 Q504.048 1364.71 507.659 1364.71 Q511.294 1364.71 513.099 1361.17 Q514.928 1357.61 514.928 1350.5 Q514.928 1343.37 513.099 1339.83 Q511.294 1336.26 507.659 1336.26 M507.659 1332.56 Q513.47 1332.56 516.525 1337.17 Q519.604 1341.75 519.604 1350.5 Q519.604 1359.23 516.525 1363.83 Q513.47 1368.42 507.659 1368.42 Q501.849 1368.42 498.771 1363.83 Q495.715 1359.23 495.715 1350.5 Q495.715 1341.75 498.771 1337.17 Q501.849 1332.56 507.659 1332.56 Z" fill="#000000" fill-rule="nonzero" fill-opacity="1" /><path clip-path="url(#clip030)" d="M910.108 1363.81 L926.428 1363.81 L926.428 1367.75 L904.483 1367.75 L904.483 1363.81 Q907.145 1361.06 911.729 1356.43 Q916.335 1351.77 917.516 1350.43 Q919.761 1347.91 920.641 1346.17 Q921.543 1344.41 921.543 1342.72 Q921.543 1339.97 919.599 1338.23 Q917.678 1336.5 914.576 1336.5 Q912.377 1336.5 909.923 1337.26 Q907.492 1338.02 904.715 1339.57 L904.715 1334.85 Q907.539 1333.72 909.992 1333.14 Q912.446 1332.56 914.483 1332.56 Q919.854 1332.56 923.048 1335.25 Q926.242 1337.93 926.242 1342.42 Q926.242 1344.55 925.432 1346.47 Q924.645 1348.37 922.539 1350.96 Q921.96 1351.63 918.858 1354.85 Q915.756 1358.05 910.108 1363.81 Z" fill="#000000" fill-rule="nonzero" fill-opacity="1" /><path clip-path="url(#clip030)" d="M936.242 1361.87 L941.127 1361.87 L941.127 1367.75 L936.242 1367.75 L936.242 1361.87 Z" fill="#000000" fill-rule="nonzero" fill-opacity="1" /><path clip-path="url(#clip030)" d="M951.358 1333.19 L969.714 1333.19 L969.714 1337.12 L955.64 1337.12 L955.64 1345.59 Q956.659 1345.25 957.677 1345.08 Q958.696 1344.9 959.714 1344.9 Q965.501 1344.9 968.881 1348.07 Q972.261 1351.24 972.261 1356.66 Q972.261 1362.24 968.788 1365.34 Q965.316 1368.42 958.997 1368.42 Q956.821 1368.42 954.552 1368.05 Q952.307 1367.68 949.9 1366.94 L949.9 1362.24 Q951.983 1363.37 954.205 1363.93 Q956.427 1364.48 958.904 1364.48 Q962.909 1364.48 965.247 1362.38 Q967.585 1360.27 967.585 1356.66 Q967.585 1353.05 965.247 1350.94 Q962.909 1348.83 958.904 1348.83 Q957.029 1348.83 955.154 1349.25 Q953.302 1349.67 951.358 1350.55 L951.358 1333.19 Z" fill="#000000" fill-rule="nonzero" fill-opacity="1" /><path clip-path="url(#clip030)" d="M1358.86 1333.19 L1377.22 1333.19 L1377.22 1337.12 L1363.15 1337.12 L1363.15 1345.59 Q1364.17 1345.25 1365.18 1345.08 Q1366.2 1344.9 1367.22 1344.9 Q1373.01 1344.9 1376.39 1348.07 Q1379.77 1351.24 1379.77 1356.66 Q1379.77 1362.24 1376.3 1365.34 Q1372.82 1368.42 1366.5 1368.42 Q1364.33 1368.42 1362.06 1368.05 Q1359.81 1367.68 1357.41 1366.94 L1357.41 1362.24 Q1359.49 1363.37 1361.71 1363.93 Q1363.93 1364.48 1366.41 1364.48 Q1370.42 1364.48 1372.75 1362.38 Q1375.09 1360.27 1375.09 1356.66 Q1375.09 1353.05 1372.75 1350.94 Q1370.42 1348.83 1366.41 1348.83 Q1364.54 1348.83 1362.66 1349.25 Q1360.81 1349.67 1358.86 1350.55 L1358.86 1333.19 Z" fill="#000000" fill-rule="nonzero" fill-opacity="1" /><path clip-path="url(#clip030)" d="M1388.98 1361.87 L1393.86 1361.87 L1393.86 1367.75 L1388.98 1367.75 L1388.98 1361.87 Z" fill="#000000" fill-rule="nonzero" fill-opacity="1" /><path clip-path="url(#clip030)" d="M1414.05 1336.26 Q1410.44 1336.26 1408.61 1339.83 Q1406.8 1343.37 1406.8 1350.5 Q1406.8 1357.61 1408.61 1361.17 Q1410.44 1364.71 1414.05 1364.71 Q1417.68 1364.71 1419.49 1361.17 Q1421.32 1357.61 1421.32 1350.5 Q1421.32 1343.37 1419.49 1339.83 Q1417.68 1336.26 1414.05 1336.26 M1414.05 1332.56 Q1419.86 1332.56 1422.92 1337.17 Q1425.99 1341.75 1425.99 1350.5 Q1425.99 1359.23 1422.92 1363.83 Q1419.86 1368.42 1414.05 1368.42 Q1408.24 1368.42 1405.16 1363.83 Q1402.11 1359.23 1402.11 1350.5 Q1402.11 1341.75 1405.16 1337.17 Q1408.24 1332.56 1414.05 1332.56 Z" fill="#000000" fill-rule="nonzero" fill-opacity="1" /><path clip-path="url(#clip030)" d="M1811.35 1333.19 L1833.57 1333.19 L1833.57 1335.18 L1821.02 1367.75 L1816.14 1367.75 L1827.95 1337.12 L1811.35 1337.12 L1811.35 1333.19 Z" fill="#000000" fill-rule="nonzero" fill-opacity="1" /><path clip-path="url(#clip030)" d="M1842.69 1361.87 L1847.57 1361.87 L1847.57 1367.75 L1842.69 1367.75 L1842.69 1361.87 Z" fill="#000000" fill-rule="nonzero" fill-opacity="1" /><path clip-path="url(#clip030)" d="M1857.81 1333.19 L1876.16 1333.19 L1876.16 1337.12 L1862.09 1337.12 L1862.09 1345.59 Q1863.11 1345.25 1864.13 1345.08 Q1865.14 1344.9 1866.16 1344.9 Q1871.95 1344.9 1875.33 1348.07 Q1878.71 1351.24 1878.71 1356.66 Q1878.71 1362.24 1875.24 1365.34 Q1871.76 1368.42 1865.44 1368.42 Q1863.27 1368.42 1861 1368.05 Q1858.76 1367.68 1856.35 1366.94 L1856.35 1362.24 Q1858.43 1363.37 1860.65 1363.93 Q1862.88 1364.48 1865.35 1364.48 Q1869.36 1364.48 1871.69 1362.38 Q1874.03 1360.27 1874.03 1356.66 Q1874.03 1353.05 1871.69 1350.94 Q1869.36 1348.83 1865.35 1348.83 Q1863.48 1348.83 1861.6 1349.25 Q1859.75 1349.67 1857.81 1350.55 L1857.81 1333.19 Z" fill="#000000" fill-rule="nonzero" fill-opacity="1" /><path clip-path="url(#clip030)" d="M2250.43 1363.81 L2258.07 1363.81 L2258.07 1337.44 L2249.76 1339.11 L2249.76 1334.85 L2258.02 1333.19 L2262.7 1333.19 L2262.7 1363.81 L2270.34 1363.81 L2270.34 1367.75 L2250.43 1367.75 L2250.43 1363.81 Z" fill="#000000" fill-rule="nonzero" fill-opacity="1" /><path clip-path="url(#clip030)" d="M2289.78 1336.26 Q2286.17 1336.26 2284.34 1339.83 Q2282.53 1343.37 2282.53 1350.5 Q2282.53 1357.61 2284.34 1361.17 Q2286.17 1364.71 2289.78 1364.71 Q2293.41 1364.71 2295.22 1361.17 Q2297.05 1357.61 2297.05 1350.5 Q2297.05 1343.37 2295.22 1339.83 Q2293.41 1336.26 2289.78 1336.26 M2289.78 1332.56 Q2295.59 1332.56 2298.65 1337.17 Q2301.72 1341.75 2301.72 1350.5 Q2301.72 1359.23 2298.65 1363.83 Q2295.59 1368.42 2289.78 1368.42 Q2283.97 1368.42 2280.89 1363.83 Q2277.84 1359.23 2277.84 1350.5 Q2277.84 1341.75 2280.89 1337.17 Q2283.97 1332.56 2289.78 1332.56 Z" fill="#000000" fill-rule="nonzero" fill-opacity="1" /><path clip-path="url(#clip030)" d="M2309.94 1361.87 L2314.83 1361.87 L2314.83 1367.75 L2309.94 1367.75 L2309.94 1361.87 Z" fill="#000000" fill-rule="nonzero" fill-opacity="1" /><path clip-path="url(#clip030)" d="M2335.01 1336.26 Q2331.4 1336.26 2329.57 1339.83 Q2327.77 1343.37 2327.77 1350.5 Q2327.77 1357.61 2329.57 1361.17 Q2331.4 1364.71 2335.01 1364.71 Q2338.65 1364.71 2340.45 1361.17 Q2342.28 1357.61 2342.28 1350.5 Q2342.28 1343.37 2340.45 1339.83 Q2338.65 1336.26 2335.01 1336.26 M2335.01 1332.56 Q2340.82 1332.56 2343.88 1337.17 Q2346.96 1341.75 2346.96 1350.5 Q2346.96 1359.23 2343.88 1363.83 Q2340.82 1368.42 2335.01 1368.42 Q2329.2 1368.42 2326.12 1363.83 Q2323.07 1359.23 2323.07 1350.5 Q2323.07 1341.75 2326.12 1337.17 Q2329.2 1332.56 2335.01 1332.56 Z" fill="#000000" fill-rule="nonzero" fill-opacity="1" /><polyline clip-path="url(#clip032)" style="stroke:#000000; stroke-linecap:round; stroke-linejoin:round; stroke-width:2; stroke-opacity:0.1; fill:none" points="430.644,1271.9 2352.76,1271.9 "/>
<polyline clip-path="url(#clip032)" style="stroke:#000000; stroke-linecap:round; stroke-linejoin:round; stroke-width:2; stroke-opacity:0.1; fill:none" points="430.644,1017.68 2352.76,1017.68 "/>
<polyline clip-path="url(#clip032)" style="stroke:#000000; stroke-linecap:round; stroke-linejoin:round; stroke-width:2; stroke-opacity:0.1; fill:none" points="430.644,763.466 2352.76,763.466 "/>
<polyline clip-path="url(#clip032)" style="stroke:#000000; stroke-linecap:round; stroke-linejoin:round; stroke-width:2; stroke-opacity:0.1; fill:none" points="430.644,509.25 2352.76,509.25 "/>
<polyline clip-path="url(#clip032)" style="stroke:#000000; stroke-linecap:round; stroke-linejoin:round; stroke-width:2; stroke-opacity:0.1; fill:none" points="430.644,255.035 2352.76,255.035 "/>
<polyline clip-path="url(#clip030)" style="stroke:#000000; stroke-linecap:round; stroke-linejoin:round; stroke-width:4; stroke-opacity:1; fill:none" points="430.644,1305.35 430.644,123.472 "/>
<polyline clip-path="url(#clip030)" style="stroke:#000000; stroke-linecap:round; stroke-linejoin:round; stroke-width:4; stroke-opacity:1; fill:none" points="430.644,1271.9 449.542,1271.9 "/>
<polyline clip-path="url(#clip030)" style="stroke:#000000; stroke-linecap:round; stroke-linejoin:round; stroke-width:4; stroke-opacity:1; fill:none" points="430.644,1017.68 449.542,1017.68 "/>
<polyline clip-path="url(#clip030)" style="stroke:#000000; stroke-linecap:round; stroke-linejoin:round; stroke-width:4; stroke-opacity:1; fill:none" points="430.644,763.466 449.542,763.466 "/>
<polyline clip-path="url(#clip030)" style="stroke:#000000; stroke-linecap:round; stroke-linejoin:round; stroke-width:4; stroke-opacity:1; fill:none" points="430.644,509.25 449.542,509.25 "/>
<polyline clip-path="url(#clip030)" style="stroke:#000000; stroke-linecap:round; stroke-linejoin:round; stroke-width:4; stroke-opacity:1; fill:none" points="430.644,255.035 449.542,255.035 "/>
<path clip-path="url(#clip030)" d="M307.307 1257.69 Q303.696 1257.69 301.867 1261.26 Q300.062 1264.8 300.062 1271.93 Q300.062 1279.04 301.867 1282.6 Q303.696 1286.14 307.307 1286.14 Q310.941 1286.14 312.747 1282.6 Q314.575 1279.04 314.575 1271.93 Q314.575 1264.8 312.747 1261.26 Q310.941 1257.69 307.307 1257.69 M307.307 1253.99 Q313.117 1253.99 316.173 1258.6 Q319.251 1263.18 319.251 1271.93 Q319.251 1280.66 316.173 1285.26 Q313.117 1289.85 307.307 1289.85 Q301.497 1289.85 298.418 1285.26 Q295.363 1280.66 295.363 1271.93 Q295.363 1263.18 298.418 1258.6 Q301.497 1253.99 307.307 1253.99 Z" fill="#000000" fill-rule="nonzero" fill-opacity="1" /><path clip-path="url(#clip030)" d="M327.469 1283.3 L332.353 1283.3 L332.353 1289.18 L327.469 1289.18 L327.469 1283.3 Z" fill="#000000" fill-rule="nonzero" fill-opacity="1" /><path clip-path="url(#clip030)" d="M352.538 1257.69 Q348.927 1257.69 347.098 1261.26 Q345.293 1264.8 345.293 1271.93 Q345.293 1279.04 347.098 1282.6 Q348.927 1286.14 352.538 1286.14 Q356.172 1286.14 357.978 1282.6 Q359.807 1279.04 359.807 1271.93 Q359.807 1264.8 357.978 1261.26 Q356.172 1257.69 352.538 1257.69 M352.538 1253.99 Q358.348 1253.99 361.404 1258.6 Q364.483 1263.18 364.483 1271.93 Q364.483 1280.66 361.404 1285.26 Q358.348 1289.85 352.538 1289.85 Q346.728 1289.85 343.649 1285.26 Q340.594 1280.66 340.594 1271.93 Q340.594 1263.18 343.649 1258.6 Q346.728 1253.99 352.538 1253.99 Z" fill="#000000" fill-rule="nonzero" fill-opacity="1" /><path clip-path="url(#clip030)" d="M382.7 1257.69 Q379.089 1257.69 377.26 1261.26 Q375.455 1264.8 375.455 1271.93 Q375.455 1279.04 377.26 1282.6 Q379.089 1286.14 382.7 1286.14 Q386.334 1286.14 388.14 1282.6 Q389.968 1279.04 389.968 1271.93 Q389.968 1264.8 388.14 1261.26 Q386.334 1257.69 382.7 1257.69 M382.7 1253.99 Q388.51 1253.99 391.566 1258.6 Q394.644 1263.18 394.644 1271.93 Q394.644 1280.66 391.566 1285.26 Q388.51 1289.85 382.7 1289.85 Q376.89 1289.85 373.811 1285.26 Q370.756 1280.66 370.756 1271.93 Q370.756 1263.18 373.811 1258.6 Q376.89 1253.99 382.7 1253.99 Z" fill="#000000" fill-rule="nonzero" fill-opacity="1" /><path clip-path="url(#clip030)" d="M308.302 1003.48 Q304.691 1003.48 302.862 1007.04 Q301.057 1010.59 301.057 1017.72 Q301.057 1024.82 302.862 1028.39 Q304.691 1031.93 308.302 1031.93 Q311.937 1031.93 313.742 1028.39 Q315.571 1024.82 315.571 1017.72 Q315.571 1010.59 313.742 1007.04 Q311.937 1003.48 308.302 1003.48 M308.302 999.776 Q314.112 999.776 317.168 1004.38 Q320.247 1008.97 320.247 1017.72 Q320.247 1026.44 317.168 1031.05 Q314.112 1035.63 308.302 1035.63 Q302.492 1035.63 299.413 1031.05 Q296.358 1026.44 296.358 1017.72 Q296.358 1008.97 299.413 1004.38 Q302.492 999.776 308.302 999.776 Z" fill="#000000" fill-rule="nonzero" fill-opacity="1" /><path clip-path="url(#clip030)" d="M328.464 1029.08 L333.348 1029.08 L333.348 1034.96 L328.464 1034.96 L328.464 1029.08 Z" fill="#000000" fill-rule="nonzero" fill-opacity="1" /><path clip-path="url(#clip030)" d="M347.561 1031.03 L363.881 1031.03 L363.881 1034.96 L341.936 1034.96 L341.936 1031.03 Q344.598 1028.27 349.182 1023.64 Q353.788 1018.99 354.969 1017.65 Q357.214 1015.12 358.094 1013.39 Q358.996 1011.63 358.996 1009.94 Q358.996 1007.18 357.052 1005.45 Q355.131 1003.71 352.029 1003.71 Q349.83 1003.71 347.376 1004.47 Q344.946 1005.24 342.168 1006.79 L342.168 1002.07 Q344.992 1000.93 347.446 1000.35 Q349.899 999.776 351.936 999.776 Q357.307 999.776 360.501 1002.46 Q363.695 1005.15 363.695 1009.64 Q363.695 1011.77 362.885 1013.69 Q362.098 1015.59 359.992 1018.18 Q359.413 1018.85 356.311 1022.07 Q353.209 1025.26 347.561 1031.03 Z" fill="#000000" fill-rule="nonzero" fill-opacity="1" /><path clip-path="url(#clip030)" d="M373.742 1000.4 L392.098 1000.4 L392.098 1004.34 L378.024 1004.34 L378.024 1012.81 Q379.043 1012.46 380.061 1012.3 Q381.08 1012.11 382.098 1012.11 Q387.885 1012.11 391.265 1015.29 Q394.644 1018.46 394.644 1023.87 Q394.644 1029.45 391.172 1032.55 Q387.7 1035.63 381.381 1035.63 Q379.205 1035.63 376.936 1035.26 Q374.691 1034.89 372.283 1034.15 L372.283 1029.45 Q374.367 1030.59 376.589 1031.14 Q378.811 1031.7 381.288 1031.7 Q385.293 1031.7 387.631 1029.59 Q389.968 1027.48 389.968 1023.87 Q389.968 1020.26 387.631 1018.16 Q385.293 1016.05 381.288 1016.05 Q379.413 1016.05 377.538 1016.47 Q375.686 1016.88 373.742 1017.76 L373.742 1000.4 Z" fill="#000000" fill-rule="nonzero" fill-opacity="1" /><path clip-path="url(#clip030)" d="M307.307 749.264 Q303.696 749.264 301.867 752.829 Q300.062 756.371 300.062 763.5 Q300.062 770.607 301.867 774.171 Q303.696 777.713 307.307 777.713 Q310.941 777.713 312.747 774.171 Q314.575 770.607 314.575 763.5 Q314.575 756.371 312.747 752.829 Q310.941 749.264 307.307 749.264 M307.307 745.561 Q313.117 745.561 316.173 750.167 Q319.251 754.75 319.251 763.5 Q319.251 772.227 316.173 776.834 Q313.117 781.417 307.307 781.417 Q301.497 781.417 298.418 776.834 Q295.363 772.227 295.363 763.5 Q295.363 754.75 298.418 750.167 Q301.497 745.561 307.307 745.561 Z" fill="#000000" fill-rule="nonzero" fill-opacity="1" /><path clip-path="url(#clip030)" d="M327.469 774.866 L332.353 774.866 L332.353 780.746 L327.469 780.746 L327.469 774.866 Z" fill="#000000" fill-rule="nonzero" fill-opacity="1" /><path clip-path="url(#clip030)" d="M342.584 746.186 L360.941 746.186 L360.941 750.121 L346.867 750.121 L346.867 758.593 Q347.885 758.246 348.904 758.084 Q349.922 757.898 350.941 757.898 Q356.728 757.898 360.108 761.07 Q363.487 764.241 363.487 769.658 Q363.487 775.236 360.015 778.338 Q356.543 781.417 350.223 781.417 Q348.047 781.417 345.779 781.046 Q343.534 780.676 341.126 779.935 L341.126 775.236 Q343.209 776.371 345.432 776.926 Q347.654 777.482 350.131 777.482 Q354.135 777.482 356.473 775.375 Q358.811 773.269 358.811 769.658 Q358.811 766.047 356.473 763.94 Q354.135 761.834 350.131 761.834 Q348.256 761.834 346.381 762.25 Q344.529 762.667 342.584 763.547 L342.584 746.186 Z" fill="#000000" fill-rule="nonzero" fill-opacity="1" /><path clip-path="url(#clip030)" d="M382.7 749.264 Q379.089 749.264 377.26 752.829 Q375.455 756.371 375.455 763.5 Q375.455 770.607 377.26 774.171 Q379.089 777.713 382.7 777.713 Q386.334 777.713 388.14 774.171 Q389.968 770.607 389.968 763.5 Q389.968 756.371 388.14 752.829 Q386.334 749.264 382.7 749.264 M382.7 745.561 Q388.51 745.561 391.566 750.167 Q394.644 754.75 394.644 763.5 Q394.644 772.227 391.566 776.834 Q388.51 781.417 382.7 781.417 Q376.89 781.417 373.811 776.834 Q370.756 772.227 370.756 763.5 Q370.756 754.75 373.811 750.167 Q376.89 745.561 382.7 745.561 Z" fill="#000000" fill-rule="nonzero" fill-opacity="1" /><path clip-path="url(#clip030)" d="M308.302 495.049 Q304.691 495.049 302.862 498.614 Q301.057 502.155 301.057 509.285 Q301.057 516.391 302.862 519.956 Q304.691 523.498 308.302 523.498 Q311.937 523.498 313.742 519.956 Q315.571 516.391 315.571 509.285 Q315.571 502.155 313.742 498.614 Q311.937 495.049 308.302 495.049 M308.302 491.345 Q314.112 491.345 317.168 495.952 Q320.247 500.535 320.247 509.285 Q320.247 518.012 317.168 522.618 Q314.112 527.201 308.302 527.201 Q302.492 527.201 299.413 522.618 Q296.358 518.012 296.358 509.285 Q296.358 500.535 299.413 495.952 Q302.492 491.345 308.302 491.345 Z" fill="#000000" fill-rule="nonzero" fill-opacity="1" /><path clip-path="url(#clip030)" d="M328.464 520.651 L333.348 520.651 L333.348 526.53 L328.464 526.53 L328.464 520.651 Z" fill="#000000" fill-rule="nonzero" fill-opacity="1" /><path clip-path="url(#clip030)" d="M342.353 491.97 L364.575 491.97 L364.575 493.961 L352.029 526.53 L347.145 526.53 L358.95 495.905 L342.353 495.905 L342.353 491.97 Z" fill="#000000" fill-rule="nonzero" fill-opacity="1" /><path clip-path="url(#clip030)" d="M373.742 491.97 L392.098 491.97 L392.098 495.905 L378.024 495.905 L378.024 504.377 Q379.043 504.03 380.061 503.868 Q381.08 503.683 382.098 503.683 Q387.885 503.683 391.265 506.854 Q394.644 510.026 394.644 515.442 Q394.644 521.021 391.172 524.123 Q387.7 527.201 381.381 527.201 Q379.205 527.201 376.936 526.831 Q374.691 526.461 372.283 525.72 L372.283 521.021 Q374.367 522.155 376.589 522.711 Q378.811 523.266 381.288 523.266 Q385.293 523.266 387.631 521.16 Q389.968 519.053 389.968 515.442 Q389.968 511.831 387.631 509.725 Q385.293 507.618 381.288 507.618 Q379.413 507.618 377.538 508.035 Q375.686 508.452 373.742 509.331 L373.742 491.97 Z" fill="#000000" fill-rule="nonzero" fill-opacity="1" /><path clip-path="url(#clip030)" d="M298.117 268.38 L305.756 268.38 L305.756 242.014 L297.446 243.681 L297.446 239.421 L305.71 237.755 L310.386 237.755 L310.386 268.38 L318.024 268.38 L318.024 272.315 L298.117 272.315 L298.117 268.38 Z" fill="#000000" fill-rule="nonzero" fill-opacity="1" /><path clip-path="url(#clip030)" d="M327.469 266.435 L332.353 266.435 L332.353 272.315 L327.469 272.315 L327.469 266.435 Z" fill="#000000" fill-rule="nonzero" fill-opacity="1" /><path clip-path="url(#clip030)" d="M352.538 240.833 Q348.927 240.833 347.098 244.398 Q345.293 247.94 345.293 255.069 Q345.293 262.176 347.098 265.741 Q348.927 269.282 352.538 269.282 Q356.172 269.282 357.978 265.741 Q359.807 262.176 359.807 255.069 Q359.807 247.94 357.978 244.398 Q356.172 240.833 352.538 240.833 M352.538 237.13 Q358.348 237.13 361.404 241.736 Q364.483 246.32 364.483 255.069 Q364.483 263.796 361.404 268.403 Q358.348 272.986 352.538 272.986 Q346.728 272.986 343.649 268.403 Q340.594 263.796 340.594 255.069 Q340.594 246.32 343.649 241.736 Q346.728 237.13 352.538 237.13 Z" fill="#000000" fill-rule="nonzero" fill-opacity="1" /><path clip-path="url(#clip030)" d="M382.7 240.833 Q379.089 240.833 377.26 244.398 Q375.455 247.94 375.455 255.069 Q375.455 262.176 377.26 265.741 Q379.089 269.282 382.7 269.282 Q386.334 269.282 388.14 265.741 Q389.968 262.176 389.968 255.069 Q389.968 247.94 388.14 244.398 Q386.334 240.833 382.7 240.833 M382.7 237.13 Q388.51 237.13 391.566 241.736 Q394.644 246.32 394.644 255.069 Q394.644 263.796 391.566 268.403 Q388.51 272.986 382.7 272.986 Q376.89 272.986 373.811 268.403 Q370.756 263.796 370.756 255.069 Q370.756 246.32 373.811 241.736 Q376.89 237.13 382.7 237.13 Z" fill="#000000" fill-rule="nonzero" fill-opacity="1" /><path clip-path="url(#clip030)" d="M201.247 902.054 L208.026 902.054 Q205.003 905.3 203.507 908.993 Q202.011 912.653 202.011 916.791 Q202.011 924.939 207.008 929.267 Q211.973 933.596 221.394 933.596 Q230.784 933.596 235.781 929.267 Q240.746 924.939 240.746 916.791 Q240.746 912.653 239.25 908.993 Q237.754 905.3 234.73 902.054 L241.446 902.054 Q243.738 905.428 244.884 909.215 Q246.03 912.971 246.03 917.172 Q246.03 927.962 239.441 934.169 Q232.821 940.375 221.394 940.375 Q209.936 940.375 203.347 934.169 Q196.727 927.962 196.727 917.172 Q196.727 912.907 197.873 909.152 Q198.987 905.364 201.247 902.054 Z" fill="#000000" fill-rule="nonzero" fill-opacity="1" /><path clip-path="url(#clip030)" d="M213.564 878.564 Q213.564 883.275 217.257 886.012 Q220.917 888.75 227.314 888.75 Q233.712 888.75 237.404 886.044 Q241.064 883.307 241.064 878.564 Q241.064 873.886 237.372 871.148 Q233.68 868.411 227.314 868.411 Q220.98 868.411 217.288 871.148 Q213.564 873.886 213.564 878.564 M208.599 878.564 Q208.599 870.926 213.564 866.565 Q218.53 862.205 227.314 862.205 Q236.067 862.205 241.064 866.565 Q246.03 870.926 246.03 878.564 Q246.03 886.235 241.064 890.596 Q236.067 894.924 227.314 894.924 Q218.53 894.924 213.564 890.596 Q208.599 886.235 208.599 878.564 Z" fill="#000000" fill-rule="nonzero" fill-opacity="1" /><path clip-path="url(#clip030)" d="M223.59 822.865 L245.107 822.865 L245.107 828.721 L223.781 828.721 Q218.721 828.721 216.206 830.694 Q213.692 832.668 213.692 836.614 Q213.692 841.357 216.715 844.094 Q219.739 846.831 224.959 846.831 L245.107 846.831 L245.107 852.72 L209.459 852.72 L209.459 846.831 L214.997 846.831 Q211.782 844.731 210.191 841.898 Q208.599 839.033 208.599 835.31 Q208.599 829.167 212.419 826.016 Q216.206 822.865 223.59 822.865 Z" fill="#000000" fill-rule="nonzero" fill-opacity="1" /><path clip-path="url(#clip030)" d="M210.827 785.53 L216.302 785.53 Q214.933 788.012 214.265 790.527 Q213.564 793.009 213.564 795.556 Q213.564 801.253 217.193 804.404 Q220.79 807.555 227.314 807.555 Q233.839 807.555 237.468 804.404 Q241.064 801.253 241.064 795.556 Q241.064 793.009 240.396 790.527 Q239.696 788.012 238.327 785.53 L243.738 785.53 Q244.884 787.98 245.457 790.622 Q246.03 793.232 246.03 796.192 Q246.03 804.245 240.969 808.987 Q235.908 813.73 227.314 813.73 Q218.593 813.73 213.596 808.955 Q208.599 804.149 208.599 795.81 Q208.599 793.105 209.172 790.527 Q209.713 787.949 210.827 785.53 Z" fill="#000000" fill-rule="nonzero" fill-opacity="1" /><path clip-path="url(#clip030)" d="M225.818 744.853 L228.683 744.853 L228.683 771.78 Q234.73 771.398 237.913 768.151 Q241.064 764.873 241.064 759.048 Q241.064 755.675 240.237 752.523 Q239.409 749.341 237.754 746.221 L243.292 746.221 Q244.629 749.372 245.329 752.683 Q246.03 755.993 246.03 759.398 Q246.03 767.928 241.064 772.926 Q236.099 777.891 227.633 777.891 Q218.88 777.891 213.755 773.18 Q208.599 768.438 208.599 760.417 Q208.599 753.224 213.246 749.054 Q217.861 744.853 225.818 744.853 M224.1 750.709 Q219.294 750.773 216.429 753.415 Q213.564 756.025 213.564 760.353 Q213.564 765.255 216.334 768.215 Q219.103 771.143 224.132 771.589 L224.1 750.709 Z" fill="#000000" fill-rule="nonzero" fill-opacity="1" /><path clip-path="url(#clip030)" d="M223.59 705.608 L245.107 705.608 L245.107 711.465 L223.781 711.465 Q218.721 711.465 216.206 713.438 Q213.692 715.411 213.692 719.358 Q213.692 724.101 216.715 726.838 Q219.739 729.575 224.959 729.575 L245.107 729.575 L245.107 735.463 L209.459 735.463 L209.459 729.575 L214.997 729.575 Q211.782 727.474 210.191 724.642 Q208.599 721.777 208.599 718.053 Q208.599 711.91 212.419 708.759 Q216.206 705.608 223.59 705.608 Z" fill="#000000" fill-rule="nonzero" fill-opacity="1" /><path clip-path="url(#clip030)" d="M199.337 688.134 L209.459 688.134 L209.459 676.071 L214.01 676.071 L214.01 688.134 L233.362 688.134 Q237.722 688.134 238.964 686.957 Q240.205 685.747 240.205 682.087 L240.205 676.071 L245.107 676.071 L245.107 682.087 Q245.107 688.866 242.592 691.445 Q240.046 694.023 233.362 694.023 L214.01 694.023 L214.01 698.319 L209.459 698.319 L209.459 694.023 L199.337 694.023 L199.337 688.134 Z" fill="#000000" fill-rule="nonzero" fill-opacity="1" /><path clip-path="url(#clip030)" d="M214.933 647.712 Q214.36 648.699 214.106 649.876 Q213.819 651.022 213.819 652.423 Q213.819 657.388 217.066 660.062 Q220.28 662.703 226.328 662.703 L245.107 662.703 L245.107 668.592 L209.459 668.592 L209.459 662.703 L214.997 662.703 Q211.75 660.857 210.191 657.897 Q208.599 654.937 208.599 650.704 Q208.599 650.099 208.695 649.367 Q208.758 648.635 208.917 647.744 L214.933 647.712 Z" fill="#000000" fill-rule="nonzero" fill-opacity="1" /><path clip-path="url(#clip030)" d="M227.187 625.368 Q227.187 632.466 228.81 635.204 Q230.434 637.941 234.348 637.941 Q237.468 637.941 239.314 635.904 Q241.128 633.835 241.128 630.302 Q241.128 625.432 237.69 622.504 Q234.221 619.544 228.492 619.544 L227.187 619.544 L227.187 625.368 M224.768 613.687 L245.107 613.687 L245.107 619.544 L239.696 619.544 Q242.942 621.549 244.502 624.541 Q246.03 627.533 246.03 631.862 Q246.03 637.336 242.974 640.583 Q239.887 643.797 234.73 643.797 Q228.715 643.797 225.659 639.787 Q222.604 635.745 222.604 627.756 L222.604 619.544 L222.031 619.544 Q217.989 619.544 215.792 622.217 Q213.564 624.859 213.564 629.665 Q213.564 632.721 214.296 635.617 Q215.029 638.514 216.493 641.187 L211.082 641.187 Q209.841 637.973 209.236 634.949 Q208.599 631.925 208.599 629.061 Q208.599 621.326 212.61 617.507 Q216.62 613.687 224.768 613.687 Z" fill="#000000" fill-rule="nonzero" fill-opacity="1" /><path clip-path="url(#clip030)" d="M199.337 595.832 L209.459 595.832 L209.459 583.769 L214.01 583.769 L214.01 595.832 L233.362 595.832 Q237.722 595.832 238.964 594.654 Q240.205 593.444 240.205 589.784 L240.205 583.769 L245.107 583.769 L245.107 589.784 Q245.107 596.564 242.592 599.142 Q240.046 601.72 233.362 601.72 L214.01 601.72 L214.01 606.017 L209.459 606.017 L209.459 601.72 L199.337 601.72 L199.337 595.832 Z" fill="#000000" fill-rule="nonzero" fill-opacity="1" /><path clip-path="url(#clip030)" d="M209.459 576.066 L209.459 570.21 L245.107 570.21 L245.107 576.066 L209.459 576.066 M195.581 576.066 L195.581 570.21 L202.997 570.21 L202.997 576.066 L195.581 576.066 Z" fill="#000000" fill-rule="nonzero" fill-opacity="1" /><path clip-path="url(#clip030)" d="M213.564 544.142 Q213.564 548.853 217.257 551.59 Q220.917 554.327 227.314 554.327 Q233.712 554.327 237.404 551.622 Q241.064 548.885 241.064 544.142 Q241.064 539.463 237.372 536.726 Q233.68 533.989 227.314 533.989 Q220.98 533.989 217.288 536.726 Q213.564 539.463 213.564 544.142 M208.599 544.142 Q208.599 536.503 213.564 532.143 Q218.53 527.782 227.314 527.782 Q236.067 527.782 241.064 532.143 Q246.03 536.503 246.03 544.142 Q246.03 551.813 241.064 556.173 Q236.067 560.502 227.314 560.502 Q218.53 560.502 213.564 556.173 Q208.599 551.813 208.599 544.142 Z" fill="#000000" fill-rule="nonzero" fill-opacity="1" /><path clip-path="url(#clip030)" d="M223.59 488.442 L245.107 488.442 L245.107 494.299 L223.781 494.299 Q218.721 494.299 216.206 496.272 Q213.692 498.245 213.692 502.192 Q213.692 506.935 216.715 509.672 Q219.739 512.409 224.959 512.409 L245.107 512.409 L245.107 518.297 L209.459 518.297 L209.459 512.409 L214.997 512.409 Q211.782 510.308 210.191 507.476 Q208.599 504.611 208.599 500.887 Q208.599 494.744 212.419 491.593 Q216.206 488.442 223.59 488.442 Z" fill="#000000" fill-rule="nonzero" fill-opacity="1" /><path clip-path="url(#clip030)" d="M1384.51 28.9478 L1384.51 35.9153 Q1381.35 34.1734 1378.15 33.3227 Q1374.99 32.4315 1371.75 32.4315 Q1364.5 32.4315 1360.49 37.0496 Q1356.48 41.6271 1356.48 49.9314 Q1356.48 58.2358 1360.49 62.8538 Q1364.5 67.4314 1371.75 67.4314 Q1374.99 67.4314 1378.15 66.5807 Q1381.35 65.6895 1384.51 63.9476 L1384.51 70.8341 Q1381.39 72.2924 1378.03 73.0216 Q1374.71 73.7508 1370.94 73.7508 Q1360.69 73.7508 1354.65 67.3098 Q1348.62 60.8689 1348.62 49.9314 Q1348.62 38.832 1354.7 32.472 Q1360.81 26.1121 1371.43 26.1121 Q1374.87 26.1121 1378.15 26.8413 Q1381.43 27.5299 1384.51 28.9478 Z" fill="#000000" fill-rule="nonzero" fill-opacity="1" /><path clip-path="url(#clip030)" d="M1399.94 65.6895 L1413.31 65.6895 L1413.31 19.5497 L1398.77 22.4663 L1398.77 15.0127 L1413.23 12.096 L1421.41 12.096 L1421.41 65.6895 L1434.78 65.6895 L1434.78 72.576 L1399.94 72.576 L1399.94 65.6895 Z" fill="#000000" fill-rule="nonzero" fill-opacity="1" /><circle clip-path="url(#clip032)" cx="666.375" cy="1141.83" r="14.4" fill="#009af9" fill-rule="evenodd" fill-opacity="1" stroke="#000000" stroke-opacity="1" stroke-width="3.2"/>
<circle clip-path="url(#clip032)" cx="847.706" cy="957.541" r="14.4" fill="#009af9" fill-rule="evenodd" fill-opacity="1" stroke="#000000" stroke-opacity="1" stroke-width="3.2"/>
<circle clip-path="url(#clip032)" cx="1029.04" cy="787.62" r="14.4" fill="#009af9" fill-rule="evenodd" fill-opacity="1" stroke="#000000" stroke-opacity="1" stroke-width="3.2"/>
<circle clip-path="url(#clip032)" cx="1210.37" cy="682.279" r="14.4" fill="#009af9" fill-rule="evenodd" fill-opacity="1" stroke="#000000" stroke-opacity="1" stroke-width="3.2"/>
<circle clip-path="url(#clip032)" cx="1391.7" cy="479.977" r="14.4" fill="#009af9" fill-rule="evenodd" fill-opacity="1" stroke="#000000" stroke-opacity="1" stroke-width="3.2"/>
<circle clip-path="url(#clip032)" cx="1573.03" cy="445.185" r="14.4" fill="#009af9" fill-rule="evenodd" fill-opacity="1" stroke="#000000" stroke-opacity="1" stroke-width="3.2"/>
<circle clip-path="url(#clip032)" cx="1754.36" cy="547.791" r="14.4" fill="#009af9" fill-rule="evenodd" fill-opacity="1" stroke="#000000" stroke-opacity="1" stroke-width="3.2"/>
<circle clip-path="url(#clip032)" cx="1935.69" cy="408.192" r="14.4" fill="#009af9" fill-rule="evenodd" fill-opacity="1" stroke="#000000" stroke-opacity="1" stroke-width="3.2"/>
<circle clip-path="url(#clip032)" cx="2117.03" cy="156.921" r="14.4" fill="#009af9" fill-rule="evenodd" fill-opacity="1" stroke="#000000" stroke-opacity="1" stroke-width="3.2"/>
<circle clip-path="url(#clip032)" cx="2298.36" cy="174.548" r="14.4" fill="#009af9" fill-rule="evenodd" fill-opacity="1" stroke="#000000" stroke-opacity="1" stroke-width="3.2"/>
<polyline clip-path="url(#clip032)" style="stroke:#009af9; stroke-linecap:round; stroke-linejoin:round; stroke-width:4; stroke-opacity:1; fill:none" points="485.044,1271.9 486.61,1271.88 488.335,1271.81 490.526,1271.66 492.987,1271.4 495.812,1271 498.919,1270.44 502.324,1269.67 505.992,1268.69 509.916,1267.46 514.078,1265.96 518.472,1264.19 523.087,1262.13 527.919,1259.75 532.965,1257.06 538.223,1254.03 543.694,1250.67 549.378,1246.95 555.279,1242.87 561.402,1238.42 567.75,1233.59 574.33,1228.36 581.148,1222.74 588.213,1216.71 595.532,1210.26 603.115,1203.38 610.972,1196.06 619.112,1188.29 627.547,1180.07 636.289,1171.38 645.352,1162.21 654.748,1152.56 664.492,1142.41 674.6,1131.76 685.09,1120.59 695.979,1108.9 707.287,1096.67 719.036,1083.9 731.251,1070.58 743.958,1056.68 757.187,1042.21 770.974,1027.14 785.359,1011.45 800.39,995.129 816.126,978.138 832.642,960.438 850.032,941.971 868.433,922.65 888.042,902.335 909.195,880.765 932.593,857.355 960.888,829.717 989.183,802.856 1017.48,776.803 1045.77,751.583 1074.07,727.213 1102.36,703.705 1130.66,681.063 1158.95,659.288 1187.25,638.377 1215.55,618.322 1243.84,599.113 1272.14,580.737 1300.43,563.177 1328.73,546.417 1357.02,530.436 1385.32,515.214 1413.74,500.662 1442.4,486.723 1471.37,473.345 1500.75,460.491 1530.61,448.129 1561.04,436.235 1592.1,424.789 1623.88,413.774 1656.45,403.177 1689.9,392.987 1724.31,383.197 1759.76,373.799 1796.37,364.788 1834.22,356.16 1873.42,347.913 1914.1,340.043 1956.39,332.549 2000.41,325.43 2046.33,318.687 2094.31,312.317 2144.51,306.321 2197.15,300.698 2252.44,295.447 2298.36,291.543 "/>
<path clip-path="url(#clip030)" d="M494.715 318.388 L995.697 318.388 L995.697 162.868 L494.715 162.868  Z" fill="#ffffff" fill-rule="evenodd" fill-opacity="1"/>
<polyline clip-path="url(#clip030)" style="stroke:#000000; stroke-linecap:round; stroke-linejoin:round; stroke-width:4; stroke-opacity:1; fill:none" points="494.715,318.388 995.697,318.388 995.697,162.868 494.715,162.868 494.715,318.388 "/>
<circle clip-path="url(#clip030)" cx="580.142" cy="214.708" r="20.48" fill="#009af9" fill-rule="evenodd" fill-opacity="1" stroke="#000000" stroke-opacity="1" stroke-width="4.55111"/>
<path clip-path="url(#clip030)" d="M670.245 201.27 L670.245 214.257 L676.125 214.257 Q679.389 214.257 681.171 212.567 Q682.953 210.877 682.953 207.752 Q682.953 204.65 681.171 202.96 Q679.389 201.27 676.125 201.27 L670.245 201.27 M665.569 197.428 L676.125 197.428 Q681.935 197.428 684.898 200.067 Q687.884 202.683 687.884 207.752 Q687.884 212.868 684.898 215.483 Q681.935 218.099 676.125 218.099 L670.245 218.099 L670.245 231.988 L665.569 231.988 L665.569 197.428 Z" fill="#000000" fill-rule="nonzero" fill-opacity="1" /><path clip-path="url(#clip030)" d="M719.273 196.016 Q716.171 201.34 714.666 206.548 Q713.161 211.757 713.161 217.104 Q713.161 222.451 714.666 227.706 Q716.194 232.937 719.273 238.238 L715.569 238.238 Q712.097 232.798 710.361 227.543 Q708.648 222.289 708.648 217.104 Q708.648 211.942 710.361 206.71 Q712.074 201.479 715.569 196.016 L719.273 196.016 Z" fill="#000000" fill-rule="nonzero" fill-opacity="1" /><path clip-path="url(#clip030)" d="M747.721 211.039 Q749.319 208.169 751.541 206.803 Q753.763 205.437 756.772 205.437 Q760.823 205.437 763.022 208.284 Q765.221 211.108 765.221 216.34 L765.221 231.988 L760.939 231.988 L760.939 216.479 Q760.939 212.752 759.62 210.946 Q758.3 209.141 755.592 209.141 Q752.282 209.141 750.36 211.34 Q748.439 213.539 748.439 217.335 L748.439 231.988 L744.157 231.988 L744.157 216.479 Q744.157 212.729 742.837 210.946 Q741.518 209.141 738.763 209.141 Q735.499 209.141 733.578 211.363 Q731.657 213.562 731.657 217.335 L731.657 231.988 L727.374 231.988 L727.374 206.062 L731.657 206.062 L731.657 210.09 Q733.115 207.706 735.152 206.571 Q737.189 205.437 739.99 205.437 Q742.814 205.437 744.782 206.872 Q746.772 208.307 747.721 211.039 Z" fill="#000000" fill-rule="nonzero" fill-opacity="1" /><path clip-path="url(#clip030)" d="M795.893 217.96 L795.893 220.044 L776.309 220.044 Q776.587 224.442 778.948 226.756 Q781.332 229.048 785.568 229.048 Q788.022 229.048 790.314 228.446 Q792.629 227.844 794.897 226.641 L794.897 230.668 Q792.605 231.641 790.198 232.15 Q787.791 232.659 785.314 232.659 Q779.11 232.659 775.476 229.048 Q771.865 225.437 771.865 219.28 Q771.865 212.914 775.291 209.187 Q778.74 205.437 784.573 205.437 Q789.805 205.437 792.837 208.817 Q795.893 212.173 795.893 217.96 M791.633 216.71 Q791.587 213.215 789.666 211.132 Q787.768 209.048 784.619 209.048 Q781.055 209.048 778.902 211.062 Q776.772 213.076 776.448 216.733 L791.633 216.71 Z" fill="#000000" fill-rule="nonzero" fill-opacity="1" /><path clip-path="url(#clip030)" d="M814.666 218.956 Q809.504 218.956 807.513 220.136 Q805.522 221.317 805.522 224.164 Q805.522 226.432 807.004 227.775 Q808.508 229.094 811.078 229.094 Q814.619 229.094 816.749 226.594 Q818.902 224.071 818.902 219.905 L818.902 218.956 L814.666 218.956 M823.161 217.196 L823.161 231.988 L818.902 231.988 L818.902 228.053 Q817.443 230.414 815.267 231.548 Q813.091 232.659 809.943 232.659 Q805.962 232.659 803.601 230.437 Q801.263 228.192 801.263 224.442 Q801.263 220.067 804.18 217.844 Q807.119 215.622 812.929 215.622 L818.902 215.622 L818.902 215.206 Q818.902 212.266 816.957 210.669 Q815.036 209.048 811.541 209.048 Q809.318 209.048 807.212 209.581 Q805.105 210.113 803.161 211.178 L803.161 207.243 Q805.499 206.34 807.698 205.9 Q809.897 205.437 811.98 205.437 Q817.605 205.437 820.383 208.354 Q823.161 211.27 823.161 217.196 Z" fill="#000000" fill-rule="nonzero" fill-opacity="1" /><path clip-path="url(#clip030)" d="M848.462 206.826 L848.462 210.854 Q846.656 209.928 844.712 209.465 Q842.767 209.002 840.684 209.002 Q837.513 209.002 835.915 209.974 Q834.341 210.946 834.341 212.891 Q834.341 214.372 835.476 215.229 Q836.61 216.062 840.036 216.826 L841.494 217.15 Q846.031 218.122 847.929 219.905 Q849.851 221.664 849.851 224.835 Q849.851 228.446 846.98 230.553 Q844.133 232.659 839.133 232.659 Q837.05 232.659 834.781 232.243 Q832.536 231.849 830.036 231.039 L830.036 226.641 Q832.397 227.868 834.689 228.493 Q836.98 229.094 839.226 229.094 Q842.235 229.094 843.855 228.076 Q845.476 227.034 845.476 225.159 Q845.476 223.423 844.295 222.497 Q843.138 221.571 839.179 220.715 L837.698 220.368 Q833.74 219.534 831.98 217.821 Q830.221 216.085 830.221 213.076 Q830.221 209.419 832.814 207.428 Q835.406 205.437 840.175 205.437 Q842.536 205.437 844.619 205.784 Q846.702 206.132 848.462 206.826 Z" fill="#000000" fill-rule="nonzero" fill-opacity="1" /><path clip-path="url(#clip030)" d="M856.193 221.756 L856.193 206.062 L860.452 206.062 L860.452 221.594 Q860.452 225.275 861.888 227.127 Q863.323 228.956 866.193 228.956 Q869.642 228.956 871.633 226.756 Q873.647 224.557 873.647 220.761 L873.647 206.062 L877.906 206.062 L877.906 231.988 L873.647 231.988 L873.647 228.006 Q872.096 230.368 870.036 231.525 Q867.999 232.659 865.29 232.659 Q860.823 232.659 858.508 229.881 Q856.193 227.104 856.193 221.756 M866.911 205.437 L866.911 205.437 Z" fill="#000000" fill-rule="nonzero" fill-opacity="1" /><path clip-path="url(#clip030)" d="M901.702 210.044 Q900.985 209.627 900.128 209.442 Q899.295 209.233 898.276 209.233 Q894.665 209.233 892.721 211.594 Q890.799 213.932 890.799 218.331 L890.799 231.988 L886.517 231.988 L886.517 206.062 L890.799 206.062 L890.799 210.09 Q892.142 207.729 894.295 206.595 Q896.448 205.437 899.526 205.437 Q899.966 205.437 900.498 205.507 Q901.031 205.553 901.679 205.669 L901.702 210.044 Z" fill="#000000" fill-rule="nonzero" fill-opacity="1" /><path clip-path="url(#clip030)" d="M927.304 217.96 L927.304 220.044 L907.721 220.044 Q907.998 224.442 910.359 226.756 Q912.744 229.048 916.98 229.048 Q919.434 229.048 921.725 228.446 Q924.04 227.844 926.308 226.641 L926.308 230.668 Q924.017 231.641 921.609 232.15 Q919.202 232.659 916.725 232.659 Q910.522 232.659 906.887 229.048 Q903.276 225.437 903.276 219.28 Q903.276 212.914 906.702 209.187 Q910.151 205.437 915.984 205.437 Q921.216 205.437 924.248 208.817 Q927.304 212.173 927.304 217.96 M923.045 216.71 Q922.998 213.215 921.077 211.132 Q919.179 209.048 916.031 209.048 Q912.466 209.048 910.313 211.062 Q908.184 213.076 907.86 216.733 L923.045 216.71 Z" fill="#000000" fill-rule="nonzero" fill-opacity="1" /><path clip-path="url(#clip030)" d="M951.355 209.997 L951.355 195.97 L955.614 195.97 L955.614 231.988 L951.355 231.988 L951.355 228.099 Q950.012 230.414 947.952 231.548 Q945.915 232.659 943.045 232.659 Q938.345 232.659 935.383 228.909 Q932.443 225.159 932.443 219.048 Q932.443 212.937 935.383 209.187 Q938.345 205.437 943.045 205.437 Q945.915 205.437 947.952 206.571 Q950.012 207.682 951.355 209.997 M936.841 219.048 Q936.841 223.747 938.762 226.432 Q940.707 229.094 944.086 229.094 Q947.466 229.094 949.41 226.432 Q951.355 223.747 951.355 219.048 Q951.355 214.349 949.41 211.687 Q947.466 209.002 944.086 209.002 Q940.707 209.002 938.762 211.687 Q936.841 214.349 936.841 219.048 Z" fill="#000000" fill-rule="nonzero" fill-opacity="1" /><path clip-path="url(#clip030)" d="M963.716 196.016 L967.419 196.016 Q970.892 201.479 972.605 206.71 Q974.341 211.942 974.341 217.104 Q974.341 222.289 972.605 227.543 Q970.892 232.798 967.419 238.238 L963.716 238.238 Q966.794 232.937 968.299 227.706 Q969.827 222.451 969.827 217.104 Q969.827 211.757 968.299 206.548 Q966.794 201.34 963.716 196.016 Z" fill="#000000" fill-rule="nonzero" fill-opacity="1" /><polyline clip-path="url(#clip030)" style="stroke:#009af9; stroke-linecap:round; stroke-linejoin:round; stroke-width:4; stroke-opacity:1; fill:none" points="516.072,266.548 644.212,266.548 "/>
<path clip-path="url(#clip030)" d="M670.245 253.11 L670.245 266.097 L676.125 266.097 Q679.389 266.097 681.171 264.407 Q682.953 262.717 682.953 259.592 Q682.953 256.49 681.171 254.8 Q679.389 253.11 676.125 253.11 L670.245 253.11 M665.569 249.268 L676.125 249.268 Q681.935 249.268 684.898 251.907 Q687.884 254.523 687.884 259.592 Q687.884 264.708 684.898 267.323 Q681.935 269.939 676.125 269.939 L670.245 269.939 L670.245 283.828 L665.569 283.828 L665.569 249.268 Z" fill="#000000" fill-rule="nonzero" fill-opacity="1" /><path clip-path="url(#clip030)" d="M719.273 247.856 Q716.171 253.18 714.666 258.388 Q713.161 263.597 713.161 268.944 Q713.161 274.291 714.666 279.546 Q716.194 284.777 719.273 290.078 L715.569 290.078 Q712.097 284.638 710.361 279.383 Q708.648 274.129 708.648 268.944 Q708.648 263.782 710.361 258.55 Q712.074 253.319 715.569 247.856 L719.273 247.856 Z" fill="#000000" fill-rule="nonzero" fill-opacity="1" /><path clip-path="url(#clip030)" d="M740.661 247.81 L740.661 251.351 L736.587 251.351 Q734.296 251.351 733.393 252.277 Q732.513 253.203 732.513 255.61 L732.513 257.902 L739.527 257.902 L739.527 261.212 L732.513 261.212 L732.513 283.828 L728.231 283.828 L728.231 261.212 L724.157 261.212 L724.157 257.902 L728.231 257.902 L728.231 256.097 Q728.231 251.768 730.245 249.8 Q732.259 247.81 736.634 247.81 L740.661 247.81 Z" fill="#000000" fill-rule="nonzero" fill-opacity="1" /><path clip-path="url(#clip030)" d="M744.226 257.902 L748.485 257.902 L748.485 283.828 L744.226 283.828 L744.226 257.902 M744.226 247.81 L748.485 247.81 L748.485 253.203 L744.226 253.203 L744.226 247.81 Z" fill="#000000" fill-rule="nonzero" fill-opacity="1" /><path clip-path="url(#clip030)" d="M761.61 250.541 L761.61 257.902 L770.383 257.902 L770.383 261.212 L761.61 261.212 L761.61 275.286 Q761.61 278.458 762.467 279.36 Q763.346 280.263 766.008 280.263 L770.383 280.263 L770.383 283.828 L766.008 283.828 Q761.078 283.828 759.203 281.999 Q757.328 280.147 757.328 275.286 L757.328 261.212 L754.203 261.212 L754.203 257.902 L757.328 257.902 L757.328 250.541 L761.61 250.541 Z" fill="#000000" fill-rule="nonzero" fill-opacity="1" /><path clip-path="url(#clip030)" d="M780.198 250.541 L780.198 257.902 L788.971 257.902 L788.971 261.212 L780.198 261.212 L780.198 275.286 Q780.198 278.458 781.055 279.36 Q781.934 280.263 784.596 280.263 L788.971 280.263 L788.971 283.828 L784.596 283.828 Q779.666 283.828 777.791 281.999 Q775.916 280.147 775.916 275.286 L775.916 261.212 L772.791 261.212 L772.791 257.902 L775.916 257.902 L775.916 250.541 L780.198 250.541 Z" fill="#000000" fill-rule="nonzero" fill-opacity="1" /><path clip-path="url(#clip030)" d="M816.749 269.8 L816.749 271.884 L797.166 271.884 Q797.443 276.282 799.805 278.596 Q802.189 280.888 806.425 280.888 Q808.879 280.888 811.17 280.286 Q813.485 279.684 815.754 278.481 L815.754 282.508 Q813.462 283.481 811.054 283.99 Q808.647 284.499 806.17 284.499 Q799.967 284.499 796.332 280.888 Q792.721 277.277 792.721 271.12 Q792.721 264.754 796.147 261.027 Q799.596 257.277 805.429 257.277 Q810.661 257.277 813.693 260.657 Q816.749 264.013 816.749 269.8 M812.49 268.55 Q812.443 265.055 810.522 262.972 Q808.624 260.888 805.476 260.888 Q801.911 260.888 799.758 262.902 Q797.629 264.916 797.305 268.573 L812.49 268.55 Z" fill="#000000" fill-rule="nonzero" fill-opacity="1" /><path clip-path="url(#clip030)" d="M840.8 261.837 L840.8 247.81 L845.059 247.81 L845.059 283.828 L840.8 283.828 L840.8 279.939 Q839.457 282.254 837.397 283.388 Q835.36 284.499 832.49 284.499 Q827.79 284.499 824.828 280.749 Q821.888 276.999 821.888 270.888 Q821.888 264.777 824.828 261.027 Q827.79 257.277 832.49 257.277 Q835.36 257.277 837.397 258.411 Q839.457 259.522 840.8 261.837 M826.286 270.888 Q826.286 275.587 828.207 278.272 Q830.152 280.934 833.531 280.934 Q836.911 280.934 838.855 278.272 Q840.8 275.587 840.8 270.888 Q840.8 266.189 838.855 263.527 Q836.911 260.842 833.531 260.842 Q830.152 260.842 828.207 263.527 Q826.286 266.189 826.286 270.888 Z" fill="#000000" fill-rule="nonzero" fill-opacity="1" /><path clip-path="url(#clip030)" d="M853.161 247.856 L856.864 247.856 Q860.337 253.319 862.05 258.55 Q863.786 263.782 863.786 268.944 Q863.786 274.129 862.05 279.383 Q860.337 284.638 856.864 290.078 L853.161 290.078 Q856.239 284.777 857.744 279.546 Q859.272 274.291 859.272 268.944 Q859.272 263.597 857.744 258.388 Q856.239 253.18 853.161 247.856 Z" fill="#000000" fill-rule="nonzero" fill-opacity="1" /></svg>
