<?xml version="1.0" encoding="utf-8"?>
<svg xmlns="http://www.w3.org/2000/svg" xmlns:xlink="http://www.w3.org/1999/xlink" width="600" height="400" viewBox="0 0 2400 1600">
<defs>
  <clipPath id="clip110">
    <rect x="0" y="0" width="2400" height="1600"/>
  </clipPath>
</defs>
<path clip-path="url(#clip110)" d="M0 1600 L2400 1600 L2400 0 L0 0  Z" fill="#ffffff" fill-rule="evenodd" fill-opacity="1"/>
<defs>
  <clipPath id="clip111">
    <rect x="480" y="0" width="1681" height="1600"/>
  </clipPath>
</defs>
<path clip-path="url(#clip110)" d="M283.843 1339.91 L2352.76 1339.91 L2352.76 62.9921 L283.843 62.9921  Z" fill="#ffffff" fill-rule="evenodd" fill-opacity="1"/>
<defs>
  <clipPath id="clip112">
    <rect x="283" y="62" width="2070" height="1278"/>
  </clipPath>
</defs>
<polyline clip-path="url(#clip112)" style="stroke:#000000; stroke-linecap:round; stroke-linejoin:round; stroke-width:2; stroke-opacity:0.1; fill:none" points="342.397,1339.91 342.397,62.9921 "/>
<polyline clip-path="url(#clip112)" style="stroke:#000000; stroke-linecap:round; stroke-linejoin:round; stroke-width:2; stroke-opacity:0.1; fill:none" points="830.348,1339.91 830.348,62.9921 "/>
<polyline clip-path="url(#clip112)" style="stroke:#000000; stroke-linecap:round; stroke-linejoin:round; stroke-width:2; stroke-opacity:0.1; fill:none" points="1318.3,1339.91 1318.3,62.9921 "/>
<polyline clip-path="url(#clip112)" style="stroke:#000000; stroke-linecap:round; stroke-linejoin:round; stroke-width:2; stroke-opacity:0.1; fill:none" points="1806.25,1339.91 1806.25,62.9921 "/>
<polyline clip-path="url(#clip112)" style="stroke:#000000; stroke-linecap:round; stroke-linejoin:round; stroke-width:2; stroke-opacity:0.1; fill:none" points="2294.2,1339.91 2294.2,62.9921 "/>
<polyline clip-path="url(#clip110)" style="stroke:#000000; stroke-linecap:round; stroke-linejoin:round; stroke-width:4; stroke-opacity:1; fill:none" points="283.843,1339.91 2352.76,1339.91 "/>
<polyline clip-path="url(#clip110)" style="stroke:#000000; stroke-linecap:round; stroke-linejoin:round; stroke-width:4; stroke-opacity:1; fill:none" points="342.397,1339.91 342.397,1321.01 "/>
<polyline clip-path="url(#clip110)" style="stroke:#000000; stroke-linecap:round; stroke-linejoin:round; stroke-width:4; stroke-opacity:1; fill:none" points="830.348,1339.91 830.348,1321.01 "/>
<polyline clip-path="url(#clip110)" style="stroke:#000000; stroke-linecap:round; stroke-linejoin:round; stroke-width:4; stroke-opacity:1; fill:none" points="1318.3,1339.91 1318.3,1321.01 "/>
<polyline clip-path="url(#clip110)" style="stroke:#000000; stroke-linecap:round; stroke-linejoin:round; stroke-width:4; stroke-opacity:1; fill:none" points="1806.25,1339.91 1806.25,1321.01 "/>
<polyline clip-path="url(#clip110)" style="stroke:#000000; stroke-linecap:round; stroke-linejoin:round; stroke-width:4; stroke-opacity:1; fill:none" points="2294.2,1339.91 2294.2,1321.01 "/>
<path clip-path="url(#clip110)" d="M319.781 1370.82 Q316.17 1370.82 314.341 1374.39 Q312.536 1377.93 312.536 1385.06 Q312.536 1392.17 314.341 1395.73 Q316.17 1399.27 319.781 1399.27 Q323.415 1399.27 325.221 1395.73 Q327.05 1392.17 327.05 1385.06 Q327.05 1377.93 325.221 1374.39 Q323.415 1370.82 319.781 1370.82 M319.781 1367.12 Q325.591 1367.12 328.647 1371.73 Q331.725 1376.31 331.725 1385.06 Q331.725 1393.79 328.647 1398.39 Q325.591 1402.98 319.781 1402.98 Q313.971 1402.98 310.892 1398.39 Q307.837 1393.79 307.837 1385.06 Q307.837 1376.31 310.892 1371.73 Q313.971 1367.12 319.781 1367.12 Z" fill="#000000" fill-rule="nonzero" fill-opacity="1" /><path clip-path="url(#clip110)" d="M339.943 1396.43 L344.827 1396.43 L344.827 1402.31 L339.943 1402.31 L339.943 1396.43 Z" fill="#000000" fill-rule="nonzero" fill-opacity="1" /><path clip-path="url(#clip110)" d="M365.012 1370.82 Q361.401 1370.82 359.573 1374.39 Q357.767 1377.93 357.767 1385.06 Q357.767 1392.17 359.573 1395.73 Q361.401 1399.27 365.012 1399.27 Q368.647 1399.27 370.452 1395.73 Q372.281 1392.17 372.281 1385.06 Q372.281 1377.93 370.452 1374.39 Q368.647 1370.82 365.012 1370.82 M365.012 1367.12 Q370.822 1367.12 373.878 1371.73 Q376.957 1376.31 376.957 1385.06 Q376.957 1393.79 373.878 1398.39 Q370.822 1402.98 365.012 1402.98 Q359.202 1402.98 356.123 1398.39 Q353.068 1393.79 353.068 1385.06 Q353.068 1376.31 356.123 1371.73 Q359.202 1367.12 365.012 1367.12 Z" fill="#000000" fill-rule="nonzero" fill-opacity="1" /><path clip-path="url(#clip110)" d="M802.084 1398.37 L818.404 1398.37 L818.404 1402.31 L796.459 1402.31 L796.459 1398.37 Q799.121 1395.62 803.705 1390.99 Q808.311 1386.33 809.492 1384.99 Q811.737 1382.47 812.617 1380.73 Q813.519 1378.97 813.519 1377.28 Q813.519 1374.53 811.575 1372.79 Q809.654 1371.06 806.552 1371.06 Q804.353 1371.06 801.899 1371.82 Q799.468 1372.58 796.691 1374.13 L796.691 1369.41 Q799.515 1368.28 801.968 1367.7 Q804.422 1367.12 806.459 1367.12 Q811.83 1367.12 815.024 1369.81 Q818.218 1372.49 818.218 1376.98 Q818.218 1379.11 817.408 1381.03 Q816.621 1382.93 814.515 1385.52 Q813.936 1386.19 810.834 1389.41 Q807.732 1392.61 802.084 1398.37 Z" fill="#000000" fill-rule="nonzero" fill-opacity="1" /><path clip-path="url(#clip110)" d="M828.218 1396.43 L833.103 1396.43 L833.103 1402.31 L828.218 1402.31 L828.218 1396.43 Z" fill="#000000" fill-rule="nonzero" fill-opacity="1" /><path clip-path="url(#clip110)" d="M843.334 1367.75 L861.69 1367.75 L861.69 1371.68 L847.616 1371.68 L847.616 1380.15 Q848.635 1379.81 849.653 1379.64 Q850.672 1379.46 851.69 1379.46 Q857.477 1379.46 860.857 1382.63 Q864.237 1385.8 864.237 1391.22 Q864.237 1396.8 860.764 1399.9 Q857.292 1402.98 850.973 1402.98 Q848.797 1402.98 846.528 1402.61 Q844.283 1402.24 841.876 1401.5 L841.876 1396.8 Q843.959 1397.93 846.181 1398.49 Q848.403 1399.04 850.88 1399.04 Q854.885 1399.04 857.223 1396.94 Q859.561 1394.83 859.561 1391.22 Q859.561 1387.61 857.223 1385.5 Q854.885 1383.39 850.88 1383.39 Q849.005 1383.39 847.13 1383.81 Q845.278 1384.23 843.334 1385.11 L843.334 1367.75 Z" fill="#000000" fill-rule="nonzero" fill-opacity="1" /><path clip-path="url(#clip110)" d="M1285.46 1367.75 L1303.82 1367.75 L1303.82 1371.68 L1289.75 1371.68 L1289.75 1380.15 Q1290.76 1379.81 1291.78 1379.64 Q1292.8 1379.46 1293.82 1379.46 Q1299.61 1379.46 1302.99 1382.63 Q1306.37 1385.8 1306.37 1391.22 Q1306.37 1396.8 1302.89 1399.9 Q1299.42 1402.98 1293.1 1402.98 Q1290.93 1402.98 1288.66 1402.61 Q1286.41 1402.24 1284.01 1401.5 L1284.01 1396.8 Q1286.09 1397.93 1288.31 1398.49 Q1290.53 1399.04 1293.01 1399.04 Q1297.01 1399.04 1299.35 1396.94 Q1301.69 1394.83 1301.69 1391.22 Q1301.69 1387.61 1299.35 1385.5 Q1297.01 1383.39 1293.01 1383.39 Q1291.14 1383.39 1289.26 1383.81 Q1287.41 1384.23 1285.46 1385.11 L1285.46 1367.75 Z" fill="#000000" fill-rule="nonzero" fill-opacity="1" /><path clip-path="url(#clip110)" d="M1315.58 1396.43 L1320.46 1396.43 L1320.46 1402.31 L1315.58 1402.31 L1315.58 1396.43 Z" fill="#000000" fill-rule="nonzero" fill-opacity="1" /><path clip-path="url(#clip110)" d="M1340.65 1370.82 Q1337.04 1370.82 1335.21 1374.39 Q1333.4 1377.93 1333.4 1385.06 Q1333.4 1392.17 1335.21 1395.73 Q1337.04 1399.27 1340.65 1399.27 Q1344.28 1399.27 1346.09 1395.73 Q1347.92 1392.17 1347.92 1385.06 Q1347.92 1377.93 1346.09 1374.39 Q1344.28 1370.82 1340.65 1370.82 M1340.65 1367.12 Q1346.46 1367.12 1349.51 1371.73 Q1352.59 1376.31 1352.59 1385.06 Q1352.59 1393.79 1349.51 1398.39 Q1346.46 1402.98 1340.65 1402.98 Q1334.84 1402.98 1331.76 1398.39 Q1328.7 1393.79 1328.7 1385.06 Q1328.7 1376.31 1331.76 1371.73 Q1334.84 1367.12 1340.65 1367.12 Z" fill="#000000" fill-rule="nonzero" fill-opacity="1" /><path clip-path="url(#clip110)" d="M1772.57 1367.75 L1794.79 1367.75 L1794.79 1369.74 L1782.25 1402.31 L1777.36 1402.31 L1789.17 1371.68 L1772.57 1371.68 L1772.57 1367.75 Z" fill="#000000" fill-rule="nonzero" fill-opacity="1" /><path clip-path="url(#clip110)" d="M1803.91 1396.43 L1808.8 1396.43 L1808.8 1402.31 L1803.91 1402.31 L1803.91 1396.43 Z" fill="#000000" fill-rule="nonzero" fill-opacity="1" /><path clip-path="url(#clip110)" d="M1819.03 1367.75 L1837.38 1367.75 L1837.38 1371.68 L1823.31 1371.68 L1823.31 1380.15 Q1824.33 1379.81 1825.35 1379.64 Q1826.37 1379.46 1827.38 1379.46 Q1833.17 1379.46 1836.55 1382.63 Q1839.93 1385.8 1839.93 1391.22 Q1839.93 1396.8 1836.46 1399.9 Q1832.99 1402.98 1826.67 1402.98 Q1824.49 1402.98 1822.22 1402.61 Q1819.98 1402.24 1817.57 1401.5 L1817.57 1396.8 Q1819.65 1397.93 1821.88 1398.49 Q1824.1 1399.04 1826.57 1399.04 Q1830.58 1399.04 1832.92 1396.94 Q1835.25 1394.83 1835.25 1391.22 Q1835.25 1387.61 1832.92 1385.5 Q1830.58 1383.39 1826.57 1383.39 Q1824.7 1383.39 1822.82 1383.81 Q1820.97 1384.23 1819.03 1385.11 L1819.03 1367.75 Z" fill="#000000" fill-rule="nonzero" fill-opacity="1" /><path clip-path="url(#clip110)" d="M2246.27 1398.37 L2253.91 1398.37 L2253.91 1372 L2245.6 1373.67 L2245.6 1369.41 L2253.87 1367.75 L2258.54 1367.75 L2258.54 1398.37 L2266.18 1398.37 L2266.18 1402.31 L2246.27 1402.31 L2246.27 1398.37 Z" fill="#000000" fill-rule="nonzero" fill-opacity="1" /><path clip-path="url(#clip110)" d="M2285.63 1370.82 Q2282.01 1370.82 2280.19 1374.39 Q2278.38 1377.93 2278.38 1385.06 Q2278.38 1392.17 2280.19 1395.73 Q2282.01 1399.27 2285.63 1399.27 Q2289.26 1399.27 2291.07 1395.73 Q2292.89 1392.17 2292.89 1385.06 Q2292.89 1377.93 2291.07 1374.39 Q2289.26 1370.82 2285.63 1370.82 M2285.63 1367.12 Q2291.44 1367.12 2294.49 1371.73 Q2297.57 1376.31 2297.57 1385.06 Q2297.57 1393.79 2294.49 1398.39 Q2291.44 1402.98 2285.63 1402.98 Q2279.82 1402.98 2276.74 1398.39 Q2273.68 1393.79 2273.68 1385.06 Q2273.68 1376.31 2276.74 1371.73 Q2279.82 1367.12 2285.63 1367.12 Z" fill="#000000" fill-rule="nonzero" fill-opacity="1" /><path clip-path="url(#clip110)" d="M2305.79 1396.43 L2310.67 1396.43 L2310.67 1402.31 L2305.79 1402.31 L2305.79 1396.43 Z" fill="#000000" fill-rule="nonzero" fill-opacity="1" /><path clip-path="url(#clip110)" d="M2330.86 1370.82 Q2327.25 1370.82 2325.42 1374.39 Q2323.61 1377.93 2323.61 1385.06 Q2323.61 1392.17 2325.42 1395.73 Q2327.25 1399.27 2330.86 1399.27 Q2334.49 1399.27 2336.3 1395.73 Q2338.13 1392.17 2338.13 1385.06 Q2338.13 1377.93 2336.3 1374.39 Q2334.49 1370.82 2330.86 1370.82 M2330.86 1367.12 Q2336.67 1367.12 2339.72 1371.73 Q2342.8 1376.31 2342.8 1385.06 Q2342.8 1393.79 2339.72 1398.39 Q2336.67 1402.98 2330.86 1402.98 Q2325.05 1402.98 2321.97 1398.39 Q2318.91 1393.79 2318.91 1385.06 Q2318.91 1376.31 2321.97 1371.73 Q2325.05 1367.12 2330.86 1367.12 Z" fill="#000000" fill-rule="nonzero" fill-opacity="1" /><polyline clip-path="url(#clip112)" style="stroke:#000000; stroke-linecap:round; stroke-linejoin:round; stroke-width:2; stroke-opacity:0.1; fill:none" points="283.843,1303.77 2352.76,1303.77 "/>
<polyline clip-path="url(#clip112)" style="stroke:#000000; stroke-linecap:round; stroke-linejoin:round; stroke-width:2; stroke-opacity:0.1; fill:none" points="283.843,1040.22 2352.76,1040.22 "/>
<polyline clip-path="url(#clip112)" style="stroke:#000000; stroke-linecap:round; stroke-linejoin:round; stroke-width:2; stroke-opacity:0.1; fill:none" points="283.843,776.674 2352.76,776.674 "/>
<polyline clip-path="url(#clip112)" style="stroke:#000000; stroke-linecap:round; stroke-linejoin:round; stroke-width:2; stroke-opacity:0.1; fill:none" points="283.843,513.127 2352.76,513.127 "/>
<polyline clip-path="url(#clip112)" style="stroke:#000000; stroke-linecap:round; stroke-linejoin:round; stroke-width:2; stroke-opacity:0.1; fill:none" points="283.843,249.581 2352.76,249.581 "/>
<polyline clip-path="url(#clip110)" style="stroke:#000000; stroke-linecap:round; stroke-linejoin:round; stroke-width:4; stroke-opacity:1; fill:none" points="283.843,1339.91 283.843,62.9921 "/>
<polyline clip-path="url(#clip110)" style="stroke:#000000; stroke-linecap:round; stroke-linejoin:round; stroke-width:4; stroke-opacity:1; fill:none" points="283.843,1303.77 302.74,1303.77 "/>
<polyline clip-path="url(#clip110)" style="stroke:#000000; stroke-linecap:round; stroke-linejoin:round; stroke-width:4; stroke-opacity:1; fill:none" points="283.843,1040.22 302.74,1040.22 "/>
<polyline clip-path="url(#clip110)" style="stroke:#000000; stroke-linecap:round; stroke-linejoin:round; stroke-width:4; stroke-opacity:1; fill:none" points="283.843,776.674 302.74,776.674 "/>
<polyline clip-path="url(#clip110)" style="stroke:#000000; stroke-linecap:round; stroke-linejoin:round; stroke-width:4; stroke-opacity:1; fill:none" points="283.843,513.127 302.74,513.127 "/>
<polyline clip-path="url(#clip110)" style="stroke:#000000; stroke-linecap:round; stroke-linejoin:round; stroke-width:4; stroke-opacity:1; fill:none" points="283.843,249.581 302.74,249.581 "/>
<path clip-path="url(#clip110)" d="M160.505 1289.57 Q156.894 1289.57 155.065 1293.13 Q153.26 1296.67 153.26 1303.8 Q153.26 1310.91 155.065 1314.47 Q156.894 1318.01 160.505 1318.01 Q164.139 1318.01 165.945 1314.47 Q167.774 1310.91 167.774 1303.8 Q167.774 1296.67 165.945 1293.13 Q164.139 1289.57 160.505 1289.57 M160.505 1285.86 Q166.315 1285.86 169.371 1290.47 Q172.449 1295.05 172.449 1303.8 Q172.449 1312.53 169.371 1317.13 Q166.315 1321.72 160.505 1321.72 Q154.695 1321.72 151.616 1317.13 Q148.561 1312.53 148.561 1303.8 Q148.561 1295.05 151.616 1290.47 Q154.695 1285.86 160.505 1285.86 Z" fill="#000000" fill-rule="nonzero" fill-opacity="1" /><path clip-path="url(#clip110)" d="M180.667 1315.17 L185.551 1315.17 L185.551 1321.05 L180.667 1321.05 L180.667 1315.17 Z" fill="#000000" fill-rule="nonzero" fill-opacity="1" /><path clip-path="url(#clip110)" d="M205.736 1289.57 Q202.125 1289.57 200.296 1293.13 Q198.491 1296.67 198.491 1303.8 Q198.491 1310.91 200.296 1314.47 Q202.125 1318.01 205.736 1318.01 Q209.371 1318.01 211.176 1314.47 Q213.005 1310.91 213.005 1303.8 Q213.005 1296.67 211.176 1293.13 Q209.371 1289.57 205.736 1289.57 M205.736 1285.86 Q211.546 1285.86 214.602 1290.47 Q217.681 1295.05 217.681 1303.8 Q217.681 1312.53 214.602 1317.13 Q211.546 1321.72 205.736 1321.72 Q199.926 1321.72 196.847 1317.13 Q193.792 1312.53 193.792 1303.8 Q193.792 1295.05 196.847 1290.47 Q199.926 1285.86 205.736 1285.86 Z" fill="#000000" fill-rule="nonzero" fill-opacity="1" /><path clip-path="url(#clip110)" d="M235.898 1289.57 Q232.287 1289.57 230.458 1293.13 Q228.653 1296.67 228.653 1303.8 Q228.653 1310.91 230.458 1314.47 Q232.287 1318.01 235.898 1318.01 Q239.532 1318.01 241.338 1314.47 Q243.167 1310.91 243.167 1303.8 Q243.167 1296.67 241.338 1293.13 Q239.532 1289.57 235.898 1289.57 M235.898 1285.86 Q241.708 1285.86 244.764 1290.47 Q247.843 1295.05 247.843 1303.8 Q247.843 1312.53 244.764 1317.13 Q241.708 1321.72 235.898 1321.72 Q230.088 1321.72 227.009 1317.13 Q223.954 1312.53 223.954 1303.8 Q223.954 1295.05 227.009 1290.47 Q230.088 1285.86 235.898 1285.86 Z" fill="#000000" fill-rule="nonzero" fill-opacity="1" /><path clip-path="url(#clip110)" d="M161.5 1026.02 Q157.889 1026.02 156.061 1029.58 Q154.255 1033.13 154.255 1040.25 Q154.255 1047.36 156.061 1050.93 Q157.889 1054.47 161.5 1054.47 Q165.135 1054.47 166.94 1050.93 Q168.769 1047.36 168.769 1040.25 Q168.769 1033.13 166.94 1029.58 Q165.135 1026.02 161.5 1026.02 M161.5 1022.32 Q167.311 1022.32 170.366 1026.92 Q173.445 1031.5 173.445 1040.25 Q173.445 1048.98 170.366 1053.59 Q167.311 1058.17 161.5 1058.17 Q155.69 1058.17 152.612 1053.59 Q149.556 1048.98 149.556 1040.25 Q149.556 1031.5 152.612 1026.92 Q155.69 1022.32 161.5 1022.32 Z" fill="#000000" fill-rule="nonzero" fill-opacity="1" /><path clip-path="url(#clip110)" d="M181.662 1051.62 L186.547 1051.62 L186.547 1057.5 L181.662 1057.5 L181.662 1051.62 Z" fill="#000000" fill-rule="nonzero" fill-opacity="1" /><path clip-path="url(#clip110)" d="M200.759 1053.56 L217.079 1053.56 L217.079 1057.5 L195.134 1057.5 L195.134 1053.56 Q197.796 1050.81 202.38 1046.18 Q206.986 1041.53 208.167 1040.19 Q210.412 1037.66 211.292 1035.93 Q212.195 1034.17 212.195 1032.48 Q212.195 1029.72 210.25 1027.99 Q208.329 1026.25 205.227 1026.25 Q203.028 1026.25 200.574 1027.01 Q198.144 1027.78 195.366 1029.33 L195.366 1024.61 Q198.19 1023.47 200.644 1022.89 Q203.097 1022.32 205.134 1022.32 Q210.505 1022.32 213.699 1025 Q216.894 1027.69 216.894 1032.18 Q216.894 1034.31 216.083 1036.23 Q215.296 1038.13 213.19 1040.72 Q212.611 1041.39 209.509 1044.61 Q206.408 1047.8 200.759 1053.56 Z" fill="#000000" fill-rule="nonzero" fill-opacity="1" /><path clip-path="url(#clip110)" d="M226.94 1022.94 L245.296 1022.94 L245.296 1026.88 L231.222 1026.88 L231.222 1035.35 Q232.241 1035 233.259 1034.84 Q234.278 1034.65 235.296 1034.65 Q241.083 1034.65 244.463 1037.82 Q247.843 1041 247.843 1046.41 Q247.843 1051.99 244.37 1055.09 Q240.898 1058.17 234.579 1058.17 Q232.403 1058.17 230.134 1057.8 Q227.889 1057.43 225.482 1056.69 L225.482 1051.99 Q227.565 1053.13 229.787 1053.68 Q232.009 1054.24 234.486 1054.24 Q238.491 1054.24 240.829 1052.13 Q243.167 1050.02 243.167 1046.41 Q243.167 1042.8 240.829 1040.69 Q238.491 1038.59 234.486 1038.59 Q232.611 1038.59 230.736 1039 Q228.884 1039.42 226.94 1040.3 L226.94 1022.94 Z" fill="#000000" fill-rule="nonzero" fill-opacity="1" /><path clip-path="url(#clip110)" d="M160.505 762.472 Q156.894 762.472 155.065 766.037 Q153.26 769.579 153.26 776.708 Q153.26 783.815 155.065 787.38 Q156.894 790.921 160.505 790.921 Q164.139 790.921 165.945 787.38 Q167.774 783.815 167.774 776.708 Q167.774 769.579 165.945 766.037 Q164.139 762.472 160.505 762.472 M160.505 758.769 Q166.315 758.769 169.371 763.375 Q172.449 767.958 172.449 776.708 Q172.449 785.435 169.371 790.042 Q166.315 794.625 160.505 794.625 Q154.695 794.625 151.616 790.042 Q148.561 785.435 148.561 776.708 Q148.561 767.958 151.616 763.375 Q154.695 758.769 160.505 758.769 Z" fill="#000000" fill-rule="nonzero" fill-opacity="1" /><path clip-path="url(#clip110)" d="M180.667 788.074 L185.551 788.074 L185.551 793.954 L180.667 793.954 L180.667 788.074 Z" fill="#000000" fill-rule="nonzero" fill-opacity="1" /><path clip-path="url(#clip110)" d="M195.783 759.394 L214.139 759.394 L214.139 763.329 L200.065 763.329 L200.065 771.801 Q201.084 771.454 202.102 771.292 Q203.121 771.107 204.139 771.107 Q209.926 771.107 213.306 774.278 Q216.685 777.449 216.685 782.866 Q216.685 788.444 213.213 791.546 Q209.741 794.625 203.421 794.625 Q201.246 794.625 198.977 794.255 Q196.732 793.884 194.324 793.144 L194.324 788.444 Q196.408 789.579 198.63 790.134 Q200.852 790.69 203.329 790.69 Q207.333 790.69 209.671 788.583 Q212.009 786.477 212.009 782.866 Q212.009 779.255 209.671 777.148 Q207.333 775.042 203.329 775.042 Q201.454 775.042 199.579 775.458 Q197.727 775.875 195.783 776.755 L195.783 759.394 Z" fill="#000000" fill-rule="nonzero" fill-opacity="1" /><path clip-path="url(#clip110)" d="M235.898 762.472 Q232.287 762.472 230.458 766.037 Q228.653 769.579 228.653 776.708 Q228.653 783.815 230.458 787.38 Q232.287 790.921 235.898 790.921 Q239.532 790.921 241.338 787.38 Q243.167 783.815 243.167 776.708 Q243.167 769.579 241.338 766.037 Q239.532 762.472 235.898 762.472 M235.898 758.769 Q241.708 758.769 244.764 763.375 Q247.843 767.958 247.843 776.708 Q247.843 785.435 244.764 790.042 Q241.708 794.625 235.898 794.625 Q230.088 794.625 227.009 790.042 Q223.954 785.435 223.954 776.708 Q223.954 767.958 227.009 763.375 Q230.088 758.769 235.898 758.769 Z" fill="#000000" fill-rule="nonzero" fill-opacity="1" /><path clip-path="url(#clip110)" d="M161.5 498.926 Q157.889 498.926 156.061 502.491 Q154.255 506.032 154.255 513.162 Q154.255 520.268 156.061 523.833 Q157.889 527.375 161.5 527.375 Q165.135 527.375 166.94 523.833 Q168.769 520.268 168.769 513.162 Q168.769 506.032 166.94 502.491 Q165.135 498.926 161.5 498.926 M161.5 495.222 Q167.311 495.222 170.366 499.829 Q173.445 504.412 173.445 513.162 Q173.445 521.889 170.366 526.495 Q167.311 531.079 161.5 531.079 Q155.69 531.079 152.612 526.495 Q149.556 521.889 149.556 513.162 Q149.556 504.412 152.612 499.829 Q155.69 495.222 161.5 495.222 Z" fill="#000000" fill-rule="nonzero" fill-opacity="1" /><path clip-path="url(#clip110)" d="M181.662 524.528 L186.547 524.528 L186.547 530.407 L181.662 530.407 L181.662 524.528 Z" fill="#000000" fill-rule="nonzero" fill-opacity="1" /><path clip-path="url(#clip110)" d="M195.551 495.847 L217.773 495.847 L217.773 497.838 L205.227 530.407 L200.343 530.407 L212.148 499.782 L195.551 499.782 L195.551 495.847 Z" fill="#000000" fill-rule="nonzero" fill-opacity="1" /><path clip-path="url(#clip110)" d="M226.94 495.847 L245.296 495.847 L245.296 499.782 L231.222 499.782 L231.222 508.255 Q232.241 507.907 233.259 507.745 Q234.278 507.56 235.296 507.56 Q241.083 507.56 244.463 510.732 Q247.843 513.903 247.843 519.319 Q247.843 524.898 244.37 528 Q240.898 531.079 234.579 531.079 Q232.403 531.079 230.134 530.708 Q227.889 530.338 225.482 529.597 L225.482 524.898 Q227.565 526.032 229.787 526.588 Q232.009 527.143 234.486 527.143 Q238.491 527.143 240.829 525.037 Q243.167 522.931 243.167 519.319 Q243.167 515.708 240.829 513.602 Q238.491 511.495 234.486 511.495 Q232.611 511.495 230.736 511.912 Q228.884 512.329 226.94 513.208 L226.94 495.847 Z" fill="#000000" fill-rule="nonzero" fill-opacity="1" /><path clip-path="url(#clip110)" d="M151.315 262.926 L158.954 262.926 L158.954 236.56 L150.644 238.227 L150.644 233.968 L158.908 232.301 L163.584 232.301 L163.584 262.926 L171.223 262.926 L171.223 266.861 L151.315 266.861 L151.315 262.926 Z" fill="#000000" fill-rule="nonzero" fill-opacity="1" /><path clip-path="url(#clip110)" d="M180.667 260.981 L185.551 260.981 L185.551 266.861 L180.667 266.861 L180.667 260.981 Z" fill="#000000" fill-rule="nonzero" fill-opacity="1" /><path clip-path="url(#clip110)" d="M205.736 235.38 Q202.125 235.38 200.296 238.944 Q198.491 242.486 198.491 249.616 Q198.491 256.722 200.296 260.287 Q202.125 263.829 205.736 263.829 Q209.371 263.829 211.176 260.287 Q213.005 256.722 213.005 249.616 Q213.005 242.486 211.176 238.944 Q209.371 235.38 205.736 235.38 M205.736 231.676 Q211.546 231.676 214.602 236.282 Q217.681 240.866 217.681 249.616 Q217.681 258.342 214.602 262.949 Q211.546 267.532 205.736 267.532 Q199.926 267.532 196.847 262.949 Q193.792 258.342 193.792 249.616 Q193.792 240.866 196.847 236.282 Q199.926 231.676 205.736 231.676 Z" fill="#000000" fill-rule="nonzero" fill-opacity="1" /><path clip-path="url(#clip110)" d="M235.898 235.38 Q232.287 235.38 230.458 238.944 Q228.653 242.486 228.653 249.616 Q228.653 256.722 230.458 260.287 Q232.287 263.829 235.898 263.829 Q239.532 263.829 241.338 260.287 Q243.167 256.722 243.167 249.616 Q243.167 242.486 241.338 238.944 Q239.532 235.38 235.898 235.38 M235.898 231.676 Q241.708 231.676 244.764 236.282 Q247.843 240.866 247.843 249.616 Q247.843 258.342 244.764 262.949 Q241.708 267.532 235.898 267.532 Q230.088 267.532 227.009 262.949 Q223.954 258.342 223.954 249.616 Q223.954 240.866 227.009 236.282 Q230.088 231.676 235.898 231.676 Z" fill="#000000" fill-rule="nonzero" fill-opacity="1" /><path clip-path="url(#clip110)" d="M54.4449 889.094 L61.2244 889.094 Q58.2007 892.34 56.7048 896.033 Q55.2088 899.693 55.2088 903.831 Q55.2088 911.979 60.2059 916.307 Q65.1711 920.636 74.5924 920.636 Q83.9818 920.636 88.9789 916.307 Q93.9441 911.979 93.9441 903.831 Q93.9441 899.693 92.4482 896.033 Q90.9523 892.34 87.9285 889.094 L94.6444 889.094 Q96.936 892.468 98.0818 896.255 Q99.2277 900.011 99.2277 904.212 Q99.2277 915.002 92.6392 921.209 Q86.0188 927.415 74.5924 927.415 Q63.1341 927.415 56.5456 921.209 Q49.9253 915.002 49.9253 904.212 Q49.9253 899.947 51.0711 896.192 Q52.1851 892.404 54.4449 889.094 Z" fill="#000000" fill-rule="nonzero" fill-opacity="1" /><path clip-path="url(#clip110)" d="M66.7626 865.604 Q66.7626 870.315 70.4547 873.052 Q74.115 875.79 80.5125 875.79 Q86.91 875.79 90.6021 873.084 Q94.2624 870.347 94.2624 865.604 Q94.2624 860.926 90.5703 858.188 Q86.8782 855.451 80.5125 855.451 Q74.1786 855.451 70.4865 858.188 Q66.7626 860.926 66.7626 865.604 M61.7973 865.604 Q61.7973 857.966 66.7626 853.605 Q71.7278 849.245 80.5125 849.245 Q89.2653 849.245 94.2624 853.605 Q99.2277 857.966 99.2277 865.604 Q99.2277 873.275 94.2624 877.636 Q89.2653 881.964 80.5125 881.964 Q71.7278 881.964 66.7626 877.636 Q61.7973 873.275 61.7973 865.604 Z" fill="#000000" fill-rule="nonzero" fill-opacity="1" /><path clip-path="url(#clip110)" d="M76.7886 809.905 L98.3046 809.905 L98.3046 815.761 L76.9795 815.761 Q71.9188 815.761 69.4043 817.734 Q66.8899 819.708 66.8899 823.654 Q66.8899 828.397 69.9136 831.134 Q72.9373 833.871 78.1572 833.871 L98.3046 833.871 L98.3046 839.76 L62.6567 839.76 L62.6567 833.871 L68.1949 833.871 Q64.9802 831.771 63.3887 828.938 Q61.7973 826.073 61.7973 822.35 Q61.7973 816.207 65.6167 813.056 Q69.4043 809.905 76.7886 809.905 Z" fill="#000000" fill-rule="nonzero" fill-opacity="1" /><path clip-path="url(#clip110)" d="M64.0253 772.57 L69.4998 772.57 Q68.1312 775.052 67.4628 777.567 Q66.7626 780.049 66.7626 782.596 Q66.7626 788.293 70.391 791.444 Q73.9876 794.595 80.5125 794.595 Q87.0373 794.595 90.6658 791.444 Q94.2624 788.293 94.2624 782.596 Q94.2624 780.049 93.594 777.567 Q92.8938 775.052 91.5252 772.57 L96.936 772.57 Q98.0818 775.02 98.6548 777.662 Q99.2277 780.272 99.2277 783.232 Q99.2277 791.285 94.1669 796.027 Q89.1062 800.77 80.5125 800.77 Q71.7915 800.77 66.7944 795.995 Q61.7973 791.189 61.7973 782.85 Q61.7973 780.145 62.3702 777.567 Q62.9113 774.989 64.0253 772.57 Z" fill="#000000" fill-rule="nonzero" fill-opacity="1" /><path clip-path="url(#clip110)" d="M79.0166 731.893 L81.8811 731.893 L81.8811 758.82 Q87.9285 758.438 91.1114 755.191 Q94.2624 751.913 94.2624 746.088 Q94.2624 742.715 93.4349 739.563 Q92.6073 736.381 90.9523 733.261 L96.4904 733.261 Q97.8272 736.412 98.5274 739.723 Q99.2277 743.033 99.2277 746.438 Q99.2277 754.968 94.2624 759.966 Q89.2972 764.931 80.8308 764.931 Q72.0779 764.931 66.9535 760.22 Q61.7973 755.478 61.7973 747.457 Q61.7973 740.264 66.4443 736.094 Q71.0594 731.893 79.0166 731.893 M77.2978 737.749 Q72.4917 737.813 69.6271 740.455 Q66.7626 743.065 66.7626 747.393 Q66.7626 752.295 69.5317 755.255 Q72.3007 758.183 77.3296 758.629 L77.2978 737.749 Z" fill="#000000" fill-rule="nonzero" fill-opacity="1" /><path clip-path="url(#clip110)" d="M76.7886 692.648 L98.3046 692.648 L98.3046 698.505 L76.9795 698.505 Q71.9188 698.505 69.4043 700.478 Q66.8899 702.451 66.8899 706.398 Q66.8899 711.141 69.9136 713.878 Q72.9373 716.615 78.1572 716.615 L98.3046 716.615 L98.3046 722.503 L62.6567 722.503 L62.6567 716.615 L68.1949 716.615 Q64.9802 714.514 63.3887 711.682 Q61.7973 708.817 61.7973 705.093 Q61.7973 698.95 65.6167 695.799 Q69.4043 692.648 76.7886 692.648 Z" fill="#000000" fill-rule="nonzero" fill-opacity="1" /><path clip-path="url(#clip110)" d="M52.5352 675.174 L62.6567 675.174 L62.6567 663.111 L67.2082 663.111 L67.2082 675.174 L86.5599 675.174 Q90.9204 675.174 92.1617 673.997 Q93.4031 672.787 93.4031 669.127 L93.4031 663.111 L98.3046 663.111 L98.3046 669.127 Q98.3046 675.906 95.7902 678.485 Q93.2439 681.063 86.5599 681.063 L67.2082 681.063 L67.2082 685.359 L62.6567 685.359 L62.6567 681.063 L52.5352 681.063 L52.5352 675.174 Z" fill="#000000" fill-rule="nonzero" fill-opacity="1" /><path clip-path="url(#clip110)" d="M68.1312 634.752 Q67.5583 635.739 67.3037 636.916 Q67.0172 638.062 67.0172 639.463 Q67.0172 644.428 70.2637 647.102 Q73.4784 649.743 79.5258 649.743 L98.3046 649.743 L98.3046 655.632 L62.6567 655.632 L62.6567 649.743 L68.1949 649.743 Q64.9483 647.897 63.3887 644.937 Q61.7973 641.977 61.7973 637.744 Q61.7973 637.139 61.8928 636.407 Q61.9565 635.675 62.1156 634.784 L68.1312 634.752 Z" fill="#000000" fill-rule="nonzero" fill-opacity="1" /><path clip-path="url(#clip110)" d="M80.3852 612.408 Q80.3852 619.506 82.0084 622.244 Q83.6317 624.981 87.5466 624.981 Q90.6658 624.981 92.5119 622.944 Q94.3261 620.875 94.3261 617.342 Q94.3261 612.472 90.8886 609.544 Q87.4193 606.584 81.6901 606.584 L80.3852 606.584 L80.3852 612.408 M77.9662 600.727 L98.3046 600.727 L98.3046 606.584 L92.8938 606.584 Q96.1403 608.589 97.6999 611.581 Q99.2277 614.573 99.2277 618.902 Q99.2277 624.376 96.1721 627.623 Q93.0848 630.837 87.9285 630.837 Q81.9129 630.837 78.8574 626.827 Q75.8019 622.785 75.8019 614.796 L75.8019 606.584 L75.229 606.584 Q71.1867 606.584 68.9906 609.257 Q66.7626 611.899 66.7626 616.705 Q66.7626 619.761 67.4946 622.657 Q68.2267 625.554 69.6908 628.227 L64.2799 628.227 Q63.0386 625.013 62.4339 621.989 Q61.7973 618.965 61.7973 616.101 Q61.7973 608.366 65.8077 604.547 Q69.8181 600.727 77.9662 600.727 Z" fill="#000000" fill-rule="nonzero" fill-opacity="1" /><path clip-path="url(#clip110)" d="M52.5352 582.872 L62.6567 582.872 L62.6567 570.809 L67.2082 570.809 L67.2082 582.872 L86.5599 582.872 Q90.9204 582.872 92.1617 581.694 Q93.4031 580.484 93.4031 576.824 L93.4031 570.809 L98.3046 570.809 L98.3046 576.824 Q98.3046 583.604 95.7902 586.182 Q93.2439 588.76 86.5599 588.76 L67.2082 588.76 L67.2082 593.057 L62.6567 593.057 L62.6567 588.76 L52.5352 588.76 L52.5352 582.872 Z" fill="#000000" fill-rule="nonzero" fill-opacity="1" /><path clip-path="url(#clip110)" d="M62.6567 563.106 L62.6567 557.25 L98.3046 557.25 L98.3046 563.106 L62.6567 563.106 M48.7794 563.106 L48.7794 557.25 L56.1955 557.25 L56.1955 563.106 L48.7794 563.106 Z" fill="#000000" fill-rule="nonzero" fill-opacity="1" /><path clip-path="url(#clip110)" d="M66.7626 531.182 Q66.7626 535.893 70.4547 538.63 Q74.115 541.367 80.5125 541.367 Q86.91 541.367 90.6021 538.662 Q94.2624 535.925 94.2624 531.182 Q94.2624 526.503 90.5703 523.766 Q86.8782 521.029 80.5125 521.029 Q74.1786 521.029 70.4865 523.766 Q66.7626 526.503 66.7626 531.182 M61.7973 531.182 Q61.7973 523.543 66.7626 519.183 Q71.7278 514.822 80.5125 514.822 Q89.2653 514.822 94.2624 519.183 Q99.2277 523.543 99.2277 531.182 Q99.2277 538.853 94.2624 543.213 Q89.2653 547.542 80.5125 547.542 Q71.7278 547.542 66.7626 543.213 Q61.7973 538.853 61.7973 531.182 Z" fill="#000000" fill-rule="nonzero" fill-opacity="1" /><path clip-path="url(#clip110)" d="M76.7886 475.482 L98.3046 475.482 L98.3046 481.339 L76.9795 481.339 Q71.9188 481.339 69.4043 483.312 Q66.8899 485.285 66.8899 489.232 Q66.8899 493.975 69.9136 496.712 Q72.9373 499.449 78.1572 499.449 L98.3046 499.449 L98.3046 505.337 L62.6567 505.337 L62.6567 499.449 L68.1949 499.449 Q64.9802 497.348 63.3887 494.516 Q61.7973 491.651 61.7973 487.927 Q61.7973 481.784 65.6167 478.633 Q69.4043 475.482 76.7886 475.482 Z" fill="#000000" fill-rule="nonzero" fill-opacity="1" /><path clip-path="url(#clip110)" d="M1311.43 28.9478 L1311.43 35.9153 Q1308.27 34.1734 1305.07 33.3227 Q1301.91 32.4315 1298.67 32.4315 Q1291.42 32.4315 1287.41 37.0496 Q1283.4 41.6271 1283.4 49.9314 Q1283.4 58.2358 1287.41 62.8538 Q1291.42 67.4314 1298.67 67.4314 Q1301.91 67.4314 1305.07 66.5807 Q1308.27 65.6895 1311.43 63.9476 L1311.43 70.8341 Q1308.31 72.2924 1304.95 73.0216 Q1301.63 73.7508 1297.86 73.7508 Q1287.61 73.7508 1281.58 67.3098 Q1275.54 60.8689 1275.54 49.9314 Q1275.54 38.832 1281.62 32.472 Q1287.74 26.1121 1298.35 26.1121 Q1301.79 26.1121 1305.07 26.8413 Q1308.35 27.5299 1311.43 28.9478 Z" fill="#000000" fill-rule="nonzero" fill-opacity="1" /><path clip-path="url(#clip110)" d="M1332.5 65.6895 L1361.06 65.6895 L1361.06 72.576 L1322.65 72.576 L1322.65 65.6895 Q1327.31 60.8689 1335.33 52.7671 Q1343.39 44.6248 1345.46 42.2752 Q1349.39 37.8598 1350.93 34.8216 Q1352.51 31.7429 1352.51 28.7857 Q1352.51 23.9651 1349.11 20.927 Q1345.74 17.8888 1340.32 17.8888 Q1336.47 17.8888 1332.17 19.2256 Q1327.92 20.5624 1323.06 23.2765 L1323.06 15.0127 Q1328 13.0277 1332.3 12.015 Q1336.59 11.0023 1340.15 11.0023 Q1349.55 11.0023 1355.14 15.7013 Q1360.73 20.4004 1360.73 28.2591 Q1360.73 31.9859 1359.31 35.3482 Q1357.94 38.6699 1354.25 43.2069 Q1353.24 44.3817 1347.81 50.0125 Q1342.38 55.6027 1332.5 65.6895 Z" fill="#000000" fill-rule="nonzero" fill-opacity="1" /><circle clip-path="url(#clip112)" cx="537.577" cy="524.079" r="14.4" fill="#009af9" fill-rule="evenodd" fill-opacity="1" stroke="#000000" stroke-opacity="1" stroke-width="3.2"/>
<circle clip-path="url(#clip112)" cx="732.758" cy="544.367" r="14.4" fill="#009af9" fill-rule="evenodd" fill-opacity="1" stroke="#000000" stroke-opacity="1" stroke-width="3.2"/>
<circle clip-path="url(#clip112)" cx="927.938" cy="388.262" r="14.4" fill="#009af9" fill-rule="evenodd" fill-opacity="1" stroke="#000000" stroke-opacity="1" stroke-width="3.2"/>
<circle clip-path="url(#clip112)" cx="1123.12" cy="308.67" r="14.4" fill="#009af9" fill-rule="evenodd" fill-opacity="1" stroke="#000000" stroke-opacity="1" stroke-width="3.2"/>
<circle clip-path="url(#clip112)" cx="1318.3" cy="225.009" r="14.4" fill="#009af9" fill-rule="evenodd" fill-opacity="1" stroke="#000000" stroke-opacity="1" stroke-width="3.2"/>
<circle clip-path="url(#clip112)" cx="1513.48" cy="235.401" r="14.4" fill="#009af9" fill-rule="evenodd" fill-opacity="1" stroke="#000000" stroke-opacity="1" stroke-width="3.2"/>
<circle clip-path="url(#clip112)" cx="1708.66" cy="281.826" r="14.4" fill="#009af9" fill-rule="evenodd" fill-opacity="1" stroke="#000000" stroke-opacity="1" stroke-width="3.2"/>
<circle clip-path="url(#clip112)" cx="1903.84" cy="351.852" r="14.4" fill="#009af9" fill-rule="evenodd" fill-opacity="1" stroke="#000000" stroke-opacity="1" stroke-width="3.2"/>
<circle clip-path="url(#clip112)" cx="2099.02" cy="359.491" r="14.4" fill="#009af9" fill-rule="evenodd" fill-opacity="1" stroke="#000000" stroke-opacity="1" stroke-width="3.2"/>
<circle clip-path="url(#clip112)" cx="2294.2" cy="99.1312" r="14.4" fill="#009af9" fill-rule="evenodd" fill-opacity="1" stroke="#000000" stroke-opacity="1" stroke-width="3.2"/>
<polyline clip-path="url(#clip112)" style="stroke:#009af9; stroke-linecap:round; stroke-linejoin:round; stroke-width:4; stroke-opacity:1; fill:none" points="342.397,249.581 344.759,254.197 348.361,261.057 352.541,268.755 357.745,277.957 363.679,287.959 370.465,298.784 377.967,310.036 386.19,321.558 395.066,333.104 404.572,344.515 414.67,355.635 425.341,366.35 436.564,376.561 448.33,386.198 460.633,395.203 473.473,403.534 486.854,411.16 500.786,418.06 515.281,424.219 530.359,429.626 546.04,434.277 562.351,438.17 579.324,441.305 596.997,443.684 615.413,445.311 634.626,446.188 654.698,446.319 675.708,445.707 697.753,444.349 720.956,442.243 745.483,439.375 771.566,435.723 799.562,431.238 830.097,425.815 864.641,419.175 913.718,409.115 949.488,401.507 989.644,392.849 1029.8,384.191 1069.95,375.635 1110.11,367.264 1150.27,359.14 1190.69,351.26 1231.53,343.64 1272.98,336.283 1315.19,329.198 1358.34,322.388 1402.62,315.859 1448.2,309.616 1495.3,303.664 1544.13,298.009 1594.95,292.656 1648.03,287.609 1703.7,282.874 1762.32,278.457 1824.31,274.361 1890.16,270.592 1960.41,267.155 2035.64,264.055 2116.41,261.3 2203.15,258.895 2294.2,256.878 "/>
<circle clip-path="url(#clip112)" cx="537.577" cy="1242.27" r="14.4" fill="#e26f46" fill-rule="evenodd" fill-opacity="1" stroke="#000000" stroke-opacity="1" stroke-width="3.2"/>
<circle clip-path="url(#clip112)" cx="732.758" cy="1090.31" r="14.4" fill="#e26f46" fill-rule="evenodd" fill-opacity="1" stroke="#000000" stroke-opacity="1" stroke-width="3.2"/>
<circle clip-path="url(#clip112)" cx="927.938" cy="1040.69" r="14.4" fill="#e26f46" fill-rule="evenodd" fill-opacity="1" stroke="#000000" stroke-opacity="1" stroke-width="3.2"/>
<circle clip-path="url(#clip112)" cx="1123.12" cy="998.235" r="14.4" fill="#e26f46" fill-rule="evenodd" fill-opacity="1" stroke="#000000" stroke-opacity="1" stroke-width="3.2"/>
<circle clip-path="url(#clip112)" cx="1318.3" cy="806.371" r="14.4" fill="#e26f46" fill-rule="evenodd" fill-opacity="1" stroke="#000000" stroke-opacity="1" stroke-width="3.2"/>
<circle clip-path="url(#clip112)" cx="1513.48" cy="779.676" r="14.4" fill="#e26f46" fill-rule="evenodd" fill-opacity="1" stroke="#000000" stroke-opacity="1" stroke-width="3.2"/>
<circle clip-path="url(#clip112)" cx="1708.66" cy="868.857" r="14.4" fill="#e26f46" fill-rule="evenodd" fill-opacity="1" stroke="#000000" stroke-opacity="1" stroke-width="3.2"/>
<circle clip-path="url(#clip112)" cx="1903.84" cy="744.205" r="14.4" fill="#e26f46" fill-rule="evenodd" fill-opacity="1" stroke="#000000" stroke-opacity="1" stroke-width="3.2"/>
<circle clip-path="url(#clip112)" cx="2099.02" cy="797.268" r="14.4" fill="#e26f46" fill-rule="evenodd" fill-opacity="1" stroke="#000000" stroke-opacity="1" stroke-width="3.2"/>
<circle clip-path="url(#clip112)" cx="2294.2" cy="787.479" r="14.4" fill="#e26f46" fill-rule="evenodd" fill-opacity="1" stroke="#000000" stroke-opacity="1" stroke-width="3.2"/>
<polyline clip-path="url(#clip112)" style="stroke:#e26f46; stroke-linecap:round; stroke-linejoin:round; stroke-width:4; stroke-opacity:1; fill:none" points="342.397,1303.77 344.759,1303.75 348.361,1303.66 352.541,1303.47 357.745,1303.09 363.679,1302.49 370.465,1301.59 377.967,1300.34 386.19,1298.68 395.066,1296.59 404.572,1294.01 414.67,1290.93 425.341,1287.32 436.564,1283.16 448.33,1278.45 460.633,1273.18 473.473,1267.34 486.854,1260.93 500.786,1253.95 515.281,1246.4 530.359,1238.28 546.04,1229.6 562.351,1220.35 579.324,1210.55 596.997,1200.2 615.413,1189.31 634.626,1177.86 654.698,1165.88 675.708,1153.35 697.753,1140.27 720.956,1126.62 745.483,1112.39 771.566,1097.5 799.562,1081.88 830.097,1065.29 864.641,1047.16 913.718,1022.64 949.488,1005.73 989.644,987.744 1029.8,970.812 1069.95,954.93 1110.11,940.081 1150.27,926.237 1190.69,913.281 1231.53,901.154 1272.98,889.79 1315.19,879.142 1358.34,869.165 1402.62,859.826 1448.2,851.095 1495.3,842.945 1544.13,835.355 1594.95,828.305 1648.03,821.78 1703.7,815.763 1762.32,810.241 1824.31,805.203 1890.16,800.637 1960.41,796.534 2035.64,792.885 2116.41,789.686 2203.15,786.929 2294.2,784.645 "/>
<path clip-path="url(#clip110)" d="M1766.76 1297.34 L2283.79 1297.34 L2283.79 1038.14 L1766.76 1038.14  Z" fill="#ffffff" fill-rule="evenodd" fill-opacity="1"/>
<polyline clip-path="url(#clip110)" style="stroke:#000000; stroke-linecap:round; stroke-linejoin:round; stroke-width:4; stroke-opacity:1; fill:none" points="1766.76,1297.34 2283.79,1297.34 2283.79,1038.14 1766.76,1038.14 1766.76,1297.34 "/>
<circle clip-path="url(#clip110)" cx="1858.72" cy="1089.98" r="20.48" fill="#009af9" fill-rule="evenodd" fill-opacity="1" stroke="#000000" stroke-opacity="1" stroke-width="4.55111"/>
<path clip-path="url(#clip110)" d="M1950.67 1072.7 L1972.52 1072.7 L1972.52 1076.64 L1955.34 1076.64 L1955.34 1086.87 L1971.8 1086.87 L1971.8 1090.8 L1955.34 1090.8 L1955.34 1103.33 L1972.94 1103.33 L1972.94 1107.26 L1950.67 1107.26 L1950.67 1072.7 Z" fill="#000000" fill-rule="nonzero" fill-opacity="1" /><path clip-path="url(#clip110)" d="M2005.74 1071.29 Q2002.63 1076.61 2001.13 1081.82 Q1999.63 1087.03 1999.63 1092.38 Q1999.63 1097.72 2001.13 1102.98 Q2002.66 1108.21 2005.74 1113.51 L2002.03 1113.51 Q1998.56 1108.07 1996.82 1102.82 Q1995.11 1097.56 1995.11 1092.38 Q1995.11 1087.22 1996.82 1081.98 Q1998.54 1076.75 2002.03 1071.29 L2005.74 1071.29 Z" fill="#000000" fill-rule="nonzero" fill-opacity="1" /><path clip-path="url(#clip110)" d="M2034.19 1086.31 Q2035.78 1083.44 2038 1082.08 Q2040.23 1080.71 2043.24 1080.71 Q2047.29 1080.71 2049.49 1083.56 Q2051.68 1086.38 2051.68 1091.61 L2051.68 1107.26 L2047.4 1107.26 L2047.4 1091.75 Q2047.4 1088.03 2046.08 1086.22 Q2044.76 1084.41 2042.06 1084.41 Q2038.75 1084.41 2036.82 1086.61 Q2034.9 1088.81 2034.9 1092.61 L2034.9 1107.26 L2030.62 1107.26 L2030.62 1091.75 Q2030.62 1088 2029.3 1086.22 Q2027.98 1084.41 2025.23 1084.41 Q2021.96 1084.41 2020.04 1086.64 Q2018.12 1088.84 2018.12 1092.61 L2018.12 1107.26 L2013.84 1107.26 L2013.84 1081.34 L2018.12 1081.34 L2018.12 1085.36 Q2019.58 1082.98 2021.62 1081.85 Q2023.65 1080.71 2026.45 1080.71 Q2029.28 1080.71 2031.25 1082.15 Q2033.24 1083.58 2034.19 1086.31 Z" fill="#000000" fill-rule="nonzero" fill-opacity="1" /><path clip-path="url(#clip110)" d="M2082.36 1093.23 L2082.36 1095.32 L2062.77 1095.32 Q2063.05 1099.72 2065.41 1102.03 Q2067.8 1104.32 2072.03 1104.32 Q2074.49 1104.32 2076.78 1103.72 Q2079.09 1103.12 2081.36 1101.91 L2081.36 1105.94 Q2079.07 1106.91 2076.66 1107.42 Q2074.25 1107.93 2071.78 1107.93 Q2065.57 1107.93 2061.94 1104.32 Q2058.33 1100.71 2058.33 1094.55 Q2058.33 1088.19 2061.75 1084.46 Q2065.2 1080.71 2071.04 1080.71 Q2076.27 1080.71 2079.3 1084.09 Q2082.36 1087.45 2082.36 1093.23 M2078.1 1091.98 Q2078.05 1088.49 2076.13 1086.41 Q2074.23 1084.32 2071.08 1084.32 Q2067.52 1084.32 2065.37 1086.34 Q2063.24 1088.35 2062.91 1092.01 L2078.1 1091.98 Z" fill="#000000" fill-rule="nonzero" fill-opacity="1" /><path clip-path="url(#clip110)" d="M2101.13 1094.23 Q2095.97 1094.23 2093.98 1095.41 Q2091.99 1096.59 2091.99 1099.44 Q2091.99 1101.71 2093.47 1103.05 Q2094.97 1104.37 2097.54 1104.37 Q2101.08 1104.37 2103.21 1101.87 Q2105.37 1099.35 2105.37 1095.18 L2105.37 1094.23 L2101.13 1094.23 M2109.62 1092.47 L2109.62 1107.26 L2105.37 1107.26 L2105.37 1103.33 Q2103.91 1105.69 2101.73 1106.82 Q2099.56 1107.93 2096.41 1107.93 Q2092.43 1107.93 2090.06 1105.71 Q2087.73 1103.47 2087.73 1099.72 Q2087.73 1095.34 2090.64 1093.12 Q2093.58 1090.9 2099.39 1090.9 L2105.37 1090.9 L2105.37 1090.48 Q2105.37 1087.54 2103.42 1085.94 Q2101.5 1084.32 2098 1084.32 Q2095.78 1084.32 2093.68 1084.85 Q2091.57 1085.39 2089.62 1086.45 L2089.62 1082.52 Q2091.96 1081.61 2094.16 1081.17 Q2096.36 1080.71 2098.44 1080.71 Q2104.07 1080.71 2106.85 1083.63 Q2109.62 1086.54 2109.62 1092.47 Z" fill="#000000" fill-rule="nonzero" fill-opacity="1" /><path clip-path="url(#clip110)" d="M2134.93 1082.1 L2134.93 1086.13 Q2133.12 1085.2 2131.18 1084.74 Q2129.23 1084.28 2127.15 1084.28 Q2123.98 1084.28 2122.38 1085.25 Q2120.8 1086.22 2120.8 1088.16 Q2120.8 1089.65 2121.94 1090.5 Q2123.07 1091.34 2126.5 1092.1 L2127.96 1092.42 Q2132.49 1093.4 2134.39 1095.18 Q2136.31 1096.94 2136.31 1100.11 Q2136.31 1103.72 2133.44 1105.83 Q2130.6 1107.93 2125.6 1107.93 Q2123.51 1107.93 2121.24 1107.52 Q2119 1107.12 2116.5 1106.31 L2116.5 1101.91 Q2118.86 1103.14 2121.15 1103.77 Q2123.44 1104.37 2125.69 1104.37 Q2128.7 1104.37 2130.32 1103.35 Q2131.94 1102.31 2131.94 1100.43 Q2131.94 1098.7 2130.76 1097.77 Q2129.6 1096.85 2125.64 1095.99 L2124.16 1095.64 Q2120.2 1094.81 2118.44 1093.1 Q2116.68 1091.36 2116.68 1088.35 Q2116.68 1084.69 2119.28 1082.7 Q2121.87 1080.71 2126.64 1080.71 Q2129 1080.71 2131.08 1081.06 Q2133.17 1081.41 2134.93 1082.1 Z" fill="#000000" fill-rule="nonzero" fill-opacity="1" /><path clip-path="url(#clip110)" d="M2142.66 1097.03 L2142.66 1081.34 L2146.92 1081.34 L2146.92 1096.87 Q2146.92 1100.55 2148.35 1102.4 Q2149.79 1104.23 2152.66 1104.23 Q2156.11 1104.23 2158.1 1102.03 Q2160.11 1099.83 2160.11 1096.03 L2160.11 1081.34 L2164.37 1081.34 L2164.37 1107.26 L2160.11 1107.26 L2160.11 1103.28 Q2158.56 1105.64 2156.5 1106.8 Q2154.46 1107.93 2151.75 1107.93 Q2147.29 1107.93 2144.97 1105.16 Q2142.66 1102.38 2142.66 1097.03 M2153.37 1080.71 L2153.37 1080.71 Z" fill="#000000" fill-rule="nonzero" fill-opacity="1" /><path clip-path="url(#clip110)" d="M2188.17 1085.32 Q2187.45 1084.9 2186.59 1084.72 Q2185.76 1084.51 2184.74 1084.51 Q2181.13 1084.51 2179.18 1086.87 Q2177.26 1089.21 2177.26 1093.6 L2177.26 1107.26 L2172.98 1107.26 L2172.98 1081.34 L2177.26 1081.34 L2177.26 1085.36 Q2178.61 1083 2180.76 1081.87 Q2182.91 1080.71 2185.99 1080.71 Q2186.43 1080.71 2186.96 1080.78 Q2187.49 1080.83 2188.14 1080.94 L2188.17 1085.32 Z" fill="#000000" fill-rule="nonzero" fill-opacity="1" /><path clip-path="url(#clip110)" d="M2213.77 1093.23 L2213.77 1095.32 L2194.18 1095.32 Q2194.46 1099.72 2196.82 1102.03 Q2199.21 1104.32 2203.44 1104.32 Q2205.9 1104.32 2208.19 1103.72 Q2210.5 1103.12 2212.77 1101.91 L2212.77 1105.94 Q2210.48 1106.91 2208.07 1107.42 Q2205.67 1107.93 2203.19 1107.93 Q2196.99 1107.93 2193.35 1104.32 Q2189.74 1100.71 2189.74 1094.55 Q2189.74 1088.19 2193.17 1084.46 Q2196.61 1080.71 2202.45 1080.71 Q2207.68 1080.71 2210.71 1084.09 Q2213.77 1087.45 2213.77 1093.23 M2209.51 1091.98 Q2209.46 1088.49 2207.54 1086.41 Q2205.64 1084.32 2202.49 1084.32 Q2198.93 1084.32 2196.78 1086.34 Q2194.65 1088.35 2194.32 1092.01 L2209.51 1091.98 Z" fill="#000000" fill-rule="nonzero" fill-opacity="1" /><path clip-path="url(#clip110)" d="M2237.82 1085.27 L2237.82 1071.24 L2242.08 1071.24 L2242.08 1107.26 L2237.82 1107.26 L2237.82 1103.37 Q2236.48 1105.69 2234.42 1106.82 Q2232.38 1107.93 2229.51 1107.93 Q2224.81 1107.93 2221.85 1104.18 Q2218.91 1100.43 2218.91 1094.32 Q2218.91 1088.21 2221.85 1084.46 Q2224.81 1080.71 2229.51 1080.71 Q2232.38 1080.71 2234.42 1081.85 Q2236.48 1082.96 2237.82 1085.27 M2223.3 1094.32 Q2223.3 1099.02 2225.23 1101.71 Q2227.17 1104.37 2230.55 1104.37 Q2233.93 1104.37 2235.87 1101.71 Q2237.82 1099.02 2237.82 1094.32 Q2237.82 1089.62 2235.87 1086.96 Q2233.93 1084.28 2230.55 1084.28 Q2227.17 1084.28 2225.23 1086.96 Q2223.3 1089.62 2223.3 1094.32 Z" fill="#000000" fill-rule="nonzero" fill-opacity="1" /><path clip-path="url(#clip110)" d="M2250.18 1071.29 L2253.88 1071.29 Q2257.36 1076.75 2259.07 1081.98 Q2260.8 1087.22 2260.8 1092.38 Q2260.8 1097.56 2259.07 1102.82 Q2257.36 1108.07 2253.88 1113.51 L2250.18 1113.51 Q2253.26 1108.21 2254.76 1102.98 Q2256.29 1097.72 2256.29 1092.38 Q2256.29 1087.03 2254.76 1081.82 Q2253.26 1076.61 2250.18 1071.29 Z" fill="#000000" fill-rule="nonzero" fill-opacity="1" /><polyline clip-path="url(#clip110)" style="stroke:#009af9; stroke-linecap:round; stroke-linejoin:round; stroke-width:4; stroke-opacity:1; fill:none" points="1789.75,1141.82 1927.68,1141.82 "/>
<path clip-path="url(#clip110)" d="M1950.67 1124.54 L1972.52 1124.54 L1972.52 1128.48 L1955.34 1128.48 L1955.34 1138.71 L1971.8 1138.71 L1971.8 1142.64 L1955.34 1142.64 L1955.34 1155.17 L1972.94 1155.17 L1972.94 1159.1 L1950.67 1159.1 L1950.67 1124.54 Z" fill="#000000" fill-rule="nonzero" fill-opacity="1" /><path clip-path="url(#clip110)" d="M2005.74 1123.13 Q2002.63 1128.45 2001.13 1133.66 Q1999.63 1138.87 1999.63 1144.22 Q1999.63 1149.56 2001.13 1154.82 Q2002.66 1160.05 2005.74 1165.35 L2002.03 1165.35 Q1998.56 1159.91 1996.82 1154.66 Q1995.11 1149.4 1995.11 1144.22 Q1995.11 1139.06 1996.82 1133.82 Q1998.54 1128.59 2002.03 1123.13 L2005.74 1123.13 Z" fill="#000000" fill-rule="nonzero" fill-opacity="1" /><path clip-path="url(#clip110)" d="M2027.12 1123.08 L2027.12 1126.63 L2023.05 1126.63 Q2020.76 1126.63 2019.86 1127.55 Q2018.98 1128.48 2018.98 1130.88 L2018.98 1133.18 L2025.99 1133.18 L2025.99 1136.49 L2018.98 1136.49 L2018.98 1159.1 L2014.69 1159.1 L2014.69 1136.49 L2010.62 1136.49 L2010.62 1133.18 L2014.69 1133.18 L2014.69 1131.37 Q2014.69 1127.04 2016.71 1125.07 Q2018.72 1123.08 2023.1 1123.08 L2027.12 1123.08 Z" fill="#000000" fill-rule="nonzero" fill-opacity="1" /><path clip-path="url(#clip110)" d="M2030.69 1133.18 L2034.95 1133.18 L2034.95 1159.1 L2030.69 1159.1 L2030.69 1133.18 M2030.69 1123.08 L2034.95 1123.08 L2034.95 1128.48 L2030.69 1128.48 L2030.69 1123.08 Z" fill="#000000" fill-rule="nonzero" fill-opacity="1" /><path clip-path="url(#clip110)" d="M2048.07 1125.81 L2048.07 1133.18 L2056.85 1133.18 L2056.85 1136.49 L2048.07 1136.49 L2048.07 1150.56 Q2048.07 1153.73 2048.93 1154.63 Q2049.81 1155.54 2052.47 1155.54 L2056.85 1155.54 L2056.85 1159.1 L2052.47 1159.1 Q2047.54 1159.1 2045.67 1157.27 Q2043.79 1155.42 2043.79 1150.56 L2043.79 1136.49 L2040.67 1136.49 L2040.67 1133.18 L2043.79 1133.18 L2043.79 1125.81 L2048.07 1125.81 Z" fill="#000000" fill-rule="nonzero" fill-opacity="1" /><path clip-path="url(#clip110)" d="M2066.66 1125.81 L2066.66 1133.18 L2075.43 1133.18 L2075.43 1136.49 L2066.66 1136.49 L2066.66 1150.56 Q2066.66 1153.73 2067.52 1154.63 Q2068.4 1155.54 2071.06 1155.54 L2075.43 1155.54 L2075.43 1159.1 L2071.06 1159.1 Q2066.13 1159.1 2064.25 1157.27 Q2062.38 1155.42 2062.38 1150.56 L2062.38 1136.49 L2059.25 1136.49 L2059.25 1133.18 L2062.38 1133.18 L2062.38 1125.81 L2066.66 1125.81 Z" fill="#000000" fill-rule="nonzero" fill-opacity="1" /><path clip-path="url(#clip110)" d="M2103.21 1145.07 L2103.21 1147.16 L2083.63 1147.16 Q2083.91 1151.56 2086.27 1153.87 Q2088.65 1156.16 2092.89 1156.16 Q2095.34 1156.16 2097.63 1155.56 Q2099.95 1154.96 2102.22 1153.75 L2102.22 1157.78 Q2099.93 1158.75 2097.52 1159.26 Q2095.11 1159.77 2092.63 1159.77 Q2086.43 1159.77 2082.8 1156.16 Q2079.18 1152.55 2079.18 1146.39 Q2079.18 1140.03 2082.61 1136.3 Q2086.06 1132.55 2091.89 1132.55 Q2097.12 1132.55 2100.16 1135.93 Q2103.21 1139.29 2103.21 1145.07 M2098.95 1143.82 Q2098.91 1140.33 2096.99 1138.25 Q2095.09 1136.16 2091.94 1136.16 Q2088.37 1136.16 2086.22 1138.18 Q2084.09 1140.19 2083.77 1143.85 L2098.95 1143.82 Z" fill="#000000" fill-rule="nonzero" fill-opacity="1" /><path clip-path="url(#clip110)" d="M2127.26 1137.11 L2127.26 1123.08 L2131.52 1123.08 L2131.52 1159.1 L2127.26 1159.1 L2127.26 1155.21 Q2125.92 1157.53 2123.86 1158.66 Q2121.82 1159.77 2118.95 1159.77 Q2114.25 1159.77 2111.29 1156.02 Q2108.35 1152.27 2108.35 1146.16 Q2108.35 1140.05 2111.29 1136.3 Q2114.25 1132.55 2118.95 1132.55 Q2121.82 1132.55 2123.86 1133.69 Q2125.92 1134.8 2127.26 1137.11 M2112.75 1146.16 Q2112.75 1150.86 2114.67 1153.55 Q2116.62 1156.21 2119.99 1156.21 Q2123.37 1156.21 2125.32 1153.55 Q2127.26 1150.86 2127.26 1146.16 Q2127.26 1141.46 2125.32 1138.8 Q2123.37 1136.12 2119.99 1136.12 Q2116.62 1136.12 2114.67 1138.8 Q2112.75 1141.46 2112.75 1146.16 Z" fill="#000000" fill-rule="nonzero" fill-opacity="1" /><path clip-path="url(#clip110)" d="M2139.62 1123.13 L2143.33 1123.13 Q2146.8 1128.59 2148.51 1133.82 Q2150.25 1139.06 2150.25 1144.22 Q2150.25 1149.4 2148.51 1154.66 Q2146.8 1159.91 2143.33 1165.35 L2139.62 1165.35 Q2142.7 1160.05 2144.21 1154.82 Q2145.74 1149.56 2145.74 1144.22 Q2145.74 1138.87 2144.21 1133.66 Q2142.7 1128.45 2139.62 1123.13 Z" fill="#000000" fill-rule="nonzero" fill-opacity="1" /><circle clip-path="url(#clip110)" cx="1858.72" cy="1193.66" r="20.48" fill="#e26f46" fill-rule="evenodd" fill-opacity="1" stroke="#000000" stroke-opacity="1" stroke-width="4.55111"/>
<path clip-path="url(#clip110)" d="M1950.67 1176.38 L1972.52 1176.38 L1972.52 1180.32 L1955.34 1180.32 L1955.34 1190.55 L1971.8 1190.55 L1971.8 1194.48 L1955.34 1194.48 L1955.34 1207.01 L1972.94 1207.01 L1972.94 1210.94 L1950.67 1210.94 L1950.67 1176.38 Z" fill="#000000" fill-rule="nonzero" fill-opacity="1" /><path clip-path="url(#clip110)" d="M2005.74 1174.97 Q2002.63 1180.29 2001.13 1185.5 Q1999.63 1190.71 1999.63 1196.06 Q1999.63 1201.4 2001.13 1206.66 Q2002.66 1211.89 2005.74 1217.19 L2002.03 1217.19 Q1998.56 1211.75 1996.82 1206.5 Q1995.11 1201.24 1995.11 1196.06 Q1995.11 1190.9 1996.82 1185.66 Q1998.54 1180.43 2002.03 1174.97 L2005.74 1174.97 Z" fill="#000000" fill-rule="nonzero" fill-opacity="1" /><path clip-path="url(#clip110)" d="M2034.19 1189.99 Q2035.78 1187.12 2038 1185.76 Q2040.23 1184.39 2043.24 1184.39 Q2047.29 1184.39 2049.49 1187.24 Q2051.68 1190.06 2051.68 1195.29 L2051.68 1210.94 L2047.4 1210.94 L2047.4 1195.43 Q2047.4 1191.71 2046.08 1189.9 Q2044.76 1188.09 2042.06 1188.09 Q2038.75 1188.09 2036.82 1190.29 Q2034.9 1192.49 2034.9 1196.29 L2034.9 1210.94 L2030.62 1210.94 L2030.62 1195.43 Q2030.62 1191.68 2029.3 1189.9 Q2027.98 1188.09 2025.23 1188.09 Q2021.96 1188.09 2020.04 1190.32 Q2018.12 1192.52 2018.12 1196.29 L2018.12 1210.94 L2013.84 1210.94 L2013.84 1185.02 L2018.12 1185.02 L2018.12 1189.04 Q2019.58 1186.66 2021.62 1185.53 Q2023.65 1184.39 2026.45 1184.39 Q2029.28 1184.39 2031.25 1185.83 Q2033.24 1187.26 2034.19 1189.99 Z" fill="#000000" fill-rule="nonzero" fill-opacity="1" /><path clip-path="url(#clip110)" d="M2082.36 1196.91 L2082.36 1199 L2062.77 1199 Q2063.05 1203.4 2065.41 1205.71 Q2067.8 1208 2072.03 1208 Q2074.49 1208 2076.78 1207.4 Q2079.09 1206.8 2081.36 1205.59 L2081.36 1209.62 Q2079.07 1210.59 2076.66 1211.1 Q2074.25 1211.61 2071.78 1211.61 Q2065.57 1211.61 2061.94 1208 Q2058.33 1204.39 2058.33 1198.23 Q2058.33 1191.87 2061.75 1188.14 Q2065.2 1184.39 2071.04 1184.39 Q2076.27 1184.39 2079.3 1187.77 Q2082.36 1191.13 2082.36 1196.91 M2078.1 1195.66 Q2078.05 1192.17 2076.13 1190.09 Q2074.23 1188 2071.08 1188 Q2067.52 1188 2065.37 1190.02 Q2063.24 1192.03 2062.91 1195.69 L2078.1 1195.66 Z" fill="#000000" fill-rule="nonzero" fill-opacity="1" /><path clip-path="url(#clip110)" d="M2101.13 1197.91 Q2095.97 1197.91 2093.98 1199.09 Q2091.99 1200.27 2091.99 1203.12 Q2091.99 1205.39 2093.47 1206.73 Q2094.97 1208.05 2097.54 1208.05 Q2101.08 1208.05 2103.21 1205.55 Q2105.37 1203.03 2105.37 1198.86 L2105.37 1197.91 L2101.13 1197.91 M2109.62 1196.15 L2109.62 1210.94 L2105.37 1210.94 L2105.37 1207.01 Q2103.91 1209.37 2101.73 1210.5 Q2099.56 1211.61 2096.41 1211.61 Q2092.43 1211.61 2090.06 1209.39 Q2087.73 1207.15 2087.73 1203.4 Q2087.73 1199.02 2090.64 1196.8 Q2093.58 1194.58 2099.39 1194.58 L2105.37 1194.58 L2105.37 1194.16 Q2105.37 1191.22 2103.42 1189.62 Q2101.5 1188 2098 1188 Q2095.78 1188 2093.68 1188.53 Q2091.57 1189.07 2089.62 1190.13 L2089.62 1186.2 Q2091.96 1185.29 2094.16 1184.85 Q2096.36 1184.39 2098.44 1184.39 Q2104.07 1184.39 2106.85 1187.31 Q2109.62 1190.22 2109.62 1196.15 Z" fill="#000000" fill-rule="nonzero" fill-opacity="1" /><path clip-path="url(#clip110)" d="M2134.93 1185.78 L2134.93 1189.81 Q2133.12 1188.88 2131.18 1188.42 Q2129.23 1187.96 2127.15 1187.96 Q2123.98 1187.96 2122.38 1188.93 Q2120.8 1189.9 2120.8 1191.84 Q2120.8 1193.33 2121.94 1194.18 Q2123.07 1195.02 2126.5 1195.78 L2127.96 1196.1 Q2132.49 1197.08 2134.39 1198.86 Q2136.31 1200.62 2136.31 1203.79 Q2136.31 1207.4 2133.44 1209.51 Q2130.6 1211.61 2125.6 1211.61 Q2123.51 1211.61 2121.24 1211.2 Q2119 1210.8 2116.5 1209.99 L2116.5 1205.59 Q2118.86 1206.82 2121.15 1207.45 Q2123.44 1208.05 2125.69 1208.05 Q2128.7 1208.05 2130.32 1207.03 Q2131.94 1205.99 2131.94 1204.11 Q2131.94 1202.38 2130.76 1201.45 Q2129.6 1200.53 2125.64 1199.67 L2124.16 1199.32 Q2120.2 1198.49 2118.44 1196.78 Q2116.68 1195.04 2116.68 1192.03 Q2116.68 1188.37 2119.28 1186.38 Q2121.87 1184.39 2126.64 1184.39 Q2129 1184.39 2131.08 1184.74 Q2133.17 1185.09 2134.93 1185.78 Z" fill="#000000" fill-rule="nonzero" fill-opacity="1" /><path clip-path="url(#clip110)" d="M2142.66 1200.71 L2142.66 1185.02 L2146.92 1185.02 L2146.92 1200.55 Q2146.92 1204.23 2148.35 1206.08 Q2149.79 1207.91 2152.66 1207.91 Q2156.11 1207.91 2158.1 1205.71 Q2160.11 1203.51 2160.11 1199.71 L2160.11 1185.02 L2164.37 1185.02 L2164.37 1210.94 L2160.11 1210.94 L2160.11 1206.96 Q2158.56 1209.32 2156.5 1210.48 Q2154.46 1211.61 2151.75 1211.61 Q2147.29 1211.61 2144.97 1208.84 Q2142.66 1206.06 2142.66 1200.71 M2153.37 1184.39 L2153.37 1184.39 Z" fill="#000000" fill-rule="nonzero" fill-opacity="1" /><path clip-path="url(#clip110)" d="M2188.17 1189 Q2187.45 1188.58 2186.59 1188.4 Q2185.76 1188.19 2184.74 1188.19 Q2181.13 1188.19 2179.18 1190.55 Q2177.26 1192.89 2177.26 1197.28 L2177.26 1210.94 L2172.98 1210.94 L2172.98 1185.02 L2177.26 1185.02 L2177.26 1189.04 Q2178.61 1186.68 2180.76 1185.55 Q2182.91 1184.39 2185.99 1184.39 Q2186.43 1184.39 2186.96 1184.46 Q2187.49 1184.51 2188.14 1184.62 L2188.17 1189 Z" fill="#000000" fill-rule="nonzero" fill-opacity="1" /><path clip-path="url(#clip110)" d="M2213.77 1196.91 L2213.77 1199 L2194.18 1199 Q2194.46 1203.4 2196.82 1205.71 Q2199.21 1208 2203.44 1208 Q2205.9 1208 2208.19 1207.4 Q2210.5 1206.8 2212.77 1205.59 L2212.77 1209.62 Q2210.48 1210.59 2208.07 1211.1 Q2205.67 1211.61 2203.19 1211.61 Q2196.99 1211.61 2193.35 1208 Q2189.74 1204.39 2189.74 1198.23 Q2189.74 1191.87 2193.17 1188.14 Q2196.61 1184.39 2202.45 1184.39 Q2207.68 1184.39 2210.71 1187.77 Q2213.77 1191.13 2213.77 1196.91 M2209.51 1195.66 Q2209.46 1192.17 2207.54 1190.09 Q2205.64 1188 2202.49 1188 Q2198.93 1188 2196.78 1190.02 Q2194.65 1192.03 2194.32 1195.69 L2209.51 1195.66 Z" fill="#000000" fill-rule="nonzero" fill-opacity="1" /><path clip-path="url(#clip110)" d="M2237.82 1188.95 L2237.82 1174.92 L2242.08 1174.92 L2242.08 1210.94 L2237.82 1210.94 L2237.82 1207.05 Q2236.48 1209.37 2234.42 1210.5 Q2232.38 1211.61 2229.51 1211.61 Q2224.81 1211.61 2221.85 1207.86 Q2218.91 1204.11 2218.91 1198 Q2218.91 1191.89 2221.85 1188.14 Q2224.81 1184.39 2229.51 1184.39 Q2232.38 1184.39 2234.42 1185.53 Q2236.48 1186.64 2237.82 1188.95 M2223.3 1198 Q2223.3 1202.7 2225.23 1205.39 Q2227.17 1208.05 2230.55 1208.05 Q2233.93 1208.05 2235.87 1205.39 Q2237.82 1202.7 2237.82 1198 Q2237.82 1193.3 2235.87 1190.64 Q2233.93 1187.96 2230.55 1187.96 Q2227.17 1187.96 2225.23 1190.64 Q2223.3 1193.3 2223.3 1198 Z" fill="#000000" fill-rule="nonzero" fill-opacity="1" /><path clip-path="url(#clip110)" d="M2250.18 1174.97 L2253.88 1174.97 Q2257.36 1180.43 2259.07 1185.66 Q2260.8 1190.9 2260.8 1196.06 Q2260.8 1201.24 2259.07 1206.5 Q2257.36 1211.75 2253.88 1217.19 L2250.18 1217.19 Q2253.26 1211.89 2254.76 1206.66 Q2256.29 1201.4 2256.29 1196.06 Q2256.29 1190.71 2254.76 1185.5 Q2253.26 1180.29 2250.18 1174.97 Z" fill="#000000" fill-rule="nonzero" fill-opacity="1" /><polyline clip-path="url(#clip110)" style="stroke:#e26f46; stroke-linecap:round; stroke-linejoin:round; stroke-width:4; stroke-opacity:1; fill:none" points="1789.75,1245.5 1927.68,1245.5 "/>
<path clip-path="url(#clip110)" d="M1950.67 1228.22 L1972.52 1228.22 L1972.52 1232.16 L1955.34 1232.16 L1955.34 1242.39 L1971.8 1242.39 L1971.8 1246.32 L1955.34 1246.32 L1955.34 1258.85 L1972.94 1258.85 L1972.94 1262.78 L1950.67 1262.78 L1950.67 1228.22 Z" fill="#000000" fill-rule="nonzero" fill-opacity="1" /><path clip-path="url(#clip110)" d="M2005.74 1226.81 Q2002.63 1232.13 2001.13 1237.34 Q1999.63 1242.55 1999.63 1247.9 Q1999.63 1253.24 2001.13 1258.5 Q2002.66 1263.73 2005.74 1269.03 L2002.03 1269.03 Q1998.56 1263.59 1996.82 1258.34 Q1995.11 1253.08 1995.11 1247.9 Q1995.11 1242.74 1996.82 1237.5 Q1998.54 1232.27 2002.03 1226.81 L2005.74 1226.81 Z" fill="#000000" fill-rule="nonzero" fill-opacity="1" /><path clip-path="url(#clip110)" d="M2027.12 1226.76 L2027.12 1230.31 L2023.05 1230.31 Q2020.76 1230.31 2019.86 1231.23 Q2018.98 1232.16 2018.98 1234.56 L2018.98 1236.86 L2025.99 1236.86 L2025.99 1240.17 L2018.98 1240.17 L2018.98 1262.78 L2014.69 1262.78 L2014.69 1240.17 L2010.62 1240.17 L2010.62 1236.86 L2014.69 1236.86 L2014.69 1235.05 Q2014.69 1230.72 2016.71 1228.75 Q2018.72 1226.76 2023.1 1226.76 L2027.12 1226.76 Z" fill="#000000" fill-rule="nonzero" fill-opacity="1" /><path clip-path="url(#clip110)" d="M2030.69 1236.86 L2034.95 1236.86 L2034.95 1262.78 L2030.69 1262.78 L2030.69 1236.86 M2030.69 1226.76 L2034.95 1226.76 L2034.95 1232.16 L2030.69 1232.16 L2030.69 1226.76 Z" fill="#000000" fill-rule="nonzero" fill-opacity="1" /><path clip-path="url(#clip110)" d="M2048.07 1229.49 L2048.07 1236.86 L2056.85 1236.86 L2056.85 1240.17 L2048.07 1240.17 L2048.07 1254.24 Q2048.07 1257.41 2048.93 1258.31 Q2049.81 1259.22 2052.47 1259.22 L2056.85 1259.22 L2056.85 1262.78 L2052.47 1262.78 Q2047.54 1262.78 2045.67 1260.95 Q2043.79 1259.1 2043.79 1254.24 L2043.79 1240.17 L2040.67 1240.17 L2040.67 1236.86 L2043.79 1236.86 L2043.79 1229.49 L2048.07 1229.49 Z" fill="#000000" fill-rule="nonzero" fill-opacity="1" /><path clip-path="url(#clip110)" d="M2066.66 1229.49 L2066.66 1236.86 L2075.43 1236.86 L2075.43 1240.17 L2066.66 1240.17 L2066.66 1254.24 Q2066.66 1257.41 2067.52 1258.31 Q2068.4 1259.22 2071.06 1259.22 L2075.43 1259.22 L2075.43 1262.78 L2071.06 1262.78 Q2066.13 1262.78 2064.25 1260.95 Q2062.38 1259.1 2062.38 1254.24 L2062.38 1240.17 L2059.25 1240.17 L2059.25 1236.86 L2062.38 1236.86 L2062.38 1229.49 L2066.66 1229.49 Z" fill="#000000" fill-rule="nonzero" fill-opacity="1" /><path clip-path="url(#clip110)" d="M2103.21 1248.75 L2103.21 1250.84 L2083.63 1250.84 Q2083.91 1255.24 2086.27 1257.55 Q2088.65 1259.84 2092.89 1259.84 Q2095.34 1259.84 2097.63 1259.24 Q2099.95 1258.64 2102.22 1257.43 L2102.22 1261.46 Q2099.93 1262.43 2097.52 1262.94 Q2095.11 1263.45 2092.63 1263.45 Q2086.43 1263.45 2082.8 1259.84 Q2079.18 1256.23 2079.18 1250.07 Q2079.18 1243.71 2082.61 1239.98 Q2086.06 1236.23 2091.89 1236.23 Q2097.12 1236.23 2100.16 1239.61 Q2103.21 1242.97 2103.21 1248.75 M2098.95 1247.5 Q2098.91 1244.01 2096.99 1241.93 Q2095.09 1239.84 2091.94 1239.84 Q2088.37 1239.84 2086.22 1241.86 Q2084.09 1243.87 2083.77 1247.53 L2098.95 1247.5 Z" fill="#000000" fill-rule="nonzero" fill-opacity="1" /><path clip-path="url(#clip110)" d="M2127.26 1240.79 L2127.26 1226.76 L2131.52 1226.76 L2131.52 1262.78 L2127.26 1262.78 L2127.26 1258.89 Q2125.92 1261.21 2123.86 1262.34 Q2121.82 1263.45 2118.95 1263.45 Q2114.25 1263.45 2111.29 1259.7 Q2108.35 1255.95 2108.35 1249.84 Q2108.35 1243.73 2111.29 1239.98 Q2114.25 1236.23 2118.95 1236.23 Q2121.82 1236.23 2123.86 1237.37 Q2125.92 1238.48 2127.26 1240.79 M2112.75 1249.84 Q2112.75 1254.54 2114.67 1257.23 Q2116.62 1259.89 2119.99 1259.89 Q2123.37 1259.89 2125.32 1257.23 Q2127.26 1254.54 2127.26 1249.84 Q2127.26 1245.14 2125.32 1242.48 Q2123.37 1239.8 2119.99 1239.8 Q2116.62 1239.8 2114.67 1242.48 Q2112.75 1245.14 2112.75 1249.84 Z" fill="#000000" fill-rule="nonzero" fill-opacity="1" /><path clip-path="url(#clip110)" d="M2139.62 1226.81 L2143.33 1226.81 Q2146.8 1232.27 2148.51 1237.5 Q2150.25 1242.74 2150.25 1247.9 Q2150.25 1253.08 2148.51 1258.34 Q2146.8 1263.59 2143.33 1269.03 L2139.62 1269.03 Q2142.7 1263.73 2144.21 1258.5 Q2145.74 1253.24 2145.74 1247.9 Q2145.74 1242.55 2144.21 1237.34 Q2142.7 1232.13 2139.62 1226.81 Z" fill="#000000" fill-rule="nonzero" fill-opacity="1" /></svg>
