<?xml version="1.0" encoding="utf-8"?>
<svg xmlns="http://www.w3.org/2000/svg" xmlns:xlink="http://www.w3.org/1999/xlink" width="600" height="400" viewBox="0 0 2400 1600">
<defs>
  <clipPath id="clip550">
    <rect x="0" y="0" width="2400" height="1600"/>
  </clipPath>
</defs>
<path clip-path="url(#clip550)" d="M0 1600 L2400 1600 L2400 0 L0 0  Z" fill="#ffffff" fill-rule="evenodd" fill-opacity="1"/>
<defs>
  <clipPath id="clip551">
    <rect x="480" y="0" width="1681" height="1600"/>
  </clipPath>
</defs>
<path clip-path="url(#clip550)" d="M430.644 1305.35 L2352.76 1305.35 L2352.76 123.472 L430.644 123.472  Z" fill="#ffffff" fill-rule="evenodd" fill-opacity="1"/>
<defs>
  <clipPath id="clip552">
    <rect x="430" y="123" width="1923" height="1183"/>
  </clipPath>
</defs>
<polyline clip-path="url(#clip552)" style="stroke:#000000; stroke-linecap:round; stroke-linejoin:round; stroke-width:2; stroke-opacity:0.1; fill:none" points="485.044,1305.35 485.044,123.472 "/>
<polyline clip-path="url(#clip552)" style="stroke:#000000; stroke-linecap:round; stroke-linejoin:round; stroke-width:2; stroke-opacity:0.1; fill:none" points="938.372,1305.35 938.372,123.472 "/>
<polyline clip-path="url(#clip552)" style="stroke:#000000; stroke-linecap:round; stroke-linejoin:round; stroke-width:2; stroke-opacity:0.1; fill:none" points="1391.7,1305.35 1391.7,123.472 "/>
<polyline clip-path="url(#clip552)" style="stroke:#000000; stroke-linecap:round; stroke-linejoin:round; stroke-width:2; stroke-opacity:0.1; fill:none" points="1845.03,1305.35 1845.03,123.472 "/>
<polyline clip-path="url(#clip552)" style="stroke:#000000; stroke-linecap:round; stroke-linejoin:round; stroke-width:2; stroke-opacity:0.1; fill:none" points="2298.36,1305.35 2298.36,123.472 "/>
<polyline clip-path="url(#clip550)" style="stroke:#000000; stroke-linecap:round; stroke-linejoin:round; stroke-width:4; stroke-opacity:1; fill:none" points="430.644,1305.35 2352.76,1305.35 "/>
<polyline clip-path="url(#clip550)" style="stroke:#000000; stroke-linecap:round; stroke-linejoin:round; stroke-width:4; stroke-opacity:1; fill:none" points="485.044,1305.35 485.044,1286.45 "/>
<polyline clip-path="url(#clip550)" style="stroke:#000000; stroke-linecap:round; stroke-linejoin:round; stroke-width:4; stroke-opacity:1; fill:none" points="938.372,1305.35 938.372,1286.45 "/>
<polyline clip-path="url(#clip550)" style="stroke:#000000; stroke-linecap:round; stroke-linejoin:round; stroke-width:4; stroke-opacity:1; fill:none" points="1391.7,1305.35 1391.7,1286.45 "/>
<polyline clip-path="url(#clip550)" style="stroke:#000000; stroke-linecap:round; stroke-linejoin:round; stroke-width:4; stroke-opacity:1; fill:none" points="1845.03,1305.35 1845.03,1286.45 "/>
<polyline clip-path="url(#clip550)" style="stroke:#000000; stroke-linecap:round; stroke-linejoin:round; stroke-width:4; stroke-opacity:1; fill:none" points="2298.36,1305.35 2298.36,1286.45 "/>
<path clip-path="url(#clip550)" d="M462.428 1336.26 Q458.817 1336.26 456.988 1339.83 Q455.183 1343.37 455.183 1350.5 Q455.183 1357.61 456.988 1361.17 Q458.817 1364.71 462.428 1364.71 Q466.062 1364.71 467.868 1361.17 Q469.697 1357.61 469.697 1350.5 Q469.697 1343.37 467.868 1339.83 Q466.062 1336.26 462.428 1336.26 M462.428 1332.56 Q468.238 1332.56 471.294 1337.17 Q474.373 1341.75 474.373 1350.5 Q474.373 1359.23 471.294 1363.83 Q468.238 1368.42 462.428 1368.42 Q456.618 1368.42 453.539 1363.83 Q450.484 1359.23 450.484 1350.5 Q450.484 1341.75 453.539 1337.17 Q456.618 1332.56 462.428 1332.56 Z" fill="#000000" fill-rule="nonzero" fill-opacity="1" /><path clip-path="url(#clip550)" d="M482.59 1361.87 L487.474 1361.87 L487.474 1367.75 L482.59 1367.75 L482.59 1361.87 Z" fill="#000000" fill-rule="nonzero" fill-opacity="1" /><path clip-path="url(#clip550)" d="M507.659 1336.26 Q504.048 1336.26 502.22 1339.83 Q500.414 1343.37 500.414 1350.5 Q500.414 1357.61 502.22 1361.17 Q504.048 1364.71 507.659 1364.71 Q511.294 1364.71 513.099 1361.17 Q514.928 1357.61 514.928 1350.5 Q514.928 1343.37 513.099 1339.83 Q511.294 1336.26 507.659 1336.26 M507.659 1332.56 Q513.47 1332.56 516.525 1337.17 Q519.604 1341.75 519.604 1350.5 Q519.604 1359.23 516.525 1363.83 Q513.47 1368.42 507.659 1368.42 Q501.849 1368.42 498.771 1363.83 Q495.715 1359.23 495.715 1350.5 Q495.715 1341.75 498.771 1337.17 Q501.849 1332.56 507.659 1332.56 Z" fill="#000000" fill-rule="nonzero" fill-opacity="1" /><path clip-path="url(#clip550)" d="M910.108 1363.81 L926.428 1363.81 L926.428 1367.75 L904.483 1367.75 L904.483 1363.81 Q907.145 1361.06 911.729 1356.43 Q916.335 1351.77 917.516 1350.43 Q919.761 1347.91 920.641 1346.17 Q921.543 1344.41 921.543 1342.72 Q921.543 1339.97 919.599 1338.23 Q917.678 1336.5 914.576 1336.5 Q912.377 1336.5 909.923 1337.26 Q907.492 1338.02 904.715 1339.57 L904.715 1334.85 Q907.539 1333.72 909.992 1333.14 Q912.446 1332.56 914.483 1332.56 Q919.854 1332.56 923.048 1335.25 Q926.242 1337.93 926.242 1342.42 Q926.242 1344.55 925.432 1346.47 Q924.645 1348.37 922.539 1350.96 Q921.96 1351.63 918.858 1354.85 Q915.756 1358.05 910.108 1363.81 Z" fill="#000000" fill-rule="nonzero" fill-opacity="1" /><path clip-path="url(#clip550)" d="M936.242 1361.87 L941.127 1361.87 L941.127 1367.75 L936.242 1367.75 L936.242 1361.87 Z" fill="#000000" fill-rule="nonzero" fill-opacity="1" /><path clip-path="url(#clip550)" d="M951.358 1333.19 L969.714 1333.19 L969.714 1337.12 L955.64 1337.12 L955.64 1345.59 Q956.659 1345.25 957.677 1345.08 Q958.696 1344.9 959.714 1344.9 Q965.501 1344.9 968.881 1348.07 Q972.261 1351.24 972.261 1356.66 Q972.261 1362.24 968.788 1365.34 Q965.316 1368.42 958.997 1368.42 Q956.821 1368.42 954.552 1368.05 Q952.307 1367.68 949.9 1366.94 L949.9 1362.24 Q951.983 1363.37 954.205 1363.93 Q956.427 1364.48 958.904 1364.48 Q962.909 1364.48 965.247 1362.38 Q967.585 1360.27 967.585 1356.66 Q967.585 1353.05 965.247 1350.94 Q962.909 1348.83 958.904 1348.83 Q957.029 1348.83 955.154 1349.25 Q953.302 1349.67 951.358 1350.55 L951.358 1333.19 Z" fill="#000000" fill-rule="nonzero" fill-opacity="1" /><path clip-path="url(#clip550)" d="M1358.86 1333.19 L1377.22 1333.19 L1377.22 1337.12 L1363.15 1337.12 L1363.15 1345.59 Q1364.17 1345.25 1365.18 1345.08 Q1366.2 1344.9 1367.22 1344.9 Q1373.01 1344.9 1376.39 1348.07 Q1379.77 1351.24 1379.77 1356.66 Q1379.77 1362.24 1376.3 1365.34 Q1372.82 1368.42 1366.5 1368.42 Q1364.33 1368.42 1362.06 1368.05 Q1359.81 1367.68 1357.41 1366.94 L1357.41 1362.24 Q1359.49 1363.37 1361.71 1363.93 Q1363.93 1364.48 1366.41 1364.48 Q1370.42 1364.48 1372.75 1362.38 Q1375.09 1360.27 1375.09 1356.66 Q1375.09 1353.05 1372.75 1350.94 Q1370.42 1348.83 1366.41 1348.83 Q1364.54 1348.83 1362.66 1349.25 Q1360.81 1349.67 1358.86 1350.55 L1358.86 1333.19 Z" fill="#000000" fill-rule="nonzero" fill-opacity="1" /><path clip-path="url(#clip550)" d="M1388.98 1361.87 L1393.86 1361.87 L1393.86 1367.75 L1388.98 1367.75 L1388.98 1361.87 Z" fill="#000000" fill-rule="nonzero" fill-opacity="1" /><path clip-path="url(#clip550)" d="M1414.05 1336.26 Q1410.44 1336.26 1408.61 1339.83 Q1406.8 1343.37 1406.8 1350.5 Q1406.8 1357.61 1408.61 1361.17 Q1410.44 1364.71 1414.05 1364.71 Q1417.68 1364.71 1419.49 1361.17 Q1421.32 1357.61 1421.32 1350.5 Q1421.32 1343.37 1419.49 1339.83 Q1417.68 1336.26 1414.05 1336.26 M1414.05 1332.56 Q1419.86 1332.56 1422.92 1337.17 Q1425.99 1341.75 1425.99 1350.5 Q1425.99 1359.23 1422.92 1363.83 Q1419.86 1368.42 1414.05 1368.42 Q1408.24 1368.42 1405.16 1363.83 Q1402.11 1359.23 1402.11 1350.5 Q1402.11 1341.75 1405.16 1337.17 Q1408.24 1332.56 1414.05 1332.56 Z" fill="#000000" fill-rule="nonzero" fill-opacity="1" /><path clip-path="url(#clip550)" d="M1811.35 1333.19 L1833.57 1333.19 L1833.57 1335.18 L1821.02 1367.75 L1816.14 1367.75 L1827.95 1337.12 L1811.35 1337.12 L1811.35 1333.19 Z" fill="#000000" fill-rule="nonzero" fill-opacity="1" /><path clip-path="url(#clip550)" d="M1842.69 1361.87 L1847.57 1361.87 L1847.57 1367.75 L1842.69 1367.75 L1842.69 1361.87 Z" fill="#000000" fill-rule="nonzero" fill-opacity="1" /><path clip-path="url(#clip550)" d="M1857.81 1333.19 L1876.16 1333.19 L1876.16 1337.12 L1862.09 1337.12 L1862.09 1345.59 Q1863.11 1345.25 1864.13 1345.08 Q1865.14 1344.9 1866.16 1344.9 Q1871.95 1344.9 1875.33 1348.07 Q1878.71 1351.24 1878.71 1356.66 Q1878.71 1362.24 1875.24 1365.34 Q1871.76 1368.42 1865.44 1368.42 Q1863.27 1368.42 1861 1368.05 Q1858.76 1367.68 1856.35 1366.94 L1856.35 1362.24 Q1858.43 1363.37 1860.65 1363.93 Q1862.88 1364.48 1865.35 1364.48 Q1869.36 1364.48 1871.69 1362.38 Q1874.03 1360.27 1874.03 1356.66 Q1874.03 1353.05 1871.69 1350.94 Q1869.36 1348.83 1865.35 1348.83 Q1863.48 1348.83 1861.6 1349.25 Q1859.75 1349.67 1857.81 1350.55 L1857.81 1333.19 Z" fill="#000000" fill-rule="nonzero" fill-opacity="1" /><path clip-path="url(#clip550)" d="M2250.43 1363.81 L2258.07 1363.81 L2258.07 1337.44 L2249.76 1339.11 L2249.76 1334.85 L2258.02 1333.19 L2262.7 1333.19 L2262.7 1363.81 L2270.34 1363.81 L2270.34 1367.75 L2250.43 1367.75 L2250.43 1363.81 Z" fill="#000000" fill-rule="nonzero" fill-opacity="1" /><path clip-path="url(#clip550)" d="M2289.78 1336.26 Q2286.17 1336.26 2284.34 1339.83 Q2282.53 1343.37 2282.53 1350.5 Q2282.53 1357.61 2284.34 1361.17 Q2286.17 1364.71 2289.78 1364.71 Q2293.41 1364.71 2295.22 1361.17 Q2297.05 1357.61 2297.05 1350.5 Q2297.05 1343.37 2295.22 1339.83 Q2293.41 1336.26 2289.78 1336.26 M2289.78 1332.56 Q2295.59 1332.56 2298.65 1337.17 Q2301.72 1341.75 2301.72 1350.5 Q2301.72 1359.23 2298.65 1363.83 Q2295.59 1368.42 2289.78 1368.42 Q2283.97 1368.42 2280.89 1363.83 Q2277.84 1359.23 2277.84 1350.5 Q2277.84 1341.75 2280.89 1337.17 Q2283.97 1332.56 2289.78 1332.56 Z" fill="#000000" fill-rule="nonzero" fill-opacity="1" /><path clip-path="url(#clip550)" d="M2309.94 1361.87 L2314.83 1361.87 L2314.83 1367.75 L2309.94 1367.75 L2309.94 1361.87 Z" fill="#000000" fill-rule="nonzero" fill-opacity="1" /><path clip-path="url(#clip550)" d="M2335.01 1336.26 Q2331.4 1336.26 2329.57 1339.83 Q2327.77 1343.37 2327.77 1350.5 Q2327.77 1357.61 2329.57 1361.17 Q2331.4 1364.71 2335.01 1364.71 Q2338.65 1364.71 2340.45 1361.17 Q2342.28 1357.61 2342.28 1350.5 Q2342.28 1343.37 2340.45 1339.83 Q2338.65 1336.26 2335.01 1336.26 M2335.01 1332.56 Q2340.82 1332.56 2343.88 1337.17 Q2346.96 1341.75 2346.96 1350.5 Q2346.96 1359.23 2343.88 1363.83 Q2340.82 1368.42 2335.01 1368.42 Q2329.2 1368.42 2326.12 1363.83 Q2323.07 1359.23 2323.07 1350.5 Q2323.07 1341.75 2326.12 1337.17 Q2329.2 1332.56 2335.01 1332.56 Z" fill="#000000" fill-rule="nonzero" fill-opacity="1" /><polyline clip-path="url(#clip552)" style="stroke:#000000; stroke-linecap:round; stroke-linejoin:round; stroke-width:2; stroke-opacity:0.1; fill:none" points="430.644,1271.9 2352.76,1271.9 "/>
<polyline clip-path="url(#clip552)" style="stroke:#000000; stroke-linecap:round; stroke-linejoin:round; stroke-width:2; stroke-opacity:0.1; fill:none" points="430.644,1021.15 2352.76,1021.15 "/>
<polyline clip-path="url(#clip552)" style="stroke:#000000; stroke-linecap:round; stroke-linejoin:round; stroke-width:2; stroke-opacity:0.1; fill:none" points="430.644,770.394 2352.76,770.394 "/>
<polyline clip-path="url(#clip552)" style="stroke:#000000; stroke-linecap:round; stroke-linejoin:round; stroke-width:2; stroke-opacity:0.1; fill:none" points="430.644,519.643 2352.76,519.643 "/>
<polyline clip-path="url(#clip552)" style="stroke:#000000; stroke-linecap:round; stroke-linejoin:round; stroke-width:2; stroke-opacity:0.1; fill:none" points="430.644,268.892 2352.76,268.892 "/>
<polyline clip-path="url(#clip550)" style="stroke:#000000; stroke-linecap:round; stroke-linejoin:round; stroke-width:4; stroke-opacity:1; fill:none" points="430.644,1305.35 430.644,123.472 "/>
<polyline clip-path="url(#clip550)" style="stroke:#000000; stroke-linecap:round; stroke-linejoin:round; stroke-width:4; stroke-opacity:1; fill:none" points="430.644,1271.9 449.542,1271.9 "/>
<polyline clip-path="url(#clip550)" style="stroke:#000000; stroke-linecap:round; stroke-linejoin:round; stroke-width:4; stroke-opacity:1; fill:none" points="430.644,1021.15 449.542,1021.15 "/>
<polyline clip-path="url(#clip550)" style="stroke:#000000; stroke-linecap:round; stroke-linejoin:round; stroke-width:4; stroke-opacity:1; fill:none" points="430.644,770.394 449.542,770.394 "/>
<polyline clip-path="url(#clip550)" style="stroke:#000000; stroke-linecap:round; stroke-linejoin:round; stroke-width:4; stroke-opacity:1; fill:none" points="430.644,519.643 449.542,519.643 "/>
<polyline clip-path="url(#clip550)" style="stroke:#000000; stroke-linecap:round; stroke-linejoin:round; stroke-width:4; stroke-opacity:1; fill:none" points="430.644,268.892 449.542,268.892 "/>
<path clip-path="url(#clip550)" d="M307.307 1257.69 Q303.696 1257.69 301.867 1261.26 Q300.062 1264.8 300.062 1271.93 Q300.062 1279.04 301.867 1282.6 Q303.696 1286.14 307.307 1286.14 Q310.941 1286.14 312.747 1282.6 Q314.575 1279.04 314.575 1271.93 Q314.575 1264.8 312.747 1261.26 Q310.941 1257.69 307.307 1257.69 M307.307 1253.99 Q313.117 1253.99 316.173 1258.6 Q319.251 1263.18 319.251 1271.93 Q319.251 1280.66 316.173 1285.26 Q313.117 1289.85 307.307 1289.85 Q301.497 1289.85 298.418 1285.26 Q295.363 1280.66 295.363 1271.93 Q295.363 1263.18 298.418 1258.6 Q301.497 1253.99 307.307 1253.99 Z" fill="#000000" fill-rule="nonzero" fill-opacity="1" /><path clip-path="url(#clip550)" d="M327.469 1283.3 L332.353 1283.3 L332.353 1289.18 L327.469 1289.18 L327.469 1283.3 Z" fill="#000000" fill-rule="nonzero" fill-opacity="1" /><path clip-path="url(#clip550)" d="M352.538 1257.69 Q348.927 1257.69 347.098 1261.26 Q345.293 1264.8 345.293 1271.93 Q345.293 1279.04 347.098 1282.6 Q348.927 1286.14 352.538 1286.14 Q356.172 1286.14 357.978 1282.6 Q359.807 1279.04 359.807 1271.93 Q359.807 1264.8 357.978 1261.26 Q356.172 1257.69 352.538 1257.69 M352.538 1253.99 Q358.348 1253.99 361.404 1258.6 Q364.483 1263.18 364.483 1271.93 Q364.483 1280.66 361.404 1285.26 Q358.348 1289.85 352.538 1289.85 Q346.728 1289.85 343.649 1285.26 Q340.594 1280.66 340.594 1271.93 Q340.594 1263.18 343.649 1258.6 Q346.728 1253.99 352.538 1253.99 Z" fill="#000000" fill-rule="nonzero" fill-opacity="1" /><path clip-path="url(#clip550)" d="M382.7 1257.69 Q379.089 1257.69 377.26 1261.26 Q375.455 1264.8 375.455 1271.93 Q375.455 1279.04 377.26 1282.6 Q379.089 1286.14 382.7 1286.14 Q386.334 1286.14 388.14 1282.6 Q389.968 1279.04 389.968 1271.93 Q389.968 1264.8 388.14 1261.26 Q386.334 1257.69 382.7 1257.69 M382.7 1253.99 Q388.51 1253.99 391.566 1258.6 Q394.644 1263.18 394.644 1271.93 Q394.644 1280.66 391.566 1285.26 Q388.51 1289.85 382.7 1289.85 Q376.89 1289.85 373.811 1285.26 Q370.756 1280.66 370.756 1271.93 Q370.756 1263.18 373.811 1258.6 Q376.89 1253.99 382.7 1253.99 Z" fill="#000000" fill-rule="nonzero" fill-opacity="1" /><path clip-path="url(#clip550)" d="M308.302 1006.94 Q304.691 1006.94 302.862 1010.51 Q301.057 1014.05 301.057 1021.18 Q301.057 1028.29 302.862 1031.85 Q304.691 1035.39 308.302 1035.39 Q311.937 1035.39 313.742 1031.85 Q315.571 1028.29 315.571 1021.18 Q315.571 1014.05 313.742 1010.51 Q311.937 1006.94 308.302 1006.94 M308.302 1003.24 Q314.112 1003.24 317.168 1007.85 Q320.247 1012.43 320.247 1021.18 Q320.247 1029.91 317.168 1034.51 Q314.112 1039.1 308.302 1039.1 Q302.492 1039.1 299.413 1034.51 Q296.358 1029.91 296.358 1021.18 Q296.358 1012.43 299.413 1007.85 Q302.492 1003.24 308.302 1003.24 Z" fill="#000000" fill-rule="nonzero" fill-opacity="1" /><path clip-path="url(#clip550)" d="M328.464 1032.55 L333.348 1032.55 L333.348 1038.43 L328.464 1038.43 L328.464 1032.55 Z" fill="#000000" fill-rule="nonzero" fill-opacity="1" /><path clip-path="url(#clip550)" d="M347.561 1034.49 L363.881 1034.49 L363.881 1038.43 L341.936 1038.43 L341.936 1034.49 Q344.598 1031.74 349.182 1027.11 Q353.788 1022.45 354.969 1021.11 Q357.214 1018.59 358.094 1016.85 Q358.996 1015.09 358.996 1013.4 Q358.996 1010.65 357.052 1008.91 Q355.131 1007.18 352.029 1007.18 Q349.83 1007.18 347.376 1007.94 Q344.946 1008.7 342.168 1010.25 L342.168 1005.53 Q344.992 1004.4 347.446 1003.82 Q349.899 1003.24 351.936 1003.24 Q357.307 1003.24 360.501 1005.93 Q363.695 1008.61 363.695 1013.1 Q363.695 1015.23 362.885 1017.15 Q362.098 1019.05 359.992 1021.64 Q359.413 1022.31 356.311 1025.53 Q353.209 1028.73 347.561 1034.49 Z" fill="#000000" fill-rule="nonzero" fill-opacity="1" /><path clip-path="url(#clip550)" d="M373.742 1003.87 L392.098 1003.87 L392.098 1007.8 L378.024 1007.8 L378.024 1016.27 Q379.043 1015.93 380.061 1015.76 Q381.08 1015.58 382.098 1015.58 Q387.885 1015.58 391.265 1018.75 Q394.644 1021.92 394.644 1027.34 Q394.644 1032.92 391.172 1036.02 Q387.7 1039.1 381.381 1039.1 Q379.205 1039.1 376.936 1038.73 Q374.691 1038.36 372.283 1037.61 L372.283 1032.92 Q374.367 1034.05 376.589 1034.61 Q378.811 1035.16 381.288 1035.16 Q385.293 1035.16 387.631 1033.05 Q389.968 1030.95 389.968 1027.34 Q389.968 1023.73 387.631 1021.62 Q385.293 1019.51 381.288 1019.51 Q379.413 1019.51 377.538 1019.93 Q375.686 1020.35 373.742 1021.23 L373.742 1003.87 Z" fill="#000000" fill-rule="nonzero" fill-opacity="1" /><path clip-path="url(#clip550)" d="M307.307 756.193 Q303.696 756.193 301.867 759.758 Q300.062 763.299 300.062 770.429 Q300.062 777.535 301.867 781.1 Q303.696 784.642 307.307 784.642 Q310.941 784.642 312.747 781.1 Q314.575 777.535 314.575 770.429 Q314.575 763.299 312.747 759.758 Q310.941 756.193 307.307 756.193 M307.307 752.489 Q313.117 752.489 316.173 757.096 Q319.251 761.679 319.251 770.429 Q319.251 779.156 316.173 783.762 Q313.117 788.345 307.307 788.345 Q301.497 788.345 298.418 783.762 Q295.363 779.156 295.363 770.429 Q295.363 761.679 298.418 757.096 Q301.497 752.489 307.307 752.489 Z" fill="#000000" fill-rule="nonzero" fill-opacity="1" /><path clip-path="url(#clip550)" d="M327.469 781.794 L332.353 781.794 L332.353 787.674 L327.469 787.674 L327.469 781.794 Z" fill="#000000" fill-rule="nonzero" fill-opacity="1" /><path clip-path="url(#clip550)" d="M342.584 753.114 L360.941 753.114 L360.941 757.049 L346.867 757.049 L346.867 765.521 Q347.885 765.174 348.904 765.012 Q349.922 764.827 350.941 764.827 Q356.728 764.827 360.108 767.998 Q363.487 771.17 363.487 776.586 Q363.487 782.165 360.015 785.267 Q356.543 788.345 350.223 788.345 Q348.047 788.345 345.779 787.975 Q343.534 787.605 341.126 786.864 L341.126 782.165 Q343.209 783.299 345.432 783.855 Q347.654 784.41 350.131 784.41 Q354.135 784.41 356.473 782.304 Q358.811 780.197 358.811 776.586 Q358.811 772.975 356.473 770.869 Q354.135 768.762 350.131 768.762 Q348.256 768.762 346.381 769.179 Q344.529 769.595 342.584 770.475 L342.584 753.114 Z" fill="#000000" fill-rule="nonzero" fill-opacity="1" /><path clip-path="url(#clip550)" d="M382.7 756.193 Q379.089 756.193 377.26 759.758 Q375.455 763.299 375.455 770.429 Q375.455 777.535 377.26 781.1 Q379.089 784.642 382.7 784.642 Q386.334 784.642 388.14 781.1 Q389.968 777.535 389.968 770.429 Q389.968 763.299 388.14 759.758 Q386.334 756.193 382.7 756.193 M382.7 752.489 Q388.51 752.489 391.566 757.096 Q394.644 761.679 394.644 770.429 Q394.644 779.156 391.566 783.762 Q388.51 788.345 382.7 788.345 Q376.89 788.345 373.811 783.762 Q370.756 779.156 370.756 770.429 Q370.756 761.679 373.811 757.096 Q376.89 752.489 382.7 752.489 Z" fill="#000000" fill-rule="nonzero" fill-opacity="1" /><path clip-path="url(#clip550)" d="M308.302 505.442 Q304.691 505.442 302.862 509.006 Q301.057 512.548 301.057 519.678 Q301.057 526.784 302.862 530.349 Q304.691 533.891 308.302 533.891 Q311.937 533.891 313.742 530.349 Q315.571 526.784 315.571 519.678 Q315.571 512.548 313.742 509.006 Q311.937 505.442 308.302 505.442 M308.302 501.738 Q314.112 501.738 317.168 506.344 Q320.247 510.928 320.247 519.678 Q320.247 528.404 317.168 533.011 Q314.112 537.594 308.302 537.594 Q302.492 537.594 299.413 533.011 Q296.358 528.404 296.358 519.678 Q296.358 510.928 299.413 506.344 Q302.492 501.738 308.302 501.738 Z" fill="#000000" fill-rule="nonzero" fill-opacity="1" /><path clip-path="url(#clip550)" d="M328.464 531.043 L333.348 531.043 L333.348 536.923 L328.464 536.923 L328.464 531.043 Z" fill="#000000" fill-rule="nonzero" fill-opacity="1" /><path clip-path="url(#clip550)" d="M342.353 502.363 L364.575 502.363 L364.575 504.354 L352.029 536.923 L347.145 536.923 L358.95 506.298 L342.353 506.298 L342.353 502.363 Z" fill="#000000" fill-rule="nonzero" fill-opacity="1" /><path clip-path="url(#clip550)" d="M373.742 502.363 L392.098 502.363 L392.098 506.298 L378.024 506.298 L378.024 514.77 Q379.043 514.423 380.061 514.261 Q381.08 514.076 382.098 514.076 Q387.885 514.076 391.265 517.247 Q394.644 520.418 394.644 525.835 Q394.644 531.414 391.172 534.516 Q387.7 537.594 381.381 537.594 Q379.205 537.594 376.936 537.224 Q374.691 536.854 372.283 536.113 L372.283 531.414 Q374.367 532.548 376.589 533.104 Q378.811 533.659 381.288 533.659 Q385.293 533.659 387.631 531.553 Q389.968 529.446 389.968 525.835 Q389.968 522.224 387.631 520.117 Q385.293 518.011 381.288 518.011 Q379.413 518.011 377.538 518.428 Q375.686 518.844 373.742 519.724 L373.742 502.363 Z" fill="#000000" fill-rule="nonzero" fill-opacity="1" /><path clip-path="url(#clip550)" d="M298.117 282.237 L305.756 282.237 L305.756 255.871 L297.446 257.538 L297.446 253.279 L305.71 251.612 L310.386 251.612 L310.386 282.237 L318.024 282.237 L318.024 286.172 L298.117 286.172 L298.117 282.237 Z" fill="#000000" fill-rule="nonzero" fill-opacity="1" /><path clip-path="url(#clip550)" d="M327.469 280.292 L332.353 280.292 L332.353 286.172 L327.469 286.172 L327.469 280.292 Z" fill="#000000" fill-rule="nonzero" fill-opacity="1" /><path clip-path="url(#clip550)" d="M352.538 254.691 Q348.927 254.691 347.098 258.255 Q345.293 261.797 345.293 268.927 Q345.293 276.033 347.098 279.598 Q348.927 283.139 352.538 283.139 Q356.172 283.139 357.978 279.598 Q359.807 276.033 359.807 268.927 Q359.807 261.797 357.978 258.255 Q356.172 254.691 352.538 254.691 M352.538 250.987 Q358.348 250.987 361.404 255.593 Q364.483 260.177 364.483 268.927 Q364.483 277.653 361.404 282.26 Q358.348 286.843 352.538 286.843 Q346.728 286.843 343.649 282.26 Q340.594 277.653 340.594 268.927 Q340.594 260.177 343.649 255.593 Q346.728 250.987 352.538 250.987 Z" fill="#000000" fill-rule="nonzero" fill-opacity="1" /><path clip-path="url(#clip550)" d="M382.7 254.691 Q379.089 254.691 377.26 258.255 Q375.455 261.797 375.455 268.927 Q375.455 276.033 377.26 279.598 Q379.089 283.139 382.7 283.139 Q386.334 283.139 388.14 279.598 Q389.968 276.033 389.968 268.927 Q389.968 261.797 388.14 258.255 Q386.334 254.691 382.7 254.691 M382.7 250.987 Q388.51 250.987 391.566 255.593 Q394.644 260.177 394.644 268.927 Q394.644 277.653 391.566 282.26 Q388.51 286.843 382.7 286.843 Q376.89 286.843 373.811 282.26 Q370.756 277.653 370.756 268.927 Q370.756 260.177 373.811 255.593 Q376.89 250.987 382.7 250.987 Z" fill="#000000" fill-rule="nonzero" fill-opacity="1" /><path clip-path="url(#clip550)" d="M201.247 902.054 L208.026 902.054 Q205.003 905.3 203.507 908.993 Q202.011 912.653 202.011 916.791 Q202.011 924.939 207.008 929.267 Q211.973 933.596 221.394 933.596 Q230.784 933.596 235.781 929.267 Q240.746 924.939 240.746 916.791 Q240.746 912.653 239.25 908.993 Q237.754 905.3 234.73 902.054 L241.446 902.054 Q243.738 905.428 244.884 909.215 Q246.03 912.971 246.03 917.172 Q246.03 927.962 239.441 934.169 Q232.821 940.375 221.394 940.375 Q209.936 940.375 203.347 934.169 Q196.727 927.962 196.727 917.172 Q196.727 912.907 197.873 909.152 Q198.987 905.364 201.247 902.054 Z" fill="#000000" fill-rule="nonzero" fill-opacity="1" /><path clip-path="url(#clip550)" d="M213.564 878.564 Q213.564 883.275 217.257 886.012 Q220.917 888.75 227.314 888.75 Q233.712 888.75 237.404 886.044 Q241.064 883.307 241.064 878.564 Q241.064 873.886 237.372 871.148 Q233.68 868.411 227.314 868.411 Q220.98 868.411 217.288 871.148 Q213.564 873.886 213.564 878.564 M208.599 878.564 Q208.599 870.926 213.564 866.565 Q218.53 862.205 227.314 862.205 Q236.067 862.205 241.064 866.565 Q246.03 870.926 246.03 878.564 Q246.03 886.235 241.064 890.596 Q236.067 894.924 227.314 894.924 Q218.53 894.924 213.564 890.596 Q208.599 886.235 208.599 878.564 Z" fill="#000000" fill-rule="nonzero" fill-opacity="1" /><path clip-path="url(#clip550)" d="M223.59 822.865 L245.107 822.865 L245.107 828.721 L223.781 828.721 Q218.721 828.721 216.206 830.694 Q213.692 832.668 213.692 836.614 Q213.692 841.357 216.715 844.094 Q219.739 846.831 224.959 846.831 L245.107 846.831 L245.107 852.72 L209.459 852.72 L209.459 846.831 L214.997 846.831 Q211.782 844.731 210.191 841.898 Q208.599 839.033 208.599 835.31 Q208.599 829.167 212.419 826.016 Q216.206 822.865 223.59 822.865 Z" fill="#000000" fill-rule="nonzero" fill-opacity="1" /><path clip-path="url(#clip550)" d="M210.827 785.53 L216.302 785.53 Q214.933 788.012 214.265 790.527 Q213.564 793.009 213.564 795.556 Q213.564 801.253 217.193 804.404 Q220.79 807.555 227.314 807.555 Q233.839 807.555 237.468 804.404 Q241.064 801.253 241.064 795.556 Q241.064 793.009 240.396 790.527 Q239.696 788.012 238.327 785.53 L243.738 785.53 Q244.884 787.98 245.457 790.622 Q246.03 793.232 246.03 796.192 Q246.03 804.245 240.969 808.987 Q235.908 813.73 227.314 813.73 Q218.593 813.73 213.596 808.955 Q208.599 804.149 208.599 795.81 Q208.599 793.105 209.172 790.527 Q209.713 787.949 210.827 785.53 Z" fill="#000000" fill-rule="nonzero" fill-opacity="1" /><path clip-path="url(#clip550)" d="M225.818 744.853 L228.683 744.853 L228.683 771.78 Q234.73 771.398 237.913 768.151 Q241.064 764.873 241.064 759.048 Q241.064 755.675 240.237 752.523 Q239.409 749.341 237.754 746.221 L243.292 746.221 Q244.629 749.372 245.329 752.683 Q246.03 755.993 246.03 759.398 Q246.03 767.928 241.064 772.926 Q236.099 777.891 227.633 777.891 Q218.88 777.891 213.755 773.18 Q208.599 768.438 208.599 760.417 Q208.599 753.224 213.246 749.054 Q217.861 744.853 225.818 744.853 M224.1 750.709 Q219.294 750.773 216.429 753.415 Q213.564 756.025 213.564 760.353 Q213.564 765.255 216.334 768.215 Q219.103 771.143 224.132 771.589 L224.1 750.709 Z" fill="#000000" fill-rule="nonzero" fill-opacity="1" /><path clip-path="url(#clip550)" d="M223.59 705.608 L245.107 705.608 L245.107 711.465 L223.781 711.465 Q218.721 711.465 216.206 713.438 Q213.692 715.411 213.692 719.358 Q213.692 724.101 216.715 726.838 Q219.739 729.575 224.959 729.575 L245.107 729.575 L245.107 735.463 L209.459 735.463 L209.459 729.575 L214.997 729.575 Q211.782 727.474 210.191 724.642 Q208.599 721.777 208.599 718.053 Q208.599 711.91 212.419 708.759 Q216.206 705.608 223.59 705.608 Z" fill="#000000" fill-rule="nonzero" fill-opacity="1" /><path clip-path="url(#clip550)" d="M199.337 688.134 L209.459 688.134 L209.459 676.071 L214.01 676.071 L214.01 688.134 L233.362 688.134 Q237.722 688.134 238.964 686.957 Q240.205 685.747 240.205 682.087 L240.205 676.071 L245.107 676.071 L245.107 682.087 Q245.107 688.866 242.592 691.445 Q240.046 694.023 233.362 694.023 L214.01 694.023 L214.01 698.319 L209.459 698.319 L209.459 694.023 L199.337 694.023 L199.337 688.134 Z" fill="#000000" fill-rule="nonzero" fill-opacity="1" /><path clip-path="url(#clip550)" d="M214.933 647.712 Q214.36 648.699 214.106 649.876 Q213.819 651.022 213.819 652.423 Q213.819 657.388 217.066 660.062 Q220.28 662.703 226.328 662.703 L245.107 662.703 L245.107 668.592 L209.459 668.592 L209.459 662.703 L214.997 662.703 Q211.75 660.857 210.191 657.897 Q208.599 654.937 208.599 650.704 Q208.599 650.099 208.695 649.367 Q208.758 648.635 208.917 647.744 L214.933 647.712 Z" fill="#000000" fill-rule="nonzero" fill-opacity="1" /><path clip-path="url(#clip550)" d="M227.187 625.368 Q227.187 632.466 228.81 635.204 Q230.434 637.941 234.348 637.941 Q237.468 637.941 239.314 635.904 Q241.128 633.835 241.128 630.302 Q241.128 625.432 237.69 622.504 Q234.221 619.544 228.492 619.544 L227.187 619.544 L227.187 625.368 M224.768 613.687 L245.107 613.687 L245.107 619.544 L239.696 619.544 Q242.942 621.549 244.502 624.541 Q246.03 627.533 246.03 631.862 Q246.03 637.336 242.974 640.583 Q239.887 643.797 234.73 643.797 Q228.715 643.797 225.659 639.787 Q222.604 635.745 222.604 627.756 L222.604 619.544 L222.031 619.544 Q217.989 619.544 215.792 622.217 Q213.564 624.859 213.564 629.665 Q213.564 632.721 214.296 635.617 Q215.029 638.514 216.493 641.187 L211.082 641.187 Q209.841 637.973 209.236 634.949 Q208.599 631.925 208.599 629.061 Q208.599 621.326 212.61 617.507 Q216.62 613.687 224.768 613.687 Z" fill="#000000" fill-rule="nonzero" fill-opacity="1" /><path clip-path="url(#clip550)" d="M199.337 595.832 L209.459 595.832 L209.459 583.769 L214.01 583.769 L214.01 595.832 L233.362 595.832 Q237.722 595.832 238.964 594.654 Q240.205 593.444 240.205 589.784 L240.205 583.769 L245.107 583.769 L245.107 589.784 Q245.107 596.564 242.592 599.142 Q240.046 601.72 233.362 601.72 L214.01 601.72 L214.01 606.017 L209.459 606.017 L209.459 601.72 L199.337 601.72 L199.337 595.832 Z" fill="#000000" fill-rule="nonzero" fill-opacity="1" /><path clip-path="url(#clip550)" d="M209.459 576.066 L209.459 570.21 L245.107 570.21 L245.107 576.066 L209.459 576.066 M195.581 576.066 L195.581 570.21 L202.997 570.21 L202.997 576.066 L195.581 576.066 Z" fill="#000000" fill-rule="nonzero" fill-opacity="1" /><path clip-path="url(#clip550)" d="M213.564 544.142 Q213.564 548.853 217.257 551.59 Q220.917 554.327 227.314 554.327 Q233.712 554.327 237.404 551.622 Q241.064 548.885 241.064 544.142 Q241.064 539.463 237.372 536.726 Q233.68 533.989 227.314 533.989 Q220.98 533.989 217.288 536.726 Q213.564 539.463 213.564 544.142 M208.599 544.142 Q208.599 536.503 213.564 532.143 Q218.53 527.782 227.314 527.782 Q236.067 527.782 241.064 532.143 Q246.03 536.503 246.03 544.142 Q246.03 551.813 241.064 556.173 Q236.067 560.502 227.314 560.502 Q218.53 560.502 213.564 556.173 Q208.599 551.813 208.599 544.142 Z" fill="#000000" fill-rule="nonzero" fill-opacity="1" /><path clip-path="url(#clip550)" d="M223.59 488.442 L245.107 488.442 L245.107 494.299 L223.781 494.299 Q218.721 494.299 216.206 496.272 Q213.692 498.245 213.692 502.192 Q213.692 506.935 216.715 509.672 Q219.739 512.409 224.959 512.409 L245.107 512.409 L245.107 518.297 L209.459 518.297 L209.459 512.409 L214.997 512.409 Q211.782 510.308 210.191 507.476 Q208.599 504.611 208.599 500.887 Q208.599 494.744 212.419 491.593 Q216.206 488.442 223.59 488.442 Z" fill="#000000" fill-rule="nonzero" fill-opacity="1" /><path clip-path="url(#clip550)" d="M1384.83 28.9478 L1384.83 35.9153 Q1381.67 34.1734 1378.47 33.3227 Q1375.31 32.4315 1372.07 32.4315 Q1364.82 32.4315 1360.81 37.0496 Q1356.8 41.6271 1356.8 49.9314 Q1356.8 58.2358 1360.81 62.8538 Q1364.82 67.4314 1372.07 67.4314 Q1375.31 67.4314 1378.47 66.5807 Q1381.67 65.6895 1384.83 63.9476 L1384.83 70.8341 Q1381.71 72.2924 1378.35 73.0216 Q1375.03 73.7508 1371.26 73.7508 Q1361.01 73.7508 1354.98 67.3098 Q1348.94 60.8689 1348.94 49.9314 Q1348.94 38.832 1355.02 32.472 Q1361.14 26.1121 1371.75 26.1121 Q1375.19 26.1121 1378.47 26.8413 Q1381.76 27.5299 1384.83 28.9478 Z" fill="#000000" fill-rule="nonzero" fill-opacity="1" /><path clip-path="url(#clip550)" d="M1405.9 65.6895 L1434.46 65.6895 L1434.46 72.576 L1396.05 72.576 L1396.05 65.6895 Q1400.71 60.8689 1408.73 52.7671 Q1416.8 44.6248 1418.86 42.2752 Q1422.79 37.8598 1424.33 34.8216 Q1425.91 31.7429 1425.91 28.7857 Q1425.91 23.9651 1422.51 20.927 Q1419.15 17.8888 1413.72 17.8888 Q1409.87 17.8888 1405.57 19.2256 Q1401.32 20.5624 1396.46 23.2765 L1396.46 15.0127 Q1401.4 13.0277 1405.7 12.015 Q1409.99 11.0023 1413.55 11.0023 Q1422.95 11.0023 1428.54 15.7013 Q1434.13 20.4004 1434.13 28.2591 Q1434.13 31.9859 1432.72 35.3482 Q1431.34 38.6699 1427.65 43.2069 Q1426.64 44.3817 1421.21 50.0125 Q1415.78 55.6027 1405.9 65.6895 Z" fill="#000000" fill-rule="nonzero" fill-opacity="1" /><circle clip-path="url(#clip552)" cx="666.375" cy="589.708" r="14.4" fill="#009af9" fill-rule="evenodd" fill-opacity="1" stroke="#000000" stroke-opacity="1" stroke-width="3.2"/>
<circle clip-path="url(#clip552)" cx="847.706" cy="387.773" r="14.4" fill="#009af9" fill-rule="evenodd" fill-opacity="1" stroke="#000000" stroke-opacity="1" stroke-width="3.2"/>
<circle clip-path="url(#clip552)" cx="1029.04" cy="511.504" r="14.4" fill="#009af9" fill-rule="evenodd" fill-opacity="1" stroke="#000000" stroke-opacity="1" stroke-width="3.2"/>
<circle clip-path="url(#clip552)" cx="1210.37" cy="394.017" r="14.4" fill="#009af9" fill-rule="evenodd" fill-opacity="1" stroke="#000000" stroke-opacity="1" stroke-width="3.2"/>
<circle clip-path="url(#clip552)" cx="1391.7" cy="473.288" r="14.4" fill="#009af9" fill-rule="evenodd" fill-opacity="1" stroke="#000000" stroke-opacity="1" stroke-width="3.2"/>
<circle clip-path="url(#clip552)" cx="1573.03" cy="166.971" r="14.4" fill="#009af9" fill-rule="evenodd" fill-opacity="1" stroke="#000000" stroke-opacity="1" stroke-width="3.2"/>
<circle clip-path="url(#clip552)" cx="1754.36" cy="156.921" r="14.4" fill="#009af9" fill-rule="evenodd" fill-opacity="1" stroke="#000000" stroke-opacity="1" stroke-width="3.2"/>
<circle clip-path="url(#clip552)" cx="1935.69" cy="371.889" r="14.4" fill="#009af9" fill-rule="evenodd" fill-opacity="1" stroke="#000000" stroke-opacity="1" stroke-width="3.2"/>
<circle clip-path="url(#clip552)" cx="2117.03" cy="175.766" r="14.4" fill="#009af9" fill-rule="evenodd" fill-opacity="1" stroke="#000000" stroke-opacity="1" stroke-width="3.2"/>
<circle clip-path="url(#clip552)" cx="2298.36" cy="313.598" r="14.4" fill="#009af9" fill-rule="evenodd" fill-opacity="1" stroke="#000000" stroke-opacity="1" stroke-width="3.2"/>
<polyline clip-path="url(#clip552)" style="stroke:#009af9; stroke-linecap:round; stroke-linejoin:round; stroke-width:4; stroke-opacity:1; fill:none" points="485.044,268.892 486.433,277.999 487.823,286.77 489.577,297.391 491.473,308.322 493.62,320.062 495.94,332.023 498.457,344.219 501.144,356.393 504.003,368.466 507.023,380.308 510.203,391.847 513.541,403.012 517.036,413.756 520.69,424.039 524.505,433.833 528.484,443.118 532.633,451.878 536.957,460.104 541.464,467.789 546.162,474.93 551.061,481.525 556.171,487.575 561.503,493.082 567.072,498.047 572.891,502.476 578.977,506.371 585.348,509.738 592.025,512.581 599.029,514.906 606.386,516.717 614.124,518.019 622.276,518.817 630.877,519.117 639.968,518.921 649.596,518.234 659.818,517.057 670.697,515.391 682.313,513.234 694.762,510.58 708.17,507.417 722.713,503.718 738.658,499.435 756.502,494.453 777.618,488.408 803.209,480.994 828.8,473.59 854.391,466.271 879.982,459.081 905.573,452.05 931.164,445.196 956.755,438.529 982.346,432.055 1007.94,425.777 1033.53,419.694 1059.12,413.807 1084.75,408.105 1110.51,402.566 1136.45,397.181 1162.62,391.938 1189.07,386.83 1215.84,381.852 1242.96,376.999 1270.48,372.268 1298.41,367.655 1326.81,363.159 1355.68,358.779 1385.07,354.513 1415.01,350.36 1445.52,346.32 1476.64,342.392 1508.4,338.575 1540.84,334.871 1573.99,331.277 1607.89,327.794 1642.59,324.421 1678.12,321.158 1714.53,318.005 1751.87,314.961 1790.2,312.026 1829.58,309.2 1870.06,306.48 1911.72,303.868 1954.63,301.362 1998.88,298.962 2044.54,296.667 2091.73,294.475 2140.55,292.386 2191.11,290.399 2243.56,288.513 2298.05,286.726 2298.36,286.716 "/>
<circle clip-path="url(#clip552)" cx="666.375" cy="1205.7" r="14.4" fill="#e26f46" fill-rule="evenodd" fill-opacity="1" stroke="#000000" stroke-opacity="1" stroke-width="3.2"/>
<circle clip-path="url(#clip552)" cx="847.706" cy="1089.83" r="14.4" fill="#e26f46" fill-rule="evenodd" fill-opacity="1" stroke="#000000" stroke-opacity="1" stroke-width="3.2"/>
<circle clip-path="url(#clip552)" cx="1029.04" cy="989.09" r="14.4" fill="#e26f46" fill-rule="evenodd" fill-opacity="1" stroke="#000000" stroke-opacity="1" stroke-width="3.2"/>
<circle clip-path="url(#clip552)" cx="1210.37" cy="938.854" r="14.4" fill="#e26f46" fill-rule="evenodd" fill-opacity="1" stroke="#000000" stroke-opacity="1" stroke-width="3.2"/>
<circle clip-path="url(#clip552)" cx="1391.7" cy="872.535" r="14.4" fill="#e26f46" fill-rule="evenodd" fill-opacity="1" stroke="#000000" stroke-opacity="1" stroke-width="3.2"/>
<circle clip-path="url(#clip552)" cx="1573.03" cy="859.672" r="14.4" fill="#e26f46" fill-rule="evenodd" fill-opacity="1" stroke="#000000" stroke-opacity="1" stroke-width="3.2"/>
<circle clip-path="url(#clip552)" cx="1754.36" cy="805.2" r="14.4" fill="#e26f46" fill-rule="evenodd" fill-opacity="1" stroke="#000000" stroke-opacity="1" stroke-width="3.2"/>
<circle clip-path="url(#clip552)" cx="1935.69" cy="758.383" r="14.4" fill="#e26f46" fill-rule="evenodd" fill-opacity="1" stroke="#000000" stroke-opacity="1" stroke-width="3.2"/>
<circle clip-path="url(#clip552)" cx="2117.03" cy="847.634" r="14.4" fill="#e26f46" fill-rule="evenodd" fill-opacity="1" stroke="#000000" stroke-opacity="1" stroke-width="3.2"/>
<circle clip-path="url(#clip552)" cx="2298.36" cy="815.809" r="14.4" fill="#e26f46" fill-rule="evenodd" fill-opacity="1" stroke="#000000" stroke-opacity="1" stroke-width="3.2"/>
<polyline clip-path="url(#clip552)" style="stroke:#e26f46; stroke-linecap:round; stroke-linejoin:round; stroke-width:4; stroke-opacity:1; fill:none" points="485.044,1271.9 486.433,1271.88 487.823,1271.83 489.577,1271.73 491.473,1271.57 493.62,1271.33 495.94,1270.99 498.457,1270.56 501.144,1270.01 504.003,1269.34 507.023,1268.54 510.203,1267.61 513.541,1266.53 517.036,1265.31 520.69,1263.94 524.505,1262.41 528.484,1260.72 532.633,1258.87 536.957,1256.84 541.464,1254.64 546.162,1252.26 551.061,1249.69 556.171,1246.94 561.503,1243.98 567.072,1240.82 572.891,1237.45 578.977,1233.86 585.348,1230.05 592.025,1226 599.029,1221.71 606.386,1217.16 614.124,1212.35 622.276,1207.25 630.877,1201.87 639.968,1196.18 649.596,1190.16 659.818,1183.8 670.697,1177.06 682.313,1169.93 694.762,1162.36 708.17,1154.3 722.713,1145.69 738.658,1136.4 756.502,1126.22 777.618,1114.46 803.209,1100.64 828.8,1087.29 854.391,1074.42 879.982,1062.01 905.573,1050.05 931.164,1038.54 956.755,1027.47 982.346,1016.81 1007.94,1006.56 1033.53,996.712 1059.12,987.244 1084.75,978.133 1110.51,969.339 1136.45,960.838 1162.62,952.608 1189.07,944.633 1215.84,936.9 1242.96,929.398 1270.48,922.118 1298.41,915.053 1326.81,908.197 1355.68,901.545 1385.07,895.092 1415.01,888.834 1445.52,882.769 1476.64,876.893 1508.4,871.204 1540.84,865.699 1573.99,860.376 1607.89,855.232 1642.59,850.266 1678.12,845.475 1714.53,840.858 1751.87,836.411 1790.2,832.135 1829.58,828.025 1870.06,824.081 1911.72,820.3 1954.63,816.68 1998.88,813.219 2044.54,809.916 2091.73,806.767 2140.55,803.771 2191.11,800.926 2243.56,798.228 2298.05,795.677 2298.36,795.663 "/>
<path clip-path="url(#clip550)" d="M1786.34 1265.95 L2288.69 1265.95 L2288.69 1006.75 L1786.34 1006.75  Z" fill="#ffffff" fill-rule="evenodd" fill-opacity="1"/>
<polyline clip-path="url(#clip550)" style="stroke:#000000; stroke-linecap:round; stroke-linejoin:round; stroke-width:4; stroke-opacity:1; fill:none" points="1786.34,1265.95 2288.69,1265.95 2288.69,1006.75 1786.34,1006.75 1786.34,1265.95 "/>
<circle clip-path="url(#clip550)" cx="1871.76" cy="1058.59" r="20.48" fill="#009af9" fill-rule="evenodd" fill-opacity="1" stroke="#000000" stroke-opacity="1" stroke-width="4.55111"/>
<path clip-path="url(#clip550)" d="M1957.19 1041.31 L1979.04 1041.31 L1979.04 1045.24 L1961.87 1045.24 L1961.87 1055.48 L1978.33 1055.48 L1978.33 1059.41 L1961.87 1059.41 L1961.87 1071.93 L1979.46 1071.93 L1979.46 1075.87 L1957.19 1075.87 L1957.19 1041.31 Z" fill="#000000" fill-rule="nonzero" fill-opacity="1" /><path clip-path="url(#clip550)" d="M2012.26 1039.9 Q2009.16 1045.22 2007.65 1050.43 Q2006.15 1055.64 2006.15 1060.99 Q2006.15 1066.33 2007.65 1071.59 Q2009.18 1076.82 2012.26 1082.12 L2008.56 1082.12 Q2005.08 1076.68 2003.35 1071.43 Q2001.64 1066.17 2001.64 1060.99 Q2001.64 1055.82 2003.35 1050.59 Q2005.06 1045.36 2008.56 1039.9 L2012.26 1039.9 Z" fill="#000000" fill-rule="nonzero" fill-opacity="1" /><path clip-path="url(#clip550)" d="M2040.71 1054.92 Q2042.31 1052.05 2044.53 1050.68 Q2046.75 1049.32 2049.76 1049.32 Q2053.81 1049.32 2056.01 1052.17 Q2058.21 1054.99 2058.21 1060.22 L2058.21 1075.87 L2053.93 1075.87 L2053.93 1060.36 Q2053.93 1056.63 2052.61 1054.83 Q2051.29 1053.02 2048.58 1053.02 Q2045.27 1053.02 2043.35 1055.22 Q2041.43 1057.42 2041.43 1061.22 L2041.43 1075.87 L2037.14 1075.87 L2037.14 1060.36 Q2037.14 1056.61 2035.83 1054.83 Q2034.51 1053.02 2031.75 1053.02 Q2028.49 1053.02 2026.57 1055.24 Q2024.64 1057.44 2024.64 1061.22 L2024.64 1075.87 L2020.36 1075.87 L2020.36 1049.94 L2024.64 1049.94 L2024.64 1053.97 Q2026.1 1051.59 2028.14 1050.45 Q2030.18 1049.32 2032.98 1049.32 Q2035.8 1049.32 2037.77 1050.75 Q2039.76 1052.19 2040.71 1054.92 Z" fill="#000000" fill-rule="nonzero" fill-opacity="1" /><path clip-path="url(#clip550)" d="M2088.88 1061.84 L2088.88 1063.93 L2069.3 1063.93 Q2069.58 1068.32 2071.94 1070.64 Q2074.32 1072.93 2078.56 1072.93 Q2081.01 1072.93 2083.3 1072.33 Q2085.62 1071.73 2087.89 1070.52 L2087.89 1074.55 Q2085.59 1075.52 2083.19 1076.03 Q2080.78 1076.54 2078.3 1076.54 Q2072.1 1076.54 2068.46 1072.93 Q2064.85 1069.32 2064.85 1063.16 Q2064.85 1056.8 2068.28 1053.07 Q2071.73 1049.32 2077.56 1049.32 Q2082.79 1049.32 2085.83 1052.7 Q2088.88 1056.06 2088.88 1061.84 M2084.62 1060.59 Q2084.58 1057.1 2082.65 1055.01 Q2080.76 1052.93 2077.61 1052.93 Q2074.04 1052.93 2071.89 1054.94 Q2069.76 1056.96 2069.44 1060.62 L2084.62 1060.59 Z" fill="#000000" fill-rule="nonzero" fill-opacity="1" /><path clip-path="url(#clip550)" d="M2107.65 1062.84 Q2102.49 1062.84 2100.5 1064.02 Q2098.51 1065.2 2098.51 1068.05 Q2098.51 1070.31 2099.99 1071.66 Q2101.5 1072.98 2104.07 1072.98 Q2107.61 1072.98 2109.74 1070.48 Q2111.89 1067.95 2111.89 1063.79 L2111.89 1062.84 L2107.65 1062.84 M2116.15 1061.08 L2116.15 1075.87 L2111.89 1075.87 L2111.89 1071.93 Q2110.43 1074.3 2108.26 1075.43 Q2106.08 1076.54 2102.93 1076.54 Q2098.95 1076.54 2096.59 1074.32 Q2094.25 1072.07 2094.25 1068.32 Q2094.25 1063.95 2097.17 1061.73 Q2100.11 1059.5 2105.92 1059.5 L2111.89 1059.5 L2111.89 1059.09 Q2111.89 1056.15 2109.95 1054.55 Q2108.02 1052.93 2104.53 1052.93 Q2102.31 1052.93 2100.2 1053.46 Q2098.09 1053.99 2096.15 1055.06 L2096.15 1051.12 Q2098.49 1050.22 2100.69 1049.78 Q2102.89 1049.32 2104.97 1049.32 Q2110.59 1049.32 2113.37 1052.24 Q2116.15 1055.15 2116.15 1061.08 Z" fill="#000000" fill-rule="nonzero" fill-opacity="1" /><path clip-path="url(#clip550)" d="M2141.45 1050.71 L2141.45 1054.74 Q2139.64 1053.81 2137.7 1053.35 Q2135.76 1052.88 2133.67 1052.88 Q2130.5 1052.88 2128.9 1053.86 Q2127.33 1054.83 2127.33 1056.77 Q2127.33 1058.25 2128.46 1059.11 Q2129.6 1059.94 2133.02 1060.71 L2134.48 1061.03 Q2139.02 1062 2140.92 1063.79 Q2142.84 1065.55 2142.84 1068.72 Q2142.84 1072.33 2139.97 1074.43 Q2137.12 1076.54 2132.12 1076.54 Q2130.04 1076.54 2127.77 1076.12 Q2125.52 1075.73 2123.02 1074.92 L2123.02 1070.52 Q2125.39 1071.75 2127.68 1072.37 Q2129.97 1072.98 2132.21 1072.98 Q2135.22 1072.98 2136.84 1071.96 Q2138.46 1070.92 2138.46 1069.04 Q2138.46 1067.3 2137.28 1066.38 Q2136.13 1065.45 2132.17 1064.6 L2130.69 1064.25 Q2126.73 1063.42 2124.97 1061.7 Q2123.21 1059.97 2123.21 1056.96 Q2123.21 1053.3 2125.8 1051.31 Q2128.39 1049.32 2133.16 1049.32 Q2135.52 1049.32 2137.61 1049.67 Q2139.69 1050.01 2141.45 1050.71 Z" fill="#000000" fill-rule="nonzero" fill-opacity="1" /><path clip-path="url(#clip550)" d="M2149.18 1065.64 L2149.18 1049.94 L2153.44 1049.94 L2153.44 1065.48 Q2153.44 1069.16 2154.88 1071.01 Q2156.31 1072.84 2159.18 1072.84 Q2162.63 1072.84 2164.62 1070.64 Q2166.63 1068.44 2166.63 1064.64 L2166.63 1049.94 L2170.89 1049.94 L2170.89 1075.87 L2166.63 1075.87 L2166.63 1071.89 Q2165.08 1074.25 2163.02 1075.41 Q2160.99 1076.54 2158.28 1076.54 Q2153.81 1076.54 2151.5 1073.76 Q2149.18 1070.99 2149.18 1065.64 M2159.9 1049.32 L2159.9 1049.32 Z" fill="#000000" fill-rule="nonzero" fill-opacity="1" /><path clip-path="url(#clip550)" d="M2194.69 1053.93 Q2193.97 1053.51 2193.12 1053.32 Q2192.28 1053.12 2191.26 1053.12 Q2187.65 1053.12 2185.71 1055.48 Q2183.79 1057.81 2183.79 1062.21 L2183.79 1075.87 L2179.51 1075.87 L2179.51 1049.94 L2183.79 1049.94 L2183.79 1053.97 Q2185.13 1051.61 2187.28 1050.48 Q2189.44 1049.32 2192.51 1049.32 Q2192.95 1049.32 2193.49 1049.39 Q2194.02 1049.43 2194.67 1049.55 L2194.69 1053.93 Z" fill="#000000" fill-rule="nonzero" fill-opacity="1" /><path clip-path="url(#clip550)" d="M2220.29 1061.84 L2220.29 1063.93 L2200.71 1063.93 Q2200.99 1068.32 2203.35 1070.64 Q2205.73 1072.93 2209.97 1072.93 Q2212.42 1072.93 2214.71 1072.33 Q2217.03 1071.73 2219.3 1070.52 L2219.3 1074.55 Q2217 1075.52 2214.6 1076.03 Q2212.19 1076.54 2209.71 1076.54 Q2203.51 1076.54 2199.88 1072.93 Q2196.26 1069.32 2196.26 1063.16 Q2196.26 1056.8 2199.69 1053.07 Q2203.14 1049.32 2208.97 1049.32 Q2214.2 1049.32 2217.24 1052.7 Q2220.29 1056.06 2220.29 1061.84 M2216.03 1060.59 Q2215.99 1057.1 2214.07 1055.01 Q2212.17 1052.93 2209.02 1052.93 Q2205.45 1052.93 2203.3 1054.94 Q2201.17 1056.96 2200.85 1060.62 L2216.03 1060.59 Z" fill="#000000" fill-rule="nonzero" fill-opacity="1" /><path clip-path="url(#clip550)" d="M2244.34 1053.88 L2244.34 1039.85 L2248.6 1039.85 L2248.6 1075.87 L2244.34 1075.87 L2244.34 1071.98 Q2243 1074.3 2240.94 1075.43 Q2238.9 1076.54 2236.03 1076.54 Q2231.33 1076.54 2228.37 1072.79 Q2225.43 1069.04 2225.43 1062.93 Q2225.43 1056.82 2228.37 1053.07 Q2231.33 1049.32 2236.03 1049.32 Q2238.9 1049.32 2240.94 1050.45 Q2243 1051.56 2244.34 1053.88 M2229.83 1062.93 Q2229.83 1067.63 2231.75 1070.31 Q2233.69 1072.98 2237.07 1072.98 Q2240.45 1072.98 2242.4 1070.31 Q2244.34 1067.63 2244.34 1062.93 Q2244.34 1058.23 2242.4 1055.57 Q2240.45 1052.88 2237.07 1052.88 Q2233.69 1052.88 2231.75 1055.57 Q2229.83 1058.23 2229.83 1062.93 Z" fill="#000000" fill-rule="nonzero" fill-opacity="1" /><path clip-path="url(#clip550)" d="M2256.7 1039.9 L2260.41 1039.9 Q2263.88 1045.36 2265.59 1050.59 Q2267.33 1055.82 2267.33 1060.99 Q2267.33 1066.17 2265.59 1071.43 Q2263.88 1076.68 2260.41 1082.12 L2256.7 1082.12 Q2259.78 1076.82 2261.29 1071.59 Q2262.81 1066.33 2262.81 1060.99 Q2262.81 1055.64 2261.29 1050.43 Q2259.78 1045.22 2256.7 1039.9 Z" fill="#000000" fill-rule="nonzero" fill-opacity="1" /><polyline clip-path="url(#clip550)" style="stroke:#009af9; stroke-linecap:round; stroke-linejoin:round; stroke-width:4; stroke-opacity:1; fill:none" points="1807.69,1110.43 1935.83,1110.43 "/>
<path clip-path="url(#clip550)" d="M1957.19 1093.15 L1979.04 1093.15 L1979.04 1097.08 L1961.87 1097.08 L1961.87 1107.32 L1978.33 1107.32 L1978.33 1111.25 L1961.87 1111.25 L1961.87 1123.77 L1979.46 1123.77 L1979.46 1127.71 L1957.19 1127.71 L1957.19 1093.15 Z" fill="#000000" fill-rule="nonzero" fill-opacity="1" /><path clip-path="url(#clip550)" d="M2012.26 1091.74 Q2009.16 1097.06 2007.65 1102.27 Q2006.15 1107.48 2006.15 1112.83 Q2006.15 1118.17 2007.65 1123.43 Q2009.18 1128.66 2012.26 1133.96 L2008.56 1133.96 Q2005.08 1128.52 2003.35 1123.27 Q2001.64 1118.01 2001.64 1112.83 Q2001.64 1107.66 2003.35 1102.43 Q2005.06 1097.2 2008.56 1091.74 L2012.26 1091.74 Z" fill="#000000" fill-rule="nonzero" fill-opacity="1" /><path clip-path="url(#clip550)" d="M2033.65 1091.69 L2033.65 1095.23 L2029.58 1095.23 Q2027.28 1095.23 2026.38 1096.16 Q2025.5 1097.08 2025.5 1099.49 L2025.5 1101.78 L2032.52 1101.78 L2032.52 1105.09 L2025.5 1105.09 L2025.5 1127.71 L2021.22 1127.71 L2021.22 1105.09 L2017.14 1105.09 L2017.14 1101.78 L2021.22 1101.78 L2021.22 1099.98 Q2021.22 1095.65 2023.23 1093.68 Q2025.25 1091.69 2029.62 1091.69 L2033.65 1091.69 Z" fill="#000000" fill-rule="nonzero" fill-opacity="1" /><path clip-path="url(#clip550)" d="M2037.21 1101.78 L2041.47 1101.78 L2041.47 1127.71 L2037.21 1127.71 L2037.21 1101.78 M2037.21 1091.69 L2041.47 1091.69 L2041.47 1097.08 L2037.21 1097.08 L2037.21 1091.69 Z" fill="#000000" fill-rule="nonzero" fill-opacity="1" /><path clip-path="url(#clip550)" d="M2054.6 1094.42 L2054.6 1101.78 L2063.37 1101.78 L2063.37 1105.09 L2054.6 1105.09 L2054.6 1119.17 Q2054.6 1122.34 2055.45 1123.24 Q2056.33 1124.14 2059 1124.14 L2063.37 1124.14 L2063.37 1127.71 L2059 1127.71 Q2054.07 1127.71 2052.19 1125.88 Q2050.32 1124.03 2050.32 1119.17 L2050.32 1105.09 L2047.19 1105.09 L2047.19 1101.78 L2050.32 1101.78 L2050.32 1094.42 L2054.6 1094.42 Z" fill="#000000" fill-rule="nonzero" fill-opacity="1" /><path clip-path="url(#clip550)" d="M2073.19 1094.42 L2073.19 1101.78 L2081.96 1101.78 L2081.96 1105.09 L2073.19 1105.09 L2073.19 1119.17 Q2073.19 1122.34 2074.04 1123.24 Q2074.92 1124.14 2077.58 1124.14 L2081.96 1124.14 L2081.96 1127.71 L2077.58 1127.71 Q2072.65 1127.71 2070.78 1125.88 Q2068.9 1124.03 2068.9 1119.17 L2068.9 1105.09 L2065.78 1105.09 L2065.78 1101.78 L2068.9 1101.78 L2068.9 1094.42 L2073.19 1094.42 Z" fill="#000000" fill-rule="nonzero" fill-opacity="1" /><path clip-path="url(#clip550)" d="M2109.74 1113.68 L2109.74 1115.77 L2090.15 1115.77 Q2090.43 1120.16 2092.79 1122.48 Q2095.18 1124.77 2099.41 1124.77 Q2101.87 1124.77 2104.16 1124.17 Q2106.47 1123.57 2108.74 1122.36 L2108.74 1126.39 Q2106.45 1127.36 2104.04 1127.87 Q2101.64 1128.38 2099.16 1128.38 Q2092.95 1128.38 2089.32 1124.77 Q2085.71 1121.16 2085.71 1115 Q2085.71 1108.64 2089.14 1104.91 Q2092.58 1101.16 2098.42 1101.16 Q2103.65 1101.16 2106.68 1104.54 Q2109.74 1107.9 2109.74 1113.68 M2105.48 1112.43 Q2105.43 1108.94 2103.51 1106.85 Q2101.61 1104.77 2098.46 1104.77 Q2094.9 1104.77 2092.75 1106.78 Q2090.62 1108.8 2090.29 1112.46 L2105.48 1112.43 Z" fill="#000000" fill-rule="nonzero" fill-opacity="1" /><path clip-path="url(#clip550)" d="M2133.79 1105.72 L2133.79 1091.69 L2138.05 1091.69 L2138.05 1127.71 L2133.79 1127.71 L2133.79 1123.82 Q2132.45 1126.14 2130.39 1127.27 Q2128.35 1128.38 2125.48 1128.38 Q2120.78 1128.38 2117.82 1124.63 Q2114.88 1120.88 2114.88 1114.77 Q2114.88 1108.66 2117.82 1104.91 Q2120.78 1101.16 2125.48 1101.16 Q2128.35 1101.16 2130.39 1102.29 Q2132.45 1103.4 2133.79 1105.72 M2119.27 1114.77 Q2119.27 1119.47 2121.2 1122.15 Q2123.14 1124.82 2126.52 1124.82 Q2129.9 1124.82 2131.84 1122.15 Q2133.79 1119.47 2133.79 1114.77 Q2133.79 1110.07 2131.84 1107.41 Q2129.9 1104.72 2126.52 1104.72 Q2123.14 1104.72 2121.2 1107.41 Q2119.27 1110.07 2119.27 1114.77 Z" fill="#000000" fill-rule="nonzero" fill-opacity="1" /><path clip-path="url(#clip550)" d="M2146.15 1091.74 L2149.85 1091.74 Q2153.32 1097.2 2155.04 1102.43 Q2156.77 1107.66 2156.77 1112.83 Q2156.77 1118.01 2155.04 1123.27 Q2153.32 1128.52 2149.85 1133.96 L2146.15 1133.96 Q2149.23 1128.66 2150.73 1123.43 Q2152.26 1118.17 2152.26 1112.83 Q2152.26 1107.48 2150.73 1102.27 Q2149.23 1097.06 2146.15 1091.74 Z" fill="#000000" fill-rule="nonzero" fill-opacity="1" /><circle clip-path="url(#clip550)" cx="1871.76" cy="1162.27" r="20.48" fill="#e26f46" fill-rule="evenodd" fill-opacity="1" stroke="#000000" stroke-opacity="1" stroke-width="4.55111"/>
<path clip-path="url(#clip550)" d="M1957.19 1144.99 L1979.04 1144.99 L1979.04 1148.92 L1961.87 1148.92 L1961.87 1159.16 L1978.33 1159.16 L1978.33 1163.09 L1961.87 1163.09 L1961.87 1175.61 L1979.46 1175.61 L1979.46 1179.55 L1957.19 1179.55 L1957.19 1144.99 Z" fill="#000000" fill-rule="nonzero" fill-opacity="1" /><path clip-path="url(#clip550)" d="M2012.26 1143.58 Q2009.16 1148.9 2007.65 1154.11 Q2006.15 1159.32 2006.15 1164.67 Q2006.15 1170.01 2007.65 1175.27 Q2009.18 1180.5 2012.26 1185.8 L2008.56 1185.8 Q2005.08 1180.36 2003.35 1175.11 Q2001.64 1169.85 2001.64 1164.67 Q2001.64 1159.5 2003.35 1154.27 Q2005.06 1149.04 2008.56 1143.58 L2012.26 1143.58 Z" fill="#000000" fill-rule="nonzero" fill-opacity="1" /><path clip-path="url(#clip550)" d="M2040.71 1158.6 Q2042.31 1155.73 2044.53 1154.36 Q2046.75 1153 2049.76 1153 Q2053.81 1153 2056.01 1155.85 Q2058.21 1158.67 2058.21 1163.9 L2058.21 1179.55 L2053.93 1179.55 L2053.93 1164.04 Q2053.93 1160.31 2052.61 1158.51 Q2051.29 1156.7 2048.58 1156.7 Q2045.27 1156.7 2043.35 1158.9 Q2041.43 1161.1 2041.43 1164.9 L2041.43 1179.55 L2037.14 1179.55 L2037.14 1164.04 Q2037.14 1160.29 2035.83 1158.51 Q2034.51 1156.7 2031.75 1156.7 Q2028.49 1156.7 2026.57 1158.92 Q2024.64 1161.12 2024.64 1164.9 L2024.64 1179.55 L2020.36 1179.55 L2020.36 1153.62 L2024.64 1153.62 L2024.64 1157.65 Q2026.1 1155.27 2028.14 1154.13 Q2030.18 1153 2032.98 1153 Q2035.8 1153 2037.77 1154.43 Q2039.76 1155.87 2040.71 1158.6 Z" fill="#000000" fill-rule="nonzero" fill-opacity="1" /><path clip-path="url(#clip550)" d="M2088.88 1165.52 L2088.88 1167.61 L2069.3 1167.61 Q2069.58 1172 2071.94 1174.32 Q2074.32 1176.61 2078.56 1176.61 Q2081.01 1176.61 2083.3 1176.01 Q2085.62 1175.41 2087.89 1174.2 L2087.89 1178.23 Q2085.59 1179.2 2083.19 1179.71 Q2080.78 1180.22 2078.3 1180.22 Q2072.1 1180.22 2068.46 1176.61 Q2064.85 1173 2064.85 1166.84 Q2064.85 1160.48 2068.28 1156.75 Q2071.73 1153 2077.56 1153 Q2082.79 1153 2085.83 1156.38 Q2088.88 1159.74 2088.88 1165.52 M2084.62 1164.27 Q2084.58 1160.78 2082.65 1158.69 Q2080.76 1156.61 2077.61 1156.61 Q2074.04 1156.61 2071.89 1158.62 Q2069.76 1160.64 2069.44 1164.3 L2084.62 1164.27 Z" fill="#000000" fill-rule="nonzero" fill-opacity="1" /><path clip-path="url(#clip550)" d="M2107.65 1166.52 Q2102.49 1166.52 2100.5 1167.7 Q2098.51 1168.88 2098.51 1171.73 Q2098.51 1173.99 2099.99 1175.34 Q2101.5 1176.66 2104.07 1176.66 Q2107.61 1176.66 2109.74 1174.16 Q2111.89 1171.63 2111.89 1167.47 L2111.89 1166.52 L2107.65 1166.52 M2116.15 1164.76 L2116.15 1179.55 L2111.89 1179.55 L2111.89 1175.61 Q2110.43 1177.98 2108.26 1179.11 Q2106.08 1180.22 2102.93 1180.22 Q2098.95 1180.22 2096.59 1178 Q2094.25 1175.75 2094.25 1172 Q2094.25 1167.63 2097.17 1165.41 Q2100.11 1163.18 2105.92 1163.18 L2111.89 1163.18 L2111.89 1162.77 Q2111.89 1159.83 2109.95 1158.23 Q2108.02 1156.61 2104.53 1156.61 Q2102.31 1156.61 2100.2 1157.14 Q2098.09 1157.67 2096.15 1158.74 L2096.15 1154.8 Q2098.49 1153.9 2100.69 1153.46 Q2102.89 1153 2104.97 1153 Q2110.59 1153 2113.37 1155.92 Q2116.15 1158.83 2116.15 1164.76 Z" fill="#000000" fill-rule="nonzero" fill-opacity="1" /><path clip-path="url(#clip550)" d="M2141.45 1154.39 L2141.45 1158.42 Q2139.64 1157.49 2137.7 1157.03 Q2135.76 1156.56 2133.67 1156.56 Q2130.5 1156.56 2128.9 1157.54 Q2127.33 1158.51 2127.33 1160.45 Q2127.33 1161.93 2128.46 1162.79 Q2129.6 1163.62 2133.02 1164.39 L2134.48 1164.71 Q2139.02 1165.68 2140.92 1167.47 Q2142.84 1169.23 2142.84 1172.4 Q2142.84 1176.01 2139.97 1178.11 Q2137.12 1180.22 2132.12 1180.22 Q2130.04 1180.22 2127.77 1179.8 Q2125.52 1179.41 2123.02 1178.6 L2123.02 1174.2 Q2125.39 1175.43 2127.68 1176.05 Q2129.97 1176.66 2132.21 1176.66 Q2135.22 1176.66 2136.84 1175.64 Q2138.46 1174.6 2138.46 1172.72 Q2138.46 1170.98 2137.28 1170.06 Q2136.13 1169.13 2132.17 1168.28 L2130.69 1167.93 Q2126.73 1167.1 2124.97 1165.38 Q2123.21 1163.65 2123.21 1160.64 Q2123.21 1156.98 2125.8 1154.99 Q2128.39 1153 2133.16 1153 Q2135.52 1153 2137.61 1153.35 Q2139.69 1153.69 2141.45 1154.39 Z" fill="#000000" fill-rule="nonzero" fill-opacity="1" /><path clip-path="url(#clip550)" d="M2149.18 1169.32 L2149.18 1153.62 L2153.44 1153.62 L2153.44 1169.16 Q2153.44 1172.84 2154.88 1174.69 Q2156.31 1176.52 2159.18 1176.52 Q2162.63 1176.52 2164.62 1174.32 Q2166.63 1172.12 2166.63 1168.32 L2166.63 1153.62 L2170.89 1153.62 L2170.89 1179.55 L2166.63 1179.55 L2166.63 1175.57 Q2165.08 1177.93 2163.02 1179.09 Q2160.99 1180.22 2158.28 1180.22 Q2153.81 1180.22 2151.5 1177.44 Q2149.18 1174.67 2149.18 1169.32 M2159.9 1153 L2159.9 1153 Z" fill="#000000" fill-rule="nonzero" fill-opacity="1" /><path clip-path="url(#clip550)" d="M2194.69 1157.61 Q2193.97 1157.19 2193.12 1157 Q2192.28 1156.8 2191.26 1156.8 Q2187.65 1156.8 2185.71 1159.16 Q2183.79 1161.49 2183.79 1165.89 L2183.79 1179.55 L2179.51 1179.55 L2179.51 1153.62 L2183.79 1153.62 L2183.79 1157.65 Q2185.13 1155.29 2187.28 1154.16 Q2189.44 1153 2192.51 1153 Q2192.95 1153 2193.49 1153.07 Q2194.02 1153.11 2194.67 1153.23 L2194.69 1157.61 Z" fill="#000000" fill-rule="nonzero" fill-opacity="1" /><path clip-path="url(#clip550)" d="M2220.29 1165.52 L2220.29 1167.61 L2200.71 1167.61 Q2200.99 1172 2203.35 1174.32 Q2205.73 1176.61 2209.97 1176.61 Q2212.42 1176.61 2214.71 1176.01 Q2217.03 1175.41 2219.3 1174.2 L2219.3 1178.23 Q2217 1179.2 2214.6 1179.71 Q2212.19 1180.22 2209.71 1180.22 Q2203.51 1180.22 2199.88 1176.61 Q2196.26 1173 2196.26 1166.84 Q2196.26 1160.48 2199.69 1156.75 Q2203.14 1153 2208.97 1153 Q2214.2 1153 2217.24 1156.38 Q2220.29 1159.74 2220.29 1165.52 M2216.03 1164.27 Q2215.99 1160.78 2214.07 1158.69 Q2212.17 1156.61 2209.02 1156.61 Q2205.45 1156.61 2203.3 1158.62 Q2201.17 1160.64 2200.85 1164.3 L2216.03 1164.27 Z" fill="#000000" fill-rule="nonzero" fill-opacity="1" /><path clip-path="url(#clip550)" d="M2244.34 1157.56 L2244.34 1143.53 L2248.6 1143.53 L2248.6 1179.55 L2244.34 1179.55 L2244.34 1175.66 Q2243 1177.98 2240.94 1179.11 Q2238.9 1180.22 2236.03 1180.22 Q2231.33 1180.22 2228.37 1176.47 Q2225.43 1172.72 2225.43 1166.61 Q2225.43 1160.5 2228.37 1156.75 Q2231.33 1153 2236.03 1153 Q2238.9 1153 2240.94 1154.13 Q2243 1155.24 2244.34 1157.56 M2229.83 1166.61 Q2229.83 1171.31 2231.75 1173.99 Q2233.69 1176.66 2237.07 1176.66 Q2240.45 1176.66 2242.4 1173.99 Q2244.34 1171.31 2244.34 1166.61 Q2244.34 1161.91 2242.4 1159.25 Q2240.45 1156.56 2237.07 1156.56 Q2233.69 1156.56 2231.75 1159.25 Q2229.83 1161.91 2229.83 1166.61 Z" fill="#000000" fill-rule="nonzero" fill-opacity="1" /><path clip-path="url(#clip550)" d="M2256.7 1143.58 L2260.41 1143.58 Q2263.88 1149.04 2265.59 1154.27 Q2267.33 1159.5 2267.33 1164.67 Q2267.33 1169.85 2265.59 1175.11 Q2263.88 1180.36 2260.41 1185.8 L2256.7 1185.8 Q2259.78 1180.5 2261.29 1175.27 Q2262.81 1170.01 2262.81 1164.67 Q2262.81 1159.32 2261.29 1154.11 Q2259.78 1148.9 2256.7 1143.58 Z" fill="#000000" fill-rule="nonzero" fill-opacity="1" /><polyline clip-path="url(#clip550)" style="stroke:#e26f46; stroke-linecap:round; stroke-linejoin:round; stroke-width:4; stroke-opacity:1; fill:none" points="1807.69,1214.11 1935.83,1214.11 "/>
<path clip-path="url(#clip550)" d="M1957.19 1196.83 L1979.04 1196.83 L1979.04 1200.76 L1961.87 1200.76 L1961.87 1211 L1978.33 1211 L1978.33 1214.93 L1961.87 1214.93 L1961.87 1227.45 L1979.46 1227.45 L1979.46 1231.39 L1957.19 1231.39 L1957.19 1196.83 Z" fill="#000000" fill-rule="nonzero" fill-opacity="1" /><path clip-path="url(#clip550)" d="M2012.26 1195.42 Q2009.16 1200.74 2007.65 1205.95 Q2006.15 1211.16 2006.15 1216.51 Q2006.15 1221.85 2007.65 1227.11 Q2009.18 1232.34 2012.26 1237.64 L2008.56 1237.64 Q2005.08 1232.2 2003.35 1226.95 Q2001.64 1221.69 2001.64 1216.51 Q2001.64 1211.34 2003.35 1206.11 Q2005.06 1200.88 2008.56 1195.42 L2012.26 1195.42 Z" fill="#000000" fill-rule="nonzero" fill-opacity="1" /><path clip-path="url(#clip550)" d="M2033.65 1195.37 L2033.65 1198.91 L2029.58 1198.91 Q2027.28 1198.91 2026.38 1199.84 Q2025.5 1200.76 2025.5 1203.17 L2025.5 1205.46 L2032.52 1205.46 L2032.52 1208.77 L2025.5 1208.77 L2025.5 1231.39 L2021.22 1231.39 L2021.22 1208.77 L2017.14 1208.77 L2017.14 1205.46 L2021.22 1205.46 L2021.22 1203.66 Q2021.22 1199.33 2023.23 1197.36 Q2025.25 1195.37 2029.62 1195.37 L2033.65 1195.37 Z" fill="#000000" fill-rule="nonzero" fill-opacity="1" /><path clip-path="url(#clip550)" d="M2037.21 1205.46 L2041.47 1205.46 L2041.47 1231.39 L2037.21 1231.39 L2037.21 1205.46 M2037.21 1195.37 L2041.47 1195.37 L2041.47 1200.76 L2037.21 1200.76 L2037.21 1195.37 Z" fill="#000000" fill-rule="nonzero" fill-opacity="1" /><path clip-path="url(#clip550)" d="M2054.6 1198.1 L2054.6 1205.46 L2063.37 1205.46 L2063.37 1208.77 L2054.6 1208.77 L2054.6 1222.85 Q2054.6 1226.02 2055.45 1226.92 Q2056.33 1227.82 2059 1227.82 L2063.37 1227.82 L2063.37 1231.39 L2059 1231.39 Q2054.07 1231.39 2052.19 1229.56 Q2050.32 1227.71 2050.32 1222.85 L2050.32 1208.77 L2047.19 1208.77 L2047.19 1205.46 L2050.32 1205.46 L2050.32 1198.1 L2054.6 1198.1 Z" fill="#000000" fill-rule="nonzero" fill-opacity="1" /><path clip-path="url(#clip550)" d="M2073.19 1198.1 L2073.19 1205.46 L2081.96 1205.46 L2081.96 1208.77 L2073.19 1208.77 L2073.19 1222.85 Q2073.19 1226.02 2074.04 1226.92 Q2074.92 1227.82 2077.58 1227.82 L2081.96 1227.82 L2081.96 1231.39 L2077.58 1231.39 Q2072.65 1231.39 2070.78 1229.56 Q2068.9 1227.71 2068.9 1222.85 L2068.9 1208.77 L2065.78 1208.77 L2065.78 1205.46 L2068.9 1205.46 L2068.9 1198.1 L2073.19 1198.1 Z" fill="#000000" fill-rule="nonzero" fill-opacity="1" /><path clip-path="url(#clip550)" d="M2109.74 1217.36 L2109.74 1219.45 L2090.15 1219.45 Q2090.43 1223.84 2092.79 1226.16 Q2095.18 1228.45 2099.41 1228.45 Q2101.87 1228.45 2104.16 1227.85 Q2106.47 1227.25 2108.74 1226.04 L2108.74 1230.07 Q2106.45 1231.04 2104.04 1231.55 Q2101.64 1232.06 2099.16 1232.06 Q2092.95 1232.06 2089.32 1228.45 Q2085.71 1224.84 2085.71 1218.68 Q2085.71 1212.32 2089.14 1208.59 Q2092.58 1204.84 2098.42 1204.84 Q2103.65 1204.84 2106.68 1208.22 Q2109.74 1211.58 2109.74 1217.36 M2105.48 1216.11 Q2105.43 1212.62 2103.51 1210.53 Q2101.61 1208.45 2098.46 1208.45 Q2094.9 1208.45 2092.75 1210.46 Q2090.62 1212.48 2090.29 1216.14 L2105.48 1216.11 Z" fill="#000000" fill-rule="nonzero" fill-opacity="1" /><path clip-path="url(#clip550)" d="M2133.79 1209.4 L2133.79 1195.37 L2138.05 1195.37 L2138.05 1231.39 L2133.79 1231.39 L2133.79 1227.5 Q2132.45 1229.82 2130.39 1230.95 Q2128.35 1232.06 2125.48 1232.06 Q2120.78 1232.06 2117.82 1228.31 Q2114.88 1224.56 2114.88 1218.45 Q2114.88 1212.34 2117.82 1208.59 Q2120.78 1204.84 2125.48 1204.84 Q2128.35 1204.84 2130.39 1205.97 Q2132.45 1207.08 2133.79 1209.4 M2119.27 1218.45 Q2119.27 1223.15 2121.2 1225.83 Q2123.14 1228.5 2126.52 1228.5 Q2129.9 1228.5 2131.84 1225.83 Q2133.79 1223.15 2133.79 1218.45 Q2133.79 1213.75 2131.84 1211.09 Q2129.9 1208.4 2126.52 1208.4 Q2123.14 1208.4 2121.2 1211.09 Q2119.27 1213.75 2119.27 1218.45 Z" fill="#000000" fill-rule="nonzero" fill-opacity="1" /><path clip-path="url(#clip550)" d="M2146.15 1195.42 L2149.85 1195.42 Q2153.32 1200.88 2155.04 1206.11 Q2156.77 1211.34 2156.77 1216.51 Q2156.77 1221.69 2155.04 1226.95 Q2153.32 1232.2 2149.85 1237.64 L2146.15 1237.64 Q2149.23 1232.34 2150.73 1227.11 Q2152.26 1221.85 2152.26 1216.51 Q2152.26 1211.16 2150.73 1205.95 Q2149.23 1200.74 2146.15 1195.42 Z" fill="#000000" fill-rule="nonzero" fill-opacity="1" /></svg>
