<?xml version="1.0" encoding="utf-8"?>
<svg xmlns="http://www.w3.org/2000/svg" xmlns:xlink="http://www.w3.org/1999/xlink" width="600" height="400" viewBox="0 0 2400 1600">
<defs>
  <clipPath id="clip490">
    <rect x="0" y="0" width="2400" height="1600"/>
  </clipPath>
</defs>
<path clip-path="url(#clip490)" d="M0 1600 L2400 1600 L2400 0 L0 0  Z" fill="#ffffff" fill-rule="evenodd" fill-opacity="1"/>
<defs>
  <clipPath id="clip491">
    <rect x="480" y="0" width="1681" height="1600"/>
  </clipPath>
</defs>
<path clip-path="url(#clip490)" d="M430.644 1305.35 L2352.76 1305.35 L2352.76 123.472 L430.644 123.472  Z" fill="#ffffff" fill-rule="evenodd" fill-opacity="1"/>
<defs>
  <clipPath id="clip492">
    <rect x="430" y="123" width="1923" height="1183"/>
  </clipPath>
</defs>
<polyline clip-path="url(#clip492)" style="stroke:#000000; stroke-linecap:round; stroke-linejoin:round; stroke-width:2; stroke-opacity:0.1; fill:none" points="485.044,1305.35 485.044,123.472 "/>
<polyline clip-path="url(#clip492)" style="stroke:#000000; stroke-linecap:round; stroke-linejoin:round; stroke-width:2; stroke-opacity:0.1; fill:none" points="938.372,1305.35 938.372,123.472 "/>
<polyline clip-path="url(#clip492)" style="stroke:#000000; stroke-linecap:round; stroke-linejoin:round; stroke-width:2; stroke-opacity:0.1; fill:none" points="1391.7,1305.35 1391.7,123.472 "/>
<polyline clip-path="url(#clip492)" style="stroke:#000000; stroke-linecap:round; stroke-linejoin:round; stroke-width:2; stroke-opacity:0.1; fill:none" points="1845.03,1305.35 1845.03,123.472 "/>
<polyline clip-path="url(#clip492)" style="stroke:#000000; stroke-linecap:round; stroke-linejoin:round; stroke-width:2; stroke-opacity:0.1; fill:none" points="2298.36,1305.35 2298.36,123.472 "/>
<polyline clip-path="url(#clip490)" style="stroke:#000000; stroke-linecap:round; stroke-linejoin:round; stroke-width:4; stroke-opacity:1; fill:none" points="430.644,1305.35 2352.76,1305.35 "/>
<polyline clip-path="url(#clip490)" style="stroke:#000000; stroke-linecap:round; stroke-linejoin:round; stroke-width:4; stroke-opacity:1; fill:none" points="485.044,1305.35 485.044,1286.45 "/>
<polyline clip-path="url(#clip490)" style="stroke:#000000; stroke-linecap:round; stroke-linejoin:round; stroke-width:4; stroke-opacity:1; fill:none" points="938.372,1305.35 938.372,1286.45 "/>
<polyline clip-path="url(#clip490)" style="stroke:#000000; stroke-linecap:round; stroke-linejoin:round; stroke-width:4; stroke-opacity:1; fill:none" points="1391.7,1305.35 1391.7,1286.45 "/>
<polyline clip-path="url(#clip490)" style="stroke:#000000; stroke-linecap:round; stroke-linejoin:round; stroke-width:4; stroke-opacity:1; fill:none" points="1845.03,1305.35 1845.03,1286.45 "/>
<polyline clip-path="url(#clip490)" style="stroke:#000000; stroke-linecap:round; stroke-linejoin:round; stroke-width:4; stroke-opacity:1; fill:none" points="2298.36,1305.35 2298.36,1286.45 "/>
<path clip-path="url(#clip490)" d="M462.428 1336.26 Q458.817 1336.26 456.988 1339.83 Q455.183 1343.37 455.183 1350.5 Q455.183 1357.61 456.988 1361.17 Q458.817 1364.71 462.428 1364.71 Q466.062 1364.71 467.868 1361.17 Q469.697 1357.61 469.697 1350.5 Q469.697 1343.37 467.868 1339.83 Q466.062 1336.26 462.428 1336.26 M462.428 1332.56 Q468.238 1332.56 471.294 1337.17 Q474.373 1341.75 474.373 1350.5 Q474.373 1359.23 471.294 1363.83 Q468.238 1368.42 462.428 1368.42 Q456.618 1368.42 453.539 1363.83 Q450.484 1359.23 450.484 1350.5 Q450.484 1341.75 453.539 1337.17 Q456.618 1332.56 462.428 1332.56 Z" fill="#000000" fill-rule="nonzero" fill-opacity="1" /><path clip-path="url(#clip490)" d="M482.59 1361.87 L487.474 1361.87 L487.474 1367.75 L482.59 1367.75 L482.59 1361.87 Z" fill="#000000" fill-rule="nonzero" fill-opacity="1" /><path clip-path="url(#clip490)" d="M507.659 1336.26 Q504.048 1336.26 502.22 1339.83 Q500.414 1343.37 500.414 1350.5 Q500.414 1357.61 502.22 1361.17 Q504.048 1364.71 507.659 1364.71 Q511.294 1364.71 513.099 1361.17 Q514.928 1357.61 514.928 1350.5 Q514.928 1343.37 513.099 1339.83 Q511.294 1336.26 507.659 1336.26 M507.659 1332.56 Q513.47 1332.56 516.525 1337.17 Q519.604 1341.75 519.604 1350.5 Q519.604 1359.23 516.525 1363.83 Q513.47 1368.42 507.659 1368.42 Q501.849 1368.42 498.771 1363.83 Q495.715 1359.23 495.715 1350.5 Q495.715 1341.75 498.771 1337.17 Q501.849 1332.56 507.659 1332.56 Z" fill="#000000" fill-rule="nonzero" fill-opacity="1" /><path clip-path="url(#clip490)" d="M910.108 1363.81 L926.428 1363.81 L926.428 1367.75 L904.483 1367.75 L904.483 1363.81 Q907.145 1361.06 911.729 1356.43 Q916.335 1351.77 917.516 1350.43 Q919.761 1347.91 920.641 1346.17 Q921.543 1344.41 921.543 1342.72 Q921.543 1339.97 919.599 1338.23 Q917.678 1336.5 914.576 1336.5 Q912.377 1336.5 909.923 1337.26 Q907.492 1338.02 904.715 1339.57 L904.715 1334.85 Q907.539 1333.72 909.992 1333.14 Q912.446 1332.56 914.483 1332.56 Q919.854 1332.56 923.048 1335.25 Q926.242 1337.93 926.242 1342.42 Q926.242 1344.55 925.432 1346.47 Q924.645 1348.37 922.539 1350.96 Q921.96 1351.63 918.858 1354.85 Q915.756 1358.05 910.108 1363.81 Z" fill="#000000" fill-rule="nonzero" fill-opacity="1" /><path clip-path="url(#clip490)" d="M936.242 1361.87 L941.127 1361.87 L941.127 1367.75 L936.242 1367.75 L936.242 1361.87 Z" fill="#000000" fill-rule="nonzero" fill-opacity="1" /><path clip-path="url(#clip490)" d="M951.358 1333.19 L969.714 1333.19 L969.714 1337.12 L955.64 1337.12 L955.64 1345.59 Q956.659 1345.25 957.677 1345.08 Q958.696 1344.9 959.714 1344.9 Q965.501 1344.9 968.881 1348.07 Q972.261 1351.24 972.261 1356.66 Q972.261 1362.24 968.788 1365.34 Q965.316 1368.42 958.997 1368.42 Q956.821 1368.42 954.552 1368.05 Q952.307 1367.68 949.9 1366.94 L949.9 1362.24 Q951.983 1363.37 954.205 1363.93 Q956.427 1364.48 958.904 1364.48 Q962.909 1364.48 965.247 1362.38 Q967.585 1360.27 967.585 1356.66 Q967.585 1353.05 965.247 1350.94 Q962.909 1348.83 958.904 1348.83 Q957.029 1348.83 955.154 1349.25 Q953.302 1349.67 951.358 1350.55 L951.358 1333.19 Z" fill="#000000" fill-rule="nonzero" fill-opacity="1" /><path clip-path="url(#clip490)" d="M1358.86 1333.19 L1377.22 1333.19 L1377.22 1337.12 L1363.15 1337.12 L1363.15 1345.59 Q1364.17 1345.25 1365.18 1345.08 Q1366.2 1344.9 1367.22 1344.9 Q1373.01 1344.9 1376.39 1348.07 Q1379.77 1351.24 1379.77 1356.66 Q1379.77 1362.24 1376.3 1365.34 Q1372.82 1368.42 1366.5 1368.42 Q1364.33 1368.42 1362.06 1368.05 Q1359.81 1367.68 1357.41 1366.94 L1357.41 1362.24 Q1359.49 1363.37 1361.71 1363.93 Q1363.93 1364.48 1366.41 1364.48 Q1370.42 1364.48 1372.75 1362.38 Q1375.09 1360.27 1375.09 1356.66 Q1375.09 1353.05 1372.75 1350.94 Q1370.42 1348.83 1366.41 1348.83 Q1364.54 1348.83 1362.66 1349.25 Q1360.81 1349.67 1358.86 1350.55 L1358.86 1333.19 Z" fill="#000000" fill-rule="nonzero" fill-opacity="1" /><path clip-path="url(#clip490)" d="M1388.98 1361.87 L1393.86 1361.87 L1393.86 1367.75 L1388.98 1367.75 L1388.98 1361.87 Z" fill="#000000" fill-rule="nonzero" fill-opacity="1" /><path clip-path="url(#clip490)" d="M1414.05 1336.26 Q1410.44 1336.26 1408.61 1339.83 Q1406.8 1343.37 1406.8 1350.5 Q1406.8 1357.61 1408.61 1361.17 Q1410.44 1364.71 1414.05 1364.71 Q1417.68 1364.71 1419.49 1361.17 Q1421.32 1357.61 1421.32 1350.5 Q1421.32 1343.37 1419.49 1339.83 Q1417.68 1336.26 1414.05 1336.26 M1414.05 1332.56 Q1419.86 1332.56 1422.92 1337.17 Q1425.99 1341.75 1425.99 1350.5 Q1425.99 1359.23 1422.92 1363.83 Q1419.86 1368.42 1414.05 1368.42 Q1408.24 1368.42 1405.16 1363.83 Q1402.11 1359.23 1402.11 1350.5 Q1402.11 1341.75 1405.16 1337.17 Q1408.24 1332.56 1414.05 1332.56 Z" fill="#000000" fill-rule="nonzero" fill-opacity="1" /><path clip-path="url(#clip490)" d="M1811.35 1333.19 L1833.57 1333.19 L1833.57 1335.18 L1821.02 1367.75 L1816.14 1367.75 L1827.95 1337.12 L1811.35 1337.12 L1811.35 1333.19 Z" fill="#000000" fill-rule="nonzero" fill-opacity="1" /><path clip-path="url(#clip490)" d="M1842.69 1361.87 L1847.57 1361.87 L1847.57 1367.75 L1842.69 1367.75 L1842.69 1361.87 Z" fill="#000000" fill-rule="nonzero" fill-opacity="1" /><path clip-path="url(#clip490)" d="M1857.81 1333.19 L1876.16 1333.19 L1876.16 1337.12 L1862.09 1337.12 L1862.09 1345.59 Q1863.11 1345.25 1864.13 1345.08 Q1865.14 1344.9 1866.16 1344.9 Q1871.95 1344.9 1875.33 1348.07 Q1878.71 1351.24 1878.71 1356.66 Q1878.71 1362.24 1875.24 1365.34 Q1871.76 1368.42 1865.44 1368.42 Q1863.27 1368.42 1861 1368.05 Q1858.76 1367.68 1856.35 1366.94 L1856.35 1362.24 Q1858.43 1363.37 1860.65 1363.93 Q1862.88 1364.48 1865.35 1364.48 Q1869.36 1364.48 1871.69 1362.38 Q1874.03 1360.27 1874.03 1356.66 Q1874.03 1353.05 1871.69 1350.94 Q1869.36 1348.83 1865.35 1348.83 Q1863.48 1348.83 1861.6 1349.25 Q1859.75 1349.67 1857.81 1350.55 L1857.81 1333.19 Z" fill="#000000" fill-rule="nonzero" fill-opacity="1" /><path clip-path="url(#clip490)" d="M2250.43 1363.81 L2258.07 1363.81 L2258.07 1337.44 L2249.76 1339.11 L2249.76 1334.85 L2258.02 1333.19 L2262.7 1333.19 L2262.7 1363.81 L2270.34 1363.81 L2270.34 1367.75 L2250.43 1367.75 L2250.43 1363.81 Z" fill="#000000" fill-rule="nonzero" fill-opacity="1" /><path clip-path="url(#clip490)" d="M2289.78 1336.26 Q2286.17 1336.26 2284.34 1339.83 Q2282.53 1343.37 2282.53 1350.5 Q2282.53 1357.61 2284.34 1361.17 Q2286.17 1364.71 2289.78 1364.71 Q2293.41 1364.71 2295.22 1361.17 Q2297.05 1357.61 2297.05 1350.5 Q2297.05 1343.37 2295.22 1339.83 Q2293.41 1336.26 2289.78 1336.26 M2289.78 1332.56 Q2295.59 1332.56 2298.65 1337.17 Q2301.72 1341.75 2301.72 1350.5 Q2301.72 1359.23 2298.65 1363.83 Q2295.59 1368.42 2289.78 1368.42 Q2283.97 1368.42 2280.89 1363.83 Q2277.84 1359.23 2277.84 1350.5 Q2277.84 1341.75 2280.89 1337.17 Q2283.97 1332.56 2289.78 1332.56 Z" fill="#000000" fill-rule="nonzero" fill-opacity="1" /><path clip-path="url(#clip490)" d="M2309.94 1361.87 L2314.83 1361.87 L2314.83 1367.75 L2309.94 1367.75 L2309.94 1361.87 Z" fill="#000000" fill-rule="nonzero" fill-opacity="1" /><path clip-path="url(#clip490)" d="M2335.01 1336.26 Q2331.4 1336.26 2329.57 1339.83 Q2327.77 1343.37 2327.77 1350.5 Q2327.77 1357.61 2329.57 1361.17 Q2331.4 1364.71 2335.01 1364.71 Q2338.65 1364.71 2340.45 1361.17 Q2342.28 1357.61 2342.28 1350.5 Q2342.28 1343.37 2340.45 1339.83 Q2338.65 1336.26 2335.01 1336.26 M2335.01 1332.56 Q2340.82 1332.56 2343.88 1337.17 Q2346.96 1341.75 2346.96 1350.5 Q2346.96 1359.23 2343.88 1363.83 Q2340.82 1368.42 2335.01 1368.42 Q2329.2 1368.42 2326.12 1363.83 Q2323.07 1359.23 2323.07 1350.5 Q2323.07 1341.75 2326.12 1337.17 Q2329.2 1332.56 2335.01 1332.56 Z" fill="#000000" fill-rule="nonzero" fill-opacity="1" /><polyline clip-path="url(#clip492)" style="stroke:#000000; stroke-linecap:round; stroke-linejoin:round; stroke-width:2; stroke-opacity:0.1; fill:none" points="430.644,1271.9 2352.76,1271.9 "/>
<polyline clip-path="url(#clip492)" style="stroke:#000000; stroke-linecap:round; stroke-linejoin:round; stroke-width:2; stroke-opacity:0.1; fill:none" points="430.644,1019.36 2352.76,1019.36 "/>
<polyline clip-path="url(#clip492)" style="stroke:#000000; stroke-linecap:round; stroke-linejoin:round; stroke-width:2; stroke-opacity:0.1; fill:none" points="430.644,766.825 2352.76,766.825 "/>
<polyline clip-path="url(#clip492)" style="stroke:#000000; stroke-linecap:round; stroke-linejoin:round; stroke-width:2; stroke-opacity:0.1; fill:none" points="430.644,514.289 2352.76,514.289 "/>
<polyline clip-path="url(#clip492)" style="stroke:#000000; stroke-linecap:round; stroke-linejoin:round; stroke-width:2; stroke-opacity:0.1; fill:none" points="430.644,261.753 2352.76,261.753 "/>
<polyline clip-path="url(#clip490)" style="stroke:#000000; stroke-linecap:round; stroke-linejoin:round; stroke-width:4; stroke-opacity:1; fill:none" points="430.644,1305.35 430.644,123.472 "/>
<polyline clip-path="url(#clip490)" style="stroke:#000000; stroke-linecap:round; stroke-linejoin:round; stroke-width:4; stroke-opacity:1; fill:none" points="430.644,1271.9 449.542,1271.9 "/>
<polyline clip-path="url(#clip490)" style="stroke:#000000; stroke-linecap:round; stroke-linejoin:round; stroke-width:4; stroke-opacity:1; fill:none" points="430.644,1019.36 449.542,1019.36 "/>
<polyline clip-path="url(#clip490)" style="stroke:#000000; stroke-linecap:round; stroke-linejoin:round; stroke-width:4; stroke-opacity:1; fill:none" points="430.644,766.825 449.542,766.825 "/>
<polyline clip-path="url(#clip490)" style="stroke:#000000; stroke-linecap:round; stroke-linejoin:round; stroke-width:4; stroke-opacity:1; fill:none" points="430.644,514.289 449.542,514.289 "/>
<polyline clip-path="url(#clip490)" style="stroke:#000000; stroke-linecap:round; stroke-linejoin:round; stroke-width:4; stroke-opacity:1; fill:none" points="430.644,261.753 449.542,261.753 "/>
<path clip-path="url(#clip490)" d="M307.307 1257.69 Q303.696 1257.69 301.867 1261.26 Q300.062 1264.8 300.062 1271.93 Q300.062 1279.04 301.867 1282.6 Q303.696 1286.14 307.307 1286.14 Q310.941 1286.14 312.747 1282.6 Q314.575 1279.04 314.575 1271.93 Q314.575 1264.8 312.747 1261.26 Q310.941 1257.69 307.307 1257.69 M307.307 1253.99 Q313.117 1253.99 316.173 1258.6 Q319.251 1263.18 319.251 1271.93 Q319.251 1280.66 316.173 1285.26 Q313.117 1289.85 307.307 1289.85 Q301.497 1289.85 298.418 1285.26 Q295.363 1280.66 295.363 1271.93 Q295.363 1263.18 298.418 1258.6 Q301.497 1253.99 307.307 1253.99 Z" fill="#000000" fill-rule="nonzero" fill-opacity="1" /><path clip-path="url(#clip490)" d="M327.469 1283.3 L332.353 1283.3 L332.353 1289.18 L327.469 1289.18 L327.469 1283.3 Z" fill="#000000" fill-rule="nonzero" fill-opacity="1" /><path clip-path="url(#clip490)" d="M352.538 1257.69 Q348.927 1257.69 347.098 1261.26 Q345.293 1264.8 345.293 1271.93 Q345.293 1279.04 347.098 1282.6 Q348.927 1286.14 352.538 1286.14 Q356.172 1286.14 357.978 1282.6 Q359.807 1279.04 359.807 1271.93 Q359.807 1264.8 357.978 1261.26 Q356.172 1257.69 352.538 1257.69 M352.538 1253.99 Q358.348 1253.99 361.404 1258.6 Q364.483 1263.18 364.483 1271.93 Q364.483 1280.66 361.404 1285.26 Q358.348 1289.85 352.538 1289.85 Q346.728 1289.85 343.649 1285.26 Q340.594 1280.66 340.594 1271.93 Q340.594 1263.18 343.649 1258.6 Q346.728 1253.99 352.538 1253.99 Z" fill="#000000" fill-rule="nonzero" fill-opacity="1" /><path clip-path="url(#clip490)" d="M382.7 1257.69 Q379.089 1257.69 377.26 1261.26 Q375.455 1264.8 375.455 1271.93 Q375.455 1279.04 377.26 1282.6 Q379.089 1286.14 382.7 1286.14 Q386.334 1286.14 388.14 1282.6 Q389.968 1279.04 389.968 1271.93 Q389.968 1264.8 388.14 1261.26 Q386.334 1257.69 382.7 1257.69 M382.7 1253.99 Q388.51 1253.99 391.566 1258.6 Q394.644 1263.18 394.644 1271.93 Q394.644 1280.66 391.566 1285.26 Q388.51 1289.85 382.7 1289.85 Q376.89 1289.85 373.811 1285.26 Q370.756 1280.66 370.756 1271.93 Q370.756 1263.18 373.811 1258.6 Q376.89 1253.99 382.7 1253.99 Z" fill="#000000" fill-rule="nonzero" fill-opacity="1" /><path clip-path="url(#clip490)" d="M308.302 1005.16 Q304.691 1005.16 302.862 1008.72 Q301.057 1012.27 301.057 1019.4 Q301.057 1026.5 302.862 1030.07 Q304.691 1033.61 308.302 1033.61 Q311.937 1033.61 313.742 1030.07 Q315.571 1026.5 315.571 1019.4 Q315.571 1012.27 313.742 1008.72 Q311.937 1005.16 308.302 1005.16 M308.302 1001.46 Q314.112 1001.46 317.168 1006.06 Q320.247 1010.65 320.247 1019.4 Q320.247 1028.12 317.168 1032.73 Q314.112 1037.31 308.302 1037.31 Q302.492 1037.31 299.413 1032.73 Q296.358 1028.12 296.358 1019.4 Q296.358 1010.65 299.413 1006.06 Q302.492 1001.46 308.302 1001.46 Z" fill="#000000" fill-rule="nonzero" fill-opacity="1" /><path clip-path="url(#clip490)" d="M328.464 1030.76 L333.348 1030.76 L333.348 1036.64 L328.464 1036.64 L328.464 1030.76 Z" fill="#000000" fill-rule="nonzero" fill-opacity="1" /><path clip-path="url(#clip490)" d="M347.561 1032.71 L363.881 1032.71 L363.881 1036.64 L341.936 1036.64 L341.936 1032.71 Q344.598 1029.95 349.182 1025.32 Q353.788 1020.67 354.969 1019.33 Q357.214 1016.8 358.094 1015.07 Q358.996 1013.31 358.996 1011.62 Q358.996 1008.86 357.052 1007.13 Q355.131 1005.39 352.029 1005.39 Q349.83 1005.39 347.376 1006.15 Q344.946 1006.92 342.168 1008.47 L342.168 1003.75 Q344.992 1002.61 347.446 1002.03 Q349.899 1001.46 351.936 1001.46 Q357.307 1001.46 360.501 1004.14 Q363.695 1006.83 363.695 1011.32 Q363.695 1013.45 362.885 1015.37 Q362.098 1017.27 359.992 1019.86 Q359.413 1020.53 356.311 1023.75 Q353.209 1026.94 347.561 1032.71 Z" fill="#000000" fill-rule="nonzero" fill-opacity="1" /><path clip-path="url(#clip490)" d="M373.742 1002.08 L392.098 1002.08 L392.098 1006.02 L378.024 1006.02 L378.024 1014.49 Q379.043 1014.14 380.061 1013.98 Q381.08 1013.79 382.098 1013.79 Q387.885 1013.79 391.265 1016.96 Q394.644 1020.14 394.644 1025.55 Q394.644 1031.13 391.172 1034.23 Q387.7 1037.31 381.381 1037.31 Q379.205 1037.31 376.936 1036.94 Q374.691 1036.57 372.283 1035.83 L372.283 1031.13 Q374.367 1032.27 376.589 1032.82 Q378.811 1033.38 381.288 1033.38 Q385.293 1033.38 387.631 1031.27 Q389.968 1029.16 389.968 1025.55 Q389.968 1021.94 387.631 1019.83 Q385.293 1017.73 381.288 1017.73 Q379.413 1017.73 377.538 1018.15 Q375.686 1018.56 373.742 1019.44 L373.742 1002.08 Z" fill="#000000" fill-rule="nonzero" fill-opacity="1" /><path clip-path="url(#clip490)" d="M307.307 752.623 Q303.696 752.623 301.867 756.188 Q300.062 759.73 300.062 766.859 Q300.062 773.966 301.867 777.531 Q303.696 781.072 307.307 781.072 Q310.941 781.072 312.747 777.531 Q314.575 773.966 314.575 766.859 Q314.575 759.73 312.747 756.188 Q310.941 752.623 307.307 752.623 M307.307 748.92 Q313.117 748.92 316.173 753.526 Q319.251 758.109 319.251 766.859 Q319.251 775.586 316.173 780.193 Q313.117 784.776 307.307 784.776 Q301.497 784.776 298.418 780.193 Q295.363 775.586 295.363 766.859 Q295.363 758.109 298.418 753.526 Q301.497 748.92 307.307 748.92 Z" fill="#000000" fill-rule="nonzero" fill-opacity="1" /><path clip-path="url(#clip490)" d="M327.469 778.225 L332.353 778.225 L332.353 784.105 L327.469 784.105 L327.469 778.225 Z" fill="#000000" fill-rule="nonzero" fill-opacity="1" /><path clip-path="url(#clip490)" d="M342.584 749.545 L360.941 749.545 L360.941 753.48 L346.867 753.48 L346.867 761.952 Q347.885 761.605 348.904 761.443 Q349.922 761.257 350.941 761.257 Q356.728 761.257 360.108 764.429 Q363.487 767.6 363.487 773.017 Q363.487 778.595 360.015 781.697 Q356.543 784.776 350.223 784.776 Q348.047 784.776 345.779 784.405 Q343.534 784.035 341.126 783.294 L341.126 778.595 Q343.209 779.73 345.432 780.285 Q347.654 780.841 350.131 780.841 Q354.135 780.841 356.473 778.734 Q358.811 776.628 358.811 773.017 Q358.811 769.406 356.473 767.299 Q354.135 765.193 350.131 765.193 Q348.256 765.193 346.381 765.609 Q344.529 766.026 342.584 766.906 L342.584 749.545 Z" fill="#000000" fill-rule="nonzero" fill-opacity="1" /><path clip-path="url(#clip490)" d="M382.7 752.623 Q379.089 752.623 377.26 756.188 Q375.455 759.73 375.455 766.859 Q375.455 773.966 377.26 777.531 Q379.089 781.072 382.7 781.072 Q386.334 781.072 388.14 777.531 Q389.968 773.966 389.968 766.859 Q389.968 759.73 388.14 756.188 Q386.334 752.623 382.7 752.623 M382.7 748.92 Q388.51 748.92 391.566 753.526 Q394.644 758.109 394.644 766.859 Q394.644 775.586 391.566 780.193 Q388.51 784.776 382.7 784.776 Q376.89 784.776 373.811 780.193 Q370.756 775.586 370.756 766.859 Q370.756 758.109 373.811 753.526 Q376.89 748.92 382.7 748.92 Z" fill="#000000" fill-rule="nonzero" fill-opacity="1" /><path clip-path="url(#clip490)" d="M308.302 500.087 Q304.691 500.087 302.862 503.652 Q301.057 507.194 301.057 514.323 Q301.057 521.43 302.862 524.995 Q304.691 528.536 308.302 528.536 Q311.937 528.536 313.742 524.995 Q315.571 521.43 315.571 514.323 Q315.571 507.194 313.742 503.652 Q311.937 500.087 308.302 500.087 M308.302 496.384 Q314.112 496.384 317.168 500.99 Q320.247 505.573 320.247 514.323 Q320.247 523.05 317.168 527.657 Q314.112 532.24 308.302 532.24 Q302.492 532.24 299.413 527.657 Q296.358 523.05 296.358 514.323 Q296.358 505.573 299.413 500.99 Q302.492 496.384 308.302 496.384 Z" fill="#000000" fill-rule="nonzero" fill-opacity="1" /><path clip-path="url(#clip490)" d="M328.464 525.689 L333.348 525.689 L333.348 531.569 L328.464 531.569 L328.464 525.689 Z" fill="#000000" fill-rule="nonzero" fill-opacity="1" /><path clip-path="url(#clip490)" d="M342.353 497.009 L364.575 497.009 L364.575 498.999 L352.029 531.569 L347.145 531.569 L358.95 500.944 L342.353 500.944 L342.353 497.009 Z" fill="#000000" fill-rule="nonzero" fill-opacity="1" /><path clip-path="url(#clip490)" d="M373.742 497.009 L392.098 497.009 L392.098 500.944 L378.024 500.944 L378.024 509.416 Q379.043 509.069 380.061 508.907 Q381.08 508.722 382.098 508.722 Q387.885 508.722 391.265 511.893 Q394.644 515.064 394.644 520.481 Q394.644 526.059 391.172 529.161 Q387.7 532.24 381.381 532.24 Q379.205 532.24 376.936 531.87 Q374.691 531.499 372.283 530.759 L372.283 526.059 Q374.367 527.194 376.589 527.749 Q378.811 528.305 381.288 528.305 Q385.293 528.305 387.631 526.198 Q389.968 524.092 389.968 520.481 Q389.968 516.87 387.631 514.763 Q385.293 512.657 381.288 512.657 Q379.413 512.657 377.538 513.073 Q375.686 513.49 373.742 514.37 L373.742 497.009 Z" fill="#000000" fill-rule="nonzero" fill-opacity="1" /><path clip-path="url(#clip490)" d="M298.117 275.098 L305.756 275.098 L305.756 248.732 L297.446 250.399 L297.446 246.14 L305.71 244.473 L310.386 244.473 L310.386 275.098 L318.024 275.098 L318.024 279.033 L298.117 279.033 L298.117 275.098 Z" fill="#000000" fill-rule="nonzero" fill-opacity="1" /><path clip-path="url(#clip490)" d="M327.469 273.153 L332.353 273.153 L332.353 279.033 L327.469 279.033 L327.469 273.153 Z" fill="#000000" fill-rule="nonzero" fill-opacity="1" /><path clip-path="url(#clip490)" d="M352.538 247.552 Q348.927 247.552 347.098 251.116 Q345.293 254.658 345.293 261.788 Q345.293 268.894 347.098 272.459 Q348.927 276 352.538 276 Q356.172 276 357.978 272.459 Q359.807 268.894 359.807 261.788 Q359.807 254.658 357.978 251.116 Q356.172 247.552 352.538 247.552 M352.538 243.848 Q358.348 243.848 361.404 248.454 Q364.483 253.038 364.483 261.788 Q364.483 270.514 361.404 275.121 Q358.348 279.704 352.538 279.704 Q346.728 279.704 343.649 275.121 Q340.594 270.514 340.594 261.788 Q340.594 253.038 343.649 248.454 Q346.728 243.848 352.538 243.848 Z" fill="#000000" fill-rule="nonzero" fill-opacity="1" /><path clip-path="url(#clip490)" d="M382.7 247.552 Q379.089 247.552 377.26 251.116 Q375.455 254.658 375.455 261.788 Q375.455 268.894 377.26 272.459 Q379.089 276 382.7 276 Q386.334 276 388.14 272.459 Q389.968 268.894 389.968 261.788 Q389.968 254.658 388.14 251.116 Q386.334 247.552 382.7 247.552 M382.7 243.848 Q388.51 243.848 391.566 248.454 Q394.644 253.038 394.644 261.788 Q394.644 270.514 391.566 275.121 Q388.51 279.704 382.7 279.704 Q376.89 279.704 373.811 275.121 Q370.756 270.514 370.756 261.788 Q370.756 253.038 373.811 248.454 Q376.89 243.848 382.7 243.848 Z" fill="#000000" fill-rule="nonzero" fill-opacity="1" /><path clip-path="url(#clip490)" d="M201.247 902.054 L208.026 902.054 Q205.003 905.3 203.507 908.993 Q202.011 912.653 202.011 916.791 Q202.011 924.939 207.008 929.267 Q211.973 933.596 221.394 933.596 Q230.784 933.596 235.781 929.267 Q240.746 924.939 240.746 916.791 Q240.746 912.653 239.25 908.993 Q237.754 905.3 234.73 902.054 L241.446 902.054 Q243.738 905.428 244.884 909.215 Q246.03 912.971 246.03 917.172 Q246.03 927.962 239.441 934.169 Q232.821 940.375 221.394 940.375 Q209.936 940.375 203.347 934.169 Q196.727 927.962 196.727 917.172 Q196.727 912.907 197.873 909.152 Q198.987 905.364 201.247 902.054 Z" fill="#000000" fill-rule="nonzero" fill-opacity="1" /><path clip-path="url(#clip490)" d="M213.564 878.564 Q213.564 883.275 217.257 886.012 Q220.917 888.75 227.314 888.75 Q233.712 888.75 237.404 886.044 Q241.064 883.307 241.064 878.564 Q241.064 873.886 237.372 871.148 Q233.68 868.411 227.314 868.411 Q220.98 868.411 217.288 871.148 Q213.564 873.886 213.564 878.564 M208.599 878.564 Q208.599 870.926 213.564 866.565 Q218.53 862.205 227.314 862.205 Q236.067 862.205 241.064 866.565 Q246.03 870.926 246.03 878.564 Q246.03 886.235 241.064 890.596 Q236.067 894.924 227.314 894.924 Q218.53 894.924 213.564 890.596 Q208.599 886.235 208.599 878.564 Z" fill="#000000" fill-rule="nonzero" fill-opacity="1" /><path clip-path="url(#clip490)" d="M223.59 822.865 L245.107 822.865 L245.107 828.721 L223.781 828.721 Q218.721 828.721 216.206 830.694 Q213.692 832.668 213.692 836.614 Q213.692 841.357 216.715 844.094 Q219.739 846.831 224.959 846.831 L245.107 846.831 L245.107 852.72 L209.459 852.72 L209.459 846.831 L214.997 846.831 Q211.782 844.731 210.191 841.898 Q208.599 839.033 208.599 835.31 Q208.599 829.167 212.419 826.016 Q216.206 822.865 223.59 822.865 Z" fill="#000000" fill-rule="nonzero" fill-opacity="1" /><path clip-path="url(#clip490)" d="M210.827 785.53 L216.302 785.53 Q214.933 788.012 214.265 790.527 Q213.564 793.009 213.564 795.556 Q213.564 801.253 217.193 804.404 Q220.79 807.555 227.314 807.555 Q233.839 807.555 237.468 804.404 Q241.064 801.253 241.064 795.556 Q241.064 793.009 240.396 790.527 Q239.696 788.012 238.327 785.53 L243.738 785.53 Q244.884 787.98 245.457 790.622 Q246.03 793.232 246.03 796.192 Q246.03 804.245 240.969 808.987 Q235.908 813.73 227.314 813.73 Q218.593 813.73 213.596 808.955 Q208.599 804.149 208.599 795.81 Q208.599 793.105 209.172 790.527 Q209.713 787.949 210.827 785.53 Z" fill="#000000" fill-rule="nonzero" fill-opacity="1" /><path clip-path="url(#clip490)" d="M225.818 744.853 L228.683 744.853 L228.683 771.78 Q234.73 771.398 237.913 768.151 Q241.064 764.873 241.064 759.048 Q241.064 755.675 240.237 752.523 Q239.409 749.341 237.754 746.221 L243.292 746.221 Q244.629 749.372 245.329 752.683 Q246.03 755.993 246.03 759.398 Q246.03 767.928 241.064 772.926 Q236.099 777.891 227.633 777.891 Q218.88 777.891 213.755 773.18 Q208.599 768.438 208.599 760.417 Q208.599 753.224 213.246 749.054 Q217.861 744.853 225.818 744.853 M224.1 750.709 Q219.294 750.773 216.429 753.415 Q213.564 756.025 213.564 760.353 Q213.564 765.255 216.334 768.215 Q219.103 771.143 224.132 771.589 L224.1 750.709 Z" fill="#000000" fill-rule="nonzero" fill-opacity="1" /><path clip-path="url(#clip490)" d="M223.59 705.608 L245.107 705.608 L245.107 711.465 L223.781 711.465 Q218.721 711.465 216.206 713.438 Q213.692 715.411 213.692 719.358 Q213.692 724.101 216.715 726.838 Q219.739 729.575 224.959 729.575 L245.107 729.575 L245.107 735.463 L209.459 735.463 L209.459 729.575 L214.997 729.575 Q211.782 727.474 210.191 724.642 Q208.599 721.777 208.599 718.053 Q208.599 711.91 212.419 708.759 Q216.206 705.608 223.59 705.608 Z" fill="#000000" fill-rule="nonzero" fill-opacity="1" /><path clip-path="url(#clip490)" d="M199.337 688.134 L209.459 688.134 L209.459 676.071 L214.01 676.071 L214.01 688.134 L233.362 688.134 Q237.722 688.134 238.964 686.957 Q240.205 685.747 240.205 682.087 L240.205 676.071 L245.107 676.071 L245.107 682.087 Q245.107 688.866 242.592 691.445 Q240.046 694.023 233.362 694.023 L214.01 694.023 L214.01 698.319 L209.459 698.319 L209.459 694.023 L199.337 694.023 L199.337 688.134 Z" fill="#000000" fill-rule="nonzero" fill-opacity="1" /><path clip-path="url(#clip490)" d="M214.933 647.712 Q214.36 648.699 214.106 649.876 Q213.819 651.022 213.819 652.423 Q213.819 657.388 217.066 660.062 Q220.28 662.703 226.328 662.703 L245.107 662.703 L245.107 668.592 L209.459 668.592 L209.459 662.703 L214.997 662.703 Q211.75 660.857 210.191 657.897 Q208.599 654.937 208.599 650.704 Q208.599 650.099 208.695 649.367 Q208.758 648.635 208.917 647.744 L214.933 647.712 Z" fill="#000000" fill-rule="nonzero" fill-opacity="1" /><path clip-path="url(#clip490)" d="M227.187 625.368 Q227.187 632.466 228.81 635.204 Q230.434 637.941 234.348 637.941 Q237.468 637.941 239.314 635.904 Q241.128 633.835 241.128 630.302 Q241.128 625.432 237.69 622.504 Q234.221 619.544 228.492 619.544 L227.187 619.544 L227.187 625.368 M224.768 613.687 L245.107 613.687 L245.107 619.544 L239.696 619.544 Q242.942 621.549 244.502 624.541 Q246.03 627.533 246.03 631.862 Q246.03 637.336 242.974 640.583 Q239.887 643.797 234.73 643.797 Q228.715 643.797 225.659 639.787 Q222.604 635.745 222.604 627.756 L222.604 619.544 L222.031 619.544 Q217.989 619.544 215.792 622.217 Q213.564 624.859 213.564 629.665 Q213.564 632.721 214.296 635.617 Q215.029 638.514 216.493 641.187 L211.082 641.187 Q209.841 637.973 209.236 634.949 Q208.599 631.925 208.599 629.061 Q208.599 621.326 212.61 617.507 Q216.62 613.687 224.768 613.687 Z" fill="#000000" fill-rule="nonzero" fill-opacity="1" /><path clip-path="url(#clip490)" d="M199.337 595.832 L209.459 595.832 L209.459 583.769 L214.01 583.769 L214.01 595.832 L233.362 595.832 Q237.722 595.832 238.964 594.654 Q240.205 593.444 240.205 589.784 L240.205 583.769 L245.107 583.769 L245.107 589.784 Q245.107 596.564 242.592 599.142 Q240.046 601.72 233.362 601.72 L214.01 601.72 L214.01 606.017 L209.459 606.017 L209.459 601.72 L199.337 601.72 L199.337 595.832 Z" fill="#000000" fill-rule="nonzero" fill-opacity="1" /><path clip-path="url(#clip490)" d="M209.459 576.066 L209.459 570.21 L245.107 570.21 L245.107 576.066 L209.459 576.066 M195.581 576.066 L195.581 570.21 L202.997 570.21 L202.997 576.066 L195.581 576.066 Z" fill="#000000" fill-rule="nonzero" fill-opacity="1" /><path clip-path="url(#clip490)" d="M213.564 544.142 Q213.564 548.853 217.257 551.59 Q220.917 554.327 227.314 554.327 Q233.712 554.327 237.404 551.622 Q241.064 548.885 241.064 544.142 Q241.064 539.463 237.372 536.726 Q233.68 533.989 227.314 533.989 Q220.98 533.989 217.288 536.726 Q213.564 539.463 213.564 544.142 M208.599 544.142 Q208.599 536.503 213.564 532.143 Q218.53 527.782 227.314 527.782 Q236.067 527.782 241.064 532.143 Q246.03 536.503 246.03 544.142 Q246.03 551.813 241.064 556.173 Q236.067 560.502 227.314 560.502 Q218.53 560.502 213.564 556.173 Q208.599 551.813 208.599 544.142 Z" fill="#000000" fill-rule="nonzero" fill-opacity="1" /><path clip-path="url(#clip490)" d="M223.59 488.442 L245.107 488.442 L245.107 494.299 L223.781 494.299 Q218.721 494.299 216.206 496.272 Q213.692 498.245 213.692 502.192 Q213.692 506.935 216.715 509.672 Q219.739 512.409 224.959 512.409 L245.107 512.409 L245.107 518.297 L209.459 518.297 L209.459 512.409 L214.997 512.409 Q211.782 510.308 210.191 507.476 Q208.599 504.611 208.599 500.887 Q208.599 494.744 212.419 491.593 Q216.206 488.442 223.59 488.442 Z" fill="#000000" fill-rule="nonzero" fill-opacity="1" /><path clip-path="url(#clip490)" d="M1384.51 28.9478 L1384.51 35.9153 Q1381.35 34.1734 1378.15 33.3227 Q1374.99 32.4315 1371.75 32.4315 Q1364.5 32.4315 1360.49 37.0496 Q1356.48 41.6271 1356.48 49.9314 Q1356.48 58.2358 1360.49 62.8538 Q1364.5 67.4314 1371.75 67.4314 Q1374.99 67.4314 1378.15 66.5807 Q1381.35 65.6895 1384.51 63.9476 L1384.51 70.8341 Q1381.39 72.2924 1378.03 73.0216 Q1374.71 73.7508 1370.94 73.7508 Q1360.69 73.7508 1354.65 67.3098 Q1348.62 60.8689 1348.62 49.9314 Q1348.62 38.832 1354.7 32.472 Q1360.81 26.1121 1371.43 26.1121 Q1374.87 26.1121 1378.15 26.8413 Q1381.43 27.5299 1384.51 28.9478 Z" fill="#000000" fill-rule="nonzero" fill-opacity="1" /><path clip-path="url(#clip490)" d="M1399.94 65.6895 L1413.31 65.6895 L1413.31 19.5497 L1398.77 22.4663 L1398.77 15.0127 L1413.23 12.096 L1421.41 12.096 L1421.41 65.6895 L1434.78 65.6895 L1434.78 72.576 L1399.94 72.576 L1399.94 65.6895 Z" fill="#000000" fill-rule="nonzero" fill-opacity="1" /><circle clip-path="url(#clip492)" cx="666.375" cy="1156.45" r="14.4" fill="#009af9" fill-rule="evenodd" fill-opacity="1" stroke="#000000" stroke-opacity="1" stroke-width="3.2"/>
<circle clip-path="url(#clip492)" cx="847.706" cy="885.338" r="14.4" fill="#009af9" fill-rule="evenodd" fill-opacity="1" stroke="#000000" stroke-opacity="1" stroke-width="3.2"/>
<circle clip-path="url(#clip492)" cx="1029.04" cy="724.61" r="14.4" fill="#009af9" fill-rule="evenodd" fill-opacity="1" stroke="#000000" stroke-opacity="1" stroke-width="3.2"/>
<circle clip-path="url(#clip492)" cx="1210.37" cy="637.76" r="14.4" fill="#009af9" fill-rule="evenodd" fill-opacity="1" stroke="#000000" stroke-opacity="1" stroke-width="3.2"/>
<circle clip-path="url(#clip492)" cx="1391.7" cy="517.466" r="14.4" fill="#009af9" fill-rule="evenodd" fill-opacity="1" stroke="#000000" stroke-opacity="1" stroke-width="3.2"/>
<circle clip-path="url(#clip492)" cx="1573.03" cy="424.714" r="14.4" fill="#009af9" fill-rule="evenodd" fill-opacity="1" stroke="#000000" stroke-opacity="1" stroke-width="3.2"/>
<circle clip-path="url(#clip492)" cx="1754.36" cy="422.761" r="14.4" fill="#009af9" fill-rule="evenodd" fill-opacity="1" stroke="#000000" stroke-opacity="1" stroke-width="3.2"/>
<circle clip-path="url(#clip492)" cx="1935.69" cy="379.982" r="14.4" fill="#009af9" fill-rule="evenodd" fill-opacity="1" stroke="#000000" stroke-opacity="1" stroke-width="3.2"/>
<circle clip-path="url(#clip492)" cx="2117.03" cy="327.721" r="14.4" fill="#009af9" fill-rule="evenodd" fill-opacity="1" stroke="#000000" stroke-opacity="1" stroke-width="3.2"/>
<circle clip-path="url(#clip492)" cx="2298.36" cy="156.921" r="14.4" fill="#009af9" fill-rule="evenodd" fill-opacity="1" stroke="#000000" stroke-opacity="1" stroke-width="3.2"/>
<polyline clip-path="url(#clip492)" style="stroke:#009af9; stroke-linecap:round; stroke-linejoin:round; stroke-width:4; stroke-opacity:1; fill:none" points="485.044,1271.9 486.213,1271.87 487.161,1271.82 488.474,1271.71 489.815,1271.53 491.364,1271.27 493.009,1270.92 494.799,1270.45 496.696,1269.88 498.713,1269.17 500.835,1268.34 503.065,1267.36 505.398,1266.24 507.835,1264.96 510.375,1263.52 513.02,1261.92 515.77,1260.15 518.628,1258.2 521.596,1256.07 524.679,1253.76 527.88,1251.25 531.202,1248.55 534.652,1245.63 538.234,1242.51 541.955,1239.17 545.82,1235.6 549.837,1231.8 554.013,1227.76 558.357,1223.47 562.876,1218.93 567.582,1214.11 572.483,1209.02 577.591,1203.65 582.918,1197.97 588.478,1191.99 594.285,1185.69 600.353,1179.05 606.701,1172.06 613.346,1164.71 620.308,1156.98 627.61,1148.85 635.276,1140.3 643.333,1131.32 651.811,1121.88 660.744,1111.95 670.171,1101.51 680.136,1090.53 690.692,1078.95 701.905,1066.74 713.857,1053.83 726.661,1040.13 740.478,1025.51 755.577,1009.73 772.522,992.279 793.534,971.027 814.546,950.216 835.558,929.851 856.57,909.936 877.582,890.471 898.594,871.458 919.606,852.893 940.618,834.775 961.63,817.101 982.642,799.866 1003.65,783.066 1024.67,766.697 1045.68,750.753 1066.69,735.23 1087.7,720.121 1108.71,705.42 1129.73,691.121 1150.74,677.218 1171.75,663.704 1192.76,650.571 1213.79,637.802 1234.89,625.365 1256.07,613.241 1277.38,601.412 1298.82,589.866 1320.42,578.589 1342.19,567.574 1364.17,556.811 1386.35,546.295 1408.76,536.018 1431.41,525.977 1454.32,516.166 1477.5,506.582 1500.96,497.221 1524.73,488.079 1548.81,479.155 1573.21,470.445 1597.97,461.947 1623.08,453.658 1648.57,445.577 1674.46,437.7 1700.76,430.027 1727.49,422.554 1754.67,415.281 1782.32,408.205 1810.46,401.325 1839.12,394.638 1868.32,388.143 1898.08,381.838 1928.43,375.721 1959.4,369.791 1991.02,364.046 2023.32,358.484 2056.34,353.104 2090.11,347.903 2124.67,342.88 2160.06,338.032 2196.34,333.359 2233.54,328.858 2271.72,324.528 2298.36,321.671 "/>
<path clip-path="url(#clip490)" d="M494.715 318.388 L995.697 318.388 L995.697 162.868 L494.715 162.868  Z" fill="#ffffff" fill-rule="evenodd" fill-opacity="1"/>
<polyline clip-path="url(#clip490)" style="stroke:#000000; stroke-linecap:round; stroke-linejoin:round; stroke-width:4; stroke-opacity:1; fill:none" points="494.715,318.388 995.697,318.388 995.697,162.868 494.715,162.868 494.715,318.388 "/>
<circle clip-path="url(#clip490)" cx="580.142" cy="214.708" r="20.48" fill="#009af9" fill-rule="evenodd" fill-opacity="1" stroke="#000000" stroke-opacity="1" stroke-width="4.55111"/>
<path clip-path="url(#clip490)" d="M670.245 201.27 L670.245 214.257 L676.125 214.257 Q679.389 214.257 681.171 212.567 Q682.953 210.877 682.953 207.752 Q682.953 204.65 681.171 202.96 Q679.389 201.27 676.125 201.27 L670.245 201.27 M665.569 197.428 L676.125 197.428 Q681.935 197.428 684.898 200.067 Q687.884 202.683 687.884 207.752 Q687.884 212.868 684.898 215.483 Q681.935 218.099 676.125 218.099 L670.245 218.099 L670.245 231.988 L665.569 231.988 L665.569 197.428 Z" fill="#000000" fill-rule="nonzero" fill-opacity="1" /><path clip-path="url(#clip490)" d="M719.273 196.016 Q716.171 201.34 714.666 206.548 Q713.161 211.757 713.161 217.104 Q713.161 222.451 714.666 227.706 Q716.194 232.937 719.273 238.238 L715.569 238.238 Q712.097 232.798 710.361 227.543 Q708.648 222.289 708.648 217.104 Q708.648 211.942 710.361 206.71 Q712.074 201.479 715.569 196.016 L719.273 196.016 Z" fill="#000000" fill-rule="nonzero" fill-opacity="1" /><path clip-path="url(#clip490)" d="M747.721 211.039 Q749.319 208.169 751.541 206.803 Q753.763 205.437 756.772 205.437 Q760.823 205.437 763.022 208.284 Q765.221 211.108 765.221 216.34 L765.221 231.988 L760.939 231.988 L760.939 216.479 Q760.939 212.752 759.62 210.946 Q758.3 209.141 755.592 209.141 Q752.282 209.141 750.36 211.34 Q748.439 213.539 748.439 217.335 L748.439 231.988 L744.157 231.988 L744.157 216.479 Q744.157 212.729 742.837 210.946 Q741.518 209.141 738.763 209.141 Q735.499 209.141 733.578 211.363 Q731.657 213.562 731.657 217.335 L731.657 231.988 L727.374 231.988 L727.374 206.062 L731.657 206.062 L731.657 210.09 Q733.115 207.706 735.152 206.571 Q737.189 205.437 739.99 205.437 Q742.814 205.437 744.782 206.872 Q746.772 208.307 747.721 211.039 Z" fill="#000000" fill-rule="nonzero" fill-opacity="1" /><path clip-path="url(#clip490)" d="M795.893 217.96 L795.893 220.044 L776.309 220.044 Q776.587 224.442 778.948 226.756 Q781.332 229.048 785.568 229.048 Q788.022 229.048 790.314 228.446 Q792.629 227.844 794.897 226.641 L794.897 230.668 Q792.605 231.641 790.198 232.15 Q787.791 232.659 785.314 232.659 Q779.11 232.659 775.476 229.048 Q771.865 225.437 771.865 219.28 Q771.865 212.914 775.291 209.187 Q778.74 205.437 784.573 205.437 Q789.805 205.437 792.837 208.817 Q795.893 212.173 795.893 217.96 M791.633 216.71 Q791.587 213.215 789.666 211.132 Q787.768 209.048 784.619 209.048 Q781.055 209.048 778.902 211.062 Q776.772 213.076 776.448 216.733 L791.633 216.71 Z" fill="#000000" fill-rule="nonzero" fill-opacity="1" /><path clip-path="url(#clip490)" d="M814.666 218.956 Q809.504 218.956 807.513 220.136 Q805.522 221.317 805.522 224.164 Q805.522 226.432 807.004 227.775 Q808.508 229.094 811.078 229.094 Q814.619 229.094 816.749 226.594 Q818.902 224.071 818.902 219.905 L818.902 218.956 L814.666 218.956 M823.161 217.196 L823.161 231.988 L818.902 231.988 L818.902 228.053 Q817.443 230.414 815.267 231.548 Q813.091 232.659 809.943 232.659 Q805.962 232.659 803.601 230.437 Q801.263 228.192 801.263 224.442 Q801.263 220.067 804.18 217.844 Q807.119 215.622 812.929 215.622 L818.902 215.622 L818.902 215.206 Q818.902 212.266 816.957 210.669 Q815.036 209.048 811.541 209.048 Q809.318 209.048 807.212 209.581 Q805.105 210.113 803.161 211.178 L803.161 207.243 Q805.499 206.34 807.698 205.9 Q809.897 205.437 811.98 205.437 Q817.605 205.437 820.383 208.354 Q823.161 211.27 823.161 217.196 Z" fill="#000000" fill-rule="nonzero" fill-opacity="1" /><path clip-path="url(#clip490)" d="M848.462 206.826 L848.462 210.854 Q846.656 209.928 844.712 209.465 Q842.767 209.002 840.684 209.002 Q837.513 209.002 835.915 209.974 Q834.341 210.946 834.341 212.891 Q834.341 214.372 835.476 215.229 Q836.61 216.062 840.036 216.826 L841.494 217.15 Q846.031 218.122 847.929 219.905 Q849.851 221.664 849.851 224.835 Q849.851 228.446 846.98 230.553 Q844.133 232.659 839.133 232.659 Q837.05 232.659 834.781 232.243 Q832.536 231.849 830.036 231.039 L830.036 226.641 Q832.397 227.868 834.689 228.493 Q836.98 229.094 839.226 229.094 Q842.235 229.094 843.855 228.076 Q845.476 227.034 845.476 225.159 Q845.476 223.423 844.295 222.497 Q843.138 221.571 839.179 220.715 L837.698 220.368 Q833.74 219.534 831.98 217.821 Q830.221 216.085 830.221 213.076 Q830.221 209.419 832.814 207.428 Q835.406 205.437 840.175 205.437 Q842.536 205.437 844.619 205.784 Q846.702 206.132 848.462 206.826 Z" fill="#000000" fill-rule="nonzero" fill-opacity="1" /><path clip-path="url(#clip490)" d="M856.193 221.756 L856.193 206.062 L860.452 206.062 L860.452 221.594 Q860.452 225.275 861.888 227.127 Q863.323 228.956 866.193 228.956 Q869.642 228.956 871.633 226.756 Q873.647 224.557 873.647 220.761 L873.647 206.062 L877.906 206.062 L877.906 231.988 L873.647 231.988 L873.647 228.006 Q872.096 230.368 870.036 231.525 Q867.999 232.659 865.29 232.659 Q860.823 232.659 858.508 229.881 Q856.193 227.104 856.193 221.756 M866.911 205.437 L866.911 205.437 Z" fill="#000000" fill-rule="nonzero" fill-opacity="1" /><path clip-path="url(#clip490)" d="M901.702 210.044 Q900.985 209.627 900.128 209.442 Q899.295 209.233 898.276 209.233 Q894.665 209.233 892.721 211.594 Q890.799 213.932 890.799 218.331 L890.799 231.988 L886.517 231.988 L886.517 206.062 L890.799 206.062 L890.799 210.09 Q892.142 207.729 894.295 206.595 Q896.448 205.437 899.526 205.437 Q899.966 205.437 900.498 205.507 Q901.031 205.553 901.679 205.669 L901.702 210.044 Z" fill="#000000" fill-rule="nonzero" fill-opacity="1" /><path clip-path="url(#clip490)" d="M927.304 217.96 L927.304 220.044 L907.721 220.044 Q907.998 224.442 910.359 226.756 Q912.744 229.048 916.98 229.048 Q919.434 229.048 921.725 228.446 Q924.04 227.844 926.308 226.641 L926.308 230.668 Q924.017 231.641 921.609 232.15 Q919.202 232.659 916.725 232.659 Q910.522 232.659 906.887 229.048 Q903.276 225.437 903.276 219.28 Q903.276 212.914 906.702 209.187 Q910.151 205.437 915.984 205.437 Q921.216 205.437 924.248 208.817 Q927.304 212.173 927.304 217.96 M923.045 216.71 Q922.998 213.215 921.077 211.132 Q919.179 209.048 916.031 209.048 Q912.466 209.048 910.313 211.062 Q908.184 213.076 907.86 216.733 L923.045 216.71 Z" fill="#000000" fill-rule="nonzero" fill-opacity="1" /><path clip-path="url(#clip490)" d="M951.355 209.997 L951.355 195.97 L955.614 195.97 L955.614 231.988 L951.355 231.988 L951.355 228.099 Q950.012 230.414 947.952 231.548 Q945.915 232.659 943.045 232.659 Q938.345 232.659 935.383 228.909 Q932.443 225.159 932.443 219.048 Q932.443 212.937 935.383 209.187 Q938.345 205.437 943.045 205.437 Q945.915 205.437 947.952 206.571 Q950.012 207.682 951.355 209.997 M936.841 219.048 Q936.841 223.747 938.762 226.432 Q940.707 229.094 944.086 229.094 Q947.466 229.094 949.41 226.432 Q951.355 223.747 951.355 219.048 Q951.355 214.349 949.41 211.687 Q947.466 209.002 944.086 209.002 Q940.707 209.002 938.762 211.687 Q936.841 214.349 936.841 219.048 Z" fill="#000000" fill-rule="nonzero" fill-opacity="1" /><path clip-path="url(#clip490)" d="M963.716 196.016 L967.419 196.016 Q970.892 201.479 972.605 206.71 Q974.341 211.942 974.341 217.104 Q974.341 222.289 972.605 227.543 Q970.892 232.798 967.419 238.238 L963.716 238.238 Q966.794 232.937 968.299 227.706 Q969.827 222.451 969.827 217.104 Q969.827 211.757 968.299 206.548 Q966.794 201.34 963.716 196.016 Z" fill="#000000" fill-rule="nonzero" fill-opacity="1" /><polyline clip-path="url(#clip490)" style="stroke:#009af9; stroke-linecap:round; stroke-linejoin:round; stroke-width:4; stroke-opacity:1; fill:none" points="516.072,266.548 644.212,266.548 "/>
<path clip-path="url(#clip490)" d="M670.245 253.11 L670.245 266.097 L676.125 266.097 Q679.389 266.097 681.171 264.407 Q682.953 262.717 682.953 259.592 Q682.953 256.49 681.171 254.8 Q679.389 253.11 676.125 253.11 L670.245 253.11 M665.569 249.268 L676.125 249.268 Q681.935 249.268 684.898 251.907 Q687.884 254.523 687.884 259.592 Q687.884 264.708 684.898 267.323 Q681.935 269.939 676.125 269.939 L670.245 269.939 L670.245 283.828 L665.569 283.828 L665.569 249.268 Z" fill="#000000" fill-rule="nonzero" fill-opacity="1" /><path clip-path="url(#clip490)" d="M719.273 247.856 Q716.171 253.18 714.666 258.388 Q713.161 263.597 713.161 268.944 Q713.161 274.291 714.666 279.546 Q716.194 284.777 719.273 290.078 L715.569 290.078 Q712.097 284.638 710.361 279.383 Q708.648 274.129 708.648 268.944 Q708.648 263.782 710.361 258.55 Q712.074 253.319 715.569 247.856 L719.273 247.856 Z" fill="#000000" fill-rule="nonzero" fill-opacity="1" /><path clip-path="url(#clip490)" d="M740.661 247.81 L740.661 251.351 L736.587 251.351 Q734.296 251.351 733.393 252.277 Q732.513 253.203 732.513 255.61 L732.513 257.902 L739.527 257.902 L739.527 261.212 L732.513 261.212 L732.513 283.828 L728.231 283.828 L728.231 261.212 L724.157 261.212 L724.157 257.902 L728.231 257.902 L728.231 256.097 Q728.231 251.768 730.245 249.8 Q732.259 247.81 736.634 247.81 L740.661 247.81 Z" fill="#000000" fill-rule="nonzero" fill-opacity="1" /><path clip-path="url(#clip490)" d="M744.226 257.902 L748.485 257.902 L748.485 283.828 L744.226 283.828 L744.226 257.902 M744.226 247.81 L748.485 247.81 L748.485 253.203 L744.226 253.203 L744.226 247.81 Z" fill="#000000" fill-rule="nonzero" fill-opacity="1" /><path clip-path="url(#clip490)" d="M761.61 250.541 L761.61 257.902 L770.383 257.902 L770.383 261.212 L761.61 261.212 L761.61 275.286 Q761.61 278.458 762.467 279.36 Q763.346 280.263 766.008 280.263 L770.383 280.263 L770.383 283.828 L766.008 283.828 Q761.078 283.828 759.203 281.999 Q757.328 280.147 757.328 275.286 L757.328 261.212 L754.203 261.212 L754.203 257.902 L757.328 257.902 L757.328 250.541 L761.61 250.541 Z" fill="#000000" fill-rule="nonzero" fill-opacity="1" /><path clip-path="url(#clip490)" d="M780.198 250.541 L780.198 257.902 L788.971 257.902 L788.971 261.212 L780.198 261.212 L780.198 275.286 Q780.198 278.458 781.055 279.36 Q781.934 280.263 784.596 280.263 L788.971 280.263 L788.971 283.828 L784.596 283.828 Q779.666 283.828 777.791 281.999 Q775.916 280.147 775.916 275.286 L775.916 261.212 L772.791 261.212 L772.791 257.902 L775.916 257.902 L775.916 250.541 L780.198 250.541 Z" fill="#000000" fill-rule="nonzero" fill-opacity="1" /><path clip-path="url(#clip490)" d="M816.749 269.8 L816.749 271.884 L797.166 271.884 Q797.443 276.282 799.805 278.596 Q802.189 280.888 806.425 280.888 Q808.879 280.888 811.17 280.286 Q813.485 279.684 815.754 278.481 L815.754 282.508 Q813.462 283.481 811.054 283.99 Q808.647 284.499 806.17 284.499 Q799.967 284.499 796.332 280.888 Q792.721 277.277 792.721 271.12 Q792.721 264.754 796.147 261.027 Q799.596 257.277 805.429 257.277 Q810.661 257.277 813.693 260.657 Q816.749 264.013 816.749 269.8 M812.49 268.55 Q812.443 265.055 810.522 262.972 Q808.624 260.888 805.476 260.888 Q801.911 260.888 799.758 262.902 Q797.629 264.916 797.305 268.573 L812.49 268.55 Z" fill="#000000" fill-rule="nonzero" fill-opacity="1" /><path clip-path="url(#clip490)" d="M840.8 261.837 L840.8 247.81 L845.059 247.81 L845.059 283.828 L840.8 283.828 L840.8 279.939 Q839.457 282.254 837.397 283.388 Q835.36 284.499 832.49 284.499 Q827.79 284.499 824.828 280.749 Q821.888 276.999 821.888 270.888 Q821.888 264.777 824.828 261.027 Q827.79 257.277 832.49 257.277 Q835.36 257.277 837.397 258.411 Q839.457 259.522 840.8 261.837 M826.286 270.888 Q826.286 275.587 828.207 278.272 Q830.152 280.934 833.531 280.934 Q836.911 280.934 838.855 278.272 Q840.8 275.587 840.8 270.888 Q840.8 266.189 838.855 263.527 Q836.911 260.842 833.531 260.842 Q830.152 260.842 828.207 263.527 Q826.286 266.189 826.286 270.888 Z" fill="#000000" fill-rule="nonzero" fill-opacity="1" /><path clip-path="url(#clip490)" d="M853.161 247.856 L856.864 247.856 Q860.337 253.319 862.05 258.55 Q863.786 263.782 863.786 268.944 Q863.786 274.129 862.05 279.383 Q860.337 284.638 856.864 290.078 L853.161 290.078 Q856.239 284.777 857.744 279.546 Q859.272 274.291 859.272 268.944 Q859.272 263.597 857.744 258.388 Q856.239 253.18 853.161 247.856 Z" fill="#000000" fill-rule="nonzero" fill-opacity="1" /></svg>
