<?xml version="1.0" encoding="utf-8"?>
<svg xmlns="http://www.w3.org/2000/svg" xmlns:xlink="http://www.w3.org/1999/xlink" width="600" height="400" viewBox="0 0 2400 1600">
<defs>
  <clipPath id="clip040">
    <rect x="0" y="0" width="2400" height="1600"/>
  </clipPath>
</defs>
<path clip-path="url(#clip040)" d="M0 1600 L2400 1600 L2400 0 L0 0  Z" fill="#ffffff" fill-rule="evenodd" fill-opacity="1"/>
<defs>
  <clipPath id="clip041">
    <rect x="480" y="0" width="1681" height="1600"/>
  </clipPath>
</defs>
<path clip-path="url(#clip040)" d="M283.843 1339.91 L2352.76 1339.91 L2352.76 62.9921 L283.843 62.9921  Z" fill="#ffffff" fill-rule="evenodd" fill-opacity="1"/>
<defs>
  <clipPath id="clip042">
    <rect x="283" y="62" width="2070" height="1278"/>
  </clipPath>
</defs>
<polyline clip-path="url(#clip042)" style="stroke:#000000; stroke-linecap:round; stroke-linejoin:round; stroke-width:2; stroke-opacity:0.1; fill:none" points="342.397,1339.91 342.397,62.9921 "/>
<polyline clip-path="url(#clip042)" style="stroke:#000000; stroke-linecap:round; stroke-linejoin:round; stroke-width:2; stroke-opacity:0.1; fill:none" points="830.348,1339.91 830.348,62.9921 "/>
<polyline clip-path="url(#clip042)" style="stroke:#000000; stroke-linecap:round; stroke-linejoin:round; stroke-width:2; stroke-opacity:0.1; fill:none" points="1318.3,1339.91 1318.3,62.9921 "/>
<polyline clip-path="url(#clip042)" style="stroke:#000000; stroke-linecap:round; stroke-linejoin:round; stroke-width:2; stroke-opacity:0.1; fill:none" points="1806.25,1339.91 1806.25,62.9921 "/>
<polyline clip-path="url(#clip042)" style="stroke:#000000; stroke-linecap:round; stroke-linejoin:round; stroke-width:2; stroke-opacity:0.1; fill:none" points="2294.2,1339.91 2294.2,62.9921 "/>
<polyline clip-path="url(#clip040)" style="stroke:#000000; stroke-linecap:round; stroke-linejoin:round; stroke-width:4; stroke-opacity:1; fill:none" points="283.843,1339.91 2352.76,1339.91 "/>
<polyline clip-path="url(#clip040)" style="stroke:#000000; stroke-linecap:round; stroke-linejoin:round; stroke-width:4; stroke-opacity:1; fill:none" points="342.397,1339.91 342.397,1321.01 "/>
<polyline clip-path="url(#clip040)" style="stroke:#000000; stroke-linecap:round; stroke-linejoin:round; stroke-width:4; stroke-opacity:1; fill:none" points="830.348,1339.91 830.348,1321.01 "/>
<polyline clip-path="url(#clip040)" style="stroke:#000000; stroke-linecap:round; stroke-linejoin:round; stroke-width:4; stroke-opacity:1; fill:none" points="1318.3,1339.91 1318.3,1321.01 "/>
<polyline clip-path="url(#clip040)" style="stroke:#000000; stroke-linecap:round; stroke-linejoin:round; stroke-width:4; stroke-opacity:1; fill:none" points="1806.25,1339.91 1806.25,1321.01 "/>
<polyline clip-path="url(#clip040)" style="stroke:#000000; stroke-linecap:round; stroke-linejoin:round; stroke-width:4; stroke-opacity:1; fill:none" points="2294.2,1339.91 2294.2,1321.01 "/>
<path clip-path="url(#clip040)" d="M319.781 1370.82 Q316.17 1370.82 314.341 1374.39 Q312.536 1377.93 312.536 1385.06 Q312.536 1392.17 314.341 1395.73 Q316.17 1399.27 319.781 1399.27 Q323.415 1399.27 325.221 1395.73 Q327.05 1392.17 327.05 1385.06 Q327.05 1377.93 325.221 1374.39 Q323.415 1370.82 319.781 1370.82 M319.781 1367.12 Q325.591 1367.12 328.647 1371.73 Q331.725 1376.31 331.725 1385.06 Q331.725 1393.79 328.647 1398.39 Q325.591 1402.98 319.781 1402.98 Q313.971 1402.98 310.892 1398.39 Q307.837 1393.79 307.837 1385.06 Q307.837 1376.31 310.892 1371.73 Q313.971 1367.12 319.781 1367.12 Z" fill="#000000" fill-rule="nonzero" fill-opacity="1" /><path clip-path="url(#clip040)" d="M339.943 1396.43 L344.827 1396.43 L344.827 1402.31 L339.943 1402.31 L339.943 1396.43 Z" fill="#000000" fill-rule="nonzero" fill-opacity="1" /><path clip-path="url(#clip040)" d="M365.012 1370.82 Q361.401 1370.82 359.573 1374.39 Q357.767 1377.93 357.767 1385.06 Q357.767 1392.17 359.573 1395.73 Q361.401 1399.27 365.012 1399.27 Q368.647 1399.27 370.452 1395.73 Q372.281 1392.17 372.281 1385.06 Q372.281 1377.93 370.452 1374.39 Q368.647 1370.82 365.012 1370.82 M365.012 1367.12 Q370.822 1367.12 373.878 1371.73 Q376.957 1376.31 376.957 1385.06 Q376.957 1393.79 373.878 1398.39 Q370.822 1402.98 365.012 1402.98 Q359.202 1402.98 356.123 1398.39 Q353.068 1393.79 353.068 1385.06 Q353.068 1376.31 356.123 1371.73 Q359.202 1367.12 365.012 1367.12 Z" fill="#000000" fill-rule="nonzero" fill-opacity="1" /><path clip-path="url(#clip040)" d="M802.084 1398.37 L818.404 1398.37 L818.404 1402.31 L796.459 1402.31 L796.459 1398.37 Q799.121 1395.62 803.705 1390.99 Q808.311 1386.33 809.492 1384.99 Q811.737 1382.47 812.617 1380.73 Q813.519 1378.97 813.519 1377.28 Q813.519 1374.53 811.575 1372.79 Q809.654 1371.06 806.552 1371.06 Q804.353 1371.06 801.899 1371.82 Q799.468 1372.58 796.691 1374.13 L796.691 1369.41 Q799.515 1368.28 801.968 1367.7 Q804.422 1367.12 806.459 1367.12 Q811.83 1367.12 815.024 1369.81 Q818.218 1372.49 818.218 1376.98 Q818.218 1379.11 817.408 1381.03 Q816.621 1382.93 814.515 1385.52 Q813.936 1386.19 810.834 1389.41 Q807.732 1392.61 802.084 1398.37 Z" fill="#000000" fill-rule="nonzero" fill-opacity="1" /><path clip-path="url(#clip040)" d="M828.218 1396.43 L833.103 1396.43 L833.103 1402.31 L828.218 1402.31 L828.218 1396.43 Z" fill="#000000" fill-rule="nonzero" fill-opacity="1" /><path clip-path="url(#clip040)" d="M843.334 1367.75 L861.69 1367.75 L861.69 1371.68 L847.616 1371.68 L847.616 1380.15 Q848.635 1379.81 849.653 1379.64 Q850.672 1379.46 851.69 1379.46 Q857.477 1379.46 860.857 1382.63 Q864.237 1385.8 864.237 1391.22 Q864.237 1396.8 860.764 1399.9 Q857.292 1402.98 850.973 1402.98 Q848.797 1402.98 846.528 1402.61 Q844.283 1402.24 841.876 1401.5 L841.876 1396.8 Q843.959 1397.93 846.181 1398.49 Q848.403 1399.04 850.88 1399.04 Q854.885 1399.04 857.223 1396.94 Q859.561 1394.83 859.561 1391.22 Q859.561 1387.61 857.223 1385.5 Q854.885 1383.39 850.88 1383.39 Q849.005 1383.39 847.13 1383.81 Q845.278 1384.23 843.334 1385.11 L843.334 1367.75 Z" fill="#000000" fill-rule="nonzero" fill-opacity="1" /><path clip-path="url(#clip040)" d="M1285.46 1367.75 L1303.82 1367.75 L1303.82 1371.68 L1289.75 1371.68 L1289.75 1380.15 Q1290.76 1379.81 1291.78 1379.64 Q1292.8 1379.46 1293.82 1379.46 Q1299.61 1379.46 1302.99 1382.63 Q1306.37 1385.8 1306.37 1391.22 Q1306.37 1396.8 1302.89 1399.9 Q1299.42 1402.98 1293.1 1402.98 Q1290.93 1402.98 1288.66 1402.61 Q1286.41 1402.24 1284.01 1401.5 L1284.01 1396.8 Q1286.09 1397.93 1288.31 1398.49 Q1290.53 1399.04 1293.01 1399.04 Q1297.01 1399.04 1299.35 1396.94 Q1301.69 1394.83 1301.69 1391.22 Q1301.69 1387.61 1299.35 1385.5 Q1297.01 1383.39 1293.01 1383.39 Q1291.14 1383.39 1289.26 1383.81 Q1287.41 1384.23 1285.46 1385.11 L1285.46 1367.75 Z" fill="#000000" fill-rule="nonzero" fill-opacity="1" /><path clip-path="url(#clip040)" d="M1315.58 1396.43 L1320.46 1396.43 L1320.46 1402.31 L1315.58 1402.31 L1315.58 1396.43 Z" fill="#000000" fill-rule="nonzero" fill-opacity="1" /><path clip-path="url(#clip040)" d="M1340.65 1370.82 Q1337.04 1370.82 1335.21 1374.39 Q1333.4 1377.93 1333.4 1385.06 Q1333.4 1392.17 1335.21 1395.73 Q1337.04 1399.27 1340.65 1399.27 Q1344.28 1399.27 1346.09 1395.73 Q1347.92 1392.17 1347.92 1385.06 Q1347.92 1377.93 1346.09 1374.39 Q1344.28 1370.82 1340.65 1370.82 M1340.65 1367.12 Q1346.46 1367.12 1349.51 1371.73 Q1352.59 1376.31 1352.59 1385.06 Q1352.59 1393.79 1349.51 1398.39 Q1346.46 1402.98 1340.65 1402.98 Q1334.84 1402.98 1331.76 1398.39 Q1328.7 1393.79 1328.7 1385.06 Q1328.7 1376.31 1331.76 1371.73 Q1334.84 1367.12 1340.65 1367.12 Z" fill="#000000" fill-rule="nonzero" fill-opacity="1" /><path clip-path="url(#clip040)" d="M1772.57 1367.75 L1794.79 1367.75 L1794.79 1369.74 L1782.25 1402.31 L1777.36 1402.31 L1789.17 1371.68 L1772.57 1371.68 L1772.57 1367.75 Z" fill="#000000" fill-rule="nonzero" fill-opacity="1" /><path clip-path="url(#clip040)" d="M1803.91 1396.43 L1808.8 1396.43 L1808.8 1402.31 L1803.91 1402.31 L1803.91 1396.43 Z" fill="#000000" fill-rule="nonzero" fill-opacity="1" /><path clip-path="url(#clip040)" d="M1819.03 1367.75 L1837.38 1367.75 L1837.38 1371.68 L1823.31 1371.68 L1823.31 1380.15 Q1824.33 1379.81 1825.35 1379.64 Q1826.37 1379.46 1827.38 1379.46 Q1833.17 1379.46 1836.55 1382.63 Q1839.93 1385.8 1839.93 1391.22 Q1839.93 1396.8 1836.46 1399.9 Q1832.99 1402.98 1826.67 1402.98 Q1824.49 1402.98 1822.22 1402.61 Q1819.98 1402.24 1817.57 1401.5 L1817.57 1396.8 Q1819.65 1397.93 1821.88 1398.49 Q1824.1 1399.04 1826.57 1399.04 Q1830.58 1399.04 1832.92 1396.94 Q1835.25 1394.83 1835.25 1391.22 Q1835.25 1387.61 1832.92 1385.5 Q1830.58 1383.39 1826.57 1383.39 Q1824.7 1383.39 1822.82 1383.81 Q1820.97 1384.23 1819.03 1385.11 L1819.03 1367.75 Z" fill="#000000" fill-rule="nonzero" fill-opacity="1" /><path clip-path="url(#clip040)" d="M2246.27 1398.37 L2253.91 1398.37 L2253.91 1372 L2245.6 1373.67 L2245.6 1369.41 L2253.87 1367.75 L2258.54 1367.75 L2258.54 1398.37 L2266.18 1398.37 L2266.18 1402.31 L2246.27 1402.31 L2246.27 1398.37 Z" fill="#000000" fill-rule="nonzero" fill-opacity="1" /><path clip-path="url(#clip040)" d="M2285.63 1370.82 Q2282.01 1370.82 2280.19 1374.39 Q2278.38 1377.93 2278.38 1385.06 Q2278.38 1392.17 2280.19 1395.73 Q2282.01 1399.27 2285.63 1399.27 Q2289.26 1399.27 2291.07 1395.73 Q2292.89 1392.17 2292.89 1385.06 Q2292.89 1377.93 2291.07 1374.39 Q2289.26 1370.82 2285.63 1370.82 M2285.63 1367.12 Q2291.44 1367.12 2294.49 1371.73 Q2297.57 1376.31 2297.57 1385.06 Q2297.57 1393.79 2294.49 1398.39 Q2291.44 1402.98 2285.63 1402.98 Q2279.82 1402.98 2276.74 1398.39 Q2273.68 1393.79 2273.68 1385.06 Q2273.68 1376.31 2276.74 1371.73 Q2279.82 1367.12 2285.63 1367.12 Z" fill="#000000" fill-rule="nonzero" fill-opacity="1" /><path clip-path="url(#clip040)" d="M2305.79 1396.43 L2310.67 1396.43 L2310.67 1402.31 L2305.79 1402.31 L2305.79 1396.43 Z" fill="#000000" fill-rule="nonzero" fill-opacity="1" /><path clip-path="url(#clip040)" d="M2330.86 1370.82 Q2327.25 1370.82 2325.42 1374.39 Q2323.61 1377.93 2323.61 1385.06 Q2323.61 1392.17 2325.42 1395.73 Q2327.25 1399.27 2330.86 1399.27 Q2334.49 1399.27 2336.3 1395.73 Q2338.13 1392.17 2338.13 1385.06 Q2338.13 1377.93 2336.3 1374.39 Q2334.49 1370.82 2330.86 1370.82 M2330.86 1367.12 Q2336.67 1367.12 2339.72 1371.73 Q2342.8 1376.31 2342.8 1385.06 Q2342.8 1393.79 2339.72 1398.39 Q2336.67 1402.98 2330.86 1402.98 Q2325.05 1402.98 2321.97 1398.39 Q2318.91 1393.79 2318.91 1385.06 Q2318.91 1376.31 2321.97 1371.73 Q2325.05 1367.12 2330.86 1367.12 Z" fill="#000000" fill-rule="nonzero" fill-opacity="1" /><polyline clip-path="url(#clip042)" style="stroke:#000000; stroke-linecap:round; stroke-linejoin:round; stroke-width:2; stroke-opacity:0.1; fill:none" points="283.843,1303.77 2352.76,1303.77 "/>
<polyline clip-path="url(#clip042)" style="stroke:#000000; stroke-linecap:round; stroke-linejoin:round; stroke-width:2; stroke-opacity:0.1; fill:none" points="283.843,1044.05 2352.76,1044.05 "/>
<polyline clip-path="url(#clip042)" style="stroke:#000000; stroke-linecap:round; stroke-linejoin:round; stroke-width:2; stroke-opacity:0.1; fill:none" points="283.843,784.329 2352.76,784.329 "/>
<polyline clip-path="url(#clip042)" style="stroke:#000000; stroke-linecap:round; stroke-linejoin:round; stroke-width:2; stroke-opacity:0.1; fill:none" points="283.843,524.61 2352.76,524.61 "/>
<polyline clip-path="url(#clip042)" style="stroke:#000000; stroke-linecap:round; stroke-linejoin:round; stroke-width:2; stroke-opacity:0.1; fill:none" points="283.843,264.891 2352.76,264.891 "/>
<polyline clip-path="url(#clip040)" style="stroke:#000000; stroke-linecap:round; stroke-linejoin:round; stroke-width:4; stroke-opacity:1; fill:none" points="283.843,1339.91 283.843,62.9921 "/>
<polyline clip-path="url(#clip040)" style="stroke:#000000; stroke-linecap:round; stroke-linejoin:round; stroke-width:4; stroke-opacity:1; fill:none" points="283.843,1303.77 302.74,1303.77 "/>
<polyline clip-path="url(#clip040)" style="stroke:#000000; stroke-linecap:round; stroke-linejoin:round; stroke-width:4; stroke-opacity:1; fill:none" points="283.843,1044.05 302.74,1044.05 "/>
<polyline clip-path="url(#clip040)" style="stroke:#000000; stroke-linecap:round; stroke-linejoin:round; stroke-width:4; stroke-opacity:1; fill:none" points="283.843,784.329 302.74,784.329 "/>
<polyline clip-path="url(#clip040)" style="stroke:#000000; stroke-linecap:round; stroke-linejoin:round; stroke-width:4; stroke-opacity:1; fill:none" points="283.843,524.61 302.74,524.61 "/>
<polyline clip-path="url(#clip040)" style="stroke:#000000; stroke-linecap:round; stroke-linejoin:round; stroke-width:4; stroke-opacity:1; fill:none" points="283.843,264.891 302.74,264.891 "/>
<path clip-path="url(#clip040)" d="M190.667 1289.57 Q187.056 1289.57 185.227 1293.13 Q183.422 1296.67 183.422 1303.8 Q183.422 1310.91 185.227 1314.47 Q187.056 1318.01 190.667 1318.01 Q194.301 1318.01 196.107 1314.47 Q197.935 1310.91 197.935 1303.8 Q197.935 1296.67 196.107 1293.13 Q194.301 1289.57 190.667 1289.57 M190.667 1285.86 Q196.477 1285.86 199.533 1290.47 Q202.611 1295.05 202.611 1303.8 Q202.611 1312.53 199.533 1317.13 Q196.477 1321.72 190.667 1321.72 Q184.857 1321.72 181.778 1317.13 Q178.723 1312.53 178.723 1303.8 Q178.723 1295.05 181.778 1290.47 Q184.857 1285.86 190.667 1285.86 Z" fill="#000000" fill-rule="nonzero" fill-opacity="1" /><path clip-path="url(#clip040)" d="M210.829 1315.17 L215.713 1315.17 L215.713 1321.05 L210.829 1321.05 L210.829 1315.17 Z" fill="#000000" fill-rule="nonzero" fill-opacity="1" /><path clip-path="url(#clip040)" d="M235.898 1289.57 Q232.287 1289.57 230.458 1293.13 Q228.653 1296.67 228.653 1303.8 Q228.653 1310.91 230.458 1314.47 Q232.287 1318.01 235.898 1318.01 Q239.532 1318.01 241.338 1314.47 Q243.167 1310.91 243.167 1303.8 Q243.167 1296.67 241.338 1293.13 Q239.532 1289.57 235.898 1289.57 M235.898 1285.86 Q241.708 1285.86 244.764 1290.47 Q247.843 1295.05 247.843 1303.8 Q247.843 1312.53 244.764 1317.13 Q241.708 1321.72 235.898 1321.72 Q230.088 1321.72 227.009 1317.13 Q223.954 1312.53 223.954 1303.8 Q223.954 1295.05 227.009 1290.47 Q230.088 1285.86 235.898 1285.86 Z" fill="#000000" fill-rule="nonzero" fill-opacity="1" /><path clip-path="url(#clip040)" d="M192.264 1029.85 Q188.653 1029.85 186.824 1033.41 Q185.019 1036.95 185.019 1044.08 Q185.019 1051.19 186.824 1054.75 Q188.653 1058.3 192.264 1058.3 Q195.898 1058.3 197.704 1054.75 Q199.533 1051.19 199.533 1044.08 Q199.533 1036.95 197.704 1033.41 Q195.898 1029.85 192.264 1029.85 M192.264 1026.14 Q198.074 1026.14 201.13 1030.75 Q204.208 1035.33 204.208 1044.08 Q204.208 1052.81 201.13 1057.42 Q198.074 1062 192.264 1062 Q186.454 1062 183.375 1057.42 Q180.32 1052.81 180.32 1044.08 Q180.32 1035.33 183.375 1030.75 Q186.454 1026.14 192.264 1026.14 Z" fill="#000000" fill-rule="nonzero" fill-opacity="1" /><path clip-path="url(#clip040)" d="M212.426 1055.45 L217.31 1055.45 L217.31 1061.33 L212.426 1061.33 L212.426 1055.45 Z" fill="#000000" fill-rule="nonzero" fill-opacity="1" /><path clip-path="url(#clip040)" d="M231.523 1057.39 L247.843 1057.39 L247.843 1061.33 L225.898 1061.33 L225.898 1057.39 Q228.56 1054.64 233.144 1050.01 Q237.75 1045.36 238.931 1044.01 Q241.176 1041.49 242.056 1039.75 Q242.958 1037.99 242.958 1036.3 Q242.958 1033.55 241.014 1031.81 Q239.093 1030.08 235.991 1030.08 Q233.792 1030.08 231.338 1030.84 Q228.907 1031.61 226.13 1033.16 L226.13 1028.43 Q228.954 1027.3 231.407 1026.72 Q233.861 1026.14 235.898 1026.14 Q241.268 1026.14 244.463 1028.83 Q247.657 1031.51 247.657 1036 Q247.657 1038.13 246.847 1040.05 Q246.06 1041.95 243.954 1044.55 Q243.375 1045.22 240.273 1048.43 Q237.171 1051.63 231.523 1057.39 Z" fill="#000000" fill-rule="nonzero" fill-opacity="1" /><path clip-path="url(#clip040)" d="M190.181 770.128 Q186.57 770.128 184.741 773.692 Q182.935 777.234 182.935 784.364 Q182.935 791.47 184.741 795.035 Q186.57 798.577 190.181 798.577 Q193.815 798.577 195.621 795.035 Q197.449 791.47 197.449 784.364 Q197.449 777.234 195.621 773.692 Q193.815 770.128 190.181 770.128 M190.181 766.424 Q195.991 766.424 199.046 771.03 Q202.125 775.614 202.125 784.364 Q202.125 793.09 199.046 797.697 Q195.991 802.28 190.181 802.28 Q184.371 802.28 181.292 797.697 Q178.236 793.09 178.236 784.364 Q178.236 775.614 181.292 771.03 Q184.371 766.424 190.181 766.424 Z" fill="#000000" fill-rule="nonzero" fill-opacity="1" /><path clip-path="url(#clip040)" d="M210.343 795.729 L215.227 795.729 L215.227 801.609 L210.343 801.609 L210.343 795.729 Z" fill="#000000" fill-rule="nonzero" fill-opacity="1" /><path clip-path="url(#clip040)" d="M238.259 771.123 L226.454 789.572 L238.259 789.572 L238.259 771.123 M237.032 767.049 L242.912 767.049 L242.912 789.572 L247.843 789.572 L247.843 793.461 L242.912 793.461 L242.912 801.609 L238.259 801.609 L238.259 793.461 L222.657 793.461 L222.657 788.947 L237.032 767.049 Z" fill="#000000" fill-rule="nonzero" fill-opacity="1" /><path clip-path="url(#clip040)" d="M190.505 510.409 Q186.894 510.409 185.065 513.974 Q183.26 517.515 183.26 524.645 Q183.26 531.751 185.065 535.316 Q186.894 538.858 190.505 538.858 Q194.139 538.858 195.945 535.316 Q197.773 531.751 197.773 524.645 Q197.773 517.515 195.945 513.974 Q194.139 510.409 190.505 510.409 M190.505 506.705 Q196.315 506.705 199.371 511.312 Q202.449 515.895 202.449 524.645 Q202.449 533.372 199.371 537.978 Q196.315 542.561 190.505 542.561 Q184.695 542.561 181.616 537.978 Q178.56 533.372 178.56 524.645 Q178.56 515.895 181.616 511.312 Q184.695 506.705 190.505 506.705 Z" fill="#000000" fill-rule="nonzero" fill-opacity="1" /><path clip-path="url(#clip040)" d="M210.667 536.011 L215.551 536.011 L215.551 541.89 L210.667 541.89 L210.667 536.011 Z" fill="#000000" fill-rule="nonzero" fill-opacity="1" /><path clip-path="url(#clip040)" d="M236.315 522.747 Q233.167 522.747 231.315 524.899 Q229.486 527.052 229.486 530.802 Q229.486 534.529 231.315 536.705 Q233.167 538.858 236.315 538.858 Q239.463 538.858 241.292 536.705 Q243.143 534.529 243.143 530.802 Q243.143 527.052 241.292 524.899 Q239.463 522.747 236.315 522.747 M245.597 508.094 L245.597 512.353 Q243.838 511.52 242.032 511.08 Q240.25 510.64 238.491 510.64 Q233.861 510.64 231.407 513.765 Q228.977 516.89 228.63 523.21 Q229.995 521.196 232.056 520.131 Q234.116 519.043 236.593 519.043 Q241.801 519.043 244.81 522.214 Q247.843 525.362 247.843 530.802 Q247.843 536.126 244.694 539.344 Q241.546 542.561 236.315 542.561 Q230.319 542.561 227.148 537.978 Q223.977 533.372 223.977 524.645 Q223.977 516.45 227.866 511.589 Q231.755 506.705 238.306 506.705 Q240.065 506.705 241.847 507.052 Q243.653 507.4 245.597 508.094 Z" fill="#000000" fill-rule="nonzero" fill-opacity="1" /><path clip-path="url(#clip040)" d="M190.759 250.69 Q187.148 250.69 185.32 254.255 Q183.514 257.796 183.514 264.926 Q183.514 272.033 185.32 275.597 Q187.148 279.139 190.759 279.139 Q194.394 279.139 196.199 275.597 Q198.028 272.033 198.028 264.926 Q198.028 257.796 196.199 254.255 Q194.394 250.69 190.759 250.69 M190.759 246.986 Q196.57 246.986 199.625 251.593 Q202.704 256.176 202.704 264.926 Q202.704 273.653 199.625 278.259 Q196.57 282.843 190.759 282.843 Q184.949 282.843 181.871 278.259 Q178.815 273.653 178.815 264.926 Q178.815 256.176 181.871 251.593 Q184.949 246.986 190.759 246.986 Z" fill="#000000" fill-rule="nonzero" fill-opacity="1" /><path clip-path="url(#clip040)" d="M210.921 276.292 L215.806 276.292 L215.806 282.171 L210.921 282.171 L210.921 276.292 Z" fill="#000000" fill-rule="nonzero" fill-opacity="1" /><path clip-path="url(#clip040)" d="M235.991 265.759 Q232.657 265.759 230.736 267.542 Q228.838 269.324 228.838 272.449 Q228.838 275.574 230.736 277.357 Q232.657 279.139 235.991 279.139 Q239.324 279.139 241.245 277.357 Q243.167 275.551 243.167 272.449 Q243.167 269.324 241.245 267.542 Q239.347 265.759 235.991 265.759 M231.315 263.769 Q228.306 263.028 226.616 260.968 Q224.949 258.908 224.949 255.945 Q224.949 251.801 227.889 249.394 Q230.852 246.986 235.991 246.986 Q241.153 246.986 244.093 249.394 Q247.032 251.801 247.032 255.945 Q247.032 258.908 245.343 260.968 Q243.676 263.028 240.69 263.769 Q244.069 264.556 245.944 266.847 Q247.843 269.139 247.843 272.449 Q247.843 277.472 244.764 280.157 Q241.708 282.843 235.991 282.843 Q230.273 282.843 227.194 280.157 Q224.139 277.472 224.139 272.449 Q224.139 269.139 226.037 266.847 Q227.935 264.556 231.315 263.769 M229.602 256.384 Q229.602 259.07 231.269 260.574 Q232.958 262.079 235.991 262.079 Q239 262.079 240.69 260.574 Q242.403 259.07 242.403 256.384 Q242.403 253.699 240.69 252.195 Q239 250.69 235.991 250.69 Q232.958 250.69 231.269 252.195 Q229.602 253.699 229.602 256.384 Z" fill="#000000" fill-rule="nonzero" fill-opacity="1" /><path clip-path="url(#clip040)" d="M84.1207 889.094 L90.9002 889.094 Q87.8765 892.34 86.3805 896.033 Q84.8846 899.693 84.8846 903.831 Q84.8846 911.979 89.8817 916.307 Q94.8469 920.636 104.268 920.636 Q113.658 920.636 118.655 916.307 Q123.62 911.979 123.62 903.831 Q123.62 899.693 122.124 896.033 Q120.628 892.34 117.604 889.094 L124.32 889.094 Q126.612 892.468 127.758 896.255 Q128.903 900.011 128.903 904.212 Q128.903 915.002 122.315 921.209 Q115.695 927.415 104.268 927.415 Q92.8099 927.415 86.2214 921.209 Q79.601 915.002 79.601 904.212 Q79.601 899.947 80.7469 896.192 Q81.8609 892.404 84.1207 889.094 Z" fill="#000000" fill-rule="nonzero" fill-opacity="1" /><path clip-path="url(#clip040)" d="M96.4383 865.604 Q96.4383 870.315 100.13 873.052 Q103.791 875.79 110.188 875.79 Q116.586 875.79 120.278 873.084 Q123.938 870.347 123.938 865.604 Q123.938 860.926 120.246 858.188 Q116.554 855.451 110.188 855.451 Q103.854 855.451 100.162 858.188 Q96.4383 860.926 96.4383 865.604 M91.4731 865.604 Q91.4731 857.966 96.4383 853.605 Q101.404 849.245 110.188 849.245 Q118.941 849.245 123.938 853.605 Q128.903 857.966 128.903 865.604 Q128.903 873.275 123.938 877.636 Q118.941 881.964 110.188 881.964 Q101.404 881.964 96.4383 877.636 Q91.4731 873.275 91.4731 865.604 Z" fill="#000000" fill-rule="nonzero" fill-opacity="1" /><path clip-path="url(#clip040)" d="M106.464 809.905 L127.98 809.905 L127.98 815.761 L106.655 815.761 Q101.595 815.761 99.0801 817.734 Q96.5656 819.708 96.5656 823.654 Q96.5656 828.397 99.5894 831.134 Q102.613 833.871 107.833 833.871 L127.98 833.871 L127.98 839.76 L92.3325 839.76 L92.3325 833.871 L97.8706 833.871 Q94.6559 831.771 93.0645 828.938 Q91.4731 826.073 91.4731 822.35 Q91.4731 816.207 95.2925 813.056 Q99.0801 809.905 106.464 809.905 Z" fill="#000000" fill-rule="nonzero" fill-opacity="1" /><path clip-path="url(#clip040)" d="M93.7011 772.57 L99.1756 772.57 Q97.807 775.052 97.1386 777.567 Q96.4383 780.049 96.4383 782.596 Q96.4383 788.293 100.067 791.444 Q103.663 794.595 110.188 794.595 Q116.713 794.595 120.342 791.444 Q123.938 788.293 123.938 782.596 Q123.938 780.049 123.27 777.567 Q122.57 775.052 121.201 772.57 L126.612 772.57 Q127.758 775.02 128.331 777.662 Q128.903 780.272 128.903 783.232 Q128.903 791.285 123.843 796.027 Q118.782 800.77 110.188 800.77 Q101.467 800.77 96.4702 795.995 Q91.4731 791.189 91.4731 782.85 Q91.4731 780.145 92.046 777.567 Q92.5871 774.989 93.7011 772.57 Z" fill="#000000" fill-rule="nonzero" fill-opacity="1" /><path clip-path="url(#clip040)" d="M108.692 731.893 L111.557 731.893 L111.557 758.82 Q117.604 758.438 120.787 755.191 Q123.938 751.913 123.938 746.088 Q123.938 742.715 123.111 739.563 Q122.283 736.381 120.628 733.261 L126.166 733.261 Q127.503 736.412 128.203 739.723 Q128.903 743.033 128.903 746.438 Q128.903 754.968 123.938 759.966 Q118.973 764.931 110.507 764.931 Q101.754 764.931 96.6293 760.22 Q91.4731 755.478 91.4731 747.457 Q91.4731 740.264 96.12 736.094 Q100.735 731.893 108.692 731.893 M106.974 737.749 Q102.167 737.813 99.3029 740.455 Q96.4383 743.065 96.4383 747.393 Q96.4383 752.295 99.2074 755.255 Q101.976 758.183 107.005 758.629 L106.974 737.749 Z" fill="#000000" fill-rule="nonzero" fill-opacity="1" /><path clip-path="url(#clip040)" d="M106.464 692.648 L127.98 692.648 L127.98 698.505 L106.655 698.505 Q101.595 698.505 99.0801 700.478 Q96.5656 702.451 96.5656 706.398 Q96.5656 711.141 99.5894 713.878 Q102.613 716.615 107.833 716.615 L127.98 716.615 L127.98 722.503 L92.3325 722.503 L92.3325 716.615 L97.8706 716.615 Q94.6559 714.514 93.0645 711.682 Q91.4731 708.817 91.4731 705.093 Q91.4731 698.95 95.2925 695.799 Q99.0801 692.648 106.464 692.648 Z" fill="#000000" fill-rule="nonzero" fill-opacity="1" /><path clip-path="url(#clip040)" d="M82.211 675.174 L92.3325 675.174 L92.3325 663.111 L96.8839 663.111 L96.8839 675.174 L116.236 675.174 Q120.596 675.174 121.838 673.997 Q123.079 672.787 123.079 669.127 L123.079 663.111 L127.98 663.111 L127.98 669.127 Q127.98 675.906 125.466 678.485 Q122.92 681.063 116.236 681.063 L96.8839 681.063 L96.8839 685.359 L92.3325 685.359 L92.3325 681.063 L82.211 681.063 L82.211 675.174 Z" fill="#000000" fill-rule="nonzero" fill-opacity="1" /><path clip-path="url(#clip040)" d="M97.807 634.752 Q97.234 635.739 96.9794 636.916 Q96.693 638.062 96.693 639.463 Q96.693 644.428 99.9395 647.102 Q103.154 649.743 109.202 649.743 L127.98 649.743 L127.98 655.632 L92.3325 655.632 L92.3325 649.743 L97.8706 649.743 Q94.6241 647.897 93.0645 644.937 Q91.4731 641.977 91.4731 637.744 Q91.4731 637.139 91.5686 636.407 Q91.6322 635.675 91.7914 634.784 L97.807 634.752 Z" fill="#000000" fill-rule="nonzero" fill-opacity="1" /><path clip-path="url(#clip040)" d="M110.061 612.408 Q110.061 619.506 111.684 622.244 Q113.307 624.981 117.222 624.981 Q120.342 624.981 122.188 622.944 Q124.002 620.875 124.002 617.342 Q124.002 612.472 120.564 609.544 Q117.095 606.584 111.366 606.584 L110.061 606.584 L110.061 612.408 M107.642 600.727 L127.98 600.727 L127.98 606.584 L122.57 606.584 Q125.816 608.589 127.376 611.581 Q128.903 614.573 128.903 618.902 Q128.903 624.376 125.848 627.623 Q122.761 630.837 117.604 630.837 Q111.589 630.837 108.533 626.827 Q105.478 622.785 105.478 614.796 L105.478 606.584 L104.905 606.584 Q100.863 606.584 98.6663 609.257 Q96.4383 611.899 96.4383 616.705 Q96.4383 619.761 97.1704 622.657 Q97.9024 625.554 99.3666 628.227 L93.9557 628.227 Q92.7144 625.013 92.1097 621.989 Q91.4731 618.965 91.4731 616.101 Q91.4731 608.366 95.4835 604.547 Q99.4939 600.727 107.642 600.727 Z" fill="#000000" fill-rule="nonzero" fill-opacity="1" /><path clip-path="url(#clip040)" d="M82.211 582.872 L92.3325 582.872 L92.3325 570.809 L96.8839 570.809 L96.8839 582.872 L116.236 582.872 Q120.596 582.872 121.838 581.694 Q123.079 580.484 123.079 576.824 L123.079 570.809 L127.98 570.809 L127.98 576.824 Q127.98 583.604 125.466 586.182 Q122.92 588.76 116.236 588.76 L96.8839 588.76 L96.8839 593.057 L92.3325 593.057 L92.3325 588.76 L82.211 588.76 L82.211 582.872 Z" fill="#000000" fill-rule="nonzero" fill-opacity="1" /><path clip-path="url(#clip040)" d="M92.3325 563.106 L92.3325 557.25 L127.98 557.25 L127.98 563.106 L92.3325 563.106 M78.4552 563.106 L78.4552 557.25 L85.8713 557.25 L85.8713 563.106 L78.4552 563.106 Z" fill="#000000" fill-rule="nonzero" fill-opacity="1" /><path clip-path="url(#clip040)" d="M96.4383 531.182 Q96.4383 535.893 100.13 538.63 Q103.791 541.367 110.188 541.367 Q116.586 541.367 120.278 538.662 Q123.938 535.925 123.938 531.182 Q123.938 526.503 120.246 523.766 Q116.554 521.029 110.188 521.029 Q103.854 521.029 100.162 523.766 Q96.4383 526.503 96.4383 531.182 M91.4731 531.182 Q91.4731 523.543 96.4383 519.183 Q101.404 514.822 110.188 514.822 Q118.941 514.822 123.938 519.183 Q128.903 523.543 128.903 531.182 Q128.903 538.853 123.938 543.213 Q118.941 547.542 110.188 547.542 Q101.404 547.542 96.4383 543.213 Q91.4731 538.853 91.4731 531.182 Z" fill="#000000" fill-rule="nonzero" fill-opacity="1" /><path clip-path="url(#clip040)" d="M106.464 475.482 L127.98 475.482 L127.98 481.339 L106.655 481.339 Q101.595 481.339 99.0801 483.312 Q96.5656 485.285 96.5656 489.232 Q96.5656 493.975 99.5894 496.712 Q102.613 499.449 107.833 499.449 L127.98 499.449 L127.98 505.337 L92.3325 505.337 L92.3325 499.449 L97.8706 499.449 Q94.6559 497.348 93.0645 494.516 Q91.4731 491.651 91.4731 487.927 Q91.4731 481.784 95.2925 478.633 Q99.0801 475.482 106.464 475.482 Z" fill="#000000" fill-rule="nonzero" fill-opacity="1" /><path clip-path="url(#clip040)" d="M1311.11 28.9478 L1311.11 35.9153 Q1307.95 34.1734 1304.75 33.3227 Q1301.59 32.4315 1298.35 32.4315 Q1291.1 32.4315 1287.09 37.0496 Q1283.08 41.6271 1283.08 49.9314 Q1283.08 58.2358 1287.09 62.8538 Q1291.1 67.4314 1298.35 67.4314 Q1301.59 67.4314 1304.75 66.5807 Q1307.95 65.6895 1311.11 63.9476 L1311.11 70.8341 Q1307.99 72.2924 1304.63 73.0216 Q1301.31 73.7508 1297.54 73.7508 Q1287.29 73.7508 1281.25 67.3098 Q1275.22 60.8689 1275.22 49.9314 Q1275.22 38.832 1281.29 32.472 Q1287.41 26.1121 1298.02 26.1121 Q1301.47 26.1121 1304.75 26.8413 Q1308.03 27.5299 1311.11 28.9478 Z" fill="#000000" fill-rule="nonzero" fill-opacity="1" /><path clip-path="url(#clip040)" d="M1326.54 65.6895 L1339.91 65.6895 L1339.91 19.5497 L1325.37 22.4663 L1325.37 15.0127 L1339.83 12.096 L1348.01 12.096 L1348.01 65.6895 L1361.38 65.6895 L1361.38 72.576 L1326.54 72.576 L1326.54 65.6895 Z" fill="#000000" fill-rule="nonzero" fill-opacity="1" /><circle clip-path="url(#clip042)" cx="537.577" cy="1104.63" r="14.4" fill="#009af9" fill-rule="evenodd" fill-opacity="1" stroke="#000000" stroke-opacity="1" stroke-width="3.2"/>
<circle clip-path="url(#clip042)" cx="732.758" cy="875.613" r="14.4" fill="#009af9" fill-rule="evenodd" fill-opacity="1" stroke="#000000" stroke-opacity="1" stroke-width="3.2"/>
<circle clip-path="url(#clip042)" cx="927.938" cy="529.74" r="14.4" fill="#009af9" fill-rule="evenodd" fill-opacity="1" stroke="#000000" stroke-opacity="1" stroke-width="3.2"/>
<circle clip-path="url(#clip042)" cx="1123.12" cy="337.286" r="14.4" fill="#009af9" fill-rule="evenodd" fill-opacity="1" stroke="#000000" stroke-opacity="1" stroke-width="3.2"/>
<circle clip-path="url(#clip042)" cx="1318.3" cy="264.695" r="14.4" fill="#009af9" fill-rule="evenodd" fill-opacity="1" stroke="#000000" stroke-opacity="1" stroke-width="3.2"/>
<circle clip-path="url(#clip042)" cx="1513.48" cy="210.155" r="14.4" fill="#009af9" fill-rule="evenodd" fill-opacity="1" stroke="#000000" stroke-opacity="1" stroke-width="3.2"/>
<circle clip-path="url(#clip042)" cx="1708.66" cy="361.787" r="14.4" fill="#009af9" fill-rule="evenodd" fill-opacity="1" stroke="#000000" stroke-opacity="1" stroke-width="3.2"/>
<circle clip-path="url(#clip042)" cx="1903.84" cy="333.275" r="14.4" fill="#009af9" fill-rule="evenodd" fill-opacity="1" stroke="#000000" stroke-opacity="1" stroke-width="3.2"/>
<circle clip-path="url(#clip042)" cx="2099.02" cy="308.326" r="14.4" fill="#009af9" fill-rule="evenodd" fill-opacity="1" stroke="#000000" stroke-opacity="1" stroke-width="3.2"/>
<circle clip-path="url(#clip042)" cx="2294.2" cy="205.825" r="14.4" fill="#009af9" fill-rule="evenodd" fill-opacity="1" stroke="#000000" stroke-opacity="1" stroke-width="3.2"/>
<polyline clip-path="url(#clip042)" style="stroke:#009af9; stroke-linecap:round; stroke-linejoin:round; stroke-width:4; stroke-opacity:1; fill:none" points="342.397,1303.77 342.496,1303.76 342.539,1303.76 342.61,1303.74 342.681,1303.73 342.756,1303.7 342.832,1303.68 342.911,1303.64 342.992,1303.61 343.076,1303.56 343.162,1303.51 343.252,1303.46 343.344,1303.4 343.44,1303.33 343.539,1303.25 343.642,1303.17 343.749,1303.08 343.859,1302.98 343.973,1302.88 344.092,1302.77 344.215,1302.65 344.343,1302.52 344.475,1302.38 344.613,1302.23 344.757,1302.07 344.906,1301.9 345.061,1301.72 345.223,1301.53 345.391,1301.32 345.567,1301.11 345.75,1300.88 345.942,1300.64 346.143,1300.38 346.353,1300.11 346.573,1299.82 346.803,1299.51 347.046,1299.19 347.301,1298.84 347.569,1298.47 347.853,1298.08 348.152,1297.67 348.468,1297.23 348.803,1296.76 349.158,1296.26 349.536,1295.73 349.938,1295.17 350.366,1294.56 350.823,1293.91 351.31,1293.22 351.832,1292.48 352.39,1291.68 352.988,1290.83 353.631,1289.91 354.321,1288.93 355.065,1287.87 355.869,1286.72 356.74,1285.48 357.69,1284.13 358.728,1282.65 359.873,1281.03 361.144,1279.22 362.568,1277.2 364.184,1274.91 366.045,1272.27 368.23,1269.18 370.867,1265.46 374.202,1260.77 379.282,1253.63 384.363,1246.53 390.064,1238.59 396.229,1230.04 402.855,1220.9 409.877,1211.26 417.252,1201.2 424.929,1190.78 432.863,1180.08 441.011,1169.17 449.334,1158.09 457.799,1146.89 466.375,1135.63 475.038,1124.34 483.763,1113.04 492.534,1101.77 501.334,1090.54 510.15,1079.38 518.973,1068.29 527.795,1057.28 536.618,1046.36 545.44,1035.52 554.263,1024.77 563.086,1014.1 571.908,1003.51 580.731,993.005 589.554,982.584 598.376,972.245 607.199,961.99 616.021,951.818 624.844,941.728 633.667,931.721 642.489,921.797 651.312,911.955 660.135,902.195 668.957,892.518 677.78,882.922 686.602,873.408 695.425,863.975 704.248,854.624 713.07,845.354 721.893,836.164 730.715,827.056 739.538,818.027 748.361,809.078 757.183,800.21 766.006,791.42 774.829,782.71 783.651,774.079 792.474,765.526 801.296,757.052 810.119,748.655 818.942,740.336 827.764,732.095 836.587,723.93 845.409,715.842 854.232,707.83 863.055,699.894 871.877,692.033 880.7,684.248 889.523,676.537 898.345,668.9 907.168,661.338 915.994,653.845 924.828,646.42 933.673,639.057 942.534,631.755 951.413,624.511 960.313,617.322 969.236,610.187 978.184,603.104 987.16,596.071 996.165,589.088 1005.2,582.153 1014.27,575.265 1023.38,568.423 1032.52,561.626 1041.7,554.874 1050.91,548.166 1060.17,541.501 1069.47,534.879 1078.82,528.299 1088.21,521.76 1097.64,515.263 1107.12,508.806 1116.66,502.39 1126.24,496.013 1135.87,489.676 1145.56,483.379 1155.3,477.12 1165.1,470.9 1174.95,464.718 1184.87,458.575 1194.84,452.469 1204.87,446.401 1214.97,440.37 1225.14,434.376 1235.37,428.419 1245.67,422.499 1256.03,416.615 1266.47,410.768 1276.99,404.957 1287.58,399.182 1298.24,393.442 1308.98,387.739 1319.81,382.071 1330.71,376.438 1341.7,370.841 1352.78,365.279 1363.95,359.752 1375.2,354.26 1386.55,348.803 1398,343.381 1409.54,337.993 1421.18,332.64 1432.93,327.322 1444.78,322.038 1456.74,316.789 1468.81,311.574 1480.99,306.393 1493.29,301.247 1505.71,296.135 1518.25,291.057 1530.92,286.013 1543.71,281.004 1556.64,276.029 1569.7,271.088 1582.91,266.181 1596.25,261.309 1609.75,256.471 1623.4,251.667 1637.2,246.897 1651.16,242.162 1665.29,237.461 1679.59,232.795 1694.06,228.163 1708.71,223.565 1723.55,219.002 1738.58,214.474 1753.8,209.981 1769.23,205.522 1784.87,201.099 1800.72,196.71 1816.8,192.357 1833.11,188.039 1849.66,183.756 1866.45,179.509 1883.5,175.297 1900.81,171.122 1918.4,166.982 1936.27,162.878 1954.43,158.811 1972.89,154.781 1991.68,150.787 2010.79,146.83 2030.24,142.91 2050.04,139.028 2070.21,135.183 2090.77,131.376 2111.73,127.608 2133.1,123.878 2154.91,120.186 2177.17,116.534 2199.91,112.922 2223.15,109.349 2246.91,105.816 2271.21,102.325 2294.2,99.1312 "/>
<path clip-path="url(#clip040)" d="M352.806 261.076 L868.469 261.076 L868.469 105.556 L352.806 105.556  Z" fill="#ffffff" fill-rule="evenodd" fill-opacity="1"/>
<polyline clip-path="url(#clip040)" style="stroke:#000000; stroke-linecap:round; stroke-linejoin:round; stroke-width:4; stroke-opacity:1; fill:none" points="352.806,261.076 868.469,261.076 868.469,105.556 352.806,105.556 352.806,261.076 "/>
<circle clip-path="url(#clip040)" cx="444.758" cy="157.396" r="20.48" fill="#009af9" fill-rule="evenodd" fill-opacity="1" stroke="#000000" stroke-opacity="1" stroke-width="4.55111"/>
<path clip-path="url(#clip040)" d="M541.386 143.958 L541.386 156.945 L547.265 156.945 Q550.529 156.945 552.311 155.255 Q554.094 153.565 554.094 150.44 Q554.094 147.338 552.311 145.648 Q550.529 143.958 547.265 143.958 L541.386 143.958 M536.71 140.116 L547.265 140.116 Q553.075 140.116 556.038 142.755 Q559.024 145.371 559.024 150.44 Q559.024 155.556 556.038 158.171 Q553.075 160.787 547.265 160.787 L541.386 160.787 L541.386 174.676 L536.71 174.676 L536.71 140.116 Z" fill="#000000" fill-rule="nonzero" fill-opacity="1" /><path clip-path="url(#clip040)" d="M590.413 138.704 Q587.311 144.028 585.807 149.236 Q584.302 154.445 584.302 159.792 Q584.302 165.139 585.807 170.394 Q587.334 175.625 590.413 180.926 L586.709 180.926 Q583.237 175.486 581.501 170.231 Q579.788 164.977 579.788 159.792 Q579.788 154.63 581.501 149.398 Q583.214 144.167 586.709 138.704 L590.413 138.704 Z" fill="#000000" fill-rule="nonzero" fill-opacity="1" /><path clip-path="url(#clip040)" d="M618.862 153.727 Q620.459 150.857 622.681 149.491 Q624.904 148.125 627.913 148.125 Q631.964 148.125 634.163 150.972 Q636.362 153.796 636.362 159.028 L636.362 174.676 L632.08 174.676 L632.08 159.167 Q632.08 155.44 630.76 153.634 Q629.441 151.829 626.732 151.829 Q623.422 151.829 621.501 154.028 Q619.58 156.227 619.58 160.023 L619.58 174.676 L615.297 174.676 L615.297 159.167 Q615.297 155.417 613.978 153.634 Q612.658 151.829 609.904 151.829 Q606.64 151.829 604.719 154.051 Q602.797 156.25 602.797 160.023 L602.797 174.676 L598.515 174.676 L598.515 148.75 L602.797 148.75 L602.797 152.778 Q604.256 150.394 606.293 149.259 Q608.33 148.125 611.131 148.125 Q613.955 148.125 615.922 149.56 Q617.913 150.995 618.862 153.727 Z" fill="#000000" fill-rule="nonzero" fill-opacity="1" /><path clip-path="url(#clip040)" d="M667.033 160.648 L667.033 162.732 L647.45 162.732 Q647.728 167.13 650.089 169.444 Q652.473 171.736 656.709 171.736 Q659.163 171.736 661.454 171.134 Q663.769 170.532 666.038 169.329 L666.038 173.356 Q663.746 174.329 661.339 174.838 Q658.931 175.347 656.454 175.347 Q650.251 175.347 646.617 171.736 Q643.005 168.125 643.005 161.968 Q643.005 155.602 646.431 151.875 Q649.88 148.125 655.714 148.125 Q660.945 148.125 663.978 151.505 Q667.033 154.861 667.033 160.648 M662.774 159.398 Q662.728 155.903 660.806 153.82 Q658.908 151.736 655.76 151.736 Q652.195 151.736 650.042 153.75 Q647.913 155.764 647.589 159.421 L662.774 159.398 Z" fill="#000000" fill-rule="nonzero" fill-opacity="1" /><path clip-path="url(#clip040)" d="M685.806 161.644 Q680.644 161.644 678.653 162.824 Q676.663 164.005 676.663 166.852 Q676.663 169.12 678.144 170.463 Q679.649 171.782 682.218 171.782 Q685.76 171.782 687.889 169.282 Q690.042 166.759 690.042 162.593 L690.042 161.644 L685.806 161.644 M694.301 159.884 L694.301 174.676 L690.042 174.676 L690.042 170.741 Q688.584 173.102 686.408 174.236 Q684.232 175.347 681.084 175.347 Q677.102 175.347 674.741 173.125 Q672.403 170.88 672.403 167.13 Q672.403 162.755 675.32 160.532 Q678.26 158.31 684.07 158.31 L690.042 158.31 L690.042 157.894 Q690.042 154.954 688.098 153.357 Q686.177 151.736 682.681 151.736 Q680.459 151.736 678.352 152.269 Q676.246 152.801 674.302 153.866 L674.302 149.931 Q676.64 149.028 678.839 148.588 Q681.038 148.125 683.121 148.125 Q688.746 148.125 691.524 151.042 Q694.301 153.958 694.301 159.884 Z" fill="#000000" fill-rule="nonzero" fill-opacity="1" /><path clip-path="url(#clip040)" d="M719.602 149.514 L719.602 153.542 Q717.797 152.616 715.852 152.153 Q713.908 151.69 711.825 151.69 Q708.653 151.69 707.056 152.662 Q705.482 153.634 705.482 155.579 Q705.482 157.06 706.616 157.917 Q707.75 158.75 711.176 159.514 L712.635 159.838 Q717.172 160.81 719.07 162.593 Q720.991 164.352 720.991 167.523 Q720.991 171.134 718.121 173.241 Q715.274 175.347 710.274 175.347 Q708.19 175.347 705.922 174.931 Q703.676 174.537 701.176 173.727 L701.176 169.329 Q703.538 170.556 705.829 171.181 Q708.121 171.782 710.366 171.782 Q713.375 171.782 714.996 170.764 Q716.616 169.722 716.616 167.847 Q716.616 166.111 715.436 165.185 Q714.278 164.259 710.32 163.403 L708.838 163.056 Q704.88 162.222 703.121 160.509 Q701.362 158.773 701.362 155.764 Q701.362 152.107 703.954 150.116 Q706.547 148.125 711.315 148.125 Q713.676 148.125 715.76 148.472 Q717.843 148.82 719.602 149.514 Z" fill="#000000" fill-rule="nonzero" fill-opacity="1" /><path clip-path="url(#clip040)" d="M727.334 164.444 L727.334 148.75 L731.593 148.75 L731.593 164.282 Q731.593 167.963 733.028 169.815 Q734.463 171.644 737.334 171.644 Q740.783 171.644 742.773 169.444 Q744.787 167.245 744.787 163.449 L744.787 148.75 L749.047 148.75 L749.047 174.676 L744.787 174.676 L744.787 170.694 Q743.236 173.056 741.176 174.213 Q739.139 175.347 736.431 175.347 Q731.963 175.347 729.648 172.569 Q727.334 169.792 727.334 164.444 M738.051 148.125 L738.051 148.125 Z" fill="#000000" fill-rule="nonzero" fill-opacity="1" /><path clip-path="url(#clip040)" d="M772.843 152.732 Q772.125 152.315 771.269 152.13 Q770.435 151.921 769.417 151.921 Q765.806 151.921 763.861 154.282 Q761.94 156.62 761.94 161.019 L761.94 174.676 L757.658 174.676 L757.658 148.75 L761.94 148.75 L761.94 152.778 Q763.283 150.417 765.435 149.283 Q767.588 148.125 770.667 148.125 Q771.107 148.125 771.639 148.195 Q772.171 148.241 772.82 148.357 L772.843 152.732 Z" fill="#000000" fill-rule="nonzero" fill-opacity="1" /><path clip-path="url(#clip040)" d="M798.444 160.648 L798.444 162.732 L778.861 162.732 Q779.139 167.13 781.5 169.444 Q783.884 171.736 788.12 171.736 Q790.574 171.736 792.866 171.134 Q795.181 170.532 797.449 169.329 L797.449 173.356 Q795.157 174.329 792.75 174.838 Q790.343 175.347 787.866 175.347 Q781.662 175.347 778.028 171.736 Q774.417 168.125 774.417 161.968 Q774.417 155.602 777.843 151.875 Q781.292 148.125 787.125 148.125 Q792.356 148.125 795.389 151.505 Q798.444 154.861 798.444 160.648 M794.185 159.398 Q794.139 155.903 792.218 153.82 Q790.319 151.736 787.171 151.736 Q783.607 151.736 781.454 153.75 Q779.324 155.764 779 159.421 L794.185 159.398 Z" fill="#000000" fill-rule="nonzero" fill-opacity="1" /><path clip-path="url(#clip040)" d="M822.495 152.685 L822.495 138.658 L826.754 138.658 L826.754 174.676 L822.495 174.676 L822.495 170.787 Q821.153 173.102 819.092 174.236 Q817.055 175.347 814.185 175.347 Q809.486 175.347 806.523 171.597 Q803.583 167.847 803.583 161.736 Q803.583 155.625 806.523 151.875 Q809.486 148.125 814.185 148.125 Q817.055 148.125 819.092 149.259 Q821.153 150.37 822.495 152.685 M807.981 161.736 Q807.981 166.435 809.903 169.12 Q811.847 171.782 815.227 171.782 Q818.606 171.782 820.551 169.12 Q822.495 166.435 822.495 161.736 Q822.495 157.037 820.551 154.375 Q818.606 151.69 815.227 151.69 Q811.847 151.69 809.903 154.375 Q807.981 157.037 807.981 161.736 Z" fill="#000000" fill-rule="nonzero" fill-opacity="1" /><path clip-path="url(#clip040)" d="M834.856 138.704 L838.56 138.704 Q842.032 144.167 843.745 149.398 Q845.481 154.63 845.481 159.792 Q845.481 164.977 843.745 170.231 Q842.032 175.486 838.56 180.926 L834.856 180.926 Q837.935 175.625 839.44 170.394 Q840.967 165.139 840.967 159.792 Q840.967 154.445 839.44 149.236 Q837.935 144.028 834.856 138.704 Z" fill="#000000" fill-rule="nonzero" fill-opacity="1" /><polyline clip-path="url(#clip040)" style="stroke:#009af9; stroke-linecap:round; stroke-linejoin:round; stroke-width:4; stroke-opacity:1; fill:none" points="375.794,209.236 513.722,209.236 "/>
<path clip-path="url(#clip040)" d="M541.386 195.798 L541.386 208.785 L547.265 208.785 Q550.529 208.785 552.311 207.095 Q554.094 205.405 554.094 202.28 Q554.094 199.178 552.311 197.488 Q550.529 195.798 547.265 195.798 L541.386 195.798 M536.71 191.956 L547.265 191.956 Q553.075 191.956 556.038 194.595 Q559.024 197.211 559.024 202.28 Q559.024 207.396 556.038 210.011 Q553.075 212.627 547.265 212.627 L541.386 212.627 L541.386 226.516 L536.71 226.516 L536.71 191.956 Z" fill="#000000" fill-rule="nonzero" fill-opacity="1" /><path clip-path="url(#clip040)" d="M590.413 190.544 Q587.311 195.868 585.807 201.076 Q584.302 206.285 584.302 211.632 Q584.302 216.979 585.807 222.234 Q587.334 227.465 590.413 232.766 L586.709 232.766 Q583.237 227.326 581.501 222.071 Q579.788 216.817 579.788 211.632 Q579.788 206.47 581.501 201.238 Q583.214 196.007 586.709 190.544 L590.413 190.544 Z" fill="#000000" fill-rule="nonzero" fill-opacity="1" /><path clip-path="url(#clip040)" d="M611.802 190.498 L611.802 194.039 L607.728 194.039 Q605.436 194.039 604.533 194.965 Q603.654 195.891 603.654 198.298 L603.654 200.59 L610.668 200.59 L610.668 203.9 L603.654 203.9 L603.654 226.516 L599.371 226.516 L599.371 203.9 L595.297 203.9 L595.297 200.59 L599.371 200.59 L599.371 198.785 Q599.371 194.456 601.385 192.488 Q603.399 190.498 607.774 190.498 L611.802 190.498 Z" fill="#000000" fill-rule="nonzero" fill-opacity="1" /><path clip-path="url(#clip040)" d="M615.367 200.59 L619.626 200.59 L619.626 226.516 L615.367 226.516 L615.367 200.59 M615.367 190.498 L619.626 190.498 L619.626 195.891 L615.367 195.891 L615.367 190.498 Z" fill="#000000" fill-rule="nonzero" fill-opacity="1" /><path clip-path="url(#clip040)" d="M632.751 193.229 L632.751 200.59 L641.524 200.59 L641.524 203.9 L632.751 203.9 L632.751 217.974 Q632.751 221.146 633.607 222.048 Q634.487 222.951 637.149 222.951 L641.524 222.951 L641.524 226.516 L637.149 226.516 Q632.218 226.516 630.343 224.687 Q628.468 222.835 628.468 217.974 L628.468 203.9 L625.343 203.9 L625.343 200.59 L628.468 200.59 L628.468 193.229 L632.751 193.229 Z" fill="#000000" fill-rule="nonzero" fill-opacity="1" /><path clip-path="url(#clip040)" d="M651.339 193.229 L651.339 200.59 L660.112 200.59 L660.112 203.9 L651.339 203.9 L651.339 217.974 Q651.339 221.146 652.195 222.048 Q653.075 222.951 655.737 222.951 L660.112 222.951 L660.112 226.516 L655.737 226.516 Q650.806 226.516 648.931 224.687 Q647.056 222.835 647.056 217.974 L647.056 203.9 L643.931 203.9 L643.931 200.59 L647.056 200.59 L647.056 193.229 L651.339 193.229 Z" fill="#000000" fill-rule="nonzero" fill-opacity="1" /><path clip-path="url(#clip040)" d="M687.889 212.488 L687.889 214.572 L668.306 214.572 Q668.584 218.97 670.945 221.284 Q673.329 223.576 677.565 223.576 Q680.019 223.576 682.311 222.974 Q684.626 222.372 686.894 221.169 L686.894 225.196 Q684.602 226.169 682.195 226.678 Q679.788 227.187 677.311 227.187 Q671.107 227.187 667.473 223.576 Q663.862 219.965 663.862 213.808 Q663.862 207.442 667.288 203.715 Q670.737 199.965 676.57 199.965 Q681.802 199.965 684.834 203.345 Q687.889 206.701 687.889 212.488 M683.63 211.238 Q683.584 207.743 681.663 205.66 Q679.765 203.576 676.616 203.576 Q673.052 203.576 670.899 205.59 Q668.769 207.604 668.445 211.261 L683.63 211.238 Z" fill="#000000" fill-rule="nonzero" fill-opacity="1" /><path clip-path="url(#clip040)" d="M711.94 204.525 L711.94 190.498 L716.199 190.498 L716.199 226.516 L711.94 226.516 L711.94 222.627 Q710.598 224.942 708.537 226.076 Q706.5 227.187 703.63 227.187 Q698.931 227.187 695.968 223.437 Q693.028 219.687 693.028 213.576 Q693.028 207.465 695.968 203.715 Q698.931 199.965 703.63 199.965 Q706.5 199.965 708.537 201.099 Q710.598 202.21 711.94 204.525 M697.426 213.576 Q697.426 218.275 699.348 220.96 Q701.292 223.622 704.672 223.622 Q708.051 223.622 709.996 220.96 Q711.94 218.275 711.94 213.576 Q711.94 208.877 709.996 206.215 Q708.051 203.53 704.672 203.53 Q701.292 203.53 699.348 206.215 Q697.426 208.877 697.426 213.576 Z" fill="#000000" fill-rule="nonzero" fill-opacity="1" /><path clip-path="url(#clip040)" d="M724.301 190.544 L728.005 190.544 Q731.477 196.007 733.19 201.238 Q734.926 206.47 734.926 211.632 Q734.926 216.817 733.19 222.071 Q731.477 227.326 728.005 232.766 L724.301 232.766 Q727.38 227.465 728.885 222.234 Q730.412 216.979 730.412 211.632 Q730.412 206.285 728.885 201.076 Q727.38 195.868 724.301 190.544 Z" fill="#000000" fill-rule="nonzero" fill-opacity="1" /></svg>
