<?xml version="1.0" encoding="utf-8"?>
<svg xmlns="http://www.w3.org/2000/svg" xmlns:xlink="http://www.w3.org/1999/xlink" width="600" height="400" viewBox="0 0 2400 1600">
<defs>
  <clipPath id="clip100">
    <rect x="0" y="0" width="2400" height="1600"/>
  </clipPath>
</defs>
<path clip-path="url(#clip100)" d="M0 1600 L2400 1600 L2400 0 L0 0  Z" fill="#ffffff" fill-rule="evenodd" fill-opacity="1"/>
<defs>
  <clipPath id="clip101">
    <rect x="480" y="0" width="1681" height="1600"/>
  </clipPath>
</defs>
<path clip-path="url(#clip100)" d="M283.843 1339.91 L2352.76 1339.91 L2352.76 62.9921 L283.843 62.9921  Z" fill="#ffffff" fill-rule="evenodd" fill-opacity="1"/>
<defs>
  <clipPath id="clip102">
    <rect x="283" y="62" width="2070" height="1278"/>
  </clipPath>
</defs>
<polyline clip-path="url(#clip102)" style="stroke:#000000; stroke-linecap:round; stroke-linejoin:round; stroke-width:2; stroke-opacity:0.1; fill:none" points="342.397,1339.91 342.397,62.9921 "/>
<polyline clip-path="url(#clip102)" style="stroke:#000000; stroke-linecap:round; stroke-linejoin:round; stroke-width:2; stroke-opacity:0.1; fill:none" points="830.348,1339.91 830.348,62.9921 "/>
<polyline clip-path="url(#clip102)" style="stroke:#000000; stroke-linecap:round; stroke-linejoin:round; stroke-width:2; stroke-opacity:0.1; fill:none" points="1318.3,1339.91 1318.3,62.9921 "/>
<polyline clip-path="url(#clip102)" style="stroke:#000000; stroke-linecap:round; stroke-linejoin:round; stroke-width:2; stroke-opacity:0.1; fill:none" points="1806.25,1339.91 1806.25,62.9921 "/>
<polyline clip-path="url(#clip102)" style="stroke:#000000; stroke-linecap:round; stroke-linejoin:round; stroke-width:2; stroke-opacity:0.1; fill:none" points="2294.2,1339.91 2294.2,62.9921 "/>
<polyline clip-path="url(#clip100)" style="stroke:#000000; stroke-linecap:round; stroke-linejoin:round; stroke-width:4; stroke-opacity:1; fill:none" points="283.843,1339.91 2352.76,1339.91 "/>
<polyline clip-path="url(#clip100)" style="stroke:#000000; stroke-linecap:round; stroke-linejoin:round; stroke-width:4; stroke-opacity:1; fill:none" points="342.397,1339.91 342.397,1321.01 "/>
<polyline clip-path="url(#clip100)" style="stroke:#000000; stroke-linecap:round; stroke-linejoin:round; stroke-width:4; stroke-opacity:1; fill:none" points="830.348,1339.91 830.348,1321.01 "/>
<polyline clip-path="url(#clip100)" style="stroke:#000000; stroke-linecap:round; stroke-linejoin:round; stroke-width:4; stroke-opacity:1; fill:none" points="1318.3,1339.91 1318.3,1321.01 "/>
<polyline clip-path="url(#clip100)" style="stroke:#000000; stroke-linecap:round; stroke-linejoin:round; stroke-width:4; stroke-opacity:1; fill:none" points="1806.25,1339.91 1806.25,1321.01 "/>
<polyline clip-path="url(#clip100)" style="stroke:#000000; stroke-linecap:round; stroke-linejoin:round; stroke-width:4; stroke-opacity:1; fill:none" points="2294.2,1339.91 2294.2,1321.01 "/>
<path clip-path="url(#clip100)" d="M319.781 1370.82 Q316.17 1370.82 314.341 1374.39 Q312.536 1377.93 312.536 1385.06 Q312.536 1392.17 314.341 1395.73 Q316.17 1399.27 319.781 1399.27 Q323.415 1399.27 325.221 1395.73 Q327.05 1392.17 327.05 1385.06 Q327.05 1377.93 325.221 1374.39 Q323.415 1370.82 319.781 1370.82 M319.781 1367.12 Q325.591 1367.12 328.647 1371.73 Q331.725 1376.31 331.725 1385.06 Q331.725 1393.79 328.647 1398.39 Q325.591 1402.98 319.781 1402.98 Q313.971 1402.98 310.892 1398.39 Q307.837 1393.79 307.837 1385.06 Q307.837 1376.31 310.892 1371.73 Q313.971 1367.12 319.781 1367.12 Z" fill="#000000" fill-rule="nonzero" fill-opacity="1" /><path clip-path="url(#clip100)" d="M339.943 1396.43 L344.827 1396.43 L344.827 1402.31 L339.943 1402.31 L339.943 1396.43 Z" fill="#000000" fill-rule="nonzero" fill-opacity="1" /><path clip-path="url(#clip100)" d="M365.012 1370.82 Q361.401 1370.82 359.573 1374.39 Q357.767 1377.93 357.767 1385.06 Q357.767 1392.17 359.573 1395.73 Q361.401 1399.27 365.012 1399.27 Q368.647 1399.27 370.452 1395.73 Q372.281 1392.17 372.281 1385.06 Q372.281 1377.93 370.452 1374.39 Q368.647 1370.82 365.012 1370.82 M365.012 1367.12 Q370.822 1367.12 373.878 1371.73 Q376.957 1376.31 376.957 1385.06 Q376.957 1393.79 373.878 1398.39 Q370.822 1402.98 365.012 1402.98 Q359.202 1402.98 356.123 1398.39 Q353.068 1393.79 353.068 1385.06 Q353.068 1376.31 356.123 1371.73 Q359.202 1367.12 365.012 1367.12 Z" fill="#000000" fill-rule="nonzero" fill-opacity="1" /><path clip-path="url(#clip100)" d="M802.084 1398.37 L818.404 1398.37 L818.404 1402.31 L796.459 1402.31 L796.459 1398.37 Q799.121 1395.62 803.705 1390.99 Q808.311 1386.33 809.492 1384.99 Q811.737 1382.47 812.617 1380.73 Q813.519 1378.97 813.519 1377.28 Q813.519 1374.53 811.575 1372.79 Q809.654 1371.06 806.552 1371.06 Q804.353 1371.06 801.899 1371.82 Q799.468 1372.58 796.691 1374.13 L796.691 1369.41 Q799.515 1368.28 801.968 1367.7 Q804.422 1367.12 806.459 1367.12 Q811.83 1367.12 815.024 1369.81 Q818.218 1372.49 818.218 1376.98 Q818.218 1379.11 817.408 1381.03 Q816.621 1382.93 814.515 1385.52 Q813.936 1386.19 810.834 1389.41 Q807.732 1392.61 802.084 1398.37 Z" fill="#000000" fill-rule="nonzero" fill-opacity="1" /><path clip-path="url(#clip100)" d="M828.218 1396.43 L833.103 1396.43 L833.103 1402.31 L828.218 1402.31 L828.218 1396.43 Z" fill="#000000" fill-rule="nonzero" fill-opacity="1" /><path clip-path="url(#clip100)" d="M843.334 1367.75 L861.69 1367.75 L861.69 1371.68 L847.616 1371.68 L847.616 1380.15 Q848.635 1379.81 849.653 1379.64 Q850.672 1379.46 851.69 1379.46 Q857.477 1379.46 860.857 1382.63 Q864.237 1385.8 864.237 1391.22 Q864.237 1396.8 860.764 1399.9 Q857.292 1402.98 850.973 1402.98 Q848.797 1402.98 846.528 1402.61 Q844.283 1402.24 841.876 1401.5 L841.876 1396.8 Q843.959 1397.93 846.181 1398.49 Q848.403 1399.04 850.88 1399.04 Q854.885 1399.04 857.223 1396.94 Q859.561 1394.83 859.561 1391.22 Q859.561 1387.61 857.223 1385.5 Q854.885 1383.39 850.88 1383.39 Q849.005 1383.39 847.13 1383.81 Q845.278 1384.23 843.334 1385.11 L843.334 1367.75 Z" fill="#000000" fill-rule="nonzero" fill-opacity="1" /><path clip-path="url(#clip100)" d="M1285.46 1367.75 L1303.82 1367.75 L1303.82 1371.68 L1289.75 1371.68 L1289.75 1380.15 Q1290.76 1379.81 1291.78 1379.64 Q1292.8 1379.46 1293.82 1379.46 Q1299.61 1379.46 1302.99 1382.63 Q1306.37 1385.8 1306.37 1391.22 Q1306.37 1396.8 1302.89 1399.9 Q1299.42 1402.98 1293.1 1402.98 Q1290.93 1402.98 1288.66 1402.61 Q1286.41 1402.24 1284.01 1401.5 L1284.01 1396.8 Q1286.09 1397.93 1288.31 1398.49 Q1290.53 1399.04 1293.01 1399.04 Q1297.01 1399.04 1299.35 1396.94 Q1301.69 1394.83 1301.69 1391.22 Q1301.69 1387.61 1299.35 1385.5 Q1297.01 1383.39 1293.01 1383.39 Q1291.14 1383.39 1289.26 1383.81 Q1287.41 1384.23 1285.46 1385.11 L1285.46 1367.75 Z" fill="#000000" fill-rule="nonzero" fill-opacity="1" /><path clip-path="url(#clip100)" d="M1315.58 1396.43 L1320.46 1396.43 L1320.46 1402.31 L1315.58 1402.31 L1315.58 1396.43 Z" fill="#000000" fill-rule="nonzero" fill-opacity="1" /><path clip-path="url(#clip100)" d="M1340.65 1370.82 Q1337.04 1370.82 1335.21 1374.39 Q1333.4 1377.93 1333.4 1385.06 Q1333.4 1392.17 1335.21 1395.73 Q1337.04 1399.27 1340.65 1399.27 Q1344.28 1399.27 1346.09 1395.73 Q1347.92 1392.17 1347.92 1385.06 Q1347.92 1377.93 1346.09 1374.39 Q1344.28 1370.82 1340.65 1370.82 M1340.65 1367.12 Q1346.46 1367.12 1349.51 1371.73 Q1352.59 1376.31 1352.59 1385.06 Q1352.59 1393.79 1349.51 1398.39 Q1346.46 1402.98 1340.65 1402.98 Q1334.84 1402.98 1331.76 1398.39 Q1328.7 1393.79 1328.7 1385.06 Q1328.7 1376.31 1331.76 1371.73 Q1334.84 1367.12 1340.65 1367.12 Z" fill="#000000" fill-rule="nonzero" fill-opacity="1" /><path clip-path="url(#clip100)" d="M1772.57 1367.75 L1794.79 1367.75 L1794.79 1369.74 L1782.25 1402.31 L1777.36 1402.31 L1789.17 1371.68 L1772.57 1371.68 L1772.57 1367.75 Z" fill="#000000" fill-rule="nonzero" fill-opacity="1" /><path clip-path="url(#clip100)" d="M1803.91 1396.43 L1808.8 1396.43 L1808.8 1402.31 L1803.91 1402.31 L1803.91 1396.43 Z" fill="#000000" fill-rule="nonzero" fill-opacity="1" /><path clip-path="url(#clip100)" d="M1819.03 1367.75 L1837.38 1367.75 L1837.38 1371.68 L1823.31 1371.68 L1823.31 1380.15 Q1824.33 1379.81 1825.35 1379.64 Q1826.37 1379.46 1827.38 1379.46 Q1833.17 1379.46 1836.55 1382.63 Q1839.93 1385.8 1839.93 1391.22 Q1839.93 1396.8 1836.46 1399.9 Q1832.99 1402.98 1826.67 1402.98 Q1824.49 1402.98 1822.22 1402.61 Q1819.98 1402.24 1817.57 1401.5 L1817.57 1396.8 Q1819.65 1397.93 1821.88 1398.49 Q1824.1 1399.04 1826.57 1399.04 Q1830.58 1399.04 1832.92 1396.94 Q1835.25 1394.83 1835.25 1391.22 Q1835.25 1387.61 1832.92 1385.5 Q1830.58 1383.39 1826.57 1383.39 Q1824.7 1383.39 1822.82 1383.81 Q1820.97 1384.23 1819.03 1385.11 L1819.03 1367.75 Z" fill="#000000" fill-rule="nonzero" fill-opacity="1" /><path clip-path="url(#clip100)" d="M2246.27 1398.37 L2253.91 1398.37 L2253.91 1372 L2245.6 1373.67 L2245.6 1369.41 L2253.87 1367.75 L2258.54 1367.75 L2258.54 1398.37 L2266.18 1398.37 L2266.18 1402.31 L2246.27 1402.31 L2246.27 1398.37 Z" fill="#000000" fill-rule="nonzero" fill-opacity="1" /><path clip-path="url(#clip100)" d="M2285.63 1370.82 Q2282.01 1370.82 2280.19 1374.39 Q2278.38 1377.93 2278.38 1385.06 Q2278.38 1392.17 2280.19 1395.73 Q2282.01 1399.27 2285.63 1399.27 Q2289.26 1399.27 2291.07 1395.73 Q2292.89 1392.17 2292.89 1385.06 Q2292.89 1377.93 2291.07 1374.39 Q2289.26 1370.82 2285.63 1370.82 M2285.63 1367.12 Q2291.44 1367.12 2294.49 1371.73 Q2297.57 1376.31 2297.57 1385.06 Q2297.57 1393.79 2294.49 1398.39 Q2291.44 1402.98 2285.63 1402.98 Q2279.82 1402.98 2276.74 1398.39 Q2273.68 1393.79 2273.68 1385.06 Q2273.68 1376.31 2276.74 1371.73 Q2279.82 1367.12 2285.63 1367.12 Z" fill="#000000" fill-rule="nonzero" fill-opacity="1" /><path clip-path="url(#clip100)" d="M2305.79 1396.43 L2310.67 1396.43 L2310.67 1402.31 L2305.79 1402.31 L2305.79 1396.43 Z" fill="#000000" fill-rule="nonzero" fill-opacity="1" /><path clip-path="url(#clip100)" d="M2330.86 1370.82 Q2327.25 1370.82 2325.42 1374.39 Q2323.61 1377.93 2323.61 1385.06 Q2323.61 1392.17 2325.42 1395.73 Q2327.25 1399.27 2330.86 1399.27 Q2334.49 1399.27 2336.3 1395.73 Q2338.13 1392.17 2338.13 1385.06 Q2338.13 1377.93 2336.3 1374.39 Q2334.49 1370.82 2330.86 1370.82 M2330.86 1367.12 Q2336.67 1367.12 2339.72 1371.73 Q2342.8 1376.31 2342.8 1385.06 Q2342.8 1393.79 2339.72 1398.39 Q2336.67 1402.98 2330.86 1402.98 Q2325.05 1402.98 2321.97 1398.39 Q2318.91 1393.79 2318.91 1385.06 Q2318.91 1376.31 2321.97 1371.73 Q2325.05 1367.12 2330.86 1367.12 Z" fill="#000000" fill-rule="nonzero" fill-opacity="1" /><polyline clip-path="url(#clip102)" style="stroke:#000000; stroke-linecap:round; stroke-linejoin:round; stroke-width:2; stroke-opacity:0.1; fill:none" points="283.843,1303.77 2352.76,1303.77 "/>
<polyline clip-path="url(#clip102)" style="stroke:#000000; stroke-linecap:round; stroke-linejoin:round; stroke-width:2; stroke-opacity:0.1; fill:none" points="283.843,1038.96 2352.76,1038.96 "/>
<polyline clip-path="url(#clip102)" style="stroke:#000000; stroke-linecap:round; stroke-linejoin:round; stroke-width:2; stroke-opacity:0.1; fill:none" points="283.843,774.146 2352.76,774.146 "/>
<polyline clip-path="url(#clip102)" style="stroke:#000000; stroke-linecap:round; stroke-linejoin:round; stroke-width:2; stroke-opacity:0.1; fill:none" points="283.843,509.336 2352.76,509.336 "/>
<polyline clip-path="url(#clip102)" style="stroke:#000000; stroke-linecap:round; stroke-linejoin:round; stroke-width:2; stroke-opacity:0.1; fill:none" points="283.843,244.526 2352.76,244.526 "/>
<polyline clip-path="url(#clip100)" style="stroke:#000000; stroke-linecap:round; stroke-linejoin:round; stroke-width:4; stroke-opacity:1; fill:none" points="283.843,1339.91 283.843,62.9921 "/>
<polyline clip-path="url(#clip100)" style="stroke:#000000; stroke-linecap:round; stroke-linejoin:round; stroke-width:4; stroke-opacity:1; fill:none" points="283.843,1303.77 302.74,1303.77 "/>
<polyline clip-path="url(#clip100)" style="stroke:#000000; stroke-linecap:round; stroke-linejoin:round; stroke-width:4; stroke-opacity:1; fill:none" points="283.843,1038.96 302.74,1038.96 "/>
<polyline clip-path="url(#clip100)" style="stroke:#000000; stroke-linecap:round; stroke-linejoin:round; stroke-width:4; stroke-opacity:1; fill:none" points="283.843,774.146 302.74,774.146 "/>
<polyline clip-path="url(#clip100)" style="stroke:#000000; stroke-linecap:round; stroke-linejoin:round; stroke-width:4; stroke-opacity:1; fill:none" points="283.843,509.336 302.74,509.336 "/>
<polyline clip-path="url(#clip100)" style="stroke:#000000; stroke-linecap:round; stroke-linejoin:round; stroke-width:4; stroke-opacity:1; fill:none" points="283.843,244.526 302.74,244.526 "/>
<path clip-path="url(#clip100)" d="M160.505 1289.57 Q156.894 1289.57 155.065 1293.13 Q153.26 1296.67 153.26 1303.8 Q153.26 1310.91 155.065 1314.47 Q156.894 1318.01 160.505 1318.01 Q164.139 1318.01 165.945 1314.47 Q167.774 1310.91 167.774 1303.8 Q167.774 1296.67 165.945 1293.13 Q164.139 1289.57 160.505 1289.57 M160.505 1285.86 Q166.315 1285.86 169.371 1290.47 Q172.449 1295.05 172.449 1303.8 Q172.449 1312.53 169.371 1317.13 Q166.315 1321.72 160.505 1321.72 Q154.695 1321.72 151.616 1317.13 Q148.561 1312.53 148.561 1303.8 Q148.561 1295.05 151.616 1290.47 Q154.695 1285.86 160.505 1285.86 Z" fill="#000000" fill-rule="nonzero" fill-opacity="1" /><path clip-path="url(#clip100)" d="M180.667 1315.17 L185.551 1315.17 L185.551 1321.05 L180.667 1321.05 L180.667 1315.17 Z" fill="#000000" fill-rule="nonzero" fill-opacity="1" /><path clip-path="url(#clip100)" d="M205.736 1289.57 Q202.125 1289.57 200.296 1293.13 Q198.491 1296.67 198.491 1303.8 Q198.491 1310.91 200.296 1314.47 Q202.125 1318.01 205.736 1318.01 Q209.371 1318.01 211.176 1314.47 Q213.005 1310.91 213.005 1303.8 Q213.005 1296.67 211.176 1293.13 Q209.371 1289.57 205.736 1289.57 M205.736 1285.86 Q211.546 1285.86 214.602 1290.47 Q217.681 1295.05 217.681 1303.8 Q217.681 1312.53 214.602 1317.13 Q211.546 1321.72 205.736 1321.72 Q199.926 1321.72 196.847 1317.13 Q193.792 1312.53 193.792 1303.8 Q193.792 1295.05 196.847 1290.47 Q199.926 1285.86 205.736 1285.86 Z" fill="#000000" fill-rule="nonzero" fill-opacity="1" /><path clip-path="url(#clip100)" d="M235.898 1289.57 Q232.287 1289.57 230.458 1293.13 Q228.653 1296.67 228.653 1303.8 Q228.653 1310.91 230.458 1314.47 Q232.287 1318.01 235.898 1318.01 Q239.532 1318.01 241.338 1314.47 Q243.167 1310.91 243.167 1303.8 Q243.167 1296.67 241.338 1293.13 Q239.532 1289.57 235.898 1289.57 M235.898 1285.86 Q241.708 1285.86 244.764 1290.47 Q247.843 1295.05 247.843 1303.8 Q247.843 1312.53 244.764 1317.13 Q241.708 1321.72 235.898 1321.72 Q230.088 1321.72 227.009 1317.13 Q223.954 1312.53 223.954 1303.8 Q223.954 1295.05 227.009 1290.47 Q230.088 1285.86 235.898 1285.86 Z" fill="#000000" fill-rule="nonzero" fill-opacity="1" /><path clip-path="url(#clip100)" d="M161.5 1024.75 Q157.889 1024.75 156.061 1028.32 Q154.255 1031.86 154.255 1038.99 Q154.255 1046.1 156.061 1049.66 Q157.889 1053.2 161.5 1053.2 Q165.135 1053.2 166.94 1049.66 Q168.769 1046.1 168.769 1038.99 Q168.769 1031.86 166.94 1028.32 Q165.135 1024.75 161.5 1024.75 M161.5 1021.05 Q167.311 1021.05 170.366 1025.66 Q173.445 1030.24 173.445 1038.99 Q173.445 1047.72 170.366 1052.32 Q167.311 1056.91 161.5 1056.91 Q155.69 1056.91 152.612 1052.32 Q149.556 1047.72 149.556 1038.99 Q149.556 1030.24 152.612 1025.66 Q155.69 1021.05 161.5 1021.05 Z" fill="#000000" fill-rule="nonzero" fill-opacity="1" /><path clip-path="url(#clip100)" d="M181.662 1050.36 L186.547 1050.36 L186.547 1056.24 L181.662 1056.24 L181.662 1050.36 Z" fill="#000000" fill-rule="nonzero" fill-opacity="1" /><path clip-path="url(#clip100)" d="M200.759 1052.3 L217.079 1052.3 L217.079 1056.24 L195.134 1056.24 L195.134 1052.3 Q197.796 1049.55 202.38 1044.92 Q206.986 1040.26 208.167 1038.92 Q210.412 1036.4 211.292 1034.66 Q212.195 1032.9 212.195 1031.21 Q212.195 1028.46 210.25 1026.72 Q208.329 1024.99 205.227 1024.99 Q203.028 1024.99 200.574 1025.75 Q198.144 1026.51 195.366 1028.07 L195.366 1023.34 Q198.19 1022.21 200.644 1021.63 Q203.097 1021.05 205.134 1021.05 Q210.505 1021.05 213.699 1023.74 Q216.894 1026.42 216.894 1030.91 Q216.894 1033.04 216.083 1034.96 Q215.296 1036.86 213.19 1039.45 Q212.611 1040.13 209.509 1043.34 Q206.408 1046.54 200.759 1052.3 Z" fill="#000000" fill-rule="nonzero" fill-opacity="1" /><path clip-path="url(#clip100)" d="M226.94 1021.68 L245.296 1021.68 L245.296 1025.61 L231.222 1025.61 L231.222 1034.08 Q232.241 1033.74 233.259 1033.57 Q234.278 1033.39 235.296 1033.39 Q241.083 1033.39 244.463 1036.56 Q247.843 1039.73 247.843 1045.15 Q247.843 1050.73 244.37 1053.83 Q240.898 1056.91 234.579 1056.91 Q232.403 1056.91 230.134 1056.54 Q227.889 1056.17 225.482 1055.43 L225.482 1050.73 Q227.565 1051.86 229.787 1052.42 Q232.009 1052.97 234.486 1052.97 Q238.491 1052.97 240.829 1050.87 Q243.167 1048.76 243.167 1045.15 Q243.167 1041.54 240.829 1039.43 Q238.491 1037.32 234.486 1037.32 Q232.611 1037.32 230.736 1037.74 Q228.884 1038.16 226.94 1039.04 L226.94 1021.68 Z" fill="#000000" fill-rule="nonzero" fill-opacity="1" /><path clip-path="url(#clip100)" d="M160.505 759.945 Q156.894 759.945 155.065 763.51 Q153.26 767.051 153.26 774.181 Q153.26 781.287 155.065 784.852 Q156.894 788.394 160.505 788.394 Q164.139 788.394 165.945 784.852 Q167.774 781.287 167.774 774.181 Q167.774 767.051 165.945 763.51 Q164.139 759.945 160.505 759.945 M160.505 756.241 Q166.315 756.241 169.371 760.848 Q172.449 765.431 172.449 774.181 Q172.449 782.908 169.371 787.514 Q166.315 792.097 160.505 792.097 Q154.695 792.097 151.616 787.514 Q148.561 782.908 148.561 774.181 Q148.561 765.431 151.616 760.848 Q154.695 756.241 160.505 756.241 Z" fill="#000000" fill-rule="nonzero" fill-opacity="1" /><path clip-path="url(#clip100)" d="M180.667 785.546 L185.551 785.546 L185.551 791.426 L180.667 791.426 L180.667 785.546 Z" fill="#000000" fill-rule="nonzero" fill-opacity="1" /><path clip-path="url(#clip100)" d="M195.783 756.866 L214.139 756.866 L214.139 760.801 L200.065 760.801 L200.065 769.273 Q201.084 768.926 202.102 768.764 Q203.121 768.579 204.139 768.579 Q209.926 768.579 213.306 771.75 Q216.685 774.922 216.685 780.338 Q216.685 785.917 213.213 789.019 Q209.741 792.097 203.421 792.097 Q201.246 792.097 198.977 791.727 Q196.732 791.357 194.324 790.616 L194.324 785.917 Q196.408 787.051 198.63 787.607 Q200.852 788.162 203.329 788.162 Q207.333 788.162 209.671 786.056 Q212.009 783.949 212.009 780.338 Q212.009 776.727 209.671 774.621 Q207.333 772.514 203.329 772.514 Q201.454 772.514 199.579 772.931 Q197.727 773.347 195.783 774.227 L195.783 756.866 Z" fill="#000000" fill-rule="nonzero" fill-opacity="1" /><path clip-path="url(#clip100)" d="M235.898 759.945 Q232.287 759.945 230.458 763.51 Q228.653 767.051 228.653 774.181 Q228.653 781.287 230.458 784.852 Q232.287 788.394 235.898 788.394 Q239.532 788.394 241.338 784.852 Q243.167 781.287 243.167 774.181 Q243.167 767.051 241.338 763.51 Q239.532 759.945 235.898 759.945 M235.898 756.241 Q241.708 756.241 244.764 760.848 Q247.843 765.431 247.843 774.181 Q247.843 782.908 244.764 787.514 Q241.708 792.097 235.898 792.097 Q230.088 792.097 227.009 787.514 Q223.954 782.908 223.954 774.181 Q223.954 765.431 227.009 760.848 Q230.088 756.241 235.898 756.241 Z" fill="#000000" fill-rule="nonzero" fill-opacity="1" /><path clip-path="url(#clip100)" d="M161.5 495.135 Q157.889 495.135 156.061 498.699 Q154.255 502.241 154.255 509.371 Q154.255 516.477 156.061 520.042 Q157.889 523.583 161.5 523.583 Q165.135 523.583 166.94 520.042 Q168.769 516.477 168.769 509.371 Q168.769 502.241 166.94 498.699 Q165.135 495.135 161.5 495.135 M161.5 491.431 Q167.311 491.431 170.366 496.037 Q173.445 500.621 173.445 509.371 Q173.445 518.097 170.366 522.704 Q167.311 527.287 161.5 527.287 Q155.69 527.287 152.612 522.704 Q149.556 518.097 149.556 509.371 Q149.556 500.621 152.612 496.037 Q155.69 491.431 161.5 491.431 Z" fill="#000000" fill-rule="nonzero" fill-opacity="1" /><path clip-path="url(#clip100)" d="M181.662 520.736 L186.547 520.736 L186.547 526.616 L181.662 526.616 L181.662 520.736 Z" fill="#000000" fill-rule="nonzero" fill-opacity="1" /><path clip-path="url(#clip100)" d="M195.551 492.056 L217.773 492.056 L217.773 494.047 L205.227 526.616 L200.343 526.616 L212.148 495.991 L195.551 495.991 L195.551 492.056 Z" fill="#000000" fill-rule="nonzero" fill-opacity="1" /><path clip-path="url(#clip100)" d="M226.94 492.056 L245.296 492.056 L245.296 495.991 L231.222 495.991 L231.222 504.463 Q232.241 504.116 233.259 503.954 Q234.278 503.769 235.296 503.769 Q241.083 503.769 244.463 506.94 Q247.843 510.111 247.843 515.528 Q247.843 521.107 244.37 524.208 Q240.898 527.287 234.579 527.287 Q232.403 527.287 230.134 526.917 Q227.889 526.546 225.482 525.806 L225.482 521.107 Q227.565 522.241 229.787 522.796 Q232.009 523.352 234.486 523.352 Q238.491 523.352 240.829 521.246 Q243.167 519.139 243.167 515.528 Q243.167 511.917 240.829 509.81 Q238.491 507.704 234.486 507.704 Q232.611 507.704 230.736 508.121 Q228.884 508.537 226.94 509.417 L226.94 492.056 Z" fill="#000000" fill-rule="nonzero" fill-opacity="1" /><path clip-path="url(#clip100)" d="M151.315 257.87 L158.954 257.87 L158.954 231.505 L150.644 233.172 L150.644 228.912 L158.908 227.246 L163.584 227.246 L163.584 257.87 L171.223 257.87 L171.223 261.806 L151.315 261.806 L151.315 257.87 Z" fill="#000000" fill-rule="nonzero" fill-opacity="1" /><path clip-path="url(#clip100)" d="M180.667 255.926 L185.551 255.926 L185.551 261.806 L180.667 261.806 L180.667 255.926 Z" fill="#000000" fill-rule="nonzero" fill-opacity="1" /><path clip-path="url(#clip100)" d="M205.736 230.324 Q202.125 230.324 200.296 233.889 Q198.491 237.431 198.491 244.56 Q198.491 251.667 200.296 255.232 Q202.125 258.773 205.736 258.773 Q209.371 258.773 211.176 255.232 Q213.005 251.667 213.005 244.56 Q213.005 237.431 211.176 233.889 Q209.371 230.324 205.736 230.324 M205.736 226.621 Q211.546 226.621 214.602 231.227 Q217.681 235.81 217.681 244.56 Q217.681 253.287 214.602 257.894 Q211.546 262.477 205.736 262.477 Q199.926 262.477 196.847 257.894 Q193.792 253.287 193.792 244.56 Q193.792 235.81 196.847 231.227 Q199.926 226.621 205.736 226.621 Z" fill="#000000" fill-rule="nonzero" fill-opacity="1" /><path clip-path="url(#clip100)" d="M235.898 230.324 Q232.287 230.324 230.458 233.889 Q228.653 237.431 228.653 244.56 Q228.653 251.667 230.458 255.232 Q232.287 258.773 235.898 258.773 Q239.532 258.773 241.338 255.232 Q243.167 251.667 243.167 244.56 Q243.167 237.431 241.338 233.889 Q239.532 230.324 235.898 230.324 M235.898 226.621 Q241.708 226.621 244.764 231.227 Q247.843 235.81 247.843 244.56 Q247.843 253.287 244.764 257.894 Q241.708 262.477 235.898 262.477 Q230.088 262.477 227.009 257.894 Q223.954 253.287 223.954 244.56 Q223.954 235.81 227.009 231.227 Q230.088 226.621 235.898 226.621 Z" fill="#000000" fill-rule="nonzero" fill-opacity="1" /><path clip-path="url(#clip100)" d="M54.4449 889.094 L61.2244 889.094 Q58.2007 892.34 56.7048 896.033 Q55.2088 899.693 55.2088 903.831 Q55.2088 911.979 60.2059 916.307 Q65.1711 920.636 74.5924 920.636 Q83.9818 920.636 88.9789 916.307 Q93.9441 911.979 93.9441 903.831 Q93.9441 899.693 92.4482 896.033 Q90.9523 892.34 87.9285 889.094 L94.6444 889.094 Q96.936 892.468 98.0818 896.255 Q99.2277 900.011 99.2277 904.212 Q99.2277 915.002 92.6392 921.209 Q86.0188 927.415 74.5924 927.415 Q63.1341 927.415 56.5456 921.209 Q49.9253 915.002 49.9253 904.212 Q49.9253 899.947 51.0711 896.192 Q52.1851 892.404 54.4449 889.094 Z" fill="#000000" fill-rule="nonzero" fill-opacity="1" /><path clip-path="url(#clip100)" d="M66.7626 865.604 Q66.7626 870.315 70.4547 873.052 Q74.115 875.79 80.5125 875.79 Q86.91 875.79 90.6021 873.084 Q94.2624 870.347 94.2624 865.604 Q94.2624 860.926 90.5703 858.188 Q86.8782 855.451 80.5125 855.451 Q74.1786 855.451 70.4865 858.188 Q66.7626 860.926 66.7626 865.604 M61.7973 865.604 Q61.7973 857.966 66.7626 853.605 Q71.7278 849.245 80.5125 849.245 Q89.2653 849.245 94.2624 853.605 Q99.2277 857.966 99.2277 865.604 Q99.2277 873.275 94.2624 877.636 Q89.2653 881.964 80.5125 881.964 Q71.7278 881.964 66.7626 877.636 Q61.7973 873.275 61.7973 865.604 Z" fill="#000000" fill-rule="nonzero" fill-opacity="1" /><path clip-path="url(#clip100)" d="M76.7886 809.905 L98.3046 809.905 L98.3046 815.761 L76.9795 815.761 Q71.9188 815.761 69.4043 817.734 Q66.8899 819.708 66.8899 823.654 Q66.8899 828.397 69.9136 831.134 Q72.9373 833.871 78.1572 833.871 L98.3046 833.871 L98.3046 839.76 L62.6567 839.76 L62.6567 833.871 L68.1949 833.871 Q64.9802 831.771 63.3887 828.938 Q61.7973 826.073 61.7973 822.35 Q61.7973 816.207 65.6167 813.056 Q69.4043 809.905 76.7886 809.905 Z" fill="#000000" fill-rule="nonzero" fill-opacity="1" /><path clip-path="url(#clip100)" d="M64.0253 772.57 L69.4998 772.57 Q68.1312 775.052 67.4628 777.567 Q66.7626 780.049 66.7626 782.596 Q66.7626 788.293 70.391 791.444 Q73.9876 794.595 80.5125 794.595 Q87.0373 794.595 90.6658 791.444 Q94.2624 788.293 94.2624 782.596 Q94.2624 780.049 93.594 777.567 Q92.8938 775.052 91.5252 772.57 L96.936 772.57 Q98.0818 775.02 98.6548 777.662 Q99.2277 780.272 99.2277 783.232 Q99.2277 791.285 94.1669 796.027 Q89.1062 800.77 80.5125 800.77 Q71.7915 800.77 66.7944 795.995 Q61.7973 791.189 61.7973 782.85 Q61.7973 780.145 62.3702 777.567 Q62.9113 774.989 64.0253 772.57 Z" fill="#000000" fill-rule="nonzero" fill-opacity="1" /><path clip-path="url(#clip100)" d="M79.0166 731.893 L81.8811 731.893 L81.8811 758.82 Q87.9285 758.438 91.1114 755.191 Q94.2624 751.913 94.2624 746.088 Q94.2624 742.715 93.4349 739.563 Q92.6073 736.381 90.9523 733.261 L96.4904 733.261 Q97.8272 736.412 98.5274 739.723 Q99.2277 743.033 99.2277 746.438 Q99.2277 754.968 94.2624 759.966 Q89.2972 764.931 80.8308 764.931 Q72.0779 764.931 66.9535 760.22 Q61.7973 755.478 61.7973 747.457 Q61.7973 740.264 66.4443 736.094 Q71.0594 731.893 79.0166 731.893 M77.2978 737.749 Q72.4917 737.813 69.6271 740.455 Q66.7626 743.065 66.7626 747.393 Q66.7626 752.295 69.5317 755.255 Q72.3007 758.183 77.3296 758.629 L77.2978 737.749 Z" fill="#000000" fill-rule="nonzero" fill-opacity="1" /><path clip-path="url(#clip100)" d="M76.7886 692.648 L98.3046 692.648 L98.3046 698.505 L76.9795 698.505 Q71.9188 698.505 69.4043 700.478 Q66.8899 702.451 66.8899 706.398 Q66.8899 711.141 69.9136 713.878 Q72.9373 716.615 78.1572 716.615 L98.3046 716.615 L98.3046 722.503 L62.6567 722.503 L62.6567 716.615 L68.1949 716.615 Q64.9802 714.514 63.3887 711.682 Q61.7973 708.817 61.7973 705.093 Q61.7973 698.95 65.6167 695.799 Q69.4043 692.648 76.7886 692.648 Z" fill="#000000" fill-rule="nonzero" fill-opacity="1" /><path clip-path="url(#clip100)" d="M52.5352 675.174 L62.6567 675.174 L62.6567 663.111 L67.2082 663.111 L67.2082 675.174 L86.5599 675.174 Q90.9204 675.174 92.1617 673.997 Q93.4031 672.787 93.4031 669.127 L93.4031 663.111 L98.3046 663.111 L98.3046 669.127 Q98.3046 675.906 95.7902 678.485 Q93.2439 681.063 86.5599 681.063 L67.2082 681.063 L67.2082 685.359 L62.6567 685.359 L62.6567 681.063 L52.5352 681.063 L52.5352 675.174 Z" fill="#000000" fill-rule="nonzero" fill-opacity="1" /><path clip-path="url(#clip100)" d="M68.1312 634.752 Q67.5583 635.739 67.3037 636.916 Q67.0172 638.062 67.0172 639.463 Q67.0172 644.428 70.2637 647.102 Q73.4784 649.743 79.5258 649.743 L98.3046 649.743 L98.3046 655.632 L62.6567 655.632 L62.6567 649.743 L68.1949 649.743 Q64.9483 647.897 63.3887 644.937 Q61.7973 641.977 61.7973 637.744 Q61.7973 637.139 61.8928 636.407 Q61.9565 635.675 62.1156 634.784 L68.1312 634.752 Z" fill="#000000" fill-rule="nonzero" fill-opacity="1" /><path clip-path="url(#clip100)" d="M80.3852 612.408 Q80.3852 619.506 82.0084 622.244 Q83.6317 624.981 87.5466 624.981 Q90.6658 624.981 92.5119 622.944 Q94.3261 620.875 94.3261 617.342 Q94.3261 612.472 90.8886 609.544 Q87.4193 606.584 81.6901 606.584 L80.3852 606.584 L80.3852 612.408 M77.9662 600.727 L98.3046 600.727 L98.3046 606.584 L92.8938 606.584 Q96.1403 608.589 97.6999 611.581 Q99.2277 614.573 99.2277 618.902 Q99.2277 624.376 96.1721 627.623 Q93.0848 630.837 87.9285 630.837 Q81.9129 630.837 78.8574 626.827 Q75.8019 622.785 75.8019 614.796 L75.8019 606.584 L75.229 606.584 Q71.1867 606.584 68.9906 609.257 Q66.7626 611.899 66.7626 616.705 Q66.7626 619.761 67.4946 622.657 Q68.2267 625.554 69.6908 628.227 L64.2799 628.227 Q63.0386 625.013 62.4339 621.989 Q61.7973 618.965 61.7973 616.101 Q61.7973 608.366 65.8077 604.547 Q69.8181 600.727 77.9662 600.727 Z" fill="#000000" fill-rule="nonzero" fill-opacity="1" /><path clip-path="url(#clip100)" d="M52.5352 582.872 L62.6567 582.872 L62.6567 570.809 L67.2082 570.809 L67.2082 582.872 L86.5599 582.872 Q90.9204 582.872 92.1617 581.694 Q93.4031 580.484 93.4031 576.824 L93.4031 570.809 L98.3046 570.809 L98.3046 576.824 Q98.3046 583.604 95.7902 586.182 Q93.2439 588.76 86.5599 588.76 L67.2082 588.76 L67.2082 593.057 L62.6567 593.057 L62.6567 588.76 L52.5352 588.76 L52.5352 582.872 Z" fill="#000000" fill-rule="nonzero" fill-opacity="1" /><path clip-path="url(#clip100)" d="M62.6567 563.106 L62.6567 557.25 L98.3046 557.25 L98.3046 563.106 L62.6567 563.106 M48.7794 563.106 L48.7794 557.25 L56.1955 557.25 L56.1955 563.106 L48.7794 563.106 Z" fill="#000000" fill-rule="nonzero" fill-opacity="1" /><path clip-path="url(#clip100)" d="M66.7626 531.182 Q66.7626 535.893 70.4547 538.63 Q74.115 541.367 80.5125 541.367 Q86.91 541.367 90.6021 538.662 Q94.2624 535.925 94.2624 531.182 Q94.2624 526.503 90.5703 523.766 Q86.8782 521.029 80.5125 521.029 Q74.1786 521.029 70.4865 523.766 Q66.7626 526.503 66.7626 531.182 M61.7973 531.182 Q61.7973 523.543 66.7626 519.183 Q71.7278 514.822 80.5125 514.822 Q89.2653 514.822 94.2624 519.183 Q99.2277 523.543 99.2277 531.182 Q99.2277 538.853 94.2624 543.213 Q89.2653 547.542 80.5125 547.542 Q71.7278 547.542 66.7626 543.213 Q61.7973 538.853 61.7973 531.182 Z" fill="#000000" fill-rule="nonzero" fill-opacity="1" /><path clip-path="url(#clip100)" d="M76.7886 475.482 L98.3046 475.482 L98.3046 481.339 L76.9795 481.339 Q71.9188 481.339 69.4043 483.312 Q66.8899 485.285 66.8899 489.232 Q66.8899 493.975 69.9136 496.712 Q72.9373 499.449 78.1572 499.449 L98.3046 499.449 L98.3046 505.337 L62.6567 505.337 L62.6567 499.449 L68.1949 499.449 Q64.9802 497.348 63.3887 494.516 Q61.7973 491.651 61.7973 487.927 Q61.7973 481.784 65.6167 478.633 Q69.4043 475.482 76.7886 475.482 Z" fill="#000000" fill-rule="nonzero" fill-opacity="1" /><path clip-path="url(#clip100)" d="M1311.43 28.9478 L1311.43 35.9153 Q1308.27 34.1734 1305.07 33.3227 Q1301.91 32.4315 1298.67 32.4315 Q1291.42 32.4315 1287.41 37.0496 Q1283.4 41.6271 1283.4 49.9314 Q1283.4 58.2358 1287.41 62.8538 Q1291.42 67.4314 1298.67 67.4314 Q1301.91 67.4314 1305.07 66.5807 Q1308.27 65.6895 1311.43 63.9476 L1311.43 70.8341 Q1308.31 72.2924 1304.95 73.0216 Q1301.63 73.7508 1297.86 73.7508 Q1287.61 73.7508 1281.58 67.3098 Q1275.54 60.8689 1275.54 49.9314 Q1275.54 38.832 1281.62 32.472 Q1287.74 26.1121 1298.35 26.1121 Q1301.79 26.1121 1305.07 26.8413 Q1308.35 27.5299 1311.43 28.9478 Z" fill="#000000" fill-rule="nonzero" fill-opacity="1" /><path clip-path="url(#clip100)" d="M1332.5 65.6895 L1361.06 65.6895 L1361.06 72.576 L1322.65 72.576 L1322.65 65.6895 Q1327.31 60.8689 1335.33 52.7671 Q1343.39 44.6248 1345.46 42.2752 Q1349.39 37.8598 1350.93 34.8216 Q1352.51 31.7429 1352.51 28.7857 Q1352.51 23.9651 1349.11 20.927 Q1345.74 17.8888 1340.32 17.8888 Q1336.47 17.8888 1332.17 19.2256 Q1327.92 20.5624 1323.06 23.2765 L1323.06 15.0127 Q1328 13.0277 1332.3 12.015 Q1336.59 11.0023 1340.15 11.0023 Q1349.55 11.0023 1355.14 15.7013 Q1360.73 20.4004 1360.73 28.2591 Q1360.73 31.9859 1359.31 35.3482 Q1357.94 38.6699 1354.25 43.2069 Q1353.24 44.3817 1347.81 50.0125 Q1342.38 55.6027 1332.5 65.6895 Z" fill="#000000" fill-rule="nonzero" fill-opacity="1" /><circle clip-path="url(#clip102)" cx="537.577" cy="560.721" r="14.4" fill="#009af9" fill-rule="evenodd" fill-opacity="1" stroke="#000000" stroke-opacity="1" stroke-width="3.2"/>
<circle clip-path="url(#clip102)" cx="732.758" cy="588.824" r="14.4" fill="#009af9" fill-rule="evenodd" fill-opacity="1" stroke="#000000" stroke-opacity="1" stroke-width="3.2"/>
<circle clip-path="url(#clip102)" cx="927.938" cy="466.904" r="14.4" fill="#009af9" fill-rule="evenodd" fill-opacity="1" stroke="#000000" stroke-opacity="1" stroke-width="3.2"/>
<circle clip-path="url(#clip102)" cx="1123.12" cy="193.777" r="14.4" fill="#009af9" fill-rule="evenodd" fill-opacity="1" stroke="#000000" stroke-opacity="1" stroke-width="3.2"/>
<circle clip-path="url(#clip102)" cx="1318.3" cy="523.868" r="14.4" fill="#009af9" fill-rule="evenodd" fill-opacity="1" stroke="#000000" stroke-opacity="1" stroke-width="3.2"/>
<circle clip-path="url(#clip102)" cx="1513.48" cy="190.564" r="14.4" fill="#009af9" fill-rule="evenodd" fill-opacity="1" stroke="#000000" stroke-opacity="1" stroke-width="3.2"/>
<circle clip-path="url(#clip102)" cx="1708.66" cy="251.344" r="14.4" fill="#009af9" fill-rule="evenodd" fill-opacity="1" stroke="#000000" stroke-opacity="1" stroke-width="3.2"/>
<circle clip-path="url(#clip102)" cx="1903.84" cy="114.128" r="14.4" fill="#009af9" fill-rule="evenodd" fill-opacity="1" stroke="#000000" stroke-opacity="1" stroke-width="3.2"/>
<circle clip-path="url(#clip102)" cx="2099.02" cy="318.218" r="14.4" fill="#009af9" fill-rule="evenodd" fill-opacity="1" stroke="#000000" stroke-opacity="1" stroke-width="3.2"/>
<circle clip-path="url(#clip102)" cx="2294.2" cy="99.1312" r="14.4" fill="#009af9" fill-rule="evenodd" fill-opacity="1" stroke="#000000" stroke-opacity="1" stroke-width="3.2"/>
<polyline clip-path="url(#clip102)" style="stroke:#009af9; stroke-linecap:round; stroke-linejoin:round; stroke-width:4; stroke-opacity:1; fill:none" points="342.397,244.526 342.536,271.977 342.597,283.208 342.698,300.728 342.8,317.021 342.906,332.868 343.015,347.946 343.127,362.451 343.244,376.32 343.364,389.609 343.489,402.314 343.619,414.456 343.753,426.042 343.893,437.084 344.038,447.59 344.188,457.571 344.345,467.035 344.508,475.991 344.677,484.448 344.854,492.416 345.039,499.904 345.231,506.922 345.432,513.48 345.642,519.588 345.863,525.257 346.093,530.499 346.335,535.324 346.589,539.746 346.856,543.777 347.138,547.431 347.434,550.721 347.748,553.662 348.079,556.268 348.43,558.557 348.803,560.544 349.198,562.248 349.619,563.685 350.068,564.875 350.546,565.838 351.057,566.593 351.604,567.161 352.189,567.562 352.816,567.816 353.489,567.942 354.212,567.958 354.992,567.88 355.834,567.721 356.746,567.492 357.74,567.201 358.827,566.852 360.025,566.447 361.353,565.983 362.842,565.456 364.529,564.854 366.472,564.158 368.751,563.342 371.505,562.356 375.015,561.103 381.701,558.723 386.372,557.066 392.257,554.987 398.265,552.873 404.764,550.597 411.571,548.224 418.703,545.75 426.108,543.195 433.765,540.569 441.642,537.881 449.719,535.143 457.972,532.362 466.386,529.546 474.943,526.7 483.631,523.831 492.437,520.943 501.352,518.041 510.368,515.127 519.477,512.205 528.675,509.277 537.956,506.347 547.316,503.414 556.752,500.482 566.263,497.552 575.845,494.624 585.498,491.7 595.221,488.78 605.013,485.866 614.874,482.958 624.803,480.057 634.802,477.162 644.871,474.275 655.009,471.396 665.219,468.526 675.501,465.663 685.856,462.81 696.285,459.965 706.79,457.13 717.372,454.304 728.033,451.487 738.773,448.68 749.596,445.884 760.503,443.097 771.495,440.32 782.575,437.553 793.744,434.797 805.004,432.052 816.359,429.317 827.809,426.593 839.357,423.88 851.006,421.177 862.759,418.486 874.616,415.806 886.582,413.138 898.659,410.481 910.85,407.835 923.158,405.201 935.585,402.579 948.135,399.969 960.811,397.371 973.616,394.785 986.554,392.212 999.629,389.651 1012.84,387.102 1026.2,384.566 1039.71,382.043 1053.37,379.533 1067.18,377.035 1081.16,374.551 1095.3,372.081 1109.61,369.623 1124.09,367.18 1138.76,364.75 1153.61,362.334 1168.66,359.932 1183.9,357.544 1199.34,355.171 1215,352.812 1230.87,350.468 1246.97,348.139 1263.29,345.825 1279.86,343.526 1296.67,341.242 1313.74,338.974 1331.07,336.721 1348.68,334.485 1366.57,332.264 1384.76,330.06 1403.25,327.873 1422.06,325.702 1441.19,323.548 1460.67,321.411 1480.5,319.292 1500.71,317.19 1521.29,315.106 1542.28,313.04 1563.69,310.992 1585.53,308.963 1607.83,306.953 1630.61,304.962 1653.89,302.991 1677.69,301.039 1702.04,299.107 1726.96,297.196 1752.49,295.305 1778.65,293.436 1805.48,291.588 1833.02,289.762 1861.31,287.958 1890.39,286.177 1920.3,284.419 1951.09,282.684 1982.83,280.974 2015.56,279.288 2049.37,277.628 2084.31,275.993 2120.47,274.385 2157.94,272.804 2196.81,271.25 2237.2,269.725 2279.22,268.229 2294.2,267.717 "/>
<circle clip-path="url(#clip102)" cx="537.577" cy="1219.1" r="14.4" fill="#e26f46" fill-rule="evenodd" fill-opacity="1" stroke="#000000" stroke-opacity="1" stroke-width="3.2"/>
<circle clip-path="url(#clip102)" cx="732.758" cy="1088.3" r="14.4" fill="#e26f46" fill-rule="evenodd" fill-opacity="1" stroke="#000000" stroke-opacity="1" stroke-width="3.2"/>
<circle clip-path="url(#clip102)" cx="927.938" cy="960.441" r="14.4" fill="#e26f46" fill-rule="evenodd" fill-opacity="1" stroke="#000000" stroke-opacity="1" stroke-width="3.2"/>
<circle clip-path="url(#clip102)" cx="1123.12" cy="983.749" r="14.4" fill="#e26f46" fill-rule="evenodd" fill-opacity="1" stroke="#000000" stroke-opacity="1" stroke-width="3.2"/>
<circle clip-path="url(#clip102)" cx="1318.3" cy="888.47" r="14.4" fill="#e26f46" fill-rule="evenodd" fill-opacity="1" stroke="#000000" stroke-opacity="1" stroke-width="3.2"/>
<circle clip-path="url(#clip102)" cx="1513.48" cy="892.024" r="14.4" fill="#e26f46" fill-rule="evenodd" fill-opacity="1" stroke="#000000" stroke-opacity="1" stroke-width="3.2"/>
<circle clip-path="url(#clip102)" cx="1708.66" cy="853.996" r="14.4" fill="#e26f46" fill-rule="evenodd" fill-opacity="1" stroke="#000000" stroke-opacity="1" stroke-width="3.2"/>
<circle clip-path="url(#clip102)" cx="1903.84" cy="807.327" r="14.4" fill="#e26f46" fill-rule="evenodd" fill-opacity="1" stroke="#000000" stroke-opacity="1" stroke-width="3.2"/>
<circle clip-path="url(#clip102)" cx="2099.02" cy="895.152" r="14.4" fill="#e26f46" fill-rule="evenodd" fill-opacity="1" stroke="#000000" stroke-opacity="1" stroke-width="3.2"/>
<circle clip-path="url(#clip102)" cx="2294.2" cy="785.321" r="14.4" fill="#e26f46" fill-rule="evenodd" fill-opacity="1" stroke="#000000" stroke-opacity="1" stroke-width="3.2"/>
<polyline clip-path="url(#clip102)" style="stroke:#e26f46; stroke-linecap:round; stroke-linejoin:round; stroke-width:4; stroke-opacity:1; fill:none" points="342.397,1303.77 342.536,1303.76 342.597,1303.76 342.698,1303.75 342.8,1303.73 342.906,1303.72 343.015,1303.69 343.127,1303.67 343.244,1303.64 343.364,1303.6 343.489,1303.56 343.619,1303.52 343.753,1303.47 343.893,1303.41 344.038,1303.35 344.188,1303.29 344.345,1303.21 344.508,1303.14 344.677,1303.05 344.854,1302.96 345.039,1302.86 345.231,1302.76 345.432,1302.65 345.642,1302.53 345.863,1302.4 346.093,1302.26 346.335,1302.11 346.589,1301.96 346.856,1301.79 347.138,1301.61 347.434,1301.42 347.748,1301.22 348.079,1301 348.43,1300.77 348.803,1300.52 349.198,1300.26 349.619,1299.98 350.068,1299.68 350.546,1299.35 351.057,1299.01 351.604,1298.64 352.189,1298.24 352.816,1297.81 353.489,1297.35 354.212,1296.86 354.992,1296.33 355.834,1295.76 356.746,1295.14 357.74,1294.46 358.827,1293.73 360.025,1292.91 361.353,1292.01 362.842,1291.01 364.529,1289.87 366.472,1288.56 368.751,1287.03 371.505,1285.19 375.015,1282.84 381.701,1278.41 386.372,1275.33 392.257,1271.47 398.265,1267.56 404.764,1263.36 411.571,1258.99 418.703,1254.45 426.108,1249.77 433.765,1244.98 441.642,1240.1 449.719,1235.14 457.972,1230.11 466.386,1225.04 474.943,1219.94 483.631,1214.8 492.437,1209.65 501.352,1204.5 510.368,1199.33 519.477,1194.18 528.675,1189.02 537.956,1183.88 547.316,1178.75 556.752,1173.64 566.263,1168.55 575.845,1163.48 585.498,1158.43 595.221,1153.4 605.013,1148.4 614.874,1143.42 624.803,1138.47 634.802,1133.54 644.871,1128.64 655.009,1123.77 665.219,1118.93 675.501,1114.11 685.856,1109.33 696.285,1104.57 706.79,1099.84 717.372,1095.13 728.033,1090.46 738.773,1085.81 749.596,1081.2 760.503,1076.61 771.495,1072.05 782.575,1067.51 793.744,1063.01 805.004,1058.53 816.359,1054.08 827.809,1049.66 839.357,1045.27 851.006,1040.91 862.759,1036.57 874.616,1032.27 886.582,1027.99 898.659,1023.74 910.85,1019.51 923.158,1015.32 935.585,1011.15 948.135,1007.01 960.811,1002.9 973.616,998.817 986.554,994.761 999.629,990.733 1012.84,986.733 1026.2,982.761 1039.71,978.817 1053.37,974.901 1067.18,971.012 1081.16,967.152 1095.3,963.32 1109.61,959.516 1124.09,955.74 1138.76,951.992 1153.61,948.272 1168.66,944.581 1183.9,940.918 1199.34,937.284 1215,933.678 1230.87,930.1 1246.97,926.552 1263.29,923.032 1279.86,919.541 1296.67,916.078 1313.74,912.645 1331.07,909.242 1348.68,905.867 1366.57,902.523 1384.76,899.207 1403.25,895.922 1422.06,892.667 1441.19,889.441 1460.67,886.247 1480.5,883.082 1500.71,879.949 1521.29,876.846 1542.28,873.774 1563.69,870.734 1585.53,867.726 1607.83,864.75 1630.61,861.805 1653.89,858.894 1677.69,856.015 1702.04,853.169 1726.96,850.357 1752.49,847.579 1778.65,844.835 1805.48,842.125 1833.02,839.451 1861.31,836.813 1890.39,834.21 1920.3,831.645 1951.09,829.116 1982.83,826.625 2015.56,824.173 2049.37,821.76 2084.31,819.386 2120.47,817.053 2157.94,814.762 2196.81,812.513 2237.2,810.307 2279.22,808.146 2294.2,807.407 "/>
<path clip-path="url(#clip100)" d="M1766.76 1297.34 L2283.79 1297.34 L2283.79 1038.14 L1766.76 1038.14  Z" fill="#ffffff" fill-rule="evenodd" fill-opacity="1"/>
<polyline clip-path="url(#clip100)" style="stroke:#000000; stroke-linecap:round; stroke-linejoin:round; stroke-width:4; stroke-opacity:1; fill:none" points="1766.76,1297.34 2283.79,1297.34 2283.79,1038.14 1766.76,1038.14 1766.76,1297.34 "/>
<circle clip-path="url(#clip100)" cx="1858.72" cy="1089.98" r="20.48" fill="#009af9" fill-rule="evenodd" fill-opacity="1" stroke="#000000" stroke-opacity="1" stroke-width="4.55111"/>
<path clip-path="url(#clip100)" d="M1950.67 1072.7 L1972.52 1072.7 L1972.52 1076.64 L1955.34 1076.64 L1955.34 1086.87 L1971.8 1086.87 L1971.8 1090.8 L1955.34 1090.8 L1955.34 1103.33 L1972.94 1103.33 L1972.94 1107.26 L1950.67 1107.26 L1950.67 1072.7 Z" fill="#000000" fill-rule="nonzero" fill-opacity="1" /><path clip-path="url(#clip100)" d="M2005.74 1071.29 Q2002.63 1076.61 2001.13 1081.82 Q1999.63 1087.03 1999.63 1092.38 Q1999.63 1097.72 2001.13 1102.98 Q2002.66 1108.21 2005.74 1113.51 L2002.03 1113.51 Q1998.56 1108.07 1996.82 1102.82 Q1995.11 1097.56 1995.11 1092.38 Q1995.11 1087.22 1996.82 1081.98 Q1998.54 1076.75 2002.03 1071.29 L2005.74 1071.29 Z" fill="#000000" fill-rule="nonzero" fill-opacity="1" /><path clip-path="url(#clip100)" d="M2034.19 1086.31 Q2035.78 1083.44 2038 1082.08 Q2040.23 1080.71 2043.24 1080.71 Q2047.29 1080.71 2049.49 1083.56 Q2051.68 1086.38 2051.68 1091.61 L2051.68 1107.26 L2047.4 1107.26 L2047.4 1091.75 Q2047.4 1088.03 2046.08 1086.22 Q2044.76 1084.41 2042.06 1084.41 Q2038.75 1084.41 2036.82 1086.61 Q2034.9 1088.81 2034.9 1092.61 L2034.9 1107.26 L2030.62 1107.26 L2030.62 1091.75 Q2030.62 1088 2029.3 1086.22 Q2027.98 1084.41 2025.23 1084.41 Q2021.96 1084.41 2020.04 1086.64 Q2018.12 1088.84 2018.12 1092.61 L2018.12 1107.26 L2013.84 1107.26 L2013.84 1081.34 L2018.12 1081.34 L2018.12 1085.36 Q2019.58 1082.98 2021.62 1081.85 Q2023.65 1080.71 2026.45 1080.71 Q2029.28 1080.71 2031.25 1082.15 Q2033.24 1083.58 2034.19 1086.31 Z" fill="#000000" fill-rule="nonzero" fill-opacity="1" /><path clip-path="url(#clip100)" d="M2082.36 1093.23 L2082.36 1095.32 L2062.77 1095.32 Q2063.05 1099.72 2065.41 1102.03 Q2067.8 1104.32 2072.03 1104.32 Q2074.49 1104.32 2076.78 1103.72 Q2079.09 1103.12 2081.36 1101.91 L2081.36 1105.94 Q2079.07 1106.91 2076.66 1107.42 Q2074.25 1107.93 2071.78 1107.93 Q2065.57 1107.93 2061.94 1104.32 Q2058.33 1100.71 2058.33 1094.55 Q2058.33 1088.19 2061.75 1084.46 Q2065.2 1080.71 2071.04 1080.71 Q2076.27 1080.71 2079.3 1084.09 Q2082.36 1087.45 2082.36 1093.23 M2078.1 1091.98 Q2078.05 1088.49 2076.13 1086.41 Q2074.23 1084.32 2071.08 1084.32 Q2067.52 1084.32 2065.37 1086.34 Q2063.24 1088.35 2062.91 1092.01 L2078.1 1091.98 Z" fill="#000000" fill-rule="nonzero" fill-opacity="1" /><path clip-path="url(#clip100)" d="M2101.13 1094.23 Q2095.97 1094.23 2093.98 1095.41 Q2091.99 1096.59 2091.99 1099.44 Q2091.99 1101.71 2093.47 1103.05 Q2094.97 1104.37 2097.54 1104.37 Q2101.08 1104.37 2103.21 1101.87 Q2105.37 1099.35 2105.37 1095.18 L2105.37 1094.23 L2101.13 1094.23 M2109.62 1092.47 L2109.62 1107.26 L2105.37 1107.26 L2105.37 1103.33 Q2103.91 1105.69 2101.73 1106.82 Q2099.56 1107.93 2096.41 1107.93 Q2092.43 1107.93 2090.06 1105.71 Q2087.73 1103.47 2087.73 1099.72 Q2087.73 1095.34 2090.64 1093.12 Q2093.58 1090.9 2099.39 1090.9 L2105.37 1090.9 L2105.37 1090.48 Q2105.37 1087.54 2103.42 1085.94 Q2101.5 1084.32 2098 1084.32 Q2095.78 1084.32 2093.68 1084.85 Q2091.57 1085.39 2089.62 1086.45 L2089.62 1082.52 Q2091.96 1081.61 2094.16 1081.17 Q2096.36 1080.71 2098.44 1080.71 Q2104.07 1080.71 2106.85 1083.63 Q2109.62 1086.54 2109.62 1092.47 Z" fill="#000000" fill-rule="nonzero" fill-opacity="1" /><path clip-path="url(#clip100)" d="M2134.93 1082.1 L2134.93 1086.13 Q2133.12 1085.2 2131.18 1084.74 Q2129.23 1084.28 2127.15 1084.28 Q2123.98 1084.28 2122.38 1085.25 Q2120.8 1086.22 2120.8 1088.16 Q2120.8 1089.65 2121.94 1090.5 Q2123.07 1091.34 2126.5 1092.1 L2127.96 1092.42 Q2132.49 1093.4 2134.39 1095.18 Q2136.31 1096.94 2136.31 1100.11 Q2136.31 1103.72 2133.44 1105.83 Q2130.6 1107.93 2125.6 1107.93 Q2123.51 1107.93 2121.24 1107.52 Q2119 1107.12 2116.5 1106.31 L2116.5 1101.91 Q2118.86 1103.14 2121.15 1103.77 Q2123.44 1104.37 2125.69 1104.37 Q2128.7 1104.37 2130.32 1103.35 Q2131.94 1102.31 2131.94 1100.43 Q2131.94 1098.7 2130.76 1097.77 Q2129.6 1096.85 2125.64 1095.99 L2124.16 1095.64 Q2120.2 1094.81 2118.44 1093.1 Q2116.68 1091.36 2116.68 1088.35 Q2116.68 1084.69 2119.28 1082.7 Q2121.87 1080.71 2126.64 1080.71 Q2129 1080.71 2131.08 1081.06 Q2133.17 1081.41 2134.93 1082.1 Z" fill="#000000" fill-rule="nonzero" fill-opacity="1" /><path clip-path="url(#clip100)" d="M2142.66 1097.03 L2142.66 1081.34 L2146.92 1081.34 L2146.92 1096.87 Q2146.92 1100.55 2148.35 1102.4 Q2149.79 1104.23 2152.66 1104.23 Q2156.11 1104.23 2158.1 1102.03 Q2160.11 1099.83 2160.11 1096.03 L2160.11 1081.34 L2164.37 1081.34 L2164.37 1107.26 L2160.11 1107.26 L2160.11 1103.28 Q2158.56 1105.64 2156.5 1106.8 Q2154.46 1107.93 2151.75 1107.93 Q2147.29 1107.93 2144.97 1105.16 Q2142.66 1102.38 2142.66 1097.03 M2153.37 1080.71 L2153.37 1080.71 Z" fill="#000000" fill-rule="nonzero" fill-opacity="1" /><path clip-path="url(#clip100)" d="M2188.17 1085.32 Q2187.45 1084.9 2186.59 1084.72 Q2185.76 1084.51 2184.74 1084.51 Q2181.13 1084.51 2179.18 1086.87 Q2177.26 1089.21 2177.26 1093.6 L2177.26 1107.26 L2172.98 1107.26 L2172.98 1081.34 L2177.26 1081.34 L2177.26 1085.36 Q2178.61 1083 2180.76 1081.87 Q2182.91 1080.71 2185.99 1080.71 Q2186.43 1080.71 2186.96 1080.78 Q2187.49 1080.83 2188.14 1080.94 L2188.17 1085.32 Z" fill="#000000" fill-rule="nonzero" fill-opacity="1" /><path clip-path="url(#clip100)" d="M2213.77 1093.23 L2213.77 1095.32 L2194.18 1095.32 Q2194.46 1099.72 2196.82 1102.03 Q2199.21 1104.32 2203.44 1104.32 Q2205.9 1104.32 2208.19 1103.72 Q2210.5 1103.12 2212.77 1101.91 L2212.77 1105.94 Q2210.48 1106.91 2208.07 1107.42 Q2205.67 1107.93 2203.19 1107.93 Q2196.99 1107.93 2193.35 1104.32 Q2189.74 1100.71 2189.74 1094.55 Q2189.74 1088.19 2193.17 1084.46 Q2196.61 1080.71 2202.45 1080.71 Q2207.68 1080.71 2210.71 1084.09 Q2213.77 1087.45 2213.77 1093.23 M2209.51 1091.98 Q2209.46 1088.49 2207.54 1086.41 Q2205.64 1084.32 2202.49 1084.32 Q2198.93 1084.32 2196.78 1086.34 Q2194.65 1088.35 2194.32 1092.01 L2209.51 1091.98 Z" fill="#000000" fill-rule="nonzero" fill-opacity="1" /><path clip-path="url(#clip100)" d="M2237.82 1085.27 L2237.82 1071.24 L2242.08 1071.24 L2242.08 1107.26 L2237.82 1107.26 L2237.82 1103.37 Q2236.48 1105.69 2234.42 1106.82 Q2232.38 1107.93 2229.51 1107.93 Q2224.81 1107.93 2221.85 1104.18 Q2218.91 1100.43 2218.91 1094.32 Q2218.91 1088.21 2221.85 1084.46 Q2224.81 1080.71 2229.51 1080.71 Q2232.38 1080.71 2234.42 1081.85 Q2236.48 1082.96 2237.82 1085.27 M2223.3 1094.32 Q2223.3 1099.02 2225.23 1101.71 Q2227.17 1104.37 2230.55 1104.37 Q2233.93 1104.37 2235.87 1101.71 Q2237.82 1099.02 2237.82 1094.32 Q2237.82 1089.62 2235.87 1086.96 Q2233.93 1084.28 2230.55 1084.28 Q2227.17 1084.28 2225.23 1086.96 Q2223.3 1089.62 2223.3 1094.32 Z" fill="#000000" fill-rule="nonzero" fill-opacity="1" /><path clip-path="url(#clip100)" d="M2250.18 1071.29 L2253.88 1071.29 Q2257.36 1076.75 2259.07 1081.98 Q2260.8 1087.22 2260.8 1092.38 Q2260.8 1097.56 2259.07 1102.82 Q2257.36 1108.07 2253.88 1113.51 L2250.18 1113.51 Q2253.26 1108.21 2254.76 1102.98 Q2256.29 1097.72 2256.29 1092.38 Q2256.29 1087.03 2254.76 1081.82 Q2253.26 1076.61 2250.18 1071.29 Z" fill="#000000" fill-rule="nonzero" fill-opacity="1" /><polyline clip-path="url(#clip100)" style="stroke:#009af9; stroke-linecap:round; stroke-linejoin:round; stroke-width:4; stroke-opacity:1; fill:none" points="1789.75,1141.82 1927.68,1141.82 "/>
<path clip-path="url(#clip100)" d="M1950.67 1124.54 L1972.52 1124.54 L1972.52 1128.48 L1955.34 1128.48 L1955.34 1138.71 L1971.8 1138.71 L1971.8 1142.64 L1955.34 1142.64 L1955.34 1155.17 L1972.94 1155.17 L1972.94 1159.1 L1950.67 1159.1 L1950.67 1124.54 Z" fill="#000000" fill-rule="nonzero" fill-opacity="1" /><path clip-path="url(#clip100)" d="M2005.74 1123.13 Q2002.63 1128.45 2001.13 1133.66 Q1999.63 1138.87 1999.63 1144.22 Q1999.63 1149.56 2001.13 1154.82 Q2002.66 1160.05 2005.74 1165.35 L2002.03 1165.35 Q1998.56 1159.91 1996.82 1154.66 Q1995.11 1149.4 1995.11 1144.22 Q1995.11 1139.06 1996.82 1133.82 Q1998.54 1128.59 2002.03 1123.13 L2005.74 1123.13 Z" fill="#000000" fill-rule="nonzero" fill-opacity="1" /><path clip-path="url(#clip100)" d="M2027.12 1123.08 L2027.12 1126.63 L2023.05 1126.63 Q2020.76 1126.63 2019.86 1127.55 Q2018.98 1128.48 2018.98 1130.88 L2018.98 1133.18 L2025.99 1133.18 L2025.99 1136.49 L2018.98 1136.49 L2018.98 1159.1 L2014.69 1159.1 L2014.69 1136.49 L2010.62 1136.49 L2010.62 1133.18 L2014.69 1133.18 L2014.69 1131.37 Q2014.69 1127.04 2016.71 1125.07 Q2018.72 1123.08 2023.1 1123.08 L2027.12 1123.08 Z" fill="#000000" fill-rule="nonzero" fill-opacity="1" /><path clip-path="url(#clip100)" d="M2030.69 1133.18 L2034.95 1133.18 L2034.95 1159.1 L2030.69 1159.1 L2030.69 1133.18 M2030.69 1123.08 L2034.95 1123.08 L2034.95 1128.48 L2030.69 1128.48 L2030.69 1123.08 Z" fill="#000000" fill-rule="nonzero" fill-opacity="1" /><path clip-path="url(#clip100)" d="M2048.07 1125.81 L2048.07 1133.18 L2056.85 1133.18 L2056.85 1136.49 L2048.07 1136.49 L2048.07 1150.56 Q2048.07 1153.73 2048.93 1154.63 Q2049.81 1155.54 2052.47 1155.54 L2056.85 1155.54 L2056.85 1159.1 L2052.47 1159.1 Q2047.54 1159.1 2045.67 1157.27 Q2043.79 1155.42 2043.79 1150.56 L2043.79 1136.49 L2040.67 1136.49 L2040.67 1133.18 L2043.79 1133.18 L2043.79 1125.81 L2048.07 1125.81 Z" fill="#000000" fill-rule="nonzero" fill-opacity="1" /><path clip-path="url(#clip100)" d="M2066.66 1125.81 L2066.66 1133.18 L2075.43 1133.18 L2075.43 1136.49 L2066.66 1136.49 L2066.66 1150.56 Q2066.66 1153.73 2067.52 1154.63 Q2068.4 1155.54 2071.06 1155.54 L2075.43 1155.54 L2075.43 1159.1 L2071.06 1159.1 Q2066.13 1159.1 2064.25 1157.27 Q2062.38 1155.42 2062.38 1150.56 L2062.38 1136.49 L2059.25 1136.49 L2059.25 1133.18 L2062.38 1133.18 L2062.38 1125.81 L2066.66 1125.81 Z" fill="#000000" fill-rule="nonzero" fill-opacity="1" /><path clip-path="url(#clip100)" d="M2103.21 1145.07 L2103.21 1147.16 L2083.63 1147.16 Q2083.91 1151.56 2086.27 1153.87 Q2088.65 1156.16 2092.89 1156.16 Q2095.34 1156.16 2097.63 1155.56 Q2099.95 1154.96 2102.22 1153.75 L2102.22 1157.78 Q2099.93 1158.75 2097.52 1159.26 Q2095.11 1159.77 2092.63 1159.77 Q2086.43 1159.77 2082.8 1156.16 Q2079.18 1152.55 2079.18 1146.39 Q2079.18 1140.03 2082.61 1136.3 Q2086.06 1132.55 2091.89 1132.55 Q2097.12 1132.55 2100.16 1135.93 Q2103.21 1139.29 2103.21 1145.07 M2098.95 1143.82 Q2098.91 1140.33 2096.99 1138.25 Q2095.09 1136.16 2091.94 1136.16 Q2088.37 1136.16 2086.22 1138.18 Q2084.09 1140.19 2083.77 1143.85 L2098.95 1143.82 Z" fill="#000000" fill-rule="nonzero" fill-opacity="1" /><path clip-path="url(#clip100)" d="M2127.26 1137.11 L2127.26 1123.08 L2131.52 1123.08 L2131.52 1159.1 L2127.26 1159.1 L2127.26 1155.21 Q2125.92 1157.53 2123.86 1158.66 Q2121.82 1159.77 2118.95 1159.77 Q2114.25 1159.77 2111.29 1156.02 Q2108.35 1152.27 2108.35 1146.16 Q2108.35 1140.05 2111.29 1136.3 Q2114.25 1132.55 2118.95 1132.55 Q2121.82 1132.55 2123.86 1133.69 Q2125.92 1134.8 2127.26 1137.11 M2112.75 1146.16 Q2112.75 1150.86 2114.67 1153.55 Q2116.62 1156.21 2119.99 1156.21 Q2123.37 1156.21 2125.32 1153.55 Q2127.26 1150.86 2127.26 1146.16 Q2127.26 1141.46 2125.32 1138.8 Q2123.37 1136.12 2119.99 1136.12 Q2116.62 1136.12 2114.67 1138.8 Q2112.75 1141.46 2112.75 1146.16 Z" fill="#000000" fill-rule="nonzero" fill-opacity="1" /><path clip-path="url(#clip100)" d="M2139.62 1123.13 L2143.33 1123.13 Q2146.8 1128.59 2148.51 1133.82 Q2150.25 1139.06 2150.25 1144.22 Q2150.25 1149.4 2148.51 1154.66 Q2146.8 1159.91 2143.33 1165.35 L2139.62 1165.35 Q2142.7 1160.05 2144.21 1154.82 Q2145.74 1149.56 2145.74 1144.22 Q2145.74 1138.87 2144.21 1133.66 Q2142.7 1128.45 2139.62 1123.13 Z" fill="#000000" fill-rule="nonzero" fill-opacity="1" /><circle clip-path="url(#clip100)" cx="1858.72" cy="1193.66" r="20.48" fill="#e26f46" fill-rule="evenodd" fill-opacity="1" stroke="#000000" stroke-opacity="1" stroke-width="4.55111"/>
<path clip-path="url(#clip100)" d="M1950.67 1176.38 L1972.52 1176.38 L1972.52 1180.32 L1955.34 1180.32 L1955.34 1190.55 L1971.8 1190.55 L1971.8 1194.48 L1955.34 1194.48 L1955.34 1207.01 L1972.94 1207.01 L1972.94 1210.94 L1950.67 1210.94 L1950.67 1176.38 Z" fill="#000000" fill-rule="nonzero" fill-opacity="1" /><path clip-path="url(#clip100)" d="M2005.74 1174.97 Q2002.63 1180.29 2001.13 1185.5 Q1999.63 1190.71 1999.63 1196.06 Q1999.63 1201.4 2001.13 1206.66 Q2002.66 1211.89 2005.74 1217.19 L2002.03 1217.19 Q1998.56 1211.75 1996.82 1206.5 Q1995.11 1201.24 1995.11 1196.06 Q1995.11 1190.9 1996.82 1185.66 Q1998.54 1180.43 2002.03 1174.97 L2005.74 1174.97 Z" fill="#000000" fill-rule="nonzero" fill-opacity="1" /><path clip-path="url(#clip100)" d="M2034.19 1189.99 Q2035.78 1187.12 2038 1185.76 Q2040.23 1184.39 2043.24 1184.39 Q2047.29 1184.39 2049.49 1187.24 Q2051.68 1190.06 2051.68 1195.29 L2051.68 1210.94 L2047.4 1210.94 L2047.4 1195.43 Q2047.4 1191.71 2046.08 1189.9 Q2044.76 1188.09 2042.06 1188.09 Q2038.75 1188.09 2036.82 1190.29 Q2034.9 1192.49 2034.9 1196.29 L2034.9 1210.94 L2030.62 1210.94 L2030.62 1195.43 Q2030.62 1191.68 2029.3 1189.9 Q2027.98 1188.09 2025.23 1188.09 Q2021.96 1188.09 2020.04 1190.32 Q2018.12 1192.52 2018.12 1196.29 L2018.12 1210.94 L2013.84 1210.94 L2013.84 1185.02 L2018.12 1185.02 L2018.12 1189.04 Q2019.58 1186.66 2021.62 1185.53 Q2023.65 1184.39 2026.45 1184.39 Q2029.28 1184.39 2031.25 1185.83 Q2033.24 1187.26 2034.19 1189.99 Z" fill="#000000" fill-rule="nonzero" fill-opacity="1" /><path clip-path="url(#clip100)" d="M2082.36 1196.91 L2082.36 1199 L2062.77 1199 Q2063.05 1203.4 2065.41 1205.71 Q2067.8 1208 2072.03 1208 Q2074.49 1208 2076.78 1207.4 Q2079.09 1206.8 2081.36 1205.59 L2081.36 1209.62 Q2079.07 1210.59 2076.66 1211.1 Q2074.25 1211.61 2071.78 1211.61 Q2065.57 1211.61 2061.94 1208 Q2058.33 1204.39 2058.33 1198.23 Q2058.33 1191.87 2061.75 1188.14 Q2065.2 1184.39 2071.04 1184.39 Q2076.27 1184.39 2079.3 1187.77 Q2082.36 1191.13 2082.36 1196.91 M2078.1 1195.66 Q2078.05 1192.17 2076.13 1190.09 Q2074.23 1188 2071.08 1188 Q2067.52 1188 2065.37 1190.02 Q2063.24 1192.03 2062.91 1195.69 L2078.1 1195.66 Z" fill="#000000" fill-rule="nonzero" fill-opacity="1" /><path clip-path="url(#clip100)" d="M2101.13 1197.91 Q2095.97 1197.91 2093.98 1199.09 Q2091.99 1200.27 2091.99 1203.12 Q2091.99 1205.39 2093.47 1206.73 Q2094.97 1208.05 2097.54 1208.05 Q2101.08 1208.05 2103.21 1205.55 Q2105.37 1203.03 2105.37 1198.86 L2105.37 1197.91 L2101.13 1197.91 M2109.62 1196.15 L2109.62 1210.94 L2105.37 1210.94 L2105.37 1207.01 Q2103.91 1209.37 2101.73 1210.5 Q2099.56 1211.61 2096.41 1211.61 Q2092.43 1211.61 2090.06 1209.39 Q2087.73 1207.15 2087.73 1203.4 Q2087.73 1199.02 2090.64 1196.8 Q2093.58 1194.58 2099.39 1194.58 L2105.37 1194.58 L2105.37 1194.16 Q2105.37 1191.22 2103.42 1189.62 Q2101.5 1188 2098 1188 Q2095.78 1188 2093.68 1188.53 Q2091.57 1189.07 2089.62 1190.13 L2089.62 1186.2 Q2091.96 1185.29 2094.16 1184.85 Q2096.36 1184.39 2098.44 1184.39 Q2104.07 1184.39 2106.85 1187.31 Q2109.62 1190.22 2109.62 1196.15 Z" fill="#000000" fill-rule="nonzero" fill-opacity="1" /><path clip-path="url(#clip100)" d="M2134.93 1185.78 L2134.93 1189.81 Q2133.12 1188.88 2131.18 1188.42 Q2129.23 1187.96 2127.15 1187.96 Q2123.98 1187.96 2122.38 1188.93 Q2120.8 1189.9 2120.8 1191.84 Q2120.8 1193.33 2121.94 1194.18 Q2123.07 1195.02 2126.5 1195.78 L2127.96 1196.1 Q2132.49 1197.08 2134.39 1198.86 Q2136.31 1200.62 2136.31 1203.79 Q2136.31 1207.4 2133.44 1209.51 Q2130.6 1211.61 2125.6 1211.61 Q2123.51 1211.61 2121.24 1211.2 Q2119 1210.8 2116.5 1209.99 L2116.5 1205.59 Q2118.86 1206.82 2121.15 1207.45 Q2123.44 1208.05 2125.69 1208.05 Q2128.7 1208.05 2130.32 1207.03 Q2131.94 1205.99 2131.94 1204.11 Q2131.94 1202.38 2130.76 1201.45 Q2129.6 1200.53 2125.64 1199.67 L2124.16 1199.32 Q2120.2 1198.49 2118.44 1196.78 Q2116.68 1195.04 2116.68 1192.03 Q2116.68 1188.37 2119.28 1186.38 Q2121.87 1184.39 2126.64 1184.39 Q2129 1184.39 2131.08 1184.74 Q2133.17 1185.09 2134.93 1185.78 Z" fill="#000000" fill-rule="nonzero" fill-opacity="1" /><path clip-path="url(#clip100)" d="M2142.66 1200.71 L2142.66 1185.02 L2146.92 1185.02 L2146.92 1200.55 Q2146.92 1204.23 2148.35 1206.08 Q2149.79 1207.91 2152.66 1207.91 Q2156.11 1207.91 2158.1 1205.71 Q2160.11 1203.51 2160.11 1199.71 L2160.11 1185.02 L2164.37 1185.02 L2164.37 1210.94 L2160.11 1210.94 L2160.11 1206.96 Q2158.56 1209.32 2156.5 1210.48 Q2154.46 1211.61 2151.75 1211.61 Q2147.29 1211.61 2144.97 1208.84 Q2142.66 1206.06 2142.66 1200.71 M2153.37 1184.39 L2153.37 1184.39 Z" fill="#000000" fill-rule="nonzero" fill-opacity="1" /><path clip-path="url(#clip100)" d="M2188.17 1189 Q2187.45 1188.58 2186.59 1188.4 Q2185.76 1188.19 2184.74 1188.19 Q2181.13 1188.19 2179.18 1190.55 Q2177.26 1192.89 2177.26 1197.28 L2177.26 1210.94 L2172.98 1210.94 L2172.98 1185.02 L2177.26 1185.02 L2177.26 1189.04 Q2178.61 1186.68 2180.76 1185.55 Q2182.91 1184.39 2185.99 1184.39 Q2186.43 1184.39 2186.96 1184.46 Q2187.49 1184.51 2188.14 1184.62 L2188.17 1189 Z" fill="#000000" fill-rule="nonzero" fill-opacity="1" /><path clip-path="url(#clip100)" d="M2213.77 1196.91 L2213.77 1199 L2194.18 1199 Q2194.46 1203.4 2196.82 1205.71 Q2199.21 1208 2203.44 1208 Q2205.9 1208 2208.19 1207.4 Q2210.5 1206.8 2212.77 1205.59 L2212.77 1209.62 Q2210.48 1210.59 2208.07 1211.1 Q2205.67 1211.61 2203.19 1211.61 Q2196.99 1211.61 2193.35 1208 Q2189.74 1204.39 2189.74 1198.23 Q2189.74 1191.87 2193.17 1188.14 Q2196.61 1184.39 2202.45 1184.39 Q2207.68 1184.39 2210.71 1187.77 Q2213.77 1191.13 2213.77 1196.91 M2209.51 1195.66 Q2209.46 1192.17 2207.54 1190.09 Q2205.64 1188 2202.49 1188 Q2198.93 1188 2196.78 1190.02 Q2194.65 1192.03 2194.32 1195.69 L2209.51 1195.66 Z" fill="#000000" fill-rule="nonzero" fill-opacity="1" /><path clip-path="url(#clip100)" d="M2237.82 1188.95 L2237.82 1174.92 L2242.08 1174.92 L2242.08 1210.94 L2237.82 1210.94 L2237.82 1207.05 Q2236.48 1209.37 2234.42 1210.5 Q2232.38 1211.61 2229.51 1211.61 Q2224.81 1211.61 2221.85 1207.86 Q2218.91 1204.11 2218.91 1198 Q2218.91 1191.89 2221.85 1188.14 Q2224.81 1184.39 2229.51 1184.39 Q2232.38 1184.39 2234.42 1185.53 Q2236.48 1186.64 2237.82 1188.95 M2223.3 1198 Q2223.3 1202.7 2225.23 1205.39 Q2227.17 1208.05 2230.55 1208.05 Q2233.93 1208.05 2235.87 1205.39 Q2237.82 1202.7 2237.82 1198 Q2237.82 1193.3 2235.87 1190.64 Q2233.93 1187.96 2230.55 1187.96 Q2227.17 1187.96 2225.23 1190.64 Q2223.3 1193.3 2223.3 1198 Z" fill="#000000" fill-rule="nonzero" fill-opacity="1" /><path clip-path="url(#clip100)" d="M2250.18 1174.97 L2253.88 1174.97 Q2257.36 1180.43 2259.07 1185.66 Q2260.8 1190.9 2260.8 1196.06 Q2260.8 1201.24 2259.07 1206.5 Q2257.36 1211.75 2253.88 1217.19 L2250.18 1217.19 Q2253.26 1211.89 2254.76 1206.66 Q2256.29 1201.4 2256.29 1196.06 Q2256.29 1190.71 2254.76 1185.5 Q2253.26 1180.29 2250.18 1174.97 Z" fill="#000000" fill-rule="nonzero" fill-opacity="1" /><polyline clip-path="url(#clip100)" style="stroke:#e26f46; stroke-linecap:round; stroke-linejoin:round; stroke-width:4; stroke-opacity:1; fill:none" points="1789.75,1245.5 1927.68,1245.5 "/>
<path clip-path="url(#clip100)" d="M1950.67 1228.22 L1972.52 1228.22 L1972.52 1232.16 L1955.34 1232.16 L1955.34 1242.39 L1971.8 1242.39 L1971.8 1246.32 L1955.34 1246.32 L1955.34 1258.85 L1972.94 1258.85 L1972.94 1262.78 L1950.67 1262.78 L1950.67 1228.22 Z" fill="#000000" fill-rule="nonzero" fill-opacity="1" /><path clip-path="url(#clip100)" d="M2005.74 1226.81 Q2002.63 1232.13 2001.13 1237.34 Q1999.63 1242.55 1999.63 1247.9 Q1999.63 1253.24 2001.13 1258.5 Q2002.66 1263.73 2005.74 1269.03 L2002.03 1269.03 Q1998.56 1263.59 1996.82 1258.34 Q1995.11 1253.08 1995.11 1247.9 Q1995.11 1242.74 1996.82 1237.5 Q1998.54 1232.27 2002.03 1226.81 L2005.74 1226.81 Z" fill="#000000" fill-rule="nonzero" fill-opacity="1" /><path clip-path="url(#clip100)" d="M2027.12 1226.76 L2027.12 1230.31 L2023.05 1230.31 Q2020.76 1230.31 2019.86 1231.23 Q2018.98 1232.16 2018.98 1234.56 L2018.98 1236.86 L2025.99 1236.86 L2025.99 1240.17 L2018.98 1240.17 L2018.98 1262.78 L2014.69 1262.78 L2014.69 1240.17 L2010.62 1240.17 L2010.62 1236.86 L2014.69 1236.86 L2014.69 1235.05 Q2014.69 1230.72 2016.71 1228.75 Q2018.72 1226.76 2023.1 1226.76 L2027.12 1226.76 Z" fill="#000000" fill-rule="nonzero" fill-opacity="1" /><path clip-path="url(#clip100)" d="M2030.69 1236.86 L2034.95 1236.86 L2034.95 1262.78 L2030.69 1262.78 L2030.69 1236.86 M2030.69 1226.76 L2034.95 1226.76 L2034.95 1232.16 L2030.69 1232.16 L2030.69 1226.76 Z" fill="#000000" fill-rule="nonzero" fill-opacity="1" /><path clip-path="url(#clip100)" d="M2048.07 1229.49 L2048.07 1236.86 L2056.85 1236.86 L2056.85 1240.17 L2048.07 1240.17 L2048.07 1254.24 Q2048.07 1257.41 2048.93 1258.31 Q2049.81 1259.22 2052.47 1259.22 L2056.85 1259.22 L2056.85 1262.78 L2052.47 1262.78 Q2047.54 1262.78 2045.67 1260.95 Q2043.79 1259.1 2043.79 1254.24 L2043.79 1240.17 L2040.67 1240.17 L2040.67 1236.86 L2043.79 1236.86 L2043.79 1229.49 L2048.07 1229.49 Z" fill="#000000" fill-rule="nonzero" fill-opacity="1" /><path clip-path="url(#clip100)" d="M2066.66 1229.49 L2066.66 1236.86 L2075.43 1236.86 L2075.43 1240.17 L2066.66 1240.17 L2066.66 1254.24 Q2066.66 1257.41 2067.52 1258.31 Q2068.4 1259.22 2071.06 1259.22 L2075.43 1259.22 L2075.43 1262.78 L2071.06 1262.78 Q2066.13 1262.78 2064.25 1260.95 Q2062.38 1259.1 2062.38 1254.24 L2062.38 1240.17 L2059.25 1240.17 L2059.25 1236.86 L2062.38 1236.86 L2062.38 1229.49 L2066.66 1229.49 Z" fill="#000000" fill-rule="nonzero" fill-opacity="1" /><path clip-path="url(#clip100)" d="M2103.21 1248.75 L2103.21 1250.84 L2083.63 1250.84 Q2083.91 1255.24 2086.27 1257.55 Q2088.65 1259.84 2092.89 1259.84 Q2095.34 1259.84 2097.63 1259.24 Q2099.95 1258.64 2102.22 1257.43 L2102.22 1261.46 Q2099.93 1262.43 2097.52 1262.94 Q2095.11 1263.45 2092.63 1263.45 Q2086.43 1263.45 2082.8 1259.84 Q2079.18 1256.23 2079.18 1250.07 Q2079.18 1243.71 2082.61 1239.98 Q2086.06 1236.23 2091.89 1236.23 Q2097.12 1236.23 2100.16 1239.61 Q2103.21 1242.97 2103.21 1248.75 M2098.95 1247.5 Q2098.91 1244.01 2096.99 1241.93 Q2095.09 1239.84 2091.94 1239.84 Q2088.37 1239.84 2086.22 1241.86 Q2084.09 1243.87 2083.77 1247.53 L2098.95 1247.5 Z" fill="#000000" fill-rule="nonzero" fill-opacity="1" /><path clip-path="url(#clip100)" d="M2127.26 1240.79 L2127.26 1226.76 L2131.52 1226.76 L2131.52 1262.78 L2127.26 1262.78 L2127.26 1258.89 Q2125.92 1261.21 2123.86 1262.34 Q2121.82 1263.45 2118.95 1263.45 Q2114.25 1263.45 2111.29 1259.7 Q2108.35 1255.95 2108.35 1249.84 Q2108.35 1243.73 2111.29 1239.98 Q2114.25 1236.23 2118.95 1236.23 Q2121.82 1236.23 2123.86 1237.37 Q2125.92 1238.48 2127.26 1240.79 M2112.75 1249.84 Q2112.75 1254.54 2114.67 1257.23 Q2116.62 1259.89 2119.99 1259.89 Q2123.37 1259.89 2125.32 1257.23 Q2127.26 1254.54 2127.26 1249.84 Q2127.26 1245.14 2125.32 1242.48 Q2123.37 1239.8 2119.99 1239.8 Q2116.62 1239.8 2114.67 1242.48 Q2112.75 1245.14 2112.75 1249.84 Z" fill="#000000" fill-rule="nonzero" fill-opacity="1" /><path clip-path="url(#clip100)" d="M2139.62 1226.81 L2143.33 1226.81 Q2146.8 1232.27 2148.51 1237.5 Q2150.25 1242.74 2150.25 1247.9 Q2150.25 1253.08 2148.51 1258.34 Q2146.8 1263.59 2143.33 1269.03 L2139.62 1269.03 Q2142.7 1263.73 2144.21 1258.5 Q2145.74 1253.24 2145.74 1247.9 Q2145.74 1242.55 2144.21 1237.34 Q2142.7 1232.13 2139.62 1226.81 Z" fill="#000000" fill-rule="nonzero" fill-opacity="1" /></svg>
