<?xml version="1.0" encoding="utf-8"?>
<svg xmlns="http://www.w3.org/2000/svg" xmlns:xlink="http://www.w3.org/1999/xlink" width="600" height="400" viewBox="0 0 2400 1600">
<defs>
  <clipPath id="clip080">
    <rect x="0" y="0" width="2400" height="1600"/>
  </clipPath>
</defs>
<path clip-path="url(#clip080)" d="M0 1600 L2400 1600 L2400 0 L0 0  Z" fill="#ffffff" fill-rule="evenodd" fill-opacity="1"/>
<defs>
  <clipPath id="clip081">
    <rect x="480" y="0" width="1681" height="1600"/>
  </clipPath>
</defs>
<path clip-path="url(#clip080)" d="M268.094 1339.91 L2352.76 1339.91 L2352.76 62.9921 L268.094 62.9921  Z" fill="#ffffff" fill-rule="evenodd" fill-opacity="1"/>
<defs>
  <clipPath id="clip082">
    <rect x="268" y="62" width="2086" height="1278"/>
  </clipPath>
</defs>
<polyline clip-path="url(#clip082)" style="stroke:#000000; stroke-linecap:round; stroke-linejoin:round; stroke-width:2; stroke-opacity:0.1; fill:none" points="327.094,1339.91 327.094,62.9921 "/>
<polyline clip-path="url(#clip082)" style="stroke:#000000; stroke-linecap:round; stroke-linejoin:round; stroke-width:2; stroke-opacity:0.1; fill:none" points="720.427,1339.91 720.427,62.9921 "/>
<polyline clip-path="url(#clip082)" style="stroke:#000000; stroke-linecap:round; stroke-linejoin:round; stroke-width:2; stroke-opacity:0.1; fill:none" points="1113.76,1339.91 1113.76,62.9921 "/>
<polyline clip-path="url(#clip082)" style="stroke:#000000; stroke-linecap:round; stroke-linejoin:round; stroke-width:2; stroke-opacity:0.1; fill:none" points="1507.09,1339.91 1507.09,62.9921 "/>
<polyline clip-path="url(#clip082)" style="stroke:#000000; stroke-linecap:round; stroke-linejoin:round; stroke-width:2; stroke-opacity:0.1; fill:none" points="1900.42,1339.91 1900.42,62.9921 "/>
<polyline clip-path="url(#clip082)" style="stroke:#000000; stroke-linecap:round; stroke-linejoin:round; stroke-width:2; stroke-opacity:0.1; fill:none" points="2293.76,1339.91 2293.76,62.9921 "/>
<polyline clip-path="url(#clip080)" style="stroke:#000000; stroke-linecap:round; stroke-linejoin:round; stroke-width:4; stroke-opacity:1; fill:none" points="268.094,1339.91 2352.76,1339.91 "/>
<polyline clip-path="url(#clip080)" style="stroke:#000000; stroke-linecap:round; stroke-linejoin:round; stroke-width:4; stroke-opacity:1; fill:none" points="327.094,1339.91 327.094,1321.01 "/>
<polyline clip-path="url(#clip080)" style="stroke:#000000; stroke-linecap:round; stroke-linejoin:round; stroke-width:4; stroke-opacity:1; fill:none" points="720.427,1339.91 720.427,1321.01 "/>
<polyline clip-path="url(#clip080)" style="stroke:#000000; stroke-linecap:round; stroke-linejoin:round; stroke-width:4; stroke-opacity:1; fill:none" points="1113.76,1339.91 1113.76,1321.01 "/>
<polyline clip-path="url(#clip080)" style="stroke:#000000; stroke-linecap:round; stroke-linejoin:round; stroke-width:4; stroke-opacity:1; fill:none" points="1507.09,1339.91 1507.09,1321.01 "/>
<polyline clip-path="url(#clip080)" style="stroke:#000000; stroke-linecap:round; stroke-linejoin:round; stroke-width:4; stroke-opacity:1; fill:none" points="1900.42,1339.91 1900.42,1321.01 "/>
<polyline clip-path="url(#clip080)" style="stroke:#000000; stroke-linecap:round; stroke-linejoin:round; stroke-width:4; stroke-opacity:1; fill:none" points="2293.76,1339.91 2293.76,1321.01 "/>
<path clip-path="url(#clip080)" d="M304.479 1370.82 Q300.868 1370.82 299.039 1374.39 Q297.233 1377.93 297.233 1385.06 Q297.233 1392.17 299.039 1395.73 Q300.868 1399.27 304.479 1399.27 Q308.113 1399.27 309.919 1395.73 Q311.747 1392.17 311.747 1385.06 Q311.747 1377.93 309.919 1374.39 Q308.113 1370.82 304.479 1370.82 M304.479 1367.12 Q310.289 1367.12 313.344 1371.73 Q316.423 1376.31 316.423 1385.06 Q316.423 1393.79 313.344 1398.39 Q310.289 1402.98 304.479 1402.98 Q298.669 1402.98 295.59 1398.39 Q292.534 1393.79 292.534 1385.06 Q292.534 1376.31 295.59 1371.73 Q298.669 1367.12 304.479 1367.12 Z" fill="#000000" fill-rule="nonzero" fill-opacity="1" /><path clip-path="url(#clip080)" d="M324.641 1396.43 L329.525 1396.43 L329.525 1402.31 L324.641 1402.31 L324.641 1396.43 Z" fill="#000000" fill-rule="nonzero" fill-opacity="1" /><path clip-path="url(#clip080)" d="M349.71 1370.82 Q346.099 1370.82 344.27 1374.39 Q342.465 1377.93 342.465 1385.06 Q342.465 1392.17 344.27 1395.73 Q346.099 1399.27 349.71 1399.27 Q353.344 1399.27 355.15 1395.73 Q356.978 1392.17 356.978 1385.06 Q356.978 1377.93 355.15 1374.39 Q353.344 1370.82 349.71 1370.82 M349.71 1367.12 Q355.52 1367.12 358.576 1371.73 Q361.654 1376.31 361.654 1385.06 Q361.654 1393.79 358.576 1398.39 Q355.52 1402.98 349.71 1402.98 Q343.9 1402.98 340.821 1398.39 Q337.766 1393.79 337.766 1385.06 Q337.766 1376.31 340.821 1371.73 Q343.9 1367.12 349.71 1367.12 Z" fill="#000000" fill-rule="nonzero" fill-opacity="1" /><path clip-path="url(#clip080)" d="M698.309 1370.82 Q694.698 1370.82 692.869 1374.39 Q691.063 1377.93 691.063 1385.06 Q691.063 1392.17 692.869 1395.73 Q694.698 1399.27 698.309 1399.27 Q701.943 1399.27 703.749 1395.73 Q705.577 1392.17 705.577 1385.06 Q705.577 1377.93 703.749 1374.39 Q701.943 1370.82 698.309 1370.82 M698.309 1367.12 Q704.119 1367.12 707.174 1371.73 Q710.253 1376.31 710.253 1385.06 Q710.253 1393.79 707.174 1398.39 Q704.119 1402.98 698.309 1402.98 Q692.499 1402.98 689.42 1398.39 Q686.364 1393.79 686.364 1385.06 Q686.364 1376.31 689.42 1371.73 Q692.499 1367.12 698.309 1367.12 Z" fill="#000000" fill-rule="nonzero" fill-opacity="1" /><path clip-path="url(#clip080)" d="M718.471 1396.43 L723.355 1396.43 L723.355 1402.31 L718.471 1402.31 L718.471 1396.43 Z" fill="#000000" fill-rule="nonzero" fill-opacity="1" /><path clip-path="url(#clip080)" d="M733.586 1367.75 L751.943 1367.75 L751.943 1371.68 L737.869 1371.68 L737.869 1380.15 Q738.887 1379.81 739.906 1379.64 Q740.924 1379.46 741.943 1379.46 Q747.73 1379.46 751.109 1382.63 Q754.489 1385.8 754.489 1391.22 Q754.489 1396.8 751.017 1399.9 Q747.545 1402.98 741.225 1402.98 Q739.049 1402.98 736.781 1402.61 Q734.535 1402.24 732.128 1401.5 L732.128 1396.8 Q734.211 1397.93 736.434 1398.49 Q738.656 1399.04 741.133 1399.04 Q745.137 1399.04 747.475 1396.94 Q749.813 1394.83 749.813 1391.22 Q749.813 1387.61 747.475 1385.5 Q745.137 1383.39 741.133 1383.39 Q739.258 1383.39 737.383 1383.81 Q735.531 1384.23 733.586 1385.11 L733.586 1367.75 Z" fill="#000000" fill-rule="nonzero" fill-opacity="1" /><path clip-path="url(#clip080)" d="M1080.91 1398.37 L1088.55 1398.37 L1088.55 1372 L1080.24 1373.67 L1080.24 1369.41 L1088.5 1367.75 L1093.18 1367.75 L1093.18 1398.37 L1100.82 1398.37 L1100.82 1402.31 L1080.91 1402.31 L1080.91 1398.37 Z" fill="#000000" fill-rule="nonzero" fill-opacity="1" /><path clip-path="url(#clip080)" d="M1110.26 1396.43 L1115.15 1396.43 L1115.15 1402.31 L1110.26 1402.31 L1110.26 1396.43 Z" fill="#000000" fill-rule="nonzero" fill-opacity="1" /><path clip-path="url(#clip080)" d="M1135.33 1370.82 Q1131.72 1370.82 1129.89 1374.39 Q1128.09 1377.93 1128.09 1385.06 Q1128.09 1392.17 1129.89 1395.73 Q1131.72 1399.27 1135.33 1399.27 Q1138.97 1399.27 1140.77 1395.73 Q1142.6 1392.17 1142.6 1385.06 Q1142.6 1377.93 1140.77 1374.39 Q1138.97 1370.82 1135.33 1370.82 M1135.33 1367.12 Q1141.14 1367.12 1144.2 1371.73 Q1147.28 1376.31 1147.28 1385.06 Q1147.28 1393.79 1144.2 1398.39 Q1141.14 1402.98 1135.33 1402.98 Q1129.52 1402.98 1126.44 1398.39 Q1123.39 1393.79 1123.39 1385.06 Q1123.39 1376.31 1126.44 1371.73 Q1129.52 1367.12 1135.33 1367.12 Z" fill="#000000" fill-rule="nonzero" fill-opacity="1" /><path clip-path="url(#clip080)" d="M1474.74 1398.37 L1482.38 1398.37 L1482.38 1372 L1474.07 1373.67 L1474.07 1369.41 L1482.33 1367.75 L1487.01 1367.75 L1487.01 1398.37 L1494.65 1398.37 L1494.65 1402.31 L1474.74 1402.31 L1474.74 1398.37 Z" fill="#000000" fill-rule="nonzero" fill-opacity="1" /><path clip-path="url(#clip080)" d="M1504.09 1396.43 L1508.98 1396.43 L1508.98 1402.31 L1504.09 1402.31 L1504.09 1396.43 Z" fill="#000000" fill-rule="nonzero" fill-opacity="1" /><path clip-path="url(#clip080)" d="M1519.21 1367.75 L1537.57 1367.75 L1537.57 1371.68 L1523.49 1371.68 L1523.49 1380.15 Q1524.51 1379.81 1525.53 1379.64 Q1526.55 1379.46 1527.57 1379.46 Q1533.35 1379.46 1536.73 1382.63 Q1540.11 1385.8 1540.11 1391.22 Q1540.11 1396.8 1536.64 1399.9 Q1533.17 1402.98 1526.85 1402.98 Q1524.67 1402.98 1522.4 1402.61 Q1520.16 1402.24 1517.75 1401.5 L1517.75 1396.8 Q1519.83 1397.93 1522.06 1398.49 Q1524.28 1399.04 1526.76 1399.04 Q1530.76 1399.04 1533.1 1396.94 Q1535.44 1394.83 1535.44 1391.22 Q1535.44 1387.61 1533.1 1385.5 Q1530.76 1383.39 1526.76 1383.39 Q1524.88 1383.39 1523.01 1383.81 Q1521.15 1384.23 1519.21 1385.11 L1519.21 1367.75 Z" fill="#000000" fill-rule="nonzero" fill-opacity="1" /><path clip-path="url(#clip080)" d="M1871.66 1398.37 L1887.98 1398.37 L1887.98 1402.31 L1866.04 1402.31 L1866.04 1398.37 Q1868.7 1395.62 1873.28 1390.99 Q1877.89 1386.33 1879.07 1384.99 Q1881.32 1382.47 1882.19 1380.73 Q1883.1 1378.97 1883.1 1377.28 Q1883.1 1374.53 1881.15 1372.79 Q1879.23 1371.06 1876.13 1371.06 Q1873.93 1371.06 1871.48 1371.82 Q1869.05 1372.58 1866.27 1374.13 L1866.27 1369.41 Q1869.09 1368.28 1871.55 1367.7 Q1874 1367.12 1876.04 1367.12 Q1881.41 1367.12 1884.6 1369.81 Q1887.8 1372.49 1887.8 1376.98 Q1887.8 1379.11 1886.99 1381.03 Q1886.2 1382.93 1884.09 1385.52 Q1883.51 1386.19 1880.41 1389.41 Q1877.31 1392.61 1871.66 1398.37 Z" fill="#000000" fill-rule="nonzero" fill-opacity="1" /><path clip-path="url(#clip080)" d="M1897.8 1396.43 L1902.68 1396.43 L1902.68 1402.31 L1897.8 1402.31 L1897.8 1396.43 Z" fill="#000000" fill-rule="nonzero" fill-opacity="1" /><path clip-path="url(#clip080)" d="M1922.87 1370.82 Q1919.25 1370.82 1917.43 1374.39 Q1915.62 1377.93 1915.62 1385.06 Q1915.62 1392.17 1917.43 1395.73 Q1919.25 1399.27 1922.87 1399.27 Q1926.5 1399.27 1928.31 1395.73 Q1930.13 1392.17 1930.13 1385.06 Q1930.13 1377.93 1928.31 1374.39 Q1926.5 1370.82 1922.87 1370.82 M1922.87 1367.12 Q1928.68 1367.12 1931.73 1371.73 Q1934.81 1376.31 1934.81 1385.06 Q1934.81 1393.79 1931.73 1398.39 Q1928.68 1402.98 1922.87 1402.98 Q1917.06 1402.98 1913.98 1398.39 Q1910.92 1393.79 1910.92 1385.06 Q1910.92 1376.31 1913.98 1371.73 Q1917.06 1367.12 1922.87 1367.12 Z" fill="#000000" fill-rule="nonzero" fill-opacity="1" /><path clip-path="url(#clip080)" d="M2265.49 1398.37 L2281.81 1398.37 L2281.81 1402.31 L2259.87 1402.31 L2259.87 1398.37 Q2262.53 1395.62 2267.11 1390.99 Q2271.72 1386.33 2272.9 1384.99 Q2275.15 1382.47 2276.02 1380.73 Q2276.93 1378.97 2276.93 1377.28 Q2276.93 1374.53 2274.98 1372.79 Q2273.06 1371.06 2269.96 1371.06 Q2267.76 1371.06 2265.31 1371.82 Q2262.88 1372.58 2260.1 1374.13 L2260.1 1369.41 Q2262.92 1368.28 2265.38 1367.7 Q2267.83 1367.12 2269.87 1367.12 Q2275.24 1367.12 2278.43 1369.81 Q2281.63 1372.49 2281.63 1376.98 Q2281.63 1379.11 2280.82 1381.03 Q2280.03 1382.93 2277.92 1385.52 Q2277.34 1386.19 2274.24 1389.41 Q2271.14 1392.61 2265.49 1398.37 Z" fill="#000000" fill-rule="nonzero" fill-opacity="1" /><path clip-path="url(#clip080)" d="M2291.63 1396.43 L2296.51 1396.43 L2296.51 1402.31 L2291.63 1402.31 L2291.63 1396.43 Z" fill="#000000" fill-rule="nonzero" fill-opacity="1" /><path clip-path="url(#clip080)" d="M2306.74 1367.75 L2325.1 1367.75 L2325.1 1371.68 L2311.02 1371.68 L2311.02 1380.15 Q2312.04 1379.81 2313.06 1379.64 Q2314.08 1379.46 2315.1 1379.46 Q2320.89 1379.46 2324.27 1382.63 Q2327.64 1385.8 2327.64 1391.22 Q2327.64 1396.8 2324.17 1399.9 Q2320.7 1402.98 2314.38 1402.98 Q2312.21 1402.98 2309.94 1402.61 Q2307.69 1402.24 2305.28 1401.5 L2305.28 1396.8 Q2307.37 1397.93 2309.59 1398.49 Q2311.81 1399.04 2314.29 1399.04 Q2318.29 1399.04 2320.63 1396.94 Q2322.97 1394.83 2322.97 1391.22 Q2322.97 1387.61 2320.63 1385.5 Q2318.29 1383.39 2314.29 1383.39 Q2312.41 1383.39 2310.54 1383.81 Q2308.69 1384.23 2306.74 1385.11 L2306.74 1367.75 Z" fill="#000000" fill-rule="nonzero" fill-opacity="1" /><polyline clip-path="url(#clip082)" style="stroke:#000000; stroke-linecap:round; stroke-linejoin:round; stroke-width:2; stroke-opacity:0.1; fill:none" points="268.094,1241.06 2352.76,1241.06 "/>
<polyline clip-path="url(#clip082)" style="stroke:#000000; stroke-linecap:round; stroke-linejoin:round; stroke-width:2; stroke-opacity:0.1; fill:none" points="268.094,983.945 2352.76,983.945 "/>
<polyline clip-path="url(#clip082)" style="stroke:#000000; stroke-linecap:round; stroke-linejoin:round; stroke-width:2; stroke-opacity:0.1; fill:none" points="268.094,726.832 2352.76,726.832 "/>
<polyline clip-path="url(#clip082)" style="stroke:#000000; stroke-linecap:round; stroke-linejoin:round; stroke-width:2; stroke-opacity:0.1; fill:none" points="268.094,469.718 2352.76,469.718 "/>
<polyline clip-path="url(#clip082)" style="stroke:#000000; stroke-linecap:round; stroke-linejoin:round; stroke-width:2; stroke-opacity:0.1; fill:none" points="268.094,212.604 2352.76,212.604 "/>
<polyline clip-path="url(#clip080)" style="stroke:#000000; stroke-linecap:round; stroke-linejoin:round; stroke-width:4; stroke-opacity:1; fill:none" points="268.094,1339.91 268.094,62.9921 "/>
<polyline clip-path="url(#clip080)" style="stroke:#000000; stroke-linecap:round; stroke-linejoin:round; stroke-width:4; stroke-opacity:1; fill:none" points="268.094,1241.06 286.992,1241.06 "/>
<polyline clip-path="url(#clip080)" style="stroke:#000000; stroke-linecap:round; stroke-linejoin:round; stroke-width:4; stroke-opacity:1; fill:none" points="268.094,983.945 286.992,983.945 "/>
<polyline clip-path="url(#clip080)" style="stroke:#000000; stroke-linecap:round; stroke-linejoin:round; stroke-width:4; stroke-opacity:1; fill:none" points="268.094,726.832 286.992,726.832 "/>
<polyline clip-path="url(#clip080)" style="stroke:#000000; stroke-linecap:round; stroke-linejoin:round; stroke-width:4; stroke-opacity:1; fill:none" points="268.094,469.718 286.992,469.718 "/>
<polyline clip-path="url(#clip080)" style="stroke:#000000; stroke-linecap:round; stroke-linejoin:round; stroke-width:4; stroke-opacity:1; fill:none" points="268.094,212.604 286.992,212.604 "/>
<path clip-path="url(#clip080)" d="M174.919 1226.86 Q171.308 1226.86 169.479 1230.42 Q167.674 1233.96 167.674 1241.09 Q167.674 1248.2 169.479 1251.76 Q171.308 1255.31 174.919 1255.31 Q178.553 1255.31 180.359 1251.76 Q182.187 1248.2 182.187 1241.09 Q182.187 1233.96 180.359 1230.42 Q178.553 1226.86 174.919 1226.86 M174.919 1223.15 Q180.729 1223.15 183.785 1227.76 Q186.863 1232.34 186.863 1241.09 Q186.863 1249.82 183.785 1254.43 Q180.729 1259.01 174.919 1259.01 Q169.109 1259.01 166.03 1254.43 Q162.974 1249.82 162.974 1241.09 Q162.974 1232.34 166.03 1227.76 Q169.109 1223.15 174.919 1223.15 Z" fill="#000000" fill-rule="nonzero" fill-opacity="1" /><path clip-path="url(#clip080)" d="M195.081 1252.46 L199.965 1252.46 L199.965 1258.34 L195.081 1258.34 L195.081 1252.46 Z" fill="#000000" fill-rule="nonzero" fill-opacity="1" /><path clip-path="url(#clip080)" d="M220.15 1226.86 Q216.539 1226.86 214.71 1230.42 Q212.905 1233.96 212.905 1241.09 Q212.905 1248.2 214.71 1251.76 Q216.539 1255.31 220.15 1255.31 Q223.784 1255.31 225.59 1251.76 Q227.419 1248.2 227.419 1241.09 Q227.419 1233.96 225.59 1230.42 Q223.784 1226.86 220.15 1226.86 M220.15 1223.15 Q225.96 1223.15 229.016 1227.76 Q232.094 1232.34 232.094 1241.09 Q232.094 1249.82 229.016 1254.43 Q225.96 1259.01 220.15 1259.01 Q214.34 1259.01 211.261 1254.43 Q208.206 1249.82 208.206 1241.09 Q208.206 1232.34 211.261 1227.76 Q214.34 1223.15 220.15 1223.15 Z" fill="#000000" fill-rule="nonzero" fill-opacity="1" /><path clip-path="url(#clip080)" d="M176.146 969.744 Q172.535 969.744 170.706 973.309 Q168.9 976.85 168.9 983.98 Q168.9 991.086 170.706 994.651 Q172.535 998.193 176.146 998.193 Q179.78 998.193 181.585 994.651 Q183.414 991.086 183.414 983.98 Q183.414 976.85 181.585 973.309 Q179.78 969.744 176.146 969.744 M176.146 966.04 Q181.956 966.04 185.011 970.647 Q188.09 975.23 188.09 983.98 Q188.09 992.707 185.011 997.313 Q181.956 1001.9 176.146 1001.9 Q170.336 1001.9 167.257 997.313 Q164.201 992.707 164.201 983.98 Q164.201 975.23 167.257 970.647 Q170.336 966.04 176.146 966.04 Z" fill="#000000" fill-rule="nonzero" fill-opacity="1" /><path clip-path="url(#clip080)" d="M196.308 995.346 L201.192 995.346 L201.192 1001.23 L196.308 1001.23 L196.308 995.346 Z" fill="#000000" fill-rule="nonzero" fill-opacity="1" /><path clip-path="url(#clip080)" d="M212.187 997.29 L219.826 997.29 L219.826 970.925 L211.516 972.591 L211.516 968.332 L219.78 966.665 L224.456 966.665 L224.456 997.29 L232.094 997.29 L232.094 1001.23 L212.187 1001.23 L212.187 997.29 Z" fill="#000000" fill-rule="nonzero" fill-opacity="1" /><path clip-path="url(#clip080)" d="M176.516 712.63 Q172.905 712.63 171.076 716.195 Q169.271 719.737 169.271 726.866 Q169.271 733.973 171.076 737.538 Q172.905 741.079 176.516 741.079 Q180.15 741.079 181.956 737.538 Q183.785 733.973 183.785 726.866 Q183.785 719.737 181.956 716.195 Q180.15 712.63 176.516 712.63 M176.516 708.927 Q182.326 708.927 185.382 713.533 Q188.46 718.116 188.46 726.866 Q188.46 735.593 185.382 740.2 Q182.326 744.783 176.516 744.783 Q170.706 744.783 167.627 740.2 Q164.572 735.593 164.572 726.866 Q164.572 718.116 167.627 713.533 Q170.706 708.927 176.516 708.927 Z" fill="#000000" fill-rule="nonzero" fill-opacity="1" /><path clip-path="url(#clip080)" d="M196.678 738.232 L201.562 738.232 L201.562 744.112 L196.678 744.112 L196.678 738.232 Z" fill="#000000" fill-rule="nonzero" fill-opacity="1" /><path clip-path="url(#clip080)" d="M215.775 740.177 L232.094 740.177 L232.094 744.112 L210.15 744.112 L210.15 740.177 Q212.812 737.422 217.395 732.792 Q222.002 728.14 223.182 726.797 Q225.428 724.274 226.307 722.538 Q227.21 720.778 227.21 719.089 Q227.21 716.334 225.266 714.598 Q223.345 712.862 220.243 712.862 Q218.044 712.862 215.59 713.626 Q213.159 714.39 210.382 715.941 L210.382 711.218 Q213.206 710.084 215.659 709.505 Q218.113 708.927 220.15 708.927 Q225.52 708.927 228.715 711.612 Q231.909 714.297 231.909 718.788 Q231.909 720.917 231.099 722.839 Q230.312 724.737 228.206 727.329 Q227.627 728.001 224.525 731.218 Q221.423 734.413 215.775 740.177 Z" fill="#000000" fill-rule="nonzero" fill-opacity="1" /><path clip-path="url(#clip080)" d="M175.567 455.517 Q171.956 455.517 170.127 459.082 Q168.322 462.623 168.322 469.753 Q168.322 476.859 170.127 480.424 Q171.956 483.966 175.567 483.966 Q179.201 483.966 181.007 480.424 Q182.835 476.859 182.835 469.753 Q182.835 462.623 181.007 459.082 Q179.201 455.517 175.567 455.517 M175.567 451.813 Q181.377 451.813 184.433 456.42 Q187.511 461.003 187.511 469.753 Q187.511 478.48 184.433 483.086 Q181.377 487.669 175.567 487.669 Q169.757 487.669 166.678 483.086 Q163.623 478.48 163.623 469.753 Q163.623 461.003 166.678 456.42 Q169.757 451.813 175.567 451.813 Z" fill="#000000" fill-rule="nonzero" fill-opacity="1" /><path clip-path="url(#clip080)" d="M195.729 481.118 L200.613 481.118 L200.613 486.998 L195.729 486.998 L195.729 481.118 Z" fill="#000000" fill-rule="nonzero" fill-opacity="1" /><path clip-path="url(#clip080)" d="M224.965 468.364 Q228.321 469.081 230.196 471.35 Q232.094 473.619 232.094 476.952 Q232.094 482.068 228.576 484.868 Q225.057 487.669 218.576 487.669 Q216.4 487.669 214.085 487.23 Q211.794 486.813 209.34 485.956 L209.34 481.443 Q211.284 482.577 213.599 483.155 Q215.914 483.734 218.437 483.734 Q222.835 483.734 225.127 481.998 Q227.442 480.262 227.442 476.952 Q227.442 473.896 225.289 472.183 Q223.159 470.447 219.34 470.447 L215.312 470.447 L215.312 466.605 L219.525 466.605 Q222.974 466.605 224.803 465.239 Q226.632 463.85 226.632 461.257 Q226.632 458.595 224.733 457.183 Q222.858 455.748 219.34 455.748 Q217.419 455.748 215.22 456.165 Q213.021 456.582 210.382 457.461 L210.382 453.295 Q213.044 452.554 215.358 452.183 Q217.696 451.813 219.757 451.813 Q225.081 451.813 228.182 454.244 Q231.284 456.651 231.284 460.771 Q231.284 463.642 229.641 465.632 Q227.997 467.6 224.965 468.364 Z" fill="#000000" fill-rule="nonzero" fill-opacity="1" /><path clip-path="url(#clip080)" d="M174.433 198.403 Q170.822 198.403 168.993 201.968 Q167.187 205.51 167.187 212.639 Q167.187 219.746 168.993 223.31 Q170.822 226.852 174.433 226.852 Q178.067 226.852 179.873 223.31 Q181.701 219.746 181.701 212.639 Q181.701 205.51 179.873 201.968 Q178.067 198.403 174.433 198.403 M174.433 194.699 Q180.243 194.699 183.298 199.306 Q186.377 203.889 186.377 212.639 Q186.377 221.366 183.298 225.972 Q180.243 230.556 174.433 230.556 Q168.623 230.556 165.544 225.972 Q162.488 221.366 162.488 212.639 Q162.488 203.889 165.544 199.306 Q168.623 194.699 174.433 194.699 Z" fill="#000000" fill-rule="nonzero" fill-opacity="1" /><path clip-path="url(#clip080)" d="M194.595 224.005 L199.479 224.005 L199.479 229.884 L194.595 229.884 L194.595 224.005 Z" fill="#000000" fill-rule="nonzero" fill-opacity="1" /><path clip-path="url(#clip080)" d="M222.511 199.398 L210.706 217.847 L222.511 217.847 L222.511 199.398 M221.284 195.324 L227.164 195.324 L227.164 217.847 L232.094 217.847 L232.094 221.736 L227.164 221.736 L227.164 229.884 L222.511 229.884 L222.511 221.736 L206.909 221.736 L206.909 217.222 L221.284 195.324 Z" fill="#000000" fill-rule="nonzero" fill-opacity="1" /><path clip-path="url(#clip080)" d="M1038.37 17.6457 Q1029.45 17.6457 1024.19 24.2892 Q1018.96 30.9327 1018.96 42.3968 Q1018.96 53.8203 1024.19 60.4638 Q1029.45 67.1073 1038.37 67.1073 Q1047.28 67.1073 1052.46 60.4638 Q1057.69 53.8203 1057.69 42.3968 Q1057.69 30.9327 1052.46 24.2892 Q1047.28 17.6457 1038.37 17.6457 M1038.37 11.0023 Q1051.09 11.0023 1058.7 19.5497 Q1066.32 28.0566 1066.32 42.3968 Q1066.32 56.6965 1058.7 65.2439 Q1051.09 73.7508 1038.37 73.7508 Q1025.61 73.7508 1017.95 65.2439 Q1010.33 56.737 1010.33 42.3968 Q1010.33 28.0566 1017.95 19.5497 Q1025.61 11.0023 1038.37 11.0023 Z" fill="#000000" fill-rule="nonzero" fill-opacity="1" /><path clip-path="url(#clip080)" d="M1111.36 49.9314 Q1111.36 41.7081 1107.96 37.0496 Q1104.6 32.3505 1098.68 32.3505 Q1092.77 32.3505 1089.37 37.0496 Q1086.01 41.7081 1086.01 49.9314 Q1086.01 58.1548 1089.37 62.8538 Q1092.77 67.5124 1098.68 67.5124 Q1104.6 67.5124 1107.96 62.8538 Q1111.36 58.1548 1111.36 49.9314 M1086.01 34.0924 Q1088.35 30.0415 1091.92 28.0971 Q1095.52 26.1121 1100.51 26.1121 Q1108.77 26.1121 1113.92 32.6746 Q1119.1 39.2371 1119.1 49.9314 Q1119.1 60.6258 1113.92 67.1883 Q1108.77 73.7508 1100.51 73.7508 Q1095.52 73.7508 1091.92 71.8063 Q1088.35 69.8214 1086.01 65.7705 L1086.01 72.576 L1078.51 72.576 L1078.51 9.54393 L1086.01 9.54393 L1086.01 34.0924 Z" fill="#000000" fill-rule="nonzero" fill-opacity="1" /><path clip-path="url(#clip080)" d="M1160.38 28.5427 L1160.38 35.5912 Q1157.22 33.9709 1153.82 33.1607 Q1150.41 32.3505 1146.77 32.3505 Q1141.22 32.3505 1138.42 34.0519 Q1135.67 35.7533 1135.67 39.156 Q1135.67 41.7486 1137.65 43.2475 Q1139.64 44.7058 1145.63 46.0426 L1148.19 46.6097 Q1156.13 48.3111 1159.45 51.4303 Q1162.81 54.509 1162.81 60.0587 Q1162.81 66.3781 1157.79 70.0644 Q1152.8 73.7508 1144.05 73.7508 Q1140.41 73.7508 1136.44 73.0216 Q1132.51 72.3329 1128.13 70.9151 L1128.13 63.2184 Q1132.27 65.3654 1136.28 66.4591 Q1140.29 67.5124 1144.22 67.5124 Q1149.48 67.5124 1152.32 65.73 Q1155.15 63.9071 1155.15 60.6258 Q1155.15 57.5877 1153.09 55.9673 Q1151.06 54.3469 1144.14 52.8481 L1141.54 52.2405 Q1134.62 50.7821 1131.54 47.7845 Q1128.46 44.7463 1128.46 39.4801 Q1128.46 33.0797 1133 29.5959 Q1137.53 26.1121 1145.88 26.1121 Q1150.01 26.1121 1153.66 26.7198 Q1157.3 27.3274 1160.38 28.5427 Z" fill="#000000" fill-rule="nonzero" fill-opacity="1" /><path clip-path="url(#clip080)" d="M1213.49 48.0275 L1213.49 51.6733 L1179.22 51.6733 Q1179.7 59.3701 1183.83 63.421 Q1188.01 67.4314 1195.42 67.4314 Q1199.71 67.4314 1203.72 66.3781 Q1207.78 65.3249 1211.75 63.2184 L1211.75 70.267 Q1207.73 71.9684 1203.52 72.8596 Q1199.31 73.7508 1194.97 73.7508 Q1184.12 73.7508 1177.76 67.4314 Q1171.44 61.1119 1171.44 50.3365 Q1171.44 39.1965 1177.43 32.6746 Q1183.47 26.1121 1193.68 26.1121 Q1202.83 26.1121 1208.14 32.0264 Q1213.49 37.9003 1213.49 48.0275 M1206.03 45.84 Q1205.95 39.7232 1202.59 36.0774 Q1199.27 32.4315 1193.76 32.4315 Q1187.52 32.4315 1183.75 35.9558 Q1180.03 39.4801 1179.46 45.8805 L1206.03 45.84 Z" fill="#000000" fill-rule="nonzero" fill-opacity="1" /><path clip-path="url(#clip080)" d="M1252.01 34.1734 Q1250.76 33.4443 1249.26 33.1202 Q1247.8 32.7556 1246.02 32.7556 Q1239.7 32.7556 1236.29 36.8875 Q1232.93 40.9789 1232.93 48.6757 L1232.93 72.576 L1225.44 72.576 L1225.44 27.2059 L1232.93 27.2059 L1232.93 34.2544 Q1235.28 30.1225 1239.05 28.1376 Q1242.82 26.1121 1248.2 26.1121 Q1248.97 26.1121 1249.9 26.2337 Q1250.84 26.3147 1251.97 26.5172 L1252.01 34.1734 Z" fill="#000000" fill-rule="nonzero" fill-opacity="1" /><path clip-path="url(#clip080)" d="M1254.48 27.2059 L1262.38 27.2059 L1276.56 65.2844 L1290.74 27.2059 L1298.64 27.2059 L1281.62 72.576 L1271.5 72.576 L1254.48 27.2059 Z" fill="#000000" fill-rule="nonzero" fill-opacity="1" /><path clip-path="url(#clip080)" d="M1347.73 48.0275 L1347.73 51.6733 L1313.46 51.6733 Q1313.95 59.3701 1318.08 63.421 Q1322.25 67.4314 1329.67 67.4314 Q1333.96 67.4314 1337.97 66.3781 Q1342.02 65.3249 1345.99 63.2184 L1345.99 70.267 Q1341.98 71.9684 1337.77 72.8596 Q1333.56 73.7508 1329.22 73.7508 Q1318.36 73.7508 1312.01 67.4314 Q1305.69 61.1119 1305.69 50.3365 Q1305.69 39.1965 1311.68 32.6746 Q1317.72 26.1121 1327.93 26.1121 Q1337.08 26.1121 1342.39 32.0264 Q1347.73 37.9003 1347.73 48.0275 M1340.28 45.84 Q1340.2 39.7232 1336.84 36.0774 Q1333.52 32.4315 1328.01 32.4315 Q1321.77 32.4315 1318 35.9558 Q1314.27 39.4801 1313.71 45.8805 L1340.28 45.84 Z" fill="#000000" fill-rule="nonzero" fill-opacity="1" /><path clip-path="url(#clip080)" d="M1389.82 34.0924 L1389.82 9.54393 L1397.28 9.54393 L1397.28 72.576 L1389.82 72.576 L1389.82 65.7705 Q1387.47 69.8214 1383.87 71.8063 Q1380.3 73.7508 1375.28 73.7508 Q1367.06 73.7508 1361.87 67.1883 Q1356.73 60.6258 1356.73 49.9314 Q1356.73 39.2371 1361.87 32.6746 Q1367.06 26.1121 1375.28 26.1121 Q1380.3 26.1121 1383.87 28.0971 Q1387.47 30.0415 1389.82 34.0924 M1364.42 49.9314 Q1364.42 58.1548 1367.79 62.8538 Q1371.19 67.5124 1377.1 67.5124 Q1383.02 67.5124 1386.42 62.8538 Q1389.82 58.1548 1389.82 49.9314 Q1389.82 41.7081 1386.42 37.0496 Q1383.02 32.3505 1377.1 32.3505 Q1371.19 32.3505 1367.79 37.0496 Q1364.42 41.7081 1364.42 49.9314 Z" fill="#000000" fill-rule="nonzero" fill-opacity="1" /><path clip-path="url(#clip080)" d="M1468.86 34.0924 L1468.86 9.54393 L1476.31 9.54393 L1476.31 72.576 L1468.86 72.576 L1468.86 65.7705 Q1466.51 69.8214 1462.9 71.8063 Q1459.34 73.7508 1454.31 73.7508 Q1446.09 73.7508 1440.9 67.1883 Q1435.76 60.6258 1435.76 49.9314 Q1435.76 39.2371 1440.9 32.6746 Q1446.09 26.1121 1454.31 26.1121 Q1459.34 26.1121 1462.9 28.0971 Q1466.51 30.0415 1468.86 34.0924 M1443.46 49.9314 Q1443.46 58.1548 1446.82 62.8538 Q1450.22 67.5124 1456.14 67.5124 Q1462.05 67.5124 1465.45 62.8538 Q1468.86 58.1548 1468.86 49.9314 Q1468.86 41.7081 1465.45 37.0496 Q1462.05 32.3505 1456.14 32.3505 Q1450.22 32.3505 1446.82 37.0496 Q1443.46 41.7081 1443.46 49.9314 Z" fill="#000000" fill-rule="nonzero" fill-opacity="1" /><path clip-path="url(#clip080)" d="M1512.28 49.7694 Q1503.25 49.7694 1499.76 51.8354 Q1496.28 53.9013 1496.28 58.8839 Q1496.28 62.8538 1498.87 65.2034 Q1501.51 67.5124 1506 67.5124 Q1512.2 67.5124 1515.93 63.1374 Q1519.69 58.7219 1519.69 51.4303 L1519.69 49.7694 L1512.28 49.7694 M1527.15 46.6907 L1527.15 72.576 L1519.69 72.576 L1519.69 65.6895 Q1517.14 69.8214 1513.33 71.8063 Q1509.53 73.7508 1504.02 73.7508 Q1497.05 73.7508 1492.92 69.8619 Q1488.83 65.9325 1488.83 59.3701 Q1488.83 51.7138 1493.93 47.825 Q1499.08 43.9361 1509.24 43.9361 L1519.69 43.9361 L1519.69 43.2069 Q1519.69 38.0623 1516.29 35.2672 Q1512.93 32.4315 1506.81 32.4315 Q1502.92 32.4315 1499.24 33.3632 Q1495.55 34.295 1492.15 36.1584 L1492.15 29.2718 Q1496.24 27.692 1500.09 26.9223 Q1503.94 26.1121 1507.58 26.1121 Q1517.43 26.1121 1522.29 31.2163 Q1527.15 36.3204 1527.15 46.6907 Z" fill="#000000" fill-rule="nonzero" fill-opacity="1" /><path clip-path="url(#clip080)" d="M1549.87 14.324 L1549.87 27.2059 L1565.23 27.2059 L1565.23 32.9987 L1549.87 32.9987 L1549.87 57.6282 Q1549.87 63.1779 1551.37 64.7578 Q1552.91 66.3376 1557.57 66.3376 L1565.23 66.3376 L1565.23 72.576 L1557.57 72.576 Q1548.94 72.576 1545.66 69.3758 Q1542.38 66.1351 1542.38 57.6282 L1542.38 32.9987 L1536.91 32.9987 L1536.91 27.2059 L1542.38 27.2059 L1542.38 14.324 L1549.87 14.324 Z" fill="#000000" fill-rule="nonzero" fill-opacity="1" /><path clip-path="url(#clip080)" d="M1595.65 49.7694 Q1586.62 49.7694 1583.13 51.8354 Q1579.65 53.9013 1579.65 58.8839 Q1579.65 62.8538 1582.24 65.2034 Q1584.87 67.5124 1589.37 67.5124 Q1595.57 67.5124 1599.3 63.1374 Q1603.06 58.7219 1603.06 51.4303 L1603.06 49.7694 L1595.65 49.7694 M1610.52 46.6907 L1610.52 72.576 L1603.06 72.576 L1603.06 65.6895 Q1600.51 69.8214 1596.7 71.8063 Q1592.89 73.7508 1587.39 73.7508 Q1580.42 73.7508 1576.29 69.8619 Q1572.19 65.9325 1572.19 59.3701 Q1572.19 51.7138 1577.3 47.825 Q1582.44 43.9361 1592.61 43.9361 L1603.06 43.9361 L1603.06 43.2069 Q1603.06 38.0623 1599.66 35.2672 Q1596.3 32.4315 1590.18 32.4315 Q1586.29 32.4315 1582.61 33.3632 Q1578.92 34.295 1575.52 36.1584 L1575.52 29.2718 Q1579.61 27.692 1583.46 26.9223 Q1587.3 26.1121 1590.95 26.1121 Q1600.79 26.1121 1605.66 31.2163 Q1610.52 36.3204 1610.52 46.6907 Z" fill="#000000" fill-rule="nonzero" fill-opacity="1" /><circle clip-path="url(#clip082)" cx="327.094" cy="1166.19" r="14.4" fill="#009af9" fill-rule="evenodd" fill-opacity="1" stroke="#000000" stroke-opacity="1" stroke-width="3.2"/>
<circle clip-path="url(#clip082)" cx="346.761" cy="1303.77" r="14.4" fill="#009af9" fill-rule="evenodd" fill-opacity="1" stroke="#000000" stroke-opacity="1" stroke-width="3.2"/>
<circle clip-path="url(#clip082)" cx="366.428" cy="1145.91" r="14.4" fill="#009af9" fill-rule="evenodd" fill-opacity="1" stroke="#000000" stroke-opacity="1" stroke-width="3.2"/>
<circle clip-path="url(#clip082)" cx="386.094" cy="1205.31" r="14.4" fill="#009af9" fill-rule="evenodd" fill-opacity="1" stroke="#000000" stroke-opacity="1" stroke-width="3.2"/>
<circle clip-path="url(#clip082)" cx="405.761" cy="1236.49" r="14.4" fill="#009af9" fill-rule="evenodd" fill-opacity="1" stroke="#000000" stroke-opacity="1" stroke-width="3.2"/>
<circle clip-path="url(#clip082)" cx="425.427" cy="1289.05" r="14.4" fill="#009af9" fill-rule="evenodd" fill-opacity="1" stroke="#000000" stroke-opacity="1" stroke-width="3.2"/>
<circle clip-path="url(#clip082)" cx="445.094" cy="956.236" r="14.4" fill="#009af9" fill-rule="evenodd" fill-opacity="1" stroke="#000000" stroke-opacity="1" stroke-width="3.2"/>
<circle clip-path="url(#clip082)" cx="464.761" cy="1035.04" r="14.4" fill="#009af9" fill-rule="evenodd" fill-opacity="1" stroke="#000000" stroke-opacity="1" stroke-width="3.2"/>
<circle clip-path="url(#clip082)" cx="484.427" cy="1081.64" r="14.4" fill="#009af9" fill-rule="evenodd" fill-opacity="1" stroke="#000000" stroke-opacity="1" stroke-width="3.2"/>
<circle clip-path="url(#clip082)" cx="504.094" cy="1195.91" r="14.4" fill="#009af9" fill-rule="evenodd" fill-opacity="1" stroke="#000000" stroke-opacity="1" stroke-width="3.2"/>
<circle clip-path="url(#clip082)" cx="523.761" cy="1061.21" r="14.4" fill="#009af9" fill-rule="evenodd" fill-opacity="1" stroke="#000000" stroke-opacity="1" stroke-width="3.2"/>
<circle clip-path="url(#clip082)" cx="543.427" cy="1019.27" r="14.4" fill="#009af9" fill-rule="evenodd" fill-opacity="1" stroke="#000000" stroke-opacity="1" stroke-width="3.2"/>
<circle clip-path="url(#clip082)" cx="563.094" cy="1024.11" r="14.4" fill="#009af9" fill-rule="evenodd" fill-opacity="1" stroke="#000000" stroke-opacity="1" stroke-width="3.2"/>
<circle clip-path="url(#clip082)" cx="582.76" cy="1072.64" r="14.4" fill="#009af9" fill-rule="evenodd" fill-opacity="1" stroke="#000000" stroke-opacity="1" stroke-width="3.2"/>
<circle clip-path="url(#clip082)" cx="602.427" cy="993.179" r="14.4" fill="#009af9" fill-rule="evenodd" fill-opacity="1" stroke="#000000" stroke-opacity="1" stroke-width="3.2"/>
<circle clip-path="url(#clip082)" cx="622.094" cy="985.252" r="14.4" fill="#009af9" fill-rule="evenodd" fill-opacity="1" stroke="#000000" stroke-opacity="1" stroke-width="3.2"/>
<circle clip-path="url(#clip082)" cx="641.76" cy="1156.39" r="14.4" fill="#009af9" fill-rule="evenodd" fill-opacity="1" stroke="#000000" stroke-opacity="1" stroke-width="3.2"/>
<circle clip-path="url(#clip082)" cx="661.427" cy="1048.19" r="14.4" fill="#009af9" fill-rule="evenodd" fill-opacity="1" stroke="#000000" stroke-opacity="1" stroke-width="3.2"/>
<circle clip-path="url(#clip082)" cx="681.093" cy="975.405" r="14.4" fill="#009af9" fill-rule="evenodd" fill-opacity="1" stroke="#000000" stroke-opacity="1" stroke-width="3.2"/>
<circle clip-path="url(#clip082)" cx="700.76" cy="1146.55" r="14.4" fill="#009af9" fill-rule="evenodd" fill-opacity="1" stroke="#000000" stroke-opacity="1" stroke-width="3.2"/>
<circle clip-path="url(#clip082)" cx="720.427" cy="1077.88" r="14.4" fill="#009af9" fill-rule="evenodd" fill-opacity="1" stroke="#000000" stroke-opacity="1" stroke-width="3.2"/>
<circle clip-path="url(#clip082)" cx="740.093" cy="973.336" r="14.4" fill="#009af9" fill-rule="evenodd" fill-opacity="1" stroke="#000000" stroke-opacity="1" stroke-width="3.2"/>
<circle clip-path="url(#clip082)" cx="759.76" cy="1115.05" r="14.4" fill="#009af9" fill-rule="evenodd" fill-opacity="1" stroke="#000000" stroke-opacity="1" stroke-width="3.2"/>
<circle clip-path="url(#clip082)" cx="779.427" cy="1044.56" r="14.4" fill="#009af9" fill-rule="evenodd" fill-opacity="1" stroke="#000000" stroke-opacity="1" stroke-width="3.2"/>
<circle clip-path="url(#clip082)" cx="799.093" cy="879.216" r="14.4" fill="#009af9" fill-rule="evenodd" fill-opacity="1" stroke="#000000" stroke-opacity="1" stroke-width="3.2"/>
<circle clip-path="url(#clip082)" cx="818.76" cy="1087.18" r="14.4" fill="#009af9" fill-rule="evenodd" fill-opacity="1" stroke="#000000" stroke-opacity="1" stroke-width="3.2"/>
<circle clip-path="url(#clip082)" cx="838.426" cy="909.586" r="14.4" fill="#009af9" fill-rule="evenodd" fill-opacity="1" stroke="#000000" stroke-opacity="1" stroke-width="3.2"/>
<circle clip-path="url(#clip082)" cx="858.093" cy="885.056" r="14.4" fill="#009af9" fill-rule="evenodd" fill-opacity="1" stroke="#000000" stroke-opacity="1" stroke-width="3.2"/>
<circle clip-path="url(#clip082)" cx="877.76" cy="912.557" r="14.4" fill="#009af9" fill-rule="evenodd" fill-opacity="1" stroke="#000000" stroke-opacity="1" stroke-width="3.2"/>
<circle clip-path="url(#clip082)" cx="897.426" cy="774.925" r="14.4" fill="#009af9" fill-rule="evenodd" fill-opacity="1" stroke="#000000" stroke-opacity="1" stroke-width="3.2"/>
<circle clip-path="url(#clip082)" cx="917.093" cy="882.071" r="14.4" fill="#009af9" fill-rule="evenodd" fill-opacity="1" stroke="#000000" stroke-opacity="1" stroke-width="3.2"/>
<circle clip-path="url(#clip082)" cx="936.759" cy="941.577" r="14.4" fill="#009af9" fill-rule="evenodd" fill-opacity="1" stroke="#000000" stroke-opacity="1" stroke-width="3.2"/>
<circle clip-path="url(#clip082)" cx="956.426" cy="829.993" r="14.4" fill="#009af9" fill-rule="evenodd" fill-opacity="1" stroke="#000000" stroke-opacity="1" stroke-width="3.2"/>
<circle clip-path="url(#clip082)" cx="976.093" cy="826.382" r="14.4" fill="#009af9" fill-rule="evenodd" fill-opacity="1" stroke="#000000" stroke-opacity="1" stroke-width="3.2"/>
<circle clip-path="url(#clip082)" cx="995.759" cy="935.741" r="14.4" fill="#009af9" fill-rule="evenodd" fill-opacity="1" stroke="#000000" stroke-opacity="1" stroke-width="3.2"/>
<circle clip-path="url(#clip082)" cx="1015.43" cy="900.971" r="14.4" fill="#009af9" fill-rule="evenodd" fill-opacity="1" stroke="#000000" stroke-opacity="1" stroke-width="3.2"/>
<circle clip-path="url(#clip082)" cx="1035.09" cy="852.831" r="14.4" fill="#009af9" fill-rule="evenodd" fill-opacity="1" stroke="#000000" stroke-opacity="1" stroke-width="3.2"/>
<circle clip-path="url(#clip082)" cx="1054.76" cy="825.29" r="14.4" fill="#009af9" fill-rule="evenodd" fill-opacity="1" stroke="#000000" stroke-opacity="1" stroke-width="3.2"/>
<circle clip-path="url(#clip082)" cx="1074.43" cy="892.851" r="14.4" fill="#009af9" fill-rule="evenodd" fill-opacity="1" stroke="#000000" stroke-opacity="1" stroke-width="3.2"/>
<circle clip-path="url(#clip082)" cx="1094.09" cy="843.662" r="14.4" fill="#009af9" fill-rule="evenodd" fill-opacity="1" stroke="#000000" stroke-opacity="1" stroke-width="3.2"/>
<circle clip-path="url(#clip082)" cx="1113.76" cy="765.102" r="14.4" fill="#009af9" fill-rule="evenodd" fill-opacity="1" stroke="#000000" stroke-opacity="1" stroke-width="3.2"/>
<circle clip-path="url(#clip082)" cx="1133.43" cy="861.276" r="14.4" fill="#009af9" fill-rule="evenodd" fill-opacity="1" stroke="#000000" stroke-opacity="1" stroke-width="3.2"/>
<circle clip-path="url(#clip082)" cx="1153.09" cy="777.865" r="14.4" fill="#009af9" fill-rule="evenodd" fill-opacity="1" stroke="#000000" stroke-opacity="1" stroke-width="3.2"/>
<circle clip-path="url(#clip082)" cx="1172.76" cy="733.359" r="14.4" fill="#009af9" fill-rule="evenodd" fill-opacity="1" stroke="#000000" stroke-opacity="1" stroke-width="3.2"/>
<circle clip-path="url(#clip082)" cx="1192.43" cy="803.379" r="14.4" fill="#009af9" fill-rule="evenodd" fill-opacity="1" stroke="#000000" stroke-opacity="1" stroke-width="3.2"/>
<circle clip-path="url(#clip082)" cx="1212.09" cy="595.527" r="14.4" fill="#009af9" fill-rule="evenodd" fill-opacity="1" stroke="#000000" stroke-opacity="1" stroke-width="3.2"/>
<circle clip-path="url(#clip082)" cx="1231.76" cy="630.818" r="14.4" fill="#009af9" fill-rule="evenodd" fill-opacity="1" stroke="#000000" stroke-opacity="1" stroke-width="3.2"/>
<circle clip-path="url(#clip082)" cx="1251.43" cy="773.232" r="14.4" fill="#009af9" fill-rule="evenodd" fill-opacity="1" stroke="#000000" stroke-opacity="1" stroke-width="3.2"/>
<circle clip-path="url(#clip082)" cx="1271.09" cy="696.271" r="14.4" fill="#009af9" fill-rule="evenodd" fill-opacity="1" stroke="#000000" stroke-opacity="1" stroke-width="3.2"/>
<circle clip-path="url(#clip082)" cx="1290.76" cy="569.112" r="14.4" fill="#009af9" fill-rule="evenodd" fill-opacity="1" stroke="#000000" stroke-opacity="1" stroke-width="3.2"/>
<circle clip-path="url(#clip082)" cx="1310.43" cy="689.077" r="14.4" fill="#009af9" fill-rule="evenodd" fill-opacity="1" stroke="#000000" stroke-opacity="1" stroke-width="3.2"/>
<circle clip-path="url(#clip082)" cx="1330.09" cy="572.236" r="14.4" fill="#009af9" fill-rule="evenodd" fill-opacity="1" stroke="#000000" stroke-opacity="1" stroke-width="3.2"/>
<circle clip-path="url(#clip082)" cx="1349.76" cy="707.189" r="14.4" fill="#009af9" fill-rule="evenodd" fill-opacity="1" stroke="#000000" stroke-opacity="1" stroke-width="3.2"/>
<circle clip-path="url(#clip082)" cx="1369.43" cy="475.91" r="14.4" fill="#009af9" fill-rule="evenodd" fill-opacity="1" stroke="#000000" stroke-opacity="1" stroke-width="3.2"/>
<circle clip-path="url(#clip082)" cx="1389.09" cy="571.373" r="14.4" fill="#009af9" fill-rule="evenodd" fill-opacity="1" stroke="#000000" stroke-opacity="1" stroke-width="3.2"/>
<circle clip-path="url(#clip082)" cx="1408.76" cy="567.334" r="14.4" fill="#009af9" fill-rule="evenodd" fill-opacity="1" stroke="#000000" stroke-opacity="1" stroke-width="3.2"/>
<circle clip-path="url(#clip082)" cx="1428.42" cy="498.778" r="14.4" fill="#009af9" fill-rule="evenodd" fill-opacity="1" stroke="#000000" stroke-opacity="1" stroke-width="3.2"/>
<circle clip-path="url(#clip082)" cx="1448.09" cy="501.884" r="14.4" fill="#009af9" fill-rule="evenodd" fill-opacity="1" stroke="#000000" stroke-opacity="1" stroke-width="3.2"/>
<circle clip-path="url(#clip082)" cx="1467.76" cy="526.058" r="14.4" fill="#009af9" fill-rule="evenodd" fill-opacity="1" stroke="#000000" stroke-opacity="1" stroke-width="3.2"/>
<circle clip-path="url(#clip082)" cx="1487.42" cy="572.436" r="14.4" fill="#009af9" fill-rule="evenodd" fill-opacity="1" stroke="#000000" stroke-opacity="1" stroke-width="3.2"/>
<circle clip-path="url(#clip082)" cx="1507.09" cy="590.167" r="14.4" fill="#009af9" fill-rule="evenodd" fill-opacity="1" stroke="#000000" stroke-opacity="1" stroke-width="3.2"/>
<circle clip-path="url(#clip082)" cx="1526.76" cy="442.645" r="14.4" fill="#009af9" fill-rule="evenodd" fill-opacity="1" stroke="#000000" stroke-opacity="1" stroke-width="3.2"/>
<circle clip-path="url(#clip082)" cx="1546.42" cy="600.209" r="14.4" fill="#009af9" fill-rule="evenodd" fill-opacity="1" stroke="#000000" stroke-opacity="1" stroke-width="3.2"/>
<circle clip-path="url(#clip082)" cx="1566.09" cy="468.914" r="14.4" fill="#009af9" fill-rule="evenodd" fill-opacity="1" stroke="#000000" stroke-opacity="1" stroke-width="3.2"/>
<circle clip-path="url(#clip082)" cx="1585.76" cy="505.989" r="14.4" fill="#009af9" fill-rule="evenodd" fill-opacity="1" stroke="#000000" stroke-opacity="1" stroke-width="3.2"/>
<circle clip-path="url(#clip082)" cx="1605.42" cy="623.442" r="14.4" fill="#009af9" fill-rule="evenodd" fill-opacity="1" stroke="#000000" stroke-opacity="1" stroke-width="3.2"/>
<circle clip-path="url(#clip082)" cx="1625.09" cy="585.931" r="14.4" fill="#009af9" fill-rule="evenodd" fill-opacity="1" stroke="#000000" stroke-opacity="1" stroke-width="3.2"/>
<circle clip-path="url(#clip082)" cx="1644.76" cy="468.448" r="14.4" fill="#009af9" fill-rule="evenodd" fill-opacity="1" stroke="#000000" stroke-opacity="1" stroke-width="3.2"/>
<circle clip-path="url(#clip082)" cx="1664.42" cy="531.539" r="14.4" fill="#009af9" fill-rule="evenodd" fill-opacity="1" stroke="#000000" stroke-opacity="1" stroke-width="3.2"/>
<circle clip-path="url(#clip082)" cx="1684.09" cy="509.807" r="14.4" fill="#009af9" fill-rule="evenodd" fill-opacity="1" stroke="#000000" stroke-opacity="1" stroke-width="3.2"/>
<circle clip-path="url(#clip082)" cx="1703.76" cy="542.208" r="14.4" fill="#009af9" fill-rule="evenodd" fill-opacity="1" stroke="#000000" stroke-opacity="1" stroke-width="3.2"/>
<circle clip-path="url(#clip082)" cx="1723.42" cy="555.646" r="14.4" fill="#009af9" fill-rule="evenodd" fill-opacity="1" stroke="#000000" stroke-opacity="1" stroke-width="3.2"/>
<circle clip-path="url(#clip082)" cx="1743.09" cy="536.455" r="14.4" fill="#009af9" fill-rule="evenodd" fill-opacity="1" stroke="#000000" stroke-opacity="1" stroke-width="3.2"/>
<circle clip-path="url(#clip082)" cx="1762.76" cy="455.499" r="14.4" fill="#009af9" fill-rule="evenodd" fill-opacity="1" stroke="#000000" stroke-opacity="1" stroke-width="3.2"/>
<circle clip-path="url(#clip082)" cx="1782.42" cy="402.614" r="14.4" fill="#009af9" fill-rule="evenodd" fill-opacity="1" stroke="#000000" stroke-opacity="1" stroke-width="3.2"/>
<circle clip-path="url(#clip082)" cx="1802.09" cy="424.214" r="14.4" fill="#009af9" fill-rule="evenodd" fill-opacity="1" stroke="#000000" stroke-opacity="1" stroke-width="3.2"/>
<circle clip-path="url(#clip082)" cx="1821.76" cy="447.411" r="14.4" fill="#009af9" fill-rule="evenodd" fill-opacity="1" stroke="#000000" stroke-opacity="1" stroke-width="3.2"/>
<circle clip-path="url(#clip082)" cx="1841.42" cy="190.158" r="14.4" fill="#009af9" fill-rule="evenodd" fill-opacity="1" stroke="#000000" stroke-opacity="1" stroke-width="3.2"/>
<circle clip-path="url(#clip082)" cx="1861.09" cy="485.051" r="14.4" fill="#009af9" fill-rule="evenodd" fill-opacity="1" stroke="#000000" stroke-opacity="1" stroke-width="3.2"/>
<circle clip-path="url(#clip082)" cx="1880.76" cy="480.604" r="14.4" fill="#009af9" fill-rule="evenodd" fill-opacity="1" stroke="#000000" stroke-opacity="1" stroke-width="3.2"/>
<circle clip-path="url(#clip082)" cx="1900.42" cy="467.686" r="14.4" fill="#009af9" fill-rule="evenodd" fill-opacity="1" stroke="#000000" stroke-opacity="1" stroke-width="3.2"/>
<circle clip-path="url(#clip082)" cx="1920.09" cy="351.059" r="14.4" fill="#009af9" fill-rule="evenodd" fill-opacity="1" stroke="#000000" stroke-opacity="1" stroke-width="3.2"/>
<circle clip-path="url(#clip082)" cx="1939.76" cy="402.651" r="14.4" fill="#009af9" fill-rule="evenodd" fill-opacity="1" stroke="#000000" stroke-opacity="1" stroke-width="3.2"/>
<circle clip-path="url(#clip082)" cx="1959.42" cy="438.171" r="14.4" fill="#009af9" fill-rule="evenodd" fill-opacity="1" stroke="#000000" stroke-opacity="1" stroke-width="3.2"/>
<circle clip-path="url(#clip082)" cx="1979.09" cy="346.383" r="14.4" fill="#009af9" fill-rule="evenodd" fill-opacity="1" stroke="#000000" stroke-opacity="1" stroke-width="3.2"/>
<circle clip-path="url(#clip082)" cx="1998.76" cy="446.937" r="14.4" fill="#009af9" fill-rule="evenodd" fill-opacity="1" stroke="#000000" stroke-opacity="1" stroke-width="3.2"/>
<circle clip-path="url(#clip082)" cx="2018.42" cy="392.773" r="14.4" fill="#009af9" fill-rule="evenodd" fill-opacity="1" stroke="#000000" stroke-opacity="1" stroke-width="3.2"/>
<circle clip-path="url(#clip082)" cx="2038.09" cy="356.727" r="14.4" fill="#009af9" fill-rule="evenodd" fill-opacity="1" stroke="#000000" stroke-opacity="1" stroke-width="3.2"/>
<circle clip-path="url(#clip082)" cx="2057.76" cy="221.725" r="14.4" fill="#009af9" fill-rule="evenodd" fill-opacity="1" stroke="#000000" stroke-opacity="1" stroke-width="3.2"/>
<circle clip-path="url(#clip082)" cx="2077.42" cy="230.259" r="14.4" fill="#009af9" fill-rule="evenodd" fill-opacity="1" stroke="#000000" stroke-opacity="1" stroke-width="3.2"/>
<circle clip-path="url(#clip082)" cx="2097.09" cy="414.539" r="14.4" fill="#009af9" fill-rule="evenodd" fill-opacity="1" stroke="#000000" stroke-opacity="1" stroke-width="3.2"/>
<circle clip-path="url(#clip082)" cx="2116.76" cy="306.463" r="14.4" fill="#009af9" fill-rule="evenodd" fill-opacity="1" stroke="#000000" stroke-opacity="1" stroke-width="3.2"/>
<circle clip-path="url(#clip082)" cx="2136.42" cy="99.1312" r="14.4" fill="#009af9" fill-rule="evenodd" fill-opacity="1" stroke="#000000" stroke-opacity="1" stroke-width="3.2"/>
<circle clip-path="url(#clip082)" cx="2156.09" cy="275.374" r="14.4" fill="#009af9" fill-rule="evenodd" fill-opacity="1" stroke="#000000" stroke-opacity="1" stroke-width="3.2"/>
<circle clip-path="url(#clip082)" cx="2175.76" cy="242.795" r="14.4" fill="#009af9" fill-rule="evenodd" fill-opacity="1" stroke="#000000" stroke-opacity="1" stroke-width="3.2"/>
<circle clip-path="url(#clip082)" cx="2195.42" cy="218.281" r="14.4" fill="#009af9" fill-rule="evenodd" fill-opacity="1" stroke="#000000" stroke-opacity="1" stroke-width="3.2"/>
<circle clip-path="url(#clip082)" cx="2215.09" cy="276.76" r="14.4" fill="#009af9" fill-rule="evenodd" fill-opacity="1" stroke="#000000" stroke-opacity="1" stroke-width="3.2"/>
<circle clip-path="url(#clip082)" cx="2234.76" cy="193.517" r="14.4" fill="#009af9" fill-rule="evenodd" fill-opacity="1" stroke="#000000" stroke-opacity="1" stroke-width="3.2"/>
<circle clip-path="url(#clip082)" cx="2254.42" cy="338.705" r="14.4" fill="#009af9" fill-rule="evenodd" fill-opacity="1" stroke="#000000" stroke-opacity="1" stroke-width="3.2"/>
<circle clip-path="url(#clip082)" cx="2274.09" cy="153.021" r="14.4" fill="#009af9" fill-rule="evenodd" fill-opacity="1" stroke="#000000" stroke-opacity="1" stroke-width="3.2"/>
<circle clip-path="url(#clip082)" cx="2293.76" cy="135.289" r="14.4" fill="#009af9" fill-rule="evenodd" fill-opacity="1" stroke="#000000" stroke-opacity="1" stroke-width="3.2"/>
<path clip-path="url(#clip080)" d="M337.583 209.236 L598.48 209.236 L598.48 105.556 L337.583 105.556  Z" fill="#ffffff" fill-rule="evenodd" fill-opacity="1"/>
<polyline clip-path="url(#clip080)" style="stroke:#000000; stroke-linecap:round; stroke-linejoin:round; stroke-width:4; stroke-opacity:1; fill:none" points="337.583,209.236 598.48,209.236 598.48,105.556 337.583,105.556 337.583,209.236 "/>
<circle clip-path="url(#clip080)" cx="430.235" cy="157.396" r="20.48" fill="#009af9" fill-rule="evenodd" fill-opacity="1" stroke="#000000" stroke-opacity="1" stroke-width="4.55111"/>
<path clip-path="url(#clip080)" d="M536.729 177.083 Q534.923 181.713 533.21 183.125 Q531.498 184.537 528.627 184.537 L525.224 184.537 L525.224 180.972 L527.724 180.972 Q529.484 180.972 530.456 180.139 Q531.428 179.306 532.609 176.204 L533.372 174.259 L522.886 148.75 L527.4 148.75 L535.502 169.028 L543.604 148.75 L548.118 148.75 L536.729 177.083 Z" fill="#000000" fill-rule="nonzero" fill-opacity="1" /><path clip-path="url(#clip080)" d="M555.409 170.741 L563.048 170.741 L563.048 144.375 L554.738 146.042 L554.738 141.783 L563.002 140.116 L567.678 140.116 L567.678 170.741 L575.317 170.741 L575.317 174.676 L555.409 174.676 L555.409 170.741 Z" fill="#000000" fill-rule="nonzero" fill-opacity="1" /></svg>
