<?xml version="1.0" encoding="utf-8"?>
<svg xmlns="http://www.w3.org/2000/svg" xmlns:xlink="http://www.w3.org/1999/xlink" width="750" height="500" viewBox="0 0 3000 2000">
<defs>
  <clipPath id="clip270">
    <rect x="0" y="0" width="3000" height="2000"/>
  </clipPath>
</defs>
<path clip-path="url(#clip270)" d="M0 2000 L3000 2000 L3000 0 L0 0  Z" fill="#ffffff" fill-rule="evenodd" fill-opacity="1"/>
<defs>
  <clipPath id="clip271">
    <rect x="733" y="47" width="2220" height="1592"/>
  </clipPath>
</defs>
<path clip-path="url(#clip270)" d="M733.618 1638.08 L2952.76 1638.08 L2952.76 47.2441 L733.618 47.2441  Z" fill="#ffffff" fill-rule="evenodd" fill-opacity="1"/>
<polyline clip-path="url(#clip271)" style="stroke:#000000; stroke-linecap:round; stroke-linejoin:round; stroke-width:2; stroke-opacity:0.1; fill:none" points="753.698,1638.08 753.698,47.2431 "/>
<polyline clip-path="url(#clip271)" style="stroke:#000000; stroke-linecap:round; stroke-linejoin:round; stroke-width:2; stroke-opacity:0.1; fill:none" points="1180.95,1638.08 1180.95,47.2431 "/>
<polyline clip-path="url(#clip271)" style="stroke:#000000; stroke-linecap:round; stroke-linejoin:round; stroke-width:2; stroke-opacity:0.1; fill:none" points="1608.2,1638.08 1608.2,47.2431 "/>
<polyline clip-path="url(#clip271)" style="stroke:#000000; stroke-linecap:round; stroke-linejoin:round; stroke-width:2; stroke-opacity:0.1; fill:none" points="2035.45,1638.08 2035.45,47.2431 "/>
<polyline clip-path="url(#clip271)" style="stroke:#000000; stroke-linecap:round; stroke-linejoin:round; stroke-width:2; stroke-opacity:0.1; fill:none" points="2462.7,1638.08 2462.7,47.2431 "/>
<polyline clip-path="url(#clip271)" style="stroke:#000000; stroke-linecap:round; stroke-linejoin:round; stroke-width:2; stroke-opacity:0.1; fill:none" points="2889.95,1638.08 2889.95,47.2431 "/>
<polyline clip-path="url(#clip271)" style="stroke:#000000; stroke-linecap:round; stroke-linejoin:round; stroke-width:2; stroke-opacity:0.1; fill:none" points="733.618,1420.9 2952.76,1420.9 "/>
<polyline clip-path="url(#clip271)" style="stroke:#000000; stroke-linecap:round; stroke-linejoin:round; stroke-width:2; stroke-opacity:0.1; fill:none" points="733.618,1149.26 2952.76,1149.26 "/>
<polyline clip-path="url(#clip271)" style="stroke:#000000; stroke-linecap:round; stroke-linejoin:round; stroke-width:2; stroke-opacity:0.1; fill:none" points="733.618,877.624 2952.76,877.624 "/>
<polyline clip-path="url(#clip271)" style="stroke:#000000; stroke-linecap:round; stroke-linejoin:round; stroke-width:2; stroke-opacity:0.1; fill:none" points="733.618,605.981 2952.76,605.981 "/>
<polyline clip-path="url(#clip271)" style="stroke:#000000; stroke-linecap:round; stroke-linejoin:round; stroke-width:2; stroke-opacity:0.1; fill:none" points="733.618,334.344 2952.76,334.344 "/>
<polyline clip-path="url(#clip271)" style="stroke:#000000; stroke-linecap:round; stroke-linejoin:round; stroke-width:2; stroke-opacity:0.1; fill:none" points="733.618,62.7041 2952.76,62.7041 "/>
<polyline clip-path="url(#clip270)" style="stroke:#000000; stroke-linecap:round; stroke-linejoin:round; stroke-width:4; stroke-opacity:1; fill:none" points="733.618,1638.08 2952.76,1638.08 "/>
<polyline clip-path="url(#clip270)" style="stroke:#000000; stroke-linecap:round; stroke-linejoin:round; stroke-width:4; stroke-opacity:1; fill:none" points="753.698,1638.08 753.698,1619.18 "/>
<polyline clip-path="url(#clip270)" style="stroke:#000000; stroke-linecap:round; stroke-linejoin:round; stroke-width:4; stroke-opacity:1; fill:none" points="1180.95,1638.08 1180.95,1619.18 "/>
<polyline clip-path="url(#clip270)" style="stroke:#000000; stroke-linecap:round; stroke-linejoin:round; stroke-width:4; stroke-opacity:1; fill:none" points="1608.2,1638.08 1608.2,1619.18 "/>
<polyline clip-path="url(#clip270)" style="stroke:#000000; stroke-linecap:round; stroke-linejoin:round; stroke-width:4; stroke-opacity:1; fill:none" points="2035.45,1638.08 2035.45,1619.18 "/>
<polyline clip-path="url(#clip270)" style="stroke:#000000; stroke-linecap:round; stroke-linejoin:round; stroke-width:4; stroke-opacity:1; fill:none" points="2462.7,1638.08 2462.7,1619.18 "/>
<polyline clip-path="url(#clip270)" style="stroke:#000000; stroke-linecap:round; stroke-linejoin:round; stroke-width:4; stroke-opacity:1; fill:none" points="2889.95,1638.08 2889.95,1619.18 "/>
<path clip-path="url(#clip270)" d="M753.698 1673.8 Q750.087 1673.8 748.259 1677.36 Q746.453 1680.9 746.453 1688.03 Q746.453 1695.14 748.259 1698.7 Q750.087 1702.25 753.698 1702.25 Q757.333 1702.25 759.138 1698.7 Q760.967 1695.14 760.967 1688.03 Q760.967 1680.9 759.138 1677.36 Q757.333 1673.8 753.698 1673.8 M753.698 1670.09 Q759.509 1670.09 762.564 1674.7 Q765.643 1679.28 765.643 1688.03 Q765.643 1696.76 762.564 1701.37 Q759.509 1705.95 753.698 1705.95 Q747.888 1705.95 744.81 1701.37 Q741.754 1696.76 741.754 1688.03 Q741.754 1679.28 744.81 1674.7 Q747.888 1670.09 753.698 1670.09 Z" fill="#000000" fill-rule="nonzero" fill-opacity="1" /><path clip-path="url(#clip270)" d="M1155.64 1701.34 L1163.28 1701.34 L1163.28 1674.98 L1154.97 1676.64 L1154.97 1672.38 L1163.23 1670.72 L1167.9 1670.72 L1167.9 1701.34 L1175.54 1701.34 L1175.54 1705.28 L1155.64 1705.28 L1155.64 1701.34 Z" fill="#000000" fill-rule="nonzero" fill-opacity="1" /><path clip-path="url(#clip270)" d="M1194.99 1673.8 Q1191.38 1673.8 1189.55 1677.36 Q1187.74 1680.9 1187.74 1688.03 Q1187.74 1695.14 1189.55 1698.7 Q1191.38 1702.25 1194.99 1702.25 Q1198.62 1702.25 1200.43 1698.7 Q1202.26 1695.14 1202.26 1688.03 Q1202.26 1680.9 1200.43 1677.36 Q1198.62 1673.8 1194.99 1673.8 M1194.99 1670.09 Q1200.8 1670.09 1203.85 1674.7 Q1206.93 1679.28 1206.93 1688.03 Q1206.93 1696.76 1203.85 1701.37 Q1200.8 1705.95 1194.99 1705.95 Q1189.18 1705.95 1186.1 1701.37 Q1183.04 1696.76 1183.04 1688.03 Q1183.04 1679.28 1186.1 1674.7 Q1189.18 1670.09 1194.99 1670.09 Z" fill="#000000" fill-rule="nonzero" fill-opacity="1" /><path clip-path="url(#clip270)" d="M1586.97 1701.34 L1603.29 1701.34 L1603.29 1705.28 L1581.35 1705.28 L1581.35 1701.34 Q1584.01 1698.59 1588.59 1693.96 Q1593.2 1689.31 1594.38 1687.96 Q1596.63 1685.44 1597.5 1683.7 Q1598.41 1681.94 1598.41 1680.25 Q1598.41 1677.5 1596.46 1675.76 Q1594.54 1674.03 1591.44 1674.03 Q1589.24 1674.03 1586.79 1674.79 Q1584.36 1675.56 1581.58 1677.11 L1581.58 1672.38 Q1584.4 1671.25 1586.86 1670.67 Q1589.31 1670.09 1591.35 1670.09 Q1596.72 1670.09 1599.91 1672.78 Q1603.11 1675.46 1603.11 1679.95 Q1603.11 1682.08 1602.3 1684 Q1601.51 1685.9 1599.4 1688.5 Q1598.82 1689.17 1595.72 1692.38 Q1592.62 1695.58 1586.97 1701.34 Z" fill="#000000" fill-rule="nonzero" fill-opacity="1" /><path clip-path="url(#clip270)" d="M1623.11 1673.8 Q1619.5 1673.8 1617.67 1677.36 Q1615.86 1680.9 1615.86 1688.03 Q1615.86 1695.14 1617.67 1698.7 Q1619.5 1702.25 1623.11 1702.25 Q1626.74 1702.25 1628.55 1698.7 Q1630.37 1695.14 1630.37 1688.03 Q1630.37 1680.9 1628.55 1677.36 Q1626.74 1673.8 1623.11 1673.8 M1623.11 1670.09 Q1628.92 1670.09 1631.97 1674.7 Q1635.05 1679.28 1635.05 1688.03 Q1635.05 1696.76 1631.97 1701.37 Q1628.92 1705.95 1623.11 1705.95 Q1617.3 1705.95 1614.22 1701.37 Q1611.16 1696.76 1611.16 1688.03 Q1611.16 1679.28 1614.22 1674.7 Q1617.3 1670.09 1623.11 1670.09 Z" fill="#000000" fill-rule="nonzero" fill-opacity="1" /><path clip-path="url(#clip270)" d="M2024.29 1686.64 Q2027.65 1687.36 2029.52 1689.63 Q2031.42 1691.9 2031.42 1695.23 Q2031.42 1700.35 2027.9 1703.15 Q2024.38 1705.95 2017.9 1705.95 Q2015.73 1705.95 2013.41 1705.51 Q2011.12 1705.09 2008.67 1704.24 L2008.67 1699.72 Q2010.61 1700.86 2012.93 1701.44 Q2015.24 1702.01 2017.76 1702.01 Q2022.16 1702.01 2024.45 1700.28 Q2026.77 1698.54 2026.77 1695.23 Q2026.77 1692.18 2024.62 1690.46 Q2022.49 1688.73 2018.67 1688.73 L2014.64 1688.73 L2014.64 1684.88 L2018.85 1684.88 Q2022.3 1684.88 2024.13 1683.52 Q2025.96 1682.13 2025.96 1679.54 Q2025.96 1676.88 2024.06 1675.46 Q2022.19 1674.03 2018.67 1674.03 Q2016.75 1674.03 2014.55 1674.44 Q2012.35 1674.86 2009.71 1675.74 L2009.71 1671.57 Q2012.37 1670.83 2014.69 1670.46 Q2017.02 1670.09 2019.08 1670.09 Q2024.41 1670.09 2027.51 1672.52 Q2030.61 1674.93 2030.61 1679.05 Q2030.61 1681.92 2028.97 1683.91 Q2027.32 1685.88 2024.29 1686.64 Z" fill="#000000" fill-rule="nonzero" fill-opacity="1" /><path clip-path="url(#clip270)" d="M2050.29 1673.8 Q2046.68 1673.8 2044.85 1677.36 Q2043.04 1680.9 2043.04 1688.03 Q2043.04 1695.14 2044.85 1698.7 Q2046.68 1702.25 2050.29 1702.25 Q2053.92 1702.25 2055.73 1698.7 Q2057.56 1695.14 2057.56 1688.03 Q2057.56 1680.9 2055.73 1677.36 Q2053.92 1673.8 2050.29 1673.8 M2050.29 1670.09 Q2056.1 1670.09 2059.15 1674.7 Q2062.23 1679.28 2062.23 1688.03 Q2062.23 1696.76 2059.15 1701.37 Q2056.1 1705.95 2050.29 1705.95 Q2044.48 1705.95 2041.4 1701.37 Q2038.34 1696.76 2038.34 1688.03 Q2038.34 1679.28 2041.4 1674.7 Q2044.48 1670.09 2050.29 1670.09 Z" fill="#000000" fill-rule="nonzero" fill-opacity="1" /><path clip-path="url(#clip270)" d="M2450.87 1674.79 L2439.07 1693.24 L2450.87 1693.24 L2450.87 1674.79 M2449.64 1670.72 L2455.52 1670.72 L2455.52 1693.24 L2460.45 1693.24 L2460.45 1697.13 L2455.52 1697.13 L2455.52 1705.28 L2450.87 1705.28 L2450.87 1697.13 L2435.27 1697.13 L2435.27 1692.62 L2449.64 1670.72 Z" fill="#000000" fill-rule="nonzero" fill-opacity="1" /><path clip-path="url(#clip270)" d="M2478.19 1673.8 Q2474.57 1673.8 2472.75 1677.36 Q2470.94 1680.9 2470.94 1688.03 Q2470.94 1695.14 2472.75 1698.7 Q2474.57 1702.25 2478.19 1702.25 Q2481.82 1702.25 2483.63 1698.7 Q2485.45 1695.14 2485.45 1688.03 Q2485.45 1680.9 2483.63 1677.36 Q2481.82 1673.8 2478.19 1673.8 M2478.19 1670.09 Q2484 1670.09 2487.05 1674.7 Q2490.13 1679.28 2490.13 1688.03 Q2490.13 1696.76 2487.05 1701.37 Q2484 1705.95 2478.19 1705.95 Q2472.38 1705.95 2469.3 1701.37 Q2466.24 1696.76 2466.24 1688.03 Q2466.24 1679.28 2469.3 1674.7 Q2472.38 1670.09 2478.19 1670.09 Z" fill="#000000" fill-rule="nonzero" fill-opacity="1" /><path clip-path="url(#clip270)" d="M2864.65 1670.72 L2883.01 1670.72 L2883.01 1674.65 L2868.93 1674.65 L2868.93 1683.13 Q2869.95 1682.78 2870.97 1682.62 Q2871.99 1682.43 2873.01 1682.43 Q2878.79 1682.43 2882.17 1685.6 Q2885.55 1688.77 2885.55 1694.19 Q2885.55 1699.77 2882.08 1702.87 Q2878.61 1705.95 2872.29 1705.95 Q2870.11 1705.95 2867.84 1705.58 Q2865.6 1705.21 2863.19 1704.47 L2863.19 1699.77 Q2865.27 1700.9 2867.5 1701.46 Q2869.72 1702.01 2872.2 1702.01 Q2876.2 1702.01 2878.54 1699.91 Q2880.88 1697.8 2880.88 1694.19 Q2880.88 1690.58 2878.54 1688.47 Q2876.2 1686.37 2872.2 1686.37 Q2870.32 1686.37 2868.45 1686.78 Q2866.59 1687.2 2864.65 1688.08 L2864.65 1670.72 Z" fill="#000000" fill-rule="nonzero" fill-opacity="1" /><path clip-path="url(#clip270)" d="M2904.76 1673.8 Q2901.15 1673.8 2899.33 1677.36 Q2897.52 1680.9 2897.52 1688.03 Q2897.52 1695.14 2899.33 1698.7 Q2901.15 1702.25 2904.76 1702.25 Q2908.4 1702.25 2910.2 1698.7 Q2912.03 1695.14 2912.03 1688.03 Q2912.03 1680.9 2910.2 1677.36 Q2908.4 1673.8 2904.76 1673.8 M2904.76 1670.09 Q2910.57 1670.09 2913.63 1674.7 Q2916.71 1679.28 2916.71 1688.03 Q2916.71 1696.76 2913.63 1701.37 Q2910.57 1705.95 2904.76 1705.95 Q2898.95 1705.95 2895.88 1701.37 Q2892.82 1696.76 2892.82 1688.03 Q2892.82 1679.28 2895.88 1674.7 Q2898.95 1670.09 2904.76 1670.09 Z" fill="#000000" fill-rule="nonzero" fill-opacity="1" /><path clip-path="url(#clip270)" d="M1495.14 1748.78 Q1488.14 1748.78 1484 1754 Q1479.9 1759.22 1479.9 1768.23 Q1479.9 1777.2 1484 1782.42 Q1488.14 1787.64 1495.14 1787.64 Q1502.14 1787.64 1506.22 1782.42 Q1510.32 1777.2 1510.32 1768.23 Q1510.32 1759.22 1506.22 1754 Q1502.14 1748.78 1495.14 1748.78 M1495.14 1743.56 Q1505.14 1743.56 1511.12 1750.28 Q1517.1 1756.96 1517.1 1768.23 Q1517.1 1779.46 1511.12 1786.18 Q1505.14 1792.86 1495.14 1792.86 Q1485.12 1792.86 1479.1 1786.18 Q1473.12 1779.5 1473.12 1768.23 Q1473.12 1756.96 1479.1 1750.28 Q1485.12 1743.56 1495.14 1743.56 Z" fill="#000000" fill-rule="nonzero" fill-opacity="1" /><path clip-path="url(#clip270)" d="M1532.57 1786.59 L1532.57 1805.5 L1526.68 1805.5 L1526.68 1756.29 L1532.57 1756.29 L1532.57 1761.7 Q1534.42 1758.52 1537.22 1756.99 Q1540.05 1755.43 1543.97 1755.43 Q1550.46 1755.43 1554.5 1760.59 Q1558.58 1765.75 1558.58 1774.15 Q1558.58 1782.55 1554.5 1787.71 Q1550.46 1792.86 1543.97 1792.86 Q1540.05 1792.86 1537.22 1791.34 Q1534.42 1789.78 1532.57 1786.59 M1552.5 1774.15 Q1552.5 1767.69 1549.82 1764.03 Q1547.18 1760.34 1542.53 1760.34 Q1537.89 1760.34 1535.21 1764.03 Q1532.57 1767.69 1532.57 1774.15 Q1532.57 1780.61 1535.21 1784.3 Q1537.89 1787.96 1542.53 1787.96 Q1547.18 1787.96 1549.82 1784.3 Q1552.5 1780.61 1552.5 1774.15 Z" fill="#000000" fill-rule="nonzero" fill-opacity="1" /><path clip-path="url(#clip270)" d="M1574.08 1746.17 L1574.08 1756.29 L1586.14 1756.29 L1586.14 1760.85 L1574.08 1760.85 L1574.08 1780.2 Q1574.08 1784.56 1575.25 1785.8 Q1576.46 1787.04 1580.12 1787.04 L1586.14 1787.04 L1586.14 1791.94 L1580.12 1791.94 Q1573.34 1791.94 1570.77 1789.43 Q1568.19 1786.88 1568.19 1780.2 L1568.19 1760.85 L1563.89 1760.85 L1563.89 1756.29 L1568.19 1756.29 L1568.19 1746.17 L1574.08 1746.17 Z" fill="#000000" fill-rule="nonzero" fill-opacity="1" /><path clip-path="url(#clip270)" d="M1593.84 1756.29 L1599.7 1756.29 L1599.7 1791.94 L1593.84 1791.94 L1593.84 1756.29 M1593.84 1742.42 L1599.7 1742.42 L1599.7 1749.83 L1593.84 1749.83 L1593.84 1742.42 Z" fill="#000000" fill-rule="nonzero" fill-opacity="1" /><path clip-path="url(#clip270)" d="M1639.71 1763.14 Q1641.9 1759.19 1644.96 1757.31 Q1648.01 1755.43 1652.15 1755.43 Q1657.72 1755.43 1660.75 1759.35 Q1663.77 1763.23 1663.77 1770.43 L1663.77 1791.94 L1657.88 1791.94 L1657.88 1770.62 Q1657.88 1765.49 1656.07 1763.01 Q1654.25 1760.53 1650.53 1760.53 Q1645.98 1760.53 1643.34 1763.55 Q1640.69 1766.57 1640.69 1771.79 L1640.69 1791.94 L1634.81 1791.94 L1634.81 1770.62 Q1634.81 1765.46 1632.99 1763.01 Q1631.18 1760.53 1627.39 1760.53 Q1622.9 1760.53 1620.26 1763.58 Q1617.62 1766.61 1617.62 1771.79 L1617.62 1791.94 L1611.73 1791.94 L1611.73 1756.29 L1617.62 1756.29 L1617.62 1761.83 Q1619.62 1758.55 1622.42 1756.99 Q1625.22 1755.43 1629.08 1755.43 Q1632.96 1755.43 1635.66 1757.41 Q1638.4 1759.38 1639.71 1763.14 Z" fill="#000000" fill-rule="nonzero" fill-opacity="1" /><path clip-path="url(#clip270)" d="M1675.45 1756.29 L1681.31 1756.29 L1681.31 1791.94 L1675.45 1791.94 L1675.45 1756.29 M1675.45 1742.42 L1681.31 1742.42 L1681.31 1749.83 L1675.45 1749.83 L1675.45 1742.42 Z" fill="#000000" fill-rule="nonzero" fill-opacity="1" /><path clip-path="url(#clip270)" d="M1716.29 1757.34 L1716.29 1762.88 Q1713.8 1761.61 1711.13 1760.97 Q1708.46 1760.34 1705.59 1760.34 Q1701.23 1760.34 1699.04 1761.67 Q1696.87 1763.01 1696.87 1765.68 Q1696.87 1767.72 1698.43 1768.9 Q1699.99 1770.04 1704.7 1771.09 L1706.71 1771.54 Q1712.94 1772.88 1715.55 1775.33 Q1718.2 1777.75 1718.2 1782.11 Q1718.2 1787.07 1714.25 1789.97 Q1710.33 1792.86 1703.46 1792.86 Q1700.59 1792.86 1697.48 1792.29 Q1694.39 1791.75 1690.95 1790.64 L1690.95 1784.59 Q1694.2 1786.28 1697.35 1787.14 Q1700.5 1787.96 1703.59 1787.96 Q1707.72 1787.96 1709.95 1786.56 Q1712.18 1785.13 1712.18 1782.55 Q1712.18 1780.16 1710.56 1778.89 Q1708.97 1777.62 1703.52 1776.44 L1701.49 1775.96 Q1696.04 1774.82 1693.62 1772.46 Q1691.21 1770.08 1691.21 1765.94 Q1691.21 1760.91 1694.77 1758.17 Q1698.34 1755.43 1704.89 1755.43 Q1708.14 1755.43 1711 1755.91 Q1713.87 1756.39 1716.29 1757.34 Z" fill="#000000" fill-rule="nonzero" fill-opacity="1" /><path clip-path="url(#clip270)" d="M1743.72 1774.02 Q1736.62 1774.02 1733.89 1775.65 Q1731.15 1777.27 1731.15 1781.18 Q1731.15 1784.3 1733.19 1786.15 Q1735.26 1787.96 1738.79 1787.96 Q1743.66 1787.96 1746.59 1784.53 Q1749.55 1781.06 1749.55 1775.33 L1749.55 1774.02 L1743.72 1774.02 M1755.4 1771.6 L1755.4 1791.94 L1749.55 1791.94 L1749.55 1786.53 Q1747.54 1789.78 1744.55 1791.34 Q1741.56 1792.86 1737.23 1792.86 Q1731.76 1792.86 1728.51 1789.81 Q1725.29 1786.72 1725.29 1781.57 Q1725.29 1775.55 1729.3 1772.49 Q1733.35 1769.44 1741.34 1769.44 L1749.55 1769.44 L1749.55 1768.87 Q1749.55 1764.82 1746.87 1762.63 Q1744.23 1760.4 1739.43 1760.4 Q1736.37 1760.4 1733.47 1761.13 Q1730.58 1761.86 1727.9 1763.33 L1727.9 1757.92 Q1731.12 1756.68 1734.14 1756.07 Q1737.17 1755.43 1740.03 1755.43 Q1747.76 1755.43 1751.58 1759.44 Q1755.4 1763.45 1755.4 1771.6 Z" fill="#000000" fill-rule="nonzero" fill-opacity="1" /><path clip-path="url(#clip270)" d="M1773.26 1746.17 L1773.26 1756.29 L1785.32 1756.29 L1785.32 1760.85 L1773.26 1760.85 L1773.26 1780.2 Q1773.26 1784.56 1774.44 1785.8 Q1775.65 1787.04 1779.31 1787.04 L1785.32 1787.04 L1785.32 1791.94 L1779.31 1791.94 Q1772.53 1791.94 1769.95 1789.43 Q1767.37 1786.88 1767.37 1780.2 L1767.37 1760.85 L1763.07 1760.85 L1763.07 1756.29 L1767.37 1756.29 L1767.37 1746.17 L1773.26 1746.17 Z" fill="#000000" fill-rule="nonzero" fill-opacity="1" /><path clip-path="url(#clip270)" d="M1793.02 1756.29 L1798.88 1756.29 L1798.88 1791.94 L1793.02 1791.94 L1793.02 1756.29 M1793.02 1742.42 L1798.88 1742.42 L1798.88 1749.83 L1793.02 1749.83 L1793.02 1742.42 Z" fill="#000000" fill-rule="nonzero" fill-opacity="1" /><path clip-path="url(#clip270)" d="M1824.95 1760.4 Q1820.24 1760.4 1817.5 1764.09 Q1814.76 1767.75 1814.76 1774.15 Q1814.76 1780.55 1817.47 1784.24 Q1820.21 1787.9 1824.95 1787.9 Q1829.63 1787.9 1832.37 1784.21 Q1835.1 1780.52 1835.1 1774.15 Q1835.1 1767.82 1832.37 1764.12 Q1829.63 1760.4 1824.95 1760.4 M1824.95 1755.43 Q1832.59 1755.43 1836.95 1760.4 Q1841.31 1765.36 1841.31 1774.15 Q1841.31 1782.9 1836.95 1787.9 Q1832.59 1792.86 1824.95 1792.86 Q1817.28 1792.86 1812.92 1787.9 Q1808.59 1782.9 1808.59 1774.15 Q1808.59 1765.36 1812.92 1760.4 Q1817.28 1755.43 1824.95 1755.43 Z" fill="#000000" fill-rule="nonzero" fill-opacity="1" /><path clip-path="url(#clip270)" d="M1880.65 1770.43 L1880.65 1791.94 L1874.79 1791.94 L1874.79 1770.62 Q1874.79 1765.56 1872.82 1763.04 Q1870.85 1760.53 1866.9 1760.53 Q1862.16 1760.53 1859.42 1763.55 Q1856.68 1766.57 1856.68 1771.79 L1856.68 1791.94 L1850.79 1791.94 L1850.79 1756.29 L1856.68 1756.29 L1856.68 1761.83 Q1858.78 1758.62 1861.62 1757.03 Q1864.48 1755.43 1868.2 1755.43 Q1874.35 1755.43 1877.5 1759.25 Q1880.65 1763.04 1880.65 1770.43 Z" fill="#000000" fill-rule="nonzero" fill-opacity="1" /><path clip-path="url(#clip270)" d="M1933.71 1761.77 Q1932.72 1761.2 1931.54 1760.94 Q1930.4 1760.65 1929 1760.65 Q1924.03 1760.65 1921.36 1763.9 Q1918.72 1767.12 1918.72 1773.16 L1918.72 1791.94 L1912.83 1791.94 L1912.83 1756.29 L1918.72 1756.29 L1918.72 1761.83 Q1920.56 1758.59 1923.52 1757.03 Q1926.48 1755.43 1930.72 1755.43 Q1931.32 1755.43 1932.05 1755.53 Q1932.78 1755.59 1933.68 1755.75 L1933.71 1761.77 Z" fill="#000000" fill-rule="nonzero" fill-opacity="1" /><path clip-path="url(#clip270)" d="M1939.25 1777.87 L1939.25 1756.29 L1945.1 1756.29 L1945.1 1777.65 Q1945.1 1782.71 1947.08 1785.26 Q1949.05 1787.77 1953 1787.77 Q1957.74 1787.77 1960.47 1784.75 Q1963.24 1781.72 1963.24 1776.5 L1963.24 1756.29 L1969.1 1756.29 L1969.1 1791.94 L1963.24 1791.94 L1963.24 1786.47 Q1961.11 1789.71 1958.28 1791.3 Q1955.48 1792.86 1951.75 1792.86 Q1945.61 1792.86 1942.43 1789.05 Q1939.25 1785.23 1939.25 1777.87 M1953.98 1755.43 L1953.98 1755.43 Z" fill="#000000" fill-rule="nonzero" fill-opacity="1" /><path clip-path="url(#clip270)" d="M2010.8 1770.43 L2010.8 1791.94 L2004.94 1791.94 L2004.94 1770.62 Q2004.94 1765.56 2002.97 1763.04 Q2000.99 1760.53 1997.05 1760.53 Q1992.3 1760.53 1989.57 1763.55 Q1986.83 1766.57 1986.83 1771.79 L1986.83 1791.94 L1980.94 1791.94 L1980.94 1756.29 L1986.83 1756.29 L1986.83 1761.83 Q1988.93 1758.62 1991.76 1757.03 Q1994.63 1755.43 1998.35 1755.43 Q2004.49 1755.43 2007.64 1759.25 Q2010.8 1763.04 2010.8 1770.43 Z" fill="#000000" fill-rule="nonzero" fill-opacity="1" /><path clip-path="url(#clip270)" d="M2043.2 1756.29 L2049.05 1756.29 L2049.05 1791.94 L2043.2 1791.94 L2043.2 1756.29 M2043.2 1742.42 L2049.05 1742.42 L2049.05 1749.83 L2043.2 1749.83 L2043.2 1742.42 Z" fill="#000000" fill-rule="nonzero" fill-opacity="1" /><path clip-path="url(#clip270)" d="M2090.94 1770.43 L2090.94 1791.94 L2085.08 1791.94 L2085.08 1770.62 Q2085.08 1765.56 2083.11 1763.04 Q2081.14 1760.53 2077.19 1760.53 Q2072.45 1760.53 2069.71 1763.55 Q2066.97 1766.57 2066.97 1771.79 L2066.97 1791.94 L2061.08 1791.94 L2061.08 1756.29 L2066.97 1756.29 L2066.97 1761.83 Q2069.07 1758.62 2071.91 1757.03 Q2074.77 1755.43 2078.5 1755.43 Q2084.64 1755.43 2087.79 1759.25 Q2090.94 1763.04 2090.94 1770.43 Z" fill="#000000" fill-rule="nonzero" fill-opacity="1" /><path clip-path="url(#clip270)" d="M2126.08 1761.7 L2126.08 1742.42 L2131.94 1742.42 L2131.94 1791.94 L2126.08 1791.94 L2126.08 1786.59 Q2124.23 1789.78 2121.4 1791.34 Q2118.6 1792.86 2114.65 1792.86 Q2108.19 1792.86 2104.12 1787.71 Q2100.07 1782.55 2100.07 1774.15 Q2100.07 1765.75 2104.12 1760.59 Q2108.19 1755.43 2114.65 1755.43 Q2118.6 1755.43 2121.4 1756.99 Q2124.23 1758.52 2126.08 1761.7 M2106.12 1774.15 Q2106.12 1780.61 2108.76 1784.3 Q2111.44 1787.96 2116.08 1787.96 Q2120.73 1787.96 2123.41 1784.3 Q2126.08 1780.61 2126.08 1774.15 Q2126.08 1767.69 2123.41 1764.03 Q2120.73 1760.34 2116.08 1760.34 Q2111.44 1760.34 2108.76 1764.03 Q2106.12 1767.69 2106.12 1774.15 Z" fill="#000000" fill-rule="nonzero" fill-opacity="1" /><path clip-path="url(#clip270)" d="M2174.49 1772.65 L2174.49 1775.52 L2147.56 1775.52 Q2147.94 1781.57 2151.19 1784.75 Q2154.47 1787.9 2160.29 1787.9 Q2163.67 1787.9 2166.82 1787.07 Q2170 1786.24 2173.12 1784.59 L2173.12 1790.13 Q2169.97 1791.46 2166.66 1792.16 Q2163.35 1792.86 2159.94 1792.86 Q2151.41 1792.86 2146.42 1787.9 Q2141.45 1782.93 2141.45 1774.47 Q2141.45 1765.71 2146.16 1760.59 Q2150.91 1755.43 2158.93 1755.43 Q2166.12 1755.43 2170.29 1760.08 Q2174.49 1764.7 2174.49 1772.65 M2168.63 1770.93 Q2168.57 1766.13 2165.93 1763.26 Q2163.32 1760.4 2158.99 1760.4 Q2154.09 1760.4 2151.13 1763.17 Q2148.2 1765.94 2147.75 1770.97 L2168.63 1770.93 Z" fill="#000000" fill-rule="nonzero" fill-opacity="1" /><path clip-path="url(#clip270)" d="M2212.59 1756.29 L2199.7 1773.64 L2213.26 1791.94 L2206.35 1791.94 L2195.97 1777.94 L2185.6 1791.94 L2178.69 1791.94 L2192.54 1773.29 L2179.87 1756.29 L2186.78 1756.29 L2196.23 1768.99 L2205.68 1756.29 L2212.59 1756.29 Z" fill="#000000" fill-rule="nonzero" fill-opacity="1" /><polyline clip-path="url(#clip270)" style="stroke:#000000; stroke-linecap:round; stroke-linejoin:round; stroke-width:4; stroke-opacity:1; fill:none" points="733.618,1638.08 733.618,47.2431 "/>
<polyline clip-path="url(#clip270)" style="stroke:#000000; stroke-linecap:round; stroke-linejoin:round; stroke-width:4; stroke-opacity:1; fill:none" points="733.618,1420.9 752.515,1420.9 "/>
<polyline clip-path="url(#clip270)" style="stroke:#000000; stroke-linecap:round; stroke-linejoin:round; stroke-width:4; stroke-opacity:1; fill:none" points="733.618,1149.26 752.515,1149.26 "/>
<polyline clip-path="url(#clip270)" style="stroke:#000000; stroke-linecap:round; stroke-linejoin:round; stroke-width:4; stroke-opacity:1; fill:none" points="733.618,877.624 752.515,877.624 "/>
<polyline clip-path="url(#clip270)" style="stroke:#000000; stroke-linecap:round; stroke-linejoin:round; stroke-width:4; stroke-opacity:1; fill:none" points="733.618,605.981 752.515,605.981 "/>
<polyline clip-path="url(#clip270)" style="stroke:#000000; stroke-linecap:round; stroke-linejoin:round; stroke-width:4; stroke-opacity:1; fill:none" points="733.618,334.344 752.515,334.344 "/>
<polyline clip-path="url(#clip270)" style="stroke:#000000; stroke-linecap:round; stroke-linejoin:round; stroke-width:4; stroke-opacity:1; fill:none" points="733.618,62.7041 752.515,62.7041 "/>
<path clip-path="url(#clip270)" d="M292.363 1410.07 L314.585 1410.07 L314.585 1412.06 L302.038 1444.63 L297.154 1444.63 L308.96 1414.01 L292.363 1414.01 L292.363 1410.07 Z" fill="#000000" fill-rule="nonzero" fill-opacity="1" /><path clip-path="url(#clip270)" d="M323.705 1438.75 L328.589 1438.75 L328.589 1444.63 L323.705 1444.63 L323.705 1438.75 Z" fill="#000000" fill-rule="nonzero" fill-opacity="1" /><path clip-path="url(#clip270)" d="M352.941 1426 Q356.297 1426.71 358.172 1428.98 Q360.07 1431.25 360.07 1434.58 Q360.07 1439.7 356.552 1442.5 Q353.033 1445.3 346.552 1445.3 Q344.376 1445.3 342.061 1444.86 Q339.77 1444.45 337.316 1443.59 L337.316 1439.08 Q339.26 1440.21 341.575 1440.79 Q343.89 1441.37 346.413 1441.37 Q350.811 1441.37 353.103 1439.63 Q355.418 1437.89 355.418 1434.58 Q355.418 1431.53 353.265 1429.82 Q351.135 1428.08 347.316 1428.08 L343.288 1428.08 L343.288 1424.24 L347.501 1424.24 Q350.95 1424.24 352.779 1422.87 Q354.608 1421.48 354.608 1418.89 Q354.608 1416.23 352.709 1414.82 Q350.834 1413.38 347.316 1413.38 Q345.395 1413.38 343.196 1413.8 Q340.997 1414.21 338.358 1415.09 L338.358 1410.93 Q341.02 1410.19 343.334 1409.82 Q345.672 1409.45 347.733 1409.45 Q353.057 1409.45 356.158 1411.88 Q359.26 1414.28 359.26 1418.4 Q359.26 1421.27 357.617 1423.27 Q355.973 1425.23 352.941 1426 Z" fill="#000000" fill-rule="nonzero" fill-opacity="1" /><path clip-path="url(#clip270)" d="M369.075 1443.91 L369.075 1439.65 Q370.834 1440.49 372.64 1440.93 Q374.445 1441.37 376.182 1441.37 Q380.811 1441.37 383.242 1438.27 Q385.695 1435.14 386.043 1428.8 Q384.7 1430.79 382.64 1431.85 Q380.58 1432.92 378.08 1432.92 Q372.894 1432.92 369.862 1429.79 Q366.853 1426.64 366.853 1421.21 Q366.853 1415.88 370.001 1412.66 Q373.149 1409.45 378.381 1409.45 Q384.376 1409.45 387.524 1414.05 Q390.695 1418.64 390.695 1427.39 Q390.695 1435.56 386.806 1440.44 Q382.941 1445.3 376.39 1445.3 Q374.631 1445.3 372.825 1444.95 Q371.02 1444.61 369.075 1443.91 M378.381 1429.26 Q381.529 1429.26 383.357 1427.11 Q385.209 1424.95 385.209 1421.21 Q385.209 1417.48 383.357 1415.33 Q381.529 1413.15 378.381 1413.15 Q375.232 1413.15 373.381 1415.33 Q371.552 1417.48 371.552 1421.21 Q371.552 1424.95 373.381 1427.11 Q375.232 1429.26 378.381 1429.26 Z" fill="#000000" fill-rule="nonzero" fill-opacity="1" /><path clip-path="url(#clip270)" d="M399.908 1440.7 L407.547 1440.7 L407.547 1414.33 L399.237 1416 L399.237 1411.74 L407.501 1410.07 L412.177 1410.07 L412.177 1440.7 L419.816 1440.7 L419.816 1444.63 L399.908 1444.63 L399.908 1440.7 Z" fill="#000000" fill-rule="nonzero" fill-opacity="1" /><path clip-path="url(#clip270)" d="M443.427 1426 Q446.783 1426.71 448.658 1428.98 Q450.556 1431.25 450.556 1434.58 Q450.556 1439.7 447.038 1442.5 Q443.519 1445.3 437.038 1445.3 Q434.862 1445.3 432.547 1444.86 Q430.255 1444.45 427.802 1443.59 L427.802 1439.08 Q429.746 1440.21 432.061 1440.79 Q434.376 1441.37 436.899 1441.37 Q441.297 1441.37 443.589 1439.63 Q445.903 1437.89 445.903 1434.58 Q445.903 1431.53 443.751 1429.82 Q441.621 1428.08 437.802 1428.08 L433.774 1428.08 L433.774 1424.24 L437.987 1424.24 Q441.436 1424.24 443.264 1422.87 Q445.093 1421.48 445.093 1418.89 Q445.093 1416.23 443.195 1414.82 Q441.32 1413.38 437.802 1413.38 Q435.88 1413.38 433.681 1413.8 Q431.482 1414.21 428.843 1415.09 L428.843 1410.93 Q431.505 1410.19 433.82 1409.82 Q436.158 1409.45 438.218 1409.45 Q443.542 1409.45 446.644 1411.88 Q449.746 1414.28 449.746 1418.4 Q449.746 1421.27 448.102 1423.27 Q446.459 1425.23 443.427 1426 Z" fill="#000000" fill-rule="nonzero" fill-opacity="1" /><path clip-path="url(#clip270)" d="M463.45 1440.7 L479.769 1440.7 L479.769 1444.63 L457.825 1444.63 L457.825 1440.7 Q460.487 1437.94 465.07 1433.31 Q469.676 1428.66 470.857 1427.32 Q473.102 1424.79 473.982 1423.06 Q474.885 1421.3 474.885 1419.61 Q474.885 1416.85 472.94 1415.12 Q471.019 1413.38 467.917 1413.38 Q465.718 1413.38 463.264 1414.14 Q460.834 1414.91 458.056 1416.46 L458.056 1411.74 Q460.88 1410.6 463.334 1410.02 Q465.788 1409.45 467.825 1409.45 Q473.195 1409.45 476.389 1412.13 Q479.584 1414.82 479.584 1419.31 Q479.584 1421.44 478.774 1423.36 Q477.987 1425.26 475.88 1427.85 Q475.301 1428.52 472.2 1431.74 Q469.098 1434.93 463.45 1440.7 Z" fill="#000000" fill-rule="nonzero" fill-opacity="1" /><path clip-path="url(#clip270)" d="M499.584 1428.22 Q496.25 1428.22 494.329 1430 Q492.431 1431.78 492.431 1434.91 Q492.431 1438.03 494.329 1439.82 Q496.25 1441.6 499.584 1441.6 Q502.917 1441.6 504.838 1439.82 Q506.76 1438.01 506.76 1434.91 Q506.76 1431.78 504.838 1430 Q502.94 1428.22 499.584 1428.22 M494.908 1426.23 Q491.898 1425.49 490.209 1423.43 Q488.542 1421.37 488.542 1418.4 Q488.542 1414.26 491.482 1411.85 Q494.445 1409.45 499.584 1409.45 Q504.746 1409.45 507.685 1411.85 Q510.625 1414.26 510.625 1418.4 Q510.625 1421.37 508.935 1423.43 Q507.269 1425.49 504.283 1426.23 Q507.662 1427.02 509.537 1429.31 Q511.435 1431.6 511.435 1434.91 Q511.435 1439.93 508.357 1442.62 Q505.301 1445.3 499.584 1445.3 Q493.866 1445.3 490.787 1442.62 Q487.732 1439.93 487.732 1434.91 Q487.732 1431.6 489.63 1429.31 Q491.528 1427.02 494.908 1426.23 M493.195 1418.84 Q493.195 1421.53 494.861 1423.03 Q496.551 1424.54 499.584 1424.54 Q502.593 1424.54 504.283 1423.03 Q505.996 1421.53 505.996 1418.84 Q505.996 1416.16 504.283 1414.65 Q502.593 1413.15 499.584 1413.15 Q496.551 1413.15 494.861 1414.65 Q493.195 1416.16 493.195 1418.84 Z" fill="#000000" fill-rule="nonzero" fill-opacity="1" /><path clip-path="url(#clip270)" d="M523.773 1440.7 L540.093 1440.7 L540.093 1444.63 L518.148 1444.63 L518.148 1440.7 Q520.81 1437.94 525.394 1433.31 Q530 1428.66 531.181 1427.32 Q533.426 1424.79 534.306 1423.06 Q535.208 1421.3 535.208 1419.61 Q535.208 1416.85 533.264 1415.12 Q531.343 1413.38 528.241 1413.38 Q526.042 1413.38 523.588 1414.14 Q521.158 1414.91 518.38 1416.46 L518.38 1411.74 Q521.204 1410.6 523.658 1410.02 Q526.111 1409.45 528.148 1409.45 Q533.519 1409.45 536.713 1412.13 Q539.907 1414.82 539.907 1419.31 Q539.907 1421.44 539.097 1423.36 Q538.31 1425.26 536.204 1427.85 Q535.625 1428.52 532.523 1431.74 Q529.421 1434.93 523.773 1440.7 Z" fill="#000000" fill-rule="nonzero" fill-opacity="1" /><path clip-path="url(#clip270)" d="M550.046 1443.91 L550.046 1439.65 Q551.806 1440.49 553.611 1440.93 Q555.417 1441.37 557.153 1441.37 Q561.782 1441.37 564.213 1438.27 Q566.667 1435.14 567.014 1428.8 Q565.671 1430.79 563.611 1431.85 Q561.551 1432.92 559.051 1432.92 Q553.866 1432.92 550.833 1429.79 Q547.824 1426.64 547.824 1421.21 Q547.824 1415.88 550.972 1412.66 Q554.12 1409.45 559.352 1409.45 Q565.347 1409.45 568.495 1414.05 Q571.667 1418.64 571.667 1427.39 Q571.667 1435.56 567.778 1440.44 Q563.912 1445.3 557.361 1445.3 Q555.602 1445.3 553.796 1444.95 Q551.991 1444.61 550.046 1443.91 M559.352 1429.26 Q562.5 1429.26 564.329 1427.11 Q566.18 1424.95 566.18 1421.21 Q566.18 1417.48 564.329 1415.33 Q562.5 1413.15 559.352 1413.15 Q556.204 1413.15 554.352 1415.33 Q552.523 1417.48 552.523 1421.21 Q552.523 1424.95 554.352 1427.11 Q556.204 1429.26 559.352 1429.26 Z" fill="#000000" fill-rule="nonzero" fill-opacity="1" /><path clip-path="url(#clip270)" d="M608.24 1419.17 L597.662 1429.79 L608.24 1440.37 L605.486 1443.17 L594.861 1432.55 L584.236 1443.17 L581.504 1440.37 L592.06 1429.79 L581.504 1419.17 L584.236 1416.37 L594.861 1426.99 L605.486 1416.37 L608.24 1419.17 Z" fill="#000000" fill-rule="nonzero" fill-opacity="1" /><path clip-path="url(#clip270)" d="M620.602 1440.7 L628.24 1440.7 L628.24 1414.33 L619.93 1416 L619.93 1411.74 L628.194 1410.07 L632.87 1410.07 L632.87 1440.7 L640.509 1440.7 L640.509 1444.63 L620.602 1444.63 L620.602 1440.7 Z" fill="#000000" fill-rule="nonzero" fill-opacity="1" /><path clip-path="url(#clip270)" d="M659.953 1413.15 Q656.342 1413.15 654.513 1416.71 Q652.708 1420.26 652.708 1427.39 Q652.708 1434.49 654.513 1438.06 Q656.342 1441.6 659.953 1441.6 Q663.587 1441.6 665.393 1438.06 Q667.222 1434.49 667.222 1427.39 Q667.222 1420.26 665.393 1416.71 Q663.587 1413.15 659.953 1413.15 M659.953 1409.45 Q665.763 1409.45 668.819 1414.05 Q671.898 1418.64 671.898 1427.39 Q671.898 1436.11 668.819 1440.72 Q665.763 1445.3 659.953 1445.3 Q654.143 1445.3 651.064 1440.72 Q648.009 1436.11 648.009 1427.39 Q648.009 1418.64 651.064 1414.05 Q654.143 1409.45 659.953 1409.45 Z" fill="#000000" fill-rule="nonzero" fill-opacity="1" /><path clip-path="url(#clip270)" d="M672.443 1414.02 L678.65 1414.02 L678.65 1392.6 L671.898 1393.96 L671.898 1390.49 L678.612 1389.14 L682.411 1389.14 L682.411 1414.02 L688.618 1414.02 L688.618 1417.22 L672.443 1417.22 L672.443 1414.02 Z" fill="#000000" fill-rule="nonzero" fill-opacity="1" /><path clip-path="url(#clip270)" d="M292.363 1138.43 L314.585 1138.43 L314.585 1140.42 L302.038 1172.99 L297.154 1172.99 L308.96 1142.37 L292.363 1142.37 L292.363 1138.43 Z" fill="#000000" fill-rule="nonzero" fill-opacity="1" /><path clip-path="url(#clip270)" d="M323.705 1167.11 L328.589 1167.11 L328.589 1172.99 L323.705 1172.99 L323.705 1167.11 Z" fill="#000000" fill-rule="nonzero" fill-opacity="1" /><path clip-path="url(#clip270)" d="M352.941 1154.36 Q356.297 1155.07 358.172 1157.34 Q360.07 1159.61 360.07 1162.94 Q360.07 1168.06 356.552 1170.86 Q353.033 1173.66 346.552 1173.66 Q344.376 1173.66 342.061 1173.22 Q339.77 1172.81 337.316 1171.95 L337.316 1167.44 Q339.26 1168.57 341.575 1169.15 Q343.89 1169.73 346.413 1169.73 Q350.811 1169.73 353.103 1167.99 Q355.418 1166.25 355.418 1162.94 Q355.418 1159.89 353.265 1158.18 Q351.135 1156.44 347.316 1156.44 L343.288 1156.44 L343.288 1152.6 L347.501 1152.6 Q350.95 1152.6 352.779 1151.23 Q354.608 1149.84 354.608 1147.25 Q354.608 1144.59 352.709 1143.18 Q350.834 1141.74 347.316 1141.74 Q345.395 1141.74 343.196 1142.16 Q340.997 1142.57 338.358 1143.45 L338.358 1139.29 Q341.02 1138.55 343.334 1138.18 Q345.672 1137.81 347.733 1137.81 Q353.057 1137.81 356.158 1140.24 Q359.26 1142.64 359.26 1146.76 Q359.26 1149.63 357.617 1151.63 Q355.973 1153.59 352.941 1154.36 Z" fill="#000000" fill-rule="nonzero" fill-opacity="1" /><path clip-path="url(#clip270)" d="M369.075 1172.27 L369.075 1168.01 Q370.834 1168.85 372.64 1169.29 Q374.445 1169.73 376.182 1169.73 Q380.811 1169.73 383.242 1166.63 Q385.695 1163.5 386.043 1157.16 Q384.7 1159.15 382.64 1160.21 Q380.58 1161.28 378.08 1161.28 Q372.894 1161.28 369.862 1158.15 Q366.853 1155 366.853 1149.57 Q366.853 1144.24 370.001 1141.02 Q373.149 1137.81 378.381 1137.81 Q384.376 1137.81 387.524 1142.41 Q390.695 1147 390.695 1155.75 Q390.695 1163.92 386.806 1168.8 Q382.941 1173.66 376.39 1173.66 Q374.631 1173.66 372.825 1173.32 Q371.02 1172.97 369.075 1172.27 M378.381 1157.62 Q381.529 1157.62 383.357 1155.47 Q385.209 1153.32 385.209 1149.57 Q385.209 1145.84 383.357 1143.69 Q381.529 1141.51 378.381 1141.51 Q375.232 1141.51 373.381 1143.69 Q371.552 1145.84 371.552 1149.57 Q371.552 1153.32 373.381 1155.47 Q375.232 1157.62 378.381 1157.62 Z" fill="#000000" fill-rule="nonzero" fill-opacity="1" /><path clip-path="url(#clip270)" d="M399.908 1169.06 L407.547 1169.06 L407.547 1142.69 L399.237 1144.36 L399.237 1140.1 L407.501 1138.43 L412.177 1138.43 L412.177 1169.06 L419.816 1169.06 L419.816 1172.99 L399.908 1172.99 L399.908 1169.06 Z" fill="#000000" fill-rule="nonzero" fill-opacity="1" /><path clip-path="url(#clip270)" d="M443.427 1154.36 Q446.783 1155.07 448.658 1157.34 Q450.556 1159.61 450.556 1162.94 Q450.556 1168.06 447.038 1170.86 Q443.519 1173.66 437.038 1173.66 Q434.862 1173.66 432.547 1173.22 Q430.255 1172.81 427.802 1171.95 L427.802 1167.44 Q429.746 1168.57 432.061 1169.15 Q434.376 1169.73 436.899 1169.73 Q441.297 1169.73 443.589 1167.99 Q445.903 1166.25 445.903 1162.94 Q445.903 1159.89 443.751 1158.18 Q441.621 1156.44 437.802 1156.44 L433.774 1156.44 L433.774 1152.6 L437.987 1152.6 Q441.436 1152.6 443.264 1151.23 Q445.093 1149.84 445.093 1147.25 Q445.093 1144.59 443.195 1143.18 Q441.32 1141.74 437.802 1141.74 Q435.88 1141.74 433.681 1142.16 Q431.482 1142.57 428.843 1143.45 L428.843 1139.29 Q431.505 1138.55 433.82 1138.18 Q436.158 1137.81 438.218 1137.81 Q443.542 1137.81 446.644 1140.24 Q449.746 1142.64 449.746 1146.76 Q449.746 1149.63 448.102 1151.63 Q446.459 1153.59 443.427 1154.36 Z" fill="#000000" fill-rule="nonzero" fill-opacity="1" /><path clip-path="url(#clip270)" d="M463.45 1169.06 L479.769 1169.06 L479.769 1172.99 L457.825 1172.99 L457.825 1169.06 Q460.487 1166.3 465.07 1161.67 Q469.676 1157.02 470.857 1155.68 Q473.102 1153.15 473.982 1151.42 Q474.885 1149.66 474.885 1147.97 Q474.885 1145.21 472.94 1143.48 Q471.019 1141.74 467.917 1141.74 Q465.718 1141.74 463.264 1142.51 Q460.834 1143.27 458.056 1144.82 L458.056 1140.1 Q460.88 1138.96 463.334 1138.38 Q465.788 1137.81 467.825 1137.81 Q473.195 1137.81 476.389 1140.49 Q479.584 1143.18 479.584 1147.67 Q479.584 1149.8 478.774 1151.72 Q477.987 1153.62 475.88 1156.21 Q475.301 1156.88 472.2 1160.1 Q469.098 1163.29 463.45 1169.06 Z" fill="#000000" fill-rule="nonzero" fill-opacity="1" /><path clip-path="url(#clip270)" d="M499.584 1156.58 Q496.25 1156.58 494.329 1158.36 Q492.431 1160.14 492.431 1163.27 Q492.431 1166.39 494.329 1168.18 Q496.25 1169.96 499.584 1169.96 Q502.917 1169.96 504.838 1168.18 Q506.76 1166.37 506.76 1163.27 Q506.76 1160.14 504.838 1158.36 Q502.94 1156.58 499.584 1156.58 M494.908 1154.59 Q491.898 1153.85 490.209 1151.79 Q488.542 1149.73 488.542 1146.76 Q488.542 1142.62 491.482 1140.21 Q494.445 1137.81 499.584 1137.81 Q504.746 1137.81 507.685 1140.21 Q510.625 1142.62 510.625 1146.76 Q510.625 1149.73 508.935 1151.79 Q507.269 1153.85 504.283 1154.59 Q507.662 1155.38 509.537 1157.67 Q511.435 1159.96 511.435 1163.27 Q511.435 1168.29 508.357 1170.98 Q505.301 1173.66 499.584 1173.66 Q493.866 1173.66 490.787 1170.98 Q487.732 1168.29 487.732 1163.27 Q487.732 1159.96 489.63 1157.67 Q491.528 1155.38 494.908 1154.59 M493.195 1147.2 Q493.195 1149.89 494.861 1151.39 Q496.551 1152.9 499.584 1152.9 Q502.593 1152.9 504.283 1151.39 Q505.996 1149.89 505.996 1147.2 Q505.996 1144.52 504.283 1143.01 Q502.593 1141.51 499.584 1141.51 Q496.551 1141.51 494.861 1143.01 Q493.195 1144.52 493.195 1147.2 Z" fill="#000000" fill-rule="nonzero" fill-opacity="1" /><path clip-path="url(#clip270)" d="M523.773 1169.06 L540.093 1169.06 L540.093 1172.99 L518.148 1172.99 L518.148 1169.06 Q520.81 1166.3 525.394 1161.67 Q530 1157.02 531.181 1155.68 Q533.426 1153.15 534.306 1151.42 Q535.208 1149.66 535.208 1147.97 Q535.208 1145.21 533.264 1143.48 Q531.343 1141.74 528.241 1141.74 Q526.042 1141.74 523.588 1142.51 Q521.158 1143.27 518.38 1144.82 L518.38 1140.1 Q521.204 1138.96 523.658 1138.38 Q526.111 1137.81 528.148 1137.81 Q533.519 1137.81 536.713 1140.49 Q539.907 1143.18 539.907 1147.67 Q539.907 1149.8 539.097 1151.72 Q538.31 1153.62 536.204 1156.21 Q535.625 1156.88 532.523 1160.1 Q529.421 1163.29 523.773 1169.06 Z" fill="#000000" fill-rule="nonzero" fill-opacity="1" /><path clip-path="url(#clip270)" d="M550.046 1172.27 L550.046 1168.01 Q551.806 1168.85 553.611 1169.29 Q555.417 1169.73 557.153 1169.73 Q561.782 1169.73 564.213 1166.63 Q566.667 1163.5 567.014 1157.16 Q565.671 1159.15 563.611 1160.21 Q561.551 1161.28 559.051 1161.28 Q553.866 1161.28 550.833 1158.15 Q547.824 1155 547.824 1149.57 Q547.824 1144.24 550.972 1141.02 Q554.12 1137.81 559.352 1137.81 Q565.347 1137.81 568.495 1142.41 Q571.667 1147 571.667 1155.75 Q571.667 1163.92 567.778 1168.8 Q563.912 1173.66 557.361 1173.66 Q555.602 1173.66 553.796 1173.32 Q551.991 1172.97 550.046 1172.27 M559.352 1157.62 Q562.5 1157.62 564.329 1155.47 Q566.18 1153.32 566.18 1149.57 Q566.18 1145.84 564.329 1143.69 Q562.5 1141.51 559.352 1141.51 Q556.204 1141.51 554.352 1143.69 Q552.523 1145.84 552.523 1149.57 Q552.523 1153.32 554.352 1155.47 Q556.204 1157.62 559.352 1157.62 Z" fill="#000000" fill-rule="nonzero" fill-opacity="1" /><path clip-path="url(#clip270)" d="M608.24 1147.53 L597.662 1158.15 L608.24 1168.73 L605.486 1171.53 L594.861 1160.91 L584.236 1171.53 L581.504 1168.73 L592.06 1158.15 L581.504 1147.53 L584.236 1144.73 L594.861 1155.35 L605.486 1144.73 L608.24 1147.53 Z" fill="#000000" fill-rule="nonzero" fill-opacity="1" /><path clip-path="url(#clip270)" d="M620.602 1169.06 L628.24 1169.06 L628.24 1142.69 L619.93 1144.36 L619.93 1140.1 L628.194 1138.43 L632.87 1138.43 L632.87 1169.06 L640.509 1169.06 L640.509 1172.99 L620.602 1172.99 L620.602 1169.06 Z" fill="#000000" fill-rule="nonzero" fill-opacity="1" /><path clip-path="url(#clip270)" d="M659.953 1141.51 Q656.342 1141.51 654.513 1145.07 Q652.708 1148.62 652.708 1155.75 Q652.708 1162.85 654.513 1166.42 Q656.342 1169.96 659.953 1169.96 Q663.587 1169.96 665.393 1166.42 Q667.222 1162.85 667.222 1155.75 Q667.222 1148.62 665.393 1145.07 Q663.587 1141.51 659.953 1141.51 M659.953 1137.81 Q665.763 1137.81 668.819 1142.41 Q671.898 1147 671.898 1155.75 Q671.898 1164.47 668.819 1169.08 Q665.763 1173.66 659.953 1173.66 Q654.143 1173.66 651.064 1169.08 Q648.009 1164.47 648.009 1155.75 Q648.009 1147 651.064 1142.41 Q654.143 1137.81 659.953 1137.81 Z" fill="#000000" fill-rule="nonzero" fill-opacity="1" /><path clip-path="url(#clip270)" d="M672.443 1142.38 L678.65 1142.38 L678.65 1120.96 L671.898 1122.32 L671.898 1118.85 L678.612 1117.5 L682.411 1117.5 L682.411 1142.38 L688.618 1142.38 L688.618 1145.58 L672.443 1145.58 L672.443 1142.38 Z" fill="#000000" fill-rule="nonzero" fill-opacity="1" /><path clip-path="url(#clip270)" d="M292.363 866.791 L314.585 866.791 L314.585 868.782 L302.038 901.351 L297.154 901.351 L308.96 870.726 L292.363 870.726 L292.363 866.791 Z" fill="#000000" fill-rule="nonzero" fill-opacity="1" /><path clip-path="url(#clip270)" d="M323.705 895.472 L328.589 895.472 L328.589 901.351 L323.705 901.351 L323.705 895.472 Z" fill="#000000" fill-rule="nonzero" fill-opacity="1" /><path clip-path="url(#clip270)" d="M352.941 882.717 Q356.297 883.435 358.172 885.703 Q360.07 887.972 360.07 891.305 Q360.07 896.421 356.552 899.222 Q353.033 902.022 346.552 902.022 Q344.376 902.022 342.061 901.583 Q339.77 901.166 337.316 900.309 L337.316 895.796 Q339.26 896.93 341.575 897.509 Q343.89 898.087 346.413 898.087 Q350.811 898.087 353.103 896.351 Q355.418 894.615 355.418 891.305 Q355.418 888.249 353.265 886.536 Q351.135 884.8 347.316 884.8 L343.288 884.8 L343.288 880.958 L347.501 880.958 Q350.95 880.958 352.779 879.592 Q354.608 878.203 354.608 875.611 Q354.608 872.949 352.709 871.537 Q350.834 870.101 347.316 870.101 Q345.395 870.101 343.196 870.518 Q340.997 870.935 338.358 871.814 L338.358 867.648 Q341.02 866.907 343.334 866.537 Q345.672 866.166 347.733 866.166 Q353.057 866.166 356.158 868.597 Q359.26 871.004 359.26 875.124 Q359.26 877.995 357.617 879.986 Q355.973 881.953 352.941 882.717 Z" fill="#000000" fill-rule="nonzero" fill-opacity="1" /><path clip-path="url(#clip270)" d="M369.075 900.634 L369.075 896.374 Q370.834 897.208 372.64 897.647 Q374.445 898.087 376.182 898.087 Q380.811 898.087 383.242 894.985 Q385.695 891.86 386.043 885.518 Q384.7 887.509 382.64 888.573 Q380.58 889.638 378.08 889.638 Q372.894 889.638 369.862 886.513 Q366.853 883.365 366.853 877.925 Q366.853 872.601 370.001 869.384 Q373.149 866.166 378.381 866.166 Q384.376 866.166 387.524 870.773 Q390.695 875.356 390.695 884.106 Q390.695 892.277 386.806 897.161 Q382.941 902.022 376.39 902.022 Q374.631 902.022 372.825 901.675 Q371.02 901.328 369.075 900.634 M378.381 885.981 Q381.529 885.981 383.357 883.828 Q385.209 881.675 385.209 877.925 Q385.209 874.199 383.357 872.046 Q381.529 869.87 378.381 869.87 Q375.232 869.87 373.381 872.046 Q371.552 874.199 371.552 877.925 Q371.552 881.675 373.381 883.828 Q375.232 885.981 378.381 885.981 Z" fill="#000000" fill-rule="nonzero" fill-opacity="1" /><path clip-path="url(#clip270)" d="M399.908 897.416 L407.547 897.416 L407.547 871.05 L399.237 872.717 L399.237 868.458 L407.501 866.791 L412.177 866.791 L412.177 897.416 L419.816 897.416 L419.816 901.351 L399.908 901.351 L399.908 897.416 Z" fill="#000000" fill-rule="nonzero" fill-opacity="1" /><path clip-path="url(#clip270)" d="M443.427 882.717 Q446.783 883.435 448.658 885.703 Q450.556 887.972 450.556 891.305 Q450.556 896.421 447.038 899.222 Q443.519 902.022 437.038 902.022 Q434.862 902.022 432.547 901.583 Q430.255 901.166 427.802 900.309 L427.802 895.796 Q429.746 896.93 432.061 897.509 Q434.376 898.087 436.899 898.087 Q441.297 898.087 443.589 896.351 Q445.903 894.615 445.903 891.305 Q445.903 888.249 443.751 886.536 Q441.621 884.8 437.802 884.8 L433.774 884.8 L433.774 880.958 L437.987 880.958 Q441.436 880.958 443.264 879.592 Q445.093 878.203 445.093 875.611 Q445.093 872.949 443.195 871.537 Q441.32 870.101 437.802 870.101 Q435.88 870.101 433.681 870.518 Q431.482 870.935 428.843 871.814 L428.843 867.648 Q431.505 866.907 433.82 866.537 Q436.158 866.166 438.218 866.166 Q443.542 866.166 446.644 868.597 Q449.746 871.004 449.746 875.124 Q449.746 877.995 448.102 879.986 Q446.459 881.953 443.427 882.717 Z" fill="#000000" fill-rule="nonzero" fill-opacity="1" /><path clip-path="url(#clip270)" d="M463.45 897.416 L479.769 897.416 L479.769 901.351 L457.825 901.351 L457.825 897.416 Q460.487 894.661 465.07 890.032 Q469.676 885.379 470.857 884.036 Q473.102 881.513 473.982 879.777 Q474.885 878.018 474.885 876.328 Q474.885 873.574 472.94 871.837 Q471.019 870.101 467.917 870.101 Q465.718 870.101 463.264 870.865 Q460.834 871.629 458.056 873.18 L458.056 868.458 Q460.88 867.324 463.334 866.745 Q465.788 866.166 467.825 866.166 Q473.195 866.166 476.389 868.851 Q479.584 871.537 479.584 876.027 Q479.584 878.157 478.774 880.078 Q477.987 881.976 475.88 884.569 Q475.301 885.24 472.2 888.458 Q469.098 891.652 463.45 897.416 Z" fill="#000000" fill-rule="nonzero" fill-opacity="1" /><path clip-path="url(#clip270)" d="M499.584 884.939 Q496.25 884.939 494.329 886.722 Q492.431 888.504 492.431 891.629 Q492.431 894.754 494.329 896.536 Q496.25 898.319 499.584 898.319 Q502.917 898.319 504.838 896.536 Q506.76 894.731 506.76 891.629 Q506.76 888.504 504.838 886.722 Q502.94 884.939 499.584 884.939 M494.908 882.948 Q491.898 882.208 490.209 880.148 Q488.542 878.087 488.542 875.124 Q488.542 870.981 491.482 868.574 Q494.445 866.166 499.584 866.166 Q504.746 866.166 507.685 868.574 Q510.625 870.981 510.625 875.124 Q510.625 878.087 508.935 880.148 Q507.269 882.208 504.283 882.948 Q507.662 883.736 509.537 886.027 Q511.435 888.319 511.435 891.629 Q511.435 896.652 508.357 899.337 Q505.301 902.022 499.584 902.022 Q493.866 902.022 490.787 899.337 Q487.732 896.652 487.732 891.629 Q487.732 888.319 489.63 886.027 Q491.528 883.736 494.908 882.948 M493.195 875.564 Q493.195 878.249 494.861 879.754 Q496.551 881.259 499.584 881.259 Q502.593 881.259 504.283 879.754 Q505.996 878.249 505.996 875.564 Q505.996 872.879 504.283 871.374 Q502.593 869.87 499.584 869.87 Q496.551 869.87 494.861 871.374 Q493.195 872.879 493.195 875.564 Z" fill="#000000" fill-rule="nonzero" fill-opacity="1" /><path clip-path="url(#clip270)" d="M523.773 897.416 L540.093 897.416 L540.093 901.351 L518.148 901.351 L518.148 897.416 Q520.81 894.661 525.394 890.032 Q530 885.379 531.181 884.036 Q533.426 881.513 534.306 879.777 Q535.208 878.018 535.208 876.328 Q535.208 873.574 533.264 871.837 Q531.343 870.101 528.241 870.101 Q526.042 870.101 523.588 870.865 Q521.158 871.629 518.38 873.18 L518.38 868.458 Q521.204 867.324 523.658 866.745 Q526.111 866.166 528.148 866.166 Q533.519 866.166 536.713 868.851 Q539.907 871.537 539.907 876.027 Q539.907 878.157 539.097 880.078 Q538.31 881.976 536.204 884.569 Q535.625 885.24 532.523 888.458 Q529.421 891.652 523.773 897.416 Z" fill="#000000" fill-rule="nonzero" fill-opacity="1" /><path clip-path="url(#clip270)" d="M550.046 900.634 L550.046 896.374 Q551.806 897.208 553.611 897.647 Q555.417 898.087 557.153 898.087 Q561.782 898.087 564.213 894.985 Q566.667 891.86 567.014 885.518 Q565.671 887.509 563.611 888.573 Q561.551 889.638 559.051 889.638 Q553.866 889.638 550.833 886.513 Q547.824 883.365 547.824 877.925 Q547.824 872.601 550.972 869.384 Q554.12 866.166 559.352 866.166 Q565.347 866.166 568.495 870.773 Q571.667 875.356 571.667 884.106 Q571.667 892.277 567.778 897.161 Q563.912 902.022 557.361 902.022 Q555.602 902.022 553.796 901.675 Q551.991 901.328 550.046 900.634 M559.352 885.981 Q562.5 885.981 564.329 883.828 Q566.18 881.675 566.18 877.925 Q566.18 874.199 564.329 872.046 Q562.5 869.87 559.352 869.87 Q556.204 869.87 554.352 872.046 Q552.523 874.199 552.523 877.925 Q552.523 881.675 554.352 883.828 Q556.204 885.981 559.352 885.981 Z" fill="#000000" fill-rule="nonzero" fill-opacity="1" /><path clip-path="url(#clip270)" d="M608.24 875.888 L597.662 886.513 L608.24 897.092 L605.486 899.893 L594.861 889.268 L584.236 899.893 L581.504 897.092 L592.06 886.513 L581.504 875.888 L584.236 873.087 L594.861 883.712 L605.486 873.087 L608.24 875.888 Z" fill="#000000" fill-rule="nonzero" fill-opacity="1" /><path clip-path="url(#clip270)" d="M620.602 897.416 L628.24 897.416 L628.24 871.05 L619.93 872.717 L619.93 868.458 L628.194 866.791 L632.87 866.791 L632.87 897.416 L640.509 897.416 L640.509 901.351 L620.602 901.351 L620.602 897.416 Z" fill="#000000" fill-rule="nonzero" fill-opacity="1" /><path clip-path="url(#clip270)" d="M659.953 869.87 Q656.342 869.87 654.513 873.435 Q652.708 876.976 652.708 884.106 Q652.708 891.212 654.513 894.777 Q656.342 898.319 659.953 898.319 Q663.587 898.319 665.393 894.777 Q667.222 891.212 667.222 884.106 Q667.222 876.976 665.393 873.435 Q663.587 869.87 659.953 869.87 M659.953 866.166 Q665.763 866.166 668.819 870.773 Q671.898 875.356 671.898 884.106 Q671.898 892.833 668.819 897.439 Q665.763 902.022 659.953 902.022 Q654.143 902.022 651.064 897.439 Q648.009 892.833 648.009 884.106 Q648.009 875.356 651.064 870.773 Q654.143 866.166 659.953 866.166 Z" fill="#000000" fill-rule="nonzero" fill-opacity="1" /><path clip-path="url(#clip270)" d="M672.443 870.743 L678.65 870.743 L678.65 849.321 L671.898 850.676 L671.898 847.215 L678.612 845.861 L682.411 845.861 L682.411 870.743 L688.618 870.743 L688.618 873.941 L672.443 873.941 L672.443 870.743 Z" fill="#000000" fill-rule="nonzero" fill-opacity="1" /><path clip-path="url(#clip270)" d="M292.363 595.148 L314.585 595.148 L314.585 597.139 L302.038 629.708 L297.154 629.708 L308.96 599.084 L292.363 599.084 L292.363 595.148 Z" fill="#000000" fill-rule="nonzero" fill-opacity="1" /><path clip-path="url(#clip270)" d="M323.705 623.829 L328.589 623.829 L328.589 629.708 L323.705 629.708 L323.705 623.829 Z" fill="#000000" fill-rule="nonzero" fill-opacity="1" /><path clip-path="url(#clip270)" d="M352.941 611.074 Q356.297 611.792 358.172 614.06 Q360.07 616.329 360.07 619.662 Q360.07 624.778 356.552 627.579 Q353.033 630.38 346.552 630.38 Q344.376 630.38 342.061 629.94 Q339.77 629.523 337.316 628.667 L337.316 624.153 Q339.26 625.287 341.575 625.866 Q343.89 626.445 346.413 626.445 Q350.811 626.445 353.103 624.708 Q355.418 622.972 355.418 619.662 Q355.418 616.607 353.265 614.894 Q351.135 613.158 347.316 613.158 L343.288 613.158 L343.288 609.315 L347.501 609.315 Q350.95 609.315 352.779 607.949 Q354.608 606.56 354.608 603.968 Q354.608 601.306 352.709 599.894 Q350.834 598.459 347.316 598.459 Q345.395 598.459 343.196 598.875 Q340.997 599.292 338.358 600.172 L338.358 596.005 Q341.02 595.264 343.334 594.894 Q345.672 594.523 347.733 594.523 Q353.057 594.523 356.158 596.954 Q359.26 599.361 359.26 603.482 Q359.26 606.352 357.617 608.343 Q355.973 610.31 352.941 611.074 Z" fill="#000000" fill-rule="nonzero" fill-opacity="1" /><path clip-path="url(#clip270)" d="M369.075 628.991 L369.075 624.732 Q370.834 625.565 372.64 626.005 Q374.445 626.445 376.182 626.445 Q380.811 626.445 383.242 623.343 Q385.695 620.218 386.043 613.875 Q384.7 615.866 382.64 616.931 Q380.58 617.996 378.08 617.996 Q372.894 617.996 369.862 614.871 Q366.853 611.722 366.853 606.283 Q366.853 600.959 370.001 597.741 Q373.149 594.523 378.381 594.523 Q384.376 594.523 387.524 599.13 Q390.695 603.713 390.695 612.463 Q390.695 620.634 386.806 625.519 Q382.941 630.38 376.39 630.38 Q374.631 630.38 372.825 630.033 Q371.02 629.685 369.075 628.991 M378.381 614.338 Q381.529 614.338 383.357 612.185 Q385.209 610.033 385.209 606.283 Q385.209 602.556 383.357 600.403 Q381.529 598.227 378.381 598.227 Q375.232 598.227 373.381 600.403 Q371.552 602.556 371.552 606.283 Q371.552 610.033 373.381 612.185 Q375.232 614.338 378.381 614.338 Z" fill="#000000" fill-rule="nonzero" fill-opacity="1" /><path clip-path="url(#clip270)" d="M399.908 625.773 L407.547 625.773 L407.547 599.408 L399.237 601.074 L399.237 596.815 L407.501 595.148 L412.177 595.148 L412.177 625.773 L419.816 625.773 L419.816 629.708 L399.908 629.708 L399.908 625.773 Z" fill="#000000" fill-rule="nonzero" fill-opacity="1" /><path clip-path="url(#clip270)" d="M443.427 611.074 Q446.783 611.792 448.658 614.06 Q450.556 616.329 450.556 619.662 Q450.556 624.778 447.038 627.579 Q443.519 630.38 437.038 630.38 Q434.862 630.38 432.547 629.94 Q430.255 629.523 427.802 628.667 L427.802 624.153 Q429.746 625.287 432.061 625.866 Q434.376 626.445 436.899 626.445 Q441.297 626.445 443.589 624.708 Q445.903 622.972 445.903 619.662 Q445.903 616.607 443.751 614.894 Q441.621 613.158 437.802 613.158 L433.774 613.158 L433.774 609.315 L437.987 609.315 Q441.436 609.315 443.264 607.949 Q445.093 606.56 445.093 603.968 Q445.093 601.306 443.195 599.894 Q441.32 598.459 437.802 598.459 Q435.88 598.459 433.681 598.875 Q431.482 599.292 428.843 600.172 L428.843 596.005 Q431.505 595.264 433.82 594.894 Q436.158 594.523 438.218 594.523 Q443.542 594.523 446.644 596.954 Q449.746 599.361 449.746 603.482 Q449.746 606.352 448.102 608.343 Q446.459 610.31 443.427 611.074 Z" fill="#000000" fill-rule="nonzero" fill-opacity="1" /><path clip-path="url(#clip270)" d="M463.45 625.773 L479.769 625.773 L479.769 629.708 L457.825 629.708 L457.825 625.773 Q460.487 623.019 465.07 618.389 Q469.676 613.736 470.857 612.394 Q473.102 609.871 473.982 608.135 Q474.885 606.375 474.885 604.685 Q474.885 601.931 472.94 600.195 Q471.019 598.459 467.917 598.459 Q465.718 598.459 463.264 599.223 Q460.834 599.986 458.056 601.537 L458.056 596.815 Q460.88 595.681 463.334 595.102 Q465.788 594.523 467.825 594.523 Q473.195 594.523 476.389 597.209 Q479.584 599.894 479.584 604.385 Q479.584 606.514 478.774 608.435 Q477.987 610.334 475.88 612.926 Q475.301 613.597 472.2 616.815 Q469.098 620.009 463.45 625.773 Z" fill="#000000" fill-rule="nonzero" fill-opacity="1" /><path clip-path="url(#clip270)" d="M499.584 613.297 Q496.25 613.297 494.329 615.079 Q492.431 616.861 492.431 619.986 Q492.431 623.111 494.329 624.894 Q496.25 626.676 499.584 626.676 Q502.917 626.676 504.838 624.894 Q506.76 623.088 506.76 619.986 Q506.76 616.861 504.838 615.079 Q502.94 613.297 499.584 613.297 M494.908 611.306 Q491.898 610.565 490.209 608.505 Q488.542 606.445 488.542 603.482 Q488.542 599.338 491.482 596.931 Q494.445 594.523 499.584 594.523 Q504.746 594.523 507.685 596.931 Q510.625 599.338 510.625 603.482 Q510.625 606.445 508.935 608.505 Q507.269 610.565 504.283 611.306 Q507.662 612.093 509.537 614.384 Q511.435 616.676 511.435 619.986 Q511.435 625.009 508.357 627.695 Q505.301 630.38 499.584 630.38 Q493.866 630.38 490.787 627.695 Q487.732 625.009 487.732 619.986 Q487.732 616.676 489.63 614.384 Q491.528 612.093 494.908 611.306 M493.195 603.922 Q493.195 606.607 494.861 608.111 Q496.551 609.616 499.584 609.616 Q502.593 609.616 504.283 608.111 Q505.996 606.607 505.996 603.922 Q505.996 601.236 504.283 599.732 Q502.593 598.227 499.584 598.227 Q496.551 598.227 494.861 599.732 Q493.195 601.236 493.195 603.922 Z" fill="#000000" fill-rule="nonzero" fill-opacity="1" /><path clip-path="url(#clip270)" d="M523.773 625.773 L540.093 625.773 L540.093 629.708 L518.148 629.708 L518.148 625.773 Q520.81 623.019 525.394 618.389 Q530 613.736 531.181 612.394 Q533.426 609.871 534.306 608.135 Q535.208 606.375 535.208 604.685 Q535.208 601.931 533.264 600.195 Q531.343 598.459 528.241 598.459 Q526.042 598.459 523.588 599.223 Q521.158 599.986 518.38 601.537 L518.38 596.815 Q521.204 595.681 523.658 595.102 Q526.111 594.523 528.148 594.523 Q533.519 594.523 536.713 597.209 Q539.907 599.894 539.907 604.385 Q539.907 606.514 539.097 608.435 Q538.31 610.334 536.204 612.926 Q535.625 613.597 532.523 616.815 Q529.421 620.009 523.773 625.773 Z" fill="#000000" fill-rule="nonzero" fill-opacity="1" /><path clip-path="url(#clip270)" d="M550.046 628.991 L550.046 624.732 Q551.806 625.565 553.611 626.005 Q555.417 626.445 557.153 626.445 Q561.782 626.445 564.213 623.343 Q566.667 620.218 567.014 613.875 Q565.671 615.866 563.611 616.931 Q561.551 617.996 559.051 617.996 Q553.866 617.996 550.833 614.871 Q547.824 611.722 547.824 606.283 Q547.824 600.959 550.972 597.741 Q554.12 594.523 559.352 594.523 Q565.347 594.523 568.495 599.13 Q571.667 603.713 571.667 612.463 Q571.667 620.634 567.778 625.519 Q563.912 630.38 557.361 630.38 Q555.602 630.38 553.796 630.033 Q551.991 629.685 550.046 628.991 M559.352 614.338 Q562.5 614.338 564.329 612.185 Q566.18 610.033 566.18 606.283 Q566.18 602.556 564.329 600.403 Q562.5 598.227 559.352 598.227 Q556.204 598.227 554.352 600.403 Q552.523 602.556 552.523 606.283 Q552.523 610.033 554.352 612.185 Q556.204 614.338 559.352 614.338 Z" fill="#000000" fill-rule="nonzero" fill-opacity="1" /><path clip-path="url(#clip270)" d="M608.24 604.246 L597.662 614.871 L608.24 625.449 L605.486 628.25 L594.861 617.625 L584.236 628.25 L581.504 625.449 L592.06 614.871 L581.504 604.246 L584.236 601.445 L594.861 612.07 L605.486 601.445 L608.24 604.246 Z" fill="#000000" fill-rule="nonzero" fill-opacity="1" /><path clip-path="url(#clip270)" d="M620.602 625.773 L628.24 625.773 L628.24 599.408 L619.93 601.074 L619.93 596.815 L628.194 595.148 L632.87 595.148 L632.87 625.773 L640.509 625.773 L640.509 629.708 L620.602 629.708 L620.602 625.773 Z" fill="#000000" fill-rule="nonzero" fill-opacity="1" /><path clip-path="url(#clip270)" d="M659.953 598.227 Q656.342 598.227 654.513 601.792 Q652.708 605.334 652.708 612.463 Q652.708 619.57 654.513 623.134 Q656.342 626.676 659.953 626.676 Q663.587 626.676 665.393 623.134 Q667.222 619.57 667.222 612.463 Q667.222 605.334 665.393 601.792 Q663.587 598.227 659.953 598.227 M659.953 594.523 Q665.763 594.523 668.819 599.13 Q671.898 603.713 671.898 612.463 Q671.898 621.19 668.819 625.796 Q665.763 630.38 659.953 630.38 Q654.143 630.38 651.064 625.796 Q648.009 621.19 648.009 612.463 Q648.009 603.713 651.064 599.13 Q654.143 594.523 659.953 594.523 Z" fill="#000000" fill-rule="nonzero" fill-opacity="1" /><path clip-path="url(#clip270)" d="M672.443 599.101 L678.65 599.101 L678.65 577.679 L671.898 579.033 L671.898 575.572 L678.612 574.218 L682.411 574.218 L682.411 599.101 L688.618 599.101 L688.618 602.298 L672.443 602.298 L672.443 599.101 Z" fill="#000000" fill-rule="nonzero" fill-opacity="1" /><path clip-path="url(#clip270)" d="M292.363 323.512 L314.585 323.512 L314.585 325.502 L302.038 358.072 L297.154 358.072 L308.96 327.447 L292.363 327.447 L292.363 323.512 Z" fill="#000000" fill-rule="nonzero" fill-opacity="1" /><path clip-path="url(#clip270)" d="M323.705 352.192 L328.589 352.192 L328.589 358.072 L323.705 358.072 L323.705 352.192 Z" fill="#000000" fill-rule="nonzero" fill-opacity="1" /><path clip-path="url(#clip270)" d="M352.941 339.437 Q356.297 340.155 358.172 342.423 Q360.07 344.692 360.07 348.025 Q360.07 353.141 356.552 355.942 Q353.033 358.743 346.552 358.743 Q344.376 358.743 342.061 358.303 Q339.77 357.886 337.316 357.03 L337.316 352.516 Q339.26 353.65 341.575 354.229 Q343.89 354.808 346.413 354.808 Q350.811 354.808 353.103 353.072 Q355.418 351.335 355.418 348.025 Q355.418 344.97 353.265 343.257 Q351.135 341.521 347.316 341.521 L343.288 341.521 L343.288 337.678 L347.501 337.678 Q350.95 337.678 352.779 336.312 Q354.608 334.923 354.608 332.331 Q354.608 329.669 352.709 328.257 Q350.834 326.822 347.316 326.822 Q345.395 326.822 343.196 327.238 Q340.997 327.655 338.358 328.535 L338.358 324.368 Q341.02 323.627 343.334 323.257 Q345.672 322.887 347.733 322.887 Q353.057 322.887 356.158 325.317 Q359.26 327.724 359.26 331.845 Q359.26 334.715 357.617 336.706 Q355.973 338.673 352.941 339.437 Z" fill="#000000" fill-rule="nonzero" fill-opacity="1" /><path clip-path="url(#clip270)" d="M369.075 357.354 L369.075 353.095 Q370.834 353.928 372.64 354.368 Q374.445 354.808 376.182 354.808 Q380.811 354.808 383.242 351.706 Q385.695 348.581 386.043 342.238 Q384.7 344.229 382.64 345.294 Q380.58 346.359 378.08 346.359 Q372.894 346.359 369.862 343.234 Q366.853 340.085 366.853 334.646 Q366.853 329.322 370.001 326.104 Q373.149 322.887 378.381 322.887 Q384.376 322.887 387.524 327.493 Q390.695 332.076 390.695 340.826 Q390.695 348.997 386.806 353.882 Q382.941 358.743 376.39 358.743 Q374.631 358.743 372.825 358.396 Q371.02 358.048 369.075 357.354 M378.381 342.701 Q381.529 342.701 383.357 340.548 Q385.209 338.396 385.209 334.646 Q385.209 330.919 383.357 328.766 Q381.529 326.59 378.381 326.59 Q375.232 326.59 373.381 328.766 Q371.552 330.919 371.552 334.646 Q371.552 338.396 373.381 340.548 Q375.232 342.701 378.381 342.701 Z" fill="#000000" fill-rule="nonzero" fill-opacity="1" /><path clip-path="url(#clip270)" d="M399.908 354.136 L407.547 354.136 L407.547 327.771 L399.237 329.437 L399.237 325.178 L407.501 323.512 L412.177 323.512 L412.177 354.136 L419.816 354.136 L419.816 358.072 L399.908 358.072 L399.908 354.136 Z" fill="#000000" fill-rule="nonzero" fill-opacity="1" /><path clip-path="url(#clip270)" d="M443.427 339.437 Q446.783 340.155 448.658 342.423 Q450.556 344.692 450.556 348.025 Q450.556 353.141 447.038 355.942 Q443.519 358.743 437.038 358.743 Q434.862 358.743 432.547 358.303 Q430.255 357.886 427.802 357.03 L427.802 352.516 Q429.746 353.65 432.061 354.229 Q434.376 354.808 436.899 354.808 Q441.297 354.808 443.589 353.072 Q445.903 351.335 445.903 348.025 Q445.903 344.97 443.751 343.257 Q441.621 341.521 437.802 341.521 L433.774 341.521 L433.774 337.678 L437.987 337.678 Q441.436 337.678 443.264 336.312 Q445.093 334.923 445.093 332.331 Q445.093 329.669 443.195 328.257 Q441.32 326.822 437.802 326.822 Q435.88 326.822 433.681 327.238 Q431.482 327.655 428.843 328.535 L428.843 324.368 Q431.505 323.627 433.82 323.257 Q436.158 322.887 438.218 322.887 Q443.542 322.887 446.644 325.317 Q449.746 327.724 449.746 331.845 Q449.746 334.715 448.102 336.706 Q446.459 338.673 443.427 339.437 Z" fill="#000000" fill-rule="nonzero" fill-opacity="1" /><path clip-path="url(#clip270)" d="M463.45 354.136 L479.769 354.136 L479.769 358.072 L457.825 358.072 L457.825 354.136 Q460.487 351.382 465.07 346.752 Q469.676 342.099 470.857 340.757 Q473.102 338.234 473.982 336.498 Q474.885 334.738 474.885 333.048 Q474.885 330.294 472.94 328.558 Q471.019 326.822 467.917 326.822 Q465.718 326.822 463.264 327.586 Q460.834 328.349 458.056 329.9 L458.056 325.178 Q460.88 324.044 463.334 323.465 Q465.788 322.887 467.825 322.887 Q473.195 322.887 476.389 325.572 Q479.584 328.257 479.584 332.748 Q479.584 334.877 478.774 336.798 Q477.987 338.697 475.88 341.289 Q475.301 341.96 472.2 345.178 Q469.098 348.372 463.45 354.136 Z" fill="#000000" fill-rule="nonzero" fill-opacity="1" /><path clip-path="url(#clip270)" d="M499.584 341.66 Q496.25 341.66 494.329 343.442 Q492.431 345.224 492.431 348.349 Q492.431 351.474 494.329 353.257 Q496.25 355.039 499.584 355.039 Q502.917 355.039 504.838 353.257 Q506.76 351.451 506.76 348.349 Q506.76 345.224 504.838 343.442 Q502.94 341.66 499.584 341.66 M494.908 339.669 Q491.898 338.928 490.209 336.868 Q488.542 334.808 488.542 331.845 Q488.542 327.701 491.482 325.294 Q494.445 322.887 499.584 322.887 Q504.746 322.887 507.685 325.294 Q510.625 327.701 510.625 331.845 Q510.625 334.808 508.935 336.868 Q507.269 338.928 504.283 339.669 Q507.662 340.456 509.537 342.748 Q511.435 345.039 511.435 348.349 Q511.435 353.372 508.357 356.058 Q505.301 358.743 499.584 358.743 Q493.866 358.743 490.787 356.058 Q487.732 353.372 487.732 348.349 Q487.732 345.039 489.63 342.748 Q491.528 340.456 494.908 339.669 M493.195 332.285 Q493.195 334.97 494.861 336.474 Q496.551 337.979 499.584 337.979 Q502.593 337.979 504.283 336.474 Q505.996 334.97 505.996 332.285 Q505.996 329.599 504.283 328.095 Q502.593 326.59 499.584 326.59 Q496.551 326.59 494.861 328.095 Q493.195 329.599 493.195 332.285 Z" fill="#000000" fill-rule="nonzero" fill-opacity="1" /><path clip-path="url(#clip270)" d="M523.773 354.136 L540.093 354.136 L540.093 358.072 L518.148 358.072 L518.148 354.136 Q520.81 351.382 525.394 346.752 Q530 342.099 531.181 340.757 Q533.426 338.234 534.306 336.498 Q535.208 334.738 535.208 333.048 Q535.208 330.294 533.264 328.558 Q531.343 326.822 528.241 326.822 Q526.042 326.822 523.588 327.586 Q521.158 328.349 518.38 329.9 L518.38 325.178 Q521.204 324.044 523.658 323.465 Q526.111 322.887 528.148 322.887 Q533.519 322.887 536.713 325.572 Q539.907 328.257 539.907 332.748 Q539.907 334.877 539.097 336.798 Q538.31 338.697 536.204 341.289 Q535.625 341.96 532.523 345.178 Q529.421 348.372 523.773 354.136 Z" fill="#000000" fill-rule="nonzero" fill-opacity="1" /><path clip-path="url(#clip270)" d="M550.046 357.354 L550.046 353.095 Q551.806 353.928 553.611 354.368 Q555.417 354.808 557.153 354.808 Q561.782 354.808 564.213 351.706 Q566.667 348.581 567.014 342.238 Q565.671 344.229 563.611 345.294 Q561.551 346.359 559.051 346.359 Q553.866 346.359 550.833 343.234 Q547.824 340.085 547.824 334.646 Q547.824 329.322 550.972 326.104 Q554.12 322.887 559.352 322.887 Q565.347 322.887 568.495 327.493 Q571.667 332.076 571.667 340.826 Q571.667 348.997 567.778 353.882 Q563.912 358.743 557.361 358.743 Q555.602 358.743 553.796 358.396 Q551.991 358.048 550.046 357.354 M559.352 342.701 Q562.5 342.701 564.329 340.548 Q566.18 338.396 566.18 334.646 Q566.18 330.919 564.329 328.766 Q562.5 326.59 559.352 326.59 Q556.204 326.59 554.352 328.766 Q552.523 330.919 552.523 334.646 Q552.523 338.396 554.352 340.548 Q556.204 342.701 559.352 342.701 Z" fill="#000000" fill-rule="nonzero" fill-opacity="1" /><path clip-path="url(#clip270)" d="M608.24 332.609 L597.662 343.234 L608.24 353.812 L605.486 356.613 L594.861 345.988 L584.236 356.613 L581.504 353.812 L592.06 343.234 L581.504 332.609 L584.236 329.808 L594.861 340.433 L605.486 329.808 L608.24 332.609 Z" fill="#000000" fill-rule="nonzero" fill-opacity="1" /><path clip-path="url(#clip270)" d="M620.602 354.136 L628.24 354.136 L628.24 327.771 L619.93 329.437 L619.93 325.178 L628.194 323.512 L632.87 323.512 L632.87 354.136 L640.509 354.136 L640.509 358.072 L620.602 358.072 L620.602 354.136 Z" fill="#000000" fill-rule="nonzero" fill-opacity="1" /><path clip-path="url(#clip270)" d="M659.953 326.59 Q656.342 326.59 654.513 330.155 Q652.708 333.697 652.708 340.826 Q652.708 347.933 654.513 351.497 Q656.342 355.039 659.953 355.039 Q663.587 355.039 665.393 351.497 Q667.222 347.933 667.222 340.826 Q667.222 333.697 665.393 330.155 Q663.587 326.59 659.953 326.59 M659.953 322.887 Q665.763 322.887 668.819 327.493 Q671.898 332.076 671.898 340.826 Q671.898 349.553 668.819 354.159 Q665.763 358.743 659.953 358.743 Q654.143 358.743 651.064 354.159 Q648.009 349.553 648.009 340.826 Q648.009 332.076 651.064 327.493 Q654.143 322.887 659.953 322.887 Z" fill="#000000" fill-rule="nonzero" fill-opacity="1" /><path clip-path="url(#clip270)" d="M672.443 327.464 L678.65 327.464 L678.65 306.042 L671.898 307.396 L671.898 303.935 L678.612 302.581 L682.411 302.581 L682.411 327.464 L688.618 327.464 L688.618 330.661 L672.443 330.661 L672.443 327.464 Z" fill="#000000" fill-rule="nonzero" fill-opacity="1" /><path clip-path="url(#clip270)" d="M292.363 51.8717 L314.585 51.8717 L314.585 53.8624 L302.038 86.4317 L297.154 86.4317 L308.96 55.8069 L292.363 55.8069 L292.363 51.8717 Z" fill="#000000" fill-rule="nonzero" fill-opacity="1" /><path clip-path="url(#clip270)" d="M323.705 80.5521 L328.589 80.5521 L328.589 86.4317 L323.705 86.4317 L323.705 80.5521 Z" fill="#000000" fill-rule="nonzero" fill-opacity="1" /><path clip-path="url(#clip270)" d="M352.941 67.7975 Q356.297 68.5151 358.172 70.7836 Q360.07 73.0521 360.07 76.3854 Q360.07 81.5012 356.552 84.3021 Q353.033 87.103 346.552 87.103 Q344.376 87.103 342.061 86.6632 Q339.77 86.2465 337.316 85.39 L337.316 80.8762 Q339.26 82.0104 341.575 82.5891 Q343.89 83.1678 346.413 83.1678 Q350.811 83.1678 353.103 81.4317 Q355.418 79.6956 355.418 76.3854 Q355.418 73.3299 353.265 71.617 Q351.135 69.8808 347.316 69.8808 L343.288 69.8808 L343.288 66.0383 L347.501 66.0383 Q350.95 66.0383 352.779 64.6725 Q354.608 63.2837 354.608 60.6911 Q354.608 58.0291 352.709 56.617 Q350.834 55.1819 347.316 55.1819 Q345.395 55.1819 343.196 55.5985 Q340.997 56.0152 338.358 56.8948 L338.358 52.7282 Q341.02 51.9874 343.334 51.6171 Q345.672 51.2467 347.733 51.2467 Q353.057 51.2467 356.158 53.6772 Q359.26 56.0846 359.26 60.205 Q359.26 63.0753 357.617 65.0661 Q355.973 67.0336 352.941 67.7975 Z" fill="#000000" fill-rule="nonzero" fill-opacity="1" /><path clip-path="url(#clip270)" d="M369.075 85.7141 L369.075 81.4549 Q370.834 82.2882 372.64 82.728 Q374.445 83.1678 376.182 83.1678 Q380.811 83.1678 383.242 80.066 Q385.695 76.941 386.043 70.5984 Q384.7 72.5892 382.64 73.654 Q380.58 74.7188 378.08 74.7188 Q372.894 74.7188 369.862 71.5938 Q366.853 68.4457 366.853 63.0059 Q366.853 57.6818 370.001 54.4643 Q373.149 51.2467 378.381 51.2467 Q384.376 51.2467 387.524 55.8531 Q390.695 60.4365 390.695 69.1864 Q390.695 77.3577 386.806 82.2419 Q382.941 87.103 376.39 87.103 Q374.631 87.103 372.825 86.7558 Q371.02 86.4085 369.075 85.7141 M378.381 71.0614 Q381.529 71.0614 383.357 68.9086 Q385.209 66.7559 385.209 63.0059 Q385.209 59.2791 383.357 57.1263 Q381.529 54.9504 378.381 54.9504 Q375.232 54.9504 373.381 57.1263 Q371.552 59.2791 371.552 63.0059 Q371.552 66.7559 373.381 68.9086 Q375.232 71.0614 378.381 71.0614 Z" fill="#000000" fill-rule="nonzero" fill-opacity="1" /><path clip-path="url(#clip270)" d="M399.908 82.4965 L407.547 82.4965 L407.547 56.1309 L399.237 57.7976 L399.237 53.5383 L407.501 51.8717 L412.177 51.8717 L412.177 82.4965 L419.816 82.4965 L419.816 86.4317 L399.908 86.4317 L399.908 82.4965 Z" fill="#000000" fill-rule="nonzero" fill-opacity="1" /><path clip-path="url(#clip270)" d="M443.427 67.7975 Q446.783 68.5151 448.658 70.7836 Q450.556 73.0521 450.556 76.3854 Q450.556 81.5012 447.038 84.3021 Q443.519 87.103 437.038 87.103 Q434.862 87.103 432.547 86.6632 Q430.255 86.2465 427.802 85.39 L427.802 80.8762 Q429.746 82.0104 432.061 82.5891 Q434.376 83.1678 436.899 83.1678 Q441.297 83.1678 443.589 81.4317 Q445.903 79.6956 445.903 76.3854 Q445.903 73.3299 443.751 71.617 Q441.621 69.8808 437.802 69.8808 L433.774 69.8808 L433.774 66.0383 L437.987 66.0383 Q441.436 66.0383 443.264 64.6725 Q445.093 63.2837 445.093 60.6911 Q445.093 58.0291 443.195 56.617 Q441.32 55.1819 437.802 55.1819 Q435.88 55.1819 433.681 55.5985 Q431.482 56.0152 428.843 56.8948 L428.843 52.7282 Q431.505 51.9874 433.82 51.6171 Q436.158 51.2467 438.218 51.2467 Q443.542 51.2467 446.644 53.6772 Q449.746 56.0846 449.746 60.205 Q449.746 63.0753 448.102 65.0661 Q446.459 67.0336 443.427 67.7975 Z" fill="#000000" fill-rule="nonzero" fill-opacity="1" /><path clip-path="url(#clip270)" d="M463.45 82.4965 L479.769 82.4965 L479.769 86.4317 L457.825 86.4317 L457.825 82.4965 Q460.487 79.7419 465.07 75.1123 Q469.676 70.4595 470.857 69.117 Q473.102 66.5938 473.982 64.8577 Q474.885 63.0985 474.885 61.4087 Q474.885 58.6541 472.94 56.918 Q471.019 55.1819 467.917 55.1819 Q465.718 55.1819 463.264 55.9457 Q460.834 56.7096 458.056 58.2605 L458.056 53.5383 Q460.88 52.4041 463.334 51.8254 Q465.788 51.2467 467.825 51.2467 Q473.195 51.2467 476.389 53.9319 Q479.584 56.617 479.584 61.1077 Q479.584 63.2374 478.774 65.1587 Q477.987 67.0568 475.88 69.6494 Q475.301 70.3207 472.2 73.5382 Q469.098 76.7327 463.45 82.4965 Z" fill="#000000" fill-rule="nonzero" fill-opacity="1" /><path clip-path="url(#clip270)" d="M499.584 70.0197 Q496.25 70.0197 494.329 71.8021 Q492.431 73.5845 492.431 76.7095 Q492.431 79.8345 494.329 81.6169 Q496.25 83.3993 499.584 83.3993 Q502.917 83.3993 504.838 81.6169 Q506.76 79.8114 506.76 76.7095 Q506.76 73.5845 504.838 71.8021 Q502.94 70.0197 499.584 70.0197 M494.908 68.029 Q491.898 67.2883 490.209 65.2281 Q488.542 63.1679 488.542 60.205 Q488.542 56.0615 491.482 53.6541 Q494.445 51.2467 499.584 51.2467 Q504.746 51.2467 507.685 53.6541 Q510.625 56.0615 510.625 60.205 Q510.625 63.1679 508.935 65.2281 Q507.269 67.2883 504.283 68.029 Q507.662 68.816 509.537 71.1077 Q511.435 73.3993 511.435 76.7095 Q511.435 81.7326 508.357 84.4178 Q505.301 87.103 499.584 87.103 Q493.866 87.103 490.787 84.4178 Q487.732 81.7326 487.732 76.7095 Q487.732 73.3993 489.63 71.1077 Q491.528 68.816 494.908 68.029 M493.195 60.6448 Q493.195 63.33 494.861 64.8346 Q496.551 66.3392 499.584 66.3392 Q502.593 66.3392 504.283 64.8346 Q505.996 63.33 505.996 60.6448 Q505.996 57.9596 504.283 56.455 Q502.593 54.9504 499.584 54.9504 Q496.551 54.9504 494.861 56.455 Q493.195 57.9596 493.195 60.6448 Z" fill="#000000" fill-rule="nonzero" fill-opacity="1" /><path clip-path="url(#clip270)" d="M523.773 82.4965 L540.093 82.4965 L540.093 86.4317 L518.148 86.4317 L518.148 82.4965 Q520.81 79.7419 525.394 75.1123 Q530 70.4595 531.181 69.117 Q533.426 66.5938 534.306 64.8577 Q535.208 63.0985 535.208 61.4087 Q535.208 58.6541 533.264 56.918 Q531.343 55.1819 528.241 55.1819 Q526.042 55.1819 523.588 55.9457 Q521.158 56.7096 518.38 58.2605 L518.38 53.5383 Q521.204 52.4041 523.658 51.8254 Q526.111 51.2467 528.148 51.2467 Q533.519 51.2467 536.713 53.9319 Q539.907 56.617 539.907 61.1077 Q539.907 63.2374 539.097 65.1587 Q538.31 67.0568 536.204 69.6494 Q535.625 70.3207 532.523 73.5382 Q529.421 76.7327 523.773 82.4965 Z" fill="#000000" fill-rule="nonzero" fill-opacity="1" /><path clip-path="url(#clip270)" d="M550.046 85.7141 L550.046 81.4549 Q551.806 82.2882 553.611 82.728 Q555.417 83.1678 557.153 83.1678 Q561.782 83.1678 564.213 80.066 Q566.667 76.941 567.014 70.5984 Q565.671 72.5892 563.611 73.654 Q561.551 74.7188 559.051 74.7188 Q553.866 74.7188 550.833 71.5938 Q547.824 68.4457 547.824 63.0059 Q547.824 57.6818 550.972 54.4643 Q554.12 51.2467 559.352 51.2467 Q565.347 51.2467 568.495 55.8531 Q571.667 60.4365 571.667 69.1864 Q571.667 77.3577 567.778 82.2419 Q563.912 87.103 557.361 87.103 Q555.602 87.103 553.796 86.7558 Q551.991 86.4085 550.046 85.7141 M559.352 71.0614 Q562.5 71.0614 564.329 68.9086 Q566.18 66.7559 566.18 63.0059 Q566.18 59.2791 564.329 57.1263 Q562.5 54.9504 559.352 54.9504 Q556.204 54.9504 554.352 57.1263 Q552.523 59.2791 552.523 63.0059 Q552.523 66.7559 554.352 68.9086 Q556.204 71.0614 559.352 71.0614 Z" fill="#000000" fill-rule="nonzero" fill-opacity="1" /><path clip-path="url(#clip270)" d="M608.24 60.9689 L597.662 71.5938 L608.24 82.1724 L605.486 84.9734 L594.861 74.3484 L584.236 84.9734 L581.504 82.1724 L592.06 71.5938 L581.504 60.9689 L584.236 58.1679 L594.861 68.7929 L605.486 58.1679 L608.24 60.9689 Z" fill="#000000" fill-rule="nonzero" fill-opacity="1" /><path clip-path="url(#clip270)" d="M620.602 82.4965 L628.24 82.4965 L628.24 56.1309 L619.93 57.7976 L619.93 53.5383 L628.194 51.8717 L632.87 51.8717 L632.87 82.4965 L640.509 82.4965 L640.509 86.4317 L620.602 86.4317 L620.602 82.4965 Z" fill="#000000" fill-rule="nonzero" fill-opacity="1" /><path clip-path="url(#clip270)" d="M659.953 54.9504 Q656.342 54.9504 654.513 58.5152 Q652.708 62.0568 652.708 69.1864 Q652.708 76.2929 654.513 79.8576 Q656.342 83.3993 659.953 83.3993 Q663.587 83.3993 665.393 79.8576 Q667.222 76.2929 667.222 69.1864 Q667.222 62.0568 665.393 58.5152 Q663.587 54.9504 659.953 54.9504 M659.953 51.2467 Q665.763 51.2467 668.819 55.8531 Q671.898 60.4365 671.898 69.1864 Q671.898 77.9132 668.819 82.5197 Q665.763 87.103 659.953 87.103 Q654.143 87.103 651.064 82.5197 Q648.009 77.9132 648.009 69.1864 Q648.009 60.4365 651.064 55.8531 Q654.143 51.2467 659.953 51.2467 Z" fill="#000000" fill-rule="nonzero" fill-opacity="1" /><path clip-path="url(#clip270)" d="M672.443 55.824 L678.65 55.824 L678.65 34.4019 L671.898 35.7561 L671.898 32.2954 L678.612 30.9413 L682.411 30.9413 L682.411 55.824 L688.618 55.824 L688.618 59.0213 L672.443 59.0213 L672.443 55.824 Z" fill="#000000" fill-rule="nonzero" fill-opacity="1" /><path clip-path="url(#clip270)" d="M185.587 1082.01 L185.587 1054.7 L190.997 1054.7 L190.997 1075.58 L205.002 1075.58 L205.002 1056.74 L210.413 1056.74 L210.413 1075.58 L233.107 1075.58 L233.107 1082.01 L185.587 1082.01 Z" fill="#000000" fill-rule="nonzero" fill-opacity="1" /><path clip-path="url(#clip270)" d="M197.459 1049.51 L197.459 1043.66 L233.107 1043.66 L233.107 1049.51 L197.459 1049.51 M183.581 1049.51 L183.581 1043.66 L190.997 1043.66 L190.997 1049.51 L183.581 1049.51 Z" fill="#000000" fill-rule="nonzero" fill-opacity="1" /><path clip-path="url(#clip270)" d="M211.59 1001.77 L233.107 1001.77 L233.107 1007.63 L211.781 1007.63 Q206.721 1007.63 204.206 1009.6 Q201.692 1011.57 201.692 1015.52 Q201.692 1020.26 204.715 1023 Q207.739 1025.74 212.959 1025.74 L233.107 1025.74 L233.107 1031.63 L197.459 1031.63 L197.459 1025.74 L202.997 1025.74 Q199.782 1023.64 198.191 1020.81 Q196.599 1017.94 196.599 1014.22 Q196.599 1008.07 200.419 1004.92 Q204.206 1001.77 211.59 1001.77 Z" fill="#000000" fill-rule="nonzero" fill-opacity="1" /><path clip-path="url(#clip270)" d="M215.187 973.89 Q215.187 980.988 216.81 983.725 Q218.434 986.462 222.348 986.462 Q225.468 986.462 227.314 984.425 Q229.128 982.356 229.128 978.823 Q229.128 973.953 225.69 971.025 Q222.221 968.065 216.492 968.065 L215.187 968.065 L215.187 973.89 M212.768 962.209 L233.107 962.209 L233.107 968.065 L227.696 968.065 Q230.942 970.07 232.502 973.062 Q234.03 976.054 234.03 980.383 Q234.03 985.857 230.974 989.104 Q227.887 992.319 222.73 992.319 Q216.715 992.319 213.659 988.308 Q210.604 984.266 210.604 976.277 L210.604 968.065 L210.031 968.065 Q205.989 968.065 203.792 970.739 Q201.564 973.381 201.564 978.187 Q201.564 981.242 202.296 984.139 Q203.029 987.035 204.493 989.709 L199.082 989.709 Q197.841 986.494 197.236 983.47 Q196.599 980.447 196.599 977.582 Q196.599 969.848 200.61 966.028 Q204.62 962.209 212.768 962.209 Z" fill="#000000" fill-rule="nonzero" fill-opacity="1" /><path clip-path="url(#clip270)" d="M183.581 950.146 L183.581 944.289 L233.107 944.289 L233.107 950.146 L183.581 950.146 Z" fill="#000000" fill-rule="nonzero" fill-opacity="1" /><path clip-path="url(#clip270)" d="M211.59 881.683 L233.107 881.683 L233.107 887.539 L211.781 887.539 Q206.721 887.539 204.206 889.512 Q201.692 891.486 201.692 895.432 Q201.692 900.175 204.715 902.912 Q207.739 905.649 212.959 905.649 L233.107 905.649 L233.107 911.538 L197.459 911.538 L197.459 905.649 L202.997 905.649 Q199.782 903.549 198.191 900.716 Q196.599 897.851 196.599 894.128 Q196.599 887.985 200.419 884.834 Q204.206 881.683 211.59 881.683 Z" fill="#000000" fill-rule="nonzero" fill-opacity="1" /><path clip-path="url(#clip270)" d="M183.581 870.001 L183.581 864.145 L233.107 864.145 L233.107 870.001 L183.581 870.001 Z" fill="#000000" fill-rule="nonzero" fill-opacity="1" /><path clip-path="url(#clip270)" d="M183.581 851.891 L183.581 846.035 L233.107 846.035 L233.107 851.891 L183.581 851.891 Z" fill="#000000" fill-rule="nonzero" fill-opacity="1" /><path clip-path="url(#clip270)" d="M211.59 804.148 L233.107 804.148 L233.107 810.005 L211.781 810.005 Q206.721 810.005 204.206 811.978 Q201.692 813.951 201.692 817.898 Q201.692 822.641 204.715 825.378 Q207.739 828.115 212.959 828.115 L233.107 828.115 L233.107 834.003 L183.581 834.003 L183.581 828.115 L202.997 828.115 Q199.782 826.014 198.191 823.182 Q196.599 820.317 196.599 816.593 Q196.599 810.45 200.419 807.299 Q204.206 804.148 211.59 804.148 Z" fill="#000000" fill-rule="nonzero" fill-opacity="1" /><path clip-path="url(#clip270)" d="M197.459 775.948 L197.459 769.742 L227.377 758.602 L197.459 747.462 L197.459 741.255 L233.107 754.623 L233.107 762.58 L197.459 775.948 Z" fill="#000000" fill-rule="nonzero" fill-opacity="1" /><path clip-path="url(#clip270)" d="M215.187 716.97 Q215.187 724.068 216.81 726.805 Q218.434 729.542 222.348 729.542 Q225.468 729.542 227.314 727.505 Q229.128 725.436 229.128 721.903 Q229.128 717.034 225.69 714.105 Q222.221 711.145 216.492 711.145 L215.187 711.145 L215.187 716.97 M212.768 705.289 L233.107 705.289 L233.107 711.145 L227.696 711.145 Q230.942 713.15 232.502 716.142 Q234.03 719.134 234.03 723.463 Q234.03 728.937 230.974 732.184 Q227.887 735.399 222.73 735.399 Q216.715 735.399 213.659 731.388 Q210.604 727.346 210.604 719.357 L210.604 711.145 L210.031 711.145 Q205.989 711.145 203.792 713.819 Q201.564 716.461 201.564 721.267 Q201.564 724.322 202.296 727.219 Q203.029 730.115 204.493 732.789 L199.082 732.789 Q197.841 729.574 197.236 726.55 Q196.599 723.527 196.599 720.662 Q196.599 712.928 200.61 709.108 Q204.62 705.289 212.768 705.289 Z" fill="#000000" fill-rule="nonzero" fill-opacity="1" /><path clip-path="url(#clip270)" d="M183.581 693.226 L183.581 687.369 L233.107 687.369 L233.107 693.226 L183.581 693.226 Z" fill="#000000" fill-rule="nonzero" fill-opacity="1" /><path clip-path="url(#clip270)" d="M219.038 675.72 L197.459 675.72 L197.459 669.864 L218.816 669.864 Q223.876 669.864 226.423 667.89 Q228.937 665.917 228.937 661.97 Q228.937 657.228 225.913 654.49 Q222.89 651.721 217.67 651.721 L197.459 651.721 L197.459 645.865 L233.107 645.865 L233.107 651.721 L227.632 651.721 Q230.879 653.854 232.47 656.687 Q234.03 659.488 234.03 663.212 Q234.03 669.354 230.21 672.537 Q226.391 675.72 219.038 675.72 M196.599 660.984 L196.599 660.984 Z" fill="#000000" fill-rule="nonzero" fill-opacity="1" /><path clip-path="url(#clip270)" d="M213.818 603.31 L216.683 603.31 L216.683 630.237 Q222.73 629.855 225.913 626.609 Q229.064 623.33 229.064 617.506 Q229.064 614.132 228.237 610.981 Q227.409 607.798 225.754 604.679 L231.292 604.679 Q232.629 607.83 233.329 611.14 Q234.03 614.45 234.03 617.856 Q234.03 626.386 229.064 631.383 Q224.099 636.348 215.633 636.348 Q206.88 636.348 201.755 631.638 Q196.599 626.895 196.599 618.874 Q196.599 611.681 201.246 607.512 Q205.861 603.31 213.818 603.31 M212.1 609.167 Q207.294 609.23 204.429 611.872 Q201.564 614.482 201.564 618.811 Q201.564 623.712 204.334 626.672 Q207.103 629.601 212.132 630.046 L212.1 609.167 Z" fill="#000000" fill-rule="nonzero" fill-opacity="1" /><circle clip-path="url(#clip271)" cx="796.423" cy="1593.05" r="28.8" fill="#cc79a7" fill-rule="evenodd" fill-opacity="1" stroke="#000000" stroke-opacity="1" stroke-width="4"/>
<circle clip-path="url(#clip271)" cx="839.148" cy="1592.98" r="28.8" fill="#cc79a7" fill-rule="evenodd" fill-opacity="1" stroke="#000000" stroke-opacity="1" stroke-width="4"/>
<circle clip-path="url(#clip271)" cx="881.873" cy="1592.94" r="28.8" fill="#cc79a7" fill-rule="evenodd" fill-opacity="1" stroke="#000000" stroke-opacity="1" stroke-width="4"/>
<circle clip-path="url(#clip271)" cx="924.599" cy="1592.93" r="28.8" fill="#cc79a7" fill-rule="evenodd" fill-opacity="1" stroke="#000000" stroke-opacity="1" stroke-width="4"/>
<circle clip-path="url(#clip271)" cx="967.324" cy="1592.93" r="28.8" fill="#cc79a7" fill-rule="evenodd" fill-opacity="1" stroke="#000000" stroke-opacity="1" stroke-width="4"/>
<circle clip-path="url(#clip271)" cx="1010.05" cy="1592.93" r="28.8" fill="#cc79a7" fill-rule="evenodd" fill-opacity="1" stroke="#000000" stroke-opacity="1" stroke-width="4"/>
<circle clip-path="url(#clip271)" cx="1052.77" cy="1592.93" r="28.8" fill="#cc79a7" fill-rule="evenodd" fill-opacity="1" stroke="#000000" stroke-opacity="1" stroke-width="4"/>
<circle clip-path="url(#clip271)" cx="1095.5" cy="1592.92" r="28.8" fill="#cc79a7" fill-rule="evenodd" fill-opacity="1" stroke="#000000" stroke-opacity="1" stroke-width="4"/>
<circle clip-path="url(#clip271)" cx="1138.22" cy="1592.92" r="28.8" fill="#cc79a7" fill-rule="evenodd" fill-opacity="1" stroke="#000000" stroke-opacity="1" stroke-width="4"/>
<circle clip-path="url(#clip271)" cx="1180.95" cy="1592.92" r="28.8" fill="#cc79a7" fill-rule="evenodd" fill-opacity="1" stroke="#000000" stroke-opacity="1" stroke-width="4"/>
<circle clip-path="url(#clip271)" cx="1223.67" cy="1592.92" r="28.8" fill="#cc79a7" fill-rule="evenodd" fill-opacity="1" stroke="#000000" stroke-opacity="1" stroke-width="4"/>
<circle clip-path="url(#clip271)" cx="1266.4" cy="1592.91" r="28.8" fill="#cc79a7" fill-rule="evenodd" fill-opacity="1" stroke="#000000" stroke-opacity="1" stroke-width="4"/>
<circle clip-path="url(#clip271)" cx="1309.12" cy="1592.91" r="28.8" fill="#cc79a7" fill-rule="evenodd" fill-opacity="1" stroke="#000000" stroke-opacity="1" stroke-width="4"/>
<circle clip-path="url(#clip271)" cx="1351.85" cy="1592.91" r="28.8" fill="#cc79a7" fill-rule="evenodd" fill-opacity="1" stroke="#000000" stroke-opacity="1" stroke-width="4"/>
<circle clip-path="url(#clip271)" cx="1394.57" cy="1592.91" r="28.8" fill="#cc79a7" fill-rule="evenodd" fill-opacity="1" stroke="#000000" stroke-opacity="1" stroke-width="4"/>
<circle clip-path="url(#clip271)" cx="1437.3" cy="1592.89" r="28.8" fill="#cc79a7" fill-rule="evenodd" fill-opacity="1" stroke="#000000" stroke-opacity="1" stroke-width="4"/>
<circle clip-path="url(#clip271)" cx="1480.02" cy="1592.89" r="28.8" fill="#cc79a7" fill-rule="evenodd" fill-opacity="1" stroke="#000000" stroke-opacity="1" stroke-width="4"/>
<circle clip-path="url(#clip271)" cx="1522.75" cy="1592.89" r="28.8" fill="#cc79a7" fill-rule="evenodd" fill-opacity="1" stroke="#000000" stroke-opacity="1" stroke-width="4"/>
<circle clip-path="url(#clip271)" cx="1565.47" cy="1592.86" r="28.8" fill="#cc79a7" fill-rule="evenodd" fill-opacity="1" stroke="#000000" stroke-opacity="1" stroke-width="4"/>
<circle clip-path="url(#clip271)" cx="1608.2" cy="1592.85" r="28.8" fill="#cc79a7" fill-rule="evenodd" fill-opacity="1" stroke="#000000" stroke-opacity="1" stroke-width="4"/>
<circle clip-path="url(#clip271)" cx="1650.92" cy="1592.83" r="28.8" fill="#cc79a7" fill-rule="evenodd" fill-opacity="1" stroke="#000000" stroke-opacity="1" stroke-width="4"/>
<circle clip-path="url(#clip271)" cx="1693.65" cy="1592.83" r="28.8" fill="#cc79a7" fill-rule="evenodd" fill-opacity="1" stroke="#000000" stroke-opacity="1" stroke-width="4"/>
<circle clip-path="url(#clip271)" cx="1736.37" cy="1592.82" r="28.8" fill="#cc79a7" fill-rule="evenodd" fill-opacity="1" stroke="#000000" stroke-opacity="1" stroke-width="4"/>
<circle clip-path="url(#clip271)" cx="1779.1" cy="1592.79" r="28.8" fill="#cc79a7" fill-rule="evenodd" fill-opacity="1" stroke="#000000" stroke-opacity="1" stroke-width="4"/>
<circle clip-path="url(#clip271)" cx="1821.82" cy="1592.78" r="28.8" fill="#cc79a7" fill-rule="evenodd" fill-opacity="1" stroke="#000000" stroke-opacity="1" stroke-width="4"/>
<circle clip-path="url(#clip271)" cx="1864.55" cy="1592.78" r="28.8" fill="#cc79a7" fill-rule="evenodd" fill-opacity="1" stroke="#000000" stroke-opacity="1" stroke-width="4"/>
<circle clip-path="url(#clip271)" cx="1907.27" cy="1592.77" r="28.8" fill="#cc79a7" fill-rule="evenodd" fill-opacity="1" stroke="#000000" stroke-opacity="1" stroke-width="4"/>
<circle clip-path="url(#clip271)" cx="1950" cy="1592.77" r="28.8" fill="#cc79a7" fill-rule="evenodd" fill-opacity="1" stroke="#000000" stroke-opacity="1" stroke-width="4"/>
<circle clip-path="url(#clip271)" cx="1992.72" cy="1592.73" r="28.8" fill="#cc79a7" fill-rule="evenodd" fill-opacity="1" stroke="#000000" stroke-opacity="1" stroke-width="4"/>
<circle clip-path="url(#clip271)" cx="2035.45" cy="1592.7" r="28.8" fill="#cc79a7" fill-rule="evenodd" fill-opacity="1" stroke="#000000" stroke-opacity="1" stroke-width="4"/>
<circle clip-path="url(#clip271)" cx="2078.17" cy="1592.68" r="28.8" fill="#cc79a7" fill-rule="evenodd" fill-opacity="1" stroke="#000000" stroke-opacity="1" stroke-width="4"/>
<circle clip-path="url(#clip271)" cx="2120.9" cy="1592.67" r="28.8" fill="#cc79a7" fill-rule="evenodd" fill-opacity="1" stroke="#000000" stroke-opacity="1" stroke-width="4"/>
<circle clip-path="url(#clip271)" cx="2163.62" cy="1592.66" r="28.8" fill="#cc79a7" fill-rule="evenodd" fill-opacity="1" stroke="#000000" stroke-opacity="1" stroke-width="4"/>
<circle clip-path="url(#clip271)" cx="2206.35" cy="1592.4" r="28.8" fill="#cc79a7" fill-rule="evenodd" fill-opacity="1" stroke="#000000" stroke-opacity="1" stroke-width="4"/>
<circle clip-path="url(#clip271)" cx="2249.07" cy="1592.38" r="28.8" fill="#cc79a7" fill-rule="evenodd" fill-opacity="1" stroke="#000000" stroke-opacity="1" stroke-width="4"/>
<circle clip-path="url(#clip271)" cx="2291.8" cy="1592.35" r="28.8" fill="#cc79a7" fill-rule="evenodd" fill-opacity="1" stroke="#000000" stroke-opacity="1" stroke-width="4"/>
<circle clip-path="url(#clip271)" cx="2334.52" cy="1591.26" r="28.8" fill="#cc79a7" fill-rule="evenodd" fill-opacity="1" stroke="#000000" stroke-opacity="1" stroke-width="4"/>
<circle clip-path="url(#clip271)" cx="2377.25" cy="1585.54" r="28.8" fill="#cc79a7" fill-rule="evenodd" fill-opacity="1" stroke="#000000" stroke-opacity="1" stroke-width="4"/>
<circle clip-path="url(#clip271)" cx="2419.97" cy="1580.77" r="28.8" fill="#cc79a7" fill-rule="evenodd" fill-opacity="1" stroke="#000000" stroke-opacity="1" stroke-width="4"/>
<circle clip-path="url(#clip271)" cx="2462.7" cy="1567.2" r="28.8" fill="#cc79a7" fill-rule="evenodd" fill-opacity="1" stroke="#000000" stroke-opacity="1" stroke-width="4"/>
<circle clip-path="url(#clip271)" cx="2505.42" cy="1286.37" r="28.8" fill="#cc79a7" fill-rule="evenodd" fill-opacity="1" stroke="#000000" stroke-opacity="1" stroke-width="4"/>
<circle clip-path="url(#clip271)" cx="2548.15" cy="1150.51" r="28.8" fill="#cc79a7" fill-rule="evenodd" fill-opacity="1" stroke="#000000" stroke-opacity="1" stroke-width="4"/>
<circle clip-path="url(#clip271)" cx="2590.87" cy="1048.16" r="28.8" fill="#cc79a7" fill-rule="evenodd" fill-opacity="1" stroke="#000000" stroke-opacity="1" stroke-width="4"/>
<circle clip-path="url(#clip271)" cx="2633.6" cy="1022.92" r="28.8" fill="#cc79a7" fill-rule="evenodd" fill-opacity="1" stroke="#000000" stroke-opacity="1" stroke-width="4"/>
<circle clip-path="url(#clip271)" cx="2676.32" cy="1020.02" r="28.8" fill="#cc79a7" fill-rule="evenodd" fill-opacity="1" stroke="#000000" stroke-opacity="1" stroke-width="4"/>
<circle clip-path="url(#clip271)" cx="2719.05" cy="987.412" r="28.8" fill="#cc79a7" fill-rule="evenodd" fill-opacity="1" stroke="#000000" stroke-opacity="1" stroke-width="4"/>
<circle clip-path="url(#clip271)" cx="2761.78" cy="971.883" r="28.8" fill="#cc79a7" fill-rule="evenodd" fill-opacity="1" stroke="#000000" stroke-opacity="1" stroke-width="4"/>
<circle clip-path="url(#clip271)" cx="2804.5" cy="837.549" r="28.8" fill="#cc79a7" fill-rule="evenodd" fill-opacity="1" stroke="#000000" stroke-opacity="1" stroke-width="4"/>
<circle clip-path="url(#clip271)" cx="2847.23" cy="820.718" r="28.8" fill="#cc79a7" fill-rule="evenodd" fill-opacity="1" stroke="#000000" stroke-opacity="1" stroke-width="4"/>
<circle clip-path="url(#clip271)" cx="2889.95" cy="92.2642" r="28.8" fill="#cc79a7" fill-rule="evenodd" fill-opacity="1" stroke="#000000" stroke-opacity="1" stroke-width="4"/>
</svg>
