<?xml version="1.0" encoding="utf-8"?>
<svg xmlns="http://www.w3.org/2000/svg" xmlns:xlink="http://www.w3.org/1999/xlink" width="750" height="500" viewBox="0 0 3000 2000">
<defs>
  <clipPath id="clip970">
    <rect x="0" y="0" width="3000" height="2000"/>
  </clipPath>
</defs>
<path clip-path="url(#clip970)" d="M0 2000 L3000 2000 L3000 0 L0 0  Z" fill="#ffffff" fill-rule="evenodd" fill-opacity="1"/>
<defs>
  <clipPath id="clip971">
    <rect x="600" y="0" width="2101" height="2000"/>
  </clipPath>
</defs>
<path clip-path="url(#clip970)" d="M406.969 1638.08 L2952.76 1638.08 L2952.76 123.472 L406.969 123.472  Z" fill="#ffffff" fill-rule="evenodd" fill-opacity="1"/>
<defs>
  <clipPath id="clip972">
    <rect x="406" y="123" width="2547" height="1516"/>
  </clipPath>
</defs>
<polyline clip-path="url(#clip972)" style="stroke:#000000; stroke-linecap:round; stroke-linejoin:round; stroke-width:2; stroke-opacity:0.1; fill:none" points="479.019,1638.08 479.019,123.472 "/>
<polyline clip-path="url(#clip972)" style="stroke:#000000; stroke-linecap:round; stroke-linejoin:round; stroke-width:2; stroke-opacity:0.1; fill:none" points="1079.44,1638.08 1079.44,123.472 "/>
<polyline clip-path="url(#clip972)" style="stroke:#000000; stroke-linecap:round; stroke-linejoin:round; stroke-width:2; stroke-opacity:0.1; fill:none" points="1679.86,1638.08 1679.86,123.472 "/>
<polyline clip-path="url(#clip972)" style="stroke:#000000; stroke-linecap:round; stroke-linejoin:round; stroke-width:2; stroke-opacity:0.1; fill:none" points="2280.28,1638.08 2280.28,123.472 "/>
<polyline clip-path="url(#clip972)" style="stroke:#000000; stroke-linecap:round; stroke-linejoin:round; stroke-width:2; stroke-opacity:0.1; fill:none" points="2880.71,1638.08 2880.71,123.472 "/>
<polyline clip-path="url(#clip972)" style="stroke:#000000; stroke-linecap:round; stroke-linejoin:round; stroke-width:2; stroke-opacity:0.1; fill:none" points="406.969,1439.1 2952.76,1439.1 "/>
<polyline clip-path="url(#clip972)" style="stroke:#000000; stroke-linecap:round; stroke-linejoin:round; stroke-width:2; stroke-opacity:0.1; fill:none" points="406.969,1226.97 2952.76,1226.97 "/>
<polyline clip-path="url(#clip972)" style="stroke:#000000; stroke-linecap:round; stroke-linejoin:round; stroke-width:2; stroke-opacity:0.1; fill:none" points="406.969,1014.85 2952.76,1014.85 "/>
<polyline clip-path="url(#clip972)" style="stroke:#000000; stroke-linecap:round; stroke-linejoin:round; stroke-width:2; stroke-opacity:0.1; fill:none" points="406.969,802.72 2952.76,802.72 "/>
<polyline clip-path="url(#clip972)" style="stroke:#000000; stroke-linecap:round; stroke-linejoin:round; stroke-width:2; stroke-opacity:0.1; fill:none" points="406.969,590.593 2952.76,590.593 "/>
<polyline clip-path="url(#clip972)" style="stroke:#000000; stroke-linecap:round; stroke-linejoin:round; stroke-width:2; stroke-opacity:0.1; fill:none" points="406.969,378.465 2952.76,378.465 "/>
<polyline clip-path="url(#clip972)" style="stroke:#000000; stroke-linecap:round; stroke-linejoin:round; stroke-width:2; stroke-opacity:0.1; fill:none" points="406.969,166.338 2952.76,166.338 "/>
<polyline clip-path="url(#clip970)" style="stroke:#000000; stroke-linecap:round; stroke-linejoin:round; stroke-width:4; stroke-opacity:1; fill:none" points="406.969,1638.08 2952.76,1638.08 "/>
<polyline clip-path="url(#clip970)" style="stroke:#000000; stroke-linecap:round; stroke-linejoin:round; stroke-width:4; stroke-opacity:1; fill:none" points="479.019,1638.08 479.019,1619.18 "/>
<polyline clip-path="url(#clip970)" style="stroke:#000000; stroke-linecap:round; stroke-linejoin:round; stroke-width:4; stroke-opacity:1; fill:none" points="1079.44,1638.08 1079.44,1619.18 "/>
<polyline clip-path="url(#clip970)" style="stroke:#000000; stroke-linecap:round; stroke-linejoin:round; stroke-width:4; stroke-opacity:1; fill:none" points="1679.86,1638.08 1679.86,1619.18 "/>
<polyline clip-path="url(#clip970)" style="stroke:#000000; stroke-linecap:round; stroke-linejoin:round; stroke-width:4; stroke-opacity:1; fill:none" points="2280.28,1638.08 2280.28,1619.18 "/>
<polyline clip-path="url(#clip970)" style="stroke:#000000; stroke-linecap:round; stroke-linejoin:round; stroke-width:4; stroke-opacity:1; fill:none" points="2880.71,1638.08 2880.71,1619.18 "/>
<path clip-path="url(#clip970)" d="M456.404 1673.8 Q452.793 1673.8 450.964 1677.36 Q449.158 1680.9 449.158 1688.03 Q449.158 1695.14 450.964 1698.7 Q452.793 1702.25 456.404 1702.25 Q460.038 1702.25 461.843 1698.7 Q463.672 1695.14 463.672 1688.03 Q463.672 1680.9 461.843 1677.36 Q460.038 1673.8 456.404 1673.8 M456.404 1670.09 Q462.214 1670.09 465.269 1674.7 Q468.348 1679.28 468.348 1688.03 Q468.348 1696.76 465.269 1701.37 Q462.214 1705.95 456.404 1705.95 Q450.593 1705.95 447.515 1701.37 Q444.459 1696.76 444.459 1688.03 Q444.459 1679.28 447.515 1674.7 Q450.593 1670.09 456.404 1670.09 Z" fill="#000000" fill-rule="nonzero" fill-opacity="1" /><path clip-path="url(#clip970)" d="M476.566 1699.4 L481.45 1699.4 L481.45 1705.28 L476.566 1705.28 L476.566 1699.4 Z" fill="#000000" fill-rule="nonzero" fill-opacity="1" /><path clip-path="url(#clip970)" d="M501.635 1673.8 Q498.024 1673.8 496.195 1677.36 Q494.389 1680.9 494.389 1688.03 Q494.389 1695.14 496.195 1698.7 Q498.024 1702.25 501.635 1702.25 Q505.269 1702.25 507.075 1698.7 Q508.903 1695.14 508.903 1688.03 Q508.903 1680.9 507.075 1677.36 Q505.269 1673.8 501.635 1673.8 M501.635 1670.09 Q507.445 1670.09 510.501 1674.7 Q513.579 1679.28 513.579 1688.03 Q513.579 1696.76 510.501 1701.37 Q507.445 1705.95 501.635 1705.95 Q495.825 1705.95 492.746 1701.37 Q489.69 1696.76 489.69 1688.03 Q489.69 1679.28 492.746 1674.7 Q495.825 1670.09 501.635 1670.09 Z" fill="#000000" fill-rule="nonzero" fill-opacity="1" /><path clip-path="url(#clip970)" d="M1051.18 1701.34 L1067.5 1701.34 L1067.5 1705.28 L1045.55 1705.28 L1045.55 1701.34 Q1048.21 1698.59 1052.8 1693.96 Q1057.4 1689.31 1058.58 1687.96 Q1060.83 1685.44 1061.71 1683.7 Q1062.61 1681.94 1062.61 1680.25 Q1062.61 1677.5 1060.67 1675.76 Q1058.75 1674.03 1055.64 1674.03 Q1053.45 1674.03 1050.99 1674.79 Q1048.56 1675.56 1045.78 1677.11 L1045.78 1672.38 Q1048.61 1671.25 1051.06 1670.67 Q1053.51 1670.09 1055.55 1670.09 Q1060.92 1670.09 1064.12 1672.78 Q1067.31 1675.46 1067.31 1679.95 Q1067.31 1682.08 1066.5 1684 Q1065.71 1685.9 1063.61 1688.5 Q1063.03 1689.17 1059.93 1692.38 Q1056.83 1695.58 1051.18 1701.34 Z" fill="#000000" fill-rule="nonzero" fill-opacity="1" /><path clip-path="url(#clip970)" d="M1077.31 1699.4 L1082.2 1699.4 L1082.2 1705.28 L1077.31 1705.28 L1077.31 1699.4 Z" fill="#000000" fill-rule="nonzero" fill-opacity="1" /><path clip-path="url(#clip970)" d="M1092.43 1670.72 L1110.78 1670.72 L1110.78 1674.65 L1096.71 1674.65 L1096.71 1683.12 Q1097.73 1682.78 1098.75 1682.62 Q1099.76 1682.43 1100.78 1682.43 Q1106.57 1682.43 1109.95 1685.6 Q1113.33 1688.77 1113.33 1694.19 Q1113.33 1699.77 1109.86 1702.87 Q1106.39 1705.95 1100.07 1705.95 Q1097.89 1705.95 1095.62 1705.58 Q1093.38 1705.21 1090.97 1704.47 L1090.97 1699.77 Q1093.05 1700.9 1095.27 1701.46 Q1097.5 1702.01 1099.97 1702.01 Q1103.98 1702.01 1106.32 1699.91 Q1108.65 1697.8 1108.65 1694.19 Q1108.65 1690.58 1106.32 1688.47 Q1103.98 1686.37 1099.97 1686.37 Q1098.1 1686.37 1096.22 1686.78 Q1094.37 1687.2 1092.43 1688.08 L1092.43 1670.72 Z" fill="#000000" fill-rule="nonzero" fill-opacity="1" /><path clip-path="url(#clip970)" d="M1647.03 1670.72 L1665.38 1670.72 L1665.38 1674.65 L1651.31 1674.65 L1651.31 1683.12 Q1652.33 1682.78 1653.35 1682.62 Q1654.36 1682.43 1655.38 1682.43 Q1661.17 1682.43 1664.55 1685.6 Q1667.93 1688.77 1667.93 1694.19 Q1667.93 1699.77 1664.46 1702.87 Q1660.99 1705.95 1654.67 1705.95 Q1652.49 1705.95 1650.22 1705.58 Q1647.98 1705.21 1645.57 1704.47 L1645.57 1699.77 Q1647.65 1700.9 1649.87 1701.46 Q1652.1 1702.01 1654.57 1702.01 Q1658.58 1702.01 1660.92 1699.91 Q1663.25 1697.8 1663.25 1694.19 Q1663.25 1690.58 1660.92 1688.47 Q1658.58 1686.37 1654.57 1686.37 Q1652.7 1686.37 1650.82 1686.78 Q1648.97 1687.2 1647.03 1688.08 L1647.03 1670.72 Z" fill="#000000" fill-rule="nonzero" fill-opacity="1" /><path clip-path="url(#clip970)" d="M1677.14 1699.4 L1682.03 1699.4 L1682.03 1705.28 L1677.14 1705.28 L1677.14 1699.4 Z" fill="#000000" fill-rule="nonzero" fill-opacity="1" /><path clip-path="url(#clip970)" d="M1702.21 1673.8 Q1698.6 1673.8 1696.77 1677.36 Q1694.97 1680.9 1694.97 1688.03 Q1694.97 1695.14 1696.77 1698.7 Q1698.6 1702.25 1702.21 1702.25 Q1705.85 1702.25 1707.65 1698.7 Q1709.48 1695.14 1709.48 1688.03 Q1709.48 1680.9 1707.65 1677.36 Q1705.85 1673.8 1702.21 1673.8 M1702.21 1670.09 Q1708.02 1670.09 1711.08 1674.7 Q1714.16 1679.28 1714.16 1688.03 Q1714.16 1696.76 1711.08 1701.37 Q1708.02 1705.95 1702.21 1705.95 Q1696.4 1705.95 1693.32 1701.37 Q1690.27 1696.76 1690.27 1688.03 Q1690.27 1679.28 1693.32 1674.7 Q1696.4 1670.09 1702.21 1670.09 Z" fill="#000000" fill-rule="nonzero" fill-opacity="1" /><path clip-path="url(#clip970)" d="M2246.6 1670.72 L2268.83 1670.72 L2268.83 1672.71 L2256.28 1705.28 L2251.4 1705.28 L2263.2 1674.65 L2246.6 1674.65 L2246.6 1670.72 Z" fill="#000000" fill-rule="nonzero" fill-opacity="1" /><path clip-path="url(#clip970)" d="M2277.95 1699.4 L2282.83 1699.4 L2282.83 1705.28 L2277.95 1705.28 L2277.95 1699.4 Z" fill="#000000" fill-rule="nonzero" fill-opacity="1" /><path clip-path="url(#clip970)" d="M2293.06 1670.72 L2311.42 1670.72 L2311.42 1674.65 L2297.34 1674.65 L2297.34 1683.12 Q2298.36 1682.78 2299.38 1682.62 Q2300.4 1682.43 2301.42 1682.43 Q2307.2 1682.43 2310.58 1685.6 Q2313.96 1688.77 2313.96 1694.19 Q2313.96 1699.77 2310.49 1702.87 Q2307.02 1705.95 2300.7 1705.95 Q2298.52 1705.95 2296.26 1705.58 Q2294.01 1705.21 2291.6 1704.47 L2291.6 1699.77 Q2293.69 1700.9 2295.91 1701.46 Q2298.13 1702.01 2300.61 1702.01 Q2304.61 1702.01 2306.95 1699.91 Q2309.29 1697.8 2309.29 1694.19 Q2309.29 1690.58 2306.95 1688.47 Q2304.61 1686.37 2300.61 1686.37 Q2298.73 1686.37 2296.86 1686.78 Q2295.01 1687.2 2293.06 1688.08 L2293.06 1670.72 Z" fill="#000000" fill-rule="nonzero" fill-opacity="1" /><path clip-path="url(#clip970)" d="M2832.78 1701.34 L2840.42 1701.34 L2840.42 1674.98 L2832.11 1676.64 L2832.11 1672.38 L2840.37 1670.72 L2845.05 1670.72 L2845.05 1701.34 L2852.68 1701.34 L2852.68 1705.28 L2832.78 1705.28 L2832.78 1701.34 Z" fill="#000000" fill-rule="nonzero" fill-opacity="1" /><path clip-path="url(#clip970)" d="M2872.13 1673.8 Q2868.52 1673.8 2866.69 1677.36 Q2864.88 1680.9 2864.88 1688.03 Q2864.88 1695.14 2866.69 1698.7 Q2868.52 1702.25 2872.13 1702.25 Q2875.76 1702.25 2877.57 1698.7 Q2879.4 1695.14 2879.4 1688.03 Q2879.4 1680.9 2877.57 1677.36 Q2875.76 1673.8 2872.13 1673.8 M2872.13 1670.09 Q2877.94 1670.09 2880.99 1674.7 Q2884.07 1679.28 2884.07 1688.03 Q2884.07 1696.76 2880.99 1701.37 Q2877.94 1705.95 2872.13 1705.95 Q2866.32 1705.95 2863.24 1701.37 Q2860.18 1696.76 2860.18 1688.03 Q2860.18 1679.28 2863.24 1674.7 Q2866.32 1670.09 2872.13 1670.09 Z" fill="#000000" fill-rule="nonzero" fill-opacity="1" /><path clip-path="url(#clip970)" d="M2892.29 1699.4 L2897.18 1699.4 L2897.18 1705.28 L2892.29 1705.28 L2892.29 1699.4 Z" fill="#000000" fill-rule="nonzero" fill-opacity="1" /><path clip-path="url(#clip970)" d="M2917.36 1673.8 Q2913.75 1673.8 2911.92 1677.36 Q2910.11 1680.9 2910.11 1688.03 Q2910.11 1695.14 2911.92 1698.7 Q2913.75 1702.25 2917.36 1702.25 Q2920.99 1702.25 2922.8 1698.7 Q2924.63 1695.14 2924.63 1688.03 Q2924.63 1680.9 2922.8 1677.36 Q2920.99 1673.8 2917.36 1673.8 M2917.36 1670.09 Q2923.17 1670.09 2926.23 1674.7 Q2929.3 1679.28 2929.3 1688.03 Q2929.3 1696.76 2926.23 1701.37 Q2923.17 1705.95 2917.36 1705.95 Q2911.55 1705.95 2908.47 1701.37 Q2905.42 1696.76 2905.42 1688.03 Q2905.42 1679.28 2908.47 1674.7 Q2911.55 1670.09 2917.36 1670.09 Z" fill="#000000" fill-rule="nonzero" fill-opacity="1" /><path clip-path="url(#clip970)" d="M1601.74 1744.42 L1641.94 1744.42 L1641.94 1749.83 L1625.07 1749.83 L1625.07 1791.94 L1618.61 1791.94 L1618.61 1749.83 L1601.74 1749.83 L1601.74 1744.42 Z" fill="#000000" fill-rule="nonzero" fill-opacity="1" /><path clip-path="url(#clip970)" d="M1645.89 1756.29 L1651.74 1756.29 L1651.74 1791.94 L1645.89 1791.94 L1645.89 1756.29 M1645.89 1742.42 L1651.74 1742.42 L1651.74 1749.83 L1645.89 1749.83 L1645.89 1742.42 Z" fill="#000000" fill-rule="nonzero" fill-opacity="1" /><path clip-path="url(#clip970)" d="M1691.75 1763.14 Q1693.95 1759.19 1697 1757.31 Q1700.06 1755.43 1704.2 1755.43 Q1709.77 1755.43 1712.79 1759.35 Q1715.81 1763.23 1715.81 1770.43 L1715.81 1791.94 L1709.92 1791.94 L1709.92 1770.62 Q1709.92 1765.49 1708.11 1763.01 Q1706.3 1760.53 1702.57 1760.53 Q1698.02 1760.53 1695.38 1763.55 Q1692.74 1766.57 1692.74 1771.79 L1692.74 1791.94 L1686.85 1791.94 L1686.85 1770.62 Q1686.85 1765.46 1685.03 1763.01 Q1683.22 1760.53 1679.43 1760.53 Q1674.94 1760.53 1672.3 1763.58 Q1669.66 1766.61 1669.66 1771.79 L1669.66 1791.94 L1663.77 1791.94 L1663.77 1756.29 L1669.66 1756.29 L1669.66 1761.83 Q1671.67 1758.55 1674.47 1756.99 Q1677.27 1755.43 1681.12 1755.43 Q1685 1755.43 1687.71 1757.41 Q1690.45 1759.38 1691.75 1763.14 Z" fill="#000000" fill-rule="nonzero" fill-opacity="1" /><path clip-path="url(#clip970)" d="M1757.99 1772.65 L1757.99 1775.52 L1731.06 1775.52 Q1731.44 1781.57 1734.69 1784.75 Q1737.97 1787.9 1743.79 1787.9 Q1747.16 1787.9 1750.31 1787.07 Q1753.5 1786.24 1756.62 1784.59 L1756.62 1790.13 Q1753.47 1791.46 1750.16 1792.16 Q1746.85 1792.86 1743.44 1792.86 Q1734.91 1792.86 1729.91 1787.9 Q1724.95 1782.93 1724.95 1774.47 Q1724.95 1765.71 1729.66 1760.59 Q1734.4 1755.43 1742.42 1755.43 Q1749.61 1755.43 1753.78 1760.08 Q1757.99 1764.7 1757.99 1772.65 M1752.13 1770.93 Q1752.07 1766.13 1749.42 1763.26 Q1746.81 1760.4 1742.48 1760.4 Q1737.58 1760.4 1734.62 1763.17 Q1731.7 1765.94 1731.25 1770.97 L1752.13 1770.93 Z" fill="#000000" fill-rule="nonzero" fill-opacity="1" /><polyline clip-path="url(#clip970)" style="stroke:#000000; stroke-linecap:round; stroke-linejoin:round; stroke-width:4; stroke-opacity:1; fill:none" points="406.969,1638.08 406.969,123.472 "/>
<polyline clip-path="url(#clip970)" style="stroke:#000000; stroke-linecap:round; stroke-linejoin:round; stroke-width:4; stroke-opacity:1; fill:none" points="406.969,1439.1 425.866,1439.1 "/>
<polyline clip-path="url(#clip970)" style="stroke:#000000; stroke-linecap:round; stroke-linejoin:round; stroke-width:4; stroke-opacity:1; fill:none" points="406.969,1226.97 425.866,1226.97 "/>
<polyline clip-path="url(#clip970)" style="stroke:#000000; stroke-linecap:round; stroke-linejoin:round; stroke-width:4; stroke-opacity:1; fill:none" points="406.969,1014.85 425.866,1014.85 "/>
<polyline clip-path="url(#clip970)" style="stroke:#000000; stroke-linecap:round; stroke-linejoin:round; stroke-width:4; stroke-opacity:1; fill:none" points="406.969,802.72 425.866,802.72 "/>
<polyline clip-path="url(#clip970)" style="stroke:#000000; stroke-linecap:round; stroke-linejoin:round; stroke-width:4; stroke-opacity:1; fill:none" points="406.969,590.593 425.866,590.593 "/>
<polyline clip-path="url(#clip970)" style="stroke:#000000; stroke-linecap:round; stroke-linejoin:round; stroke-width:4; stroke-opacity:1; fill:none" points="406.969,378.465 425.866,378.465 "/>
<polyline clip-path="url(#clip970)" style="stroke:#000000; stroke-linecap:round; stroke-linejoin:round; stroke-width:4; stroke-opacity:1; fill:none" points="406.969,166.338 425.866,166.338 "/>
<path clip-path="url(#clip970)" d="M304.307 1424.9 Q300.696 1424.9 298.867 1428.46 Q297.062 1432.01 297.062 1439.14 Q297.062 1446.24 298.867 1449.81 Q300.696 1453.35 304.307 1453.35 Q307.941 1453.35 309.747 1449.81 Q311.575 1446.24 311.575 1439.14 Q311.575 1432.01 309.747 1428.46 Q307.941 1424.9 304.307 1424.9 M304.307 1421.2 Q310.117 1421.2 313.173 1425.8 Q316.251 1430.39 316.251 1439.14 Q316.251 1447.86 313.173 1452.47 Q310.117 1457.05 304.307 1457.05 Q298.497 1457.05 295.418 1452.47 Q292.363 1447.86 292.363 1439.14 Q292.363 1430.39 295.418 1425.8 Q298.497 1421.2 304.307 1421.2 Z" fill="#000000" fill-rule="nonzero" fill-opacity="1" /><path clip-path="url(#clip970)" d="M324.469 1450.5 L329.353 1450.5 L329.353 1456.38 L324.469 1456.38 L324.469 1450.5 Z" fill="#000000" fill-rule="nonzero" fill-opacity="1" /><path clip-path="url(#clip970)" d="M352.385 1425.9 L340.58 1444.34 L352.385 1444.34 L352.385 1425.9 M351.159 1421.82 L357.038 1421.82 L357.038 1444.34 L361.969 1444.34 L361.969 1448.23 L357.038 1448.23 L357.038 1456.38 L352.385 1456.38 L352.385 1448.23 L336.784 1448.23 L336.784 1443.72 L351.159 1421.82 Z" fill="#000000" fill-rule="nonzero" fill-opacity="1" /><path clip-path="url(#clip970)" d="M305.788 1212.77 Q302.177 1212.77 300.349 1216.34 Q298.543 1219.88 298.543 1227.01 Q298.543 1234.12 300.349 1237.68 Q302.177 1241.22 305.788 1241.22 Q309.423 1241.22 311.228 1237.68 Q313.057 1234.12 313.057 1227.01 Q313.057 1219.88 311.228 1216.34 Q309.423 1212.77 305.788 1212.77 M305.788 1209.07 Q311.599 1209.07 314.654 1213.68 Q317.733 1218.26 317.733 1227.01 Q317.733 1235.74 314.654 1240.34 Q311.599 1244.93 305.788 1244.93 Q299.978 1244.93 296.9 1240.34 Q293.844 1235.74 293.844 1227.01 Q293.844 1218.26 296.9 1213.68 Q299.978 1209.07 305.788 1209.07 Z" fill="#000000" fill-rule="nonzero" fill-opacity="1" /><path clip-path="url(#clip970)" d="M325.95 1238.37 L330.835 1238.37 L330.835 1244.25 L325.95 1244.25 L325.95 1238.37 Z" fill="#000000" fill-rule="nonzero" fill-opacity="1" /><path clip-path="url(#clip970)" d="M341.066 1209.69 L359.422 1209.69 L359.422 1213.63 L345.348 1213.63 L345.348 1222.1 Q346.367 1221.75 347.385 1221.59 Q348.404 1221.41 349.422 1221.41 Q355.209 1221.41 358.589 1224.58 Q361.969 1227.75 361.969 1233.17 Q361.969 1238.74 358.496 1241.85 Q355.024 1244.93 348.705 1244.93 Q346.529 1244.93 344.26 1244.55 Q342.015 1244.18 339.608 1243.44 L339.608 1238.74 Q341.691 1239.88 343.913 1240.43 Q346.135 1240.99 348.612 1240.99 Q352.617 1240.99 354.955 1238.88 Q357.293 1236.78 357.293 1233.17 Q357.293 1229.56 354.955 1227.45 Q352.617 1225.34 348.612 1225.34 Q346.737 1225.34 344.862 1225.76 Q343.01 1226.18 341.066 1227.06 L341.066 1209.69 Z" fill="#000000" fill-rule="nonzero" fill-opacity="1" /><path clip-path="url(#clip970)" d="M304.631 1000.65 Q301.02 1000.65 299.191 1004.21 Q297.386 1007.75 297.386 1014.88 Q297.386 1021.99 299.191 1025.55 Q301.02 1029.09 304.631 1029.09 Q308.265 1029.09 310.071 1025.55 Q311.899 1021.99 311.899 1014.88 Q311.899 1007.75 310.071 1004.21 Q308.265 1000.65 304.631 1000.65 M304.631 996.942 Q310.441 996.942 313.497 1001.55 Q316.575 1006.13 316.575 1014.88 Q316.575 1023.61 313.497 1028.21 Q310.441 1032.8 304.631 1032.8 Q298.821 1032.8 295.742 1028.21 Q292.687 1023.61 292.687 1014.88 Q292.687 1006.13 295.742 1001.55 Q298.821 996.942 304.631 996.942 Z" fill="#000000" fill-rule="nonzero" fill-opacity="1" /><path clip-path="url(#clip970)" d="M324.793 1026.25 L329.677 1026.25 L329.677 1032.13 L324.793 1032.13 L324.793 1026.25 Z" fill="#000000" fill-rule="nonzero" fill-opacity="1" /><path clip-path="url(#clip970)" d="M350.441 1012.98 Q347.293 1012.98 345.441 1015.14 Q343.612 1017.29 343.612 1021.04 Q343.612 1024.77 345.441 1026.94 Q347.293 1029.09 350.441 1029.09 Q353.589 1029.09 355.418 1026.94 Q357.27 1024.77 357.27 1021.04 Q357.27 1017.29 355.418 1015.14 Q353.589 1012.98 350.441 1012.98 M359.723 998.331 L359.723 1002.59 Q357.964 1001.76 356.158 1001.32 Q354.376 1000.88 352.617 1000.88 Q347.987 1000.88 345.534 1004 Q343.103 1007.13 342.756 1013.45 Q344.122 1011.43 346.182 1010.37 Q348.242 1009.28 350.719 1009.28 Q355.927 1009.28 358.936 1012.45 Q361.969 1015.6 361.969 1021.04 Q361.969 1026.36 358.82 1029.58 Q355.672 1032.8 350.441 1032.8 Q344.446 1032.8 341.274 1028.21 Q338.103 1023.61 338.103 1014.88 Q338.103 1006.69 341.992 1001.83 Q345.881 996.942 352.432 996.942 Q354.191 996.942 355.973 997.289 Q357.779 997.636 359.723 998.331 Z" fill="#000000" fill-rule="nonzero" fill-opacity="1" /><path clip-path="url(#clip970)" d="M305.696 788.518 Q302.085 788.518 300.256 792.083 Q298.45 795.625 298.45 802.754 Q298.45 809.861 300.256 813.426 Q302.085 816.967 305.696 816.967 Q309.33 816.967 311.136 813.426 Q312.964 809.861 312.964 802.754 Q312.964 795.625 311.136 792.083 Q309.33 788.518 305.696 788.518 M305.696 784.815 Q311.506 784.815 314.561 789.421 Q317.64 794.005 317.64 802.754 Q317.64 811.481 314.561 816.088 Q311.506 820.671 305.696 820.671 Q299.886 820.671 296.807 816.088 Q293.751 811.481 293.751 802.754 Q293.751 794.005 296.807 789.421 Q299.886 784.815 305.696 784.815 Z" fill="#000000" fill-rule="nonzero" fill-opacity="1" /><path clip-path="url(#clip970)" d="M325.858 814.12 L330.742 814.12 L330.742 820 L325.858 820 L325.858 814.12 Z" fill="#000000" fill-rule="nonzero" fill-opacity="1" /><path clip-path="url(#clip970)" d="M339.747 785.44 L361.969 785.44 L361.969 787.43 L349.422 820 L344.538 820 L356.344 789.375 L339.747 789.375 L339.747 785.44 Z" fill="#000000" fill-rule="nonzero" fill-opacity="1" /><path clip-path="url(#clip970)" d="M304.886 576.391 Q301.275 576.391 299.446 579.956 Q297.64 583.498 297.64 590.627 Q297.64 597.734 299.446 601.299 Q301.275 604.84 304.886 604.84 Q308.52 604.84 310.325 601.299 Q312.154 597.734 312.154 590.627 Q312.154 583.498 310.325 579.956 Q308.52 576.391 304.886 576.391 M304.886 572.688 Q310.696 572.688 313.751 577.294 Q316.83 581.877 316.83 590.627 Q316.83 599.354 313.751 603.961 Q310.696 608.544 304.886 608.544 Q299.075 608.544 295.997 603.961 Q292.941 599.354 292.941 590.627 Q292.941 581.877 295.997 577.294 Q299.075 572.688 304.886 572.688 Z" fill="#000000" fill-rule="nonzero" fill-opacity="1" /><path clip-path="url(#clip970)" d="M325.048 601.993 L329.932 601.993 L329.932 607.873 L325.048 607.873 L325.048 601.993 Z" fill="#000000" fill-rule="nonzero" fill-opacity="1" /><path clip-path="url(#clip970)" d="M350.117 591.461 Q346.784 591.461 344.862 593.243 Q342.964 595.025 342.964 598.15 Q342.964 601.275 344.862 603.058 Q346.784 604.84 350.117 604.84 Q353.45 604.84 355.371 603.058 Q357.293 601.252 357.293 598.15 Q357.293 595.025 355.371 593.243 Q353.473 591.461 350.117 591.461 M345.441 589.47 Q342.432 588.729 340.742 586.669 Q339.075 584.609 339.075 581.646 Q339.075 577.502 342.015 575.095 Q344.978 572.688 350.117 572.688 Q355.279 572.688 358.219 575.095 Q361.158 577.502 361.158 581.646 Q361.158 584.609 359.469 586.669 Q357.802 588.729 354.816 589.47 Q358.196 590.257 360.07 592.549 Q361.969 594.84 361.969 598.15 Q361.969 603.174 358.89 605.859 Q355.834 608.544 350.117 608.544 Q344.399 608.544 341.321 605.859 Q338.265 603.174 338.265 598.15 Q338.265 594.84 340.163 592.549 Q342.061 590.257 345.441 589.47 M343.728 582.086 Q343.728 584.771 345.395 586.276 Q347.084 587.78 350.117 587.78 Q353.126 587.78 354.816 586.276 Q356.529 584.771 356.529 582.086 Q356.529 579.401 354.816 577.896 Q353.126 576.391 350.117 576.391 Q347.084 576.391 345.395 577.896 Q343.728 579.401 343.728 582.086 Z" fill="#000000" fill-rule="nonzero" fill-opacity="1" /><path clip-path="url(#clip970)" d="M304.978 364.264 Q301.367 364.264 299.538 367.829 Q297.733 371.371 297.733 378.5 Q297.733 385.607 299.538 389.171 Q301.367 392.713 304.978 392.713 Q308.612 392.713 310.418 389.171 Q312.247 385.607 312.247 378.5 Q312.247 371.371 310.418 367.829 Q308.612 364.264 304.978 364.264 M304.978 360.56 Q310.788 360.56 313.844 365.167 Q316.923 369.75 316.923 378.5 Q316.923 387.227 313.844 391.833 Q310.788 396.417 304.978 396.417 Q299.168 396.417 296.089 391.833 Q293.034 387.227 293.034 378.5 Q293.034 369.75 296.089 365.167 Q299.168 360.56 304.978 360.56 Z" fill="#000000" fill-rule="nonzero" fill-opacity="1" /><path clip-path="url(#clip970)" d="M325.14 389.866 L330.024 389.866 L330.024 395.745 L325.14 395.745 L325.14 389.866 Z" fill="#000000" fill-rule="nonzero" fill-opacity="1" /><path clip-path="url(#clip970)" d="M340.348 395.028 L340.348 390.769 Q342.108 391.602 343.913 392.042 Q345.719 392.482 347.455 392.482 Q352.084 392.482 354.515 389.38 Q356.969 386.255 357.316 379.912 Q355.973 381.903 353.913 382.968 Q351.853 384.033 349.353 384.033 Q344.168 384.033 341.135 380.908 Q338.126 377.759 338.126 372.32 Q338.126 366.996 341.274 363.778 Q344.422 360.56 349.654 360.56 Q355.649 360.56 358.797 365.167 Q361.969 369.75 361.969 378.5 Q361.969 386.671 358.08 391.556 Q354.214 396.417 347.663 396.417 Q345.904 396.417 344.098 396.07 Q342.293 395.722 340.348 395.028 M349.654 380.375 Q352.802 380.375 354.631 378.222 Q356.483 376.07 356.483 372.32 Q356.483 368.593 354.631 366.44 Q352.802 364.264 349.654 364.264 Q346.506 364.264 344.654 366.44 Q342.825 368.593 342.825 372.32 Q342.825 376.07 344.654 378.222 Q346.506 380.375 349.654 380.375 Z" fill="#000000" fill-rule="nonzero" fill-opacity="1" /><path clip-path="url(#clip970)" d="M295.603 179.683 L303.242 179.683 L303.242 153.318 L294.932 154.984 L294.932 150.725 L303.196 149.058 L307.872 149.058 L307.872 179.683 L315.511 179.683 L315.511 183.618 L295.603 183.618 L295.603 179.683 Z" fill="#000000" fill-rule="nonzero" fill-opacity="1" /><path clip-path="url(#clip970)" d="M324.955 177.739 L329.839 177.739 L329.839 183.618 L324.955 183.618 L324.955 177.739 Z" fill="#000000" fill-rule="nonzero" fill-opacity="1" /><path clip-path="url(#clip970)" d="M350.024 152.137 Q346.413 152.137 344.584 155.702 Q342.779 159.243 342.779 166.373 Q342.779 173.479 344.584 177.044 Q346.413 180.586 350.024 180.586 Q353.658 180.586 355.464 177.044 Q357.293 173.479 357.293 166.373 Q357.293 159.243 355.464 155.702 Q353.658 152.137 350.024 152.137 M350.024 148.433 Q355.834 148.433 358.89 153.04 Q361.969 157.623 361.969 166.373 Q361.969 175.1 358.89 179.706 Q355.834 184.29 350.024 184.29 Q344.214 184.29 341.135 179.706 Q338.08 175.1 338.08 166.373 Q338.08 157.623 341.135 153.04 Q344.214 148.433 350.024 148.433 Z" fill="#000000" fill-rule="nonzero" fill-opacity="1" /><path clip-path="url(#clip970)" d="M185.587 1323.33 L185.587 1313.75 L217.924 1301.63 L185.587 1289.44 L185.587 1279.86 L233.107 1279.86 L233.107 1286.13 L191.379 1286.13 L223.972 1298.38 L223.972 1304.84 L191.379 1317.1 L233.107 1317.1 L233.107 1323.33 L185.587 1323.33 Z" fill="#000000" fill-rule="nonzero" fill-opacity="1" /><path clip-path="url(#clip970)" d="M201.564 1253.53 Q201.564 1258.25 205.257 1260.98 Q208.917 1263.72 215.314 1263.72 Q221.712 1263.72 225.404 1261.01 Q229.064 1258.28 229.064 1253.53 Q229.064 1248.86 225.372 1246.12 Q221.68 1243.38 215.314 1243.38 Q208.98 1243.38 205.288 1246.12 Q201.564 1248.86 201.564 1253.53 M196.599 1253.53 Q196.599 1245.9 201.564 1241.54 Q206.53 1237.17 215.314 1237.17 Q224.067 1237.17 229.064 1241.54 Q234.03 1245.9 234.03 1253.53 Q234.03 1261.21 229.064 1265.57 Q224.067 1269.89 215.314 1269.89 Q206.53 1269.89 201.564 1265.57 Q196.599 1261.21 196.599 1253.53 Z" fill="#000000" fill-rule="nonzero" fill-opacity="1" /><path clip-path="url(#clip970)" d="M202.869 1204.01 L183.581 1204.01 L183.581 1198.15 L233.107 1198.15 L233.107 1204.01 L227.759 1204.01 Q230.942 1205.86 232.502 1208.69 Q234.03 1211.49 234.03 1215.44 Q234.03 1221.9 228.873 1225.97 Q223.717 1230.01 215.314 1230.01 Q206.912 1230.01 201.755 1225.97 Q196.599 1221.9 196.599 1215.44 Q196.599 1211.49 198.159 1208.69 Q199.687 1205.86 202.869 1204.01 M215.314 1223.97 Q221.776 1223.97 225.468 1221.32 Q229.128 1218.65 229.128 1214 Q229.128 1209.36 225.468 1206.68 Q221.776 1204.01 215.314 1204.01 Q208.853 1204.01 205.193 1206.68 Q201.501 1209.36 201.501 1214 Q201.501 1218.65 205.193 1221.32 Q208.853 1223.97 215.314 1223.97 Z" fill="#000000" fill-rule="nonzero" fill-opacity="1" /><path clip-path="url(#clip970)" d="M213.818 1155.6 L216.683 1155.6 L216.683 1182.53 Q222.73 1182.14 225.913 1178.9 Q229.064 1175.62 229.064 1169.79 Q229.064 1166.42 228.237 1163.27 Q227.409 1160.09 225.754 1156.97 L231.292 1156.97 Q232.629 1160.12 233.329 1163.43 Q234.03 1166.74 234.03 1170.14 Q234.03 1178.67 229.064 1183.67 Q224.099 1188.64 215.633 1188.64 Q206.88 1188.64 201.755 1183.93 Q196.599 1179.18 196.599 1171.16 Q196.599 1163.97 201.246 1159.8 Q205.861 1155.6 213.818 1155.6 M212.1 1161.45 Q207.294 1161.52 204.429 1164.16 Q201.564 1166.77 201.564 1171.1 Q201.564 1176 204.334 1178.96 Q207.103 1181.89 212.132 1182.33 L212.1 1161.45 Z" fill="#000000" fill-rule="nonzero" fill-opacity="1" /><path clip-path="url(#clip970)" d="M183.581 1145.99 L183.581 1140.13 L233.107 1140.13 L233.107 1145.99 L183.581 1145.99 Z" fill="#000000" fill-rule="nonzero" fill-opacity="1" /><path clip-path="url(#clip970)" d="M215.187 1090.95 Q215.187 1098.05 216.81 1100.79 Q218.434 1103.53 222.348 1103.53 Q225.468 1103.53 227.314 1101.49 Q229.128 1099.42 229.128 1095.89 Q229.128 1091.02 225.69 1088.09 Q222.221 1085.13 216.492 1085.13 L215.187 1085.13 L215.187 1090.95 M212.768 1079.27 L233.107 1079.27 L233.107 1085.13 L227.696 1085.13 Q230.942 1087.14 232.502 1090.13 Q234.03 1093.12 234.03 1097.45 Q234.03 1102.92 230.974 1106.17 Q227.887 1109.38 222.73 1109.38 Q216.715 1109.38 213.659 1105.37 Q210.604 1101.33 210.604 1093.34 L210.604 1085.13 L210.031 1085.13 Q205.989 1085.13 203.792 1087.8 Q201.564 1090.45 201.564 1095.25 Q201.564 1098.31 202.296 1101.2 Q203.029 1104.1 204.493 1106.77 L199.082 1106.77 Q197.841 1103.56 197.236 1100.53 Q196.599 1097.51 196.599 1094.65 Q196.599 1086.91 200.61 1083.09 Q204.62 1079.27 212.768 1079.27 Z" fill="#000000" fill-rule="nonzero" fill-opacity="1" /><path clip-path="url(#clip970)" d="M211.59 1037.58 L233.107 1037.58 L233.107 1043.43 L211.781 1043.43 Q206.721 1043.43 204.206 1045.41 Q201.692 1047.38 201.692 1051.33 Q201.692 1056.07 204.715 1058.81 Q207.739 1061.54 212.959 1061.54 L233.107 1061.54 L233.107 1067.43 L197.459 1067.43 L197.459 1061.54 L202.997 1061.54 Q199.782 1059.44 198.191 1056.61 Q196.599 1053.75 196.599 1050.02 Q196.599 1043.88 200.419 1040.73 Q204.206 1037.58 211.59 1037.58 Z" fill="#000000" fill-rule="nonzero" fill-opacity="1" /><path clip-path="url(#clip970)" d="M202.869 1002.44 L183.581 1002.44 L183.581 996.583 L233.107 996.583 L233.107 1002.44 L227.759 1002.44 Q230.942 1004.29 232.502 1007.12 Q234.03 1009.92 234.03 1013.87 Q234.03 1020.33 228.873 1024.4 Q223.717 1028.44 215.314 1028.44 Q206.912 1028.44 201.755 1024.4 Q196.599 1020.33 196.599 1013.87 Q196.599 1009.92 198.159 1007.12 Q199.687 1004.29 202.869 1002.44 M215.314 1022.4 Q221.776 1022.4 225.468 1019.75 Q229.128 1017.08 229.128 1012.43 Q229.128 1007.79 225.468 1005.11 Q221.776 1002.44 215.314 1002.44 Q208.853 1002.44 205.193 1005.11 Q201.501 1007.79 201.501 1012.43 Q201.501 1017.08 205.193 1019.75 Q208.853 1022.4 215.314 1022.4 Z" fill="#000000" fill-rule="nonzero" fill-opacity="1" /><path clip-path="url(#clip970)" d="M201.564 949.986 Q201.564 954.697 205.257 957.434 Q208.917 960.171 215.314 960.171 Q221.712 960.171 225.404 957.466 Q229.064 954.728 229.064 949.986 Q229.064 945.307 225.372 942.57 Q221.68 939.833 215.314 939.833 Q208.98 939.833 205.288 942.57 Q201.564 945.307 201.564 949.986 M196.599 949.986 Q196.599 942.347 201.564 937.987 Q206.53 933.626 215.314 933.626 Q224.067 933.626 229.064 937.987 Q234.03 942.347 234.03 949.986 Q234.03 957.657 229.064 962.017 Q224.067 966.346 215.314 966.346 Q206.53 966.346 201.564 962.017 Q196.599 957.657 196.599 949.986 Z" fill="#000000" fill-rule="nonzero" fill-opacity="1" /><path clip-path="url(#clip970)" d="M215.314 898.328 Q208.853 898.328 205.193 901.002 Q201.501 903.644 201.501 908.291 Q201.501 912.938 205.193 915.611 Q208.853 918.253 215.314 918.253 Q221.776 918.253 225.468 915.611 Q229.128 912.938 229.128 908.291 Q229.128 903.644 225.468 901.002 Q221.776 898.328 215.314 898.328 M202.869 918.253 Q199.687 916.407 198.159 913.606 Q196.599 910.773 196.599 906.858 Q196.599 900.365 201.755 896.323 Q206.912 892.249 215.314 892.249 Q223.717 892.249 228.873 896.323 Q234.03 900.365 234.03 906.858 Q234.03 910.773 232.502 913.606 Q230.942 916.407 227.759 918.253 L233.107 918.253 L233.107 924.141 L183.581 924.141 L183.581 918.253 L202.869 918.253 Z" fill="#000000" fill-rule="nonzero" fill-opacity="1" /><path clip-path="url(#clip970)" d="M198.509 859.816 L204.047 859.816 Q202.774 862.298 202.137 864.972 Q201.501 867.646 201.501 870.51 Q201.501 874.871 202.838 877.067 Q204.174 879.231 206.848 879.231 Q208.885 879.231 210.063 877.672 Q211.208 876.112 212.259 871.401 L212.704 869.396 Q214.041 863.158 216.492 860.548 Q218.911 857.906 223.272 857.906 Q228.237 857.906 231.133 861.853 Q234.03 865.768 234.03 872.643 Q234.03 875.507 233.457 878.626 Q232.916 881.714 231.802 885.151 L225.754 885.151 Q227.441 881.905 228.3 878.754 Q229.128 875.603 229.128 872.515 Q229.128 868.378 227.727 866.15 Q226.295 863.922 223.717 863.922 Q221.33 863.922 220.057 865.545 Q218.784 867.136 217.606 872.579 L217.129 874.616 Q215.983 880.059 213.627 882.478 Q211.24 884.897 207.103 884.897 Q202.074 884.897 199.336 881.332 Q196.599 877.767 196.599 871.21 Q196.599 867.964 197.077 865.099 Q197.554 862.235 198.509 859.816 Z" fill="#000000" fill-rule="nonzero" fill-opacity="1" /><path clip-path="url(#clip970)" d="M213.818 818.089 L216.683 818.089 L216.683 845.015 Q222.73 844.634 225.913 841.387 Q229.064 838.109 229.064 832.284 Q229.064 828.91 228.237 825.759 Q227.409 822.576 225.754 819.457 L231.292 819.457 Q232.629 822.608 233.329 825.918 Q234.03 829.228 234.03 832.634 Q234.03 841.164 229.064 846.161 Q224.099 851.127 215.633 851.127 Q206.88 851.127 201.755 846.416 Q196.599 841.673 196.599 833.653 Q196.599 826.459 201.246 822.29 Q205.861 818.089 213.818 818.089 M212.1 823.945 Q207.294 824.009 204.429 826.65 Q201.564 829.26 201.564 833.589 Q201.564 838.491 204.334 841.451 Q207.103 844.379 212.132 844.824 L212.1 823.945 Z" fill="#000000" fill-rule="nonzero" fill-opacity="1" /><path clip-path="url(#clip970)" d="M202.933 787.82 Q202.36 788.806 202.106 789.984 Q201.819 791.13 201.819 792.53 Q201.819 797.495 205.066 800.169 Q208.28 802.811 214.328 802.811 L233.107 802.811 L233.107 808.699 L197.459 808.699 L197.459 802.811 L202.997 802.811 Q199.75 800.965 198.191 798.005 Q196.599 795.045 196.599 790.811 Q196.599 790.207 196.695 789.475 Q196.758 788.743 196.917 787.851 L202.933 787.82 Z" fill="#000000" fill-rule="nonzero" fill-opacity="1" /><path clip-path="url(#clip970)" d="M197.459 785.878 L197.459 779.671 L227.377 768.531 L197.459 757.391 L197.459 751.185 L233.107 764.553 L233.107 772.51 L197.459 785.878 Z" fill="#000000" fill-rule="nonzero" fill-opacity="1" /><path clip-path="url(#clip970)" d="M213.818 712.609 L216.683 712.609 L216.683 739.536 Q222.73 739.154 225.913 735.907 Q229.064 732.629 229.064 726.804 Q229.064 723.43 228.237 720.279 Q227.409 717.097 225.754 713.977 L231.292 713.977 Q232.629 717.128 233.329 720.439 Q234.03 723.749 234.03 727.154 Q234.03 735.684 229.064 740.682 Q224.099 745.647 215.633 745.647 Q206.88 745.647 201.755 740.936 Q196.599 736.194 196.599 728.173 Q196.599 720.98 201.246 716.81 Q205.861 712.609 213.818 712.609 M212.1 718.465 Q207.294 718.529 204.429 721.171 Q201.564 723.781 201.564 728.109 Q201.564 733.011 204.334 735.971 Q207.103 738.899 212.132 739.345 L212.1 718.465 Z" fill="#000000" fill-rule="nonzero" fill-opacity="1" /><path clip-path="url(#clip970)" d="M202.869 679.539 L183.581 679.539 L183.581 673.682 L233.107 673.682 L233.107 679.539 L227.759 679.539 Q230.942 681.385 232.502 684.218 Q234.03 687.019 234.03 690.965 Q234.03 697.427 228.873 701.501 Q223.717 705.543 215.314 705.543 Q206.912 705.543 201.755 701.501 Q196.599 697.427 196.599 690.965 Q196.599 687.019 198.159 684.218 Q199.687 681.385 202.869 679.539 M215.314 699.495 Q221.776 699.495 225.468 696.854 Q229.128 694.18 229.128 689.533 Q229.128 684.886 225.468 682.212 Q221.776 679.539 215.314 679.539 Q208.853 679.539 205.193 682.212 Q201.501 684.886 201.501 689.533 Q201.501 694.18 205.193 696.854 Q208.853 699.495 215.314 699.495 Z" fill="#000000" fill-rule="nonzero" fill-opacity="1" /><path clip-path="url(#clip970)" d="M197.459 645.1 L197.459 638.894 L227.377 627.754 L197.459 616.614 L197.459 610.407 L233.107 623.775 L233.107 631.732 L197.459 645.1 Z" fill="#000000" fill-rule="nonzero" fill-opacity="1" /><path clip-path="url(#clip970)" d="M215.187 586.122 Q215.187 593.22 216.81 595.957 Q218.434 598.694 222.348 598.694 Q225.468 598.694 227.314 596.657 Q229.128 594.589 229.128 591.056 Q229.128 586.186 225.69 583.258 Q222.221 580.298 216.492 580.298 L215.187 580.298 L215.187 586.122 M212.768 574.441 L233.107 574.441 L233.107 580.298 L227.696 580.298 Q230.942 582.303 232.502 585.295 Q234.03 588.286 234.03 592.615 Q234.03 598.09 230.974 601.336 Q227.887 604.551 222.73 604.551 Q216.715 604.551 213.659 600.54 Q210.604 596.498 210.604 588.509 L210.604 580.298 L210.031 580.298 Q205.989 580.298 203.792 582.971 Q201.564 585.613 201.564 590.419 Q201.564 593.475 202.296 596.371 Q203.029 599.267 204.493 601.941 L199.082 601.941 Q197.841 598.726 197.236 595.703 Q196.599 592.679 196.599 589.814 Q196.599 582.08 200.61 578.261 Q204.62 574.441 212.768 574.441 Z" fill="#000000" fill-rule="nonzero" fill-opacity="1" /><path clip-path="url(#clip970)" d="M183.581 562.378 L183.581 556.522 L233.107 556.522 L233.107 562.378 L183.581 562.378 Z" fill="#000000" fill-rule="nonzero" fill-opacity="1" /><path clip-path="url(#clip970)" d="M219.038 544.872 L197.459 544.872 L197.459 539.016 L218.816 539.016 Q223.876 539.016 226.423 537.043 Q228.937 535.069 228.937 531.122 Q228.937 526.38 225.913 523.643 Q222.89 520.874 217.67 520.874 L197.459 520.874 L197.459 515.017 L233.107 515.017 L233.107 520.874 L227.632 520.874 Q230.879 523.006 232.47 525.839 Q234.03 528.64 234.03 532.364 Q234.03 538.507 230.21 541.69 Q226.391 544.872 219.038 544.872 M196.599 530.136 L196.599 530.136 Z" fill="#000000" fill-rule="nonzero" fill-opacity="1" /><path clip-path="url(#clip970)" d="M213.818 472.462 L216.683 472.462 L216.683 499.389 Q222.73 499.007 225.913 495.761 Q229.064 492.483 229.064 486.658 Q229.064 483.284 228.237 480.133 Q227.409 476.95 225.754 473.831 L231.292 473.831 Q232.629 476.982 233.329 480.292 Q234.03 483.602 234.03 487.008 Q234.03 495.538 229.064 500.535 Q224.099 505.5 215.633 505.5 Q206.88 505.5 201.755 500.79 Q196.599 496.047 196.599 488.027 Q196.599 480.833 201.246 476.664 Q205.861 472.462 213.818 472.462 M212.1 478.319 Q207.294 478.383 204.429 481.024 Q201.564 483.634 201.564 487.963 Q201.564 492.865 204.334 495.825 Q207.103 498.753 212.132 499.198 L212.1 478.319 Z" fill="#000000" fill-rule="nonzero" fill-opacity="1" /><path clip-path="url(#clip970)" d="M198.509 440.125 L204.047 440.125 Q202.774 442.607 202.137 445.281 Q201.501 447.954 201.501 450.819 Q201.501 455.18 202.838 457.376 Q204.174 459.54 206.848 459.54 Q208.885 459.54 210.063 457.98 Q211.208 456.421 212.259 451.71 L212.704 449.705 Q214.041 443.467 216.492 440.857 Q218.911 438.215 223.272 438.215 Q228.237 438.215 231.133 442.162 Q234.03 446.077 234.03 452.952 Q234.03 455.816 233.457 458.935 Q232.916 462.023 231.802 465.46 L225.754 465.46 Q227.441 462.214 228.3 459.063 Q229.128 455.912 229.128 452.824 Q229.128 448.687 227.727 446.459 Q226.295 444.231 223.717 444.231 Q221.33 444.231 220.057 445.854 Q218.784 447.445 217.606 452.888 L217.129 454.925 Q215.983 460.368 213.627 462.787 Q211.24 465.206 207.103 465.206 Q202.074 465.206 199.336 461.641 Q196.599 458.076 196.599 451.519 Q196.599 448.273 197.077 445.408 Q197.554 442.544 198.509 440.125 Z" fill="#000000" fill-rule="nonzero" fill-opacity="1" /><path clip-path="url(#clip970)" d="M1594.67 28.9478 L1594.67 35.9153 Q1591.51 34.1734 1588.31 33.3227 Q1585.15 32.4315 1581.91 32.4315 Q1574.66 32.4315 1570.65 37.0496 Q1566.64 41.6271 1566.64 49.9314 Q1566.64 58.2358 1570.65 62.8538 Q1574.66 67.4314 1581.91 67.4314 Q1585.15 67.4314 1588.31 66.5807 Q1591.51 65.6895 1594.67 63.9476 L1594.67 70.8341 Q1591.55 72.2924 1588.19 73.0216 Q1584.87 73.7508 1581.1 73.7508 Q1570.85 73.7508 1564.82 67.3098 Q1558.78 60.8689 1558.78 49.9314 Q1558.78 38.832 1564.86 32.472 Q1570.97 26.1121 1581.59 26.1121 Q1585.03 26.1121 1588.31 26.8413 Q1591.59 27.5299 1594.67 28.9478 Z" fill="#000000" fill-rule="nonzero" fill-opacity="1" /><path clip-path="url(#clip970)" d="M1625.22 32.4315 Q1619.22 32.4315 1615.74 37.1306 Q1612.25 41.7891 1612.25 49.9314 Q1612.25 58.0738 1615.7 62.7728 Q1619.18 67.4314 1625.22 67.4314 Q1631.17 67.4314 1634.65 62.7323 Q1638.14 58.0333 1638.14 49.9314 Q1638.14 41.8701 1634.65 37.1711 Q1631.17 32.4315 1625.22 32.4315 M1625.22 26.1121 Q1634.94 26.1121 1640.49 32.4315 Q1646.04 38.7509 1646.04 49.9314 Q1646.04 61.0714 1640.49 67.4314 Q1634.94 73.7508 1625.22 73.7508 Q1615.45 73.7508 1609.9 67.4314 Q1604.39 61.0714 1604.39 49.9314 Q1604.39 38.7509 1609.9 32.4315 Q1615.45 26.1121 1625.22 26.1121 Z" fill="#000000" fill-rule="nonzero" fill-opacity="1" /><path clip-path="url(#clip970)" d="M1696.11 45.1919 L1696.11 72.576 L1688.65 72.576 L1688.65 45.4349 Q1688.65 38.994 1686.14 35.7938 Q1683.63 32.5936 1678.61 32.5936 Q1672.57 32.5936 1669.09 36.4419 Q1665.6 40.2903 1665.6 46.9338 L1665.6 72.576 L1658.11 72.576 L1658.11 27.2059 L1665.6 27.2059 L1665.6 34.2544 Q1668.28 30.163 1671.88 28.1376 Q1675.53 26.1121 1680.27 26.1121 Q1688.09 26.1121 1692.1 30.9732 Q1696.11 35.7938 1696.11 45.1919 Z" fill="#000000" fill-rule="nonzero" fill-opacity="1" /><path clip-path="url(#clip970)" d="M1740.83 34.0924 L1740.83 9.54393 L1748.28 9.54393 L1748.28 72.576 L1740.83 72.576 L1740.83 65.7705 Q1738.48 69.8214 1734.87 71.8063 Q1731.31 73.7508 1726.29 73.7508 Q1718.06 73.7508 1712.88 67.1883 Q1707.73 60.6258 1707.73 49.9314 Q1707.73 39.2371 1712.88 32.6746 Q1718.06 26.1121 1726.29 26.1121 Q1731.31 26.1121 1734.87 28.0971 Q1738.48 30.0415 1740.83 34.0924 M1715.43 49.9314 Q1715.43 58.1548 1718.79 62.8538 Q1722.19 67.5124 1728.11 67.5124 Q1734.02 67.5124 1737.43 62.8538 Q1740.83 58.1548 1740.83 49.9314 Q1740.83 41.7081 1737.43 37.0496 Q1734.02 32.3505 1728.11 32.3505 Q1722.19 32.3505 1718.79 37.0496 Q1715.43 41.7081 1715.43 49.9314 Z" fill="#000000" fill-rule="nonzero" fill-opacity="1" /><path clip-path="url(#clip970)" d="M1766.11 65.6895 L1779.47 65.6895 L1779.47 19.5497 L1764.93 22.4663 L1764.93 15.0127 L1779.39 12.096 L1787.58 12.096 L1787.58 65.6895 L1800.94 65.6895 L1800.94 72.576 L1766.11 72.576 L1766.11 65.6895 Z" fill="#000000" fill-rule="nonzero" fill-opacity="1" /><circle clip-path="url(#clip972)" cx="719.188" cy="1067.1" r="14.4" fill="#cc79a7" fill-rule="evenodd" fill-opacity="1" stroke="#000000" stroke-opacity="1" stroke-width="4"/>
<circle clip-path="url(#clip972)" cx="959.356" cy="1099.71" r="14.4" fill="#cc79a7" fill-rule="evenodd" fill-opacity="1" stroke="#000000" stroke-opacity="1" stroke-width="4"/>
<circle clip-path="url(#clip972)" cx="1199.53" cy="1123.82" r="14.4" fill="#cc79a7" fill-rule="evenodd" fill-opacity="1" stroke="#000000" stroke-opacity="1" stroke-width="4"/>
<circle clip-path="url(#clip972)" cx="1439.69" cy="1027.75" r="14.4" fill="#cc79a7" fill-rule="evenodd" fill-opacity="1" stroke="#000000" stroke-opacity="1" stroke-width="4"/>
<circle clip-path="url(#clip972)" cx="1679.86" cy="867.45" r="14.4" fill="#cc79a7" fill-rule="evenodd" fill-opacity="1" stroke="#000000" stroke-opacity="1" stroke-width="4"/>
<circle clip-path="url(#clip972)" cx="1920.03" cy="872.167" r="14.4" fill="#cc79a7" fill-rule="evenodd" fill-opacity="1" stroke="#000000" stroke-opacity="1" stroke-width="4"/>
<circle clip-path="url(#clip972)" cx="2160.2" cy="1136.38" r="14.4" fill="#cc79a7" fill-rule="evenodd" fill-opacity="1" stroke="#000000" stroke-opacity="1" stroke-width="4"/>
<circle clip-path="url(#clip972)" cx="2400.37" cy="742.429" r="14.4" fill="#cc79a7" fill-rule="evenodd" fill-opacity="1" stroke="#000000" stroke-opacity="1" stroke-width="4"/>
<circle clip-path="url(#clip972)" cx="2640.54" cy="978.922" r="14.4" fill="#cc79a7" fill-rule="evenodd" fill-opacity="1" stroke="#000000" stroke-opacity="1" stroke-width="4"/>
<circle clip-path="url(#clip972)" cx="2880.71" cy="644.04" r="14.4" fill="#cc79a7" fill-rule="evenodd" fill-opacity="1" stroke="#000000" stroke-opacity="1" stroke-width="4"/>
<polyline clip-path="url(#clip972)" style="stroke:#cc79a7; stroke-linecap:round; stroke-linejoin:round; stroke-width:8; stroke-opacity:1; fill:none" points="479.019,166.338 479.029,247.51 479.033,281.106 479.04,334.22 479.047,384.331 479.054,433.673 479.062,481.286 479.069,527.743 479.077,572.841 479.086,616.743 479.094,659.42 479.103,700.926 479.112,741.271 479.121,780.479 479.131,818.566 479.141,855.547 479.151,891.437 479.162,926.249 479.173,959.997 479.185,992.693 479.197,1024.35 479.209,1054.98 479.222,1084.59 479.235,1113.21 479.249,1140.83 479.263,1167.47 479.278,1193.15 479.293,1217.87 479.309,1241.65 479.325,1264.5 479.342,1286.43 479.36,1307.46 479.379,1327.6 479.398,1346.86 479.418,1365.25 479.439,1382.78 479.46,1399.48 479.483,1415.35 479.506,1430.41 479.531,1444.66 479.556,1458.13 479.583,1470.84 479.61,1482.78 479.64,1493.99 479.67,1504.47 479.702,1514.25 479.735,1523.33 479.77,1531.75 479.807,1539.51 479.846,1546.64 479.887,1553.15 479.93,1559.08 479.976,1564.43 480.024,1569.24 480.075,1573.52 480.13,1577.31 480.188,1580.63 480.249,1583.51 480.315,1585.97 480.386,1588.06 480.461,1589.79 480.542,1591.21 480.629,1592.35 480.723,1593.24 480.824,1593.92 480.933,1594.41 481.05,1594.77 481.178,1595 481.316,1595.13 481.467,1595.2 481.632,1595.21 481.815,1595.18 482.017,1595.12 482.245,1595.03 482.502,1594.92 482.799,1594.78 483.147,1594.62 483.564,1594.43 484.081,1594.19 484.75,1593.88 485.676,1593.45 487.099,1592.79 489.949,1591.46 494.122,1589.51 500.154,1586.69 509.013,1582.53 521.158,1576.8 534.752,1570.34 549.67,1563.22 565.876,1555.43 583.139,1547.08 601.24,1538.26 619.974,1529.08 639.157,1519.6 658.631,1509.92 678.267,1500.1 697.959,1490.2 717.651,1480.23 737.342,1470.21 757.034,1460.15 776.726,1450.03 796.417,1439.88 816.109,1429.68 835.801,1419.45 855.492,1409.18 875.184,1398.89 894.875,1388.56 914.567,1378.21 934.259,1367.85 953.95,1357.46 973.642,1347.06 993.334,1336.65 1013.03,1326.23 1032.72,1315.81 1052.41,1305.39 1072.1,1294.97 1091.79,1284.55 1111.48,1274.14 1131.18,1263.74 1150.87,1253.36 1170.56,1242.99 1190.25,1232.64 1209.94,1222.31 1229.63,1212 1249.33,1201.72 1269.02,1191.47 1288.71,1181.25 1308.4,1171.07 1328.09,1160.92 1347.78,1150.8 1367.48,1140.73 1387.17,1130.7 1406.86,1120.72 1426.55,1110.78 1446.24,1100.88 1465.93,1091.04 1485.63,1081.25 1505.32,1071.51 1525.01,1061.82 1544.7,1052.19 1564.39,1042.62 1584.08,1033.1 1603.78,1023.64 1623.47,1014.25 1643.17,1004.91 1662.9,995.614 1682.7,986.354 1702.59,977.12 1722.59,967.902 1742.71,958.694 1762.99,949.49 1783.42,940.283 1804.04,931.068 1824.86,921.841 1845.9,912.597 1867.16,903.333 1888.67,894.046 1910.45,884.732 1932.5,875.388 1954.84,866.011 1977.49,856.601 2000.46,847.153 2023.78,837.667 2047.44,828.139 2071.48,818.57 2095.91,808.957 2120.75,799.298 2146.01,789.592 2171.72,779.838 2197.89,770.035 2224.55,760.181 2251.71,750.276 2279.4,740.318 2307.65,730.307 2336.48,720.242 2365.91,710.122 2395.97,699.947 2426.69,689.715 2458.11,679.427 2490.26,669.081 2523.17,658.678 2556.88,648.217 2591.43,637.699 2626.87,627.122 2663.23,616.487 2700.58,605.794 2738.95,595.043 2778.41,584.235 2819.02,573.37 2860.84,562.449 2880.71,557.357 "/>
<path clip-path="url(#clip970)" d="M2303.18 329.479 L2867.9 329.479 L2867.9 173.959 L2303.18 173.959  Z" fill="#ffffff" fill-rule="evenodd" fill-opacity="1"/>
<polyline clip-path="url(#clip970)" style="stroke:#000000; stroke-linecap:round; stroke-linejoin:round; stroke-width:4; stroke-opacity:1; fill:none" points="2303.18,329.479 2867.9,329.479 2867.9,173.959 2303.18,173.959 2303.18,329.479 "/>
<circle clip-path="url(#clip970)" cx="2416.33" cy="225.799" r="20.48" fill="#cc79a7" fill-rule="evenodd" fill-opacity="1" stroke="#000000" stroke-opacity="1" stroke-width="5.68889"/>
<path clip-path="url(#clip970)" d="M2529.47 208.519 L2551.32 208.519 L2551.32 212.454 L2534.15 212.454 L2534.15 222.686 L2550.61 222.686 L2550.61 226.621 L2534.15 226.621 L2534.15 239.144 L2551.74 239.144 L2551.74 243.079 L2529.47 243.079 L2529.47 208.519 Z" fill="#000000" fill-rule="nonzero" fill-opacity="1" /><path clip-path="url(#clip970)" d="M2584.54 207.107 Q2581.44 212.431 2579.94 217.639 Q2578.43 222.848 2578.43 228.195 Q2578.43 233.542 2579.94 238.797 Q2581.46 244.028 2584.54 249.329 L2580.84 249.329 Q2577.37 243.889 2575.63 238.635 Q2573.92 233.38 2573.92 228.195 Q2573.92 223.033 2575.63 217.801 Q2577.34 212.57 2580.84 207.107 L2584.54 207.107 Z" fill="#000000" fill-rule="nonzero" fill-opacity="1" /><path clip-path="url(#clip970)" d="M2612.99 222.13 Q2614.59 219.26 2616.81 217.894 Q2619.03 216.528 2622.04 216.528 Q2626.09 216.528 2628.29 219.375 Q2630.49 222.199 2630.49 227.431 L2630.49 243.079 L2626.21 243.079 L2626.21 227.57 Q2626.21 223.843 2624.89 222.037 Q2623.57 220.232 2620.86 220.232 Q2617.55 220.232 2615.63 222.431 Q2613.71 224.63 2613.71 228.426 L2613.71 243.079 L2609.43 243.079 L2609.43 227.57 Q2609.43 223.82 2608.11 222.037 Q2606.79 220.232 2604.03 220.232 Q2600.77 220.232 2598.85 222.454 Q2596.93 224.653 2596.93 228.426 L2596.93 243.079 L2592.64 243.079 L2592.64 217.153 L2596.93 217.153 L2596.93 221.181 Q2598.38 218.797 2600.42 217.662 Q2602.46 216.528 2605.26 216.528 Q2608.08 216.528 2610.05 217.963 Q2612.04 219.399 2612.99 222.13 Z" fill="#000000" fill-rule="nonzero" fill-opacity="1" /><path clip-path="url(#clip970)" d="M2661.16 229.051 L2661.16 231.135 L2641.58 231.135 Q2641.86 235.533 2644.22 237.848 Q2646.6 240.139 2650.84 240.139 Q2653.29 240.139 2655.58 239.537 Q2657.9 238.935 2660.17 237.732 L2660.17 241.76 Q2657.87 242.732 2655.47 243.241 Q2653.06 243.75 2650.58 243.75 Q2644.38 243.75 2640.75 240.139 Q2637.13 236.528 2637.13 230.371 Q2637.13 224.005 2640.56 220.278 Q2644.01 216.528 2649.84 216.528 Q2655.07 216.528 2658.11 219.908 Q2661.16 223.264 2661.16 229.051 M2656.9 227.801 Q2656.86 224.306 2654.93 222.223 Q2653.04 220.139 2649.89 220.139 Q2646.32 220.139 2644.17 222.153 Q2642.04 224.167 2641.72 227.824 L2656.9 227.801 Z" fill="#000000" fill-rule="nonzero" fill-opacity="1" /><path clip-path="url(#clip970)" d="M2679.93 230.047 Q2674.77 230.047 2672.78 231.227 Q2670.79 232.408 2670.79 235.255 Q2670.79 237.523 2672.27 238.866 Q2673.78 240.185 2676.35 240.185 Q2679.89 240.185 2682.02 237.685 Q2684.17 235.162 2684.17 230.996 L2684.17 230.047 L2679.93 230.047 M2688.43 228.287 L2688.43 243.079 L2684.17 243.079 L2684.17 239.144 Q2682.71 241.505 2680.54 242.639 Q2678.36 243.75 2675.21 243.75 Q2671.23 243.75 2668.87 241.528 Q2666.53 239.283 2666.53 235.533 Q2666.53 231.158 2669.45 228.936 Q2672.39 226.713 2678.2 226.713 L2684.17 226.713 L2684.17 226.297 Q2684.17 223.357 2682.23 221.76 Q2680.31 220.139 2676.81 220.139 Q2674.59 220.139 2672.48 220.672 Q2670.37 221.204 2668.43 222.269 L2668.43 218.334 Q2670.77 217.431 2672.97 216.991 Q2675.17 216.528 2677.25 216.528 Q2682.87 216.528 2685.65 219.445 Q2688.43 222.361 2688.43 228.287 Z" fill="#000000" fill-rule="nonzero" fill-opacity="1" /><path clip-path="url(#clip970)" d="M2713.73 217.917 L2713.73 221.945 Q2711.93 221.019 2709.98 220.556 Q2708.04 220.093 2705.95 220.093 Q2702.78 220.093 2701.18 221.065 Q2699.61 222.037 2699.61 223.982 Q2699.61 225.463 2700.74 226.32 Q2701.88 227.153 2705.3 227.917 L2706.76 228.241 Q2711.3 229.213 2713.2 230.996 Q2715.12 232.755 2715.12 235.926 Q2715.12 239.537 2712.25 241.644 Q2709.4 243.75 2704.4 243.75 Q2702.32 243.75 2700.05 243.334 Q2697.81 242.94 2695.31 242.13 L2695.31 237.732 Q2697.67 238.959 2699.96 239.584 Q2702.25 240.185 2704.49 240.185 Q2707.5 240.185 2709.12 239.167 Q2710.74 238.125 2710.74 236.25 Q2710.74 234.514 2709.56 233.588 Q2708.41 232.662 2704.45 231.806 L2702.97 231.459 Q2699.01 230.625 2697.25 228.912 Q2695.49 227.176 2695.49 224.167 Q2695.49 220.51 2698.08 218.519 Q2700.68 216.528 2705.44 216.528 Q2707.8 216.528 2709.89 216.875 Q2711.97 217.223 2713.73 217.917 Z" fill="#000000" fill-rule="nonzero" fill-opacity="1" /><path clip-path="url(#clip970)" d="M2721.46 232.848 L2721.46 217.153 L2725.72 217.153 L2725.72 232.686 Q2725.72 236.366 2727.16 238.218 Q2728.59 240.047 2731.46 240.047 Q2734.91 240.047 2736.9 237.848 Q2738.92 235.648 2738.92 231.852 L2738.92 217.153 L2743.18 217.153 L2743.18 243.079 L2738.92 243.079 L2738.92 239.098 Q2737.36 241.459 2735.3 242.616 Q2733.27 243.75 2730.56 243.75 Q2726.09 243.75 2723.78 240.973 Q2721.46 238.195 2721.46 232.848 M2732.18 216.528 L2732.18 216.528 Z" fill="#000000" fill-rule="nonzero" fill-opacity="1" /><path clip-path="url(#clip970)" d="M2766.97 221.135 Q2766.25 220.718 2765.4 220.533 Q2764.56 220.324 2763.55 220.324 Q2759.93 220.324 2757.99 222.686 Q2756.07 225.024 2756.07 229.422 L2756.07 243.079 L2751.79 243.079 L2751.79 217.153 L2756.07 217.153 L2756.07 221.181 Q2757.41 218.82 2759.56 217.686 Q2761.72 216.528 2764.8 216.528 Q2765.24 216.528 2765.77 216.598 Q2766.3 216.644 2766.95 216.76 L2766.97 221.135 Z" fill="#000000" fill-rule="nonzero" fill-opacity="1" /><path clip-path="url(#clip970)" d="M2792.57 229.051 L2792.57 231.135 L2772.99 231.135 Q2773.27 235.533 2775.63 237.848 Q2778.01 240.139 2782.25 240.139 Q2784.7 240.139 2786.99 239.537 Q2789.31 238.935 2791.58 237.732 L2791.58 241.76 Q2789.29 242.732 2786.88 243.241 Q2784.47 243.75 2781.99 243.75 Q2775.79 243.75 2772.16 240.139 Q2768.55 236.528 2768.55 230.371 Q2768.55 224.005 2771.97 220.278 Q2775.42 216.528 2781.25 216.528 Q2786.49 216.528 2789.52 219.908 Q2792.57 223.264 2792.57 229.051 M2788.31 227.801 Q2788.27 224.306 2786.35 222.223 Q2784.45 220.139 2781.3 220.139 Q2777.74 220.139 2775.58 222.153 Q2773.45 224.167 2773.13 227.824 L2788.31 227.801 Z" fill="#000000" fill-rule="nonzero" fill-opacity="1" /><path clip-path="url(#clip970)" d="M2816.62 221.088 L2816.62 207.061 L2820.88 207.061 L2820.88 243.079 L2816.62 243.079 L2816.62 239.19 Q2815.28 241.505 2813.22 242.639 Q2811.18 243.75 2808.31 243.75 Q2803.61 243.75 2800.65 240 Q2797.71 236.25 2797.71 230.139 Q2797.71 224.028 2800.65 220.278 Q2803.61 216.528 2808.31 216.528 Q2811.18 216.528 2813.22 217.662 Q2815.28 218.774 2816.62 221.088 M2802.11 230.139 Q2802.11 234.838 2804.03 237.523 Q2805.98 240.185 2809.36 240.185 Q2812.73 240.185 2814.68 237.523 Q2816.62 234.838 2816.62 230.139 Q2816.62 225.44 2814.68 222.778 Q2812.73 220.093 2809.36 220.093 Q2805.98 220.093 2804.03 222.778 Q2802.11 225.44 2802.11 230.139 Z" fill="#000000" fill-rule="nonzero" fill-opacity="1" /><path clip-path="url(#clip970)" d="M2828.98 207.107 L2832.69 207.107 Q2836.16 212.57 2837.87 217.801 Q2839.61 223.033 2839.61 228.195 Q2839.61 233.38 2837.87 238.635 Q2836.16 243.889 2832.69 249.329 L2828.98 249.329 Q2832.06 244.028 2833.57 238.797 Q2835.1 233.542 2835.1 228.195 Q2835.1 222.848 2833.57 217.639 Q2832.06 212.431 2828.98 207.107 Z" fill="#000000" fill-rule="nonzero" fill-opacity="1" /><polyline clip-path="url(#clip970)" style="stroke:#cc79a7; stroke-linecap:round; stroke-linejoin:round; stroke-width:8; stroke-opacity:1; fill:none" points="2331.47,277.639 2501.19,277.639 "/>
<path clip-path="url(#clip970)" d="M2529.47 260.359 L2551.32 260.359 L2551.32 264.294 L2534.15 264.294 L2534.15 274.526 L2550.61 274.526 L2550.61 278.461 L2534.15 278.461 L2534.15 290.984 L2551.74 290.984 L2551.74 294.919 L2529.47 294.919 L2529.47 260.359 Z" fill="#000000" fill-rule="nonzero" fill-opacity="1" /><path clip-path="url(#clip970)" d="M2584.54 258.947 Q2581.44 264.271 2579.94 269.479 Q2578.43 274.688 2578.43 280.035 Q2578.43 285.382 2579.94 290.637 Q2581.46 295.868 2584.54 301.169 L2580.84 301.169 Q2577.37 295.729 2575.63 290.475 Q2573.92 285.22 2573.92 280.035 Q2573.92 274.873 2575.63 269.641 Q2577.34 264.41 2580.84 258.947 L2584.54 258.947 Z" fill="#000000" fill-rule="nonzero" fill-opacity="1" /><path clip-path="url(#clip970)" d="M2605.93 258.901 L2605.93 262.442 L2601.86 262.442 Q2599.56 262.442 2598.66 263.368 Q2597.78 264.294 2597.78 266.702 L2597.78 268.993 L2604.8 268.993 L2604.8 272.303 L2597.78 272.303 L2597.78 294.919 L2593.5 294.919 L2593.5 272.303 L2589.43 272.303 L2589.43 268.993 L2593.5 268.993 L2593.5 267.188 Q2593.5 262.859 2595.51 260.891 Q2597.53 258.901 2601.9 258.901 L2605.93 258.901 Z" fill="#000000" fill-rule="nonzero" fill-opacity="1" /><path clip-path="url(#clip970)" d="M2609.5 268.993 L2613.75 268.993 L2613.75 294.919 L2609.5 294.919 L2609.5 268.993 M2609.5 258.901 L2613.75 258.901 L2613.75 264.294 L2609.5 264.294 L2609.5 258.901 Z" fill="#000000" fill-rule="nonzero" fill-opacity="1" /><path clip-path="url(#clip970)" d="M2626.88 261.632 L2626.88 268.993 L2635.65 268.993 L2635.65 272.303 L2626.88 272.303 L2626.88 286.377 Q2626.88 289.549 2627.74 290.451 Q2628.62 291.354 2631.28 291.354 L2635.65 291.354 L2635.65 294.919 L2631.28 294.919 Q2626.35 294.919 2624.47 293.09 Q2622.6 291.238 2622.6 286.377 L2622.6 272.303 L2619.47 272.303 L2619.47 268.993 L2622.6 268.993 L2622.6 261.632 L2626.88 261.632 Z" fill="#000000" fill-rule="nonzero" fill-opacity="1" /><path clip-path="url(#clip970)" d="M2645.47 261.632 L2645.47 268.993 L2654.24 268.993 L2654.24 272.303 L2645.47 272.303 L2645.47 286.377 Q2645.47 289.549 2646.32 290.451 Q2647.2 291.354 2649.87 291.354 L2654.24 291.354 L2654.24 294.919 L2649.87 294.919 Q2644.93 294.919 2643.06 293.09 Q2641.18 291.238 2641.18 286.377 L2641.18 272.303 L2638.06 272.303 L2638.06 268.993 L2641.18 268.993 L2641.18 261.632 L2645.47 261.632 Z" fill="#000000" fill-rule="nonzero" fill-opacity="1" /><path clip-path="url(#clip970)" d="M2682.02 280.891 L2682.02 282.975 L2662.43 282.975 Q2662.71 287.373 2665.07 289.688 Q2667.46 291.979 2671.69 291.979 Q2674.15 291.979 2676.44 291.377 Q2678.75 290.775 2681.02 289.572 L2681.02 293.6 Q2678.73 294.572 2676.32 295.081 Q2673.92 295.59 2671.44 295.59 Q2665.24 295.59 2661.6 291.979 Q2657.99 288.368 2657.99 282.211 Q2657.99 275.845 2661.42 272.118 Q2664.87 268.368 2670.7 268.368 Q2675.93 268.368 2678.96 271.748 Q2682.02 275.104 2682.02 280.891 M2677.76 279.641 Q2677.71 276.146 2675.79 274.063 Q2673.89 271.979 2670.74 271.979 Q2667.18 271.979 2665.03 273.993 Q2662.9 276.007 2662.57 279.664 L2677.76 279.641 Z" fill="#000000" fill-rule="nonzero" fill-opacity="1" /><path clip-path="url(#clip970)" d="M2706.07 272.928 L2706.07 258.901 L2710.33 258.901 L2710.33 294.919 L2706.07 294.919 L2706.07 291.03 Q2704.73 293.345 2702.67 294.479 Q2700.63 295.59 2697.76 295.59 Q2693.06 295.59 2690.1 291.84 Q2687.16 288.09 2687.16 281.979 Q2687.16 275.868 2690.1 272.118 Q2693.06 268.368 2697.76 268.368 Q2700.63 268.368 2702.67 269.502 Q2704.73 270.614 2706.07 272.928 M2691.56 281.979 Q2691.56 286.678 2693.48 289.363 Q2695.42 292.025 2698.8 292.025 Q2702.18 292.025 2704.12 289.363 Q2706.07 286.678 2706.07 281.979 Q2706.07 277.28 2704.12 274.618 Q2702.18 271.933 2698.8 271.933 Q2695.42 271.933 2693.48 274.618 Q2691.56 277.28 2691.56 281.979 Z" fill="#000000" fill-rule="nonzero" fill-opacity="1" /><path clip-path="url(#clip970)" d="M2718.43 258.947 L2722.13 258.947 Q2725.61 264.41 2727.32 269.641 Q2729.05 274.873 2729.05 280.035 Q2729.05 285.22 2727.32 290.475 Q2725.61 295.729 2722.13 301.169 L2718.43 301.169 Q2721.51 295.868 2723.01 290.637 Q2724.54 285.382 2724.54 280.035 Q2724.54 274.688 2723.01 269.479 Q2721.51 264.271 2718.43 258.947 Z" fill="#000000" fill-rule="nonzero" fill-opacity="1" /></svg>
