<?xml version="1.0" encoding="UTF-8" standalone="no"?>
<!-- Created with Inkscape (http://www.inkscape.org/) -->

<svg
   width="189mm"
   height="45mm"
   viewBox="0 0 189 45"
   version="1.1"
   id="svg1"
   xml:space="preserve"
   inkscape:version="1.4.3 (1:1.4.3+202512261035+0d15f75042)"
   sodipodi:docname="logo1.svg"
   inkscape:export-filename="logo1.png"
   inkscape:export-xdpi="300"
   inkscape:export-ydpi="300"
   xmlns:inkscape="http://www.inkscape.org/namespaces/inkscape"
   xmlns:sodipodi="http://sodipodi.sourceforge.net/DTD/sodipodi-0.dtd"
   xmlns="http://www.w3.org/2000/svg"
   xmlns:svg="http://www.w3.org/2000/svg"><sodipodi:namedview
     id="namedview1"
     pagecolor="#ffffff"
     bordercolor="#000000"
     borderopacity="0.25"
     inkscape:showpageshadow="2"
     inkscape:pageopacity="0.0"
     inkscape:pagecheckerboard="0"
     inkscape:deskcolor="#d1d1d1"
     inkscape:document-units="mm"
     inkscape:zoom="1.28"
     inkscape:cx="343.35937"
     inkscape:cy="-11.328125"
     inkscape:window-width="1854"
     inkscape:window-height="1011"
     inkscape:window-x="0"
     inkscape:window-y="0"
     inkscape:window-maximized="1"
     inkscape:current-layer="layer1" /><defs
     id="defs1"><rect
       x="24.58301"
       y="13.810679"
       width="190.86359"
       height="44.194176"
       id="rect6" /><rect
       x="183.59106"
       y="621.75262"
       width="259.34796"
       height="121.48405"
       id="rect3" /><rect
       x="256.69379"
       y="114.86273"
       width="192.2323"
       height="99.574532"
       id="rect51" /><rect
       x="256.69379"
       y="114.86273"
       width="192.2323"
       height="99.574532"
       id="rect52" /><rect
       x="256.69379"
       y="114.86273"
       width="192.2323"
       height="99.574532"
       id="rect79" /><rect
       x="256.69379"
       y="114.86273"
       width="192.2323"
       height="99.574532"
       id="rect80" /><rect
       x="256.69379"
       y="114.86273"
       width="192.2323"
       height="99.574532"
       id="rect761" /><rect
       x="256.69379"
       y="114.86273"
       width="192.2323"
       height="99.574532"
       id="rect762" /><rect
       x="256.69379"
       y="114.86273"
       width="192.2323"
       height="99.574532"
       id="rect100" /><rect
       x="256.69379"
       y="114.86273"
       width="192.2323"
       height="99.574532"
       id="rect101" /><rect
       x="256.69379"
       y="114.86273"
       width="192.2323"
       height="99.574532"
       id="rect558" /><rect
       x="256.69379"
       y="114.86273"
       width="192.2323"
       height="99.574532"
       id="rect559" /><rect
       x="256.69379"
       y="114.86273"
       width="192.2323"
       height="99.574532"
       id="rect560" /><rect
       x="256.69379"
       y="114.86273"
       width="192.2323"
       height="99.574532"
       id="rect561" /><rect
       x="256.69379"
       y="114.86273"
       width="192.2323"
       height="99.574532"
       id="rect562" /><rect
       x="256.69379"
       y="114.86273"
       width="192.2323"
       height="99.574532"
       id="rect563" /><rect
       x="256.69379"
       y="114.86273"
       width="192.2323"
       height="99.574532"
       id="rect564" /><rect
       x="256.69379"
       y="114.86273"
       width="192.2323"
       height="99.574532"
       id="rect565" /><clipPath
       clipPathUnits="userSpaceOnUse"
       id="clipPath4"><path
         d="M 0,0 H 960 V 672 H 0 Z"
         transform="translate(-144.25976,-127.78299)"
         id="path4-2" /></clipPath><clipPath
       clipPathUnits="userSpaceOnUse"
       id="clipPath6"><path
         d="M 0,0 H 960 V 672 H 0 Z"
         transform="translate(-144.25976,-127.78299)"
         id="path6-1" /></clipPath><clipPath
       clipPathUnits="userSpaceOnUse"
       id="clipPath8"><path
         d="M 0,0 H 960 V 672 H 0 Z"
         transform="translate(-144.25976,-127.78299)"
         id="path8-0" /></clipPath><clipPath
       clipPathUnits="userSpaceOnUse"
       id="clipPath10"><path
         d="M 0,0 H 960 V 672 H 0 Z"
         transform="translate(-144.25976,-127.78299)"
         id="path10-5" /></clipPath><clipPath
       clipPathUnits="userSpaceOnUse"
       id="clipPath12"><path
         d="M 0,0 H 960 V 672 H 0 Z"
         transform="translate(-144.25976,-127.78299)"
         id="path12-1" /></clipPath><clipPath
       clipPathUnits="userSpaceOnUse"
       id="clipPath14"><path
         d="M 0,0 H 960 V 672 H 0 Z"
         transform="translate(-144.25976,-127.78299)"
         id="path14-1" /></clipPath><clipPath
       clipPathUnits="userSpaceOnUse"
       id="clipPath16"><path
         d="M 0,0 H 960 V 672 H 0 Z"
         transform="translate(-144.25976,-127.78299)"
         id="path16-0" /></clipPath><clipPath
       clipPathUnits="userSpaceOnUse"
       id="clipPath18"><path
         d="M 0,0 H 960 V 672 H 0 Z"
         transform="translate(-144.25976,-127.78299)"
         id="path18-8" /></clipPath><clipPath
       clipPathUnits="userSpaceOnUse"
       id="clipPath20"><path
         d="M 0,0 H 960 V 672 H 0 Z"
         transform="translate(-144.25976,-127.78299)"
         id="path20-5" /></clipPath><clipPath
       clipPathUnits="userSpaceOnUse"
       id="clipPath22"><path
         d="M 0,0 H 960 V 672 H 0 Z"
         transform="translate(-144.25976,-127.78299)"
         id="path22-0" /></clipPath><clipPath
       clipPathUnits="userSpaceOnUse"
       id="clipPath24"><path
         d="M 0,0 H 960 V 672 H 0 Z"
         transform="translate(-144.25976,-127.78299)"
         id="path24-6" /></clipPath><clipPath
       clipPathUnits="userSpaceOnUse"
       id="clipPath26"><path
         d="M 0,0 H 960 V 672 H 0 Z"
         transform="translate(-144.25976,-127.78299)"
         id="path26-4" /></clipPath><clipPath
       clipPathUnits="userSpaceOnUse"
       id="clipPath28"><path
         d="M 0,0 H 960 V 672 H 0 Z"
         transform="translate(-78.924825,-139.9514)"
         id="path28-6" /></clipPath><clipPath
       clipPathUnits="userSpaceOnUse"
       id="clipPath30"><path
         d="M 0,0 H 960 V 672 H 0 Z"
         transform="translate(-78.924825,-170.377)"
         id="path30-2" /></clipPath><clipPath
       clipPathUnits="userSpaceOnUse"
       id="clipPath32"><path
         d="M 0,0 H 960 V 672 H 0 Z"
         transform="translate(-78.924825,-200.8026)"
         id="path32-5" /></clipPath><clipPath
       clipPathUnits="userSpaceOnUse"
       id="clipPath34"><path
         d="M 0,0 H 960 V 672 H 0 Z"
         transform="translate(-189.58718,-155.1642)"
         id="path34-8" /></clipPath><clipPath
       clipPathUnits="userSpaceOnUse"
       id="clipPath36"><path
         d="M 0,0 H 960 V 672 H 0 Z"
         transform="translate(-189.58718,-185.5898)"
         id="path36-6" /></clipPath><clipPath
       clipPathUnits="userSpaceOnUse"
       id="clipPath38"><path
         d="M 0,0 H 960 V 672 H 0 Z"
         transform="translate(-140.65349,-170.377)"
         id="path38-2" /></clipPath><clipPath
       clipPathUnits="userSpaceOnUse"
       id="clipPath40"><path
         d="M 0,0 H 960 V 672 H 0 Z"
         transform="translate(-140.65349,-139.9514)"
         id="path40-8" /></clipPath><clipPath
       clipPathUnits="userSpaceOnUse"
       id="clipPath42"><path
         d="M 0,0 H 960 V 672 H 0 Z"
         transform="translate(-140.65349,-109.52579)"
         id="path42-4" /></clipPath><clipPath
       clipPathUnits="userSpaceOnUse"
       id="clipPath44"><path
         d="M 0,0 H 960 V 672 H 0 Z"
         transform="translate(-140.65349,-200.8026)"
         id="path44-7" /></clipPath><clipPath
       clipPathUnits="userSpaceOnUse"
       id="clipPath46"><path
         d="M 0,0 H 960 V 672 H 0 Z"
         transform="translate(-140.65349,-231.22821)"
         id="path46-2" /></clipPath><clipPath
       clipPathUnits="userSpaceOnUse"
       id="clipPath48"><path
         d="M 0,0 H 960 V 672 H 0 Z"
         transform="translate(-144.25976,-127.78299)"
         id="path48-4" /></clipPath><clipPath
       clipPathUnits="userSpaceOnUse"
       id="clipPath50"><path
         d="M 0,0 H 960 V 672 H 0 Z"
         transform="translate(-144.25976,-127.78299)"
         id="path50-0" /></clipPath><clipPath
       clipPathUnits="userSpaceOnUse"
       id="clipPath52"><path
         d="M 0,0 H 960 V 672 H 0 Z"
         transform="translate(-144.25976,-127.78299)"
         id="path52-6" /></clipPath><clipPath
       clipPathUnits="userSpaceOnUse"
       id="clipPath54"><path
         d="M 0,0 H 960 V 672 H 0 Z"
         transform="translate(-144.25976,-127.78299)"
         id="path54-2" /></clipPath><clipPath
       clipPathUnits="userSpaceOnUse"
       id="clipPath56"><path
         d="M 0,0 H 960 V 672 H 0 Z"
         transform="translate(-144.25976,-127.78299)"
         id="path56-9" /></clipPath><clipPath
       clipPathUnits="userSpaceOnUse"
       id="clipPath58"><path
         d="M 0,0 H 960 V 672 H 0 Z"
         transform="translate(-144.25976,-127.78299)"
         id="path58-9" /></clipPath><clipPath
       clipPathUnits="userSpaceOnUse"
       id="clipPath60"><path
         d="M 0,0 H 960 V 672 H 0 Z"
         transform="translate(-144.25976,-127.78299)"
         id="path60-0" /></clipPath><clipPath
       clipPathUnits="userSpaceOnUse"
       id="clipPath62"><path
         d="M 0,0 H 960 V 672 H 0 Z"
         transform="translate(-144.25976,-127.78299)"
         id="path62-8" /></clipPath><clipPath
       clipPathUnits="userSpaceOnUse"
       id="clipPath64"><path
         d="M 0,0 H 960 V 672 H 0 Z"
         transform="translate(-144.25976,-127.78299)"
         id="path64-1" /></clipPath><clipPath
       clipPathUnits="userSpaceOnUse"
       id="clipPath66"><path
         d="M 0,0 H 960 V 672 H 0 Z"
         transform="translate(-144.25976,-127.78299)"
         id="path66-3" /></clipPath><rect
       x="256.69379"
       y="114.86273"
       width="192.2323"
       height="99.574532"
       id="rect566" /><clipPath
       id="cpNzguNjF8NDkyLjA0fDI5My4yOXwxMS45Ng==-7"><rect
         id="rect4912"
         height="281.34"
         width="413.42999"
         y="11.96"
         x="78.610001" /></clipPath><clipPath
       id="clipPath1"><rect
         id="rect1"
         height="281.34"
         width="413.42999"
         y="11.96"
         x="78.610001" /></clipPath><clipPath
       id="cpMC4wMHw1MDQuMDB8MzYwLjAwfDAuMDA=-5"><rect
         id="rect5001"
         height="360"
         width="504"
         y="0"
         x="0" /></clipPath><clipPath
       id="clipPath2"><rect
         id="rect2"
         height="360"
         width="504"
         y="0"
         x="0" /></clipPath><clipPath
       id="clipPath3"><rect
         id="rect3-6"
         height="360"
         width="504"
         y="0"
         x="0" /></clipPath><clipPath
       id="clipPath5"><rect
         id="rect4"
         height="360"
         width="504"
         y="0"
         x="0" /></clipPath><clipPath
       id="clipPath7"><rect
         id="rect5"
         height="360"
         width="504"
         y="0"
         x="0" /></clipPath><clipPath
       id="clipPath9"><rect
         id="rect7"
         height="360"
         width="504"
         y="0"
         x="0" /></clipPath><clipPath
       id="clipPath11"><rect
         id="rect9"
         height="360"
         width="504"
         y="0"
         x="0" /></clipPath><clipPath
       id="clipPath13"><rect
         id="rect11"
         height="281.34"
         width="413.42999"
         y="11.96"
         x="78.610001" /></clipPath><clipPath
       id="clipPath15"><rect
         id="rect13"
         height="281.34"
         width="413.42999"
         y="11.96"
         x="78.610001" /></clipPath><clipPath
       id="clipPath17"><rect
         id="rect15"
         height="360"
         width="504"
         y="0"
         x="0" /></clipPath><clipPath
       id="clipPath19"><rect
         id="rect17"
         height="360"
         width="504"
         y="0"
         x="0" /></clipPath><clipPath
       id="clipPath21"><rect
         id="rect19"
         height="360"
         width="504"
         y="0"
         x="0" /></clipPath><clipPath
       id="clipPath23"><rect
         id="rect21"
         height="360"
         width="504"
         y="0"
         x="0" /></clipPath><clipPath
       id="clipPath25"><rect
         id="rect23"
         height="360"
         width="504"
         y="0"
         x="0" /></clipPath><clipPath
       id="clipPath27"><rect
         id="rect25"
         height="360"
         width="504"
         y="0"
         x="0" /></clipPath><clipPath
       id="clipPath29"><rect
         id="rect27"
         height="360"
         width="504"
         y="0"
         x="0" /></clipPath><clipPath
       id="clipPath31"><rect
         id="rect29"
         height="360"
         width="504"
         y="0"
         x="0" /></clipPath><rect
       x="256.69379"
       y="114.86273"
       width="192.2323"
       height="99.574532"
       id="rect709" /><rect
       x="256.69379"
       y="114.86273"
       width="192.2323"
       height="99.574532"
       id="rect710" /><rect
       x="256.69379"
       y="114.86273"
       width="192.2323"
       height="99.574532"
       id="rect123" /><rect
       x="256.69379"
       y="114.86273"
       width="192.2323"
       height="99.574532"
       id="rect124" /><rect
       x="256.69379"
       y="114.86273"
       width="192.2323"
       height="99.574532"
       id="rect161" /><rect
       x="256.69379"
       y="114.86273"
       width="192.2323"
       height="99.574532"
       id="rect162" /><rect
       x="183.59106"
       y="621.75262"
       width="259.34796"
       height="121.48405"
       id="rect185" /><rect
       x="183.59106"
       y="621.75262"
       width="259.34796"
       height="121.48405"
       id="rect203" /><rect
       x="24.58301"
       y="13.810679"
       width="190.86359"
       height="44.194176"
       id="rect38" /></defs><g
     inkscape:label="Layer 1"
     inkscape:groupmode="layer"
     id="layer1"><text
       xml:space="preserve"
       transform="matrix(0.26458333,0,0,0.26458333,-59.436273,-160.22924)"
       id="text3"
       style="font-size:32px;line-height:1.05;font-family:sans-serif;-inkscape-font-specification:Arial;text-align:center;text-decoration-color:#000000;letter-spacing:0px;word-spacing:0px;writing-mode:lr-tb;direction:ltr;white-space:pre;shape-inside:url(#rect3);display:inline;fill:#333333;fill-opacity:1;stroke:none;stroke-width:1.06862;stroke-opacity:0.976471" /><path
       style="fill:none;stroke:#9356af;stroke-width:1.352;stroke-dasharray:none;stroke-opacity:1"
       d="M 3.9408448,34.25995 C 6.7464937,28.84254 10.449868,14.541788 19.041329,12.44992 29.697498,9.8553327 33.475285,37.97447 48.110206,27.86331"
       id="path20"
       sodipodi:nodetypes="cac" /><path
       style="fill:none;stroke:#389623;stroke-width:0.796;stroke-dasharray:none;stroke-opacity:1"
       d="M 11.015928,15.379659 V 25.70324"
       id="path21" /><path
       style="fill:none;stroke:#389623;stroke-width:0.633685;stroke-dasharray:none;stroke-opacity:1"
       d="M 13.172779,15.565133 H 8.8590647"
       id="path22" /><path
       style="fill:none;stroke:#389623;stroke-width:0.633685;stroke-dasharray:none;stroke-opacity:1"
       d="M 13.172779,25.51776 H 8.8590647"
       id="path23" /><circle
       style="fill:none;stroke:#389623;stroke-width:0.633685;stroke-dasharray:none;stroke-opacity:1"
       id="circle23"
       cx="11.015933"
       cy="20.541441"
       r="1.3663545" /><path
       style="fill:none;stroke:#389623;stroke-width:0.796;stroke-dasharray:none;stroke-opacity:1"
       d="M 19.041329,5.9217825 V 16.24536"
       id="path24" /><path
       style="fill:none;stroke:#389623;stroke-width:0.633685;stroke-dasharray:none;stroke-opacity:1"
       d="M 21.198192,6.1072565 H 16.884479"
       id="path25" /><path
       style="fill:none;stroke:#389623;stroke-width:0.633685;stroke-dasharray:none;stroke-opacity:1"
       d="M 21.198192,16.05989 H 16.884479"
       id="path26" /><circle
       style="fill:none;stroke:#389623;stroke-width:0.633685;stroke-dasharray:none;stroke-opacity:1"
       id="circle26"
       cx="19.04133"
       cy="11.083564"
       r="1.3663545" /><g
       id="g1"
       transform="translate(-5.7522953,-80.92225)"><path
         style="fill:none;stroke:#389623;stroke-width:0.796;stroke-dasharray:none;stroke-opacity:1"
         d="M 32.819038,95.531944 V 105.85552"
         id="path27" /><path
         style="fill:none;stroke:#389623;stroke-width:0.633685;stroke-dasharray:none;stroke-opacity:1"
         d="M 34.975888,95.717418 H 30.662175"
         id="path28" /><path
         style="fill:none;stroke:#389623;stroke-width:0.633685;stroke-dasharray:none;stroke-opacity:1"
         d="M 34.975888,105.67005 H 30.662175"
         id="path29" /><circle
         style="fill:none;stroke:#389623;stroke-width:0.633685;stroke-dasharray:none;stroke-opacity:1"
         id="circle29"
         cx="32.819042"
         cy="100.69373"
         r="1.3663545" /></g><path
       style="fill:none;stroke:#389623;stroke-width:0.796;stroke-dasharray:none;stroke-opacity:1"
       d="M 35.092144,23.48919 V 33.81277"
       id="path30" /><path
       style="fill:none;stroke:#389623;stroke-width:0.633685;stroke-dasharray:none;stroke-opacity:1"
       d="M 37.249007,23.67467 H 32.935293"
       id="path31" /><path
       style="fill:none;stroke:#389623;stroke-width:0.633685;stroke-dasharray:none;stroke-opacity:1"
       d="M 37.249007,33.62729 H 32.935293"
       id="path32" /><circle
       style="fill:none;stroke:#389623;stroke-width:0.633685;stroke-dasharray:none;stroke-opacity:1"
       id="circle32"
       cx="35.092144"
       cy="28.650976"
       r="1.3663545" /><path
       style="fill:none;stroke:#389623;stroke-width:0.796;stroke-dasharray:none;stroke-opacity:1"
       d="M 43.117558,22.52819 V 32.85177"
       id="path33" /><path
       style="fill:none;stroke:#389623;stroke-width:0.633685;stroke-dasharray:none;stroke-opacity:1"
       d="M 45.274408,22.71367 H 40.960707"
       id="path34" /><path
       style="fill:none;stroke:#389623;stroke-width:0.633685;stroke-dasharray:none;stroke-opacity:1"
       d="M 45.274408,32.66629 H 40.960707"
       id="path35" /><circle
       style="fill:none;stroke:#389623;stroke-width:0.633685;stroke-dasharray:none;stroke-opacity:1"
       id="circle35"
       cx="43.11755"
       cy="27.689978"
       r="1.3663545" /><path
       style="fill:#4d4d4d;fill-opacity:1;stroke:#4d4d4d;stroke-width:1.15848;stroke-dasharray:none;stroke-opacity:0.976471"
       d="M 3.9381022,2.8505655 V 41.76555"
       id="path36"
       sodipodi:nodetypes="cc" /><path
       style="fill:#4d4d4d;fill-opacity:1;stroke:#4d4d4d;stroke-width:1.15848;stroke-dasharray:none;stroke-opacity:0.976471"
       d="M 48.289045,41.18631 H 4.5173427"
       id="path37"
       sodipodi:nodetypes="cc" /><g
       id="g38"
       transform="matrix(2.4834802,0,0,2.4834802,-59.110329,-178.15543)"><text
         xml:space="preserve"
         transform="matrix(0.49374973,0,0,0.49374973,13.239292,64.224829)"
         id="text8"
         style="font-size:34.6667px;line-height:1.05;font-family:Cabin;-inkscape-font-specification:Cabin;text-align:center;text-decoration-color:#000000;letter-spacing:0px;word-spacing:0px;writing-mode:lr-tb;direction:ltr;white-space:pre;shape-inside:url(#rect38);display:inline;fill:#4d4d4d;stroke:#4d4d4d;stroke-width:3.33732;stroke-opacity:0.976471"><tspan
           x="65.814228"
           y="42.210846"
           id="tspan2"><tspan
             style="stroke:none"
             id="tspan1">PEtab.jl</tspan></tspan></text><rect
         style="fill:#c93a33;fill-opacity:1;stroke:none;stroke-width:1.56097;stroke-opacity:0.976471"
         id="rect37"
         width="1.5550224"
         height="1.7388525"
         x="92.620667"
         y="73.075798" /></g></g></svg>
