<?xml version="1.0" encoding="utf-8"?>
<svg xmlns="http://www.w3.org/2000/svg" xmlns:xlink="http://www.w3.org/1999/xlink" width="750" height="500" viewBox="0 0 3000 2000">
<defs>
  <clipPath id="clip480">
    <rect x="0" y="0" width="3000" height="2000"/>
  </clipPath>
</defs>
<path clip-path="url(#clip480)" d="M0 2000 L3000 2000 L3000 0 L0 0  Z" fill="#ffffff" fill-rule="evenodd" fill-opacity="1"/>
<defs>
  <clipPath id="clip481">
    <rect x="600" y="0" width="2101" height="2000"/>
  </clipPath>
</defs>
<path clip-path="url(#clip480)" d="M733.618 1638.08 L2952.76 1638.08 L2952.76 47.2441 L733.618 47.2441  Z" fill="#ffffff" fill-rule="evenodd" fill-opacity="1"/>
<defs>
  <clipPath id="clip482">
    <rect x="733" y="47" width="2220" height="1592"/>
  </clipPath>
</defs>
<polyline clip-path="url(#clip482)" style="stroke:#000000; stroke-linecap:round; stroke-linejoin:round; stroke-width:2; stroke-opacity:0.1; fill:none" points="753.698,1638.08 753.698,47.2442 "/>
<polyline clip-path="url(#clip482)" style="stroke:#000000; stroke-linecap:round; stroke-linejoin:round; stroke-width:2; stroke-opacity:0.1; fill:none" points="1180.95,1638.08 1180.95,47.2442 "/>
<polyline clip-path="url(#clip482)" style="stroke:#000000; stroke-linecap:round; stroke-linejoin:round; stroke-width:2; stroke-opacity:0.1; fill:none" points="1608.2,1638.08 1608.2,47.2442 "/>
<polyline clip-path="url(#clip482)" style="stroke:#000000; stroke-linecap:round; stroke-linejoin:round; stroke-width:2; stroke-opacity:0.1; fill:none" points="2035.45,1638.08 2035.45,47.2442 "/>
<polyline clip-path="url(#clip482)" style="stroke:#000000; stroke-linecap:round; stroke-linejoin:round; stroke-width:2; stroke-opacity:0.1; fill:none" points="2462.7,1638.08 2462.7,47.2442 "/>
<polyline clip-path="url(#clip482)" style="stroke:#000000; stroke-linecap:round; stroke-linejoin:round; stroke-width:2; stroke-opacity:0.1; fill:none" points="2889.95,1638.08 2889.95,47.2442 "/>
<polyline clip-path="url(#clip482)" style="stroke:#000000; stroke-linecap:round; stroke-linejoin:round; stroke-width:2; stroke-opacity:0.1; fill:none" points="733.618,1543.62 2952.76,1543.62 "/>
<polyline clip-path="url(#clip482)" style="stroke:#000000; stroke-linecap:round; stroke-linejoin:round; stroke-width:2; stroke-opacity:0.1; fill:none" points="733.618,1283.63 2952.76,1283.63 "/>
<polyline clip-path="url(#clip482)" style="stroke:#000000; stroke-linecap:round; stroke-linejoin:round; stroke-width:2; stroke-opacity:0.1; fill:none" points="733.618,1023.63 2952.76,1023.63 "/>
<polyline clip-path="url(#clip482)" style="stroke:#000000; stroke-linecap:round; stroke-linejoin:round; stroke-width:2; stroke-opacity:0.1; fill:none" points="733.618,763.634 2952.76,763.634 "/>
<polyline clip-path="url(#clip482)" style="stroke:#000000; stroke-linecap:round; stroke-linejoin:round; stroke-width:2; stroke-opacity:0.1; fill:none" points="733.618,503.637 2952.76,503.637 "/>
<polyline clip-path="url(#clip482)" style="stroke:#000000; stroke-linecap:round; stroke-linejoin:round; stroke-width:2; stroke-opacity:0.1; fill:none" points="733.618,243.641 2952.76,243.641 "/>
<polyline clip-path="url(#clip480)" style="stroke:#000000; stroke-linecap:round; stroke-linejoin:round; stroke-width:4; stroke-opacity:1; fill:none" points="733.618,1638.08 2952.76,1638.08 "/>
<polyline clip-path="url(#clip480)" style="stroke:#000000; stroke-linecap:round; stroke-linejoin:round; stroke-width:4; stroke-opacity:1; fill:none" points="753.698,1638.08 753.698,1619.18 "/>
<polyline clip-path="url(#clip480)" style="stroke:#000000; stroke-linecap:round; stroke-linejoin:round; stroke-width:4; stroke-opacity:1; fill:none" points="1180.95,1638.08 1180.95,1619.18 "/>
<polyline clip-path="url(#clip480)" style="stroke:#000000; stroke-linecap:round; stroke-linejoin:round; stroke-width:4; stroke-opacity:1; fill:none" points="1608.2,1638.08 1608.2,1619.18 "/>
<polyline clip-path="url(#clip480)" style="stroke:#000000; stroke-linecap:round; stroke-linejoin:round; stroke-width:4; stroke-opacity:1; fill:none" points="2035.45,1638.08 2035.45,1619.18 "/>
<polyline clip-path="url(#clip480)" style="stroke:#000000; stroke-linecap:round; stroke-linejoin:round; stroke-width:4; stroke-opacity:1; fill:none" points="2462.7,1638.08 2462.7,1619.18 "/>
<polyline clip-path="url(#clip480)" style="stroke:#000000; stroke-linecap:round; stroke-linejoin:round; stroke-width:4; stroke-opacity:1; fill:none" points="2889.95,1638.08 2889.95,1619.18 "/>
<path clip-path="url(#clip480)" d="M753.698 1673.8 Q750.087 1673.8 748.259 1677.36 Q746.453 1680.9 746.453 1688.03 Q746.453 1695.14 748.259 1698.7 Q750.087 1702.24 753.698 1702.24 Q757.333 1702.24 759.138 1698.7 Q760.967 1695.14 760.967 1688.03 Q760.967 1680.9 759.138 1677.36 Q757.333 1673.8 753.698 1673.8 M753.698 1670.09 Q759.509 1670.09 762.564 1674.7 Q765.643 1679.28 765.643 1688.03 Q765.643 1696.76 762.564 1701.37 Q759.509 1705.95 753.698 1705.95 Q747.888 1705.95 744.81 1701.37 Q741.754 1696.76 741.754 1688.03 Q741.754 1679.28 744.81 1674.7 Q747.888 1670.09 753.698 1670.09 Z" fill="#000000" fill-rule="nonzero" fill-opacity="1" /><path clip-path="url(#clip480)" d="M1155.64 1701.34 L1163.28 1701.34 L1163.28 1674.98 L1154.97 1676.64 L1154.97 1672.38 L1163.23 1670.72 L1167.9 1670.72 L1167.9 1701.34 L1175.54 1701.34 L1175.54 1705.28 L1155.64 1705.28 L1155.64 1701.34 Z" fill="#000000" fill-rule="nonzero" fill-opacity="1" /><path clip-path="url(#clip480)" d="M1194.99 1673.8 Q1191.38 1673.8 1189.55 1677.36 Q1187.74 1680.9 1187.74 1688.03 Q1187.74 1695.14 1189.55 1698.7 Q1191.38 1702.24 1194.99 1702.24 Q1198.62 1702.24 1200.43 1698.7 Q1202.26 1695.14 1202.26 1688.03 Q1202.26 1680.9 1200.43 1677.36 Q1198.62 1673.8 1194.99 1673.8 M1194.99 1670.09 Q1200.8 1670.09 1203.85 1674.7 Q1206.93 1679.28 1206.93 1688.03 Q1206.93 1696.76 1203.85 1701.37 Q1200.8 1705.95 1194.99 1705.95 Q1189.18 1705.95 1186.1 1701.37 Q1183.04 1696.76 1183.04 1688.03 Q1183.04 1679.28 1186.1 1674.7 Q1189.18 1670.09 1194.99 1670.09 Z" fill="#000000" fill-rule="nonzero" fill-opacity="1" /><path clip-path="url(#clip480)" d="M1586.97 1701.34 L1603.29 1701.34 L1603.29 1705.28 L1581.35 1705.28 L1581.35 1701.34 Q1584.01 1698.59 1588.59 1693.96 Q1593.2 1689.31 1594.38 1687.96 Q1596.63 1685.44 1597.5 1683.7 Q1598.41 1681.94 1598.41 1680.25 Q1598.41 1677.5 1596.46 1675.76 Q1594.54 1674.03 1591.44 1674.03 Q1589.24 1674.03 1586.79 1674.79 Q1584.36 1675.56 1581.58 1677.11 L1581.58 1672.38 Q1584.4 1671.25 1586.86 1670.67 Q1589.31 1670.09 1591.35 1670.09 Q1596.72 1670.09 1599.91 1672.78 Q1603.11 1675.46 1603.11 1679.95 Q1603.11 1682.08 1602.3 1684 Q1601.51 1685.9 1599.4 1688.5 Q1598.82 1689.17 1595.72 1692.38 Q1592.62 1695.58 1586.97 1701.34 Z" fill="#000000" fill-rule="nonzero" fill-opacity="1" /><path clip-path="url(#clip480)" d="M1623.11 1673.8 Q1619.5 1673.8 1617.67 1677.36 Q1615.86 1680.9 1615.86 1688.03 Q1615.86 1695.14 1617.67 1698.7 Q1619.5 1702.24 1623.11 1702.24 Q1626.74 1702.24 1628.55 1698.7 Q1630.37 1695.14 1630.37 1688.03 Q1630.37 1680.9 1628.55 1677.36 Q1626.74 1673.8 1623.11 1673.8 M1623.11 1670.09 Q1628.92 1670.09 1631.97 1674.7 Q1635.05 1679.28 1635.05 1688.03 Q1635.05 1696.76 1631.97 1701.37 Q1628.92 1705.95 1623.11 1705.95 Q1617.3 1705.95 1614.22 1701.37 Q1611.16 1696.76 1611.16 1688.03 Q1611.16 1679.28 1614.22 1674.7 Q1617.3 1670.09 1623.11 1670.09 Z" fill="#000000" fill-rule="nonzero" fill-opacity="1" /><path clip-path="url(#clip480)" d="M2024.29 1686.64 Q2027.65 1687.36 2029.52 1689.63 Q2031.42 1691.9 2031.42 1695.23 Q2031.42 1700.35 2027.9 1703.15 Q2024.38 1705.95 2017.9 1705.95 Q2015.73 1705.95 2013.41 1705.51 Q2011.12 1705.09 2008.67 1704.24 L2008.67 1699.72 Q2010.61 1700.86 2012.93 1701.43 Q2015.24 1702.01 2017.76 1702.01 Q2022.16 1702.01 2024.45 1700.28 Q2026.77 1698.54 2026.77 1695.23 Q2026.77 1692.18 2024.62 1690.46 Q2022.49 1688.73 2018.67 1688.73 L2014.64 1688.73 L2014.64 1684.88 L2018.85 1684.88 Q2022.3 1684.88 2024.13 1683.52 Q2025.96 1682.13 2025.96 1679.54 Q2025.96 1676.87 2024.06 1675.46 Q2022.19 1674.03 2018.67 1674.03 Q2016.75 1674.03 2014.55 1674.44 Q2012.35 1674.86 2009.71 1675.74 L2009.71 1671.57 Q2012.37 1670.83 2014.69 1670.46 Q2017.02 1670.09 2019.08 1670.09 Q2024.41 1670.09 2027.51 1672.52 Q2030.61 1674.93 2030.61 1679.05 Q2030.61 1681.92 2028.97 1683.91 Q2027.32 1685.88 2024.29 1686.64 Z" fill="#000000" fill-rule="nonzero" fill-opacity="1" /><path clip-path="url(#clip480)" d="M2050.29 1673.8 Q2046.68 1673.8 2044.85 1677.36 Q2043.04 1680.9 2043.04 1688.03 Q2043.04 1695.14 2044.85 1698.7 Q2046.68 1702.24 2050.29 1702.24 Q2053.92 1702.24 2055.73 1698.7 Q2057.56 1695.14 2057.56 1688.03 Q2057.56 1680.9 2055.73 1677.36 Q2053.92 1673.8 2050.29 1673.8 M2050.29 1670.09 Q2056.1 1670.09 2059.15 1674.7 Q2062.23 1679.28 2062.23 1688.03 Q2062.23 1696.76 2059.15 1701.37 Q2056.1 1705.95 2050.29 1705.95 Q2044.48 1705.95 2041.4 1701.37 Q2038.34 1696.76 2038.34 1688.03 Q2038.34 1679.28 2041.4 1674.7 Q2044.48 1670.09 2050.29 1670.09 Z" fill="#000000" fill-rule="nonzero" fill-opacity="1" /><path clip-path="url(#clip480)" d="M2450.87 1674.79 L2439.07 1693.24 L2450.87 1693.24 L2450.87 1674.79 M2449.64 1670.72 L2455.52 1670.72 L2455.52 1693.24 L2460.45 1693.24 L2460.45 1697.13 L2455.52 1697.13 L2455.52 1705.28 L2450.87 1705.28 L2450.87 1697.13 L2435.27 1697.13 L2435.27 1692.62 L2449.64 1670.72 Z" fill="#000000" fill-rule="nonzero" fill-opacity="1" /><path clip-path="url(#clip480)" d="M2478.19 1673.8 Q2474.57 1673.8 2472.75 1677.36 Q2470.94 1680.9 2470.94 1688.03 Q2470.94 1695.14 2472.75 1698.7 Q2474.57 1702.24 2478.19 1702.24 Q2481.82 1702.24 2483.63 1698.7 Q2485.45 1695.14 2485.45 1688.03 Q2485.45 1680.9 2483.63 1677.36 Q2481.82 1673.8 2478.19 1673.8 M2478.19 1670.09 Q2484 1670.09 2487.05 1674.7 Q2490.13 1679.28 2490.13 1688.03 Q2490.13 1696.76 2487.05 1701.37 Q2484 1705.95 2478.19 1705.95 Q2472.38 1705.95 2469.3 1701.37 Q2466.24 1696.76 2466.24 1688.03 Q2466.24 1679.28 2469.3 1674.7 Q2472.38 1670.09 2478.19 1670.09 Z" fill="#000000" fill-rule="nonzero" fill-opacity="1" /><path clip-path="url(#clip480)" d="M2864.65 1670.72 L2883.01 1670.72 L2883.01 1674.65 L2868.93 1674.65 L2868.93 1683.12 Q2869.95 1682.78 2870.97 1682.62 Q2871.99 1682.43 2873.01 1682.43 Q2878.79 1682.43 2882.17 1685.6 Q2885.55 1688.77 2885.55 1694.19 Q2885.55 1699.77 2882.08 1702.87 Q2878.61 1705.95 2872.29 1705.95 Q2870.11 1705.95 2867.84 1705.58 Q2865.6 1705.21 2863.19 1704.47 L2863.19 1699.77 Q2865.27 1700.9 2867.5 1701.46 Q2869.72 1702.01 2872.2 1702.01 Q2876.2 1702.01 2878.54 1699.91 Q2880.88 1697.8 2880.88 1694.19 Q2880.88 1690.58 2878.54 1688.47 Q2876.2 1686.37 2872.2 1686.37 Q2870.32 1686.37 2868.45 1686.78 Q2866.59 1687.2 2864.65 1688.08 L2864.65 1670.72 Z" fill="#000000" fill-rule="nonzero" fill-opacity="1" /><path clip-path="url(#clip480)" d="M2904.76 1673.8 Q2901.15 1673.8 2899.33 1677.36 Q2897.52 1680.9 2897.52 1688.03 Q2897.52 1695.14 2899.33 1698.7 Q2901.15 1702.24 2904.76 1702.24 Q2908.4 1702.24 2910.2 1698.7 Q2912.03 1695.14 2912.03 1688.03 Q2912.03 1680.9 2910.2 1677.36 Q2908.4 1673.8 2904.76 1673.8 M2904.76 1670.09 Q2910.57 1670.09 2913.63 1674.7 Q2916.71 1679.28 2916.71 1688.03 Q2916.71 1696.76 2913.63 1701.37 Q2910.57 1705.95 2904.76 1705.95 Q2898.95 1705.95 2895.88 1701.37 Q2892.82 1696.76 2892.82 1688.03 Q2892.82 1679.28 2895.88 1674.7 Q2898.95 1670.09 2904.76 1670.09 Z" fill="#000000" fill-rule="nonzero" fill-opacity="1" /><path clip-path="url(#clip480)" d="M1495.14 1748.78 Q1488.14 1748.78 1484 1754 Q1479.9 1759.22 1479.9 1768.23 Q1479.9 1777.2 1484 1782.42 Q1488.14 1787.64 1495.14 1787.64 Q1502.14 1787.64 1506.22 1782.42 Q1510.32 1777.2 1510.32 1768.23 Q1510.32 1759.22 1506.22 1754 Q1502.14 1748.78 1495.14 1748.78 M1495.14 1743.56 Q1505.14 1743.56 1511.12 1750.28 Q1517.1 1756.96 1517.1 1768.23 Q1517.1 1779.46 1511.12 1786.18 Q1505.14 1792.86 1495.14 1792.86 Q1485.12 1792.86 1479.1 1786.18 Q1473.12 1779.5 1473.12 1768.23 Q1473.12 1756.96 1479.1 1750.28 Q1485.12 1743.56 1495.14 1743.56 Z" fill="#000000" fill-rule="nonzero" fill-opacity="1" /><path clip-path="url(#clip480)" d="M1532.57 1786.59 L1532.57 1805.5 L1526.68 1805.5 L1526.68 1756.29 L1532.57 1756.29 L1532.57 1761.7 Q1534.42 1758.52 1537.22 1756.99 Q1540.05 1755.43 1543.97 1755.43 Q1550.46 1755.43 1554.5 1760.59 Q1558.58 1765.75 1558.58 1774.15 Q1558.58 1782.55 1554.5 1787.71 Q1550.46 1792.86 1543.97 1792.86 Q1540.05 1792.86 1537.22 1791.34 Q1534.42 1789.78 1532.57 1786.59 M1552.5 1774.15 Q1552.5 1767.69 1549.82 1764.03 Q1547.18 1760.34 1542.53 1760.34 Q1537.89 1760.34 1535.21 1764.03 Q1532.57 1767.69 1532.57 1774.15 Q1532.57 1780.61 1535.21 1784.3 Q1537.89 1787.96 1542.53 1787.96 Q1547.18 1787.96 1549.82 1784.3 Q1552.5 1780.61 1552.5 1774.15 Z" fill="#000000" fill-rule="nonzero" fill-opacity="1" /><path clip-path="url(#clip480)" d="M1574.08 1746.17 L1574.08 1756.29 L1586.14 1756.29 L1586.14 1760.85 L1574.08 1760.85 L1574.08 1780.2 Q1574.08 1784.56 1575.25 1785.8 Q1576.46 1787.04 1580.12 1787.04 L1586.14 1787.04 L1586.14 1791.94 L1580.12 1791.94 Q1573.34 1791.94 1570.77 1789.43 Q1568.19 1786.88 1568.19 1780.2 L1568.19 1760.85 L1563.89 1760.85 L1563.89 1756.29 L1568.19 1756.29 L1568.19 1746.17 L1574.08 1746.17 Z" fill="#000000" fill-rule="nonzero" fill-opacity="1" /><path clip-path="url(#clip480)" d="M1593.84 1756.29 L1599.7 1756.29 L1599.7 1791.94 L1593.84 1791.94 L1593.84 1756.29 M1593.84 1742.42 L1599.7 1742.42 L1599.7 1749.83 L1593.84 1749.83 L1593.84 1742.42 Z" fill="#000000" fill-rule="nonzero" fill-opacity="1" /><path clip-path="url(#clip480)" d="M1639.71 1763.14 Q1641.9 1759.19 1644.96 1757.31 Q1648.01 1755.43 1652.15 1755.43 Q1657.72 1755.43 1660.75 1759.35 Q1663.77 1763.23 1663.77 1770.43 L1663.77 1791.94 L1657.88 1791.94 L1657.88 1770.62 Q1657.88 1765.49 1656.07 1763.01 Q1654.25 1760.53 1650.53 1760.53 Q1645.98 1760.53 1643.34 1763.55 Q1640.69 1766.57 1640.69 1771.79 L1640.69 1791.94 L1634.81 1791.94 L1634.81 1770.62 Q1634.81 1765.46 1632.99 1763.01 Q1631.18 1760.53 1627.39 1760.53 Q1622.9 1760.53 1620.26 1763.58 Q1617.62 1766.61 1617.62 1771.79 L1617.62 1791.94 L1611.73 1791.94 L1611.73 1756.29 L1617.62 1756.29 L1617.62 1761.83 Q1619.62 1758.55 1622.42 1756.99 Q1625.22 1755.43 1629.08 1755.43 Q1632.96 1755.43 1635.66 1757.41 Q1638.4 1759.38 1639.71 1763.14 Z" fill="#000000" fill-rule="nonzero" fill-opacity="1" /><path clip-path="url(#clip480)" d="M1675.45 1756.29 L1681.31 1756.29 L1681.31 1791.94 L1675.45 1791.94 L1675.45 1756.29 M1675.45 1742.42 L1681.31 1742.42 L1681.31 1749.83 L1675.45 1749.83 L1675.45 1742.42 Z" fill="#000000" fill-rule="nonzero" fill-opacity="1" /><path clip-path="url(#clip480)" d="M1716.29 1757.34 L1716.29 1762.88 Q1713.8 1761.61 1711.13 1760.97 Q1708.46 1760.34 1705.59 1760.34 Q1701.23 1760.34 1699.04 1761.67 Q1696.87 1763.01 1696.87 1765.68 Q1696.87 1767.72 1698.43 1768.9 Q1699.99 1770.04 1704.7 1771.09 L1706.71 1771.54 Q1712.94 1772.88 1715.55 1775.33 Q1718.2 1777.75 1718.2 1782.11 Q1718.2 1787.07 1714.25 1789.97 Q1710.33 1792.86 1703.46 1792.86 Q1700.59 1792.86 1697.48 1792.29 Q1694.39 1791.75 1690.95 1790.64 L1690.95 1784.59 Q1694.2 1786.28 1697.35 1787.14 Q1700.5 1787.96 1703.59 1787.96 Q1707.72 1787.96 1709.95 1786.56 Q1712.18 1785.13 1712.18 1782.55 Q1712.18 1780.16 1710.56 1778.89 Q1708.97 1777.62 1703.52 1776.44 L1701.49 1775.96 Q1696.04 1774.82 1693.62 1772.46 Q1691.21 1770.08 1691.21 1765.94 Q1691.21 1760.91 1694.77 1758.17 Q1698.34 1755.43 1704.89 1755.43 Q1708.14 1755.43 1711 1755.91 Q1713.87 1756.39 1716.29 1757.34 Z" fill="#000000" fill-rule="nonzero" fill-opacity="1" /><path clip-path="url(#clip480)" d="M1743.72 1774.02 Q1736.62 1774.02 1733.89 1775.65 Q1731.15 1777.27 1731.15 1781.18 Q1731.15 1784.3 1733.19 1786.15 Q1735.26 1787.96 1738.79 1787.96 Q1743.66 1787.96 1746.59 1784.53 Q1749.55 1781.06 1749.55 1775.33 L1749.55 1774.02 L1743.72 1774.02 M1755.4 1771.6 L1755.4 1791.94 L1749.55 1791.94 L1749.55 1786.53 Q1747.54 1789.78 1744.55 1791.34 Q1741.56 1792.86 1737.23 1792.86 Q1731.76 1792.86 1728.51 1789.81 Q1725.29 1786.72 1725.29 1781.57 Q1725.29 1775.55 1729.3 1772.49 Q1733.35 1769.44 1741.34 1769.44 L1749.55 1769.44 L1749.55 1768.87 Q1749.55 1764.82 1746.87 1762.63 Q1744.23 1760.4 1739.43 1760.4 Q1736.37 1760.4 1733.47 1761.13 Q1730.58 1761.86 1727.9 1763.33 L1727.9 1757.92 Q1731.12 1756.68 1734.14 1756.07 Q1737.17 1755.43 1740.03 1755.43 Q1747.76 1755.43 1751.58 1759.44 Q1755.4 1763.45 1755.4 1771.6 Z" fill="#000000" fill-rule="nonzero" fill-opacity="1" /><path clip-path="url(#clip480)" d="M1773.26 1746.17 L1773.26 1756.29 L1785.32 1756.29 L1785.32 1760.85 L1773.26 1760.85 L1773.26 1780.2 Q1773.26 1784.56 1774.44 1785.8 Q1775.65 1787.04 1779.31 1787.04 L1785.32 1787.04 L1785.32 1791.94 L1779.31 1791.94 Q1772.53 1791.94 1769.95 1789.43 Q1767.37 1786.88 1767.37 1780.2 L1767.37 1760.85 L1763.07 1760.85 L1763.07 1756.29 L1767.37 1756.29 L1767.37 1746.17 L1773.26 1746.17 Z" fill="#000000" fill-rule="nonzero" fill-opacity="1" /><path clip-path="url(#clip480)" d="M1793.02 1756.29 L1798.88 1756.29 L1798.88 1791.94 L1793.02 1791.94 L1793.02 1756.29 M1793.02 1742.42 L1798.88 1742.42 L1798.88 1749.83 L1793.02 1749.83 L1793.02 1742.42 Z" fill="#000000" fill-rule="nonzero" fill-opacity="1" /><path clip-path="url(#clip480)" d="M1824.95 1760.4 Q1820.24 1760.4 1817.5 1764.09 Q1814.76 1767.75 1814.76 1774.15 Q1814.76 1780.55 1817.47 1784.24 Q1820.21 1787.9 1824.95 1787.9 Q1829.63 1787.9 1832.37 1784.21 Q1835.1 1780.52 1835.1 1774.15 Q1835.1 1767.82 1832.37 1764.12 Q1829.63 1760.4 1824.95 1760.4 M1824.95 1755.43 Q1832.59 1755.43 1836.95 1760.4 Q1841.31 1765.36 1841.31 1774.15 Q1841.31 1782.9 1836.95 1787.9 Q1832.59 1792.86 1824.95 1792.86 Q1817.28 1792.86 1812.92 1787.9 Q1808.59 1782.9 1808.59 1774.15 Q1808.59 1765.36 1812.92 1760.4 Q1817.28 1755.43 1824.95 1755.43 Z" fill="#000000" fill-rule="nonzero" fill-opacity="1" /><path clip-path="url(#clip480)" d="M1880.65 1770.43 L1880.65 1791.94 L1874.79 1791.94 L1874.79 1770.62 Q1874.79 1765.56 1872.82 1763.04 Q1870.85 1760.53 1866.9 1760.53 Q1862.16 1760.53 1859.42 1763.55 Q1856.68 1766.57 1856.68 1771.79 L1856.68 1791.94 L1850.79 1791.94 L1850.79 1756.29 L1856.68 1756.29 L1856.68 1761.83 Q1858.78 1758.62 1861.62 1757.03 Q1864.48 1755.43 1868.2 1755.43 Q1874.35 1755.43 1877.5 1759.25 Q1880.65 1763.04 1880.65 1770.43 Z" fill="#000000" fill-rule="nonzero" fill-opacity="1" /><path clip-path="url(#clip480)" d="M1933.71 1761.77 Q1932.72 1761.2 1931.54 1760.94 Q1930.4 1760.65 1929 1760.65 Q1924.03 1760.65 1921.36 1763.9 Q1918.72 1767.12 1918.72 1773.16 L1918.72 1791.94 L1912.83 1791.94 L1912.83 1756.29 L1918.72 1756.29 L1918.72 1761.83 Q1920.56 1758.59 1923.52 1757.03 Q1926.48 1755.43 1930.72 1755.43 Q1931.32 1755.43 1932.05 1755.53 Q1932.78 1755.59 1933.68 1755.75 L1933.71 1761.77 Z" fill="#000000" fill-rule="nonzero" fill-opacity="1" /><path clip-path="url(#clip480)" d="M1939.25 1777.87 L1939.25 1756.29 L1945.1 1756.29 L1945.1 1777.65 Q1945.1 1782.71 1947.08 1785.26 Q1949.05 1787.77 1953 1787.77 Q1957.74 1787.77 1960.47 1784.75 Q1963.24 1781.72 1963.24 1776.5 L1963.24 1756.29 L1969.1 1756.29 L1969.1 1791.94 L1963.24 1791.94 L1963.24 1786.47 Q1961.11 1789.71 1958.28 1791.3 Q1955.48 1792.86 1951.75 1792.86 Q1945.61 1792.86 1942.43 1789.05 Q1939.25 1785.23 1939.25 1777.87 M1953.98 1755.43 L1953.98 1755.43 Z" fill="#000000" fill-rule="nonzero" fill-opacity="1" /><path clip-path="url(#clip480)" d="M2010.8 1770.43 L2010.8 1791.94 L2004.94 1791.94 L2004.94 1770.62 Q2004.94 1765.56 2002.97 1763.04 Q2000.99 1760.53 1997.05 1760.53 Q1992.3 1760.53 1989.57 1763.55 Q1986.83 1766.57 1986.83 1771.79 L1986.83 1791.94 L1980.94 1791.94 L1980.94 1756.29 L1986.83 1756.29 L1986.83 1761.83 Q1988.93 1758.62 1991.76 1757.03 Q1994.63 1755.43 1998.35 1755.43 Q2004.49 1755.43 2007.64 1759.25 Q2010.8 1763.04 2010.8 1770.43 Z" fill="#000000" fill-rule="nonzero" fill-opacity="1" /><path clip-path="url(#clip480)" d="M2043.2 1756.29 L2049.05 1756.29 L2049.05 1791.94 L2043.2 1791.94 L2043.2 1756.29 M2043.2 1742.42 L2049.05 1742.42 L2049.05 1749.83 L2043.2 1749.83 L2043.2 1742.42 Z" fill="#000000" fill-rule="nonzero" fill-opacity="1" /><path clip-path="url(#clip480)" d="M2090.94 1770.43 L2090.94 1791.94 L2085.08 1791.94 L2085.08 1770.62 Q2085.08 1765.56 2083.11 1763.04 Q2081.14 1760.53 2077.19 1760.53 Q2072.45 1760.53 2069.71 1763.55 Q2066.97 1766.57 2066.97 1771.79 L2066.97 1791.94 L2061.08 1791.94 L2061.08 1756.29 L2066.97 1756.29 L2066.97 1761.83 Q2069.07 1758.62 2071.91 1757.03 Q2074.77 1755.43 2078.5 1755.43 Q2084.64 1755.43 2087.79 1759.25 Q2090.94 1763.04 2090.94 1770.43 Z" fill="#000000" fill-rule="nonzero" fill-opacity="1" /><path clip-path="url(#clip480)" d="M2126.08 1761.7 L2126.08 1742.42 L2131.94 1742.42 L2131.94 1791.94 L2126.08 1791.94 L2126.08 1786.59 Q2124.23 1789.78 2121.4 1791.34 Q2118.6 1792.86 2114.65 1792.86 Q2108.19 1792.86 2104.12 1787.71 Q2100.07 1782.55 2100.07 1774.15 Q2100.07 1765.75 2104.12 1760.59 Q2108.19 1755.43 2114.65 1755.43 Q2118.6 1755.43 2121.4 1756.99 Q2124.23 1758.52 2126.08 1761.7 M2106.12 1774.15 Q2106.12 1780.61 2108.76 1784.3 Q2111.44 1787.96 2116.08 1787.96 Q2120.73 1787.96 2123.41 1784.3 Q2126.08 1780.61 2126.08 1774.15 Q2126.08 1767.69 2123.41 1764.03 Q2120.73 1760.34 2116.08 1760.34 Q2111.44 1760.34 2108.76 1764.03 Q2106.12 1767.69 2106.12 1774.15 Z" fill="#000000" fill-rule="nonzero" fill-opacity="1" /><path clip-path="url(#clip480)" d="M2174.49 1772.65 L2174.49 1775.52 L2147.56 1775.52 Q2147.94 1781.57 2151.19 1784.75 Q2154.47 1787.9 2160.29 1787.9 Q2163.67 1787.9 2166.82 1787.07 Q2170 1786.24 2173.12 1784.59 L2173.12 1790.13 Q2169.97 1791.46 2166.66 1792.16 Q2163.35 1792.86 2159.94 1792.86 Q2151.41 1792.86 2146.42 1787.9 Q2141.45 1782.93 2141.45 1774.47 Q2141.45 1765.71 2146.16 1760.59 Q2150.91 1755.43 2158.93 1755.43 Q2166.12 1755.43 2170.29 1760.08 Q2174.49 1764.7 2174.49 1772.65 M2168.63 1770.93 Q2168.57 1766.13 2165.93 1763.26 Q2163.32 1760.4 2158.99 1760.4 Q2154.09 1760.4 2151.13 1763.17 Q2148.2 1765.94 2147.75 1770.97 L2168.63 1770.93 Z" fill="#000000" fill-rule="nonzero" fill-opacity="1" /><path clip-path="url(#clip480)" d="M2212.59 1756.29 L2199.7 1773.64 L2213.26 1791.94 L2206.35 1791.94 L2195.97 1777.94 L2185.6 1791.94 L2178.69 1791.94 L2192.54 1773.29 L2179.87 1756.29 L2186.78 1756.29 L2196.23 1768.99 L2205.68 1756.29 L2212.59 1756.29 Z" fill="#000000" fill-rule="nonzero" fill-opacity="1" /><polyline clip-path="url(#clip480)" style="stroke:#000000; stroke-linecap:round; stroke-linejoin:round; stroke-width:4; stroke-opacity:1; fill:none" points="733.618,1638.08 733.618,47.2442 "/>
<polyline clip-path="url(#clip480)" style="stroke:#000000; stroke-linecap:round; stroke-linejoin:round; stroke-width:4; stroke-opacity:1; fill:none" points="733.618,1543.62 752.515,1543.62 "/>
<polyline clip-path="url(#clip480)" style="stroke:#000000; stroke-linecap:round; stroke-linejoin:round; stroke-width:4; stroke-opacity:1; fill:none" points="733.618,1283.63 752.515,1283.63 "/>
<polyline clip-path="url(#clip480)" style="stroke:#000000; stroke-linecap:round; stroke-linejoin:round; stroke-width:4; stroke-opacity:1; fill:none" points="733.618,1023.63 752.515,1023.63 "/>
<polyline clip-path="url(#clip480)" style="stroke:#000000; stroke-linecap:round; stroke-linejoin:round; stroke-width:4; stroke-opacity:1; fill:none" points="733.618,763.634 752.515,763.634 "/>
<polyline clip-path="url(#clip480)" style="stroke:#000000; stroke-linecap:round; stroke-linejoin:round; stroke-width:4; stroke-opacity:1; fill:none" points="733.618,503.637 752.515,503.637 "/>
<polyline clip-path="url(#clip480)" style="stroke:#000000; stroke-linecap:round; stroke-linejoin:round; stroke-width:4; stroke-opacity:1; fill:none" points="733.618,243.641 752.515,243.641 "/>
<path clip-path="url(#clip480)" d="M292.363 1532.79 L314.585 1532.79 L314.585 1534.78 L302.038 1567.35 L297.154 1567.35 L308.96 1536.73 L292.363 1536.73 L292.363 1532.79 Z" fill="#000000" fill-rule="nonzero" fill-opacity="1" /><path clip-path="url(#clip480)" d="M323.705 1561.47 L328.589 1561.47 L328.589 1567.35 L323.705 1567.35 L323.705 1561.47 Z" fill="#000000" fill-rule="nonzero" fill-opacity="1" /><path clip-path="url(#clip480)" d="M348.774 1535.87 Q345.163 1535.87 343.334 1539.43 Q341.529 1542.98 341.529 1550.11 Q341.529 1557.21 343.334 1560.78 Q345.163 1564.32 348.774 1564.32 Q352.408 1564.32 354.214 1560.78 Q356.043 1557.21 356.043 1550.11 Q356.043 1542.98 354.214 1539.43 Q352.408 1535.87 348.774 1535.87 M348.774 1532.17 Q354.584 1532.17 357.64 1536.77 Q360.719 1541.36 360.719 1550.11 Q360.719 1558.83 357.64 1563.44 Q354.584 1568.02 348.774 1568.02 Q342.964 1568.02 339.885 1563.44 Q336.83 1558.83 336.83 1550.11 Q336.83 1541.36 339.885 1536.77 Q342.964 1532.17 348.774 1532.17 Z" fill="#000000" fill-rule="nonzero" fill-opacity="1" /><path clip-path="url(#clip480)" d="M367.756 1532.79 L389.978 1532.79 L389.978 1534.78 L377.432 1567.35 L372.547 1567.35 L384.353 1536.73 L367.756 1536.73 L367.756 1532.79 Z" fill="#000000" fill-rule="nonzero" fill-opacity="1" /><path clip-path="url(#clip480)" d="M409.677 1548.21 Q406.529 1548.21 404.677 1550.36 Q402.848 1552.51 402.848 1556.26 Q402.848 1559.99 404.677 1562.17 Q406.529 1564.32 409.677 1564.32 Q412.825 1564.32 414.654 1562.17 Q416.505 1559.99 416.505 1556.26 Q416.505 1552.51 414.654 1550.36 Q412.825 1548.21 409.677 1548.21 M418.959 1533.55 L418.959 1537.81 Q417.2 1536.98 415.394 1536.54 Q413.612 1536.1 411.853 1536.1 Q407.223 1536.1 404.769 1539.23 Q402.339 1542.35 401.992 1548.67 Q403.357 1546.66 405.417 1545.59 Q407.478 1544.5 409.954 1544.5 Q415.163 1544.5 418.172 1547.67 Q421.204 1550.82 421.204 1556.26 Q421.204 1561.59 418.056 1564.8 Q414.908 1568.02 409.677 1568.02 Q403.681 1568.02 400.51 1563.44 Q397.339 1558.83 397.339 1550.11 Q397.339 1541.91 401.228 1537.05 Q405.117 1532.17 411.667 1532.17 Q413.427 1532.17 415.209 1532.51 Q417.015 1532.86 418.959 1533.55 Z" fill="#000000" fill-rule="nonzero" fill-opacity="1" /><path clip-path="url(#clip480)" d="M430.07 1563.42 L437.709 1563.42 L437.709 1537.05 L429.399 1538.72 L429.399 1534.46 L437.663 1532.79 L442.339 1532.79 L442.339 1563.42 L449.977 1563.42 L449.977 1567.35 L430.07 1567.35 L430.07 1563.42 Z" fill="#000000" fill-rule="nonzero" fill-opacity="1" /><path clip-path="url(#clip480)" d="M469.422 1535.87 Q465.811 1535.87 463.982 1539.43 Q462.176 1542.98 462.176 1550.11 Q462.176 1557.21 463.982 1560.78 Q465.811 1564.32 469.422 1564.32 Q473.056 1564.32 474.862 1560.78 Q476.69 1557.21 476.69 1550.11 Q476.69 1542.98 474.862 1539.43 Q473.056 1535.87 469.422 1535.87 M469.422 1532.17 Q475.232 1532.17 478.287 1536.77 Q481.366 1541.36 481.366 1550.11 Q481.366 1558.83 478.287 1563.44 Q475.232 1568.02 469.422 1568.02 Q463.612 1568.02 460.533 1563.44 Q457.477 1558.83 457.477 1550.11 Q457.477 1541.36 460.533 1536.77 Q463.612 1532.17 469.422 1532.17 Z" fill="#000000" fill-rule="nonzero" fill-opacity="1" /><path clip-path="url(#clip480)" d="M502.431 1536.86 L490.625 1555.31 L502.431 1555.31 L502.431 1536.86 M501.204 1532.79 L507.084 1532.79 L507.084 1555.31 L512.014 1555.31 L512.014 1559.2 L507.084 1559.2 L507.084 1567.35 L502.431 1567.35 L502.431 1559.2 L486.829 1559.2 L486.829 1554.69 L501.204 1532.79 Z" fill="#000000" fill-rule="nonzero" fill-opacity="1" /><path clip-path="url(#clip480)" d="M519.792 1532.79 L538.148 1532.79 L538.148 1536.73 L524.074 1536.73 L524.074 1545.2 Q525.093 1544.85 526.111 1544.69 Q527.13 1544.5 528.148 1544.5 Q533.935 1544.5 537.315 1547.67 Q540.695 1550.85 540.695 1556.26 Q540.695 1561.84 537.222 1564.94 Q533.75 1568.02 527.431 1568.02 Q525.255 1568.02 522.986 1567.65 Q520.741 1567.28 518.334 1566.54 L518.334 1561.84 Q520.417 1562.98 522.639 1563.53 Q524.861 1564.09 527.338 1564.09 Q531.343 1564.09 533.681 1561.98 Q536.019 1559.87 536.019 1556.26 Q536.019 1552.65 533.681 1550.54 Q531.343 1548.44 527.338 1548.44 Q525.463 1548.44 523.588 1548.86 Q521.736 1549.27 519.792 1550.15 L519.792 1532.79 Z" fill="#000000" fill-rule="nonzero" fill-opacity="1" /><path clip-path="url(#clip480)" d="M548.727 1532.79 L570.949 1532.79 L570.949 1534.78 L558.403 1567.35 L553.519 1567.35 L565.324 1536.73 L548.727 1536.73 L548.727 1532.79 Z" fill="#000000" fill-rule="nonzero" fill-opacity="1" /><path clip-path="url(#clip480)" d="M608.24 1541.89 L597.662 1552.51 L608.24 1563.09 L605.486 1565.89 L594.861 1555.27 L584.236 1565.89 L581.504 1563.09 L592.06 1552.51 L581.504 1541.89 L584.236 1539.09 L594.861 1549.71 L605.486 1539.09 L608.24 1541.89 Z" fill="#000000" fill-rule="nonzero" fill-opacity="1" /><path clip-path="url(#clip480)" d="M620.602 1563.42 L628.24 1563.42 L628.24 1537.05 L619.93 1538.72 L619.93 1534.46 L628.194 1532.79 L632.87 1532.79 L632.87 1563.42 L640.509 1563.42 L640.509 1567.35 L620.602 1567.35 L620.602 1563.42 Z" fill="#000000" fill-rule="nonzero" fill-opacity="1" /><path clip-path="url(#clip480)" d="M659.953 1535.87 Q656.342 1535.87 654.513 1539.43 Q652.708 1542.98 652.708 1550.11 Q652.708 1557.21 654.513 1560.78 Q656.342 1564.32 659.953 1564.32 Q663.587 1564.32 665.393 1560.78 Q667.222 1557.21 667.222 1550.11 Q667.222 1542.98 665.393 1539.43 Q663.587 1535.87 659.953 1535.87 M659.953 1532.17 Q665.763 1532.17 668.819 1536.77 Q671.898 1541.36 671.898 1550.11 Q671.898 1558.83 668.819 1563.44 Q665.763 1568.02 659.953 1568.02 Q654.143 1568.02 651.064 1563.44 Q648.009 1558.83 648.009 1550.11 Q648.009 1541.36 651.064 1536.77 Q654.143 1532.17 659.953 1532.17 Z" fill="#000000" fill-rule="nonzero" fill-opacity="1" /><path clip-path="url(#clip480)" d="M672.443 1536.74 L678.65 1536.74 L678.65 1515.32 L671.898 1516.67 L671.898 1513.21 L678.612 1511.86 L682.411 1511.86 L682.411 1536.74 L688.618 1536.74 L688.618 1539.94 L672.443 1539.94 L672.443 1536.74 Z" fill="#000000" fill-rule="nonzero" fill-opacity="1" /><path clip-path="url(#clip480)" d="M292.363 1272.79 L314.585 1272.79 L314.585 1274.78 L302.038 1307.35 L297.154 1307.35 L308.96 1276.73 L292.363 1276.73 L292.363 1272.79 Z" fill="#000000" fill-rule="nonzero" fill-opacity="1" /><path clip-path="url(#clip480)" d="M323.705 1301.47 L328.589 1301.47 L328.589 1307.35 L323.705 1307.35 L323.705 1301.47 Z" fill="#000000" fill-rule="nonzero" fill-opacity="1" /><path clip-path="url(#clip480)" d="M348.774 1275.87 Q345.163 1275.87 343.334 1279.44 Q341.529 1282.98 341.529 1290.11 Q341.529 1297.22 343.334 1300.78 Q345.163 1304.32 348.774 1304.32 Q352.408 1304.32 354.214 1300.78 Q356.043 1297.22 356.043 1290.11 Q356.043 1282.98 354.214 1279.44 Q352.408 1275.87 348.774 1275.87 M348.774 1272.17 Q354.584 1272.17 357.64 1276.78 Q360.719 1281.36 360.719 1290.11 Q360.719 1298.84 357.64 1303.44 Q354.584 1308.03 348.774 1308.03 Q342.964 1308.03 339.885 1303.44 Q336.83 1298.84 336.83 1290.11 Q336.83 1281.36 339.885 1276.78 Q342.964 1272.17 348.774 1272.17 Z" fill="#000000" fill-rule="nonzero" fill-opacity="1" /><path clip-path="url(#clip480)" d="M367.756 1272.79 L389.978 1272.79 L389.978 1274.78 L377.432 1307.35 L372.547 1307.35 L384.353 1276.73 L367.756 1276.73 L367.756 1272.79 Z" fill="#000000" fill-rule="nonzero" fill-opacity="1" /><path clip-path="url(#clip480)" d="M409.677 1288.21 Q406.529 1288.21 404.677 1290.36 Q402.848 1292.52 402.848 1296.27 Q402.848 1299.99 404.677 1302.17 Q406.529 1304.32 409.677 1304.32 Q412.825 1304.32 414.654 1302.17 Q416.505 1299.99 416.505 1296.27 Q416.505 1292.52 414.654 1290.36 Q412.825 1288.21 409.677 1288.21 M418.959 1273.56 L418.959 1277.82 Q417.2 1276.98 415.394 1276.54 Q413.612 1276.1 411.853 1276.1 Q407.223 1276.1 404.769 1279.23 Q402.339 1282.35 401.992 1288.67 Q403.357 1286.66 405.417 1285.59 Q407.478 1284.51 409.954 1284.51 Q415.163 1284.51 418.172 1287.68 Q421.204 1290.83 421.204 1296.27 Q421.204 1301.59 418.056 1304.81 Q414.908 1308.03 409.677 1308.03 Q403.681 1308.03 400.51 1303.44 Q397.339 1298.84 397.339 1290.11 Q397.339 1281.91 401.228 1277.05 Q405.117 1272.17 411.667 1272.17 Q413.427 1272.17 415.209 1272.52 Q417.015 1272.86 418.959 1273.56 Z" fill="#000000" fill-rule="nonzero" fill-opacity="1" /><path clip-path="url(#clip480)" d="M430.07 1303.42 L437.709 1303.42 L437.709 1277.05 L429.399 1278.72 L429.399 1274.46 L437.663 1272.79 L442.339 1272.79 L442.339 1303.42 L449.977 1303.42 L449.977 1307.35 L430.07 1307.35 L430.07 1303.42 Z" fill="#000000" fill-rule="nonzero" fill-opacity="1" /><path clip-path="url(#clip480)" d="M469.422 1275.87 Q465.811 1275.87 463.982 1279.44 Q462.176 1282.98 462.176 1290.11 Q462.176 1297.22 463.982 1300.78 Q465.811 1304.32 469.422 1304.32 Q473.056 1304.32 474.862 1300.78 Q476.69 1297.22 476.69 1290.11 Q476.69 1282.98 474.862 1279.44 Q473.056 1275.87 469.422 1275.87 M469.422 1272.17 Q475.232 1272.17 478.287 1276.78 Q481.366 1281.36 481.366 1290.11 Q481.366 1298.84 478.287 1303.44 Q475.232 1308.03 469.422 1308.03 Q463.612 1308.03 460.533 1303.44 Q457.477 1298.84 457.477 1290.11 Q457.477 1281.36 460.533 1276.78 Q463.612 1272.17 469.422 1272.17 Z" fill="#000000" fill-rule="nonzero" fill-opacity="1" /><path clip-path="url(#clip480)" d="M502.431 1276.87 L490.625 1295.32 L502.431 1295.32 L502.431 1276.87 M501.204 1272.79 L507.084 1272.79 L507.084 1295.32 L512.014 1295.32 L512.014 1299.21 L507.084 1299.21 L507.084 1307.35 L502.431 1307.35 L502.431 1299.21 L486.829 1299.21 L486.829 1294.69 L501.204 1272.79 Z" fill="#000000" fill-rule="nonzero" fill-opacity="1" /><path clip-path="url(#clip480)" d="M519.792 1272.79 L538.148 1272.79 L538.148 1276.73 L524.074 1276.73 L524.074 1285.2 Q525.093 1284.85 526.111 1284.69 Q527.13 1284.51 528.148 1284.51 Q533.935 1284.51 537.315 1287.68 Q540.695 1290.85 540.695 1296.27 Q540.695 1301.84 537.222 1304.95 Q533.75 1308.03 527.431 1308.03 Q525.255 1308.03 522.986 1307.65 Q520.741 1307.28 518.334 1306.54 L518.334 1301.84 Q520.417 1302.98 522.639 1303.53 Q524.861 1304.09 527.338 1304.09 Q531.343 1304.09 533.681 1301.98 Q536.019 1299.88 536.019 1296.27 Q536.019 1292.65 533.681 1290.55 Q531.343 1288.44 527.338 1288.44 Q525.463 1288.44 523.588 1288.86 Q521.736 1289.28 519.792 1290.15 L519.792 1272.79 Z" fill="#000000" fill-rule="nonzero" fill-opacity="1" /><path clip-path="url(#clip480)" d="M548.727 1272.79 L570.949 1272.79 L570.949 1274.78 L558.403 1307.35 L553.519 1307.35 L565.324 1276.73 L548.727 1276.73 L548.727 1272.79 Z" fill="#000000" fill-rule="nonzero" fill-opacity="1" /><path clip-path="url(#clip480)" d="M608.24 1281.89 L597.662 1292.52 L608.24 1303.09 L605.486 1305.9 L594.861 1295.27 L584.236 1305.9 L581.504 1303.09 L592.06 1292.52 L581.504 1281.89 L584.236 1279.09 L594.861 1289.72 L605.486 1279.09 L608.24 1281.89 Z" fill="#000000" fill-rule="nonzero" fill-opacity="1" /><path clip-path="url(#clip480)" d="M620.602 1303.42 L628.24 1303.42 L628.24 1277.05 L619.93 1278.72 L619.93 1274.46 L628.194 1272.79 L632.87 1272.79 L632.87 1303.42 L640.509 1303.42 L640.509 1307.35 L620.602 1307.35 L620.602 1303.42 Z" fill="#000000" fill-rule="nonzero" fill-opacity="1" /><path clip-path="url(#clip480)" d="M659.953 1275.87 Q656.342 1275.87 654.513 1279.44 Q652.708 1282.98 652.708 1290.11 Q652.708 1297.22 654.513 1300.78 Q656.342 1304.32 659.953 1304.32 Q663.587 1304.32 665.393 1300.78 Q667.222 1297.22 667.222 1290.11 Q667.222 1282.98 665.393 1279.44 Q663.587 1275.87 659.953 1275.87 M659.953 1272.17 Q665.763 1272.17 668.819 1276.78 Q671.898 1281.36 671.898 1290.11 Q671.898 1298.84 668.819 1303.44 Q665.763 1308.03 659.953 1308.03 Q654.143 1308.03 651.064 1303.44 Q648.009 1298.84 648.009 1290.11 Q648.009 1281.36 651.064 1276.78 Q654.143 1272.17 659.953 1272.17 Z" fill="#000000" fill-rule="nonzero" fill-opacity="1" /><path clip-path="url(#clip480)" d="M672.443 1276.75 L678.65 1276.75 L678.65 1255.32 L671.898 1256.68 L671.898 1253.22 L678.612 1251.86 L682.411 1251.86 L682.411 1276.75 L688.618 1276.75 L688.618 1279.94 L672.443 1279.94 L672.443 1276.75 Z" fill="#000000" fill-rule="nonzero" fill-opacity="1" /><path clip-path="url(#clip480)" d="M292.363 1012.8 L314.585 1012.8 L314.585 1014.79 L302.038 1047.36 L297.154 1047.36 L308.96 1016.73 L292.363 1016.73 L292.363 1012.8 Z" fill="#000000" fill-rule="nonzero" fill-opacity="1" /><path clip-path="url(#clip480)" d="M323.705 1041.48 L328.589 1041.48 L328.589 1047.36 L323.705 1047.36 L323.705 1041.48 Z" fill="#000000" fill-rule="nonzero" fill-opacity="1" /><path clip-path="url(#clip480)" d="M348.774 1015.88 Q345.163 1015.88 343.334 1019.44 Q341.529 1022.98 341.529 1030.11 Q341.529 1037.22 343.334 1040.78 Q345.163 1044.33 348.774 1044.33 Q352.408 1044.33 354.214 1040.78 Q356.043 1037.22 356.043 1030.11 Q356.043 1022.98 354.214 1019.44 Q352.408 1015.88 348.774 1015.88 M348.774 1012.17 Q354.584 1012.17 357.64 1016.78 Q360.719 1021.36 360.719 1030.11 Q360.719 1038.84 357.64 1043.45 Q354.584 1048.03 348.774 1048.03 Q342.964 1048.03 339.885 1043.45 Q336.83 1038.84 336.83 1030.11 Q336.83 1021.36 339.885 1016.78 Q342.964 1012.17 348.774 1012.17 Z" fill="#000000" fill-rule="nonzero" fill-opacity="1" /><path clip-path="url(#clip480)" d="M367.756 1012.8 L389.978 1012.8 L389.978 1014.79 L377.432 1047.36 L372.547 1047.36 L384.353 1016.73 L367.756 1016.73 L367.756 1012.8 Z" fill="#000000" fill-rule="nonzero" fill-opacity="1" /><path clip-path="url(#clip480)" d="M409.677 1028.21 Q406.529 1028.21 404.677 1030.37 Q402.848 1032.52 402.848 1036.27 Q402.848 1040 404.677 1042.17 Q406.529 1044.33 409.677 1044.33 Q412.825 1044.33 414.654 1042.17 Q416.505 1040 416.505 1036.27 Q416.505 1032.52 414.654 1030.37 Q412.825 1028.21 409.677 1028.21 M418.959 1013.56 L418.959 1017.82 Q417.2 1016.99 415.394 1016.55 Q413.612 1016.11 411.853 1016.11 Q407.223 1016.11 404.769 1019.23 Q402.339 1022.36 401.992 1028.68 Q403.357 1026.66 405.417 1025.6 Q407.478 1024.51 409.954 1024.51 Q415.163 1024.51 418.172 1027.68 Q421.204 1030.83 421.204 1036.27 Q421.204 1041.59 418.056 1044.81 Q414.908 1048.03 409.677 1048.03 Q403.681 1048.03 400.51 1043.45 Q397.339 1038.84 397.339 1030.11 Q397.339 1021.92 401.228 1017.06 Q405.117 1012.17 411.667 1012.17 Q413.427 1012.17 415.209 1012.52 Q417.015 1012.87 418.959 1013.56 Z" fill="#000000" fill-rule="nonzero" fill-opacity="1" /><path clip-path="url(#clip480)" d="M430.07 1043.42 L437.709 1043.42 L437.709 1017.06 L429.399 1018.72 L429.399 1014.46 L437.663 1012.8 L442.339 1012.8 L442.339 1043.42 L449.977 1043.42 L449.977 1047.36 L430.07 1047.36 L430.07 1043.42 Z" fill="#000000" fill-rule="nonzero" fill-opacity="1" /><path clip-path="url(#clip480)" d="M469.422 1015.88 Q465.811 1015.88 463.982 1019.44 Q462.176 1022.98 462.176 1030.11 Q462.176 1037.22 463.982 1040.78 Q465.811 1044.33 469.422 1044.33 Q473.056 1044.33 474.862 1040.78 Q476.69 1037.22 476.69 1030.11 Q476.69 1022.98 474.862 1019.44 Q473.056 1015.88 469.422 1015.88 M469.422 1012.17 Q475.232 1012.17 478.287 1016.78 Q481.366 1021.36 481.366 1030.11 Q481.366 1038.84 478.287 1043.45 Q475.232 1048.03 469.422 1048.03 Q463.612 1048.03 460.533 1043.45 Q457.477 1038.84 457.477 1030.11 Q457.477 1021.36 460.533 1016.78 Q463.612 1012.17 469.422 1012.17 Z" fill="#000000" fill-rule="nonzero" fill-opacity="1" /><path clip-path="url(#clip480)" d="M502.431 1016.87 L490.625 1035.32 L502.431 1035.32 L502.431 1016.87 M501.204 1012.8 L507.084 1012.8 L507.084 1035.32 L512.014 1035.32 L512.014 1039.21 L507.084 1039.21 L507.084 1047.36 L502.431 1047.36 L502.431 1039.21 L486.829 1039.21 L486.829 1034.7 L501.204 1012.8 Z" fill="#000000" fill-rule="nonzero" fill-opacity="1" /><path clip-path="url(#clip480)" d="M519.792 1012.8 L538.148 1012.8 L538.148 1016.73 L524.074 1016.73 L524.074 1025.21 Q525.093 1024.86 526.111 1024.7 Q527.13 1024.51 528.148 1024.51 Q533.935 1024.51 537.315 1027.68 Q540.695 1030.85 540.695 1036.27 Q540.695 1041.85 537.222 1044.95 Q533.75 1048.03 527.431 1048.03 Q525.255 1048.03 522.986 1047.66 Q520.741 1047.29 518.334 1046.55 L518.334 1041.85 Q520.417 1042.98 522.639 1043.54 Q524.861 1044.09 527.338 1044.09 Q531.343 1044.09 533.681 1041.99 Q536.019 1039.88 536.019 1036.27 Q536.019 1032.66 533.681 1030.55 Q531.343 1028.45 527.338 1028.45 Q525.463 1028.45 523.588 1028.86 Q521.736 1029.28 519.792 1030.16 L519.792 1012.8 Z" fill="#000000" fill-rule="nonzero" fill-opacity="1" /><path clip-path="url(#clip480)" d="M548.727 1012.8 L570.949 1012.8 L570.949 1014.79 L558.403 1047.36 L553.519 1047.36 L565.324 1016.73 L548.727 1016.73 L548.727 1012.8 Z" fill="#000000" fill-rule="nonzero" fill-opacity="1" /><path clip-path="url(#clip480)" d="M608.24 1021.89 L597.662 1032.52 L608.24 1043.1 L605.486 1045.9 L594.861 1035.27 L584.236 1045.9 L581.504 1043.1 L592.06 1032.52 L581.504 1021.89 L584.236 1019.09 L594.861 1029.72 L605.486 1019.09 L608.24 1021.89 Z" fill="#000000" fill-rule="nonzero" fill-opacity="1" /><path clip-path="url(#clip480)" d="M620.602 1043.42 L628.24 1043.42 L628.24 1017.06 L619.93 1018.72 L619.93 1014.46 L628.194 1012.8 L632.87 1012.8 L632.87 1043.42 L640.509 1043.42 L640.509 1047.36 L620.602 1047.36 L620.602 1043.42 Z" fill="#000000" fill-rule="nonzero" fill-opacity="1" /><path clip-path="url(#clip480)" d="M659.953 1015.88 Q656.342 1015.88 654.513 1019.44 Q652.708 1022.98 652.708 1030.11 Q652.708 1037.22 654.513 1040.78 Q656.342 1044.33 659.953 1044.33 Q663.587 1044.33 665.393 1040.78 Q667.222 1037.22 667.222 1030.11 Q667.222 1022.98 665.393 1019.44 Q663.587 1015.88 659.953 1015.88 M659.953 1012.17 Q665.763 1012.17 668.819 1016.78 Q671.898 1021.36 671.898 1030.11 Q671.898 1038.84 668.819 1043.45 Q665.763 1048.03 659.953 1048.03 Q654.143 1048.03 651.064 1043.45 Q648.009 1038.84 648.009 1030.11 Q648.009 1021.36 651.064 1016.78 Q654.143 1012.17 659.953 1012.17 Z" fill="#000000" fill-rule="nonzero" fill-opacity="1" /><path clip-path="url(#clip480)" d="M672.443 1016.75 L678.65 1016.75 L678.65 995.328 L671.898 996.682 L671.898 993.222 L678.612 991.867 L682.411 991.867 L682.411 1016.75 L688.618 1016.75 L688.618 1019.95 L672.443 1019.95 L672.443 1016.75 Z" fill="#000000" fill-rule="nonzero" fill-opacity="1" /><path clip-path="url(#clip480)" d="M292.363 752.801 L314.585 752.801 L314.585 754.792 L302.038 787.361 L297.154 787.361 L308.96 756.736 L292.363 756.736 L292.363 752.801 Z" fill="#000000" fill-rule="nonzero" fill-opacity="1" /><path clip-path="url(#clip480)" d="M323.705 781.482 L328.589 781.482 L328.589 787.361 L323.705 787.361 L323.705 781.482 Z" fill="#000000" fill-rule="nonzero" fill-opacity="1" /><path clip-path="url(#clip480)" d="M348.774 755.88 Q345.163 755.88 343.334 759.445 Q341.529 762.986 341.529 770.116 Q341.529 777.222 343.334 780.787 Q345.163 784.329 348.774 784.329 Q352.408 784.329 354.214 780.787 Q356.043 777.222 356.043 770.116 Q356.043 762.986 354.214 759.445 Q352.408 755.88 348.774 755.88 M348.774 752.176 Q354.584 752.176 357.64 756.783 Q360.719 761.366 360.719 770.116 Q360.719 778.843 357.64 783.449 Q354.584 788.033 348.774 788.033 Q342.964 788.033 339.885 783.449 Q336.83 778.843 336.83 770.116 Q336.83 761.366 339.885 756.783 Q342.964 752.176 348.774 752.176 Z" fill="#000000" fill-rule="nonzero" fill-opacity="1" /><path clip-path="url(#clip480)" d="M367.756 752.801 L389.978 752.801 L389.978 754.792 L377.432 787.361 L372.547 787.361 L384.353 756.736 L367.756 756.736 L367.756 752.801 Z" fill="#000000" fill-rule="nonzero" fill-opacity="1" /><path clip-path="url(#clip480)" d="M409.677 768.218 Q406.529 768.218 404.677 770.371 Q402.848 772.523 402.848 776.273 Q402.848 780 404.677 782.176 Q406.529 784.329 409.677 784.329 Q412.825 784.329 414.654 782.176 Q416.505 780 416.505 776.273 Q416.505 772.523 414.654 770.371 Q412.825 768.218 409.677 768.218 M418.959 753.565 L418.959 757.824 Q417.2 756.991 415.394 756.551 Q413.612 756.111 411.853 756.111 Q407.223 756.111 404.769 759.236 Q402.339 762.361 401.992 768.681 Q403.357 766.667 405.417 765.602 Q407.478 764.514 409.954 764.514 Q415.163 764.514 418.172 767.685 Q421.204 770.834 421.204 776.273 Q421.204 781.597 418.056 784.815 Q414.908 788.033 409.677 788.033 Q403.681 788.033 400.51 783.449 Q397.339 778.843 397.339 770.116 Q397.339 761.922 401.228 757.06 Q405.117 752.176 411.667 752.176 Q413.427 752.176 415.209 752.523 Q417.015 752.871 418.959 753.565 Z" fill="#000000" fill-rule="nonzero" fill-opacity="1" /><path clip-path="url(#clip480)" d="M430.07 783.426 L437.709 783.426 L437.709 757.06 L429.399 758.727 L429.399 754.468 L437.663 752.801 L442.339 752.801 L442.339 783.426 L449.977 783.426 L449.977 787.361 L430.07 787.361 L430.07 783.426 Z" fill="#000000" fill-rule="nonzero" fill-opacity="1" /><path clip-path="url(#clip480)" d="M469.422 755.88 Q465.811 755.88 463.982 759.445 Q462.176 762.986 462.176 770.116 Q462.176 777.222 463.982 780.787 Q465.811 784.329 469.422 784.329 Q473.056 784.329 474.862 780.787 Q476.69 777.222 476.69 770.116 Q476.69 762.986 474.862 759.445 Q473.056 755.88 469.422 755.88 M469.422 752.176 Q475.232 752.176 478.287 756.783 Q481.366 761.366 481.366 770.116 Q481.366 778.843 478.287 783.449 Q475.232 788.033 469.422 788.033 Q463.612 788.033 460.533 783.449 Q457.477 778.843 457.477 770.116 Q457.477 761.366 460.533 756.783 Q463.612 752.176 469.422 752.176 Z" fill="#000000" fill-rule="nonzero" fill-opacity="1" /><path clip-path="url(#clip480)" d="M502.431 756.875 L490.625 775.324 L502.431 775.324 L502.431 756.875 M501.204 752.801 L507.084 752.801 L507.084 775.324 L512.014 775.324 L512.014 779.213 L507.084 779.213 L507.084 787.361 L502.431 787.361 L502.431 779.213 L486.829 779.213 L486.829 774.699 L501.204 752.801 Z" fill="#000000" fill-rule="nonzero" fill-opacity="1" /><path clip-path="url(#clip480)" d="M519.792 752.801 L538.148 752.801 L538.148 756.736 L524.074 756.736 L524.074 765.209 Q525.093 764.861 526.111 764.699 Q527.13 764.514 528.148 764.514 Q533.935 764.514 537.315 767.685 Q540.695 770.857 540.695 776.273 Q540.695 781.852 537.222 784.954 Q533.75 788.033 527.431 788.033 Q525.255 788.033 522.986 787.662 Q520.741 787.292 518.334 786.551 L518.334 781.852 Q520.417 782.986 522.639 783.542 Q524.861 784.097 527.338 784.097 Q531.343 784.097 533.681 781.991 Q536.019 779.884 536.019 776.273 Q536.019 772.662 533.681 770.556 Q531.343 768.449 527.338 768.449 Q525.463 768.449 523.588 768.866 Q521.736 769.283 519.792 770.162 L519.792 752.801 Z" fill="#000000" fill-rule="nonzero" fill-opacity="1" /><path clip-path="url(#clip480)" d="M548.727 752.801 L570.949 752.801 L570.949 754.792 L558.403 787.361 L553.519 787.361 L565.324 756.736 L548.727 756.736 L548.727 752.801 Z" fill="#000000" fill-rule="nonzero" fill-opacity="1" /><path clip-path="url(#clip480)" d="M608.24 761.898 L597.662 772.523 L608.24 783.102 L605.486 785.903 L594.861 775.278 L584.236 785.903 L581.504 783.102 L592.06 772.523 L581.504 761.898 L584.236 759.097 L594.861 769.722 L605.486 759.097 L608.24 761.898 Z" fill="#000000" fill-rule="nonzero" fill-opacity="1" /><path clip-path="url(#clip480)" d="M620.602 783.426 L628.24 783.426 L628.24 757.06 L619.93 758.727 L619.93 754.468 L628.194 752.801 L632.87 752.801 L632.87 783.426 L640.509 783.426 L640.509 787.361 L620.602 787.361 L620.602 783.426 Z" fill="#000000" fill-rule="nonzero" fill-opacity="1" /><path clip-path="url(#clip480)" d="M659.953 755.88 Q656.342 755.88 654.513 759.445 Q652.708 762.986 652.708 770.116 Q652.708 777.222 654.513 780.787 Q656.342 784.329 659.953 784.329 Q663.587 784.329 665.393 780.787 Q667.222 777.222 667.222 770.116 Q667.222 762.986 665.393 759.445 Q663.587 755.88 659.953 755.88 M659.953 752.176 Q665.763 752.176 668.819 756.783 Q671.898 761.366 671.898 770.116 Q671.898 778.843 668.819 783.449 Q665.763 788.033 659.953 788.033 Q654.143 788.033 651.064 783.449 Q648.009 778.843 648.009 770.116 Q648.009 761.366 651.064 756.783 Q654.143 752.176 659.953 752.176 Z" fill="#000000" fill-rule="nonzero" fill-opacity="1" /><path clip-path="url(#clip480)" d="M672.443 756.753 L678.65 756.753 L678.65 735.331 L671.898 736.686 L671.898 733.225 L678.612 731.871 L682.411 731.871 L682.411 756.753 L688.618 756.753 L688.618 759.951 L672.443 759.951 L672.443 756.753 Z" fill="#000000" fill-rule="nonzero" fill-opacity="1" /><path clip-path="url(#clip480)" d="M292.363 492.805 L314.585 492.805 L314.585 494.796 L302.038 527.365 L297.154 527.365 L308.96 496.74 L292.363 496.74 L292.363 492.805 Z" fill="#000000" fill-rule="nonzero" fill-opacity="1" /><path clip-path="url(#clip480)" d="M323.705 521.485 L328.589 521.485 L328.589 527.365 L323.705 527.365 L323.705 521.485 Z" fill="#000000" fill-rule="nonzero" fill-opacity="1" /><path clip-path="url(#clip480)" d="M348.774 495.884 Q345.163 495.884 343.334 499.449 Q341.529 502.99 341.529 510.12 Q341.529 517.226 343.334 520.791 Q345.163 524.333 348.774 524.333 Q352.408 524.333 354.214 520.791 Q356.043 517.226 356.043 510.12 Q356.043 502.99 354.214 499.449 Q352.408 495.884 348.774 495.884 M348.774 492.18 Q354.584 492.18 357.64 496.786 Q360.719 501.37 360.719 510.12 Q360.719 518.847 357.64 523.453 Q354.584 528.036 348.774 528.036 Q342.964 528.036 339.885 523.453 Q336.83 518.847 336.83 510.12 Q336.83 501.37 339.885 496.786 Q342.964 492.18 348.774 492.18 Z" fill="#000000" fill-rule="nonzero" fill-opacity="1" /><path clip-path="url(#clip480)" d="M367.756 492.805 L389.978 492.805 L389.978 494.796 L377.432 527.365 L372.547 527.365 L384.353 496.74 L367.756 496.74 L367.756 492.805 Z" fill="#000000" fill-rule="nonzero" fill-opacity="1" /><path clip-path="url(#clip480)" d="M409.677 508.222 Q406.529 508.222 404.677 510.374 Q402.848 512.527 402.848 516.277 Q402.848 520.004 404.677 522.18 Q406.529 524.333 409.677 524.333 Q412.825 524.333 414.654 522.18 Q416.505 520.004 416.505 516.277 Q416.505 512.527 414.654 510.374 Q412.825 508.222 409.677 508.222 M418.959 493.569 L418.959 497.828 Q417.2 496.995 415.394 496.555 Q413.612 496.115 411.853 496.115 Q407.223 496.115 404.769 499.24 Q402.339 502.365 401.992 508.685 Q403.357 506.671 405.417 505.606 Q407.478 504.518 409.954 504.518 Q415.163 504.518 418.172 507.689 Q421.204 510.837 421.204 516.277 Q421.204 521.601 418.056 524.819 Q414.908 528.036 409.677 528.036 Q403.681 528.036 400.51 523.453 Q397.339 518.847 397.339 510.12 Q397.339 501.925 401.228 497.064 Q405.117 492.18 411.667 492.18 Q413.427 492.18 415.209 492.527 Q417.015 492.874 418.959 493.569 Z" fill="#000000" fill-rule="nonzero" fill-opacity="1" /><path clip-path="url(#clip480)" d="M430.07 523.43 L437.709 523.43 L437.709 497.064 L429.399 498.731 L429.399 494.472 L437.663 492.805 L442.339 492.805 L442.339 523.43 L449.977 523.43 L449.977 527.365 L430.07 527.365 L430.07 523.43 Z" fill="#000000" fill-rule="nonzero" fill-opacity="1" /><path clip-path="url(#clip480)" d="M469.422 495.884 Q465.811 495.884 463.982 499.449 Q462.176 502.99 462.176 510.12 Q462.176 517.226 463.982 520.791 Q465.811 524.333 469.422 524.333 Q473.056 524.333 474.862 520.791 Q476.69 517.226 476.69 510.12 Q476.69 502.99 474.862 499.449 Q473.056 495.884 469.422 495.884 M469.422 492.18 Q475.232 492.18 478.287 496.786 Q481.366 501.37 481.366 510.12 Q481.366 518.847 478.287 523.453 Q475.232 528.036 469.422 528.036 Q463.612 528.036 460.533 523.453 Q457.477 518.847 457.477 510.12 Q457.477 501.37 460.533 496.786 Q463.612 492.18 469.422 492.18 Z" fill="#000000" fill-rule="nonzero" fill-opacity="1" /><path clip-path="url(#clip480)" d="M502.431 496.879 L490.625 515.328 L502.431 515.328 L502.431 496.879 M501.204 492.805 L507.084 492.805 L507.084 515.328 L512.014 515.328 L512.014 519.217 L507.084 519.217 L507.084 527.365 L502.431 527.365 L502.431 519.217 L486.829 519.217 L486.829 514.703 L501.204 492.805 Z" fill="#000000" fill-rule="nonzero" fill-opacity="1" /><path clip-path="url(#clip480)" d="M519.792 492.805 L538.148 492.805 L538.148 496.74 L524.074 496.74 L524.074 505.212 Q525.093 504.865 526.111 504.703 Q527.13 504.518 528.148 504.518 Q533.935 504.518 537.315 507.689 Q540.695 510.86 540.695 516.277 Q540.695 521.856 537.222 524.958 Q533.75 528.036 527.431 528.036 Q525.255 528.036 522.986 527.666 Q520.741 527.296 518.334 526.555 L518.334 521.856 Q520.417 522.99 522.639 523.546 Q524.861 524.101 527.338 524.101 Q531.343 524.101 533.681 521.995 Q536.019 519.888 536.019 516.277 Q536.019 512.666 533.681 510.56 Q531.343 508.453 527.338 508.453 Q525.463 508.453 523.588 508.87 Q521.736 509.286 519.792 510.166 L519.792 492.805 Z" fill="#000000" fill-rule="nonzero" fill-opacity="1" /><path clip-path="url(#clip480)" d="M548.727 492.805 L570.949 492.805 L570.949 494.796 L558.403 527.365 L553.519 527.365 L565.324 496.74 L548.727 496.74 L548.727 492.805 Z" fill="#000000" fill-rule="nonzero" fill-opacity="1" /><path clip-path="url(#clip480)" d="M608.24 501.902 L597.662 512.527 L608.24 523.106 L605.486 525.907 L594.861 515.282 L584.236 525.907 L581.504 523.106 L592.06 512.527 L581.504 501.902 L584.236 499.101 L594.861 509.726 L605.486 499.101 L608.24 501.902 Z" fill="#000000" fill-rule="nonzero" fill-opacity="1" /><path clip-path="url(#clip480)" d="M620.602 523.43 L628.24 523.43 L628.24 497.064 L619.93 498.731 L619.93 494.472 L628.194 492.805 L632.87 492.805 L632.87 523.43 L640.509 523.43 L640.509 527.365 L620.602 527.365 L620.602 523.43 Z" fill="#000000" fill-rule="nonzero" fill-opacity="1" /><path clip-path="url(#clip480)" d="M659.953 495.884 Q656.342 495.884 654.513 499.449 Q652.708 502.99 652.708 510.12 Q652.708 517.226 654.513 520.791 Q656.342 524.333 659.953 524.333 Q663.587 524.333 665.393 520.791 Q667.222 517.226 667.222 510.12 Q667.222 502.99 665.393 499.449 Q663.587 495.884 659.953 495.884 M659.953 492.18 Q665.763 492.18 668.819 496.786 Q671.898 501.37 671.898 510.12 Q671.898 518.847 668.819 523.453 Q665.763 528.036 659.953 528.036 Q654.143 528.036 651.064 523.453 Q648.009 518.847 648.009 510.12 Q648.009 501.37 651.064 496.786 Q654.143 492.18 659.953 492.18 Z" fill="#000000" fill-rule="nonzero" fill-opacity="1" /><path clip-path="url(#clip480)" d="M672.443 496.757 L678.65 496.757 L678.65 475.335 L671.898 476.689 L671.898 473.229 L678.612 471.875 L682.411 471.875 L682.411 496.757 L688.618 496.757 L688.618 499.955 L672.443 499.955 L672.443 496.757 Z" fill="#000000" fill-rule="nonzero" fill-opacity="1" /><path clip-path="url(#clip480)" d="M292.363 232.808 L314.585 232.808 L314.585 234.799 L302.038 267.368 L297.154 267.368 L308.96 236.744 L292.363 236.744 L292.363 232.808 Z" fill="#000000" fill-rule="nonzero" fill-opacity="1" /><path clip-path="url(#clip480)" d="M323.705 261.489 L328.589 261.489 L328.589 267.368 L323.705 267.368 L323.705 261.489 Z" fill="#000000" fill-rule="nonzero" fill-opacity="1" /><path clip-path="url(#clip480)" d="M348.774 235.887 Q345.163 235.887 343.334 239.452 Q341.529 242.994 341.529 250.123 Q341.529 257.23 343.334 260.794 Q345.163 264.336 348.774 264.336 Q352.408 264.336 354.214 260.794 Q356.043 257.23 356.043 250.123 Q356.043 242.994 354.214 239.452 Q352.408 235.887 348.774 235.887 M348.774 232.184 Q354.584 232.184 357.64 236.79 Q360.719 241.373 360.719 250.123 Q360.719 258.85 357.64 263.456 Q354.584 268.04 348.774 268.04 Q342.964 268.04 339.885 263.456 Q336.83 258.85 336.83 250.123 Q336.83 241.373 339.885 236.79 Q342.964 232.184 348.774 232.184 Z" fill="#000000" fill-rule="nonzero" fill-opacity="1" /><path clip-path="url(#clip480)" d="M367.756 232.808 L389.978 232.808 L389.978 234.799 L377.432 267.368 L372.547 267.368 L384.353 236.744 L367.756 236.744 L367.756 232.808 Z" fill="#000000" fill-rule="nonzero" fill-opacity="1" /><path clip-path="url(#clip480)" d="M409.677 248.225 Q406.529 248.225 404.677 250.378 Q402.848 252.531 402.848 256.281 Q402.848 260.007 404.677 262.183 Q406.529 264.336 409.677 264.336 Q412.825 264.336 414.654 262.183 Q416.505 260.007 416.505 256.281 Q416.505 252.531 414.654 250.378 Q412.825 248.225 409.677 248.225 M418.959 233.572 L418.959 237.832 Q417.2 236.998 415.394 236.558 Q413.612 236.119 411.853 236.119 Q407.223 236.119 404.769 239.244 Q402.339 242.369 401.992 248.688 Q403.357 246.674 405.417 245.609 Q407.478 244.521 409.954 244.521 Q415.163 244.521 418.172 247.693 Q421.204 250.841 421.204 256.281 Q421.204 261.605 418.056 264.822 Q414.908 268.04 409.677 268.04 Q403.681 268.04 400.51 263.456 Q397.339 258.85 397.339 250.123 Q397.339 241.929 401.228 237.068 Q405.117 232.184 411.667 232.184 Q413.427 232.184 415.209 232.531 Q417.015 232.878 418.959 233.572 Z" fill="#000000" fill-rule="nonzero" fill-opacity="1" /><path clip-path="url(#clip480)" d="M430.07 263.433 L437.709 263.433 L437.709 237.068 L429.399 238.734 L429.399 234.475 L437.663 232.808 L442.339 232.808 L442.339 263.433 L449.977 263.433 L449.977 267.368 L430.07 267.368 L430.07 263.433 Z" fill="#000000" fill-rule="nonzero" fill-opacity="1" /><path clip-path="url(#clip480)" d="M469.422 235.887 Q465.811 235.887 463.982 239.452 Q462.176 242.994 462.176 250.123 Q462.176 257.23 463.982 260.794 Q465.811 264.336 469.422 264.336 Q473.056 264.336 474.862 260.794 Q476.69 257.23 476.69 250.123 Q476.69 242.994 474.862 239.452 Q473.056 235.887 469.422 235.887 M469.422 232.184 Q475.232 232.184 478.287 236.79 Q481.366 241.373 481.366 250.123 Q481.366 258.85 478.287 263.456 Q475.232 268.04 469.422 268.04 Q463.612 268.04 460.533 263.456 Q457.477 258.85 457.477 250.123 Q457.477 241.373 460.533 236.79 Q463.612 232.184 469.422 232.184 Z" fill="#000000" fill-rule="nonzero" fill-opacity="1" /><path clip-path="url(#clip480)" d="M502.431 236.883 L490.625 255.332 L502.431 255.332 L502.431 236.883 M501.204 232.808 L507.084 232.808 L507.084 255.332 L512.014 255.332 L512.014 259.22 L507.084 259.22 L507.084 267.368 L502.431 267.368 L502.431 259.22 L486.829 259.22 L486.829 254.707 L501.204 232.808 Z" fill="#000000" fill-rule="nonzero" fill-opacity="1" /><path clip-path="url(#clip480)" d="M519.792 232.808 L538.148 232.808 L538.148 236.744 L524.074 236.744 L524.074 245.216 Q525.093 244.869 526.111 244.707 Q527.13 244.521 528.148 244.521 Q533.935 244.521 537.315 247.693 Q540.695 250.864 540.695 256.281 Q540.695 261.859 537.222 264.961 Q533.75 268.04 527.431 268.04 Q525.255 268.04 522.986 267.669 Q520.741 267.299 518.334 266.558 L518.334 261.859 Q520.417 262.994 522.639 263.549 Q524.861 264.105 527.338 264.105 Q531.343 264.105 533.681 261.998 Q536.019 259.892 536.019 256.281 Q536.019 252.67 533.681 250.563 Q531.343 248.457 527.338 248.457 Q525.463 248.457 523.588 248.873 Q521.736 249.29 519.792 250.17 L519.792 232.808 Z" fill="#000000" fill-rule="nonzero" fill-opacity="1" /><path clip-path="url(#clip480)" d="M548.727 232.808 L570.949 232.808 L570.949 234.799 L558.403 267.368 L553.519 267.368 L565.324 236.744 L548.727 236.744 L548.727 232.808 Z" fill="#000000" fill-rule="nonzero" fill-opacity="1" /><path clip-path="url(#clip480)" d="M608.24 241.906 L597.662 252.531 L608.24 263.109 L605.486 265.91 L594.861 255.285 L584.236 265.91 L581.504 263.109 L592.06 252.531 L581.504 241.906 L584.236 239.105 L594.861 249.73 L605.486 239.105 L608.24 241.906 Z" fill="#000000" fill-rule="nonzero" fill-opacity="1" /><path clip-path="url(#clip480)" d="M620.602 263.433 L628.24 263.433 L628.24 237.068 L619.93 238.734 L619.93 234.475 L628.194 232.808 L632.87 232.808 L632.87 263.433 L640.509 263.433 L640.509 267.368 L620.602 267.368 L620.602 263.433 Z" fill="#000000" fill-rule="nonzero" fill-opacity="1" /><path clip-path="url(#clip480)" d="M659.953 235.887 Q656.342 235.887 654.513 239.452 Q652.708 242.994 652.708 250.123 Q652.708 257.23 654.513 260.794 Q656.342 264.336 659.953 264.336 Q663.587 264.336 665.393 260.794 Q667.222 257.23 667.222 250.123 Q667.222 242.994 665.393 239.452 Q663.587 235.887 659.953 235.887 M659.953 232.184 Q665.763 232.184 668.819 236.79 Q671.898 241.373 671.898 250.123 Q671.898 258.85 668.819 263.456 Q665.763 268.04 659.953 268.04 Q654.143 268.04 651.064 263.456 Q648.009 258.85 648.009 250.123 Q648.009 241.373 651.064 236.79 Q654.143 232.184 659.953 232.184 Z" fill="#000000" fill-rule="nonzero" fill-opacity="1" /><path clip-path="url(#clip480)" d="M672.443 236.761 L678.65 236.761 L678.65 215.339 L671.898 216.693 L671.898 213.232 L678.612 211.878 L682.411 211.878 L682.411 236.761 L688.618 236.761 L688.618 239.958 L672.443 239.958 L672.443 236.761 Z" fill="#000000" fill-rule="nonzero" fill-opacity="1" /><path clip-path="url(#clip480)" d="M185.587 1082.01 L185.587 1054.7 L190.997 1054.7 L190.997 1075.58 L205.002 1075.58 L205.002 1056.74 L210.413 1056.74 L210.413 1075.58 L233.107 1075.58 L233.107 1082.01 L185.587 1082.01 Z" fill="#000000" fill-rule="nonzero" fill-opacity="1" /><path clip-path="url(#clip480)" d="M197.459 1049.51 L197.459 1043.66 L233.107 1043.66 L233.107 1049.51 L197.459 1049.51 M183.581 1049.51 L183.581 1043.66 L190.997 1043.66 L190.997 1049.51 L183.581 1049.51 Z" fill="#000000" fill-rule="nonzero" fill-opacity="1" /><path clip-path="url(#clip480)" d="M211.59 1001.77 L233.107 1001.77 L233.107 1007.63 L211.781 1007.63 Q206.721 1007.63 204.206 1009.6 Q201.692 1011.57 201.692 1015.52 Q201.692 1020.26 204.715 1023 Q207.739 1025.74 212.959 1025.74 L233.107 1025.74 L233.107 1031.63 L197.459 1031.63 L197.459 1025.74 L202.997 1025.74 Q199.782 1023.64 198.191 1020.81 Q196.599 1017.94 196.599 1014.22 Q196.599 1008.07 200.419 1004.92 Q204.206 1001.77 211.59 1001.77 Z" fill="#000000" fill-rule="nonzero" fill-opacity="1" /><path clip-path="url(#clip480)" d="M215.187 973.89 Q215.187 980.988 216.81 983.725 Q218.434 986.462 222.348 986.462 Q225.468 986.462 227.314 984.425 Q229.128 982.356 229.128 978.823 Q229.128 973.953 225.69 971.025 Q222.221 968.065 216.492 968.065 L215.187 968.065 L215.187 973.89 M212.768 962.209 L233.107 962.209 L233.107 968.065 L227.696 968.065 Q230.942 970.07 232.502 973.062 Q234.03 976.054 234.03 980.383 Q234.03 985.857 230.974 989.104 Q227.887 992.319 222.73 992.319 Q216.715 992.319 213.659 988.308 Q210.604 984.266 210.604 976.277 L210.604 968.065 L210.031 968.065 Q205.989 968.065 203.792 970.739 Q201.564 973.381 201.564 978.187 Q201.564 981.242 202.296 984.139 Q203.029 987.035 204.493 989.709 L199.082 989.709 Q197.841 986.494 197.236 983.47 Q196.599 980.447 196.599 977.582 Q196.599 969.848 200.61 966.028 Q204.62 962.209 212.768 962.209 Z" fill="#000000" fill-rule="nonzero" fill-opacity="1" /><path clip-path="url(#clip480)" d="M183.581 950.146 L183.581 944.289 L233.107 944.289 L233.107 950.146 L183.581 950.146 Z" fill="#000000" fill-rule="nonzero" fill-opacity="1" /><path clip-path="url(#clip480)" d="M211.59 881.683 L233.107 881.683 L233.107 887.539 L211.781 887.539 Q206.721 887.539 204.206 889.512 Q201.692 891.486 201.692 895.432 Q201.692 900.175 204.715 902.912 Q207.739 905.649 212.959 905.649 L233.107 905.649 L233.107 911.538 L197.459 911.538 L197.459 905.649 L202.997 905.649 Q199.782 903.549 198.191 900.716 Q196.599 897.851 196.599 894.128 Q196.599 887.985 200.419 884.834 Q204.206 881.683 211.59 881.683 Z" fill="#000000" fill-rule="nonzero" fill-opacity="1" /><path clip-path="url(#clip480)" d="M183.581 870.001 L183.581 864.145 L233.107 864.145 L233.107 870.001 L183.581 870.001 Z" fill="#000000" fill-rule="nonzero" fill-opacity="1" /><path clip-path="url(#clip480)" d="M183.581 851.891 L183.581 846.035 L233.107 846.035 L233.107 851.891 L183.581 851.891 Z" fill="#000000" fill-rule="nonzero" fill-opacity="1" /><path clip-path="url(#clip480)" d="M211.59 804.148 L233.107 804.148 L233.107 810.005 L211.781 810.005 Q206.721 810.005 204.206 811.978 Q201.692 813.951 201.692 817.898 Q201.692 822.641 204.715 825.378 Q207.739 828.115 212.959 828.115 L233.107 828.115 L233.107 834.003 L183.581 834.003 L183.581 828.115 L202.997 828.115 Q199.782 826.014 198.191 823.182 Q196.599 820.317 196.599 816.593 Q196.599 810.45 200.419 807.299 Q204.206 804.148 211.59 804.148 Z" fill="#000000" fill-rule="nonzero" fill-opacity="1" /><path clip-path="url(#clip480)" d="M197.459 775.948 L197.459 769.742 L227.377 758.602 L197.459 747.462 L197.459 741.255 L233.107 754.623 L233.107 762.58 L197.459 775.948 Z" fill="#000000" fill-rule="nonzero" fill-opacity="1" /><path clip-path="url(#clip480)" d="M215.187 716.97 Q215.187 724.068 216.81 726.805 Q218.434 729.542 222.348 729.542 Q225.468 729.542 227.314 727.505 Q229.128 725.436 229.128 721.903 Q229.128 717.034 225.69 714.105 Q222.221 711.145 216.492 711.145 L215.187 711.145 L215.187 716.97 M212.768 705.289 L233.107 705.289 L233.107 711.145 L227.696 711.145 Q230.942 713.15 232.502 716.142 Q234.03 719.134 234.03 723.463 Q234.03 728.937 230.974 732.184 Q227.887 735.399 222.73 735.399 Q216.715 735.399 213.659 731.388 Q210.604 727.346 210.604 719.357 L210.604 711.145 L210.031 711.145 Q205.989 711.145 203.792 713.819 Q201.564 716.461 201.564 721.267 Q201.564 724.322 202.296 727.219 Q203.029 730.115 204.493 732.789 L199.082 732.789 Q197.841 729.574 197.236 726.55 Q196.599 723.527 196.599 720.662 Q196.599 712.928 200.61 709.108 Q204.62 705.289 212.768 705.289 Z" fill="#000000" fill-rule="nonzero" fill-opacity="1" /><path clip-path="url(#clip480)" d="M183.581 693.226 L183.581 687.369 L233.107 687.369 L233.107 693.226 L183.581 693.226 Z" fill="#000000" fill-rule="nonzero" fill-opacity="1" /><path clip-path="url(#clip480)" d="M219.038 675.72 L197.459 675.72 L197.459 669.864 L218.816 669.864 Q223.876 669.864 226.423 667.89 Q228.937 665.917 228.937 661.97 Q228.937 657.228 225.913 654.49 Q222.89 651.721 217.67 651.721 L197.459 651.721 L197.459 645.865 L233.107 645.865 L233.107 651.721 L227.632 651.721 Q230.879 653.854 232.47 656.687 Q234.03 659.488 234.03 663.212 Q234.03 669.354 230.21 672.537 Q226.391 675.72 219.038 675.72 M196.599 660.984 L196.599 660.984 Z" fill="#000000" fill-rule="nonzero" fill-opacity="1" /><path clip-path="url(#clip480)" d="M213.818 603.31 L216.683 603.31 L216.683 630.237 Q222.73 629.855 225.913 626.609 Q229.064 623.33 229.064 617.506 Q229.064 614.132 228.237 610.981 Q227.409 607.798 225.754 604.679 L231.292 604.679 Q232.629 607.83 233.329 611.14 Q234.03 614.45 234.03 617.856 Q234.03 626.386 229.064 631.383 Q224.099 636.348 215.633 636.348 Q206.88 636.348 201.755 631.638 Q196.599 626.895 196.599 618.874 Q196.599 611.681 201.246 607.512 Q205.861 603.31 213.818 603.31 M212.1 609.167 Q207.294 609.23 204.429 611.872 Q201.564 614.482 201.564 618.811 Q201.564 623.712 204.334 626.672 Q207.103 629.601 212.132 630.046 L212.1 609.167 Z" fill="#000000" fill-rule="nonzero" fill-opacity="1" /><circle clip-path="url(#clip482)" cx="796.423" cy="1593.05" r="28.8" fill="#cc79a7" fill-rule="evenodd" fill-opacity="1" stroke="#000000" stroke-opacity="1" stroke-width="4"/>
<circle clip-path="url(#clip482)" cx="839.148" cy="1592.96" r="28.8" fill="#cc79a7" fill-rule="evenodd" fill-opacity="1" stroke="#000000" stroke-opacity="1" stroke-width="4"/>
<circle clip-path="url(#clip482)" cx="881.873" cy="1592.33" r="28.8" fill="#cc79a7" fill-rule="evenodd" fill-opacity="1" stroke="#000000" stroke-opacity="1" stroke-width="4"/>
<circle clip-path="url(#clip482)" cx="924.599" cy="1589.31" r="28.8" fill="#cc79a7" fill-rule="evenodd" fill-opacity="1" stroke="#000000" stroke-opacity="1" stroke-width="4"/>
<circle clip-path="url(#clip482)" cx="967.324" cy="1588.47" r="28.8" fill="#cc79a7" fill-rule="evenodd" fill-opacity="1" stroke="#000000" stroke-opacity="1" stroke-width="4"/>
<circle clip-path="url(#clip482)" cx="1010.05" cy="1587.55" r="28.8" fill="#cc79a7" fill-rule="evenodd" fill-opacity="1" stroke="#000000" stroke-opacity="1" stroke-width="4"/>
<circle clip-path="url(#clip482)" cx="1052.77" cy="1587.02" r="28.8" fill="#cc79a7" fill-rule="evenodd" fill-opacity="1" stroke="#000000" stroke-opacity="1" stroke-width="4"/>
<circle clip-path="url(#clip482)" cx="1095.5" cy="1586.42" r="28.8" fill="#cc79a7" fill-rule="evenodd" fill-opacity="1" stroke="#000000" stroke-opacity="1" stroke-width="4"/>
<circle clip-path="url(#clip482)" cx="1138.22" cy="1586.17" r="28.8" fill="#cc79a7" fill-rule="evenodd" fill-opacity="1" stroke="#000000" stroke-opacity="1" stroke-width="4"/>
<circle clip-path="url(#clip482)" cx="1180.95" cy="1586.11" r="28.8" fill="#cc79a7" fill-rule="evenodd" fill-opacity="1" stroke="#000000" stroke-opacity="1" stroke-width="4"/>
<circle clip-path="url(#clip482)" cx="1223.67" cy="1586.05" r="28.8" fill="#cc79a7" fill-rule="evenodd" fill-opacity="1" stroke="#000000" stroke-opacity="1" stroke-width="4"/>
<circle clip-path="url(#clip482)" cx="1266.4" cy="1586.04" r="28.8" fill="#cc79a7" fill-rule="evenodd" fill-opacity="1" stroke="#000000" stroke-opacity="1" stroke-width="4"/>
<circle clip-path="url(#clip482)" cx="1309.12" cy="1586.03" r="28.8" fill="#cc79a7" fill-rule="evenodd" fill-opacity="1" stroke="#000000" stroke-opacity="1" stroke-width="4"/>
<circle clip-path="url(#clip482)" cx="1351.85" cy="1586" r="28.8" fill="#cc79a7" fill-rule="evenodd" fill-opacity="1" stroke="#000000" stroke-opacity="1" stroke-width="4"/>
<circle clip-path="url(#clip482)" cx="1394.57" cy="1585.97" r="28.8" fill="#cc79a7" fill-rule="evenodd" fill-opacity="1" stroke="#000000" stroke-opacity="1" stroke-width="4"/>
<circle clip-path="url(#clip482)" cx="1437.3" cy="1585.97" r="28.8" fill="#cc79a7" fill-rule="evenodd" fill-opacity="1" stroke="#000000" stroke-opacity="1" stroke-width="4"/>
<circle clip-path="url(#clip482)" cx="1480.02" cy="1585.95" r="28.8" fill="#cc79a7" fill-rule="evenodd" fill-opacity="1" stroke="#000000" stroke-opacity="1" stroke-width="4"/>
<circle clip-path="url(#clip482)" cx="1522.75" cy="1585.94" r="28.8" fill="#cc79a7" fill-rule="evenodd" fill-opacity="1" stroke="#000000" stroke-opacity="1" stroke-width="4"/>
<circle clip-path="url(#clip482)" cx="1565.47" cy="1585.91" r="28.8" fill="#cc79a7" fill-rule="evenodd" fill-opacity="1" stroke="#000000" stroke-opacity="1" stroke-width="4"/>
<circle clip-path="url(#clip482)" cx="1608.2" cy="1585.89" r="28.8" fill="#cc79a7" fill-rule="evenodd" fill-opacity="1" stroke="#000000" stroke-opacity="1" stroke-width="4"/>
<circle clip-path="url(#clip482)" cx="1650.92" cy="1585.87" r="28.8" fill="#cc79a7" fill-rule="evenodd" fill-opacity="1" stroke="#000000" stroke-opacity="1" stroke-width="4"/>
<circle clip-path="url(#clip482)" cx="1693.65" cy="1585.86" r="28.8" fill="#cc79a7" fill-rule="evenodd" fill-opacity="1" stroke="#000000" stroke-opacity="1" stroke-width="4"/>
<circle clip-path="url(#clip482)" cx="1736.37" cy="1585.86" r="28.8" fill="#cc79a7" fill-rule="evenodd" fill-opacity="1" stroke="#000000" stroke-opacity="1" stroke-width="4"/>
<circle clip-path="url(#clip482)" cx="1779.1" cy="1585.86" r="28.8" fill="#cc79a7" fill-rule="evenodd" fill-opacity="1" stroke="#000000" stroke-opacity="1" stroke-width="4"/>
<circle clip-path="url(#clip482)" cx="1821.82" cy="1585.85" r="28.8" fill="#cc79a7" fill-rule="evenodd" fill-opacity="1" stroke="#000000" stroke-opacity="1" stroke-width="4"/>
<circle clip-path="url(#clip482)" cx="1864.55" cy="1585.85" r="28.8" fill="#cc79a7" fill-rule="evenodd" fill-opacity="1" stroke="#000000" stroke-opacity="1" stroke-width="4"/>
<circle clip-path="url(#clip482)" cx="1907.27" cy="1585.84" r="28.8" fill="#cc79a7" fill-rule="evenodd" fill-opacity="1" stroke="#000000" stroke-opacity="1" stroke-width="4"/>
<circle clip-path="url(#clip482)" cx="1950" cy="1585.81" r="28.8" fill="#cc79a7" fill-rule="evenodd" fill-opacity="1" stroke="#000000" stroke-opacity="1" stroke-width="4"/>
<circle clip-path="url(#clip482)" cx="1992.72" cy="1585.79" r="28.8" fill="#cc79a7" fill-rule="evenodd" fill-opacity="1" stroke="#000000" stroke-opacity="1" stroke-width="4"/>
<circle clip-path="url(#clip482)" cx="2035.45" cy="1585.75" r="28.8" fill="#cc79a7" fill-rule="evenodd" fill-opacity="1" stroke="#000000" stroke-opacity="1" stroke-width="4"/>
<circle clip-path="url(#clip482)" cx="2078.17" cy="1585.75" r="28.8" fill="#cc79a7" fill-rule="evenodd" fill-opacity="1" stroke="#000000" stroke-opacity="1" stroke-width="4"/>
<circle clip-path="url(#clip482)" cx="2120.9" cy="1585.74" r="28.8" fill="#cc79a7" fill-rule="evenodd" fill-opacity="1" stroke="#000000" stroke-opacity="1" stroke-width="4"/>
<circle clip-path="url(#clip482)" cx="2163.62" cy="1585.73" r="28.8" fill="#cc79a7" fill-rule="evenodd" fill-opacity="1" stroke="#000000" stroke-opacity="1" stroke-width="4"/>
<circle clip-path="url(#clip482)" cx="2206.35" cy="1585.72" r="28.8" fill="#cc79a7" fill-rule="evenodd" fill-opacity="1" stroke="#000000" stroke-opacity="1" stroke-width="4"/>
<circle clip-path="url(#clip482)" cx="2249.07" cy="1585.71" r="28.8" fill="#cc79a7" fill-rule="evenodd" fill-opacity="1" stroke="#000000" stroke-opacity="1" stroke-width="4"/>
<circle clip-path="url(#clip482)" cx="2291.8" cy="1585.68" r="28.8" fill="#cc79a7" fill-rule="evenodd" fill-opacity="1" stroke="#000000" stroke-opacity="1" stroke-width="4"/>
<circle clip-path="url(#clip482)" cx="2334.52" cy="1585.67" r="28.8" fill="#cc79a7" fill-rule="evenodd" fill-opacity="1" stroke="#000000" stroke-opacity="1" stroke-width="4"/>
<circle clip-path="url(#clip482)" cx="2377.25" cy="1585.67" r="28.8" fill="#cc79a7" fill-rule="evenodd" fill-opacity="1" stroke="#000000" stroke-opacity="1" stroke-width="4"/>
<circle clip-path="url(#clip482)" cx="2419.97" cy="1585.64" r="28.8" fill="#cc79a7" fill-rule="evenodd" fill-opacity="1" stroke="#000000" stroke-opacity="1" stroke-width="4"/>
<circle clip-path="url(#clip482)" cx="2462.7" cy="1585.63" r="28.8" fill="#cc79a7" fill-rule="evenodd" fill-opacity="1" stroke="#000000" stroke-opacity="1" stroke-width="4"/>
<circle clip-path="url(#clip482)" cx="2505.42" cy="1585.6" r="28.8" fill="#cc79a7" fill-rule="evenodd" fill-opacity="1" stroke="#000000" stroke-opacity="1" stroke-width="4"/>
<circle clip-path="url(#clip482)" cx="2548.15" cy="1585.6" r="28.8" fill="#cc79a7" fill-rule="evenodd" fill-opacity="1" stroke="#000000" stroke-opacity="1" stroke-width="4"/>
<circle clip-path="url(#clip482)" cx="2590.87" cy="1585.57" r="28.8" fill="#cc79a7" fill-rule="evenodd" fill-opacity="1" stroke="#000000" stroke-opacity="1" stroke-width="4"/>
<circle clip-path="url(#clip482)" cx="2633.6" cy="1585.55" r="28.8" fill="#cc79a7" fill-rule="evenodd" fill-opacity="1" stroke="#000000" stroke-opacity="1" stroke-width="4"/>
<circle clip-path="url(#clip482)" cx="2676.32" cy="1585.54" r="28.8" fill="#cc79a7" fill-rule="evenodd" fill-opacity="1" stroke="#000000" stroke-opacity="1" stroke-width="4"/>
<circle clip-path="url(#clip482)" cx="2719.05" cy="1585.49" r="28.8" fill="#cc79a7" fill-rule="evenodd" fill-opacity="1" stroke="#000000" stroke-opacity="1" stroke-width="4"/>
<circle clip-path="url(#clip482)" cx="2761.78" cy="1585.4" r="28.8" fill="#cc79a7" fill-rule="evenodd" fill-opacity="1" stroke="#000000" stroke-opacity="1" stroke-width="4"/>
<circle clip-path="url(#clip482)" cx="2804.5" cy="1585.28" r="28.8" fill="#cc79a7" fill-rule="evenodd" fill-opacity="1" stroke="#000000" stroke-opacity="1" stroke-width="4"/>
<circle clip-path="url(#clip482)" cx="2847.23" cy="1549.02" r="28.8" fill="#cc79a7" fill-rule="evenodd" fill-opacity="1" stroke="#000000" stroke-opacity="1" stroke-width="4"/>
<circle clip-path="url(#clip482)" cx="2889.95" cy="92.2678" r="28.8" fill="#cc79a7" fill-rule="evenodd" fill-opacity="1" stroke="#000000" stroke-opacity="1" stroke-width="4"/>
</svg>
